ply
format ascii 1.0
comment Created by Blender 3.0.0 - www.blender.org
element vertex 122
property float x
property float y
property float z
property float nx
property float ny
property float nz
property uchar red
property uchar green
property uchar blue
property uchar alpha
element face 32
property list uchar uint vertex_indices
end_header
-100.000000 0.000002 4.000000 0.196116 0.000000 0.980581 110 0 0 255
-80.000000 0.000002 0.000000 0.196116 0.000000 0.980581 110 0 0 255
-80.000000 258.080505 0.000000 0.196116 0.000000 0.980581 110 0 0 255
-100.000000 258.080505 4.000000 0.196116 0.000000 0.980581 110 0 0 255
80.000000 0.000002 0.000000 -0.196116 0.000000 0.980581 110 0 0 255
100.000000 0.000002 4.000000 -0.196116 0.000000 0.980581 110 0 0 255
100.000000 258.080505 4.000000 -0.196116 0.000000 0.980581 110 0 0 255
80.000000 258.080505 0.000000 -0.196116 0.000000 0.980581 110 0 0 255
120.000000 0.000002 80.000000 0.000000 -0.000000 -1.000000 110 0 0 255
-120.000000 0.000002 80.000000 0.000000 -0.000000 -1.000000 110 0 0 255
-120.000000 258.080505 79.999992 0.000000 -0.000000 -1.000000 110 0 0 255
120.000000 258.080505 79.999992 0.000000 -0.000000 -1.000000 110 0 0 255
-120.000000 0.000002 4.000000 0.000000 0.000000 1.000000 110 0 0 255
-100.000000 0.000002 4.000000 0.000000 0.000000 1.000000 110 0 0 255
-100.000000 258.080505 4.000000 0.000000 0.000000 1.000000 110 0 0 255
-120.000000 258.080505 4.000000 0.000000 0.000000 1.000000 110 0 0 255
100.000000 0.000002 4.000000 0.000000 0.000000 1.000000 110 0 0 255
120.000000 0.000002 4.000000 0.000000 0.000000 1.000000 110 0 0 255
120.000000 258.080505 4.000000 0.000000 0.000000 1.000000 110 0 0 255
100.000000 258.080505 4.000000 0.000000 0.000000 1.000000 110 0 0 255
120.000000 0.000002 4.000000 -0.963518 0.000000 0.267644 110 0 0 255
130.000000 0.000002 40.000000 -0.963518 0.000000 0.267644 110 0 0 255
130.000000 258.080505 40.000000 -0.963518 0.000000 0.267644 110 0 0 255
120.000000 258.080505 4.000000 -0.963518 0.000000 0.267644 110 0 0 255
-130.000000 0.000002 40.000000 0.963518 0.000000 0.267644 110 0 0 255
-120.000000 0.000002 4.000000 0.963518 0.000000 0.267644 110 0 0 255
-120.000000 258.080505 4.000000 0.963518 0.000000 0.267644 110 0 0 255
-130.000000 258.080505 40.000000 0.963518 0.000000 0.267644 110 0 0 255
130.000000 0.000002 40.000000 -0.970142 -0.000000 -0.242536 110 0 0 255
120.000000 0.000002 80.000000 -0.970142 -0.000000 -0.242536 110 0 0 255
120.000000 258.080505 79.999992 -0.970142 -0.000000 -0.242536 110 0 0 255
130.000000 258.080505 40.000000 -0.970142 -0.000000 -0.242536 110 0 0 255
-80.000000 0.000002 0.000000 0.000000 -0.000000 1.000000 255 0 0 255
80.000000 0.000002 0.000000 0.000000 -0.000000 1.000000 255 0 0 255
80.000000 258.080505 0.000000 0.000000 -0.000000 1.000000 255 0 0 255
-80.000000 258.080505 0.000000 0.000000 -0.000000 1.000000 255 0 0 255
-120.000000 0.000002 80.000000 0.970142 -0.000000 -0.242536 110 0 0 255
-130.000000 0.000002 40.000000 0.970142 -0.000000 -0.242536 110 0 0 255
-130.000000 258.080505 40.000000 0.970142 -0.000000 -0.242536 110 0 0 255
-120.000000 258.080505 79.999992 0.970142 -0.000000 -0.242536 110 0 0 255
-100.000000 258.080505 4.000000 0.150081 0.034225 0.988081 110 0 0 255
-80.000000 258.080505 0.000000 0.150081 0.034225 0.988081 110 0 0 255
-130.676559 508.080505 -0.000001 0.150081 0.034225 0.988081 110 0 0 255
-163.345703 508.080505 3.999999 0.150081 0.034225 0.988081 110 0 0 255
80.000000 258.080505 0.000000 -0.150081 0.034225 0.988081 110 0 0 255
100.000000 258.080505 4.000000 -0.150081 0.034225 0.988081 110 0 0 255
163.345703 508.080505 3.999999 -0.150081 0.034225 0.988081 110 0 0 255
130.676559 508.080505 -0.000001 -0.150081 0.034225 0.988081 110 0 0 255
120.000000 258.080505 79.999992 0.000000 0.129547 -0.991573 110 0 0 255
-120.000000 258.080505 79.999992 0.000000 0.129547 -0.991573 110 0 0 255
-196.014847 508.080505 112.662003 0.000000 0.129547 -0.991573 110 0 0 255
196.014847 508.080505 112.662003 0.000000 0.129547 -0.991573 110 0 0 255
-163.345703 508.080505 3.999999 0.000000 0.000000 1.000000 110 0 0 255
-196.014847 508.080505 3.999999 0.000000 0.000000 1.000000 110 0 0 255
196.014847 508.080505 3.999999 0.000000 0.000000 1.000000 110 0 0 255
163.345703 508.080505 3.999999 0.000000 0.000000 1.000000 110 0 0 255
120.000000 258.080505 4.000000 -0.918575 0.282382 0.276551 110 0 0 255
130.000000 258.080505 40.000000 -0.918575 0.282382 0.276551 110 0 0 255
212.349411 508.080505 55.471474 -0.918575 0.282382 0.276551 110 0 0 255
196.014847 508.080505 3.999999 -0.918575 0.282382 0.276551 110 0 0 255
-130.000000 258.080505 40.000000 0.918575 0.282382 0.276551 110 0 0 255
-120.000000 258.080505 4.000000 0.918575 0.282382 0.276551 110 0 0 255
-196.014847 508.080505 3.999999 0.918575 0.282382 0.276551 110 0 0 255
-212.349411 508.080505 55.471474 0.918575 0.282382 0.276551 110 0 0 255
130.000000 258.080505 40.000000 -0.916337 0.314132 -0.248289 110 0 0 255
120.000000 258.080505 79.999992 -0.916337 0.314132 -0.248289 110 0 0 255
196.014847 508.080505 112.662003 -0.916337 0.314132 -0.248289 110 0 0 255
212.349411 508.080505 55.471474 -0.916337 0.314132 -0.248289 110 0 0 255
130.676559 508.080505 -0.000001 0.000000 0.000000 1.000000 255 0 0 255
-130.676559 508.080505 -0.000001 0.000000 0.000000 1.000000 255 0 0 255
-120.000000 258.080505 79.999992 0.916337 0.314132 -0.248289 110 0 0 255
-130.000000 258.080505 40.000000 0.916337 0.314132 -0.248289 110 0 0 255
-212.349411 508.080505 55.471474 0.916337 0.314132 -0.248289 110 0 0 255
-196.014847 508.080505 112.662003 0.916337 0.314132 -0.248289 110 0 0 255
130.676559 508.080505 -0.000001 -0.120869 0.104346 0.987169 110 0 0 255
163.345703 508.080505 3.999999 -0.120869 0.104346 0.987169 110 0 0 255
163.345703 591.331604 -4.799812 -0.120869 0.104346 0.987169 110 0 0 255
130.676559 591.331604 -8.799812 -0.120869 0.104346 0.987169 110 0 0 255
196.014847 508.080505 112.662003 0.000000 0.745219 -0.666819 110 0 0 255
-196.014847 508.080505 112.662003 0.000000 0.745219 -0.666819 110 0 0 255
-196.014847 591.331604 205.701202 0.000000 0.745219 -0.666819 110 0 0 255
196.014847 591.331604 205.701202 0.000000 0.745219 -0.666819 110 0 0 255
-196.014847 508.080505 3.999999 0.000000 0.105116 0.994460 110 0 0 255
-163.345703 508.080505 3.999999 0.000000 0.105116 0.994460 110 0 0 255
-163.345703 591.331604 -4.799812 0.000000 0.105116 0.994460 110 0 0 255
-196.014847 591.331604 -4.799812 0.000000 0.105116 0.994460 110 0 0 255
163.345703 508.080505 3.999999 0.000000 0.105116 0.994460 110 0 0 255
196.014847 508.080505 3.999999 0.000000 0.105116 0.994460 110 0 0 255
196.014847 591.331604 -4.799812 0.000000 0.105116 0.994460 110 0 0 255
163.345703 591.331604 -4.799812 0.000000 0.105116 0.994460 110 0 0 255
196.014847 508.080505 3.999999 -0.710958 0.315508 0.628485 110 0 0 255
212.349411 508.080505 55.471474 -0.710958 0.315508 0.628485 110 0 0 255
278.460510 591.331604 55.471478 -0.710958 0.315508 0.628485 110 0 0 255
196.014847 591.331604 -4.799812 -0.710958 0.315508 0.628485 110 0 0 255
-212.349411 508.080505 55.471474 0.710958 0.315508 0.628485 110 0 0 255
-196.014847 508.080505 3.999999 0.710958 0.315508 0.628485 110 0 0 255
-196.014847 591.331604 -4.799812 0.710958 0.315508 0.628485 110 0 0 255
-278.460510 591.331604 55.471478 0.710958 0.315508 0.628485 110 0 0 255
212.349411 508.080505 55.471474 -0.774614 0.513701 -0.368896 110 0 0 255
196.014847 508.080505 112.662003 -0.774614 0.513701 -0.368896 110 0 0 255
196.014847 591.331604 205.701202 -0.774614 0.513701 -0.368896 110 0 0 255
278.460510 591.331604 55.471478 -0.774614 0.513701 -0.368896 110 0 0 255
-130.676559 508.080505 -0.000001 0.000000 0.105116 0.994460 255 0 0 255
130.676559 508.080505 -0.000001 0.000000 0.105116 0.994460 255 0 0 255
130.676559 591.331604 -8.799812 0.000000 0.105116 0.994460 255 0 0 255
-130.676559 591.331604 -8.799812 0.000000 0.105116 0.994460 255 0 0 255
-196.014847 508.080505 112.662003 0.774614 0.513701 -0.368896 110 0 0 255
-212.349411 508.080505 55.471474 0.774614 0.513701 -0.368896 110 0 0 255
-278.460510 591.331604 55.471478 0.774614 0.513701 -0.368896 110 0 0 255
-196.014847 591.331604 205.701202 0.774614 0.513701 -0.368896 110 0 0 255
-163.345703 508.080505 3.999999 0.120869 0.104346 0.987169 110 0 0 255
-130.676559 508.080505 -0.000001 0.120869 0.104346 0.987169 110 0 0 255
-130.676559 591.331604 -8.799812 0.120869 0.104346 0.987169 110 0 0 255
-163.345703 591.331604 -4.799812 0.120869 0.104346 0.987169 110 0 0 255
-8789.008789 277.626526 -1623.517090 0.000000 -0.000000 1.000000 165 0 0 255
8789.008789 277.626526 -1623.517090 0.000000 -0.000000 1.000000 165 0 0 255
19912.486328 12608.677734 -1623.516968 0.000000 -0.000000 1.000000 165 0 0 255
-19912.486328 12608.677734 -1623.516968 0.000000 -0.000000 1.000000 165 0 0 255
-19912.486328 12608.677734 -1623.516968 0.000000 -0.025684 0.999670 165 0 0 255
19912.486328 12608.677734 -1623.516968 0.000000 -0.025684 0.999670 165 0 0 255
69073.851562 75798.679688 0.003313 0.000000 -0.025684 0.999670 165 0 0 255
-69073.851562 75798.679688 0.003313 0.000000 -0.025684 0.999670 165 0 0 255
4 0 1 2 3
4 4 5 6 7
4 8 9 10 11
4 12 13 14 15
4 16 17 18 19
4 20 21 22 23
4 24 25 26 27
4 28 29 30 31
4 32 33 34 35
4 36 37 38 39
4 40 41 42 43
4 44 45 46 47
4 48 49 50 51
4 15 14 52 53
4 19 18 54 55
4 56 57 58 59
4 60 61 62 63
4 64 65 66 67
4 35 34 68 69
4 70 71 72 73
4 74 75 76 77
4 78 79 80 81
4 82 83 84 85
4 86 87 88 89
4 90 91 92 93
4 94 95 96 97
4 98 99 100 101
4 102 103 104 105
4 106 107 108 109
4 110 111 112 113
4 114 115 116 117
4 118 119 120 121
