ply
format ascii 1.0
comment Created by Blender 2.93.2 - www.blender.org
element vertex 88
property float x
property float y
property float z
property float nx
property float ny
property float nz
property uchar red
property uchar green
property uchar blue
property uchar alpha
element face 31
property list uchar uint vertex_indices
end_header
99.999992 0.000017 120.000008 0.989950 0.000000 -0.141421 93 93 93 255
90.000000 0.000011 50.000004 0.989950 0.000000 -0.141421 93 93 93 255
89.999893 1400.000000 49.999897 0.989950 0.000000 -0.141421 93 93 93 255
99.999886 1400.000000 119.999901 0.989950 0.000000 -0.141421 93 93 93 255
49.999996 0.000008 50.000004 0.980581 0.000000 -0.196116 93 93 93 255
40.000000 0.000003 0.000002 0.980581 0.000000 -0.196116 93 93 93 255
39.999893 1400.000000 -0.000104 0.980581 0.000000 -0.196116 93 93 93 255
49.999893 1400.000000 49.999897 0.980581 0.000000 -0.196116 93 93 93 255
40.000000 0.000003 0.000002 0.000000 -0.000000 -1.000000 93 93 93 255
-40.000000 -0.000003 -0.000002 0.000000 -0.000000 -1.000000 93 93 93 255
-40.000107 1400.000000 -0.000107 0.000000 -0.000000 -1.000000 93 93 93 255
39.999893 1400.000000 -0.000104 0.000000 -0.000000 -1.000000 93 93 93 255
330.000000 0.000034 120.000000 -0.000000 -0.000000 -1.000000 93 93 93 255
99.999992 0.000017 120.000008 -0.000000 -0.000000 -1.000000 93 93 93 255
99.999886 1400.000000 119.999901 -0.000000 -0.000000 -1.000000 93 93 93 255
329.999878 1400.000000 119.999893 -0.000000 -0.000000 -1.000000 93 93 93 255
-90.000000 -0.000003 49.999996 -0.989949 -0.000000 -0.141421 93 93 93 255
-100.000008 0.000002 119.999992 -0.989949 -0.000000 -0.141421 93 93 93 255
-100.000114 1400.000000 119.999886 -0.989949 -0.000000 -0.141421 93 93 93 255
-90.000107 1400.000000 49.999889 -0.989949 -0.000000 -0.141421 93 93 93 255
-50.000004 0.000000 49.999996 0.000000 -0.000000 -1.000000 93 93 93 255
-90.000000 -0.000003 49.999996 0.000000 -0.000000 -1.000000 93 93 93 255
-90.000107 1400.000000 49.999889 0.000000 -0.000000 -1.000000 93 93 93 255
-50.000107 1400.000000 49.999889 0.000000 -0.000000 -1.000000 93 93 93 255
-100.000008 0.000002 119.999992 0.000000 -0.000000 -1.000000 93 93 93 255
-330.000000 -0.000016 119.999985 0.000000 -0.000000 -1.000000 93 93 93 255
-330.000122 1400.000000 119.999878 0.000000 -0.000000 -1.000000 93 93 93 255
-100.000114 1400.000000 119.999886 0.000000 -0.000000 -1.000000 93 93 93 255
90.000000 0.000011 50.000004 0.000000 -0.000000 -1.000000 93 93 93 255
49.999996 0.000008 50.000004 0.000000 -0.000000 -1.000000 93 93 93 255
49.999893 1400.000000 49.999897 0.000000 -0.000000 -1.000000 93 93 93 255
89.999893 1400.000000 49.999897 0.000000 -0.000000 -1.000000 93 93 93 255
-40.000000 -0.000003 -0.000002 -0.980581 -0.000000 -0.196116 93 93 93 255
-50.000004 0.000000 49.999996 -0.980581 -0.000000 -0.196116 93 93 93 255
-50.000107 1400.000000 49.999889 -0.980581 -0.000000 -0.196116 93 93 93 255
-40.000107 1400.000000 -0.000107 -0.980581 -0.000000 -0.196116 93 93 93 255
49.999893 1400.000000 49.999897 0.979597 0.044782 -0.195919 93 93 93 255
39.999893 1400.000000 -0.000104 0.979597 0.044782 -0.195919 93 93 93 255
-0.000217 2800.000000 119.999786 0.979597 0.044782 -0.195919 93 93 93 255
39.999893 1400.000000 -0.000104 0.000000 0.085401 -0.996347 93 93 93 255
-40.000107 1400.000000 -0.000107 0.000000 0.085401 -0.996347 93 93 93 255
-0.000217 2800.000000 119.999786 0.000000 0.085401 -0.996347 93 93 93 255
-0.000217 2800.000000 119.999786 -0.000000 -0.000000 -1.000000 93 93 93 255
329.999786 2800.000000 119.999786 -0.000000 -0.000000 -1.000000 93 93 93 255
-90.000107 1400.000000 49.999889 -0.987484 0.070534 -0.141069 93 93 93 255
-100.000114 1400.000000 119.999886 -0.987484 0.070534 -0.141069 93 93 93 255
-0.000217 2800.000000 119.999786 -0.987484 0.070534 -0.141069 93 93 93 255
-50.000107 1400.000000 49.999889 0.000000 0.049938 -0.998752 93 93 93 255
-90.000107 1400.000000 49.999889 0.000000 0.049938 -0.998752 93 93 93 255
-0.000217 2800.000000 119.999786 0.000000 0.049938 -0.998752 93 93 93 255
-330.000214 2800.000000 119.999771 0.000000 -0.000000 -1.000000 93 93 93 255
89.999893 1400.000000 49.999897 0.000000 0.049938 -0.998752 93 93 93 255
49.999893 1400.000000 49.999897 0.000000 0.049938 -0.998752 93 93 93 255
-40.000107 1400.000000 -0.000107 -0.979597 0.044781 -0.195919 93 93 93 255
-50.000107 1400.000000 49.999889 -0.979597 0.044781 -0.195919 93 93 93 255
-0.000217 2800.000000 119.999786 -0.979597 0.044781 -0.195919 93 93 93 255
99.999886 1400.000000 119.999901 0.987484 0.070535 -0.141069 93 93 93 255
89.999893 1400.000000 49.999897 0.987484 0.070535 -0.141069 93 93 93 255
-0.000217 2800.000000 119.999786 0.987484 0.070535 -0.141069 93 93 93 255
-330.000214 2800.000000 119.999771 -0.965911 0.000000 0.258797 49 0 0 255
-330.000122 1400.000000 119.999878 -0.965911 0.000000 0.258797 49 0 0 255
-285.788513 1400.000000 284.999908 -0.866024 0.000000 0.499985 49 0 0 255
-285.788605 2800.000000 284.999786 -0.866024 0.000000 0.499985 49 0 0 255
-330.000000 -0.000016 119.999985 -0.965911 0.000000 0.258797 49 0 0 255
-285.788391 -0.000000 285.000000 -0.866024 0.000000 0.499985 49 0 0 255
-165.000122 1400.000000 405.788300 -0.499985 0.000000 0.866024 0 0 0 255
-165.000229 2800.000000 405.788177 -0.499985 0.000000 0.866024 0 0 0 255
-165.000015 0.000018 405.788391 -0.499985 0.000000 0.866024 0 0 0 255
-0.000125 1400.000000 449.999908 0.000000 0.000000 1.000000 0 0 0 255
-0.000231 2800.000000 449.999786 0.000000 0.000000 1.000000 0 0 0 255
-0.000020 0.000034 450.000000 0.000000 0.000000 1.000000 0 0 0 255
164.999878 1400.000000 405.788300 0.499985 0.000000 0.866024 0 0 0 255
164.999771 2800.000000 405.788177 0.499985 0.000000 0.866024 49 0 0 255
164.999985 0.000043 405.788391 0.499985 0.000000 0.866024 0 0 0 255
285.788269 1400.000000 284.999908 0.866024 0.000000 0.499985 49 0 0 255
285.788177 2800.000000 284.999786 0.866024 0.000000 0.499985 49 0 0 255
285.788391 0.000043 285.000000 0.866024 0.000000 0.499985 49 0 0 255
329.999878 1400.000000 119.999893 0.965911 0.000000 0.258797 49 0 0 255
329.999786 2800.000000 119.999786 0.965911 0.000000 0.258797 49 0 0 255
330.000000 0.000034 120.000000 0.965911 0.000000 0.258797 49 0 0 255
-330.000214 2800.000000 119.999771 0.000000 1.000000 0.000000 49 0 0 255
-285.788605 2800.000000 284.999786 0.000000 1.000000 0.000000 49 0 0 255
-165.000229 2800.000000 405.788177 0.000000 1.000000 0.000000 0 0 0 255
-0.000231 2800.000000 449.999786 0.000000 1.000000 0.000000 0 0 0 255
164.999771 2800.000000 405.788177 0.000000 1.000000 0.000000 49 0 0 255
285.788177 2800.000000 284.999786 0.000000 1.000000 0.000000 49 0 0 255
329.999786 2800.000000 119.999786 0.000000 1.000000 0.000000 49 0 0 255
-0.000217 2800.000000 119.999786 0.000000 1.000000 0.000000 49 0 0 255
4 0 1 2 3
4 4 5 6 7
4 8 9 10 11
4 12 13 14 15
4 16 17 18 19
4 20 21 22 23
4 24 25 26 27
4 28 29 30 31
4 32 33 34 35
3 36 37 38
3 39 40 41
4 15 14 42 43
3 44 45 46
3 47 48 49
4 27 26 50 42
3 51 52 49
3 53 54 55
3 56 57 58
4 59 60 61 62
4 60 63 64 61
4 62 61 65 66
4 61 64 67 65
4 66 65 68 69
4 65 67 70 68
4 69 68 71 72
4 68 70 73 71
4 72 71 74 75
4 71 73 76 74
4 75 74 77 78
4 74 76 79 77
8 80 81 82 83 84 85 86 87
