ply
format ascii 1.0
comment Created by Blender 2.93.2 - www.blender.org
element vertex 250
property float x
property float y
property float z
property float nx
property float ny
property float nz
property uchar red
property uchar green
property uchar blue
property uchar alpha
element face 75
property list uchar uint vertex_indices
end_header
40.000000 0.000003 0.000002 0.000000 0.000000 -1.000000 78 92 95 255
0.000000 0.000000 0.000000 0.000000 0.000000 -1.000000 78 92 95 255
0.000000 0.000000 0.000000 0.000000 0.000000 -1.000000 78 92 95 255
28.284269 28.284273 0.000001 0.000000 0.000000 -1.000000 78 92 95 255
40.000004 0.000003 -80.000000 -0.923880 -0.382684 -0.000000 87 103 105 255
40.000000 0.000003 0.000002 -0.923880 -0.382684 -0.000000 87 103 105 255
28.284269 28.284273 0.000001 -0.923880 -0.382684 -0.000000 87 103 105 255
28.284273 28.284273 -80.000000 -0.923880 -0.382684 -0.000000 87 103 105 255
60.000034 0.000005 -800.000000 -0.923880 -0.382683 -0.000000 87 103 105 255
60.000015 0.000005 -320.000000 -0.923880 -0.382683 -0.000000 87 103 105 255
42.426418 42.426411 -320.000000 -0.923880 -0.382683 -0.000000 87 103 105 255
42.426437 42.426411 -800.000000 -0.923880 -0.382683 -0.000000 87 103 105 255
60.000015 0.000005 -320.000000 -0.921153 -0.381554 -0.076763 87 103 105 255
40.000004 0.000003 -80.000000 -0.921153 -0.381554 -0.076763 87 103 105 255
28.284273 28.284273 -80.000000 -0.921153 -0.381554 -0.076763 87 103 105 255
42.426418 42.426411 -320.000000 -0.921153 -0.381554 -0.076763 87 103 105 255
0.000000 0.000000 0.000000 0.000000 0.000000 -1.000000 78 92 95 255
-0.000003 40.000000 0.000000 0.000000 0.000000 -1.000000 78 92 95 255
28.284273 28.284273 -80.000000 -0.382683 -0.923880 -0.000000 87 103 105 255
28.284269 28.284273 0.000001 -0.382683 -0.923880 -0.000000 87 103 105 255
-0.000003 40.000000 0.000000 -0.382683 -0.923880 -0.000000 87 103 105 255
0.000000 40.000000 -80.000000 -0.382683 -0.923880 -0.000000 87 103 105 255
42.426437 42.426411 -800.000000 -0.382683 -0.923880 -0.000000 87 103 105 255
42.426418 42.426411 -320.000000 -0.382683 -0.923880 -0.000000 87 103 105 255
0.000009 60.000000 -320.000000 -0.382683 -0.923880 -0.000000 87 103 105 255
0.000030 60.000000 -800.000000 -0.382683 -0.923880 -0.000000 87 103 105 255
42.426418 42.426411 -320.000000 -0.381554 -0.921154 -0.076763 87 103 105 255
28.284273 28.284273 -80.000000 -0.381554 -0.921154 -0.076763 87 103 105 255
0.000000 40.000000 -80.000000 -0.381554 -0.921154 -0.076763 87 103 105 255
0.000009 60.000000 -320.000000 -0.381554 -0.921154 -0.076763 87 103 105 255
0.000000 0.000000 0.000000 0.000000 0.000000 -1.000000 78 92 95 255
-28.284273 28.284269 -0.000001 0.000000 0.000000 -1.000000 78 92 95 255
0.000000 40.000000 -80.000000 0.382683 -0.923879 0.000000 87 103 105 255
-0.000003 40.000000 0.000000 0.382683 -0.923879 0.000000 87 103 105 255
-28.284273 28.284269 -0.000001 0.382683 -0.923879 0.000000 87 103 105 255
-28.284269 28.284269 -80.000000 0.382683 -0.923879 0.000000 87 103 105 255
0.000030 60.000000 -800.000000 0.382684 -0.923880 0.000000 87 103 105 255
0.000009 60.000000 -320.000000 0.382684 -0.923880 0.000000 87 103 105 255
-42.426395 42.426403 -320.000000 0.382684 -0.923880 0.000000 87 103 105 255
-42.426376 42.426403 -800.000000 0.382684 -0.923880 0.000000 87 103 105 255
0.000009 60.000000 -320.000000 0.381554 -0.921153 -0.076763 87 103 105 255
0.000000 40.000000 -80.000000 0.381554 -0.921153 -0.076763 87 103 105 255
-28.284269 28.284269 -80.000000 0.381554 -0.921153 -0.076763 87 103 105 255
-42.426395 42.426403 -320.000000 0.381554 -0.921153 -0.076763 87 103 105 255
0.000000 0.000000 0.000000 0.000000 0.000000 -1.000000 78 92 95 255
-40.000000 -0.000003 -0.000002 0.000000 0.000000 -1.000000 78 92 95 255
-28.284269 28.284269 -80.000000 0.923880 -0.382683 0.000000 87 103 105 255
-28.284273 28.284269 -0.000001 0.923880 -0.382683 0.000000 87 103 105 255
-40.000000 -0.000003 -0.000002 0.923880 -0.382683 0.000000 87 103 105 255
-39.999996 -0.000003 -80.000000 0.923880 -0.382683 0.000000 87 103 105 255
-42.426376 42.426403 -800.000000 0.923880 -0.382683 0.000000 87 103 105 255
-42.426395 42.426403 -320.000000 0.923880 -0.382683 0.000000 87 103 105 255
-59.999985 -0.000005 -320.000000 0.923880 -0.382683 0.000000 87 103 105 255
-59.999966 -0.000005 -800.000000 0.923880 -0.382683 0.000000 87 103 105 255
-42.426395 42.426403 -320.000000 0.921153 -0.381554 -0.076763 87 103 105 255
-28.284269 28.284269 -80.000000 0.921153 -0.381554 -0.076763 87 103 105 255
-39.999996 -0.000003 -80.000000 0.921153 -0.381554 -0.076763 87 103 105 255
-59.999985 -0.000005 -320.000000 0.921153 -0.381554 -0.076763 87 103 105 255
-180.000000 19.999987 -0.000008 -0.000000 0.000000 1.000000 78 92 95 255
-180.000000 -0.000014 -0.000008 -0.000000 0.000000 1.000000 78 92 95 255
-100.000000 -0.000008 -0.000004 -0.000000 0.000000 1.000000 78 92 95 255
-100.000000 19.999992 -0.000004 -0.000000 0.000000 1.000000 78 92 95 255
-100.000000 19.999992 -0.000004 1.000000 0.000000 -0.000000 87 103 105 255
-100.000000 -0.000008 -0.000004 1.000000 0.000000 -0.000000 87 103 105 255
-100.000000 -0.000008 -20.000004 1.000000 0.000000 -0.000000 87 103 105 255
-100.000000 19.999992 -20.000004 1.000000 0.000000 -0.000000 87 103 105 255
-180.000000 -0.000014 -0.000008 -0.894427 0.000000 -0.447214 87 103 105 255
-180.000000 19.999987 -0.000008 -0.894427 0.000000 -0.447214 87 103 105 255
-170.000000 19.999987 -20.000008 -0.894427 0.000000 -0.447214 87 103 105 255
-170.000000 -0.000013 -20.000008 -0.894427 0.000000 -0.447214 87 103 105 255
-100.000000 -0.000008 -20.000004 0.000000 0.000000 -1.000000 87 103 105 255
-170.000000 -0.000013 -20.000008 0.000000 0.000000 -1.000000 87 103 105 255
-170.000000 19.999987 -20.000008 0.000000 0.000000 -1.000000 87 103 105 255
-100.000000 19.999992 -20.000004 0.000000 0.000000 -1.000000 87 103 105 255
-113.137093 141.421341 -0.000005 0.000000 -0.000000 -1.000000 78 92 95 255
-56.568550 84.852806 -0.000002 0.000000 -0.000000 -1.000000 78 92 95 255
-84.852821 56.568535 -0.000004 0.000000 -0.000000 -1.000000 78 92 95 255
-141.421371 113.137077 -0.000006 0.000000 -0.000000 -1.000000 78 92 95 255
-56.568550 84.852806 -0.000002 -0.707107 0.707107 -0.000000 87 103 105 255
-56.568546 84.852806 -20.000002 -0.707107 0.707107 -0.000000 87 103 105 255
-84.852814 56.568535 -20.000004 -0.707107 0.707107 -0.000000 87 103 105 255
-84.852821 56.568535 -0.000004 -0.707107 0.707107 -0.000000 87 103 105 255
-141.421371 113.137077 -0.000006 0.632455 -0.632455 0.447214 87 103 105 255
-134.350281 106.066010 -20.000006 0.632455 -0.632455 0.447214 87 103 105 255
-106.066025 134.350266 -20.000004 0.632455 -0.632455 0.447214 87 103 105 255
-113.137093 141.421341 -0.000005 0.632455 -0.632455 0.447214 87 103 105 255
-84.852814 56.568535 -20.000004 -0.000000 -0.000000 1.000000 87 103 105 255
-56.568546 84.852806 -20.000002 -0.000000 -0.000000 1.000000 87 103 105 255
-106.066025 134.350266 -20.000004 -0.000000 -0.000000 1.000000 87 103 105 255
-134.350281 106.066010 -20.000006 -0.000000 -0.000000 1.000000 87 103 105 255
-84.852821 56.568535 -0.000004 0.707107 0.707107 0.000001 87 103 105 255
-84.852814 56.568535 -20.000004 0.707107 0.707107 0.000001 87 103 105 255
-134.350281 106.066010 -20.000006 0.707107 0.707107 0.000001 87 103 105 255
-141.421371 113.137077 -0.000006 0.707107 0.707107 0.000001 87 103 105 255
-113.137093 141.421341 -0.000005 -0.707107 -0.707107 0.000000 87 103 105 255
-106.066025 134.350266 -20.000004 -0.707107 -0.707107 0.000000 87 103 105 255
-56.568546 84.852806 -20.000002 -0.707107 -0.707107 0.000000 87 103 105 255
-56.568550 84.852806 -0.000002 -0.707107 -0.707107 0.000000 87 103 105 255
19.999987 180.000000 0.000001 0.000000 0.000000 -1.000000 78 92 95 255
19.999992 100.000000 0.000001 0.000000 0.000000 -1.000000 78 92 95 255
-20.000008 100.000000 -0.000001 0.000000 0.000000 -1.000000 78 92 95 255
-20.000013 180.000000 -0.000001 0.000000 0.000000 -1.000000 78 92 95 255
19.999992 100.000000 0.000001 -0.000000 1.000000 0.000000 87 103 105 255
19.999994 100.000000 -20.000000 -0.000000 1.000000 0.000000 87 103 105 255
-20.000006 100.000000 -20.000000 -0.000000 1.000000 0.000000 87 103 105 255
-20.000008 100.000000 -0.000001 -0.000000 1.000000 0.000000 87 103 105 255
-20.000013 180.000000 -0.000001 0.000000 -0.894427 0.447214 87 103 105 255
-20.000004 170.000000 -20.000000 0.000000 -0.894427 0.447214 87 103 105 255
19.999981 170.000000 -20.000000 0.000000 -0.894427 0.447214 87 103 105 255
19.999987 180.000000 0.000001 0.000000 -0.894427 0.447214 87 103 105 255
-20.000006 100.000000 -20.000000 0.000000 0.000000 1.000000 87 103 105 255
19.999994 100.000000 -20.000000 0.000000 0.000000 1.000000 87 103 105 255
19.999981 170.000000 -20.000000 0.000000 0.000000 1.000000 87 103 105 255
-20.000004 170.000000 -20.000000 0.000000 0.000000 1.000000 87 103 105 255
-20.000008 100.000000 -0.000001 1.000000 0.000000 0.000000 87 103 105 255
-20.000006 100.000000 -20.000000 1.000000 0.000000 0.000000 87 103 105 255
-20.000004 170.000000 -20.000000 1.000000 0.000000 0.000000 87 103 105 255
-20.000013 180.000000 -0.000001 1.000000 0.000000 0.000000 87 103 105 255
19.999987 180.000000 0.000001 -1.000000 -0.000000 0.000000 87 103 105 255
19.999981 170.000000 -20.000000 -1.000000 -0.000000 0.000000 87 103 105 255
19.999994 100.000000 -20.000000 -1.000000 -0.000000 0.000000 87 103 105 255
19.999992 100.000000 0.000001 -1.000000 -0.000000 0.000000 87 103 105 255
141.421341 113.137093 0.000006 -0.000000 -0.000000 1.000000 78 92 95 255
113.137077 141.421371 0.000005 -0.000000 -0.000000 1.000000 78 92 95 255
56.568535 84.852821 0.000002 -0.000000 -0.000000 1.000000 78 92 95 255
84.852806 56.568550 0.000004 -0.000000 -0.000000 1.000000 78 92 95 255
84.852806 56.568550 0.000004 -0.707107 -0.707107 -0.000000 87 103 105 255
56.568535 84.852821 0.000002 -0.707107 -0.707107 -0.000000 87 103 105 255
56.568539 84.852821 -19.999998 -0.707107 -0.707107 -0.000000 87 103 105 255
84.852814 56.568550 -19.999996 -0.707107 -0.707107 -0.000000 87 103 105 255
113.137077 141.421371 0.000005 0.632456 0.632455 -0.447213 87 103 105 255
141.421341 113.137093 0.000006 0.632456 0.632455 -0.447213 87 103 105 255
134.350281 106.066032 -19.999994 0.632456 0.632455 -0.447213 87 103 105 255
106.066017 134.350296 -19.999996 0.632456 0.632455 -0.447213 87 103 105 255
56.568539 84.852821 -19.999998 0.000000 -0.000000 -1.000000 87 103 105 255
106.066017 134.350296 -19.999996 0.000000 -0.000000 -1.000000 87 103 105 255
134.350281 106.066032 -19.999994 0.000000 -0.000000 -1.000000 87 103 105 255
84.852814 56.568550 -19.999996 0.000000 -0.000000 -1.000000 87 103 105 255
56.568535 84.852821 0.000002 -0.707107 0.707107 -0.000000 87 103 105 255
113.137077 141.421371 0.000005 -0.707107 0.707107 -0.000000 87 103 105 255
106.066017 134.350296 -19.999996 -0.707107 0.707107 -0.000000 87 103 105 255
56.568539 84.852821 -19.999998 -0.707107 0.707107 -0.000000 87 103 105 255
141.421341 113.137093 0.000006 0.707107 -0.707107 0.000000 87 103 105 255
84.852806 56.568550 0.000004 0.707107 -0.707107 0.000000 87 103 105 255
84.852814 56.568550 -19.999996 0.707107 -0.707107 0.000000 87 103 105 255
134.350281 106.066032 -19.999994 0.707107 -0.707107 0.000000 87 103 105 255
180.000000 20.000013 0.000008 0.000000 0.000000 -1.000000 78 92 95 255
180.000000 0.000014 0.000008 0.000000 0.000000 -1.000000 78 92 95 255
100.000000 0.000008 0.000004 0.000000 0.000000 -1.000000 78 92 95 255
100.000000 20.000008 0.000004 0.000000 0.000000 -1.000000 78 92 95 255
100.000000 20.000008 0.000004 1.000000 0.000000 -0.000000 87 103 105 255
100.000000 0.000008 0.000004 1.000000 0.000000 -0.000000 87 103 105 255
100.000000 0.000008 -19.999996 1.000000 0.000000 -0.000000 87 103 105 255
100.000000 20.000008 -19.999996 1.000000 0.000000 -0.000000 87 103 105 255
180.000000 0.000014 0.000008 -0.894427 0.000000 0.447214 87 103 105 255
180.000000 20.000013 0.000008 -0.894427 0.000000 0.447214 87 103 105 255
170.000000 20.000013 -19.999992 -0.894427 0.000000 0.447214 87 103 105 255
170.000000 0.000013 -19.999992 -0.894427 0.000000 0.447214 87 103 105 255
100.000000 0.000008 -19.999996 -0.000000 0.000000 1.000000 87 103 105 255
170.000000 0.000013 -19.999992 -0.000000 0.000000 1.000000 87 103 105 255
170.000000 20.000013 -19.999992 -0.000000 0.000000 1.000000 87 103 105 255
100.000000 20.000008 -19.999996 -0.000000 0.000000 1.000000 87 103 105 255
-12.000009 110.000000 -1.000000 0.000000 0.000000 -1.000000 87 103 105 255
11.999991 110.000000 -0.999999 0.000000 0.000000 -1.000000 87 103 105 255
11.999998 30.000000 -0.999999 0.000000 0.000000 -1.000000 87 103 105 255
-12.000002 30.000000 -1.000000 0.000000 0.000000 -1.000000 87 103 105 255
-86.267036 69.296463 -1.000004 0.000000 0.000000 -1.000000 78 92 95 255
-69.296471 86.267029 -1.000003 0.000000 0.000000 -1.000000 78 92 95 255
-12.727922 29.698484 -1.000001 0.000000 0.000000 -1.000000 78 92 95 255
-29.698486 12.727922 -1.000001 0.000000 0.000000 -1.000000 78 92 95 255
69.296455 86.267044 -0.999997 0.000000 -0.000000 -1.000000 87 103 105 255
86.267021 69.296478 -0.999996 0.000000 -0.000000 -1.000000 87 103 105 255
29.698486 12.727924 -0.999999 0.000000 -0.000000 -1.000000 87 103 105 255
12.727919 29.698490 -0.999999 0.000000 -0.000000 -1.000000 87 103 105 255
-999.999939 0.000012 -1915.108154 -0.995178 0.097995 0.000000 44 97 105 255
-1000.000061 0.000012 1084.891846 -0.995178 0.097995 0.000000 87 103 105 255
-980.785400 195.090179 1084.891846 -0.980773 0.195074 0.000000 87 103 105 255
-980.785278 195.090179 -1915.108154 -0.980773 0.195074 0.000000 44 97 105 255
-923.879578 382.683380 1084.891846 -0.923856 0.382672 0.000000 87 103 105 255
-923.879456 382.683380 -1915.108154 -0.923856 0.382672 0.000000 44 97 105 255
-831.469604 555.570251 1084.891846 -0.831446 0.555559 0.000000 87 103 105 255
-831.469482 555.570251 -1915.108154 -0.831446 0.555559 0.000000 44 97 105 255
-707.106934 707.106628 1084.891846 -0.707083 0.707083 0.000000 87 103 105 255
-707.106812 707.106628 -1915.108154 -0.707083 0.707083 0.000000 44 97 105 255
-555.570557 831.469421 1084.891846 -0.555559 0.831446 0.000000 87 103 105 255
-555.570435 831.469421 -1915.108154 -0.555559 0.831446 0.000000 44 97 105 255
-382.683685 923.879517 1084.891846 -0.382672 0.923856 0.000000 87 103 105 255
-382.683563 923.879517 -1915.108154 -0.382672 0.923856 0.000000 44 97 105 255
-195.090500 980.785278 1084.891846 -0.195074 0.980773 0.000000 87 103 105 255
-195.090363 980.785278 -1915.108154 -0.195074 0.980773 0.000000 44 97 105 255
-0.000111 1000.000000 1084.891846 0.000000 0.999969 0.000000 87 103 105 255
0.000020 1000.000000 -1915.108154 0.000000 0.999969 0.000000 44 97 105 255
195.090286 980.785278 1084.891846 0.195074 0.980773 0.000000 87 103 105 255
195.090424 980.785278 -1915.108154 0.195074 0.980773 0.000000 44 97 105 255
382.683472 923.879456 1084.891846 0.382672 0.923856 0.000000 87 103 105 255
382.683594 923.879456 -1915.108154 0.382672 0.923856 0.000000 44 97 105 255
555.569946 831.469788 1084.891846 0.555559 0.831446 0.000000 87 103 105 255
555.570068 831.469788 -1915.108154 0.555559 0.831446 0.000000 44 97 105 255
707.106567 707.106934 1084.891846 0.707083 0.707083 0.000000 87 103 105 255
707.106689 707.106934 -1915.108154 0.707083 0.707083 0.000000 44 97 105 255
831.469543 555.570374 1084.891846 0.831446 0.555559 0.000000 87 103 105 255
831.469666 555.570374 -1915.108154 0.831446 0.555559 0.000000 44 97 105 255
923.879517 382.683502 1084.891846 0.923856 0.382672 0.000000 87 103 105 255
923.879639 382.683502 -1915.108154 0.923856 0.382672 0.000000 44 97 105 255
980.785278 195.090317 1084.891846 0.980773 0.195074 0.000000 87 103 105 255
980.785400 195.090317 -1915.108154 0.980773 0.195074 0.000000 44 97 105 255
999.999939 0.000075 1084.891846 0.995178 0.097995 0.000000 87 103 105 255
1000.000061 0.000075 -1915.108154 0.995178 0.097995 0.000000 87 103 105 255
29.698486 12.727924 -0.999999 -0.500000 0.500000 0.707107 87 103 105 255
86.267021 69.296478 -0.999996 -0.500000 0.500000 0.707107 87 103 105 255
77.781738 77.781761 -12.999996 -0.500000 0.500000 0.707107 87 103 105 255
21.213202 21.213207 -12.999999 -0.500000 0.500000 0.707107 87 103 105 255
-12.000009 110.000000 -1.000000 0.707107 0.000000 0.707107 87 103 105 255
-12.000002 30.000000 -1.000000 0.707107 0.000000 0.707107 87 103 105 255
-0.000002 30.000000 -13.000000 0.707107 0.000000 0.707107 87 103 105 255
-0.000008 110.000000 -13.000000 0.707107 0.000000 0.707107 87 103 105 255
-86.267036 69.296463 -1.000004 0.500000 0.500000 0.707107 87 103 105 255
-29.698486 12.727922 -1.000001 0.500000 0.500000 0.707107 87 103 105 255
-21.213205 21.213203 -13.000001 0.500000 0.500000 0.707107 87 103 105 255
-77.781754 77.781746 -13.000004 0.500000 0.500000 0.707107 87 103 105 255
69.296455 86.267044 -0.999997 0.500000 -0.500000 0.707107 87 103 105 255
12.727919 29.698490 -0.999999 0.500000 -0.500000 0.707107 87 103 105 255
21.213202 21.213207 -12.999999 0.500000 -0.500000 0.707107 87 103 105 255
77.781738 77.781761 -12.999996 0.500000 -0.500000 0.707107 87 103 105 255
11.999998 30.000000 -0.999999 -0.707107 -0.000000 0.707107 87 103 105 255
11.999991 110.000000 -0.999999 -0.707107 -0.000000 0.707107 87 103 105 255
-0.000008 110.000000 -13.000000 -0.707107 -0.000000 0.707107 87 103 105 255
-0.000002 30.000000 -13.000000 -0.707107 -0.000000 0.707107 87 103 105 255
-12.727922 29.698484 -1.000001 -0.500000 -0.500000 0.707107 87 103 105 255
-69.296471 86.267029 -1.000003 -0.500000 -0.500000 0.707107 87 103 105 255
-77.781754 77.781746 -13.000004 -0.500000 -0.500000 0.707107 87 103 105 255
-21.213205 21.213203 -13.000001 -0.500000 -0.500000 0.707107 87 103 105 255
40.000000 0.000003 40.000000 0.000000 -0.000000 -1.000000 57 68 70 255
-0.000002 -0.000000 40.000000 0.000000 -0.000000 -1.000000 57 68 70 255
28.284267 28.284273 40.000000 0.000000 -0.000000 -1.000000 57 68 70 255
40.000000 0.000003 40.000000 -0.439733 -0.182143 -0.879465 78 92 95 255
-0.000003 -0.000000 60.000000 -0.439733 -0.182143 -0.879465 78 92 95 255
28.284267 28.284273 40.000000 -0.439733 -0.182143 -0.879465 78 92 95 255
-0.000005 40.000000 40.000000 0.000000 0.000000 -1.000000 57 68 70 255
28.284267 28.284273 40.000000 -0.182143 -0.439733 -0.879465 78 92 95 255
-0.000003 -0.000000 60.000000 -0.182143 -0.439733 -0.879465 78 92 95 255
-0.000005 40.000000 40.000000 -0.182143 -0.439733 -0.879465 78 92 95 255
-28.284275 28.284269 40.000000 0.000000 0.000000 -1.000000 57 68 70 255
-0.000005 40.000000 40.000000 0.182143 -0.439733 -0.879465 78 92 95 255
-0.000003 -0.000000 60.000000 0.182143 -0.439733 -0.879465 78 92 95 255
-28.284275 28.284269 40.000000 0.182143 -0.439733 -0.879465 78 92 95 255
-40.000000 -0.000003 40.000000 0.000000 0.000000 -1.000000 57 68 70 255
-28.284275 28.284269 40.000000 0.439733 -0.182143 -0.879465 78 92 95 255
-0.000003 -0.000000 60.000000 0.439733 -0.182143 -0.879465 78 92 95 255
-40.000000 -0.000003 40.000000 0.439733 -0.182143 -0.879465 78 92 95 255
4 0 1 2 3
4 4 5 6 7
4 8 9 10 11
4 12 13 14 15
4 3 2 16 17
4 18 19 20 21
4 22 23 24 25
4 26 27 28 29
4 17 16 30 31
4 32 33 34 35
4 36 37 38 39
4 40 41 42 43
4 31 30 44 45
4 46 47 48 49
4 50 51 52 53
4 54 55 56 57
4 58 59 60 61
4 62 63 64 65
4 66 67 68 69
4 70 71 72 73
4 74 75 76 77
4 78 79 80 81
4 82 83 84 85
4 86 87 88 89
4 90 91 92 93
4 94 95 96 97
4 98 99 100 101
4 102 103 104 105
4 106 107 108 109
4 110 111 112 113
4 114 115 116 117
4 118 119 120 121
4 122 123 124 125
4 126 127 128 129
4 130 131 132 133
4 134 135 136 137
4 138 139 140 141
4 142 143 144 145
4 146 147 148 149
4 150 151 152 153
4 154 155 156 157
4 158 159 160 161
4 162 163 164 165
4 166 167 168 169
4 170 171 172 173
4 174 175 176 177
4 177 176 178 179
4 179 178 180 181
4 181 180 182 183
4 183 182 184 185
4 185 184 186 187
4 187 186 188 189
4 189 188 190 191
4 191 190 192 193
4 193 192 194 195
4 195 194 196 197
4 197 196 198 199
4 199 198 200 201
4 201 200 202 203
4 203 202 204 205
4 205 204 206 207
4 208 209 210 211
4 212 213 214 215
4 216 217 218 219
4 220 221 222 223
4 224 225 226 227
4 228 229 230 231
3 232 233 234
3 235 236 237
3 234 233 238
3 239 240 241
3 238 233 242
3 243 244 245
3 242 233 246
3 247 248 249
