ply
format ascii 1.0
comment Created by Blender 2.93.2 - www.blender.org
element vertex 243
property float x
property float y
property float z
property float nx
property float ny
property float nz
property uchar red
property uchar green
property uchar blue
property uchar alpha
element face 64
property list uchar uint vertex_indices
end_header
80.000000 0.000003 80.000000 0.242535 0.000000 0.970143 171 171 171 255
120.000000 0.000006 70.000008 0.242535 0.000000 0.970143 171 171 171 255
119.999992 40.000004 70.000008 0.242535 0.000000 0.970143 171 171 171 255
79.999992 40.000004 80.000000 0.242535 0.000000 0.970143 171 171 171 255
80.000000 0.000006 10.000004 0.242536 0.000000 -0.970143 171 171 171 255
40.000000 0.000003 0.000002 0.242536 0.000000 -0.970143 171 171 171 255
39.999996 40.000004 0.000003 0.242536 0.000000 -0.970143 171 171 171 255
80.000000 40.000008 10.000006 0.242536 0.000000 -0.970143 171 171 171 255
-80.000000 -0.000006 9.999996 0.000000 0.000000 -1.000000 171 171 171 255
-120.000000 -0.000009 9.999994 0.000000 0.000000 -1.000000 171 171 171 255
-120.000000 39.999992 9.999996 0.000000 0.000000 -1.000000 171 171 171 255
-80.000000 39.999992 9.999998 0.000000 0.000000 -1.000000 171 171 171 255
-80.000000 -0.000010 80.000000 0.000000 0.000000 1.000000 171 171 171 255
80.000000 0.000003 80.000000 0.000000 0.000000 1.000000 171 171 171 255
79.999992 40.000004 80.000000 0.000000 0.000000 1.000000 171 171 171 255
-80.000008 39.999989 80.000000 0.000000 0.000000 1.000000 171 171 171 255
120.000000 0.000009 10.000006 0.000000 0.000000 -1.000000 171 171 171 255
80.000000 0.000006 10.000004 0.000000 0.000000 -1.000000 171 171 171 255
80.000000 40.000008 10.000006 0.000000 0.000000 -1.000000 171 171 171 255
120.000000 40.000008 10.000008 0.000000 0.000000 -1.000000 171 171 171 255
-40.000000 -0.000003 -0.000002 -0.242536 0.000000 -0.970142 171 171 171 255
-80.000000 -0.000006 9.999996 -0.242536 0.000000 -0.970142 171 171 171 255
-80.000000 39.999992 9.999998 -0.242536 0.000000 -0.970142 171 171 171 255
-40.000004 39.999996 0.000000 -0.242536 0.000000 -0.970142 171 171 171 255
40.000000 0.000003 0.000002 0.000000 0.000000 -1.000000 171 171 171 255
-40.000000 -0.000003 -0.000002 0.000000 0.000000 -1.000000 171 171 171 255
-40.000004 39.999996 0.000000 0.000000 0.000000 -1.000000 171 171 171 255
39.999996 40.000004 0.000003 0.000000 0.000000 -1.000000 171 171 171 255
120.000000 0.000006 70.000008 1.000000 0.000000 0.000000 171 171 171 255
120.000000 0.000009 10.000006 1.000000 0.000000 0.000000 171 171 171 255
120.000000 40.000008 10.000008 1.000000 0.000000 0.000000 171 171 171 255
119.999992 40.000004 70.000008 1.000000 0.000000 0.000000 171 171 171 255
-120.000000 -0.000012 69.999992 -0.242536 -0.000000 0.970142 171 171 171 255
-80.000000 -0.000010 80.000000 -0.242536 -0.000000 0.970142 171 171 171 255
-80.000008 39.999989 80.000000 -0.242536 -0.000000 0.970142 171 171 171 255
-120.000008 39.999989 69.999992 -0.242536 -0.000000 0.970142 171 171 171 255
-120.000000 -0.000009 9.999994 -1.000000 -0.000000 -0.000000 171 171 171 255
-120.000000 -0.000012 69.999992 -1.000000 -0.000000 -0.000000 171 171 171 255
-120.000008 39.999989 69.999992 -1.000000 -0.000000 -0.000000 171 171 171 255
-120.000000 39.999992 9.999996 -1.000000 -0.000000 -0.000000 171 171 171 255
34.690166 240.613968 -5.994310 0.322912 -0.122870 0.938420 171 171 171 255
104.070526 240.613998 -31.523500 0.322912 -0.122870 0.938420 171 171 171 255
104.070518 308.710907 -20.952044 0.322912 -0.122870 0.938420 171 171 171 255
34.690163 315.927155 2.211367 0.322912 -0.122870 0.938420 171 171 171 255
-104.070541 240.613953 19.812094 0.339802 -0.094348 0.935753 171 171 171 255
-34.690197 240.613983 -5.994313 0.339802 -0.094348 0.935753 171 171 171 255
-34.690201 315.927155 2.211365 0.339802 -0.094348 0.935753 171 171 171 255
-104.070557 309.245117 26.119677 0.339802 -0.094348 0.935753 171 171 171 255
104.070526 240.613998 -31.523500 -0.026063 -0.174739 0.984270 171 171 171 255
161.393433 240.613998 -31.523497 -0.026063 -0.174739 0.984270 171 171 171 255
143.122940 294.335999 -20.952042 -0.026063 -0.174739 0.984270 171 171 171 255
104.070518 308.710907 -20.952044 -0.026063 -0.174739 0.984270 171 171 171 255
-34.690197 240.613983 -5.994313 -0.000000 -0.108313 0.994117 171 171 171 255
34.690166 240.613968 -5.994310 -0.000000 -0.108313 0.994117 171 171 171 255
34.690163 315.927155 2.211367 -0.000000 -0.108313 0.994117 171 171 171 255
-34.690201 315.927155 2.211365 -0.000000 -0.108313 0.994117 171 171 171 255
-173.450912 240.613953 19.812090 0.104958 -0.195714 0.975028 171 171 171 255
-104.070541 240.613953 19.812094 0.104958 -0.195714 0.975028 171 171 171 255
-104.070557 309.245117 26.119677 0.104958 -0.195714 0.975028 171 171 171 255
-150.612579 294.335999 35.605625 0.104958 -0.195714 0.975028 171 171 171 255
-173.450897 50.471531 -0.000005 -0.000000 -0.000000 1.000000 171 171 171 255
-104.070534 50.471535 -0.000002 -0.000000 -0.000000 1.000000 171 171 171 255
-104.070534 132.079987 0.000001 -0.000000 -0.000000 1.000000 171 171 171 255
-173.450912 132.079987 -0.000002 -0.000000 -0.000000 1.000000 171 171 171 255
-173.450912 240.613953 19.812090 0.865476 -0.052122 0.498232 171 171 171 255
-173.450912 132.079987 -0.000002 0.865476 -0.052122 0.498232 171 171 171 255
-162.373840 145.922363 -9.335854 0.865476 -0.052122 0.498232 171 171 171 255
-162.373840 226.771622 -9.335851 0.865476 -0.052122 0.498232 171 171 171 255
-34.690182 50.471539 -25.806408 -0.000000 -0.000000 1.000000 171 171 171 255
34.690182 50.471546 -25.806404 -0.000000 -0.000000 1.000000 171 171 171 255
34.690178 132.080002 -25.806400 -0.000000 -0.000000 1.000000 171 171 171 255
-34.690186 132.080002 -25.806404 -0.000000 -0.000000 1.000000 171 171 171 255
104.070526 240.613998 -31.523500 0.158427 -0.888551 0.430554 171 171 171 255
34.690166 240.613968 -5.994310 0.158427 -0.888551 0.430554 171 171 171 255
31.054094 226.771637 -33.223351 0.158427 -0.888551 0.430554 171 171 171 255
95.275497 226.771637 -56.854252 0.158427 -0.888551 0.430554 171 171 171 255
104.070541 50.471554 -51.335594 -0.000000 -0.000000 1.000000 171 171 171 255
161.393448 50.471558 -51.335590 -0.000000 -0.000000 1.000000 171 171 171 255
161.393433 132.080017 -51.335587 -0.000000 -0.000000 1.000000 171 171 171 255
104.070534 132.080017 -51.335590 -0.000000 -0.000000 1.000000 171 171 171 255
-34.690186 132.080002 -25.806404 -0.000000 0.472290 0.881443 171 171 171 255
34.690178 132.080002 -25.806400 -0.000000 0.472290 0.881443 171 171 171 255
31.054100 145.922379 -33.223354 -0.000000 0.472290 0.881443 171 171 171 255
-33.167316 145.922379 -33.223354 -0.000000 0.472290 0.881443 171 171 171 255
-104.070534 50.471535 -0.000002 0.348621 -0.000000 0.937264 171 171 171 255
-34.690182 50.471539 -25.806408 0.348621 -0.000000 0.937264 171 171 171 255
-34.690186 132.080002 -25.806404 0.348621 -0.000000 0.937264 171 171 171 255
-104.070534 132.079987 0.000001 0.348621 -0.000000 0.937264 171 171 171 255
161.393433 240.613998 -31.523497 0.000000 -0.877523 0.479535 171 171 171 255
104.070526 240.613998 -31.523500 0.000000 -0.877523 0.479535 171 171 171 255
95.275497 226.771637 -56.854252 0.000000 -0.877523 0.479535 171 171 171 255
154.109009 226.771652 -56.854248 0.000000 -0.877523 0.479535 171 171 171 255
34.690182 50.471546 -25.806404 0.345324 -0.000000 0.938483 171 171 171 255
104.070541 50.471554 -51.335594 0.345324 -0.000000 0.938483 171 171 171 255
104.070534 132.080017 -51.335590 0.345324 -0.000000 0.938483 171 171 171 255
34.690178 132.080002 -25.806400 0.345324 -0.000000 0.938483 171 171 171 255
34.690178 132.080002 -25.806400 0.296953 0.510420 0.807026 171 171 171 255
104.070534 132.080017 -51.335590 0.296953 0.510420 0.807026 171 171 171 255
95.275505 145.922379 -56.854256 0.296953 0.510420 0.807026 171 171 171 255
31.054100 145.922379 -33.223354 0.296953 0.510420 0.807026 171 171 171 255
-162.373840 145.922363 -9.335854 -0.000000 -0.000000 1.000000 0 138 255 255
-97.388710 145.922379 -9.335851 -0.000000 -0.000000 1.000000 0 138 255 255
-97.388718 226.771637 -9.335848 -0.000000 -0.000000 1.000000 0 138 255 255
-162.373840 226.771622 -9.335851 -0.000000 -0.000000 1.000000 0 138 255 255
-33.167316 145.922379 -33.223354 0.000000 -0.000000 1.000000 0 138 255 255
31.054100 145.922379 -33.223354 0.000000 -0.000000 1.000000 0 138 255 255
31.054094 226.771637 -33.223351 0.000000 -0.000000 1.000000 0 138 255 255
-33.167320 226.771637 -33.223351 0.000000 -0.000000 1.000000 0 138 255 255
95.275505 145.922379 -56.854256 -0.000000 -0.000000 1.000000 0 138 255 255
154.109009 145.922394 -56.854252 -0.000000 -0.000000 1.000000 0 138 255 255
154.109009 226.771652 -56.854248 -0.000000 -0.000000 1.000000 0 138 255 255
95.275497 226.771637 -56.854252 -0.000000 -0.000000 1.000000 0 138 255 255
-97.388710 145.922379 -9.335851 0.348621 0.000000 0.937264 0 138 255 255
-33.167316 145.922379 -33.223354 0.348621 0.000000 0.937264 0 138 255 255
-33.167320 226.771637 -33.223351 0.348621 0.000000 0.937264 0 138 255 255
-97.388718 226.771637 -9.335848 0.348621 0.000000 0.937264 0 138 255 255
31.054100 145.922379 -33.223354 0.345324 -0.000000 0.938483 0 138 255 255
95.275505 145.922379 -56.854256 0.345324 -0.000000 0.938483 0 138 255 255
95.275497 226.771637 -56.854252 0.345324 -0.000000 0.938483 0 138 255 255
31.054094 226.771637 -33.223351 0.345324 -0.000000 0.938483 0 138 255 255
-104.070534 132.079987 0.000001 0.316255 0.420783 0.850250 171 171 171 255
-34.690186 132.080002 -25.806404 0.316255 0.420783 0.850250 171 171 171 255
-33.167316 145.922379 -33.223354 0.316255 0.420783 0.850250 171 171 171 255
-97.388710 145.922379 -9.335851 0.316255 0.420783 0.850250 171 171 171 255
34.690166 240.613968 -5.994310 -0.000000 -0.891424 0.453170 171 171 171 255
-34.690197 240.613983 -5.994313 -0.000000 -0.891424 0.453170 171 171 171 255
-33.167320 226.771637 -33.223351 -0.000000 -0.891424 0.453170 171 171 171 255
31.054094 226.771637 -33.223351 -0.000000 -0.891424 0.453170 171 171 171 255
-173.450912 132.079987 -0.000002 -0.000000 0.559154 0.829064 171 171 171 255
-104.070534 132.079987 0.000001 -0.000000 0.559154 0.829064 171 171 171 255
-97.388710 145.922379 -9.335851 -0.000000 0.559154 0.829064 171 171 171 255
-162.373840 145.922363 -9.335854 -0.000000 0.559154 0.829064 171 171 171 255
-34.690197 240.613983 -5.994313 0.168923 -0.874765 0.454149 171 171 171 255
-104.070541 240.613953 19.812094 0.168923 -0.874765 0.454149 171 171 171 255
-97.388718 226.771637 -9.335848 0.168923 -0.874765 0.454149 171 171 171 255
-33.167320 226.771637 -33.223351 0.168923 -0.874765 0.454149 171 171 171 255
161.393433 132.080017 -51.335587 -0.903336 -0.044629 0.426606 171 171 171 255
161.393433 240.613998 -31.523497 -0.903336 -0.044629 0.426606 171 171 171 255
154.109009 226.771652 -56.854248 -0.903336 -0.044629 0.426606 171 171 171 255
154.109009 145.922394 -56.854252 -0.903336 -0.044629 0.426606 171 171 171 255
104.070534 132.080017 -51.335590 -0.000000 0.370333 0.928899 171 171 171 255
161.393433 132.080017 -51.335587 -0.000000 0.370333 0.928899 171 171 171 255
154.109009 145.922394 -56.854252 -0.000000 0.370333 0.928899 171 171 171 255
95.275505 145.922379 -56.854256 -0.000000 0.370333 0.928899 171 171 171 255
-104.070541 240.613953 19.812094 0.000000 -0.903313 0.428982 171 171 171 255
-173.450912 240.613953 19.812090 0.000000 -0.903313 0.428982 171 171 171 255
-162.373840 226.771622 -9.335851 0.000000 -0.903313 0.428982 171 171 171 255
-97.388718 226.771637 -9.335848 0.000000 -0.903313 0.428982 171 171 171 255
-173.450912 132.079987 -0.000002 1.000000 0.000000 0.000000 171 171 171 255
-173.450912 240.613953 19.812090 1.000000 0.000000 0.000000 171 171 171 255
-173.450912 201.012405 95.692360 1.000000 0.000000 0.000000 171 171 171 255
-173.450912 143.795090 95.692360 1.000000 0.000000 0.000000 171 171 171 255
-173.450912 240.613953 19.812090 0.946848 -0.302380 -0.109753 171 171 171 255
-150.612579 294.335999 35.605625 0.946848 -0.302380 -0.109753 171 171 171 255
-150.612579 294.335999 68.830894 0.946848 -0.302380 -0.109753 171 171 171 255
-173.450912 201.012405 95.692360 0.946848 -0.302380 -0.109753 171 171 171 255
-173.450897 50.471531 -0.000005 1.000000 0.000000 0.000000 171 171 171 255
-173.450912 50.471527 95.692352 1.000000 0.000000 0.000000 171 171 171 255
161.393433 240.613998 -31.523497 -0.829769 -0.066238 0.554162 171 171 171 255
161.393433 132.080017 -51.335587 -0.829769 -0.066238 0.554162 171 171 171 255
185.939499 143.795120 -6.342302 -0.829769 -0.066238 0.554162 171 171 171 255
185.939499 201.012451 -6.342299 -0.829769 -0.066238 0.554162 171 171 171 255
161.393433 132.080017 -51.335587 -0.877860 -0.000000 0.478916 171 171 171 255
161.393448 50.471558 -51.335590 -0.877860 -0.000000 0.478916 171 171 171 255
185.939514 50.471558 -6.342306 -0.877860 -0.000000 0.478916 171 171 171 255
185.939499 143.795120 -6.342302 -0.877860 -0.000000 0.478916 171 171 171 255
143.122940 294.335999 -20.952042 -0.787569 -0.275003 0.551461 171 171 171 255
161.393433 240.613998 -31.523497 -0.787569 -0.275003 0.551461 171 171 171 255
185.939499 201.012451 -6.342299 -0.787569 -0.275003 0.551461 171 171 171 255
167.669006 294.335999 4.229159 -0.787569 -0.275003 0.551461 171 171 171 255
185.939499 201.012451 -6.342299 -1.000000 0.000000 -0.000000 171 171 171 255
185.939499 143.795120 -6.342302 -1.000000 0.000000 -0.000000 171 171 171 255
185.939499 143.795120 53.657700 -1.000000 0.000000 -0.000000 171 171 171 255
185.939499 201.012451 53.657700 -1.000000 0.000000 -0.000000 171 171 171 255
185.939514 50.471558 -6.342306 -1.000000 -0.000000 0.000000 171 171 171 255
185.939514 50.471554 53.657696 -1.000000 -0.000000 0.000000 171 171 171 255
167.669006 294.335999 4.229159 -0.983383 -0.179999 0.023645 171 171 171 255
185.939499 201.012451 -6.342299 -0.983383 -0.179999 0.023645 171 171 171 255
185.939499 201.012451 53.657700 -0.983383 -0.179999 0.023645 171 171 171 255
167.668991 308.710907 53.657707 -0.983383 -0.179999 0.023645 171 171 171 255
-173.450912 143.795090 95.692360 0.229980 -0.075141 -0.970290 171 171 171 255
-173.450912 201.012405 95.692360 0.229980 -0.075141 -0.970290 171 171 171 255
-82.450920 201.012421 112.830345 0.229980 -0.075141 -0.970290 171 171 171 255
-82.450912 143.795105 121.692368 0.229980 -0.075141 -0.970290 171 171 171 255
-173.450912 201.012405 95.692360 0.183732 -0.306194 -0.934071 171 171 171 255
-150.612579 294.335999 68.830894 0.183732 -0.306194 -0.934071 171 171 171 255
-82.450920 294.335999 83.000092 0.183732 -0.306194 -0.934071 171 171 171 255
-82.450920 201.012421 112.830345 0.183732 -0.306194 -0.934071 171 171 171 255
-173.450912 50.471527 95.692352 0.274721 0.000000 -0.961524 171 171 171 255
-173.450912 143.795090 95.692360 0.274721 0.000000 -0.961524 171 171 171 255
-82.450912 143.795105 121.692368 0.274721 0.000000 -0.961524 171 171 171 255
-82.450905 50.471531 121.692360 0.274721 0.000000 -0.961524 171 171 171 255
185.939499 201.012451 53.657700 -0.514806 -0.066193 -0.854747 171 171 171 255
185.939499 143.795120 53.657700 -0.514806 -0.066193 -0.854747 171 171 171 255
90.935303 143.795105 115.308853 -0.514806 -0.066193 -0.854747 171 171 171 255
90.935295 201.012436 106.446831 -0.514806 -0.066193 -0.854747 171 171 171 255
185.939499 143.795120 53.657700 -0.544358 -0.000000 -0.838853 171 171 171 255
185.939514 50.471554 53.657696 -0.544358 -0.000000 -0.838853 171 171 171 255
90.935310 50.471546 115.308846 -0.544358 -0.000000 -0.838853 171 171 171 255
90.935303 143.795105 115.308853 -0.544358 -0.000000 -0.838853 171 171 171 255
167.668991 308.710907 53.657707 -0.404411 -0.153767 -0.901558 171 171 171 255
185.939499 201.012451 53.657700 -0.404411 -0.153767 -0.901558 171 171 171 255
90.935295 201.012436 106.446831 -0.404411 -0.153767 -0.901558 171 171 171 255
90.935287 316.264435 76.616585 -0.404411 -0.153767 -0.901558 171 171 171 255
-82.450912 143.795105 121.692368 -0.036792 0.000000 -0.999323 171 171 171 255
90.935303 143.795105 115.308853 -0.036792 0.000000 -0.999323 171 171 171 255
90.935310 50.471546 115.308846 -0.036792 0.000000 -0.999323 171 171 171 255
-82.450905 50.471531 121.692360 -0.036792 0.000000 -0.999323 171 171 171 255
-82.450920 201.012421 112.830345 -0.036359 -0.152957 -0.987564 171 171 171 255
90.935295 201.012436 106.446831 -0.036359 -0.152957 -0.987564 171 171 171 255
90.935303 143.795105 115.308853 -0.036359 -0.152957 -0.987564 171 171 171 255
-82.450912 143.795105 121.692368 -0.036359 -0.152957 -0.987564 171 171 171 255
-82.450920 294.335999 83.000092 -0.018004 -0.274964 -0.961286 171 171 171 255
90.935287 316.264435 76.616585 -0.018004 -0.274964 -0.961286 171 171 171 255
90.935295 201.012436 106.446831 -0.018004 -0.274964 -0.961286 171 171 171 255
-82.450920 201.012421 112.830345 -0.018004 -0.274964 -0.961286 171 171 171 255
-104.070557 309.245117 26.119677 0.305067 -0.952331 0.000000 171 171 171 255
-150.612579 294.335999 68.830894 0.305067 -0.952331 0.000000 171 171 171 255
-150.612579 294.335999 35.605625 0.305067 -0.952331 0.000000 171 171 171 255
167.668991 308.710907 53.657707 -0.080513 -0.994388 0.068631 171 171 171 255
34.690163 315.927155 2.211367 -0.080513 -0.994388 0.068631 171 171 171 255
104.070518 308.710907 -20.952044 -0.080513 -0.994388 0.068631 171 171 171 255
90.935287 316.264435 76.616585 0.121815 -0.988679 -0.087602 171 171 171 255
-82.450920 294.335999 83.000092 0.121815 -0.988679 -0.087602 171 171 171 255
34.690163 315.927155 2.211367 0.121815 -0.988679 -0.087602 171 171 171 255
-104.070557 309.245117 26.119677 0.056810 -0.960253 -0.273288 171 171 171 255
-82.450920 294.335999 83.000092 0.056810 -0.960253 -0.273288 171 171 171 255
-150.612579 294.335999 68.830894 0.056810 -0.960253 -0.273288 171 171 171 255
104.070518 308.710907 -20.952044 -0.327373 -0.889377 0.319116 171 171 171 255
143.122940 294.335999 -20.952042 -0.327373 -0.889377 0.319116 171 171 171 255
167.669006 294.335999 4.229159 -0.327373 -0.889377 0.319116 171 171 171 255
167.669006 294.335999 4.229159 -0.311321 -0.912499 0.265375 171 171 171 255
167.668991 308.710907 53.657707 -0.311321 -0.912499 0.265375 171 171 171 255
104.070518 308.710907 -20.952044 -0.311321 -0.912499 0.265375 171 171 171 255
-104.070557 309.245117 26.119677 0.005118 -0.966831 -0.255365 171 171 171 255
-34.690201 315.927155 2.211365 0.005118 -0.966831 -0.255365 171 171 171 255
-82.450920 294.335999 83.000092 0.005118 -0.966831 -0.255365 171 171 171 255
-34.690201 315.927155 2.211365 0.000000 -0.966093 -0.258193 171 171 171 255
34.690163 315.927155 2.211367 0.000000 -0.966093 -0.258193 171 171 171 255
-82.450920 294.335999 83.000092 0.000000 -0.966093 -0.258193 171 171 171 255
34.690163 315.927155 2.211367 -0.078765 -0.994833 0.064051 171 171 171 255
167.668991 308.710907 53.657707 -0.078765 -0.994833 0.064051 171 171 171 255
90.935287 316.264435 76.616585 -0.078765 -0.994833 0.064051 171 171 171 255
4 0 1 2 3
4 4 5 6 7
4 8 9 10 11
4 12 13 14 15
4 16 17 18 19
4 20 21 22 23
4 24 25 26 27
4 28 29 30 31
4 32 33 34 35
4 36 37 38 39
4 40 41 42 43
4 44 45 46 47
4 48 49 50 51
4 52 53 54 55
4 56 57 58 59
4 60 61 62 63
4 64 65 66 67
4 68 69 70 71
4 72 73 74 75
4 76 77 78 79
4 80 81 82 83
4 84 85 86 87
4 88 89 90 91
4 92 93 94 95
4 96 97 98 99
4 100 101 102 103
4 104 105 106 107
4 108 109 110 111
4 112 113 114 115
4 116 117 118 119
4 120 121 122 123
4 124 125 126 127
4 128 129 130 131
4 132 133 134 135
4 136 137 138 139
4 140 141 142 143
4 144 145 146 147
4 148 149 150 151
4 152 153 154 155
4 156 148 151 157
4 158 159 160 161
4 162 163 164 165
4 166 167 168 169
4 170 171 172 173
4 171 174 175 172
4 176 177 178 179
4 180 181 182 183
4 184 185 186 187
4 188 189 190 191
4 192 193 194 195
4 196 197 198 199
4 200 201 202 203
4 204 205 206 207
4 208 209 210 211
4 212 213 214 215
3 216 217 218
3 219 220 221
3 222 223 224
3 225 226 227
3 228 229 230
3 231 232 233
3 234 235 236
3 237 238 239
3 240 241 242
