ply
format ascii 1.0
comment Created by Blender 3.0.0 - www.blender.org
element vertex 348
property float x
property float y
property float z
property float nx
property float ny
property float nz
property uchar red
property uchar green
property uchar blue
property uchar alpha
element face 82
property list uchar uint vertex_indices
end_header
-100.000000 0.000000 -80.000000 -0.689152 0.223919 -0.689152 0 255 250 255
-160.000000 0.000000 -20.000000 -0.689152 0.223919 -0.689152 0 255 250 255
-129.442719 94.045639 -20.000000 -0.689152 0.223919 -0.689152 0 255 250 255
-80.901703 58.778526 -80.000000 -0.689152 0.223919 -0.689152 0 255 250 255
-160.000000 0.000000 -20.000000 0.000000 0.000000 1.000000 0 255 250 255
-120.000000 0.000000 -20.000000 0.000000 0.000000 1.000000 0 255 250 255
-97.082039 70.534225 -20.000000 0.000000 0.000000 1.000000 0 255 250 255
-129.442719 94.045639 -20.000000 0.000000 0.000000 1.000000 0 255 250 255
-120.000000 0.000000 -20.000000 -0.442566 0.143798 0.885131 0 255 250 255
-80.000000 0.000000 0.000000 -0.442566 0.143798 0.885131 0 255 250 255
-64.721359 47.022820 0.000000 -0.442566 0.143798 0.885131 0 255 250 255
-97.082039 70.534225 -20.000000 -0.442566 0.143798 0.885131 0 255 250 255
-100.000000 0.000000 -680.000000 -0.951057 0.309017 0.000000 0 255 250 255
-100.000000 0.000000 -80.000000 -0.951057 0.309017 0.000000 0 255 250 255
-80.901703 58.778526 -80.000000 -0.951057 0.309017 0.000000 0 255 250 255
-80.901703 58.778526 -680.000000 -0.951057 0.309017 0.000000 0 255 250 255
-80.000000 0.000000 0.000000 0.000000 0.000000 1.000000 0 255 250 255
0.000000 0.000000 0.000000 0.000000 0.000000 1.000000 0 255 250 255
0.000000 0.000000 0.000000 0.000000 0.000000 1.000000 0 255 250 255
-64.721359 47.022820 0.000000 0.000000 0.000000 1.000000 0 255 250 255
0.000000 0.000000 0.000000 0.000000 0.000000 1.000000 0 255 250 255
-24.721359 76.084518 0.000000 0.000000 0.000000 1.000000 0 255 250 255
-80.901703 58.778526 -80.000000 -0.425919 0.586228 -0.689152 0 255 250 255
-129.442719 94.045639 -20.000000 -0.425919 0.586228 -0.689152 0 255 250 255
-49.442719 152.169037 -20.000000 -0.425919 0.586228 -0.689152 0 255 250 255
-30.901703 95.105652 -80.000000 -0.425919 0.586228 -0.689152 0 255 250 255
-37.082047 114.126778 -20.000000 0.000000 0.000000 1.000000 0 255 250 255
-49.442719 152.169037 -20.000000 0.000000 0.000000 1.000000 0 255 250 255
-97.082039 70.534225 -20.000000 -0.273521 0.376469 0.885131 0 255 250 255
-64.721359 47.022820 0.000000 -0.273521 0.376469 0.885131 0 255 250 255
-24.721359 76.084518 0.000000 -0.273521 0.376469 0.885131 0 255 250 255
-37.082047 114.126778 -20.000000 -0.273521 0.376469 0.885131 0 255 250 255
-80.901703 58.778526 -680.000000 -0.587785 0.809017 0.000000 0 255 250 255
-80.901703 58.778526 -80.000000 -0.587785 0.809017 0.000000 0 255 250 255
-30.901703 95.105652 -80.000000 -0.587785 0.809017 0.000000 0 255 250 255
-30.901703 95.105652 -680.000000 -0.587785 0.809017 0.000000 0 255 250 255
0.000000 0.000000 0.000000 0.000000 0.000000 1.000000 0 255 250 255
24.721355 76.084518 0.000000 0.000000 0.000000 1.000000 0 255 250 255
-30.901703 95.105652 -80.000000 -0.000000 0.724617 -0.689152 0 255 250 255
-49.442719 152.169037 -20.000000 -0.000000 0.724617 -0.689152 0 255 250 255
49.442711 152.169037 -20.000000 -0.000000 0.724617 -0.689152 0 255 250 255
30.901695 95.105659 -80.000000 -0.000000 0.724617 -0.689152 0 255 250 255
37.082031 114.126785 -20.000000 0.000000 0.000000 1.000000 0 255 250 255
49.442711 152.169037 -20.000000 0.000000 0.000000 1.000000 0 255 250 255
-37.082047 114.126778 -20.000000 -0.000000 0.465341 0.885132 0 255 250 255
-24.721359 76.084518 0.000000 -0.000000 0.465341 0.885132 0 255 250 255
24.721355 76.084518 0.000000 -0.000000 0.465341 0.885132 0 255 250 255
37.082031 114.126785 -20.000000 -0.000000 0.465341 0.885132 0 255 250 255
-30.901703 95.105652 -680.000000 -0.000000 1.000000 0.000000 0 255 250 255
-30.901703 95.105652 -80.000000 -0.000000 1.000000 0.000000 0 255 250 255
30.901695 95.105659 -80.000000 -0.000000 1.000000 0.000000 0 255 250 255
30.901695 95.105659 -680.000000 -0.000000 1.000000 0.000000 0 255 250 255
0.000000 0.000000 0.000000 0.000000 -0.000000 1.000000 0 255 250 255
64.721352 47.022820 0.000000 0.000000 -0.000000 1.000000 0 255 250 255
30.901695 95.105659 -80.000000 0.425919 0.586228 -0.689152 0 255 250 255
49.442711 152.169037 -20.000000 0.425919 0.586228 -0.689152 0 255 250 255
129.442703 94.045639 -20.000000 0.425919 0.586228 -0.689152 0 255 250 255
80.901703 58.778534 -80.000000 0.425919 0.586228 -0.689152 0 255 250 255
97.082031 70.534241 -20.000000 0.000000 0.000000 1.000000 0 255 250 255
129.442703 94.045639 -20.000000 0.000000 0.000000 1.000000 0 255 250 255
37.082031 114.126785 -20.000000 0.273521 0.376469 0.885132 0 255 250 255
24.721355 76.084518 0.000000 0.273521 0.376469 0.885132 0 255 250 255
64.721352 47.022820 0.000000 0.273521 0.376469 0.885132 0 255 250 255
97.082031 70.534241 -20.000000 0.273521 0.376469 0.885132 0 255 250 255
30.901695 95.105659 -680.000000 0.587785 0.809017 0.000000 0 255 250 255
30.901695 95.105659 -80.000000 0.587785 0.809017 0.000000 0 255 250 255
80.901703 58.778534 -80.000000 0.587785 0.809017 0.000000 0 255 250 255
80.901703 58.778534 -680.000000 0.587785 0.809017 0.000000 0 255 250 255
0.000000 0.000000 0.000000 0.000000 -0.000000 1.000000 0 255 250 255
79.999992 0.000004 0.000000 0.000000 -0.000000 1.000000 0 255 250 255
80.901703 58.778534 -80.000000 0.689152 0.223919 -0.689152 0 255 250 255
129.442703 94.045639 -20.000000 0.689152 0.223919 -0.689152 0 255 250 255
159.999985 0.000008 -20.000000 0.689152 0.223919 -0.689152 0 255 250 255
100.000008 0.000008 -80.000000 0.689152 0.223919 -0.689152 0 255 250 255
120.000000 0.000015 -20.000000 0.000000 -0.000000 1.000000 0 255 250 255
159.999985 0.000008 -20.000000 0.000000 -0.000000 1.000000 0 255 250 255
97.082031 70.534241 -20.000000 0.442566 0.143798 0.885131 0 255 250 255
64.721352 47.022820 0.000000 0.442566 0.143798 0.885131 0 255 250 255
79.999992 0.000004 0.000000 0.442566 0.143798 0.885131 0 255 250 255
120.000000 0.000015 -20.000000 0.442566 0.143798 0.885131 0 255 250 255
80.901703 58.778534 -680.000000 0.951056 0.309017 0.000000 0 255 250 255
80.901703 58.778534 -80.000000 0.951056 0.309017 0.000000 0 255 250 255
100.000008 0.000008 -80.000000 0.951056 0.309017 0.000000 0 255 250 255
100.000008 0.000008 -680.000000 0.951056 0.309017 0.000000 0 255 250 255
-250.000000 0.000000 -680.000000 0.000000 0.000000 1.000000 0 255 250 255
250.000000 0.000000 -680.000000 0.000000 0.000000 1.000000 0 255 250 255
16182.215820 15932.215820 -680.000000 0.000000 0.000000 1.000000 0 255 250 255
-16182.215820 15932.215820 -680.000000 0.000000 0.000000 1.000000 0 255 250 255
-2522.233887 6096.124023 -816.223145 0.433883 0.900969 0.000000 0 134 206 255
-2522.233887 6096.124023 2183.776855 0.433883 0.900969 0.000000 0 134 206 255
-2131.318115 5907.869141 2183.776855 0.433883 0.900969 0.000000 0 134 206 255
-2131.318115 5907.869141 -816.223145 0.433883 0.900969 0.000000 0 134 206 255
-2131.318115 5907.869141 -816.223145 0.974928 0.222521 0.000000 0 134 206 255
-2131.318115 5907.869141 2183.776855 0.974928 0.222521 0.000000 0 134 206 255
-2034.769897 5484.863770 2183.776855 0.974928 0.222521 0.000000 0 134 206 255
-2034.769897 5484.863770 -816.223145 0.974928 0.222521 0.000000 0 134 206 255
-2034.769897 5484.863770 -816.223145 0.781832 -0.623490 0.000000 0 134 206 255
-2034.769897 5484.863770 2183.776855 0.781832 -0.623490 0.000000 0 134 206 255
-2305.291992 5145.639648 2183.776855 0.781832 -0.623490 0.000000 0 134 206 255
-2305.291992 5145.639648 -816.223145 0.781832 -0.623490 0.000000 0 134 206 255
-2305.291992 5145.639648 -816.223145 0.000000 -1.000000 0.000000 0 134 206 255
-2305.291992 5145.639648 2183.776855 0.000000 -1.000000 0.000000 0 134 206 255
-2739.175781 5145.639648 2183.776855 0.000000 -1.000000 0.000000 0 134 206 255
-2739.175781 5145.639648 -816.223145 0.000000 -1.000000 0.000000 0 134 206 255
-2739.175781 5145.639648 -816.223145 -0.781831 -0.623490 0.000000 0 134 206 255
-2739.175781 5145.639648 2183.776855 -0.781831 -0.623490 0.000000 0 134 206 255
-3009.697754 5484.863281 2183.776855 -0.781831 -0.623490 0.000000 0 134 206 255
-3009.697754 5484.863281 -816.223145 -0.781831 -0.623490 0.000000 0 134 206 255
-2131.318115 5907.869141 2183.776855 -0.000000 0.000000 1.000000 0 134 206 255
-2522.233887 6096.124023 2183.776855 -0.000000 0.000000 1.000000 0 134 206 255
-2913.149658 5907.868652 2183.776855 -0.000000 0.000000 1.000000 0 134 206 255
-3009.697754 5484.863281 2183.776855 -0.000000 0.000000 1.000000 0 134 206 255
-2739.175781 5145.639648 2183.776855 -0.000000 0.000000 1.000000 0 134 206 255
-2305.291992 5145.639648 2183.776855 -0.000000 0.000000 1.000000 0 134 206 255
-2034.769897 5484.863770 2183.776855 -0.000000 0.000000 1.000000 0 134 206 255
-3009.697754 5484.863281 -816.223145 -0.974928 0.222521 0.000000 0 134 206 255
-3009.697754 5484.863281 2183.776855 -0.974928 0.222521 0.000000 0 134 206 255
-2913.149658 5907.868652 2183.776855 -0.974928 0.222521 0.000000 0 134 206 255
-2913.149658 5907.868652 -816.223145 -0.974928 0.222521 0.000000 0 134 206 255
-2913.149658 5907.868652 -816.223145 -0.433884 0.900969 0.000000 0 134 206 255
-2913.149658 5907.868652 2183.776855 -0.433884 0.900969 0.000000 0 134 206 255
-2522.233887 6096.124023 2183.776855 -0.433884 0.900969 0.000000 0 134 206 255
-2522.233887 6096.124023 -816.223145 -0.433884 0.900969 0.000000 0 134 206 255
-2522.233887 6096.124023 -816.223145 -0.000000 0.000000 -1.000000 0 134 206 255
-2131.318115 5907.869141 -816.223145 -0.000000 0.000000 -1.000000 0 134 206 255
-2034.769897 5484.863770 -816.223145 -0.000000 0.000000 -1.000000 0 134 206 255
-2305.291992 5145.639648 -816.223145 -0.000000 0.000000 -1.000000 0 134 206 255
-2739.175781 5145.639648 -816.223145 -0.000000 0.000000 -1.000000 0 134 206 255
-3009.697754 5484.863281 -816.223145 -0.000000 0.000000 -1.000000 0 134 206 255
-2913.149658 5907.868652 -816.223145 -0.000000 0.000000 -1.000000 0 134 206 255
2522.229980 6096.124023 -816.223145 0.433883 0.900969 0.000000 0 134 206 255
2522.229980 6096.124023 2183.776855 0.433883 0.900969 0.000000 0 134 206 255
2913.145752 5907.869141 2183.776855 0.433883 0.900969 0.000000 0 134 206 255
2913.145752 5907.869141 -816.223145 0.433883 0.900969 0.000000 0 134 206 255
2913.145752 5907.869141 -816.223145 0.974928 0.222521 0.000000 0 134 206 255
2913.145752 5907.869141 2183.776855 0.974928 0.222521 0.000000 0 134 206 255
3009.693848 5484.863770 2183.776855 0.974928 0.222521 0.000000 0 134 206 255
3009.693848 5484.863770 -816.223145 0.974928 0.222521 0.000000 0 134 206 255
3009.693848 5484.863770 -816.223145 0.781832 -0.623489 0.000000 0 134 206 255
3009.693848 5484.863770 2183.776855 0.781832 -0.623489 0.000000 0 134 206 255
2739.171875 5145.639648 2183.776855 0.781832 -0.623489 0.000000 0 134 206 255
2739.171875 5145.639648 -816.223145 0.781832 -0.623489 0.000000 0 134 206 255
2739.171875 5145.639648 -816.223145 0.000000 -1.000000 0.000000 0 134 206 255
2739.171875 5145.639648 2183.776855 0.000000 -1.000000 0.000000 0 134 206 255
2305.288086 5145.639648 2183.776855 0.000000 -1.000000 0.000000 0 134 206 255
2305.288086 5145.639648 -816.223145 0.000000 -1.000000 0.000000 0 134 206 255
2305.288086 5145.639648 -816.223145 -0.781831 -0.623490 0.000000 0 134 206 255
2305.288086 5145.639648 2183.776855 -0.781831 -0.623490 0.000000 0 134 206 255
2034.766113 5484.863281 2183.776855 -0.781831 -0.623490 0.000000 0 134 206 255
2034.766113 5484.863281 -816.223145 -0.781831 -0.623490 0.000000 0 134 206 255
2913.145752 5907.869141 2183.776855 -0.000000 0.000000 1.000000 0 134 206 255
2522.229980 6096.124023 2183.776855 -0.000000 0.000000 1.000000 0 134 206 255
2131.314209 5907.868652 2183.776855 -0.000000 0.000000 1.000000 0 134 206 255
2034.766113 5484.863281 2183.776855 -0.000000 0.000000 1.000000 0 134 206 255
2305.288086 5145.639648 2183.776855 -0.000000 0.000000 1.000000 0 134 206 255
2739.171875 5145.639648 2183.776855 -0.000000 0.000000 1.000000 0 134 206 255
3009.693848 5484.863770 2183.776855 -0.000000 0.000000 1.000000 0 134 206 255
2034.766113 5484.863281 -816.223145 -0.974928 0.222521 0.000000 0 134 206 255
2034.766113 5484.863281 2183.776855 -0.974928 0.222521 0.000000 0 134 206 255
2131.314209 5907.868652 2183.776855 -0.974928 0.222521 0.000000 0 134 206 255
2131.314209 5907.868652 -816.223145 -0.974928 0.222521 0.000000 0 134 206 255
2131.314209 5907.868652 -816.223145 -0.433884 0.900969 0.000000 0 134 206 255
2131.314209 5907.868652 2183.776855 -0.433884 0.900969 0.000000 0 134 206 255
2522.229980 6096.124023 2183.776855 -0.433884 0.900969 0.000000 0 134 206 255
2522.229980 6096.124023 -816.223145 -0.433884 0.900969 0.000000 0 134 206 255
2522.229980 6096.124023 -816.223145 -0.000000 0.000000 -1.000000 0 134 206 255
2913.145752 5907.869141 -816.223145 -0.000000 0.000000 -1.000000 0 134 206 255
3009.693848 5484.863770 -816.223145 -0.000000 0.000000 -1.000000 0 134 206 255
2739.171875 5145.639648 -816.223145 -0.000000 0.000000 -1.000000 0 134 206 255
2305.288086 5145.639648 -816.223145 -0.000000 0.000000 -1.000000 0 134 206 255
2034.766113 5484.863281 -816.223145 -0.000000 0.000000 -1.000000 0 134 206 255
2131.314209 5907.868652 -816.223145 -0.000000 0.000000 -1.000000 0 134 206 255
-2522.233887 9096.124023 -816.223145 0.433883 0.900969 0.000000 0 134 206 255
-2522.233887 9096.124023 2183.776855 0.433883 0.900969 0.000000 0 134 206 255
-2131.318115 8907.869141 2183.776855 0.433883 0.900969 0.000000 0 134 206 255
-2131.318115 8907.869141 -816.223145 0.433883 0.900969 0.000000 0 134 206 255
-2131.318115 8907.869141 -816.223145 0.974928 0.222521 0.000000 0 134 206 255
-2131.318115 8907.869141 2183.776855 0.974928 0.222521 0.000000 0 134 206 255
-2034.769897 8484.863281 2183.776855 0.974928 0.222521 0.000000 0 134 206 255
-2034.769897 8484.863281 -816.223145 0.974928 0.222521 0.000000 0 134 206 255
-2034.769897 8484.863281 -816.223145 0.781831 -0.623490 0.000000 0 134 206 255
-2034.769897 8484.863281 2183.776855 0.781831 -0.623490 0.000000 0 134 206 255
-2305.291992 8145.639648 2183.776855 0.781831 -0.623490 0.000000 0 134 206 255
-2305.291992 8145.639648 -816.223145 0.781831 -0.623490 0.000000 0 134 206 255
-2305.291992 8145.639648 -816.223145 0.000000 -1.000000 0.000000 0 134 206 255
-2305.291992 8145.639648 2183.776855 0.000000 -1.000000 0.000000 0 134 206 255
-2739.175781 8145.639648 2183.776855 0.000000 -1.000000 0.000000 0 134 206 255
-2739.175781 8145.639648 -816.223145 0.000000 -1.000000 0.000000 0 134 206 255
-2739.175781 8145.639648 -816.223145 -0.781831 -0.623490 0.000000 0 134 206 255
-2739.175781 8145.639648 2183.776855 -0.781831 -0.623490 0.000000 0 134 206 255
-3009.697754 8484.863281 2183.776855 -0.781831 -0.623490 0.000000 0 134 206 255
-3009.697754 8484.863281 -816.223145 -0.781831 -0.623490 0.000000 0 134 206 255
-2131.318115 8907.869141 2183.776855 0.000000 0.000000 1.000000 0 134 206 255
-2522.233887 9096.124023 2183.776855 0.000000 0.000000 1.000000 0 134 206 255
-2913.149658 8907.869141 2183.776855 0.000000 0.000000 1.000000 0 134 206 255
-3009.697754 8484.863281 2183.776855 0.000000 0.000000 1.000000 0 134 206 255
-2739.175781 8145.639648 2183.776855 0.000000 0.000000 1.000000 0 134 206 255
-2305.291992 8145.639648 2183.776855 0.000000 0.000000 1.000000 0 134 206 255
-2034.769897 8484.863281 2183.776855 0.000000 0.000000 1.000000 0 134 206 255
-3009.697754 8484.863281 -816.223145 -0.974928 0.222520 0.000000 0 134 206 255
-3009.697754 8484.863281 2183.776855 -0.974928 0.222520 0.000000 0 134 206 255
-2913.149658 8907.869141 2183.776855 -0.974928 0.222520 0.000000 0 134 206 255
-2913.149658 8907.869141 -816.223145 -0.974928 0.222520 0.000000 0 134 206 255
-2913.149658 8907.869141 -816.223145 -0.433883 0.900969 0.000000 0 134 206 255
-2913.149658 8907.869141 2183.776855 -0.433883 0.900969 0.000000 0 134 206 255
-2522.233887 9096.124023 2183.776855 -0.433883 0.900969 0.000000 0 134 206 255
-2522.233887 9096.124023 -816.223145 -0.433883 0.900969 0.000000 0 134 206 255
-2522.233887 9096.124023 -816.223145 0.000000 0.000000 -1.000000 0 134 206 255
-2131.318115 8907.869141 -816.223145 0.000000 0.000000 -1.000000 0 134 206 255
-2034.769897 8484.863281 -816.223145 0.000000 0.000000 -1.000000 0 134 206 255
-2305.291992 8145.639648 -816.223145 0.000000 0.000000 -1.000000 0 134 206 255
-2739.175781 8145.639648 -816.223145 0.000000 0.000000 -1.000000 0 134 206 255
-3009.697754 8484.863281 -816.223145 0.000000 0.000000 -1.000000 0 134 206 255
-2913.149658 8907.869141 -816.223145 0.000000 0.000000 -1.000000 0 134 206 255
2522.229980 9096.124023 -816.223145 0.433883 0.900969 0.000000 0 134 206 255
2522.229980 9096.124023 2183.776855 0.433883 0.900969 0.000000 0 134 206 255
2913.145752 8907.869141 2183.776855 0.433883 0.900969 0.000000 0 134 206 255
2913.145752 8907.869141 -816.223145 0.433883 0.900969 0.000000 0 134 206 255
2913.145752 8907.869141 -816.223145 0.974928 0.222520 0.000000 0 134 206 255
2913.145752 8907.869141 2183.776855 0.974928 0.222520 0.000000 0 134 206 255
3009.693848 8484.863281 2183.776855 0.974928 0.222520 0.000000 0 134 206 255
3009.693848 8484.863281 -816.223145 0.974928 0.222520 0.000000 0 134 206 255
3009.693848 8484.863281 -816.223145 0.781831 -0.623490 0.000000 0 134 206 255
3009.693848 8484.863281 2183.776855 0.781831 -0.623490 0.000000 0 134 206 255
2739.171875 8145.639648 2183.776855 0.781831 -0.623490 0.000000 0 134 206 255
2739.171875 8145.639648 -816.223145 0.781831 -0.623490 0.000000 0 134 206 255
2739.171875 8145.639648 -816.223145 0.000000 -1.000000 0.000000 0 134 206 255
2739.171875 8145.639648 2183.776855 0.000000 -1.000000 0.000000 0 134 206 255
2305.288086 8145.639648 2183.776855 0.000000 -1.000000 0.000000 0 134 206 255
2305.288086 8145.639648 -816.223145 0.000000 -1.000000 0.000000 0 134 206 255
2305.288086 8145.639648 -816.223145 -0.781831 -0.623490 0.000000 0 134 206 255
2305.288086 8145.639648 2183.776855 -0.781831 -0.623490 0.000000 0 134 206 255
2034.766113 8484.863281 2183.776855 -0.781831 -0.623490 0.000000 0 134 206 255
2034.766113 8484.863281 -816.223145 -0.781831 -0.623490 0.000000 0 134 206 255
2913.145752 8907.869141 2183.776855 0.000000 0.000000 1.000000 0 134 206 255
2522.229980 9096.124023 2183.776855 0.000000 0.000000 1.000000 0 134 206 255
2131.314209 8907.869141 2183.776855 0.000000 0.000000 1.000000 0 134 206 255
2034.766113 8484.863281 2183.776855 0.000000 0.000000 1.000000 0 134 206 255
2305.288086 8145.639648 2183.776855 0.000000 0.000000 1.000000 0 134 206 255
2739.171875 8145.639648 2183.776855 0.000000 0.000000 1.000000 0 134 206 255
3009.693848 8484.863281 2183.776855 0.000000 0.000000 1.000000 0 134 206 255
2034.766113 8484.863281 -816.223145 -0.974928 0.222520 0.000000 0 134 206 255
2034.766113 8484.863281 2183.776855 -0.974928 0.222520 0.000000 0 134 206 255
2131.314209 8907.869141 2183.776855 -0.974928 0.222520 0.000000 0 134 206 255
2131.314209 8907.869141 -816.223145 -0.974928 0.222520 0.000000 0 134 206 255
2131.314209 8907.869141 -816.223145 -0.433883 0.900969 0.000000 0 134 206 255
2131.314209 8907.869141 2183.776855 -0.433883 0.900969 0.000000 0 134 206 255
2522.229980 9096.124023 2183.776855 -0.433883 0.900969 0.000000 0 134 206 255
2522.229980 9096.124023 -816.223145 -0.433883 0.900969 0.000000 0 134 206 255
2522.229980 9096.124023 -816.223145 0.000000 0.000000 -1.000000 0 134 206 255
2913.145752 8907.869141 -816.223145 0.000000 0.000000 -1.000000 0 134 206 255
3009.693848 8484.863281 -816.223145 0.000000 0.000000 -1.000000 0 134 206 255
2739.171875 8145.639648 -816.223145 0.000000 0.000000 -1.000000 0 134 206 255
2305.288086 8145.639648 -816.223145 0.000000 0.000000 -1.000000 0 134 206 255
2034.766113 8484.863281 -816.223145 0.000000 0.000000 -1.000000 0 134 206 255
2131.314209 8907.869141 -816.223145 0.000000 0.000000 -1.000000 0 134 206 255
-2522.233887 12096.124023 -816.223145 0.433883 0.900969 0.000000 0 134 206 255
-2522.233887 12096.124023 2183.776855 0.433883 0.900969 0.000000 0 134 206 255
-2131.318115 11907.869141 2183.776855 0.433883 0.900969 0.000000 0 134 206 255
-2131.318115 11907.869141 -816.223145 0.433883 0.900969 0.000000 0 134 206 255
-2131.318115 11907.869141 -816.223145 0.974928 0.222521 0.000000 0 134 206 255
-2131.318115 11907.869141 2183.776855 0.974928 0.222521 0.000000 0 134 206 255
-2034.769897 11484.863281 2183.776855 0.974928 0.222521 0.000000 0 134 206 255
-2034.769897 11484.863281 -816.223145 0.974928 0.222521 0.000000 0 134 206 255
-2034.769897 11484.863281 -816.223145 0.781831 -0.623490 0.000000 0 134 206 255
-2034.769897 11484.863281 2183.776855 0.781831 -0.623490 0.000000 0 134 206 255
-2305.291992 11145.639648 2183.776855 0.781831 -0.623490 0.000000 0 134 206 255
-2305.291992 11145.639648 -816.223145 0.781831 -0.623490 0.000000 0 134 206 255
-2305.291992 11145.639648 -816.223145 0.000000 -1.000000 0.000000 0 134 206 255
-2305.291992 11145.639648 2183.776855 0.000000 -1.000000 0.000000 0 134 206 255
-2739.175781 11145.639648 2183.776855 0.000000 -1.000000 0.000000 0 134 206 255
-2739.175781 11145.639648 -816.223145 0.000000 -1.000000 0.000000 0 134 206 255
-2739.175781 11145.639648 -816.223145 -0.781831 -0.623490 0.000000 0 134 206 255
-2739.175781 11145.639648 2183.776855 -0.781831 -0.623490 0.000000 0 134 206 255
-3009.697754 11484.863281 2183.776855 -0.781831 -0.623490 0.000000 0 134 206 255
-3009.697754 11484.863281 -816.223145 -0.781831 -0.623490 0.000000 0 134 206 255
-2131.318115 11907.869141 2183.776855 0.000000 0.000000 1.000000 0 134 206 255
-2522.233887 12096.124023 2183.776855 0.000000 0.000000 1.000000 0 134 206 255
-2913.149658 11907.869141 2183.776855 0.000000 0.000000 1.000000 0 134 206 255
-3009.697754 11484.863281 2183.776855 0.000000 0.000000 1.000000 0 134 206 255
-2739.175781 11145.639648 2183.776855 0.000000 0.000000 1.000000 0 134 206 255
-2305.291992 11145.639648 2183.776855 0.000000 0.000000 1.000000 0 134 206 255
-2034.769897 11484.863281 2183.776855 0.000000 0.000000 1.000000 0 134 206 255
-3009.697754 11484.863281 -816.223145 -0.974928 0.222520 0.000000 0 134 206 255
-3009.697754 11484.863281 2183.776855 -0.974928 0.222520 0.000000 0 134 206 255
-2913.149658 11907.869141 2183.776855 -0.974928 0.222520 0.000000 0 134 206 255
-2913.149658 11907.869141 -816.223145 -0.974928 0.222520 0.000000 0 134 206 255
-2913.149658 11907.869141 -816.223145 -0.433883 0.900969 0.000000 0 134 206 255
-2913.149658 11907.869141 2183.776855 -0.433883 0.900969 0.000000 0 134 206 255
-2522.233887 12096.124023 2183.776855 -0.433883 0.900969 0.000000 0 134 206 255
-2522.233887 12096.124023 -816.223145 -0.433883 0.900969 0.000000 0 134 206 255
-2522.233887 12096.124023 -816.223145 0.000000 0.000000 -1.000000 0 134 206 255
-2131.318115 11907.869141 -816.223145 0.000000 0.000000 -1.000000 0 134 206 255
-2034.769897 11484.863281 -816.223145 0.000000 0.000000 -1.000000 0 134 206 255
-2305.291992 11145.639648 -816.223145 0.000000 0.000000 -1.000000 0 134 206 255
-2739.175781 11145.639648 -816.223145 0.000000 0.000000 -1.000000 0 134 206 255
-3009.697754 11484.863281 -816.223145 0.000000 0.000000 -1.000000 0 134 206 255
-2913.149658 11907.869141 -816.223145 0.000000 0.000000 -1.000000 0 134 206 255
2522.229980 12096.124023 -816.223145 0.433883 0.900969 0.000000 0 134 206 255
2522.229980 12096.124023 2183.776855 0.433883 0.900969 0.000000 0 134 206 255
2913.145752 11907.869141 2183.776855 0.433883 0.900969 0.000000 0 134 206 255
2913.145752 11907.869141 -816.223145 0.433883 0.900969 0.000000 0 134 206 255
2913.145752 11907.869141 -816.223145 0.974928 0.222520 0.000000 0 134 206 255
2913.145752 11907.869141 2183.776855 0.974928 0.222520 0.000000 0 134 206 255
3009.693848 11484.863281 2183.776855 0.974928 0.222520 0.000000 0 134 206 255
3009.693848 11484.863281 -816.223145 0.974928 0.222520 0.000000 0 134 206 255
3009.693848 11484.863281 -816.223145 0.781831 -0.623490 0.000000 0 134 206 255
3009.693848 11484.863281 2183.776855 0.781831 -0.623490 0.000000 0 134 206 255
2739.171875 11145.639648 2183.776855 0.781831 -0.623490 0.000000 0 134 206 255
2739.171875 11145.639648 -816.223145 0.781831 -0.623490 0.000000 0 134 206 255
2739.171875 11145.639648 -816.223145 0.000000 -1.000000 0.000000 0 134 206 255
2739.171875 11145.639648 2183.776855 0.000000 -1.000000 0.000000 0 134 206 255
2305.288086 11145.639648 2183.776855 0.000000 -1.000000 0.000000 0 134 206 255
2305.288086 11145.639648 -816.223145 0.000000 -1.000000 0.000000 0 134 206 255
2305.288086 11145.639648 -816.223145 -0.781831 -0.623490 0.000000 0 134 206 255
2305.288086 11145.639648 2183.776855 -0.781831 -0.623490 0.000000 0 134 206 255
2034.766113 11484.863281 2183.776855 -0.781831 -0.623490 0.000000 0 134 206 255
2034.766113 11484.863281 -816.223145 -0.781831 -0.623490 0.000000 0 134 206 255
2913.145752 11907.869141 2183.776855 0.000000 0.000000 1.000000 0 134 206 255
2522.229980 12096.124023 2183.776855 0.000000 0.000000 1.000000 0 134 206 255
2131.314209 11907.869141 2183.776855 0.000000 0.000000 1.000000 0 134 206 255
2034.766113 11484.863281 2183.776855 0.000000 0.000000 1.000000 0 134 206 255
2305.288086 11145.639648 2183.776855 0.000000 0.000000 1.000000 0 134 206 255
2739.171875 11145.639648 2183.776855 0.000000 0.000000 1.000000 0 134 206 255
3009.693848 11484.863281 2183.776855 0.000000 0.000000 1.000000 0 134 206 255
2034.766113 11484.863281 -816.223145 -0.974928 0.222520 0.000000 0 134 206 255
2034.766113 11484.863281 2183.776855 -0.974928 0.222520 0.000000 0 134 206 255
2131.314209 11907.869141 2183.776855 -0.974928 0.222520 0.000000 0 134 206 255
2131.314209 11907.869141 -816.223145 -0.974928 0.222520 0.000000 0 134 206 255
2131.314209 11907.869141 -816.223145 -0.433883 0.900969 0.000000 0 134 206 255
2131.314209 11907.869141 2183.776855 -0.433883 0.900969 0.000000 0 134 206 255
2522.229980 12096.124023 2183.776855 -0.433883 0.900969 0.000000 0 134 206 255
2522.229980 12096.124023 -816.223145 -0.433883 0.900969 0.000000 0 134 206 255
2522.229980 12096.124023 -816.223145 0.000000 0.000000 -1.000000 0 134 206 255
2913.145752 11907.869141 -816.223145 0.000000 0.000000 -1.000000 0 134 206 255
3009.693848 11484.863281 -816.223145 0.000000 0.000000 -1.000000 0 134 206 255
2739.171875 11145.639648 -816.223145 0.000000 0.000000 -1.000000 0 134 206 255
2305.288086 11145.639648 -816.223145 0.000000 0.000000 -1.000000 0 134 206 255
2034.766113 11484.863281 -816.223145 0.000000 0.000000 -1.000000 0 134 206 255
2131.314209 11907.869141 -816.223145 0.000000 0.000000 -1.000000 0 134 206 255
-16182.215820 15932.215820 -680.000000 0.000000 -0.073712 0.997280 0 255 250 255
16182.215820 15932.215820 -680.000000 0.000000 -0.073712 0.997280 0 255 250 255
28506.935547 25132.214844 0.000000 0.000000 -0.073712 0.997280 0 255 250 255
-28506.935547 25132.214844 0.000000 0.000000 -0.073712 0.997280 0 255 250 255
-28506.935547 25132.214844 0.000000 0.000000 -1.000000 -0.000000 0 147 148 255
28506.935547 25132.214844 0.000000 0.000000 -1.000000 -0.000000 0 147 148 255
28506.935547 25132.214844 9000.000000 0.000000 -1.000000 -0.000000 0 0 0 255
-28506.935547 25132.214844 9000.000000 0.000000 -1.000000 -0.000000 0 0 0 255
4 0 1 2 3
4 4 5 6 7
4 8 9 10 11
4 12 13 14 15
4 16 17 18 19
4 19 18 20 21
4 22 23 24 25
4 7 6 26 27
4 28 29 30 31
4 32 33 34 35
4 21 20 36 37
4 38 39 40 41
4 27 26 42 43
4 44 45 46 47
4 48 49 50 51
4 37 36 52 53
4 54 55 56 57
4 43 42 58 59
4 60 61 62 63
4 64 65 66 67
4 53 52 68 69
4 70 71 72 73
4 59 58 74 75
4 76 77 78 79
4 80 81 82 83
4 84 85 86 87
4 88 89 90 91
4 92 93 94 95
4 96 97 98 99
4 100 101 102 103
4 104 105 106 107
7 108 109 110 111 112 113 114
4 115 116 117 118
4 119 120 121 122
7 123 124 125 126 127 128 129
4 130 131 132 133
4 134 135 136 137
4 138 139 140 141
4 142 143 144 145
4 146 147 148 149
7 150 151 152 153 154 155 156
4 157 158 159 160
4 161 162 163 164
7 165 166 167 168 169 170 171
4 172 173 174 175
4 176 177 178 179
4 180 181 182 183
4 184 185 186 187
4 188 189 190 191
7 192 193 194 195 196 197 198
4 199 200 201 202
4 203 204 205 206
7 207 208 209 210 211 212 213
4 214 215 216 217
4 218 219 220 221
4 222 223 224 225
4 226 227 228 229
4 230 231 232 233
7 234 235 236 237 238 239 240
4 241 242 243 244
4 245 246 247 248
7 249 250 251 252 253 254 255
4 256 257 258 259
4 260 261 262 263
4 264 265 266 267
4 268 269 270 271
4 272 273 274 275
7 276 277 278 279 280 281 282
4 283 284 285 286
4 287 288 289 290
7 291 292 293 294 295 296 297
4 298 299 300 301
4 302 303 304 305
4 306 307 308 309
4 310 311 312 313
4 314 315 316 317
7 318 319 320 321 322 323 324
4 325 326 327 328
4 329 330 331 332
7 333 334 335 336 337 338 339
4 340 341 342 343
4 344 345 346 347
