ply
format ascii 1.0
comment Created by Blender 2.93.4 - www.blender.org
element vertex 254
property float x
property float y
property float z
property float nx
property float ny
property float nz
property uchar red
property uchar green
property uchar blue
property uchar alpha
element face 78
property list uchar uint vertex_indices
end_header
-320.000000 0.000000 100.000000 -0.000000 0.000000 -1.000000 167 140 55 255
-200.000000 300.000000 100.000000 -0.000000 0.000000 -1.000000 167 140 55 255
-200.000000 0.000000 100.000000 -0.000000 0.000000 -1.000000 167 140 55 255
-160.000000 0.000000 80.000000 -0.447214 0.000000 -0.894427 167 140 55 255
-200.000000 0.000000 100.000000 -0.447214 0.000000 -0.894427 167 140 55 255
-200.000000 300.000000 100.000000 -0.447214 0.000000 -0.894427 167 140 55 255
-160.000000 300.000000 80.000000 -0.447214 0.000000 -0.894427 167 140 55 255
80.000000 0.000000 -20.000000 -0.447214 0.000000 -0.894427 167 140 55 255
40.000000 0.000000 0.000000 -0.447214 0.000000 -0.894427 167 140 55 255
40.000000 300.000000 0.000000 -0.447214 0.000000 -0.894427 167 140 55 255
80.000000 300.000000 -20.000000 -0.447214 0.000000 -0.894427 167 140 55 255
140.000000 0.000000 -20.000000 0.000000 -0.000000 -1.000000 167 140 55 255
80.000000 0.000000 -20.000000 0.000000 -0.000000 -1.000000 167 140 55 255
80.000000 300.000000 -20.000000 0.000000 -0.000000 -1.000000 167 140 55 255
140.000000 300.000000 -20.000000 0.000000 -0.000000 -1.000000 167 140 55 255
40.000000 0.000000 0.000000 0.000000 -0.000000 -1.000000 167 140 55 255
-40.000000 0.000000 0.000000 0.000000 -0.000000 -1.000000 167 140 55 255
-40.000000 300.000000 0.000000 0.000000 -0.000000 -1.000000 167 140 55 255
40.000000 300.000000 0.000000 0.000000 -0.000000 -1.000000 167 140 55 255
160.000000 0.000000 40.000000 0.948683 0.000000 -0.316228 167 140 55 255
140.000000 0.000000 -20.000000 0.948683 0.000000 -0.316228 167 140 55 255
140.000000 300.000000 -20.000000 0.948683 0.000000 -0.316228 167 140 55 255
160.000000 300.000000 40.000000 0.948683 0.000000 -0.316228 167 140 55 255
-40.000000 0.000000 0.000000 0.447214 0.000000 -0.894427 167 140 55 255
-80.000000 0.000000 -20.000000 0.447214 0.000000 -0.894427 167 140 55 255
-80.000000 300.000000 -20.000000 0.447214 0.000000 -0.894427 167 140 55 255
-40.000000 300.000000 0.000000 0.447214 0.000000 -0.894427 167 140 55 255
160.000000 0.000000 80.000000 1.000000 0.000000 0.000000 167 140 55 255
160.000000 0.000000 40.000000 1.000000 0.000000 0.000000 167 140 55 255
160.000000 300.000000 40.000000 1.000000 0.000000 0.000000 167 140 55 255
160.000000 300.000000 80.000000 1.000000 0.000000 0.000000 167 140 55 255
-80.000000 0.000000 -20.000000 0.000000 -0.000000 -1.000000 167 140 55 255
-140.000000 0.000000 -20.000000 0.000000 -0.000000 -1.000000 167 140 55 255
-140.000000 300.000000 -20.000000 0.000000 -0.000000 -1.000000 167 140 55 255
-80.000000 300.000000 -20.000000 0.000000 -0.000000 -1.000000 167 140 55 255
200.000000 0.000000 100.000000 0.447214 0.000000 -0.894427 167 140 55 255
160.000000 0.000000 80.000000 0.447214 0.000000 -0.894427 167 140 55 255
160.000000 300.000000 80.000000 0.447214 0.000000 -0.894427 167 140 55 255
200.000000 300.000000 100.000000 0.447214 0.000000 -0.894427 167 140 55 255
-140.000000 0.000000 -20.000000 -0.948683 0.000000 -0.316228 167 140 55 255
-160.000000 0.000000 40.000000 -0.948683 0.000000 -0.316228 167 140 55 255
-160.000000 300.000000 40.000000 -0.948683 0.000000 -0.316228 167 140 55 255
-140.000000 300.000000 -20.000000 -0.948683 0.000000 -0.316228 167 140 55 255
320.000000 0.000000 100.000000 0.164045 0.065618 -0.984268 167 140 55 255
200.000000 300.000000 100.000000 0.164045 0.065618 -0.984268 167 140 55 255
320.000000 300.000000 120.000000 0.164045 0.065618 -0.984268 167 140 55 255
-160.000000 0.000000 40.000000 -1.000000 -0.000000 0.000000 167 140 55 255
-160.000000 0.000000 80.000000 -1.000000 -0.000000 0.000000 167 140 55 255
-160.000000 300.000000 80.000000 -1.000000 -0.000000 0.000000 167 140 55 255
-160.000000 300.000000 40.000000 -1.000000 -0.000000 0.000000 167 140 55 255
80.000000 300.000000 -20.000000 -0.242409 0.032321 -0.969636 167 140 55 255
40.000000 300.000000 0.000000 -0.242409 0.032321 -0.969636 167 140 55 255
40.000000 600.000000 -0.000004 -0.242409 0.032321 -0.969636 167 140 55 255
80.000000 600.000000 -0.000004 -0.242409 0.032321 -0.969636 167 140 55 255
140.000000 300.000000 -20.000000 0.000000 0.066519 -0.997785 167 140 55 255
80.000000 300.000000 -20.000000 0.000000 0.066519 -0.997785 167 140 55 255
80.000000 600.000000 -0.000004 0.000000 0.066519 -0.997785 167 140 55 255
140.000000 600.000000 -0.000004 0.000000 0.066519 -0.997785 167 140 55 255
-40.000000 600.000000 -0.000004 0.000000 -0.000000 -1.000000 167 140 55 255
-20.000000 600.000000 -0.000004 0.000000 -0.000000 -1.000000 167 140 55 255
0.000000 600.000000 -0.000004 0.000000 -0.000000 -1.000000 167 140 55 255
20.000000 600.000000 -0.000004 0.000000 -0.000000 -1.000000 167 140 55 255
40.000000 600.000000 -0.000004 0.000000 -0.000000 -1.000000 167 140 55 255
140.000000 300.000000 -20.000000 0.947841 -0.042126 -0.315947 167 140 55 255
160.000000 600.000000 -0.000004 0.947841 -0.042126 -0.315947 167 140 55 255
160.000000 300.000000 40.000000 0.947841 -0.042126 -0.315947 167 140 55 255
-40.000000 300.000000 0.000000 0.242409 0.032321 -0.969636 167 140 55 255
-80.000000 300.000000 -20.000000 0.242409 0.032321 -0.969636 167 140 55 255
-80.000000 600.000000 -0.000004 0.242409 0.032321 -0.969636 167 140 55 255
-40.000000 600.000000 -0.000004 0.242409 0.032321 -0.969636 167 140 55 255
160.000000 600.000000 -0.000004 1.000000 0.000000 -0.000000 167 140 55 255
-80.000000 300.000000 -20.000000 0.000000 0.066519 -0.997785 167 140 55 255
-140.000000 300.000000 -20.000000 0.000000 0.066519 -0.997785 167 140 55 255
-140.000000 600.000000 -0.000004 0.000000 0.066519 -0.997785 167 140 55 255
-80.000000 600.000000 -0.000004 0.000000 0.066519 -0.997785 167 140 55 255
200.000000 300.000000 100.000000 0.232873 -0.279448 -0.931493 167 140 55 255
160.000000 300.000000 80.000000 0.232873 -0.279448 -0.931493 167 140 55 255
160.000000 600.000000 -0.000004 0.232873 -0.279448 -0.931493 167 140 55 255
200.000000 600.000000 -0.000004 0.232873 -0.279448 -0.931493 167 140 55 255
-160.000000 600.000000 -0.000004 0.000000 0.066519 -0.997785 167 140 55 255
320.000000 300.000000 120.000000 0.078001 -0.343206 -0.936016 167 140 55 255
200.000000 300.000000 100.000000 0.078001 -0.343206 -0.936016 167 140 55 255
200.000000 600.000000 -0.000004 0.078001 -0.343206 -0.936016 167 140 55 255
320.000000 600.000000 -0.000008 0.078001 -0.343206 -0.936016 167 140 55 255
-160.000000 600.000000 -0.000004 -1.000000 -0.000000 -0.000000 167 140 55 255
-200.000000 300.000000 100.000000 -0.078001 -0.343206 -0.936016 167 140 55 255
-320.000000 300.000000 120.000000 -0.078001 -0.343206 -0.936016 167 140 55 255
-320.000000 600.000000 -0.000008 -0.078001 -0.343206 -0.936016 167 140 55 255
-200.000000 600.000000 -0.000004 -0.078001 -0.343206 -0.936016 167 140 55 255
-160.000000 300.000000 80.000000 -0.232873 -0.279448 -0.931493 167 140 55 255
-200.000000 300.000000 100.000000 -0.232873 -0.279448 -0.931493 167 140 55 255
-200.000000 600.000000 -0.000004 -0.232873 -0.279448 -0.931493 167 140 55 255
-160.000000 600.000000 -0.000004 -0.232873 -0.279448 -0.931493 167 140 55 255
320.000000 300.000000 120.000000 -0.056566 -0.237833 -0.969657 167 140 55 255
320.000000 600.000000 -0.000008 -0.056566 -0.237833 -0.969657 167 140 55 255
1115.683105 600.000000 -0.000008 -0.056566 -0.237833 -0.969657 167 140 55 255
889.222168 300.000000 40.376244 -0.056566 -0.237833 -0.969657 167 140 55 255
320.000000 0.000000 100.000000 -0.141831 0.072908 -0.987202 167 140 55 255
320.000000 300.000000 120.000000 -0.141831 0.072908 -0.987202 167 140 55 255
889.222168 300.000000 40.376244 -0.141831 0.072908 -0.987202 167 140 55 255
720.000000 0.000000 40.376244 -0.141831 0.072908 -0.987202 167 140 55 255
-320.000000 600.000000 -0.000008 0.056566 -0.237833 -0.969657 167 140 55 255
-320.000000 300.000000 120.000000 0.056566 -0.237833 -0.969657 167 140 55 255
-889.222168 300.000000 40.376244 0.056566 -0.237833 -0.969657 167 140 55 255
-1115.683105 600.000000 -0.000008 0.056566 -0.237833 -0.969657 167 140 55 255
-320.000000 300.000000 120.000000 0.141831 0.072908 -0.987202 167 140 55 255
-320.000000 0.000000 100.000000 0.141831 0.072908 -0.987202 167 140 55 255
-720.000000 0.000000 40.376244 0.141831 0.072908 -0.987202 167 140 55 255
-889.222168 300.000000 40.376244 0.141831 0.072908 -0.987202 167 140 55 255
-320.000000 600.000000 -0.000008 0.000000 -0.000000 -1.000000 167 140 55 255
-1115.683105 600.000000 -0.000008 0.000000 -0.000000 -1.000000 167 140 55 255
-2129.251221 1800.000000 -0.000015 0.000000 -0.000000 -1.000000 167 140 55 255
-200.000000 600.000000 -0.000004 0.000000 0.000000 -1.000000 167 140 55 255
-160.000000 600.000000 -0.000004 0.000000 -0.000000 -1.000000 167 140 55 255
1115.683105 600.000000 -0.000008 0.000000 -0.000000 -1.000000 167 140 55 255
320.000000 600.000000 -0.000008 0.000000 -0.000000 -1.000000 167 140 55 255
2034.159790 1800.000000 -0.000015 0.000000 -0.000000 -1.000000 167 140 55 255
200.000000 600.000000 -0.000004 -0.000000 0.000000 -1.000000 167 140 55 255
160.000000 600.000000 -0.000004 0.000000 -0.000000 -1.000000 167 140 55 255
-140.000000 600.000000 -0.000004 0.000000 -0.000000 -1.000000 167 140 55 255
140.000000 600.000000 -0.000004 0.000000 -0.000000 -1.000000 167 140 55 255
-619.326477 1500.115356 11.314882 0.012597 0.025710 -0.999590 167 140 55 255
-1238.702026 1500.000000 -0.000007 0.012597 0.025710 -0.999590 167 140 55 255
-2129.251221 1800.000000 -0.000015 0.012597 0.025710 -0.999590 167 140 55 255
-1088.410522 1800.201782 9.615219 0.012597 0.025710 -0.999590 167 140 55 255
439.567352 900.000000 -0.000005 -0.000000 0.000000 -1.000000 167 140 55 255
839.134705 1200.000000 -0.000006 -0.000000 0.000000 -1.000000 167 140 55 255
1238.702026 1500.000000 -0.000007 -0.000000 0.000000 -1.000000 167 140 55 255
80.000000 600.000000 -0.000004 -0.000000 0.000000 -1.000000 167 140 55 255
-80.000000 600.000000 -0.000004 0.000000 0.000000 -1.000000 167 140 55 255
-1238.702026 1500.000000 -0.000007 0.000000 0.000000 -1.000000 167 140 55 255
-839.134705 1200.000000 -0.000006 0.000000 0.000000 -1.000000 167 140 55 255
-439.567352 900.000000 -0.000005 0.000000 0.000000 -1.000000 167 140 55 255
1238.702026 1500.000000 -0.000007 -0.012599 0.021721 -0.999685 167 140 55 255
619.326477 1500.115356 11.314882 -0.012599 0.021721 -0.999685 167 140 55 255
993.318970 1800.201782 9.615219 -0.012599 0.021721 -0.999685 167 140 55 255
2034.159790 1800.000000 -0.000015 -0.012599 0.021721 -0.999685 167 140 55 255
619.326477 1500.115356 11.314882 0.005255 -0.026031 -0.999647 167 140 55 255
0.000000 1500.140869 12.206693 0.005255 -0.026031 -0.999647 167 140 55 255
-47.545731 1800.000000 -0.000015 0.005255 -0.026031 -0.999647 167 140 55 255
993.318970 1800.201782 9.615219 0.005255 -0.026031 -0.999647 167 140 55 255
0.000000 1500.140869 12.206693 -0.005255 -0.027696 -0.999603 167 140 55 255
-619.326477 1500.115356 11.314882 -0.005255 -0.027696 -0.999603 167 140 55 255
-1088.410522 1800.201782 9.615219 -0.005255 -0.027696 -0.999603 167 140 55 255
-47.545731 1800.000000 -0.000015 -0.005255 -0.027696 -0.999603 167 140 55 255
219.783676 900.000000 -0.000005 0.000000 -0.000000 -1.000000 167 140 55 255
439.567352 900.000000 -0.000005 -0.068378 0.141166 -0.987622 167 140 55 255
219.783676 900.000000 -0.000005 -0.068378 0.141166 -0.987622 167 140 55 255
420.023438 1198.968872 44.086468 -0.068378 0.141166 -0.987622 167 140 55 255
839.134705 1200.000000 -0.000006 -0.068378 0.141166 -0.987622 167 140 55 255
839.134705 1200.000000 -0.000006 -0.053271 -0.001368 -0.998579 167 140 55 255
420.023438 1198.968872 44.086468 -0.053271 -0.001368 -0.998579 167 140 55 255
619.326477 1500.115356 11.314882 -0.053271 -0.001368 -0.998579 167 140 55 255
1238.702026 1500.000000 -0.000007 -0.053271 -0.001368 -0.998579 167 140 55 255
0.000000 900.000000 -0.000005 0.000000 -0.000000 -1.000000 167 140 55 255
219.783676 900.000000 -0.000005 0.027154 0.108390 -0.993738 167 140 55 255
0.000000 900.000000 -0.000005 0.027154 0.108390 -0.993738 167 140 55 255
0.000000 1199.639160 26.676811 0.027154 0.108390 -0.993738 167 140 55 255
420.023438 1198.968872 44.086468 0.027154 0.108390 -0.993738 167 140 55 255
420.023438 1198.968872 44.086468 0.015779 -0.083464 -0.996386 167 140 55 255
0.000000 1199.639160 26.676811 0.015779 -0.083464 -0.996386 167 140 55 255
0.000000 1500.140869 12.206693 0.015779 -0.083464 -0.996386 167 140 55 255
619.326477 1500.115356 11.314882 0.015779 -0.083464 -0.996386 167 140 55 255
-219.783676 900.000000 -0.000005 0.000000 -0.000000 -1.000000 167 140 55 255
0.000000 900.000000 -0.000005 -0.027154 0.108390 -0.993738 167 140 55 255
-219.783676 900.000000 -0.000005 -0.027154 0.108390 -0.993738 167 140 55 255
-420.023438 1198.968872 44.086468 -0.027154 0.108390 -0.993738 167 140 55 255
0.000000 1199.639160 26.676811 -0.027154 0.108390 -0.993738 167 140 55 255
0.000000 1199.639160 26.676811 -0.015779 -0.083464 -0.996386 167 140 55 255
-420.023438 1198.968872 44.086468 -0.015779 -0.083464 -0.996386 167 140 55 255
-619.326477 1500.115356 11.314882 -0.015779 -0.083464 -0.996386 167 140 55 255
0.000000 1500.140869 12.206693 -0.015779 -0.083464 -0.996386 167 140 55 255
-219.783676 900.000000 -0.000005 0.068378 0.141166 -0.987622 167 140 55 255
-439.567352 900.000000 -0.000005 0.068378 0.141166 -0.987622 167 140 55 255
-839.134705 1200.000000 -0.000006 0.068378 0.141166 -0.987622 167 140 55 255
-420.023438 1198.968872 44.086468 0.068378 0.141166 -0.987622 167 140 55 255
-420.023438 1198.968872 44.086468 0.053271 -0.001368 -0.998579 167 140 55 255
-839.134705 1200.000000 -0.000006 0.053271 -0.001368 -0.998579 167 140 55 255
-1238.702026 1500.000000 -0.000007 0.053271 -0.001368 -0.998579 167 140 55 255
-619.326477 1500.115356 11.314882 0.053271 -0.001368 -0.998579 167 140 55 255
2483.640869 3111.268799 519.351685 -0.006305 0.423018 -0.906099 167 140 55 255
-47.104263 3088.796143 554.760437 -0.006305 0.423018 -0.906099 167 140 55 255
0.000000 3741.495605 830.859558 -0.006305 0.423018 -0.906099 167 140 55 255
2576.508057 3739.413818 840.248840 -0.006305 0.423018 -0.906099 167 140 55 255
-2577.305664 3140.577637 466.247192 0.006290 0.538295 -0.842733 167 140 55 255
-5106.598145 3149.492676 444.552979 0.006290 0.538295 -0.842733 167 140 55 255
-5152.957031 3741.495605 830.859558 0.006290 0.538295 -0.842733 167 140 55 255
-2576.508057 3739.413818 840.248840 0.006290 0.538295 -0.842733 167 140 55 255
5011.506836 3149.492432 444.552917 -0.018222 0.503996 -0.863514 167 140 55 255
2483.640869 3111.268799 519.351685 -0.018222 0.503996 -0.863514 167 140 55 255
2576.508057 3739.413818 840.248840 -0.018222 0.503996 -0.863514 167 140 55 255
5152.957031 3741.495605 830.859558 -0.018222 0.503996 -0.863514 167 140 55 255
-47.104263 3088.796143 554.760437 0.018232 0.460337 -0.887557 167 140 55 255
-2577.305664 3140.577637 466.247192 0.018232 0.460337 -0.887557 167 140 55 255
-2576.508057 3739.413818 840.248840 0.018232 0.460337 -0.887557 167 140 55 255
0.000000 3741.495605 830.859558 0.018232 0.460337 -0.887557 167 140 55 255
-47.545731 1800.000000 -0.000015 0.000231 0.294373 -0.955691 167 140 55 255
-1088.410522 1800.201782 9.615219 0.000231 0.294373 -0.955691 167 140 55 255
-1834.895386 2485.327637 210.663071 0.000231 0.294373 -0.955691 167 140 55 255
-47.545731 2483.520996 220.343872 0.000231 0.294373 -0.955691 167 140 55 255
-47.545731 2483.520996 220.343872 0.025871 0.436230 -0.899463 167 140 55 255
-1834.895386 2485.327637 210.663071 0.025871 0.436230 -0.899463 167 140 55 255
-2577.305664 3140.577637 466.247192 0.025871 0.436230 -0.899463 167 140 55 255
-47.104263 3088.796143 554.760437 0.025871 0.436230 -0.899463 167 140 55 255
2034.159790 1800.000000 -0.000015 0.001101 0.200143 -0.979766 167 140 55 255
993.318970 1800.201782 9.615219 0.001101 0.200143 -0.979766 167 140 55 255
1737.664185 2510.150391 144.733948 0.001101 0.200143 -0.979766 167 140 55 255
3523.402588 2502.149414 155.851028 0.001101 0.200143 -0.979766 167 140 55 255
3523.402588 2502.149414 155.851028 -0.016298 0.491722 -0.870600 167 140 55 255
1737.664185 2510.150391 144.733948 -0.016298 0.491722 -0.870600 167 140 55 255
2483.640869 3111.268799 519.351685 -0.016298 0.491722 -0.870600 167 140 55 255
5011.506836 3149.492432 444.552917 -0.016298 0.491722 -0.870600 167 140 55 255
-1088.410522 1800.201782 9.615219 0.031476 0.281300 -0.959104 167 140 55 255
-2129.251221 1800.000000 -0.000015 0.031476 0.281300 -0.959104 167 140 55 255
-3617.924805 2511.432373 135.202454 0.031476 0.281300 -0.959104 167 140 55 255
-1834.895386 2485.327637 210.663071 0.031476 0.281300 -0.959104 167 140 55 255
-1834.895386 2485.327637 210.663071 0.023813 0.434391 -0.900410 167 140 55 255
-3617.924805 2511.432373 135.202454 0.023813 0.434391 -0.900410 167 140 55 255
-5106.598145 3149.492676 444.552979 0.023813 0.434391 -0.900410 167 140 55 255
-2577.305664 3140.577637 466.247192 0.023813 0.434391 -0.900410 167 140 55 255
993.318970 1800.201782 9.615219 -0.025009 0.259621 -0.965387 167 140 55 255
-47.545731 1800.000000 -0.000015 -0.025009 0.259621 -0.965387 167 140 55 255
-47.545731 2483.520996 220.343872 -0.025009 0.259621 -0.965387 167 140 55 255
1737.664185 2510.150391 144.733948 -0.025009 0.259621 -0.965387 167 140 55 255
1737.664185 2510.150391 144.733948 -0.027879 0.519264 -0.854159 167 140 55 255
-47.545731 2483.520996 220.343872 -0.027879 0.519264 -0.854159 167 140 55 255
-47.104263 3088.796143 554.760437 -0.027879 0.519264 -0.854159 167 140 55 255
2483.640869 3111.268799 519.351685 -0.027879 0.519264 -0.854159 167 140 55 255
160.000000 600.000000 -0.000004 0.000000 0.066519 -0.997785 167 140 55 255
-140.000000 300.000000 -20.000000 -0.947841 -0.042126 -0.315947 167 140 55 255
-160.000000 300.000000 40.000000 -0.947841 -0.042126 -0.315947 167 140 55 255
-160.000000 600.000000 -0.000004 -0.947841 -0.042126 -0.315947 167 140 55 255
2576.508057 3739.413818 840.248840 0.000808 1.000000 0.000000 160 58 255 255
0.000000 3741.495605 830.859558 0.000808 1.000000 0.000000 160 58 255 255
0.000000 3741.495605 3627.456055 0.000808 1.000000 0.000000 0 0 0 255
2576.508057 3739.413818 3636.845215 0.000808 1.000000 0.000000 0 0 0 255
-2576.508057 3739.413818 840.248840 0.000808 1.000000 0.000000 160 58 255 255
-5152.957031 3741.495605 830.859558 0.000808 1.000000 0.000000 160 58 255 255
-5152.957031 3741.495605 3627.456055 0.000808 1.000000 0.000000 0 0 0 255
-2576.508057 3739.413818 3636.845215 0.000808 1.000000 0.000000 0 0 0 255
0.000000 3741.495605 830.859558 -0.000808 1.000000 0.000000 160 58 255 255
-2576.508057 3739.413818 840.248840 -0.000808 1.000000 0.000000 160 58 255 255
-2576.508057 3739.413818 3636.845215 -0.000808 1.000000 0.000000 0 0 0 255
0.000000 3741.495605 3627.456055 -0.000808 1.000000 0.000000 0 0 0 255
5152.957031 3741.495605 830.859558 -0.000808 1.000000 0.000000 160 58 255 255
2576.508057 3739.413818 840.248840 -0.000808 1.000000 0.000000 160 58 255 255
2576.508057 3739.413818 3636.845215 -0.000808 1.000000 0.000000 0 0 0 255
5152.957031 3741.495605 3627.456055 -0.000808 1.000000 0.000000 0 0 0 255
-320.000000 0.000000 100.000000 -0.164045 0.065618 -0.984268 167 140 55 255
-320.000000 300.000000 120.000000 -0.164045 0.065618 -0.984268 167 140 55 255
-200.000000 300.000000 100.000000 -0.164045 0.065618 -0.984268 167 140 55 255
320.000000 0.000000 100.000000 0.000000 0.000000 -1.000000 167 140 55 255
200.000000 0.000000 100.000000 0.000000 0.000000 -1.000000 167 140 55 255
200.000000 300.000000 100.000000 0.000000 0.000000 -1.000000 167 140 55 255
3 0 1 2
4 3 4 5 6
4 7 8 9 10
4 11 12 13 14
4 15 16 17 18
4 19 20 21 22
4 23 24 25 26
4 27 28 29 30
4 31 32 33 34
4 35 36 37 38
4 39 40 41 42
3 43 44 45
4 46 47 48 49
4 50 51 52 53
4 54 55 56 57
7 18 17 58 59 60 61 62
3 63 64 65
4 66 67 68 69
3 30 29 70
4 71 72 73 74
4 75 76 77 78
3 72 79 73
4 80 81 82 83
3 49 48 84
4 85 86 87 88
4 89 90 91 92
4 93 94 95 96
4 97 98 99 100
4 101 102 103 104
4 105 106 107 108
3 109 110 111
3 109 111 112
3 112 111 113
3 114 115 116
3 117 116 115
3 118 116 117
3 113 111 119
3 120 116 118
4 121 122 123 124
6 62 125 126 127 116 128
3 128 116 120
6 129 111 130 131 132 58
3 119 111 129
4 133 134 135 136
4 137 138 139 140
4 141 142 143 144
4 62 61 145 125
4 146 147 148 149
4 150 151 152 153
4 61 60 154 145
4 155 156 157 158
4 159 160 161 162
4 60 59 163 154
4 164 165 166 167
4 168 169 170 171
4 59 58 132 163
4 172 173 174 175
4 176 177 178 179
4 180 181 182 183
4 184 185 186 187
4 188 189 190 191
4 192 193 194 195
4 196 197 198 199
4 200 201 202 203
4 204 205 206 207
4 208 209 210 211
4 212 213 214 215
4 216 217 218 219
4 220 221 222 223
4 224 225 226 227
3 54 57 228
3 229 230 231
4 232 233 234 235
4 236 237 238 239
4 240 241 242 243
4 244 245 246 247
3 248 249 250
3 251 252 253
