ply
format ascii 1.0
comment Created by Blender 2.93.5 - www.blender.org
element vertex 533
property float x
property float y
property float z
property float nx
property float ny
property float nz
property uchar red
property uchar green
property uchar blue
property uchar alpha
element face 135
property list uchar uint vertex_indices
end_header
-160.000000 0.000000 80.000000 1.000000 0.000000 0.000000 70 112 66 255
-160.000000 0.000000 40.000000 1.000000 0.000000 0.000000 70 112 66 255
-160.000000 30.000000 40.000000 1.000000 0.000000 0.000000 70 112 66 255
-160.000000 30.000000 80.000000 1.000000 0.000000 0.000000 70 112 66 255
160.000000 0.000000 80.000000 -0.948683 0.000000 -0.316228 70 112 66 255
140.000000 0.000000 140.000000 -0.948683 0.000000 -0.316228 70 112 66 255
140.000000 30.000000 140.000000 -0.948683 0.000000 -0.316228 70 112 66 255
160.000000 30.000000 80.000000 -0.948683 0.000000 -0.316228 70 112 66 255
-160.000000 0.000000 40.000000 0.948683 0.000000 0.316228 70 112 66 255
-140.000000 0.000000 -20.000000 0.948683 0.000000 0.316228 70 112 66 255
-140.000000 30.000000 -20.000000 0.948683 0.000000 0.316228 70 112 66 255
-160.000000 30.000000 40.000000 0.948683 0.000000 0.316228 70 112 66 255
140.000000 0.000000 140.000000 0.000000 -0.000000 -1.000000 70 112 66 255
80.000000 0.000000 140.000000 0.000000 -0.000000 -1.000000 70 112 66 255
80.000000 30.000000 140.000000 0.000000 -0.000000 -1.000000 70 112 66 255
140.000000 30.000000 140.000000 0.000000 -0.000000 -1.000000 70 112 66 255
-140.000000 0.000000 -20.000000 0.000000 0.000000 1.000000 61 112 87 255
-80.000000 0.000000 -20.000000 0.000000 0.000000 1.000000 61 112 87 255
-80.000000 30.000000 -20.000000 0.000000 0.000000 1.000000 61 112 87 255
-140.000000 30.000000 -20.000000 0.000000 0.000000 1.000000 61 112 87 255
80.000000 0.000000 140.000000 0.447214 0.000000 -0.894427 70 112 66 255
40.000000 0.000000 120.000000 0.447214 0.000000 -0.894427 70 112 66 255
40.000000 30.000000 120.000000 0.447214 0.000000 -0.894427 70 112 66 255
80.000000 30.000000 140.000000 0.447214 0.000000 -0.894427 70 112 66 255
160.000000 0.000000 40.000000 -1.000000 -0.000000 0.000000 70 112 66 255
160.000000 0.000000 80.000000 -1.000000 -0.000000 0.000000 70 112 66 255
160.000000 30.000000 80.000000 -1.000000 -0.000000 0.000000 70 112 66 255
160.000000 30.000000 40.000000 -1.000000 -0.000000 0.000000 70 112 66 255
-40.000000 0.000000 0.000000 0.447214 0.000000 -0.894427 70 112 66 255
-80.000000 0.000000 -20.000000 0.447214 0.000000 -0.894427 70 112 66 255
-80.000000 30.000000 -20.000000 0.447214 0.000000 -0.894427 70 112 66 255
-40.000000 30.000000 0.000000 0.447214 0.000000 -0.894427 70 112 66 255
40.000000 0.000000 120.000000 0.000000 -0.000000 -1.000000 70 112 66 255
-40.000000 0.000000 120.000000 0.000000 -0.000000 -1.000000 70 112 66 255
-40.000000 30.000000 120.000000 0.000000 -0.000000 -1.000000 70 112 66 255
40.000000 30.000000 120.000000 0.000000 -0.000000 -1.000000 70 112 66 255
-40.000000 0.000000 0.000000 0.000000 0.000000 1.000000 70 112 66 255
40.000000 0.000000 0.000000 0.000000 0.000000 1.000000 70 112 66 255
40.000000 30.000000 0.000000 0.000000 0.000000 1.000000 70 112 66 255
-40.000000 30.000000 0.000000 0.000000 0.000000 1.000000 70 112 66 255
-40.000000 0.000000 120.000000 -0.447214 0.000000 -0.894427 70 112 66 255
-80.000000 0.000000 140.000000 -0.447214 0.000000 -0.894427 70 112 66 255
-80.000000 30.000000 140.000000 -0.447214 0.000000 -0.894427 70 112 66 255
-40.000000 30.000000 120.000000 -0.447214 0.000000 -0.894427 70 112 66 255
80.000000 0.000000 -20.000000 0.000000 0.000000 1.000000 61 112 87 255
140.000000 0.000000 -20.000000 0.000000 0.000000 1.000000 61 112 87 255
140.000000 30.000000 -20.000000 0.000000 0.000000 1.000000 61 112 87 255
80.000000 30.000000 -20.000000 0.000000 0.000000 1.000000 61 112 87 255
-80.000000 0.000000 140.000000 0.000000 -0.000000 -1.000000 70 112 66 255
-140.000000 0.000000 140.000000 0.000000 -0.000000 -1.000000 70 112 66 255
-140.000000 30.000000 140.000000 0.000000 -0.000000 -1.000000 70 112 66 255
-80.000000 30.000000 140.000000 0.000000 -0.000000 -1.000000 70 112 66 255
140.000000 0.000000 -20.000000 -0.948683 0.000000 0.316228 70 112 66 255
160.000000 0.000000 40.000000 -0.948683 0.000000 0.316228 70 112 66 255
160.000000 30.000000 40.000000 -0.948683 0.000000 0.316228 70 112 66 255
140.000000 30.000000 -20.000000 -0.948683 0.000000 0.316228 70 112 66 255
-140.000000 0.000000 140.000000 0.948683 0.000000 -0.316228 70 112 66 255
-160.000000 0.000000 80.000000 0.948683 0.000000 -0.316228 70 112 66 255
-160.000000 30.000000 80.000000 0.948683 0.000000 -0.316228 70 112 66 255
-140.000000 30.000000 140.000000 0.948683 0.000000 -0.316228 70 112 66 255
40.000000 0.000000 0.000000 0.447214 0.000000 0.894427 70 112 66 255
80.000000 0.000000 -20.000000 0.447214 0.000000 0.894427 70 112 66 255
80.000000 30.000000 -20.000000 0.447214 0.000000 0.894427 70 112 66 255
40.000000 30.000000 0.000000 0.447214 0.000000 0.894427 70 112 66 255
-80.000000 30.000000 140.000000 0.000000 -0.222825 -0.974859 61 112 87 255
-140.000000 30.000000 140.000000 0.000000 -0.222825 -0.974859 61 112 87 255
-112.000000 100.000000 124.000000 0.000000 -0.222825 -0.974859 61 112 87 255
-64.000000 100.000000 124.000000 0.000000 -0.222825 -0.974859 61 112 87 255
140.000000 30.000000 -20.000000 -0.864556 -0.411694 0.288185 70 112 66 255
160.000000 30.000000 40.000000 -0.864556 -0.411694 0.288185 70 112 66 255
128.000000 100.000000 44.000000 -0.864556 -0.411694 0.288185 70 112 66 255
112.000000 100.000000 -4.000000 -0.864556 -0.411694 0.288185 70 112 66 255
-140.000000 30.000000 140.000000 0.864556 -0.411694 -0.288185 70 112 66 255
-160.000000 30.000000 80.000000 0.864556 -0.411694 -0.288185 70 112 66 255
-128.000000 100.000000 76.000000 0.864556 -0.411694 -0.288185 70 112 66 255
-112.000000 100.000000 124.000000 0.864556 -0.411694 -0.288185 70 112 66 255
40.000000 30.000000 0.000000 0.444895 -0.101690 0.889791 70 112 66 255
80.000000 30.000000 -20.000000 0.444895 -0.101690 0.889791 70 112 66 255
64.000000 100.000000 -4.000000 0.444895 -0.101690 0.889791 70 112 66 255
32.000000 100.000000 12.000000 0.444895 -0.101690 0.889791 70 112 66 255
-160.000000 30.000000 80.000000 0.909474 -0.415760 0.000000 70 112 66 255
-160.000000 30.000000 40.000000 0.909474 -0.415760 0.000000 70 112 66 255
-128.000000 100.000000 44.000000 0.909474 -0.415760 0.000000 70 112 66 255
-128.000000 100.000000 76.000000 0.909474 -0.415760 0.000000 70 112 66 255
160.000000 30.000000 80.000000 -0.864556 -0.411694 -0.288185 70 112 66 255
140.000000 30.000000 140.000000 -0.864556 -0.411694 -0.288185 70 112 66 255
112.000000 100.000000 124.000000 -0.864556 -0.411694 -0.288185 70 112 66 255
128.000000 100.000000 76.000000 -0.864556 -0.411694 -0.288185 70 112 66 255
-160.000000 30.000000 40.000000 0.864556 -0.411694 0.288185 70 112 66 255
-140.000000 30.000000 -20.000000 0.864556 -0.411694 0.288185 70 112 66 255
-112.000000 100.000000 -4.000000 0.864556 -0.411694 0.288185 70 112 66 255
-128.000000 100.000000 44.000000 0.864556 -0.411694 0.288185 70 112 66 255
140.000000 30.000000 140.000000 0.000000 -0.222825 -0.974859 61 112 87 255
80.000000 30.000000 140.000000 0.000000 -0.222825 -0.974859 61 112 87 255
64.000000 100.000000 124.000000 0.000000 -0.222825 -0.974859 61 112 87 255
112.000000 100.000000 124.000000 0.000000 -0.222825 -0.974859 61 112 87 255
-140.000000 30.000000 -20.000000 0.000000 -0.222825 0.974859 61 112 87 255
-80.000000 30.000000 -20.000000 0.000000 -0.222825 0.974859 61 112 87 255
-64.000000 100.000000 -4.000000 0.000000 -0.222825 0.974859 61 112 87 255
-112.000000 100.000000 -4.000000 0.000000 -0.222825 0.974859 61 112 87 255
80.000000 30.000000 140.000000 0.444895 -0.101690 -0.889791 70 112 66 255
40.000000 30.000000 120.000000 0.444895 -0.101690 -0.889791 70 112 66 255
32.000000 100.000000 108.000000 0.444895 -0.101690 -0.889791 70 112 66 255
64.000000 100.000000 124.000000 0.444895 -0.101690 -0.889791 70 112 66 255
160.000000 30.000000 40.000000 -0.909474 -0.415760 0.000000 70 112 66 255
160.000000 30.000000 80.000000 -0.909474 -0.415760 0.000000 70 112 66 255
128.000000 100.000000 76.000000 -0.909474 -0.415760 0.000000 70 112 66 255
128.000000 100.000000 44.000000 -0.909474 -0.415760 0.000000 70 112 66 255
-40.000000 30.000000 0.000000 0.444895 0.101690 -0.889791 70 112 66 255
-80.000000 30.000000 -20.000000 0.444895 0.101690 -0.889791 70 112 66 255
-64.000000 100.000000 -4.000000 0.444895 0.101690 -0.889791 70 112 66 255
-32.000000 100.000000 12.000000 0.444895 0.101690 -0.889791 70 112 66 255
40.000000 30.000000 120.000000 0.000000 -0.168964 -0.985622 70 112 66 255
-40.000000 30.000000 120.000000 0.000000 -0.168964 -0.985622 70 112 66 255
-32.000000 100.000000 108.000000 0.000000 -0.168964 -0.985622 70 112 66 255
32.000000 100.000000 108.000000 0.000000 -0.168964 -0.985622 70 112 66 255
-40.000000 30.000000 0.000000 0.000000 -0.168964 0.985622 70 112 66 255
40.000000 30.000000 0.000000 0.000000 -0.168964 0.985622 70 112 66 255
32.000000 100.000000 12.000000 0.000000 -0.168964 0.985622 70 112 66 255
-32.000000 100.000000 12.000000 0.000000 -0.168964 0.985622 70 112 66 255
-40.000000 30.000000 120.000000 -0.444895 -0.101690 -0.889791 70 112 66 255
-80.000000 30.000000 140.000000 -0.444895 -0.101690 -0.889791 70 112 66 255
-64.000000 100.000000 124.000000 -0.444895 -0.101690 -0.889791 70 112 66 255
-32.000000 100.000000 108.000000 -0.444895 -0.101690 -0.889791 70 112 66 255
80.000000 30.000000 -20.000000 0.000000 -0.222825 0.974859 61 112 87 255
140.000000 30.000000 -20.000000 0.000000 -0.222825 0.974859 61 112 87 255
112.000000 100.000000 -4.000000 0.000000 -0.222825 0.974859 61 112 87 255
64.000000 100.000000 -4.000000 0.000000 -0.222825 0.974859 61 112 87 255
128.000000 100.000000 44.000000 -1.000000 -0.000000 0.000000 70 112 66 255
128.000000 100.000000 76.000000 -1.000000 -0.000000 0.000000 70 112 66 255
128.000000 130.000000 76.000000 -1.000000 -0.000000 0.000000 70 112 66 255
128.000000 130.000000 44.000000 -1.000000 -0.000000 0.000000 70 112 66 255
-32.000000 100.000000 12.000000 0.447214 0.000000 -0.894427 70 112 66 255
-64.000000 100.000000 -4.000000 0.447214 0.000000 -0.894427 70 112 66 255
-64.000000 130.000000 -4.000000 0.447214 0.000000 -0.894427 70 112 66 255
-32.000000 130.000000 12.000000 0.447214 0.000000 -0.894427 70 112 66 255
32.000000 100.000000 108.000000 0.000000 -0.000000 -1.000000 70 112 66 255
-32.000000 100.000000 108.000000 0.000000 -0.000000 -1.000000 70 112 66 255
-32.000000 130.000000 108.000000 0.000000 -0.000000 -1.000000 70 112 66 255
32.000000 130.000000 108.000000 0.000000 -0.000000 -1.000000 70 112 66 255
-32.000000 100.000000 12.000000 0.000000 0.000000 1.000000 70 112 66 255
32.000000 100.000000 12.000000 0.000000 0.000000 1.000000 70 112 66 255
32.000000 130.000000 12.000000 0.000000 0.000000 1.000000 70 112 66 255
-32.000000 130.000000 12.000000 0.000000 0.000000 1.000000 70 112 66 255
-32.000000 100.000000 108.000000 -0.447214 0.000000 -0.894427 70 112 66 255
-64.000000 100.000000 124.000000 -0.447214 0.000000 -0.894427 70 112 66 255
-64.000000 130.000000 124.000000 -0.447214 0.000000 -0.894427 70 112 66 255
-32.000000 130.000000 108.000000 -0.447214 0.000000 -0.894427 70 112 66 255
64.000000 100.000000 -4.000000 0.000000 0.000000 1.000000 61 112 87 255
112.000000 100.000000 -4.000000 0.000000 0.000000 1.000000 61 112 87 255
112.000000 130.000000 -4.000000 0.000000 0.000000 1.000000 61 112 87 255
64.000000 130.000000 -4.000000 0.000000 0.000000 1.000000 61 112 87 255
-64.000000 100.000000 124.000000 0.000000 -0.000000 -1.000000 61 112 87 255
-112.000000 100.000000 124.000000 0.000000 -0.000000 -1.000000 61 112 87 255
-112.000000 130.000000 124.000000 0.000000 -0.000000 -1.000000 61 112 87 255
-64.000000 130.000000 124.000000 0.000000 -0.000000 -1.000000 61 112 87 255
112.000000 100.000000 -4.000000 -0.948683 0.000000 0.316228 70 112 66 255
128.000000 100.000000 44.000000 -0.948683 0.000000 0.316228 70 112 66 255
128.000000 130.000000 44.000000 -0.948683 0.000000 0.316228 70 112 66 255
112.000000 130.000000 -4.000000 -0.948683 0.000000 0.316228 70 112 66 255
-112.000000 100.000000 124.000000 0.948683 0.000000 -0.316228 70 112 66 255
-128.000000 100.000000 76.000000 0.948683 0.000000 -0.316228 70 112 66 255
-128.000000 130.000000 76.000000 0.948683 0.000000 -0.316228 70 112 66 255
-112.000000 130.000000 124.000000 0.948683 0.000000 -0.316228 70 112 66 255
32.000000 100.000000 12.000000 0.447214 0.000000 0.894427 70 112 66 255
64.000000 100.000000 -4.000000 0.447214 0.000000 0.894427 70 112 66 255
64.000000 130.000000 -4.000000 0.447214 0.000000 0.894427 70 112 66 255
32.000000 130.000000 12.000000 0.447214 0.000000 0.894427 70 112 66 255
-128.000000 100.000000 76.000000 1.000000 0.000000 0.000000 70 112 66 255
-128.000000 100.000000 44.000000 1.000000 0.000000 0.000000 70 112 66 255
-128.000000 130.000000 44.000000 1.000000 0.000000 0.000000 70 112 66 255
-128.000000 130.000000 76.000000 1.000000 0.000000 0.000000 70 112 66 255
128.000000 100.000000 76.000000 -0.948683 0.000000 -0.316228 70 112 66 255
112.000000 100.000000 124.000000 -0.948683 0.000000 -0.316228 70 112 66 255
112.000000 130.000000 124.000000 -0.948683 0.000000 -0.316228 70 112 66 255
128.000000 130.000000 76.000000 -0.948683 0.000000 -0.316228 70 112 66 255
-128.000000 100.000000 44.000000 0.948683 0.000000 0.316228 70 112 66 255
-112.000000 100.000000 -4.000000 0.948683 0.000000 0.316228 70 112 66 255
-112.000000 130.000000 -4.000000 0.948683 0.000000 0.316228 70 112 66 255
-128.000000 130.000000 44.000000 0.948683 0.000000 0.316228 70 112 66 255
112.000000 100.000000 124.000000 0.000000 -0.000000 -1.000000 61 112 87 255
64.000000 100.000000 124.000000 0.000000 -0.000000 -1.000000 61 112 87 255
64.000000 130.000000 124.000000 0.000000 -0.000000 -1.000000 61 112 87 255
112.000000 130.000000 124.000000 0.000000 -0.000000 -1.000000 61 112 87 255
-112.000000 100.000000 -4.000000 0.000000 0.000000 1.000000 61 112 87 255
-64.000000 100.000000 -4.000000 0.000000 0.000000 1.000000 61 112 87 255
-64.000000 130.000000 -4.000000 0.000000 0.000000 1.000000 61 112 87 255
-112.000000 130.000000 -4.000000 0.000000 0.000000 1.000000 61 112 87 255
64.000000 100.000000 124.000000 0.447214 0.000000 -0.894427 70 112 66 255
32.000000 100.000000 108.000000 0.447214 0.000000 -0.894427 70 112 66 255
32.000000 130.000000 108.000000 0.447214 0.000000 -0.894427 70 112 66 255
64.000000 130.000000 124.000000 0.447214 0.000000 -0.894427 70 112 66 255
128.000000 130.000000 76.000000 -0.834017 -0.476581 -0.278005 70 112 66 255
112.000000 130.000000 124.000000 -0.834017 -0.476581 -0.278005 70 112 66 255
78.400002 200.000000 104.800003 -0.834017 -0.476581 -0.278005 70 112 66 255
89.599998 200.000000 71.199997 -0.834017 -0.476581 -0.278005 70 112 66 255
-128.000000 130.000000 44.000000 0.834017 -0.476581 0.278005 70 112 66 255
-112.000000 130.000000 -4.000000 0.834017 -0.476581 0.278005 70 112 66 255
-78.400002 200.000000 15.200001 0.834017 -0.476581 0.278005 70 112 66 255
-89.599998 200.000000 48.799999 0.834017 -0.476581 0.278005 70 112 66 255
112.000000 130.000000 124.000000 0.000000 -0.264516 -0.964381 61 112 87 255
64.000000 130.000000 124.000000 0.000000 -0.264516 -0.964381 61 112 87 255
44.799999 200.000000 104.800003 0.000000 -0.264516 -0.964381 61 112 87 255
78.400002 200.000000 104.800003 0.000000 -0.264516 -0.964381 61 112 87 255
-112.000000 130.000000 -4.000000 0.000000 -0.264516 0.964381 61 112 87 255
-64.000000 130.000000 -4.000000 0.000000 -0.264516 0.964381 61 112 87 255
-44.799999 200.000000 15.200001 0.000000 -0.264516 0.964381 61 112 87 255
-78.400002 200.000000 15.200001 0.000000 -0.264516 0.964381 61 112 87 255
64.000000 130.000000 124.000000 0.443887 -0.121752 -0.887773 70 112 66 255
32.000000 130.000000 108.000000 0.443887 -0.121752 -0.887773 70 112 66 255
22.400000 200.000000 93.599998 0.443887 -0.121752 -0.887773 70 112 66 255
44.799999 200.000000 104.800003 0.443887 -0.121752 -0.887773 70 112 66 255
128.000000 130.000000 44.000000 -0.876744 -0.480957 0.000000 70 112 66 255
128.000000 130.000000 76.000000 -0.876744 -0.480957 0.000000 70 112 66 255
89.599998 200.000000 71.199997 -0.876744 -0.480957 0.000000 70 112 66 255
89.599998 200.000000 48.799999 -0.876744 -0.480957 0.000000 70 112 66 255
-32.000000 130.000000 12.000000 0.443887 0.121752 -0.887773 70 112 66 255
-64.000000 130.000000 -4.000000 0.443887 0.121752 -0.887773 70 112 66 255
-44.799999 200.000000 15.200001 0.443887 0.121752 -0.887773 70 112 66 255
-22.400000 200.000000 26.400002 0.443887 0.121752 -0.887773 70 112 66 255
32.000000 130.000000 108.000000 0.000000 -0.201495 -0.979490 70 112 66 255
-32.000000 130.000000 108.000000 0.000000 -0.201495 -0.979490 70 112 66 255
-22.400000 200.000000 93.599998 0.000000 -0.201495 -0.979490 70 112 66 255
22.400000 200.000000 93.599998 0.000000 -0.201495 -0.979490 70 112 66 255
-32.000000 130.000000 12.000000 0.000000 -0.201495 0.979490 70 112 66 255
32.000000 130.000000 12.000000 0.000000 -0.201495 0.979490 70 112 66 255
22.400000 200.000000 26.400002 0.000000 -0.201495 0.979490 70 112 66 255
-22.400000 200.000000 26.400002 0.000000 -0.201495 0.979490 70 112 66 255
-32.000000 130.000000 108.000000 -0.443887 -0.121752 -0.887773 70 112 66 255
-64.000000 130.000000 124.000000 -0.443887 -0.121752 -0.887773 70 112 66 255
-44.799999 200.000000 104.800003 -0.443887 -0.121752 -0.887773 70 112 66 255
-22.400000 200.000000 93.599998 -0.443887 -0.121752 -0.887773 70 112 66 255
64.000000 130.000000 -4.000000 0.000000 -0.264516 0.964381 61 112 87 255
112.000000 130.000000 -4.000000 0.000000 -0.264516 0.964381 61 112 87 255
78.400002 200.000000 15.200001 0.000000 -0.264516 0.964381 61 112 87 255
44.799999 200.000000 15.200001 0.000000 -0.264516 0.964381 61 112 87 255
-64.000000 130.000000 124.000000 0.000000 -0.264516 -0.964381 61 112 87 255
-112.000000 130.000000 124.000000 0.000000 -0.264516 -0.964381 61 112 87 255
-78.400002 200.000000 104.800003 0.000000 -0.264516 -0.964381 61 112 87 255
-44.799999 200.000000 104.800003 0.000000 -0.264516 -0.964381 61 112 87 255
112.000000 130.000000 -4.000000 -0.834017 -0.476581 0.278005 70 112 66 255
128.000000 130.000000 44.000000 -0.834017 -0.476581 0.278005 70 112 66 255
89.599998 200.000000 48.799999 -0.834017 -0.476581 0.278005 70 112 66 255
78.400002 200.000000 15.200001 -0.834017 -0.476581 0.278005 70 112 66 255
-112.000000 130.000000 124.000000 0.834017 -0.476581 -0.278005 70 112 66 255
-128.000000 130.000000 76.000000 0.834017 -0.476581 -0.278005 70 112 66 255
-89.599998 200.000000 71.199997 0.834017 -0.476581 -0.278005 70 112 66 255
-78.400002 200.000000 104.800003 0.834017 -0.476581 -0.278005 70 112 66 255
32.000000 130.000000 12.000000 0.443887 -0.121752 0.887773 70 112 66 255
64.000000 130.000000 -4.000000 0.443887 -0.121752 0.887773 70 112 66 255
44.799999 200.000000 15.200001 0.443887 -0.121752 0.887773 70 112 66 255
22.400000 200.000000 26.400002 0.443887 -0.121752 0.887773 70 112 66 255
-128.000000 130.000000 76.000000 0.876744 -0.480957 0.000000 70 112 66 255
-128.000000 130.000000 44.000000 0.876744 -0.480957 0.000000 70 112 66 255
-89.599998 200.000000 48.799999 0.876744 -0.480957 0.000000 70 112 66 255
-89.599998 200.000000 71.199997 0.876744 -0.480957 0.000000 70 112 66 255
-22.400000 200.000000 93.599998 -0.447214 0.000000 -0.894427 70 112 66 255
-44.799999 200.000000 104.800003 -0.447214 0.000000 -0.894427 70 112 66 255
-44.799999 230.000000 104.800003 -0.447214 0.000000 -0.894427 70 112 66 255
-22.400000 230.000000 93.599998 -0.447214 0.000000 -0.894427 70 112 66 255
44.799999 200.000000 15.200001 0.000000 0.000000 1.000000 61 112 87 255
78.400002 200.000000 15.200001 0.000000 0.000000 1.000000 61 112 87 255
78.400002 230.000000 15.200001 0.000000 0.000000 1.000000 61 112 87 255
44.799999 230.000000 15.200001 0.000000 0.000000 1.000000 61 112 87 255
-44.799999 200.000000 104.800003 0.000000 -0.000000 -1.000000 61 112 87 255
-78.400002 200.000000 104.800003 0.000000 -0.000000 -1.000000 61 112 87 255
-78.400002 230.000000 104.800003 0.000000 -0.000000 -1.000000 61 112 87 255
-44.799999 230.000000 104.800003 0.000000 -0.000000 -1.000000 61 112 87 255
78.400002 200.000000 15.200001 -0.948683 0.000000 0.316228 70 112 66 255
89.599998 200.000000 48.799999 -0.948683 0.000000 0.316228 70 112 66 255
89.599998 230.000000 48.799999 -0.948683 0.000000 0.316228 70 112 66 255
78.400002 230.000000 15.200001 -0.948683 0.000000 0.316228 70 112 66 255
-78.400002 200.000000 104.800003 0.948683 0.000000 -0.316228 70 112 66 255
-89.599998 200.000000 71.199997 0.948683 0.000000 -0.316228 70 112 66 255
-89.599998 230.000000 71.199997 0.948683 0.000000 -0.316228 70 112 66 255
-78.400002 230.000000 104.800003 0.948683 0.000000 -0.316228 70 112 66 255
22.400000 200.000000 26.400002 0.447214 0.000000 0.894427 70 112 66 255
44.799999 200.000000 15.200001 0.447214 0.000000 0.894427 70 112 66 255
44.799999 230.000000 15.200001 0.447214 0.000000 0.894427 70 112 66 255
22.400000 230.000000 26.400002 0.447214 0.000000 0.894427 70 112 66 255
-89.599998 200.000000 71.199997 1.000000 0.000000 0.000000 70 112 66 255
-89.599998 200.000000 48.799999 1.000000 0.000000 0.000000 70 112 66 255
-89.599998 230.000000 48.799999 1.000000 0.000000 0.000000 70 112 66 255
-89.599998 230.000000 71.199997 1.000000 0.000000 0.000000 70 112 66 255
89.599998 200.000000 71.199997 -0.948683 0.000000 -0.316228 70 112 66 255
78.400002 200.000000 104.800003 -0.948683 0.000000 -0.316228 70 112 66 255
78.400002 230.000000 104.800003 -0.948683 0.000000 -0.316228 70 112 66 255
89.599998 230.000000 71.199997 -0.948683 0.000000 -0.316228 70 112 66 255
-89.599998 200.000000 48.799999 0.948683 0.000000 0.316228 70 112 66 255
-78.400002 200.000000 15.200001 0.948683 0.000000 0.316228 70 112 66 255
-78.400002 230.000000 15.200001 0.948683 0.000000 0.316228 70 112 66 255
-89.599998 230.000000 48.799999 0.948683 0.000000 0.316228 70 112 66 255
78.400002 200.000000 104.800003 0.000000 -0.000000 -1.000000 61 112 87 255
44.799999 200.000000 104.800003 0.000000 -0.000000 -1.000000 61 112 87 255
44.799999 230.000000 104.800003 0.000000 -0.000000 -1.000000 61 112 87 255
78.400002 230.000000 104.800003 0.000000 -0.000000 -1.000000 61 112 87 255
-78.400002 200.000000 15.200001 0.000000 0.000000 1.000000 61 112 87 255
-44.799999 200.000000 15.200001 0.000000 0.000000 1.000000 61 112 87 255
-44.799999 230.000000 15.200001 0.000000 0.000000 1.000000 61 112 87 255
-78.400002 230.000000 15.200001 0.000000 0.000000 1.000000 61 112 87 255
44.799999 200.000000 104.800003 0.447214 0.000000 -0.894427 70 112 66 255
22.400000 200.000000 93.599998 0.447214 0.000000 -0.894427 70 112 66 255
22.400000 230.000000 93.599998 0.447214 0.000000 -0.894427 70 112 66 255
44.799999 230.000000 104.800003 0.447214 0.000000 -0.894427 70 112 66 255
89.599998 200.000000 48.799999 -1.000000 -0.000000 0.000000 70 112 66 255
89.599998 200.000000 71.199997 -1.000000 -0.000000 0.000000 70 112 66 255
89.599998 230.000000 71.199997 -1.000000 -0.000000 0.000000 70 112 66 255
89.599998 230.000000 48.799999 -1.000000 -0.000000 0.000000 70 112 66 255
-22.400000 200.000000 26.400002 0.447214 0.000000 -0.894427 70 112 66 255
-44.799999 200.000000 15.200001 0.447214 0.000000 -0.894427 70 112 66 255
-44.799999 230.000000 15.200001 0.447214 0.000000 -0.894427 70 112 66 255
-22.400000 230.000000 26.400002 0.447214 0.000000 -0.894427 70 112 66 255
22.400000 200.000000 93.599998 0.000000 -0.000000 -1.000000 70 112 66 255
-22.400000 200.000000 93.599998 0.000000 -0.000000 -1.000000 70 112 66 255
-22.400000 230.000000 93.599998 0.000000 -0.000000 -1.000000 70 112 66 255
22.400000 230.000000 93.599998 0.000000 -0.000000 -1.000000 70 112 66 255
-22.400000 200.000000 26.400002 0.000000 0.000000 1.000000 70 112 66 255
22.400000 200.000000 26.400002 0.000000 0.000000 1.000000 70 112 66 255
22.400000 230.000000 26.400002 0.000000 0.000000 1.000000 70 112 66 255
-22.400000 230.000000 26.400002 0.000000 0.000000 1.000000 70 112 66 255
-78.400002 230.000000 15.200001 0.000000 -0.304776 0.952424 61 112 87 255
-44.799999 230.000000 15.200001 0.000000 -0.304776 0.952424 61 112 87 255
-22.400000 300.000000 37.599998 0.000000 -0.304776 0.952424 61 112 87 255
-39.200001 300.000000 37.599998 0.000000 -0.304776 0.952424 61 112 87 255
44.799999 230.000000 104.800003 0.442703 -0.141665 -0.885407 70 112 66 255
22.400000 230.000000 93.599998 0.442703 -0.141665 -0.885407 70 112 66 255
11.199999 300.000000 76.800003 0.442703 -0.141665 -0.885407 70 112 66 255
22.400000 300.000000 82.400002 0.442703 -0.141665 -0.885407 70 112 66 255
89.599998 230.000000 48.799999 -0.842271 -0.539054 0.000000 70 112 66 255
89.599998 230.000000 71.199997 -0.842271 -0.539054 0.000000 70 112 66 255
44.799999 300.000000 65.599998 -0.842271 -0.539054 0.000000 70 112 66 255
44.799999 300.000000 54.400002 -0.842271 -0.539054 0.000000 70 112 66 255
-22.400000 230.000000 26.400002 0.442703 0.141665 -0.885407 70 112 66 255
-44.799999 230.000000 15.200001 0.442703 0.141665 -0.885407 70 112 66 255
-22.400000 300.000000 37.599998 0.442703 0.141665 -0.885407 70 112 66 255
-11.200001 300.000000 43.200001 0.442703 0.141665 -0.885407 70 112 66 255
22.400000 230.000000 93.599998 0.000000 -0.233373 -0.972387 70 112 66 255
-22.400000 230.000000 93.599998 0.000000 -0.233373 -0.972387 70 112 66 255
-11.200001 300.000000 76.800003 0.000000 -0.233373 -0.972387 70 112 66 255
11.199999 300.000000 76.800003 0.000000 -0.233373 -0.972387 70 112 66 255
-22.400000 230.000000 26.400002 0.000000 -0.233373 0.972387 70 112 66 255
22.400000 230.000000 26.400002 0.000000 -0.233373 0.972387 70 112 66 255
11.199999 300.000000 43.200001 0.000000 -0.233373 0.972387 70 112 66 255
-11.200001 300.000000 43.200001 0.000000 -0.233373 0.972387 70 112 66 255
-22.400000 230.000000 93.599998 -0.442703 -0.141665 -0.885407 70 112 66 255
-44.799999 230.000000 104.800003 -0.442703 -0.141665 -0.885407 70 112 66 255
-22.400000 300.000000 82.400002 -0.442703 -0.141665 -0.885407 70 112 66 255
-11.200001 300.000000 76.800003 -0.442703 -0.141665 -0.885407 70 112 66 255
44.799999 230.000000 15.200001 0.000000 -0.304776 0.952424 61 112 87 255
78.400002 230.000000 15.200001 0.000000 -0.304776 0.952424 61 112 87 255
39.200001 300.000000 37.599998 0.000000 -0.304776 0.952424 61 112 87 255
22.400000 300.000000 37.599998 0.000000 -0.304776 0.952424 61 112 87 255
-44.799999 230.000000 104.800003 0.000000 -0.304776 -0.952424 61 112 87 255
-78.400002 230.000000 104.800003 0.000000 -0.304776 -0.952424 61 112 87 255
-39.200001 300.000000 82.400002 0.000000 -0.304776 -0.952424 61 112 87 255
-22.400000 300.000000 82.400002 0.000000 -0.304776 -0.952424 61 112 87 255
78.400002 230.000000 15.200001 -0.801784 -0.534522 0.267261 70 112 66 255
89.599998 230.000000 48.799999 -0.801784 -0.534522 0.267261 70 112 66 255
44.799999 300.000000 54.400002 -0.801784 -0.534522 0.267261 70 112 66 255
39.200001 300.000000 37.599998 -0.801784 -0.534522 0.267261 70 112 66 255
-78.400002 230.000000 104.800003 0.801784 -0.534523 -0.267261 70 112 66 255
-89.599998 230.000000 71.199997 0.801784 -0.534523 -0.267261 70 112 66 255
-44.799999 300.000000 65.599998 0.801784 -0.534523 -0.267261 70 112 66 255
-39.200001 300.000000 82.400002 0.801784 -0.534523 -0.267261 70 112 66 255
22.400000 230.000000 26.400002 0.442703 -0.141665 0.885407 70 112 66 255
44.799999 230.000000 15.200001 0.442703 -0.141665 0.885407 70 112 66 255
22.400000 300.000000 37.599998 0.442703 -0.141665 0.885407 70 112 66 255
11.199999 300.000000 43.200001 0.442703 -0.141665 0.885407 70 112 66 255
-89.599998 230.000000 71.199997 0.842271 -0.539054 0.000000 70 112 66 255
-89.599998 230.000000 48.799999 0.842271 -0.539054 0.000000 70 112 66 255
-44.799999 300.000000 54.400002 0.842271 -0.539054 0.000000 70 112 66 255
-44.799999 300.000000 65.599998 0.842271 -0.539054 0.000000 70 112 66 255
89.599998 230.000000 71.199997 -0.801784 -0.534523 -0.267261 70 112 66 255
78.400002 230.000000 104.800003 -0.801784 -0.534523 -0.267261 70 112 66 255
39.200001 300.000000 82.400002 -0.801784 -0.534523 -0.267261 70 112 66 255
44.799999 300.000000 65.599998 -0.801784 -0.534523 -0.267261 70 112 66 255
-89.599998 230.000000 48.799999 0.801784 -0.534522 0.267261 70 112 66 255
-78.400002 230.000000 15.200001 0.801784 -0.534522 0.267261 70 112 66 255
-39.200001 300.000000 37.599998 0.801784 -0.534522 0.267261 70 112 66 255
-44.799999 300.000000 54.400002 0.801784 -0.534522 0.267261 70 112 66 255
78.400002 230.000000 104.800003 0.000000 -0.304776 -0.952424 61 112 87 255
44.799999 230.000000 104.800003 0.000000 -0.304776 -0.952424 61 112 87 255
22.400000 300.000000 82.400002 0.000000 -0.304776 -0.952424 61 112 87 255
39.200001 300.000000 82.400002 0.000000 -0.304776 -0.952424 61 112 87 255
44.799999 300.000000 54.400002 -1.000000 -0.000000 0.000000 70 112 66 255
44.799999 300.000000 65.599998 -1.000000 -0.000000 0.000000 70 112 66 255
44.799999 330.000000 65.599998 -1.000000 -0.000000 0.000000 70 112 66 255
44.799999 330.000000 54.400002 -1.000000 -0.000000 0.000000 70 112 66 255
-11.200001 300.000000 43.200001 0.447214 0.000000 -0.894427 70 112 66 255
-22.400000 300.000000 37.599998 0.447214 0.000000 -0.894427 70 112 66 255
-22.400000 330.000000 37.599998 0.447214 0.000000 -0.894427 70 112 66 255
-11.200001 330.000000 43.200001 0.447214 0.000000 -0.894427 70 112 66 255
11.199999 300.000000 76.800003 0.000000 -0.000000 -1.000000 70 112 66 255
-11.200001 300.000000 76.800003 0.000000 -0.000000 -1.000000 70 112 66 255
-11.200001 330.000000 76.800003 0.000000 -0.000000 -1.000000 70 112 66 255
11.199999 330.000000 76.800003 0.000000 -0.000000 -1.000000 70 112 66 255
-11.200001 300.000000 43.200001 0.000000 0.000000 1.000000 70 112 66 255
11.199999 300.000000 43.200001 0.000000 0.000000 1.000000 70 112 66 255
11.199999 330.000000 43.200001 0.000000 0.000000 1.000000 70 112 66 255
-11.200001 330.000000 43.200001 0.000000 0.000000 1.000000 70 112 66 255
-11.200001 300.000000 76.800003 -0.447214 0.000000 -0.894427 70 112 66 255
-22.400000 300.000000 82.400002 -0.447214 0.000000 -0.894427 70 112 66 255
-22.400000 330.000000 82.400002 -0.447214 0.000000 -0.894427 70 112 66 255
-11.200001 330.000000 76.800003 -0.447214 0.000000 -0.894427 70 112 66 255
22.400000 300.000000 37.599998 0.000000 0.000000 1.000000 61 112 87 255
39.200001 300.000000 37.599998 0.000000 0.000000 1.000000 61 112 87 255
39.200001 330.000000 37.599998 0.000000 0.000000 1.000000 61 112 87 255
22.400000 330.000000 37.599998 0.000000 0.000000 1.000000 61 112 87 255
-22.400000 300.000000 82.400002 0.000000 -0.000000 -1.000000 61 112 87 255
-39.200001 300.000000 82.400002 0.000000 -0.000000 -1.000000 61 112 87 255
-39.200001 330.000000 82.400002 0.000000 -0.000000 -1.000000 61 112 87 255
-22.400000 330.000000 82.400002 0.000000 -0.000000 -1.000000 61 112 87 255
39.200001 300.000000 37.599998 -0.948683 0.000000 0.316228 70 112 66 255
44.799999 300.000000 54.400002 -0.948683 0.000000 0.316228 70 112 66 255
44.799999 330.000000 54.400002 -0.948683 0.000000 0.316228 70 112 66 255
39.200001 330.000000 37.599998 -0.948683 0.000000 0.316228 70 112 66 255
-39.200001 300.000000 82.400002 0.948683 0.000000 -0.316228 70 112 66 255
-44.799999 300.000000 65.599998 0.948683 0.000000 -0.316228 70 112 66 255
-44.799999 330.000000 65.599998 0.948683 0.000000 -0.316228 70 112 66 255
-39.200001 330.000000 82.400002 0.948683 0.000000 -0.316228 70 112 66 255
11.199999 300.000000 43.200001 0.447214 0.000000 0.894427 70 112 66 255
22.400000 300.000000 37.599998 0.447214 0.000000 0.894427 70 112 66 255
22.400000 330.000000 37.599998 0.447214 0.000000 0.894427 70 112 66 255
11.199999 330.000000 43.200001 0.447214 0.000000 0.894427 70 112 66 255
-44.799999 300.000000 65.599998 1.000000 0.000000 0.000000 70 112 66 255
-44.799999 300.000000 54.400002 1.000000 0.000000 0.000000 70 112 66 255
-44.799999 330.000000 54.400002 1.000000 0.000000 0.000000 70 112 66 255
-44.799999 330.000000 65.599998 1.000000 0.000000 0.000000 70 112 66 255
44.799999 300.000000 65.599998 -0.948683 0.000000 -0.316228 70 112 66 255
39.200001 300.000000 82.400002 -0.948683 0.000000 -0.316228 70 112 66 255
39.200001 330.000000 82.400002 -0.948683 0.000000 -0.316228 70 112 66 255
44.799999 330.000000 65.599998 -0.948683 0.000000 -0.316228 70 112 66 255
-44.799999 300.000000 54.400002 0.948683 0.000000 0.316228 70 112 66 255
-39.200001 300.000000 37.599998 0.948683 0.000000 0.316228 70 112 66 255
-39.200001 330.000000 37.599998 0.948683 0.000000 0.316228 70 112 66 255
-44.799999 330.000000 54.400002 0.948683 0.000000 0.316228 70 112 66 255
39.200001 300.000000 82.400002 0.000000 -0.000000 -1.000000 61 112 87 255
22.400000 300.000000 82.400002 0.000000 -0.000000 -1.000000 61 112 87 255
22.400000 330.000000 82.400002 0.000000 -0.000000 -1.000000 61 112 87 255
39.200001 330.000000 82.400002 0.000000 -0.000000 -1.000000 61 112 87 255
-39.200001 300.000000 37.599998 0.000000 0.000000 1.000000 61 112 87 255
-22.400000 300.000000 37.599998 0.000000 0.000000 1.000000 61 112 87 255
-22.400000 330.000000 37.599998 0.000000 0.000000 1.000000 61 112 87 255
-39.200001 330.000000 37.599998 0.000000 0.000000 1.000000 61 112 87 255
22.400000 300.000000 82.400002 0.447213 0.000000 -0.894427 70 112 66 255
11.199999 300.000000 76.800003 0.447213 0.000000 -0.894427 70 112 66 255
11.199999 330.000000 76.800003 0.447213 0.000000 -0.894427 70 112 66 255
22.400000 330.000000 82.400002 0.447213 0.000000 -0.894427 70 112 66 255
-39.200001 330.000000 82.400002 0.756135 -0.603931 -0.252045 70 112 66 255
-44.799999 330.000000 65.599998 0.756135 -0.603931 -0.252045 70 112 66 255
-21.797203 360.000000 62.724651 0.756135 -0.603931 -0.252045 70 112 66 255
-19.072552 360.000000 70.898605 0.756135 -0.603931 -0.252045 70 112 66 255
22.400000 330.000000 37.599998 0.000000 -0.357974 0.933732 61 112 87 255
39.200001 330.000000 37.599998 0.000000 -0.357974 0.933732 61 112 87 255
19.072552 360.000000 49.101398 0.000000 -0.357974 0.933732 61 112 87 255
10.898602 360.000000 49.101398 0.000000 -0.357974 0.933732 61 112 87 255
11.199999 330.000000 43.200001 0.440782 -0.168987 0.881564 70 112 66 255
22.400000 330.000000 37.599998 0.440782 -0.168987 0.881564 70 112 66 255
10.898602 360.000000 49.101398 0.440782 -0.168987 0.881564 70 112 66 255
5.449300 360.000000 51.826050 0.440782 -0.168987 0.881564 70 112 66 255
-22.400000 330.000000 82.400002 0.000000 -0.357974 -0.933732 61 112 87 255
-39.200001 330.000000 82.400002 0.000000 -0.357974 -0.933732 61 112 87 255
-19.072552 360.000000 70.898605 0.000000 -0.357974 -0.933732 61 112 87 255
-10.898602 360.000000 70.898605 0.000000 -0.357974 -0.933732 61 112 87 255
-11.200001 330.000000 43.200001 0.000000 -0.276338 0.961060 70 112 66 255
11.199999 330.000000 43.200001 0.000000 -0.276338 0.961060 70 112 66 255
5.449300 360.000000 51.826050 0.000000 -0.276338 0.961060 70 112 66 255
-5.449301 360.000000 51.826050 0.000000 -0.276338 0.961060 70 112 66 255
39.200001 330.000000 37.599998 -0.756135 -0.603931 0.252045 70 112 66 255
44.799999 330.000000 54.400002 -0.756135 -0.603931 0.252045 70 112 66 255
21.797203 360.000000 57.275349 -0.756135 -0.603931 0.252045 70 112 66 255
19.072552 360.000000 49.101398 -0.756135 -0.603931 0.252045 70 112 66 255
-44.799999 330.000000 65.599998 0.793571 -0.608478 0.000000 70 112 66 255
-44.799999 330.000000 54.400002 0.793571 -0.608478 0.000000 70 112 66 255
-21.797203 360.000000 57.275349 0.793571 -0.608478 0.000000 70 112 66 255
-21.797203 360.000000 62.724651 0.793571 -0.608478 0.000000 70 112 66 255
11.199999 330.000000 76.800003 0.000000 -0.276339 -0.961060 70 112 66 255
-11.200001 330.000000 76.800003 0.000000 -0.276339 -0.961060 70 112 66 255
-5.449301 360.000000 68.173950 0.000000 -0.276339 -0.961060 70 112 66 255
5.449300 360.000000 68.173950 0.000000 -0.276339 -0.961060 70 112 66 255
44.799999 330.000000 65.599998 -0.756135 -0.603931 -0.252045 70 112 66 255
39.200001 330.000000 82.400002 -0.756135 -0.603931 -0.252045 70 112 66 255
19.072552 360.000000 70.898605 -0.756135 -0.603931 -0.252045 70 112 66 255
21.797203 360.000000 62.724651 -0.756135 -0.603931 -0.252045 70 112 66 255
44.799999 330.000000 54.400002 -0.793571 -0.608478 0.000000 70 112 66 255
44.799999 330.000000 65.599998 -0.793571 -0.608478 0.000000 70 112 66 255
21.797203 360.000000 62.724651 -0.793571 -0.608478 0.000000 70 112 66 255
21.797203 360.000000 57.275349 -0.793571 -0.608478 0.000000 70 112 66 255
39.200001 330.000000 82.400002 0.000000 -0.357974 -0.933732 61 112 87 255
22.400000 330.000000 82.400002 0.000000 -0.357974 -0.933732 61 112 87 255
10.898602 360.000000 70.898605 0.000000 -0.357974 -0.933732 61 112 87 255
19.072552 360.000000 70.898605 0.000000 -0.357974 -0.933732 61 112 87 255
-39.200001 330.000000 37.599998 0.000000 -0.357974 0.933732 61 112 87 255
-22.400000 330.000000 37.599998 0.000000 -0.357974 0.933732 61 112 87 255
-10.898602 360.000000 49.101398 0.000000 -0.357974 0.933732 61 112 87 255
-19.072552 360.000000 49.101398 0.000000 -0.357974 0.933732 61 112 87 255
-11.200001 330.000000 43.200001 0.440782 0.168987 -0.881564 70 112 66 255
-22.400000 330.000000 37.599998 0.440782 0.168987 -0.881564 70 112 66 255
-10.898602 360.000000 49.101398 0.440782 0.168987 -0.881564 70 112 66 255
-5.449301 360.000000 51.826050 0.440782 0.168987 -0.881564 70 112 66 255
-44.799999 330.000000 54.400002 0.756135 -0.603931 0.252045 70 112 66 255
-39.200001 330.000000 37.599998 0.756135 -0.603931 0.252045 70 112 66 255
-19.072552 360.000000 49.101398 0.756135 -0.603931 0.252045 70 112 66 255
-21.797203 360.000000 57.275349 0.756135 -0.603931 0.252045 70 112 66 255
22.400000 330.000000 82.400002 0.440782 -0.168987 -0.881564 70 112 66 255
11.199999 330.000000 76.800003 0.440782 -0.168987 -0.881564 70 112 66 255
5.449300 360.000000 68.173950 0.440782 -0.168987 -0.881564 70 112 66 255
10.898602 360.000000 70.898605 0.440782 -0.168987 -0.881564 70 112 66 255
-11.200001 330.000000 76.800003 -0.440782 -0.168987 -0.881564 70 112 66 255
-22.400000 330.000000 82.400002 -0.440782 -0.168987 -0.881564 70 112 66 255
-10.898602 360.000000 70.898605 -0.440782 -0.168987 -0.881564 70 112 66 255
-5.449301 360.000000 68.173950 -0.440782 -0.168987 -0.881564 70 112 66 255
21.797203 360.000000 62.724651 0.000000 -1.000000 0.000000 70 112 66 255
19.072552 360.000000 70.898605 0.000000 -1.000000 0.000000 70 112 66 255
19.072552 360.000000 49.101398 0.000000 -1.000000 0.000000 70 112 66 255
21.797203 360.000000 57.275349 0.000000 -1.000000 0.000000 70 112 66 255
10.898602 360.000000 70.898605 0.000000 -1.000000 0.000000 61 112 87 255
10.898602 360.000000 49.101398 0.000000 -1.000000 0.000000 61 112 87 255
5.449300 360.000000 68.173950 0.000000 -1.000000 0.000000 70 112 66 255
5.449300 360.000000 51.826050 0.000000 -1.000000 0.000000 70 112 66 255
-5.449301 360.000000 68.173950 0.000000 -1.000000 0.000000 70 112 66 255
-5.449301 360.000000 51.826050 0.000000 -1.000000 0.000000 70 112 66 255
-10.898602 360.000000 49.101398 0.000000 1.000000 0.000000 70 112 66 255
-10.898602 360.000000 70.898605 0.000000 1.000000 0.000000 70 112 66 255
-5.449301 360.000000 68.173950 0.000000 1.000000 0.000000 70 112 66 255
-5.449301 360.000000 51.826050 0.000000 1.000000 0.000000 70 112 66 255
-19.072552 360.000000 49.101398 0.000000 -1.000000 -0.000000 61 112 87 255
-10.898602 360.000000 49.101398 0.000000 -1.000000 -0.000000 70 112 66 255
-10.898602 360.000000 70.898605 0.000000 -1.000000 -0.000000 61 112 87 255
-19.072552 360.000000 70.898605 0.000000 -1.000000 -0.000000 61 112 87 255
-21.797203 360.000000 57.275349 0.000000 -1.000000 -0.000000 70 112 66 255
-19.072552 360.000000 70.898605 0.000000 -1.000000 -0.000000 70 112 66 255
-21.797203 360.000000 62.724651 0.000000 -1.000000 -0.000000 70 112 66 255
4 0 1 2 3
4 4 5 6 7
4 8 9 10 11
4 12 13 14 15
4 16 17 18 19
4 20 21 22 23
4 24 25 26 27
4 28 29 30 31
4 32 33 34 35
4 36 37 38 39
4 40 41 42 43
4 44 45 46 47
4 48 49 50 51
4 52 53 54 55
4 56 57 58 59
4 60 61 62 63
4 64 65 66 67
4 68 69 70 71
4 72 73 74 75
4 76 77 78 79
4 80 81 82 83
4 84 85 86 87
4 88 89 90 91
4 92 93 94 95
4 96 97 98 99
4 100 101 102 103
4 104 105 106 107
4 108 109 110 111
4 112 113 114 115
4 116 117 118 119
4 120 121 122 123
4 124 125 126 127
4 128 129 130 131
4 132 133 134 135
4 136 137 138 139
4 140 141 142 143
4 144 145 146 147
4 148 149 150 151
4 152 153 154 155
4 156 157 158 159
4 160 161 162 163
4 164 165 166 167
4 168 169 170 171
4 172 173 174 175
4 176 177 178 179
4 180 181 182 183
4 184 185 186 187
4 188 189 190 191
4 192 193 194 195
4 196 197 198 199
4 200 201 202 203
4 204 205 206 207
4 208 209 210 211
4 212 213 214 215
4 216 217 218 219
4 220 221 222 223
4 224 225 226 227
4 228 229 230 231
4 232 233 234 235
4 236 237 238 239
4 240 241 242 243
4 244 245 246 247
4 248 249 250 251
4 252 253 254 255
4 256 257 258 259
4 260 261 262 263
4 264 265 266 267
4 268 269 270 271
4 272 273 274 275
4 276 277 278 279
4 280 281 282 283
4 284 285 286 287
4 288 289 290 291
4 292 293 294 295
4 296 297 298 299
4 300 301 302 303
4 304 305 306 307
4 308 309 310 311
4 312 313 314 315
4 316 317 318 319
4 320 321 322 323
4 324 325 326 327
4 328 329 330 331
4 332 333 334 335
4 336 337 338 339
4 340 341 342 343
4 344 345 346 347
4 348 349 350 351
4 352 353 354 355
4 356 357 358 359
4 360 361 362 363
4 364 365 366 367
4 368 369 370 371
4 372 373 374 375
4 376 377 378 379
4 380 381 382 383
4 384 385 386 387
4 388 389 390 391
4 392 393 394 395
4 396 397 398 399
4 400 401 402 403
4 404 405 406 407
4 408 409 410 411
4 412 413 414 415
4 416 417 418 419
4 420 421 422 423
4 424 425 426 427
4 428 429 430 431
4 432 433 434 435
4 436 437 438 439
4 440 441 442 443
4 444 445 446 447
4 448 449 450 451
4 452 453 454 455
4 456 457 458 459
4 460 461 462 463
4 464 465 466 467
4 468 469 470 471
4 472 473 474 475
4 476 477 478 479
4 480 481 482 483
4 484 485 486 487
4 488 489 490 491
4 492 493 494 495
4 496 497 498 499
4 500 501 502 503
4 504 505 506 507
4 508 509 510 511
4 512 513 514 515
4 513 516 517 514
4 516 518 519 517
4 518 520 521 519
4 522 523 524 525
4 526 527 528 529
4 530 526 531 532
