ply
format ascii 1.0
comment Created by Blender 2.93.5 - www.blender.org
element vertex 290
property float x
property float y
property float z
property float nx
property float ny
property float nz
property uchar red
property uchar green
property uchar blue
property uchar alpha
element face 81
property list uchar uint vertex_indices
end_header
60.000000 0.000000 0.000000 0.242536 0.000000 0.970142 90 53 0 255
100.000000 0.000000 -10.000000 0.242536 0.000000 0.970142 90 53 0 255
100.000000 20.000000 -10.000000 0.242536 0.000000 0.970142 90 53 0 255
60.000000 20.000000 0.000000 0.242536 0.000000 0.970142 90 53 0 255
80.000000 0.000000 -60.000000 0.124035 0.000000 -0.992278 90 53 0 255
0.000000 0.000000 -70.000000 0.124035 0.000000 -0.992278 90 53 0 255
0.000000 20.000000 -70.000000 0.124035 0.000000 -0.992278 90 53 0 255
80.000000 20.000000 -60.000000 0.124035 0.000000 -0.992278 90 53 0 255
-60.000000 0.000000 0.000000 0.000000 0.000000 1.000000 90 53 0 255
60.000000 0.000000 0.000000 0.000000 0.000000 1.000000 90 53 0 255
60.000000 20.000000 0.000000 0.000000 0.000000 1.000000 90 53 0 255
-60.000000 20.000000 0.000000 0.000000 0.000000 1.000000 90 53 0 255
160.000000 0.000000 -10.000000 0.948683 0.000000 -0.316228 90 53 0 255
150.000000 0.000000 -40.000000 0.948683 0.000000 -0.316228 90 53 0 255
150.000000 20.000000 -40.000000 0.948683 0.000000 -0.316228 90 53 0 255
160.000000 20.000000 -10.000000 0.948683 0.000000 -0.316228 90 53 0 255
-80.000000 0.000000 -60.000000 -0.274721 0.000000 -0.961524 90 53 0 255
-150.000000 0.000000 -40.000000 -0.274721 0.000000 -0.961524 90 53 0 255
-150.000000 20.000000 -40.000000 -0.274721 0.000000 -0.961524 90 53 0 255
-80.000000 20.000000 -60.000000 -0.274721 0.000000 -0.961524 90 53 0 255
-150.000000 0.000000 -40.000000 -0.948683 0.000000 -0.316228 90 53 0 255
-160.000000 0.000000 -10.000000 -0.948683 0.000000 -0.316228 90 53 0 255
-160.000000 20.000000 -10.000000 -0.948683 0.000000 -0.316228 90 53 0 255
-150.000000 20.000000 -40.000000 -0.948683 0.000000 -0.316228 90 53 0 255
150.000000 0.000000 -40.000000 0.274721 0.000000 -0.961524 90 53 0 255
80.000000 0.000000 -60.000000 0.274721 0.000000 -0.961524 90 53 0 255
80.000000 20.000000 -60.000000 0.274721 0.000000 -0.961524 90 53 0 255
150.000000 20.000000 -40.000000 0.274721 0.000000 -0.961524 90 53 0 255
0.000000 0.000000 -70.000000 -0.124035 0.000000 -0.992278 90 53 0 255
-80.000000 0.000000 -60.000000 -0.124035 0.000000 -0.992278 90 53 0 255
-80.000000 20.000000 -60.000000 -0.124035 0.000000 -0.992278 90 53 0 255
0.000000 20.000000 -70.000000 -0.124035 0.000000 -0.992278 90 53 0 255
-160.000000 0.000000 -10.000000 0.000000 0.000000 1.000000 90 53 0 255
-100.000000 0.000000 -10.000000 0.000000 0.000000 1.000000 90 53 0 255
-100.000000 20.000000 -10.000000 0.000000 0.000000 1.000000 90 53 0 255
-160.000000 20.000000 -10.000000 0.000000 0.000000 1.000000 90 53 0 255
-100.000000 0.000000 -10.000000 -0.242536 0.000000 0.970142 90 53 0 255
-60.000000 0.000000 0.000000 -0.242536 0.000000 0.970142 90 53 0 255
-60.000000 20.000000 0.000000 -0.242536 0.000000 0.970142 90 53 0 255
-100.000000 20.000000 -10.000000 -0.242536 0.000000 0.970142 90 53 0 255
100.000000 0.000000 -10.000000 0.000000 0.000000 1.000000 90 53 0 255
160.000000 0.000000 -10.000000 0.000000 0.000000 1.000000 90 53 0 255
160.000000 20.000000 -10.000000 0.000000 0.000000 1.000000 90 53 0 255
100.000000 20.000000 -10.000000 0.000000 0.000000 1.000000 90 53 0 255
80.000000 20.000000 -60.000000 0.120859 0.224836 -0.966872 90 53 0 255
0.000000 20.000000 -70.000000 0.120859 0.224836 -0.966872 90 53 0 255
0.000000 50.000000 -63.023830 0.120859 0.224836 -0.966872 90 53 0 255
66.654282 50.000000 -54.692043 0.120859 0.224836 -0.966872 90 53 0 255
100.000000 20.000000 -10.000000 0.000000 0.100591 0.994928 90 53 0 255
160.000000 20.000000 -10.000000 0.000000 0.100591 0.994928 90 53 0 255
133.308563 50.000000 -13.033118 0.000000 0.100591 0.994928 90 53 0 255
83.317856 50.000000 -13.033118 0.000000 0.100591 0.994928 90 53 0 255
60.000000 20.000000 0.000000 0.236211 0.226878 0.944844 90 53 0 255
100.000000 20.000000 -10.000000 0.236211 0.226878 0.944844 90 53 0 255
83.317856 50.000000 -13.033118 0.236211 0.226878 0.944844 90 53 0 255
49.990711 50.000000 -4.701332 0.236211 0.226878 0.944844 90 53 0 255
-60.000000 20.000000 0.000000 0.000000 0.154822 0.987943 90 53 0 255
60.000000 20.000000 0.000000 0.000000 0.154822 0.987943 90 53 0 255
49.990711 50.000000 -4.701332 0.000000 0.154822 0.987943 90 53 0 255
-49.990711 50.000000 -4.701332 0.000000 0.154822 0.987943 90 53 0 255
160.000000 20.000000 -10.000000 0.736436 0.630399 -0.245479 90 53 0 255
150.000000 20.000000 -40.000000 0.736436 0.630399 -0.245479 90 53 0 255
124.976776 50.000000 -38.028473 0.736436 0.630399 -0.245479 90 53 0 255
133.308563 50.000000 -13.033118 0.736436 0.630399 -0.245479 90 53 0 255
-80.000000 20.000000 -60.000000 -0.263685 0.280592 -0.922897 90 53 0 255
-150.000000 20.000000 -40.000000 -0.263685 0.280592 -0.922897 90 53 0 255
-124.976776 50.000000 -38.028473 -0.263685 0.280592 -0.922897 90 53 0 255
-66.654282 50.000000 -54.692043 -0.263685 0.280592 -0.922897 90 53 0 255
-150.000000 20.000000 -40.000000 -0.736436 0.630399 -0.245479 90 53 0 255
-160.000000 20.000000 -10.000000 -0.736436 0.630399 -0.245479 90 53 0 255
-133.308563 50.000000 -13.033118 -0.736436 0.630399 -0.245479 90 53 0 255
-124.976776 50.000000 -38.028473 -0.736436 0.630399 -0.245479 90 53 0 255
150.000000 20.000000 -40.000000 0.263685 0.280592 -0.922897 90 53 0 255
80.000000 20.000000 -60.000000 0.263685 0.280592 -0.922897 90 53 0 255
66.654282 50.000000 -54.692043 0.263685 0.280592 -0.922897 90 53 0 255
124.976776 50.000000 -38.028473 0.263685 0.280592 -0.922897 90 53 0 255
-100.000000 20.000000 -10.000000 -0.236211 0.226878 0.944844 90 53 0 255
-60.000000 20.000000 0.000000 -0.236211 0.226878 0.944844 90 53 0 255
-49.990711 50.000000 -4.701332 -0.236211 0.226878 0.944844 90 53 0 255
-83.317856 50.000000 -13.033118 -0.236211 0.226878 0.944844 90 53 0 255
0.000000 20.000000 -70.000000 -0.120859 0.224836 -0.966872 90 53 0 255
-80.000000 20.000000 -60.000000 -0.120859 0.224836 -0.966872 90 53 0 255
-66.654282 50.000000 -54.692043 -0.120859 0.224836 -0.966872 90 53 0 255
0.000000 50.000000 -63.023830 -0.120859 0.224836 -0.966872 90 53 0 255
-160.000000 20.000000 -10.000000 0.000000 0.100591 0.994928 90 53 0 255
-100.000000 20.000000 -10.000000 0.000000 0.100591 0.994928 90 53 0 255
-83.317856 50.000000 -13.033118 0.000000 0.100591 0.994928 90 53 0 255
-133.308563 50.000000 -13.033118 0.000000 0.100591 0.994928 90 53 0 255
-133.308563 50.000000 -13.033118 0.000000 0.338039 0.941132 90 53 0 255
-83.317856 50.000000 -13.033118 0.000000 0.338039 0.941132 90 53 0 255
-43.807652 70.000000 -20.216793 0.000000 0.338039 0.941132 90 53 0 255
-70.092239 70.000000 -20.216793 0.000000 0.338039 0.941132 90 53 0 255
66.654282 50.000000 -54.692043 0.095924 0.633961 -0.767393 90 53 0 255
0.000000 50.000000 -63.023830 0.095924 0.633961 -0.767393 90 53 0 255
-0.000001 70.000000 -46.501385 0.095924 0.633961 -0.767393 90 53 0 255
35.046120 70.000000 -42.120617 0.095924 0.633961 -0.767393 90 53 0 255
-83.317856 50.000000 -13.033118 -0.186848 0.637570 0.747391 90 53 0 255
-49.990711 50.000000 -4.701332 -0.186848 0.637570 0.747391 90 53 0 255
-26.284590 70.000000 -15.836026 -0.186848 0.637570 0.747391 90 53 0 255
-43.807652 70.000000 -20.216793 -0.186848 0.637570 0.747391 90 53 0 255
83.317856 50.000000 -13.033118 0.000000 0.338039 0.941132 90 53 0 255
133.308563 50.000000 -13.033118 0.000000 0.338039 0.941132 90 53 0 255
70.092239 70.000000 -20.216793 0.000000 0.338039 0.941132 90 53 0 255
43.807652 70.000000 -20.216793 0.000000 0.338039 0.941132 90 53 0 255
49.990711 50.000000 -4.701332 0.186848 0.637570 0.747391 90 53 0 255
83.317856 50.000000 -13.033118 0.186848 0.637570 0.747391 90 53 0 255
43.807652 70.000000 -20.216793 0.186848 0.637570 0.747391 90 53 0 255
26.284590 70.000000 -15.836026 0.186848 0.637570 0.747391 90 53 0 255
-49.990711 50.000000 -4.701332 0.000000 0.486430 0.873720 90 53 0 255
49.990711 50.000000 -4.701332 0.000000 0.486430 0.873720 90 53 0 255
26.284590 70.000000 -15.836026 0.000000 0.486430 0.873720 90 53 0 255
-26.284590 70.000000 -15.836026 0.000000 0.486430 0.873720 90 53 0 255
133.308563 50.000000 -13.033118 0.310695 0.944851 -0.103565 90 53 0 255
124.976776 50.000000 -38.028473 0.310695 0.944851 -0.103565 90 53 0 255
65.711472 70.000000 -33.359085 0.310695 0.944851 -0.103565 90 53 0 255
70.092239 70.000000 -20.216793 0.310695 0.944851 -0.103565 90 53 0 255
-66.654282 50.000000 -54.692043 -0.190549 0.720352 -0.666921 90 53 0 255
-124.976776 50.000000 -38.028473 -0.190549 0.720352 -0.666921 90 53 0 255
-65.711472 70.000000 -33.359085 -0.190549 0.720352 -0.666921 90 53 0 255
-35.046120 70.000000 -42.120617 -0.190549 0.720352 -0.666921 90 53 0 255
-124.976776 50.000000 -38.028473 -0.310695 0.944851 -0.103565 90 53 0 255
-133.308563 50.000000 -13.033118 -0.310695 0.944851 -0.103565 90 53 0 255
-70.092239 70.000000 -20.216793 -0.310695 0.944851 -0.103565 90 53 0 255
-65.711472 70.000000 -33.359085 -0.310695 0.944851 -0.103565 90 53 0 255
124.976776 50.000000 -38.028473 0.190549 0.720352 -0.666921 90 53 0 255
66.654282 50.000000 -54.692043 0.190549 0.720352 -0.666921 90 53 0 255
35.046120 70.000000 -42.120617 0.190549 0.720352 -0.666921 90 53 0 255
65.711472 70.000000 -33.359085 0.190549 0.720352 -0.666921 90 53 0 255
0.000000 50.000000 -63.023830 -0.095924 0.633961 -0.767393 90 53 0 255
-66.654282 50.000000 -54.692043 -0.095924 0.633961 -0.767393 90 53 0 255
-35.046120 70.000000 -42.120617 -0.095924 0.633961 -0.767393 90 53 0 255
-0.000001 70.000000 -46.501385 -0.095924 0.633961 -0.767393 90 53 0 255
80.000000 0.000000 40.000000 0.894427 0.000000 -0.447214 90 53 0 255
77.000000 0.000000 34.000000 0.894427 0.000000 -0.447214 90 53 0 255
80.000000 4.683190 40.000000 0.894427 0.000000 -0.447214 90 53 0 255
74.000000 0.000000 40.000000 0.894427 0.000000 0.447214 90 53 0 255
77.000000 0.000000 34.000000 0.894427 0.000000 0.447214 90 53 0 255
74.000000 4.683190 40.000000 0.894427 0.000000 0.447214 90 53 0 255
-80.000000 0.000000 40.000000 0.894427 0.000000 0.447214 90 53 0 255
-77.000000 0.000000 34.000000 0.894427 0.000000 0.447214 90 53 0 255
-80.000000 4.683190 40.000000 0.894427 0.000000 0.447214 90 53 0 255
-74.000000 0.000000 40.000000 0.894427 0.000000 -0.447214 90 53 0 255
-77.000000 0.000000 34.000000 0.894427 0.000000 -0.447214 90 53 0 255
-74.000000 4.683190 40.000000 0.894427 0.000000 -0.447214 90 53 0 255
-80.000000 0.000000 40.000000 0.000000 0.000000 1.000000 90 53 0 255
-74.000000 0.000000 40.000000 0.000000 0.000000 1.000000 90 53 0 255
-74.000000 4.683190 40.000000 0.000000 0.000000 1.000000 90 53 0 255
-80.000000 4.683190 40.000000 0.000000 0.000000 1.000000 90 53 0 255
74.000000 0.000000 40.000000 0.000000 0.000000 1.000000 90 53 0 255
80.000000 0.000000 40.000000 0.000000 0.000000 1.000000 90 53 0 255
80.000000 4.683190 40.000000 0.000000 0.000000 1.000000 90 53 0 255
74.000000 4.683190 40.000000 0.000000 0.000000 1.000000 90 53 0 255
-74.000000 4.683190 40.000000 0.000000 0.788299 -0.615292 90 53 0 255
-77.000000 0.000000 34.000000 0.000000 0.788299 -0.615292 90 53 0 255
-80.000000 4.683190 40.000000 0.000000 0.788299 -0.615292 90 53 0 255
80.000000 4.683190 40.000000 0.000000 0.788299 -0.615292 90 53 0 255
77.000000 0.000000 34.000000 0.000000 0.788299 -0.615292 90 53 0 255
74.000000 4.683190 40.000000 0.000000 0.788299 -0.615292 90 53 0 255
1920.839233 0.000000 -600.000000 -0.495416 -0.078466 0.865104 168 99 0 255
3841.678467 0.000000 500.000061 -0.495416 -0.078466 0.865104 199 117 0 255
3653.653320 1187.143921 500.000061 -0.495416 -0.078466 0.865104 199 117 0 255
1826.826660 593.571960 -600.000000 -0.495416 -0.078466 0.865104 168 99 0 255
1826.826660 593.571960 -600.000000 -0.446921 -0.227718 0.865105 168 99 0 255
3653.653320 1187.143921 500.000061 -0.446921 -0.227718 0.865105 199 117 0 255
3107.983398 2258.082031 500.000061 -0.446921 -0.227718 0.865105 199 117 0 255
1553.991699 1129.041016 -600.000000 -0.446921 -0.227718 0.865105 168 99 0 255
1553.991699 1129.041016 -600.000000 -0.354679 -0.354679 0.865104 168 99 0 255
3107.983398 2258.082031 500.000061 -0.354679 -0.354679 0.865104 199 117 0 255
2258.082275 3107.983398 500.000061 -0.354679 -0.354679 0.865104 199 117 0 255
1129.041138 1553.991699 -600.000000 -0.354679 -0.354679 0.865104 168 99 0 255
1129.041138 1553.991699 -600.000000 -0.227718 -0.446921 0.865104 168 99 0 255
2258.082275 3107.983398 500.000061 -0.227718 -0.446921 0.865104 199 117 0 255
1187.144287 3653.653809 500.000061 -0.227718 -0.446921 0.865104 199 117 0 255
593.572144 1826.826904 -600.000000 -0.227718 -0.446921 0.865104 168 99 0 255
593.572144 1826.826904 -600.000000 -0.078466 -0.495416 0.865104 168 99 0 255
1187.144287 3653.653809 500.000061 -0.078466 -0.495416 0.865104 199 117 0 255
0.000126 3841.679199 500.000061 -0.078466 -0.495416 0.865104 199 117 0 255
0.000063 1920.839600 -600.000000 -0.078466 -0.495416 0.865104 168 99 0 255
0.000063 1920.839600 -600.000000 0.078466 -0.495416 0.865104 168 99 0 255
0.000126 3841.679199 500.000061 0.078466 -0.495416 0.865104 199 117 0 255
-1187.144043 3653.654053 500.000061 0.078466 -0.495416 0.865104 199 117 0 255
-593.572021 1826.827026 -600.000000 0.078466 -0.495416 0.865104 168 99 0 255
-593.572021 1826.827026 -600.000000 0.227718 -0.446921 0.865105 168 99 0 255
-1187.144043 3653.654053 500.000061 0.227718 -0.446921 0.865105 199 117 0 255
-2258.082275 3107.983643 500.000061 0.227718 -0.446921 0.865105 199 117 0 255
-1129.041138 1553.991821 -600.000000 0.227718 -0.446921 0.865105 168 99 0 255
-1129.041138 1553.991821 -600.000000 0.354679 -0.354679 0.865105 168 99 0 255
-2258.082275 3107.983643 500.000061 0.354679 -0.354679 0.865105 199 117 0 255
-3107.983887 2258.082275 500.000061 0.354679 -0.354679 0.865105 199 117 0 255
-1553.991943 1129.041138 -600.000000 0.354679 -0.354679 0.865105 168 99 0 255
-1553.991943 1129.041138 -600.000000 0.446921 -0.227718 0.865105 168 99 0 255
-3107.983887 2258.082275 500.000061 0.446921 -0.227718 0.865105 199 117 0 255
-3653.654297 1187.144165 500.000061 0.446921 -0.227718 0.865105 199 117 0 255
-1826.827148 593.572083 -600.000000 0.446921 -0.227718 0.865105 168 99 0 255
-1826.827148 593.572083 -600.000000 0.495416 -0.078466 0.865104 168 99 0 255
-3653.654297 1187.144165 500.000061 0.495416 -0.078466 0.865104 199 117 0 255
-3841.679443 0.000000 500.000061 0.495416 -0.078466 0.865104 199 117 0 255
-1920.839722 0.000000 -600.000000 0.495416 -0.078466 0.865104 168 99 0 255
0.000000 0.000000 -600.000000 -0.000000 0.000000 1.000000 0 0 0 255
-1826.827148 593.572083 -600.000000 -0.000000 0.000000 1.000000 168 99 0 255
-1920.839722 0.000000 -600.000000 -0.000000 0.000000 1.000000 168 99 0 255
-1553.991943 1129.041138 -600.000000 -0.000000 0.000000 1.000000 168 99 0 255
-1129.041138 1553.991821 -600.000000 -0.000000 0.000000 1.000000 168 99 0 255
-593.572021 1826.827026 -600.000000 -0.000000 0.000000 1.000000 168 99 0 255
0.000063 1920.839600 -600.000000 -0.000000 0.000000 1.000000 168 99 0 255
593.572144 1826.826904 -600.000000 0.000000 0.000000 1.000000 168 99 0 255
1129.041138 1553.991699 -600.000000 0.000000 0.000000 1.000000 168 99 0 255
1553.991699 1129.041016 -600.000000 0.000000 0.000000 1.000000 168 99 0 255
1826.826660 593.571960 -600.000000 0.000000 0.000000 1.000000 168 99 0 255
1920.839233 0.000000 -600.000000 0.000000 0.000000 1.000000 168 99 0 255
-1187.144043 3653.654053 500.000061 0.140374 -0.886290 0.441344 199 117 0 255
0.000126 3841.679199 500.000061 0.140374 -0.886290 0.441344 199 117 0 255
0.000138 4190.256348 1200.000000 0.140374 -0.886290 0.441344 255 141 0 255
-1294.860352 3985.170898 1200.000000 0.140374 -0.886290 0.441344 255 141 0 255
2258.082275 3107.983398 500.000061 -0.634514 -0.634514 0.441344 199 117 0 255
3107.983398 2258.082031 500.000061 -0.634514 -0.634514 0.441344 199 117 0 255
3389.988281 2462.970703 1200.000000 -0.634514 -0.634514 0.441344 255 141 0 255
2462.970947 3389.988281 1200.000000 -0.634514 -0.634514 0.441344 255 141 0 255
-3653.654297 1187.144165 500.000061 0.799534 -0.407383 0.441344 199 117 0 255
-3107.983887 2258.082275 500.000061 0.799534 -0.407383 0.441344 199 117 0 255
-3389.989014 2462.970947 1200.000000 0.799534 -0.407383 0.441344 255 141 0 255
-3985.171143 1294.860474 1200.000000 0.799534 -0.407383 0.441344 255 141 0 255
1187.144287 3653.653809 500.000061 -0.407383 -0.799534 0.441344 199 117 0 255
2258.082275 3107.983398 500.000061 -0.407383 -0.799534 0.441344 199 117 0 255
2462.970947 3389.988281 1200.000000 -0.407383 -0.799534 0.441344 255 141 0 255
1294.860596 3985.170654 1200.000000 -0.407383 -0.799534 0.441344 255 141 0 255
-3841.679443 0.000000 500.000061 0.886290 -0.140375 0.441344 199 117 0 255
-3653.654297 1187.144165 500.000061 0.886290 -0.140375 0.441344 199 117 0 255
-3985.171143 1294.860474 1200.000000 0.886290 -0.140375 0.441344 255 141 0 255
-4190.256836 0.000000 1200.000000 0.886290 -0.140375 0.441344 255 155 16 255
3653.653320 1187.143921 500.000061 -0.886290 -0.140375 0.441344 199 117 0 255
3841.678467 0.000000 500.000061 -0.886290 -0.140375 0.441344 199 117 0 255
4190.255859 0.000000 1200.000000 -0.886290 -0.140375 0.441344 255 255 255 255
3985.169922 1294.860229 1200.000000 -0.886290 -0.140375 0.441344 255 141 0 255
-2258.082275 3107.983643 500.000061 0.407383 -0.799534 0.441344 199 117 0 255
-1187.144043 3653.654053 500.000061 0.407383 -0.799534 0.441344 199 117 0 255
-1294.860352 3985.170898 1200.000000 0.407383 -0.799534 0.441344 255 141 0 255
-2462.970947 3389.988525 1200.000000 0.407383 -0.799534 0.441344 255 141 0 255
0.000126 3841.679199 500.000061 -0.140375 -0.886290 0.441344 199 117 0 255
1187.144287 3653.653809 500.000061 -0.140375 -0.886290 0.441344 199 117 0 255
1294.860596 3985.170654 1200.000000 -0.140375 -0.886290 0.441344 255 141 0 255
0.000138 4190.256348 1200.000000 -0.140375 -0.886290 0.441344 255 141 0 255
3107.983398 2258.082031 500.000061 -0.799534 -0.407383 0.441344 199 117 0 255
3653.653320 1187.143921 500.000061 -0.799534 -0.407383 0.441344 199 117 0 255
3985.169922 1294.860229 1200.000000 -0.799534 -0.407383 0.441344 255 141 0 255
3389.988281 2462.970703 1200.000000 -0.799534 -0.407383 0.441344 255 141 0 255
-3107.983887 2258.082275 500.000061 0.634514 -0.634514 0.441344 199 117 0 255
-2258.082275 3107.983643 500.000061 0.634514 -0.634514 0.441344 199 117 0 255
-2462.970947 3389.988525 1200.000000 0.634514 -0.634514 0.441344 255 141 0 255
-3389.989014 2462.970947 1200.000000 0.634514 -0.634514 0.441344 255 141 0 255
2629.618408 3619.358887 953.008118 -0.707107 -0.707107 0.000000 151 89 0 255
3619.358887 2629.618164 953.008118 -0.707107 -0.707107 0.000000 151 89 0 255
3619.358887 2629.618164 3553.008057 -0.707107 -0.707107 0.000000 0 0 0 255
2629.618408 3619.358887 3553.008057 -0.707107 -0.707107 0.000000 0 0 0 255
-4473.774414 0.000000 953.008118 0.987688 -0.156434 0.000000 151 89 0 255
-4254.812500 1382.472290 953.008118 0.987688 -0.156434 0.000000 151 89 0 255
-4254.812500 1382.472290 3553.008057 0.987688 -0.156434 0.000000 0 0 0 255
-4473.774414 0.000000 3553.008057 0.987688 -0.156434 0.000000 0 0 0 255
-2629.618408 3619.359131 953.008118 0.453991 -0.891006 0.000000 151 89 0 255
-1382.472168 4254.812012 953.008118 0.453991 -0.891006 0.000000 151 89 0 255
-1382.472168 4254.812012 3553.008057 0.453991 -0.891006 0.000000 0 0 0 255
-2629.618408 3619.359131 3553.008057 0.453991 -0.891006 0.000000 0 0 0 255
1382.472412 4254.812012 953.008118 -0.453991 -0.891006 0.000000 151 89 0 255
2629.618408 3619.358887 953.008118 -0.453991 -0.891006 0.000000 151 89 0 255
2629.618408 3619.358887 3553.008057 -0.453991 -0.891006 0.000000 0 0 0 255
1382.472412 4254.812012 3553.008057 -0.453991 -0.891006 0.000000 0 0 0 255
4254.811035 1382.471924 953.008118 -0.987688 -0.156435 0.000000 151 89 0 255
4473.773438 0.000000 953.008118 -0.987688 -0.156435 0.000000 151 89 0 255
4473.773438 0.000000 3553.008057 -0.987688 -0.156435 0.000000 0 0 0 255
4254.811035 1382.471924 3553.008057 -0.987688 -0.156435 0.000000 0 0 0 255
-3619.359619 2629.618408 953.008118 0.707107 -0.707107 0.000000 151 89 0 255
-2629.618408 3619.359131 953.008118 0.707107 -0.707107 0.000000 151 89 0 255
-2629.618408 3619.359131 3553.008057 0.707107 -0.707107 0.000000 0 0 0 255
-3619.359619 2629.618408 3553.008057 0.707107 -0.707107 0.000000 0 0 0 255
0.000147 4473.773926 953.008118 -0.156434 -0.987688 0.000000 151 89 0 255
1382.472412 4254.812012 953.008118 -0.156434 -0.987688 0.000000 151 89 0 255
1382.472412 4254.812012 3553.008057 -0.156434 -0.987688 0.000000 0 0 0 255
0.000147 4473.773926 3553.008057 -0.156434 -0.987688 0.000000 0 0 0 255
3619.358887 2629.618164 953.008118 -0.891007 -0.453990 0.000000 151 89 0 255
4254.811035 1382.471924 953.008118 -0.891007 -0.453990 0.000000 151 89 0 255
4254.811035 1382.471924 3553.008057 -0.891007 -0.453990 0.000000 0 0 0 255
3619.358887 2629.618164 3553.008057 -0.891007 -0.453990 0.000000 0 0 0 255
-4254.812500 1382.472290 953.008118 0.891006 -0.453991 0.000000 151 89 0 255
-3619.359619 2629.618408 953.008118 0.891006 -0.453991 0.000000 151 89 0 255
-3619.359619 2629.618408 3553.008057 0.891006 -0.453991 0.000000 0 0 0 255
-4254.812500 1382.472290 3553.008057 0.891006 -0.453991 0.000000 0 0 0 255
-1382.472168 4254.812012 953.008118 0.156434 -0.987688 0.000000 151 89 0 255
0.000147 4473.773926 953.008118 0.156434 -0.987688 0.000000 151 89 0 255
0.000147 4473.773926 3553.008057 0.156434 -0.987688 0.000000 0 0 0 255
-1382.472168 4254.812012 3553.008057 0.156434 -0.987688 0.000000 0 0 0 255
4 0 1 2 3
4 4 5 6 7
4 8 9 10 11
4 12 13 14 15
4 16 17 18 19
4 20 21 22 23
4 24 25 26 27
4 28 29 30 31
4 32 33 34 35
4 36 37 38 39
4 40 41 42 43
4 44 45 46 47
4 48 49 50 51
4 52 53 54 55
4 56 57 58 59
4 60 61 62 63
4 64 65 66 67
4 68 69 70 71
4 72 73 74 75
4 76 77 78 79
4 80 81 82 83
4 84 85 86 87
4 88 89 90 91
4 92 93 94 95
4 96 97 98 99
4 100 101 102 103
4 104 105 106 107
4 108 109 110 111
4 112 113 114 115
4 116 117 118 119
4 120 121 122 123
4 124 125 126 127
4 128 129 130 131
3 132 133 134
3 135 136 137
3 138 139 140
3 141 142 143
4 144 145 146 147
4 148 149 150 151
3 152 153 154
3 155 156 157
4 158 159 160 161
4 162 163 164 165
4 166 167 168 169
4 170 171 172 173
4 174 175 176 177
4 178 179 180 181
4 182 183 184 185
4 186 187 188 189
4 190 191 192 193
4 194 195 196 197
3 198 199 200
3 198 201 199
3 198 202 201
3 198 203 202
3 198 204 203
3 198 205 204
3 198 206 205
3 198 207 206
3 198 208 207
3 198 209 208
4 210 211 212 213
4 214 215 216 217
4 218 219 220 221
4 222 223 224 225
4 226 227 228 229
4 230 231 232 233
4 234 235 236 237
4 238 239 240 241
4 242 243 244 245
4 246 247 248 249
4 250 251 252 253
4 254 255 256 257
4 258 259 260 261
4 262 263 264 265
4 266 267 268 269
4 270 271 272 273
4 274 275 276 277
4 278 279 280 281
4 282 283 284 285
4 286 287 288 289
