ply
format ascii 1.0
comment Created by Blender 3.0.0 - www.blender.org
element vertex 220
property float x
property float y
property float z
property float nx
property float ny
property float nz
property uchar red
property uchar green
property uchar blue
property uchar alpha
element face 64
property list uchar uint vertex_indices
end_header
-20.578806 179.594727 179.300980 0.547601 0.771212 0.324601 73 73 73 255
2.843229 131.379150 254.342316 0.547601 0.771212 0.324601 73 73 73 255
1.804887 167.777649 169.615662 0.547601 0.771212 0.324601 73 73 73 255
-5.363016 198.396439 191.526123 0.809153 -0.346045 -0.474895 73 73 73 255
2.843229 131.379150 254.342316 0.809153 -0.346045 -0.474895 73 73 73 255
-20.578806 179.594727 179.300980 0.809153 -0.346045 -0.474895 73 73 73 255
17.020676 186.579361 181.840790 -0.824376 0.516347 0.231925 73 73 73 255
1.804887 167.777649 169.615662 -0.824376 0.516347 0.231925 73 73 73 255
2.843229 131.379150 254.342316 -0.824376 0.516347 0.231925 73 73 73 255
-5.363016 198.396439 191.526123 -0.562825 -0.600909 -0.567571 73 73 73 255
17.020676 186.579361 181.840790 -0.562825 -0.600909 -0.567571 73 73 73 255
2.843229 131.379150 254.342316 -0.562825 -0.600909 -0.567571 73 73 73 255
140.000000 0.000015 20.000015 -0.980785 -0.195090 0.000000 102 102 102 255
140.000000 0.000000 179.332916 -0.980785 -0.195090 0.000000 102 102 102 255
129.343170 53.575668 179.332916 -0.980785 -0.195090 0.000000 102 102 102 255
129.343140 53.575684 20.000000 -0.980785 -0.195090 0.000000 102 102 102 255
0.000000 0.000015 -0.000015 -0.000000 0.000001 1.000000 102 102 102 255
100.000000 0.000015 0.000015 -0.000000 0.000001 1.000000 102 102 102 255
92.387962 38.268356 -0.000015 -0.000000 0.000001 1.000000 102 102 102 255
0.000000 0.000015 -0.000015 -0.000000 0.000001 1.000000 102 102 102 255
140.000000 0.000000 179.332916 -0.293584 -0.058397 0.954148 73 73 73 255
400.000031 -0.000015 259.332916 -0.293584 -0.058397 0.954148 0 0 0 255
369.551819 153.073364 259.332916 -0.293584 -0.058397 0.954148 0 0 0 255
129.343170 53.575668 179.332916 -0.293584 -0.058397 0.954148 73 73 73 255
100.000000 0.000015 0.000015 -0.445455 -0.088606 0.890909 102 102 102 255
140.000000 0.000015 20.000015 -0.445455 -0.088606 0.890909 102 102 102 255
129.343140 53.575684 20.000000 -0.445455 -0.088606 0.890909 102 102 102 255
92.387962 38.268356 -0.000015 -0.445455 -0.088606 0.890909 102 102 102 255
129.343170 53.575668 179.332916 -0.248889 -0.166302 0.954148 73 73 73 255
369.551819 153.073364 259.332916 -0.248889 -0.166302 0.954148 0 0 0 255
282.842743 282.842712 259.332886 -0.248889 -0.166302 0.954148 0 0 0 255
98.994987 98.994965 179.332916 -0.248889 -0.166302 0.954148 73 73 73 255
92.387962 38.268356 -0.000015 -0.377638 -0.252330 0.890909 102 102 102 255
129.343140 53.575684 20.000000 -0.377638 -0.252330 0.890909 102 102 102 255
98.994957 98.994949 19.999985 -0.377638 -0.252330 0.890909 102 102 102 255
70.710686 70.710693 0.000000 -0.377638 -0.252330 0.890909 102 102 102 255
129.343140 53.575684 20.000000 -0.831470 -0.555570 0.000000 102 102 102 255
129.343170 53.575668 179.332916 -0.831470 -0.555570 0.000000 102 102 102 255
98.994987 98.994965 179.332916 -0.831470 -0.555570 0.000000 102 102 102 255
98.994957 98.994949 19.999985 -0.831470 -0.555570 0.000000 102 102 102 255
0.000000 0.000015 -0.000015 0.000000 -0.000000 1.000000 102 102 102 255
92.387962 38.268356 -0.000015 0.000000 -0.000000 1.000000 102 102 102 255
70.710686 70.710693 0.000000 0.000000 -0.000000 1.000000 102 102 102 255
0.000000 0.000015 -0.000015 0.000000 -0.000000 1.000000 102 102 102 255
38.268349 92.387970 0.000015 0.000000 -0.000000 1.000000 102 102 102 255
0.000000 0.000015 -0.000015 0.000000 -0.000000 1.000000 102 102 102 255
98.994987 98.994965 179.332916 -0.166302 -0.248888 0.954148 73 73 73 255
282.842743 282.842712 259.332886 -0.166302 -0.248888 0.954148 0 0 0 255
153.073425 369.551819 259.332886 -0.166302 -0.248888 0.954148 0 0 0 255
53.575726 129.343155 179.332916 -0.166302 -0.248888 0.954148 73 73 73 255
70.710686 70.710693 0.000000 -0.252329 -0.377638 0.890909 102 102 102 255
98.994957 98.994949 19.999985 -0.252329 -0.377638 0.890909 102 102 102 255
53.575691 129.343140 20.000015 -0.252329 -0.377638 0.890909 102 102 102 255
38.268349 92.387970 0.000015 -0.252329 -0.377638 0.890909 102 102 102 255
98.994957 98.994949 19.999985 -0.555570 -0.831470 0.000000 102 102 102 255
98.994987 98.994965 179.332916 -0.555570 -0.831470 0.000000 102 102 102 255
53.575726 129.343155 179.332916 -0.555570 -0.831470 0.000000 102 102 102 255
53.575691 129.343140 20.000015 -0.555570 -0.831470 0.000000 102 102 102 255
53.575691 129.343140 20.000015 -0.195091 -0.980785 0.000000 102 102 102 255
53.575726 129.343155 179.332916 -0.195091 -0.980785 0.000000 102 102 102 255
0.000035 140.000031 179.332901 -0.195091 -0.980785 0.000000 102 102 102 255
0.000010 140.000031 20.000015 -0.195091 -0.980785 0.000000 102 102 102 255
0.000008 100.000031 0.000015 -0.000000 -0.000000 1.000000 102 102 102 255
0.000000 0.000015 -0.000015 -0.000000 -0.000000 1.000000 102 102 102 255
53.575726 129.343155 179.332916 -0.058398 -0.293584 0.954148 73 73 73 255
153.073425 369.551819 259.332886 -0.058398 -0.293584 0.954148 0 0 0 255
0.000039 400.000061 259.332886 -0.058398 -0.293584 0.954148 0 0 0 255
0.000035 140.000031 179.332901 -0.058398 -0.293584 0.954148 73 73 73 255
38.268349 92.387970 0.000015 -0.088607 -0.445455 0.890909 102 102 102 255
53.575691 129.343140 20.000015 -0.088607 -0.445455 0.890909 102 102 102 255
0.000010 140.000031 20.000015 -0.088607 -0.445455 0.890909 102 102 102 255
0.000008 100.000031 0.000015 -0.088607 -0.445455 0.890909 102 102 102 255
0.000010 140.000031 20.000015 0.195090 -0.980785 0.000000 102 102 102 255
0.000035 140.000031 179.332901 0.195090 -0.980785 0.000000 102 102 102 255
-53.575657 129.343170 179.332916 0.195090 -0.980785 0.000000 102 102 102 255
-53.575668 129.343155 20.000000 0.195090 -0.980785 0.000000 102 102 102 255
0.000000 0.000015 -0.000015 -0.000001 -0.000000 1.000000 102 102 102 255
0.000008 100.000031 0.000015 -0.000001 -0.000000 1.000000 102 102 102 255
-38.268337 92.387978 -0.000015 -0.000001 -0.000000 1.000000 102 102 102 255
0.000000 0.000015 -0.000015 -0.000001 -0.000000 1.000000 102 102 102 255
0.000035 140.000031 179.332901 0.058398 -0.293584 0.954148 73 73 73 255
0.000039 400.000061 259.332886 0.058398 -0.293584 0.954148 0 0 0 255
-153.073364 369.551880 259.332886 0.058398 -0.293584 0.954148 0 0 0 255
-53.575657 129.343170 179.332916 0.058398 -0.293584 0.954148 73 73 73 255
0.000008 100.000031 0.000015 0.088606 -0.445455 0.890909 102 102 102 255
0.000010 140.000031 20.000015 0.088606 -0.445455 0.890909 102 102 102 255
-53.575668 129.343155 20.000000 0.088606 -0.445455 0.890909 102 102 102 255
-38.268337 92.387978 -0.000015 0.088606 -0.445455 0.890909 102 102 102 255
-53.575668 129.343155 20.000000 0.555570 -0.831470 0.000000 102 102 102 255
-53.575657 129.343170 179.332916 0.555570 -0.831470 0.000000 102 102 102 255
-98.994934 98.994995 179.332916 0.555570 -0.831470 0.000000 102 102 102 255
-98.994949 98.994980 20.000000 0.555570 -0.831470 0.000000 102 102 102 255
0.000000 0.000015 -0.000015 0.000000 0.000000 1.000000 102 102 102 255
-38.268337 92.387978 -0.000015 0.000000 0.000000 1.000000 102 102 102 255
-70.710686 70.710709 0.000000 0.000000 0.000000 1.000000 102 102 102 255
0.000000 0.000015 -0.000015 0.000000 0.000000 1.000000 102 102 102 255
-53.575657 129.343170 179.332916 0.166302 -0.248888 0.954148 73 73 73 255
-153.073364 369.551880 259.332886 0.166302 -0.248888 0.954148 0 0 0 255
-282.842743 282.842773 259.332886 0.166302 -0.248888 0.954148 0 0 0 255
-98.994934 98.994995 179.332916 0.166302 -0.248888 0.954148 73 73 73 255
-38.268337 92.387978 -0.000015 0.252330 -0.377638 0.890909 102 102 102 255
-53.575668 129.343155 20.000000 0.252330 -0.377638 0.890909 102 102 102 255
-98.994949 98.994980 20.000000 0.252330 -0.377638 0.890909 102 102 102 255
-70.710686 70.710709 0.000000 0.252330 -0.377638 0.890909 102 102 102 255
-98.994949 98.994980 20.000000 0.831469 -0.555571 -0.000000 102 102 102 255
-98.994934 98.994995 179.332916 0.831469 -0.555571 -0.000000 102 102 102 255
-129.343124 53.575729 179.332901 0.831469 -0.555571 -0.000000 102 102 102 255
-129.343170 53.575729 20.000015 0.831469 -0.555571 -0.000000 102 102 102 255
-92.387962 38.268372 0.000000 0.000000 -0.000000 1.000000 102 102 102 255
0.000000 0.000015 -0.000015 0.000000 -0.000000 1.000000 102 102 102 255
-98.994934 98.994995 179.332916 0.248888 -0.166302 0.954148 73 73 73 255
-282.842743 282.842773 259.332886 0.248888 -0.166302 0.954148 0 0 0 255
-369.551849 153.073410 259.332886 0.248888 -0.166302 0.954148 0 0 0 255
-129.343124 53.575729 179.332901 0.248888 -0.166302 0.954148 73 73 73 255
-70.710686 70.710709 0.000000 0.377638 -0.252330 0.890909 102 102 102 255
-98.994949 98.994980 20.000000 0.377638 -0.252330 0.890909 102 102 102 255
-129.343170 53.575729 20.000015 0.377638 -0.252330 0.890909 102 102 102 255
-92.387962 38.268372 0.000000 0.377638 -0.252330 0.890909 102 102 102 255
-129.343170 53.575729 20.000015 0.980785 -0.195091 -0.000000 102 102 102 255
-129.343124 53.575729 179.332901 0.980785 -0.195091 -0.000000 102 102 102 255
-140.000031 0.000061 179.332916 0.980785 -0.195091 -0.000000 102 102 102 255
-140.000031 0.000031 19.999985 0.980785 -0.195091 -0.000000 102 102 102 255
-100.000000 0.000015 0.000015 0.000000 0.000000 1.000000 102 102 102 255
0.000000 0.000015 -0.000015 0.000000 0.000000 1.000000 102 102 102 255
-129.343124 53.575729 179.332901 0.293584 -0.058397 0.954148 73 73 73 255
-369.551849 153.073410 259.332886 0.293584 -0.058397 0.954148 0 0 0 255
-400.000061 0.000015 259.332886 0.293584 -0.058397 0.954148 0 0 0 255
-140.000031 0.000061 179.332916 0.293584 -0.058397 0.954148 73 73 73 255
-92.387962 38.268372 0.000000 0.445454 -0.088606 0.890909 102 102 102 255
-129.343170 53.575729 20.000015 0.445454 -0.088606 0.890909 102 102 102 255
-140.000031 0.000031 19.999985 0.445454 -0.088606 0.890909 102 102 102 255
-100.000000 0.000015 0.000015 0.445454 -0.088606 0.890909 102 102 102 255
51.452244 89.043449 81.306221 -0.993264 -0.115870 -0.000000 102 102 102 255
51.452244 89.043442 95.459351 -0.993264 -0.115870 -0.000000 102 102 102 255
45.944351 136.258484 95.459351 -0.993264 -0.115870 -0.000000 102 102 102 255
45.944359 136.258484 81.306213 -0.993264 -0.115870 -0.000000 102 102 102 255
105.719696 93.651894 81.306213 0.084616 -0.996414 -0.000000 102 102 102 255
105.719688 93.651894 95.459351 0.084616 -0.996414 -0.000000 102 102 102 255
51.452244 89.043442 95.459351 0.084616 -0.996414 -0.000000 102 102 102 255
51.452244 89.043449 81.306221 0.084616 -0.996414 -0.000000 102 102 102 255
78.502502 123.370697 56.428299 -0.623562 -0.072742 -0.778382 102 102 102 255
51.452244 89.043449 81.306221 -0.623562 -0.072742 -0.778382 102 102 102 255
45.944359 136.258484 81.306213 -0.623562 -0.072742 -0.778382 102 102 102 255
78.502502 123.370689 108.981956 0.033011 -0.388730 0.920760 102 102 102 255
51.452244 89.043442 95.459351 0.033011 -0.388730 0.920760 102 102 102 255
105.719688 93.651894 95.459351 0.033011 -0.388730 0.920760 102 102 102 255
78.502502 123.370697 56.428299 0.052021 -0.612581 -0.788694 102 102 102 255
105.719696 93.651894 81.306213 0.052021 -0.612581 -0.788694 102 102 102 255
51.452244 89.043449 81.306221 0.052021 -0.612581 -0.788694 102 102 102 255
78.502502 123.370689 108.981956 -0.398804 -0.046523 0.915855 102 102 102 255
45.944351 136.258484 95.459351 -0.398804 -0.046523 0.915855 102 102 102 255
51.452244 89.043442 95.459351 -0.398804 -0.046523 0.915855 102 102 102 255
-69.160294 94.015968 118.907043 0.259400 -0.965770 -0.000001 102 102 102 255
-69.160286 94.015961 133.060181 0.259400 -0.965770 -0.000001 102 102 102 255
-111.353119 82.683220 133.060196 0.259400 -0.965770 -0.000001 102 102 102 255
-111.353119 82.683228 118.907043 0.259400 -0.965770 -0.000001 102 102 102 255
-52.317326 137.356522 118.907043 0.932090 -0.362228 -0.000001 102 102 102 255
-52.317326 137.356506 133.060181 0.932090 -0.362228 -0.000001 102 102 102 255
-69.160286 94.015961 133.060181 0.932090 -0.362228 -0.000001 102 102 102 255
-69.160294 94.015968 118.907043 0.932090 -0.362228 -0.000001 102 102 102 255
-93.019882 111.915970 94.029129 0.188660 -0.702400 -0.686325 102 102 102 255
-69.160294 94.015968 118.907043 0.188660 -0.702400 -0.686325 102 102 102 255
-111.353119 82.683228 118.907043 0.188660 -0.702400 -0.686325 102 102 102 255
-93.019867 111.915962 146.582809 0.397022 -0.154290 0.904748 102 102 102 255
-69.160286 94.015961 133.060181 0.397022 -0.154290 0.904748 102 102 102 255
-52.317326 137.356506 133.060181 0.397022 -0.154290 0.904748 102 102 102 255
-93.019882 111.915970 94.029129 0.610237 -0.237150 -0.755891 102 102 102 255
-52.317326 137.356522 118.907043 0.610237 -0.237150 -0.755891 102 102 102 255
-69.160294 94.015968 118.907043 0.610237 -0.237150 -0.755891 102 102 102 255
-93.019867 111.915962 146.582809 0.129474 -0.482042 0.866529 102 102 102 255
-111.353119 82.683220 133.060196 0.129474 -0.482042 0.866529 102 102 102 255
-69.160286 94.015961 133.060181 0.129474 -0.482042 0.866529 102 102 102 255
-167.977631 77.995789 182.885315 0.330833 0.938467 -0.099145 73 73 73 255
-133.906311 75.032753 268.529358 0.330833 0.938467 -0.099145 73 73 73 255
-143.228149 68.649628 177.003967 0.330833 0.938467 -0.099145 73 73 73 255
-158.153564 103.222702 184.137802 0.875450 -0.323078 -0.359453 73 73 73 255
-133.906311 75.032753 268.529358 0.875450 -0.323078 -0.359453 73 73 73 255
-167.977631 77.995789 182.885315 0.875450 -0.323078 -0.359453 73 73 73 255
-133.404083 93.876541 178.256454 -0.930731 0.358989 0.069758 73 73 73 255
-143.228149 68.649628 177.003967 -0.930731 0.358989 0.069758 73 73 73 255
-133.906311 75.032753 268.529358 -0.930731 0.358989 0.069758 73 73 73 255
-158.153564 103.222702 184.137802 -0.386114 -0.902556 -0.190550 73 73 73 255
-133.404083 93.876541 178.256454 -0.386114 -0.902556 -0.190550 73 73 73 255
-133.906311 75.032753 268.529358 -0.386114 -0.902556 -0.190550 73 73 73 255
-111.407234 162.842941 181.504410 0.447481 0.880651 0.155608 73 73 73 255
-76.204262 130.985855 260.563965 0.447481 0.880651 0.155608 73 73 73 255
-88.207397 152.775848 171.762741 0.447481 0.880651 0.155608 73 73 73 255
-98.372795 185.261063 189.379028 0.818408 -0.304709 -0.487197 73 73 73 255
-76.204262 130.985855 260.563965 0.818408 -0.304709 -0.487197 73 73 73 255
-111.407234 162.842941 181.504410 0.818408 -0.304709 -0.487197 73 73 73 255
-75.172951 175.193985 179.637360 -0.874681 0.429971 0.223735 73 73 73 255
-88.207397 152.775848 171.762741 -0.874681 0.429971 0.223735 73 73 73 255
-76.204262 130.985855 260.563965 -0.874681 0.429971 0.223735 73 73 73 255
-98.372795 185.261063 189.379028 -0.503753 -0.755389 -0.419070 73 73 73 255
-75.172951 175.193985 179.637360 -0.503753 -0.755389 -0.419070 73 73 73 255
-76.204262 130.985855 260.563965 -0.503753 -0.755389 -0.419070 73 73 73 255
141.826874 75.185089 168.740234 0.007058 0.969385 0.245443 73 73 73 255
105.449547 54.634232 250.952667 0.007058 0.969385 0.245443 73 73 73 255
164.888702 71.533600 182.498779 0.007058 0.969385 0.245443 73 73 73 255
139.901611 100.338745 178.643005 0.918817 -0.081692 0.386137 73 73 73 255
105.449547 54.634232 250.952667 0.918817 -0.081692 0.386137 73 73 73 255
141.826874 75.185089 168.740234 0.918817 -0.081692 0.386137 73 73 73 255
162.963409 96.687263 192.401566 -0.764199 0.184786 -0.617943 73 73 73 255
164.888702 71.533600 182.498779 -0.764199 0.184786 -0.617943 73 73 73 255
105.449547 54.634232 250.952667 -0.764199 0.184786 -0.617943 73 73 73 255
139.901611 100.338745 178.643005 0.147560 -0.866291 -0.477248 73 73 73 255
162.963409 96.687263 192.401566 0.147560 -0.866291 -0.477248 73 73 73 255
105.449547 54.634232 250.952667 0.147560 -0.866291 -0.477248 73 73 73 255
52.941448 152.137558 176.666321 0.767817 0.577095 0.278242 73 73 73 255
48.632931 116.844368 261.756653 0.767817 0.577095 0.278242 73 73 73 255
69.884163 131.273438 173.186203 0.767817 0.577095 0.278242 73 73 73 255
72.955330 166.506821 187.955566 0.655752 -0.708544 -0.260681 73 73 73 255
48.632931 116.844368 261.756653 0.655752 -0.708544 -0.260681 73 73 73 255
52.941448 152.137558 176.666321 0.655752 -0.708544 -0.260681 73 73 73 255
89.898056 145.642700 184.475464 -0.580703 0.814088 -0.006708 73 73 73 255
69.884163 131.273438 173.186203 -0.580703 0.814088 -0.006708 73 73 73 255
48.632931 116.844368 261.756653 -0.580703 0.814088 -0.006708 73 73 73 255
72.955330 166.506821 187.955566 -0.692767 -0.471552 -0.545631 73 73 73 255
89.898056 145.642700 184.475464 -0.692767 -0.471552 -0.545631 73 73 73 255
48.632931 116.844368 261.756653 -0.692767 -0.471552 -0.545631 73 73 73 255
3 0 1 2
3 3 4 5
3 6 7 8
3 9 10 11
4 12 13 14 15
4 16 17 18 19
4 20 21 22 23
4 24 25 26 27
4 28 29 30 31
4 32 33 34 35
4 36 37 38 39
4 40 41 42 43
4 43 42 44 45
4 46 47 48 49
4 50 51 52 53
4 54 55 56 57
4 58 59 60 61
4 45 44 62 63
4 64 65 66 67
4 68 69 70 71
4 72 73 74 75
4 76 77 78 79
4 80 81 82 83
4 84 85 86 87
4 88 89 90 91
4 92 93 94 95
4 96 97 98 99
4 100 101 102 103
4 104 105 106 107
4 95 94 108 109
4 110 111 112 113
4 114 115 116 117
4 118 119 120 121
4 109 108 122 123
4 124 125 126 127
4 128 129 130 131
4 132 133 134 135
4 136 137 138 139
3 140 141 142
3 143 144 145
3 146 147 148
3 149 150 151
4 152 153 154 155
4 156 157 158 159
3 160 161 162
3 163 164 165
3 166 167 168
3 169 170 171
3 172 173 174
3 175 176 177
3 178 179 180
3 181 182 183
3 184 185 186
3 187 188 189
3 190 191 192
3 193 194 195
3 196 197 198
3 199 200 201
3 202 203 204
3 205 206 207
3 208 209 210
3 211 212 213
3 214 215 216
3 217 218 219
