ply
format ascii 1.0
comment Created by Blender 3.0.0 - www.blender.org
element vertex 600
property float x
property float y
property float z
property float nx
property float ny
property float nz
property uchar red
property uchar green
property uchar blue
property uchar alpha
element face 166
property list uchar uint vertex_indices
end_header
-17.455067 93.175163 68.335693 0.275848 0.848971 -0.450728 65 65 65 255
-17.455063 112.641876 105.002350 0.275848 0.848971 -0.450728 65 65 65 255
-0.484743 107.127884 105.002350 0.275848 0.848971 -0.450728 65 65 65 255
-11.926998 91.378983 68.335686 0.275848 0.848971 -0.450728 65 65 65 255
-11.926998 91.378983 68.335686 0.722178 0.524693 -0.450728 65 65 65 255
-0.484743 107.127884 105.002350 0.722178 0.524693 -0.450728 65 65 65 255
10.003496 92.692062 105.002350 0.722178 0.524693 -0.450728 65 65 65 255
-8.510463 86.676529 68.335686 0.722178 0.524693 -0.450728 65 65 65 255
-8.510463 86.676529 68.335686 0.892661 -0.000000 -0.450728 65 65 65 255
10.003496 92.692062 105.002350 0.892661 -0.000000 -0.450728 65 65 65 255
10.003492 74.848412 105.002350 0.892661 -0.000000 -0.450728 65 65 65 255
-8.510464 80.863976 68.335686 0.892661 -0.000000 -0.450728 65 65 65 255
-8.510464 80.863976 68.335686 0.722178 -0.524693 -0.450728 65 65 65 255
10.003492 74.848412 105.002350 0.722178 -0.524693 -0.450728 65 65 65 255
-0.484743 60.412598 105.002350 0.722178 -0.524693 -0.450728 65 65 65 255
-11.926998 76.161514 68.335686 0.722178 -0.524693 -0.450728 65 65 65 255
-11.926998 76.161514 68.335686 0.275847 -0.848971 -0.450728 65 65 65 255
-0.484743 60.412598 105.002350 0.275847 -0.848971 -0.450728 65 65 65 255
-17.455065 54.898605 105.002350 0.275847 -0.848971 -0.450728 65 65 65 255
-17.455067 74.365341 68.335686 0.275847 -0.848971 -0.450728 65 65 65 255
-17.455067 74.365341 68.335686 -0.275847 -0.848971 -0.450728 65 65 65 255
-17.455065 54.898605 105.002350 -0.275847 -0.848971 -0.450728 65 65 65 255
-34.425388 60.412598 105.002350 -0.275847 -0.848971 -0.450728 65 65 65 255
-22.983135 76.161514 68.335686 -0.275847 -0.848971 -0.450728 65 65 65 255
-22.983135 76.161514 68.335686 -0.722178 -0.524693 -0.450728 65 65 65 255
-34.425388 60.412598 105.002350 -0.722178 -0.524693 -0.450728 65 65 65 255
-44.913620 74.848412 105.002350 -0.722178 -0.524693 -0.450728 65 65 65 255
-26.399670 80.863976 68.335686 -0.722178 -0.524693 -0.450728 65 65 65 255
-26.399670 80.863976 68.335686 -0.892661 0.000000 -0.450728 65 65 65 255
-44.913620 74.848412 105.002350 -0.892661 0.000000 -0.450728 65 65 65 255
-44.913620 92.692070 105.002350 -0.892661 0.000000 -0.450728 65 65 65 255
-26.399670 86.676529 68.335686 -0.892661 0.000000 -0.450728 65 65 65 255
-26.399670 86.676529 68.335686 -0.722178 0.524693 -0.450728 65 65 65 255
-44.913620 92.692070 105.002350 -0.722178 0.524693 -0.450728 65 65 65 255
-34.425385 107.127884 105.002350 -0.722178 0.524693 -0.450728 65 65 65 255
-22.983135 91.378983 68.335686 -0.722178 0.524693 -0.450728 65 65 65 255
-22.983135 91.378983 68.335686 -0.275847 0.848971 -0.450728 65 65 65 255
-34.425385 107.127884 105.002350 -0.275847 0.848971 -0.450728 65 65 65 255
-17.455063 112.641876 105.002350 -0.275847 0.848971 -0.450728 65 65 65 255
-17.455067 93.175163 68.335693 -0.275847 0.848971 -0.450728 65 65 65 255
-31.179897 102.660858 -4.997646 -0.290592 0.894349 0.340141 65 65 65 255
-22.983135 91.378983 31.669020 -0.290592 0.894349 0.340141 65 65 65 255
-17.455067 93.175163 31.669025 -0.290592 0.894349 0.340141 65 65 65 255
-17.455063 107.120323 -4.997646 -0.290592 0.894349 0.340141 65 65 65 255
-22.983135 91.378983 31.669020 -0.309017 0.951056 0.000000 65 65 65 255
-22.983135 91.378983 68.335686 -0.309017 0.951056 0.000000 65 65 65 255
-17.455067 93.175163 68.335693 -0.309017 0.951056 0.000000 65 65 65 255
-17.455067 93.175163 31.669025 -0.309017 0.951056 0.000000 65 65 65 255
-39.662308 90.985817 -4.997646 -0.760779 0.552738 0.340141 65 65 65 255
-26.399670 86.676529 31.669020 -0.760779 0.552738 0.340141 65 65 65 255
-22.983135 91.378983 31.669020 -0.760779 0.552738 0.340141 65 65 65 255
-31.179897 102.660858 -4.997646 -0.760779 0.552738 0.340141 65 65 65 255
-26.399670 86.676529 31.669020 -0.809017 0.587785 0.000000 65 65 65 255
-26.399670 86.676529 68.335686 -0.809017 0.587785 0.000000 65 65 65 255
-22.983135 91.378983 68.335686 -0.809017 0.587785 0.000000 65 65 65 255
-22.983135 91.378983 31.669020 -0.809017 0.587785 0.000000 65 65 65 255
-39.662308 76.554665 -4.997646 -0.940374 0.000000 0.340141 65 65 65 255
-26.399670 80.863976 31.669020 -0.940374 0.000000 0.340141 65 65 65 255
-26.399670 86.676529 31.669020 -0.940374 0.000000 0.340141 65 65 65 255
-39.662308 90.985817 -4.997646 -0.940374 0.000000 0.340141 65 65 65 255
-26.399670 80.863976 31.669020 -1.000000 -0.000000 0.000000 65 65 65 255
-26.399670 80.863976 68.335686 -1.000000 -0.000000 0.000000 65 65 65 255
-26.399670 86.676529 68.335686 -1.000000 -0.000000 0.000000 65 65 65 255
-26.399670 86.676529 31.669020 -1.000000 -0.000000 0.000000 65 65 65 255
-31.179899 64.879631 -4.997646 -0.760779 -0.552738 0.340142 65 65 65 255
-22.983135 76.161514 31.669020 -0.760779 -0.552738 0.340142 65 65 65 255
-26.399670 80.863976 31.669020 -0.760779 -0.552738 0.340142 65 65 65 255
-39.662308 76.554665 -4.997646 -0.760779 -0.552738 0.340142 65 65 65 255
-22.983135 76.161514 31.669020 -0.809017 -0.587785 0.000000 65 65 65 255
-22.983135 76.161514 68.335686 -0.809017 -0.587785 0.000000 65 65 65 255
-26.399670 80.863976 68.335686 -0.809017 -0.587785 0.000000 65 65 65 255
-26.399670 80.863976 31.669020 -0.809017 -0.587785 0.000000 65 65 65 255
-17.455065 60.420158 -4.997646 -0.290592 -0.894349 0.340142 65 65 65 255
-17.455067 74.365341 31.669020 -0.290592 -0.894349 0.340142 65 65 65 255
-22.983135 76.161514 31.669020 -0.290592 -0.894349 0.340142 65 65 65 255
-31.179899 64.879631 -4.997646 -0.290592 -0.894349 0.340142 65 65 65 255
-17.455067 74.365341 31.669020 -0.309016 -0.951057 0.000000 65 65 65 255
-17.455067 74.365341 68.335686 -0.309016 -0.951057 0.000000 65 65 65 255
-22.983135 76.161514 68.335686 -0.309016 -0.951057 0.000000 65 65 65 255
-22.983135 76.161514 31.669020 -0.309016 -0.951057 0.000000 65 65 65 255
-3.730230 64.879623 -4.997646 0.290591 -0.894349 0.340142 65 65 65 255
-11.926998 76.161514 31.669020 0.290591 -0.894349 0.340142 65 65 65 255
-17.455067 74.365341 31.669020 0.290591 -0.894349 0.340142 65 65 65 255
-17.455065 60.420158 -4.997646 0.290591 -0.894349 0.340142 65 65 65 255
-11.926998 76.161514 31.669020 0.309016 -0.951057 0.000000 65 65 65 255
-11.926998 76.161514 68.335686 0.309016 -0.951057 0.000000 65 65 65 255
-17.455067 74.365341 68.335686 0.309016 -0.951057 0.000000 65 65 65 255
-17.455067 74.365341 31.669020 0.309016 -0.951057 0.000000 65 65 65 255
4.752184 76.554672 -4.997646 0.760779 -0.552738 0.340142 65 65 65 255
-8.510464 80.863976 31.669020 0.760779 -0.552738 0.340142 65 65 65 255
-11.926998 76.161514 31.669020 0.760779 -0.552738 0.340142 65 65 65 255
-3.730230 64.879623 -4.997646 0.760779 -0.552738 0.340142 65 65 65 255
-8.510464 80.863976 31.669020 0.809017 -0.587785 0.000000 65 65 65 255
-8.510464 80.863976 68.335686 0.809017 -0.587785 0.000000 65 65 65 255
-11.926998 76.161514 68.335686 0.809017 -0.587785 0.000000 65 65 65 255
-11.926998 76.161514 31.669020 0.809017 -0.587785 0.000000 65 65 65 255
4.752186 90.985817 -4.997646 0.940374 -0.000000 0.340141 65 65 65 255
-8.510463 86.676529 31.669020 0.940374 -0.000000 0.340141 65 65 65 255
-8.510464 80.863976 31.669020 0.940374 -0.000000 0.340141 65 65 65 255
4.752184 76.554672 -4.997646 0.940374 -0.000000 0.340141 65 65 65 255
-8.510463 86.676529 31.669020 1.000000 -0.000000 0.000000 65 65 65 255
-8.510463 86.676529 68.335686 1.000000 -0.000000 0.000000 65 65 65 255
-8.510464 80.863976 68.335686 1.000000 -0.000000 0.000000 65 65 65 255
-8.510464 80.863976 31.669020 1.000000 -0.000000 0.000000 65 65 65 255
-3.730230 102.660858 -4.997646 0.760779 0.552738 0.340141 65 65 65 255
-11.926998 91.378983 31.669020 0.760779 0.552738 0.340141 65 65 65 255
-8.510463 86.676529 31.669020 0.760779 0.552738 0.340141 65 65 65 255
4.752186 90.985817 -4.997646 0.760779 0.552738 0.340141 65 65 65 255
-11.926998 91.378983 31.669020 0.809017 0.587786 0.000000 65 65 65 255
-11.926998 91.378983 68.335686 0.809017 0.587786 0.000000 65 65 65 255
-8.510463 86.676529 68.335686 0.809017 0.587786 0.000000 65 65 65 255
-8.510463 86.676529 31.669020 0.809017 0.587786 0.000000 65 65 65 255
-17.455063 107.120323 -4.997646 0.290592 0.894349 0.340141 65 65 65 255
-17.455067 93.175163 31.669025 0.290592 0.894349 0.340141 65 65 65 255
-11.926998 91.378983 31.669020 0.290592 0.894349 0.340141 65 65 65 255
-3.730230 102.660858 -4.997646 0.290592 0.894349 0.340141 65 65 65 255
-17.455067 93.175163 31.669025 0.309017 0.951056 0.000000 65 65 65 255
-17.455067 93.175163 68.335693 0.309017 0.951056 0.000000 65 65 65 255
-11.926998 91.378983 68.335686 0.309017 0.951056 0.000000 65 65 65 255
-11.926998 91.378983 31.669020 0.309017 0.951056 0.000000 65 65 65 255
60.000000 0.000000 0.000000 -0.702652 0.112075 0.702652 65 65 65 255
100.000000 0.000000 40.000000 -0.702652 0.112075 0.702652 65 65 65 255
114.885971 93.327332 40.000000 -0.702652 0.112075 0.702652 65 65 65 255
76.870766 105.770981 0.000000 -0.702652 0.112075 0.702652 65 65 65 255
-140.000000 0.000000 80.000000 0.987517 -0.157512 0.000000 65 65 65 255
-140.000000 0.000000 40.000000 0.987517 -0.157512 0.000000 65 65 65 255
-113.205246 167.989197 40.000000 0.987517 -0.157512 0.000000 65 65 65 255
-113.205246 167.989197 80.000000 0.987517 -0.157512 0.000000 65 65 65 255
100.000000 0.000000 80.000000 -0.446080 0.071151 -0.892160 65 65 65 255
60.000000 0.000000 100.000000 -0.446080 0.071151 -0.892160 65 65 65 255
76.870766 105.770981 100.000000 -0.446080 0.071151 -0.892160 65 65 65 255
114.885971 93.327332 80.000000 -0.446080 0.071151 -0.892160 65 65 65 255
-140.000000 0.000000 40.000000 0.000000 0.000000 1.000000 65 65 65 255
-100.000000 0.000000 40.000000 0.000000 0.000000 1.000000 65 65 65 255
-75.190048 155.545563 40.000000 0.000000 0.000000 1.000000 65 65 65 255
-113.205246 167.989197 40.000000 0.000000 0.000000 1.000000 65 65 65 255
100.000000 0.000000 40.000000 0.000000 0.000000 1.000000 65 65 65 255
140.000000 0.000000 40.000000 0.000000 0.000000 1.000000 65 65 65 255
152.901169 80.883690 40.000000 0.000000 0.000000 1.000000 65 65 65 255
114.885971 93.327332 40.000000 0.000000 0.000000 1.000000 65 65 65 255
-100.000000 0.000000 40.000000 0.702652 -0.112075 0.702652 65 65 65 255
-60.000000 0.000000 0.000000 0.702652 -0.112075 0.702652 65 65 65 255
-37.174843 143.101913 0.000000 0.702652 -0.112075 0.702652 65 65 65 255
-75.190048 155.545563 40.000000 0.702652 -0.112075 0.702652 65 65 65 255
-60.000000 0.000000 100.000000 0.000000 0.000000 1.000000 65 65 65 255
60.000000 0.000000 100.000000 0.000000 0.000000 1.000000 65 65 65 255
76.870766 105.770981 100.000000 0.000000 0.000000 1.000000 65 65 65 255
-37.174843 143.101913 100.000000 0.000000 0.000000 1.000000 65 65 65 255
-60.000000 0.000000 0.000000 0.000000 0.000000 1.000000 65 65 65 255
60.000000 0.000000 0.000000 0.000000 0.000000 1.000000 65 65 65 255
76.870766 105.770981 0.000000 0.000000 0.000000 1.000000 65 65 65 255
-37.174843 143.101913 0.000000 0.000000 0.000000 1.000000 65 65 65 255
140.000000 0.000000 40.000000 -0.987517 0.157512 0.000000 65 65 65 255
140.000000 0.000000 80.000000 -0.987517 0.157512 0.000000 65 65 65 255
152.901169 80.883690 80.000000 -0.987517 0.157512 0.000000 65 65 65 255
152.901169 80.883690 40.000000 -0.987517 0.157512 0.000000 65 65 65 255
-60.000000 0.000000 100.000000 0.446080 -0.071151 -0.892160 65 65 65 255
-100.000000 0.000000 80.000000 0.446080 -0.071151 -0.892160 65 65 65 255
-75.190048 155.545563 80.000000 0.446080 -0.071151 -0.892160 65 65 65 255
-37.174843 143.101913 100.000000 0.446080 -0.071151 -0.892160 65 65 65 255
-100.000000 0.000000 80.000000 0.000000 -0.000000 -1.000000 65 65 65 255
-140.000000 0.000000 80.000000 0.000000 -0.000000 -1.000000 65 65 65 255
-113.205246 167.989197 80.000000 0.000000 -0.000000 -1.000000 65 65 65 255
-75.190048 155.545563 80.000000 0.000000 -0.000000 -1.000000 65 65 65 255
140.000000 0.000000 80.000000 0.000000 -0.000000 -1.000000 65 65 65 255
100.000000 0.000000 80.000000 0.000000 -0.000000 -1.000000 65 65 65 255
114.885971 93.327332 80.000000 0.000000 -0.000000 -1.000000 65 65 65 255
152.901169 80.883690 80.000000 0.000000 -0.000000 -1.000000 65 65 65 255
-75.190048 155.545563 40.000000 0.632921 -0.325103 0.702652 65 65 65 255
-37.174843 143.101913 0.000000 0.632921 -0.325103 0.702652 65 65 65 255
29.035467 272.002411 0.000000 0.632921 -0.325103 0.702652 65 65 65 255
-3.222317 295.654816 40.000000 0.632921 -0.325103 0.702652 65 65 65 255
125.808823 201.045273 100.000000 0.000000 0.000000 1.000000 65 65 65 255
29.035467 272.002411 100.000000 0.000000 0.000000 1.000000 65 65 65 255
125.808823 201.045273 0.000000 0.000000 0.000000 1.000000 65 65 65 255
29.035467 272.002411 0.000000 0.000000 0.000000 1.000000 65 65 65 255
152.901169 80.883690 40.000000 -0.889516 0.456904 0.000000 65 65 65 255
152.901169 80.883690 80.000000 -0.889516 0.456904 0.000000 65 65 65 255
190.324387 153.740494 80.000000 -0.889516 0.456904 0.000000 65 65 65 255
190.324387 153.740494 40.000000 -0.889516 0.456904 0.000000 65 65 65 255
-37.174843 143.101913 100.000000 0.401811 -0.206392 -0.892160 65 65 65 255
-75.190048 155.545563 80.000000 0.401811 -0.206392 -0.892160 65 65 65 255
-3.222317 295.654816 80.000000 0.401811 -0.206392 -0.892160 65 65 65 255
29.035467 272.002411 100.000000 0.401811 -0.206392 -0.892160 65 65 65 255
-35.480103 319.307190 80.000000 0.000000 0.000000 -1.000000 65 65 65 255
-3.222317 295.654816 80.000000 0.000000 0.000000 -1.000000 65 65 65 255
158.066605 177.392883 80.000000 0.000000 0.000000 -1.000000 65 65 65 255
190.324387 153.740494 80.000000 0.000000 0.000000 -1.000000 65 65 65 255
76.870766 105.770981 0.000000 -0.632921 0.325102 0.702652 65 65 65 255
114.885971 93.327332 40.000000 -0.632921 0.325102 0.702652 65 65 65 255
158.066605 177.392883 40.000000 -0.632921 0.325102 0.702652 65 65 65 255
125.808823 201.045273 0.000000 -0.632921 0.325102 0.702652 65 65 65 255
-113.205246 167.989197 80.000000 0.889516 -0.456904 0.000000 65 65 65 255
-113.205246 167.989197 40.000000 0.889516 -0.456904 0.000000 65 65 65 255
-35.480103 319.307190 40.000000 0.889516 -0.456904 0.000000 65 65 65 255
-35.480103 319.307190 80.000000 0.889516 -0.456904 0.000000 65 65 65 255
114.885971 93.327332 80.000000 -0.401811 0.206392 -0.892160 65 65 65 255
76.870766 105.770981 100.000000 -0.401811 0.206392 -0.892160 65 65 65 255
125.808823 201.045273 100.000000 -0.401811 0.206392 -0.892160 65 65 65 255
158.066605 177.392883 80.000000 -0.401811 0.206392 -0.892160 65 65 65 255
-3.222317 295.654816 40.000000 0.000000 0.000000 1.000000 65 65 65 255
-35.480103 319.307190 40.000000 0.000000 0.000000 1.000000 65 65 65 255
190.324387 153.740494 40.000000 0.000000 0.000000 1.000000 65 65 65 255
158.066605 177.392883 40.000000 0.000000 0.000000 1.000000 65 65 65 255
-3.222317 295.654816 40.000000 0.500379 -0.505867 0.702652 65 65 65 255
29.035467 272.002411 0.000000 0.500379 -0.505867 0.702652 65 65 65 255
132.060226 373.909485 0.000000 0.500379 -0.505867 0.702652 0 0 0 255
108.761124 406.423340 40.000000 0.500379 -0.505867 0.702652 0 0 0 255
201.957565 276.367859 100.000000 0.000000 0.000000 1.000000 0 0 0 255
132.060226 373.909485 100.000000 0.000000 0.000000 1.000000 0 0 0 255
201.957565 276.367859 0.000000 0.000000 0.000000 1.000000 0 0 0 255
132.060226 373.909485 0.000000 0.000000 0.000000 1.000000 0 0 0 255
190.324387 153.740494 40.000000 -0.703240 0.710953 0.000000 65 65 65 255
190.324387 153.740494 80.000000 -0.703240 0.710953 0.000000 65 65 65 255
248.555771 211.340118 80.000000 -0.703240 0.710953 0.000000 0 0 0 255
248.555771 211.340118 40.000000 -0.703240 0.710953 0.000000 0 0 0 255
29.035467 272.002411 100.000000 0.317667 -0.321151 -0.892160 65 65 65 255
-3.222317 295.654816 80.000000 0.317667 -0.321151 -0.892160 65 65 65 255
108.761124 406.423340 80.000000 0.317667 -0.321151 -0.892160 0 0 0 255
132.060226 373.909485 100.000000 0.317667 -0.321151 -0.892160 0 0 0 255
85.462013 438.937195 80.000000 0.000000 0.000000 -1.000000 0 0 0 255
108.761124 406.423340 80.000000 0.000000 0.000000 -1.000000 0 0 0 255
225.256668 243.854004 80.000000 0.000000 0.000000 -1.000000 0 0 0 255
248.555771 211.340118 80.000000 0.000000 0.000000 -1.000000 0 0 0 255
125.808823 201.045273 0.000000 -0.500379 0.505867 0.702652 65 65 65 255
158.066605 177.392883 40.000000 -0.500379 0.505867 0.702652 65 65 65 255
225.256668 243.854004 40.000000 -0.500379 0.505867 0.702652 0 0 0 255
201.957565 276.367859 0.000000 -0.500379 0.505867 0.702652 0 0 0 255
-35.480103 319.307190 80.000000 0.703240 -0.710953 0.000000 65 65 65 255
-35.480103 319.307190 40.000000 0.703240 -0.710953 0.000000 65 65 65 255
85.462013 438.937195 40.000000 0.703240 -0.710953 0.000000 0 0 0 255
85.462013 438.937195 80.000000 0.703240 -0.710953 0.000000 0 0 0 255
158.066605 177.392883 80.000000 -0.317667 0.321151 -0.892160 65 65 65 255
125.808823 201.045273 100.000000 -0.317667 0.321151 -0.892160 65 65 65 255
201.957565 276.367859 100.000000 -0.317667 0.321151 -0.892160 0 0 0 255
225.256668 243.854004 80.000000 -0.317667 0.321151 -0.892160 0 0 0 255
108.761124 406.423340 40.000000 0.000000 0.000000 1.000000 0 0 0 255
85.462013 438.937195 40.000000 0.000000 0.000000 1.000000 0 0 0 255
248.555771 211.340118 40.000000 0.000000 0.000000 1.000000 0 0 0 255
225.256668 243.854004 40.000000 0.000000 0.000000 1.000000 0 0 0 255
48.979767 149.342789 68.335693 0.288688 0.888489 -0.356717 65 65 65 255
48.979774 164.063965 105.002350 0.288688 0.888489 -0.356717 65 65 65 255
62.507675 159.668488 105.002350 0.288688 0.888489 -0.356717 65 65 65 255
53.854782 147.758789 68.335686 0.288688 0.888489 -0.356717 65 65 65 255
53.854782 147.758789 68.335686 0.755794 0.549116 -0.356717 65 65 65 255
62.507675 159.668488 105.002350 0.755794 0.549116 -0.356717 65 65 65 255
70.868385 148.160950 105.002350 0.755794 0.549116 -0.356717 65 65 65 255
56.867706 143.611862 68.335686 0.755794 0.549116 -0.356717 65 65 65 255
56.867706 143.611862 68.335686 0.934213 0.000000 -0.356717 65 65 65 255
70.868385 148.160950 105.002350 0.934213 0.000000 -0.356717 65 65 65 255
70.868385 133.936874 105.002350 0.934213 0.000000 -0.356717 65 65 65 255
56.867706 138.485977 68.335686 0.934213 0.000000 -0.356717 65 65 65 255
56.867706 138.485977 68.335686 0.755794 -0.549117 -0.356717 65 65 65 255
70.868385 133.936874 105.002350 0.755794 -0.549117 -0.356717 65 65 65 255
62.507675 122.429344 105.002350 0.755794 -0.549117 -0.356717 65 65 65 255
53.854782 134.339050 68.335686 0.755794 -0.549117 -0.356717 65 65 65 255
53.854782 134.339050 68.335686 0.288687 -0.888489 -0.356717 65 65 65 255
62.507675 122.429344 105.002350 0.288687 -0.888489 -0.356717 65 65 65 255
48.979767 118.033867 105.002350 0.288687 -0.888489 -0.356717 65 65 65 255
48.979767 132.755066 68.335686 0.288687 -0.888489 -0.356717 65 65 65 255
48.979767 132.755066 68.335686 -0.288688 -0.888489 -0.356717 65 65 65 255
48.979767 118.033867 105.002350 -0.288688 -0.888489 -0.356717 65 65 65 255
35.451859 122.429352 105.002350 -0.288688 -0.888489 -0.356717 65 65 65 255
44.104759 134.339050 68.335686 -0.288688 -0.888489 -0.356717 65 65 65 255
44.104759 134.339050 68.335686 -0.755794 -0.549116 -0.356717 65 65 65 255
35.451859 122.429352 105.002350 -0.755794 -0.549116 -0.356717 65 65 65 255
27.091158 133.936874 105.002350 -0.755794 -0.549116 -0.356717 65 65 65 255
41.091835 138.485977 68.335686 -0.755794 -0.549116 -0.356717 65 65 65 255
41.091835 138.485977 68.335686 -0.934213 0.000000 -0.356717 65 65 65 255
27.091158 133.936874 105.002350 -0.934213 0.000000 -0.356717 65 65 65 255
27.091158 148.160950 105.002350 -0.934213 0.000000 -0.356717 65 65 65 255
41.091835 143.611862 68.335686 -0.934213 0.000000 -0.356717 65 65 65 255
41.091835 143.611862 68.335686 -0.755794 0.549116 -0.356717 65 65 65 255
27.091158 148.160950 105.002350 -0.755794 0.549116 -0.356717 65 65 65 255
35.451866 159.668488 105.002350 -0.755794 0.549116 -0.356717 65 65 65 255
44.104759 147.758789 68.335686 -0.755794 0.549116 -0.356717 65 65 65 255
44.104759 147.758789 68.335686 -0.288688 0.888489 -0.356717 65 65 65 255
35.451866 159.668488 105.002350 -0.288688 0.888489 -0.356717 65 65 65 255
48.979774 164.063965 105.002350 -0.288688 0.888489 -0.356717 65 65 65 255
48.979767 149.342789 68.335693 -0.288688 0.888489 -0.356717 65 65 65 255
37.887947 156.315491 -4.997646 -0.298007 0.917169 0.264562 65 65 65 255
44.104759 147.758789 31.669020 -0.298007 0.917169 0.264562 65 65 65 255
48.979767 149.342789 31.669025 -0.298007 0.917169 0.264562 65 65 65 255
48.979774 159.919449 -4.997646 -0.298007 0.917169 0.264562 65 65 65 255
44.104759 147.758789 31.669020 -0.309019 0.951056 0.000000 65 65 65 255
44.104759 147.758789 68.335686 -0.309019 0.951056 0.000000 65 65 65 255
48.979767 149.342789 68.335693 -0.309019 0.951056 0.000000 65 65 65 255
48.979767 149.342789 31.669025 -0.309019 0.951056 0.000000 65 65 65 255
31.032820 146.880234 -4.997646 -0.780190 0.566842 0.264562 65 65 65 255
41.091835 143.611862 31.669020 -0.780190 0.566842 0.264562 65 65 65 255
44.104759 147.758789 31.669020 -0.780190 0.566842 0.264562 65 65 65 255
37.887947 156.315491 -4.997646 -0.780190 0.566842 0.264562 65 65 65 255
41.091835 143.611862 31.669020 -0.809016 0.587786 0.000000 65 65 65 255
41.091835 143.611862 68.335686 -0.809016 0.587786 0.000000 65 65 65 255
44.104759 147.758789 68.335686 -0.809016 0.587786 0.000000 65 65 65 255
44.104759 147.758789 31.669020 -0.809016 0.587786 0.000000 65 65 65 255
31.032820 135.217590 -4.997646 -0.964369 0.000000 0.264562 65 65 65 255
41.091835 138.485977 31.669020 -0.964369 0.000000 0.264562 65 65 65 255
41.091835 143.611862 31.669020 -0.964369 0.000000 0.264562 65 65 65 255
31.032820 146.880234 -4.997646 -0.964369 0.000000 0.264562 65 65 65 255
41.091835 138.485977 31.669020 -1.000000 -0.000000 0.000000 65 65 65 255
41.091835 138.485977 68.335686 -1.000000 -0.000000 0.000000 65 65 65 255
41.091835 143.611862 68.335686 -1.000000 -0.000000 0.000000 65 65 65 255
41.091835 143.611862 31.669020 -1.000000 -0.000000 0.000000 65 65 65 255
37.887947 125.782326 -4.997646 -0.780190 -0.566842 0.264562 65 65 65 255
44.104759 134.339050 31.669020 -0.780190 -0.566842 0.264562 65 65 65 255
41.091835 138.485977 31.669020 -0.780190 -0.566842 0.264562 65 65 65 255
31.032820 135.217590 -4.997646 -0.780190 -0.566842 0.264562 65 65 65 255
44.104759 134.339050 31.669020 -0.809016 -0.587786 0.000000 65 65 65 255
44.104759 134.339050 68.335686 -0.809016 -0.587786 0.000000 65 65 65 255
41.091835 138.485977 68.335686 -0.809016 -0.587786 0.000000 65 65 65 255
41.091835 138.485977 31.669020 -0.809016 -0.587786 0.000000 65 65 65 255
48.979774 122.178375 -4.997646 -0.298006 -0.917169 0.264562 65 65 65 255
48.979767 132.755066 31.669020 -0.298006 -0.917169 0.264562 65 65 65 255
44.104759 134.339050 31.669020 -0.298006 -0.917169 0.264562 65 65 65 255
37.887947 125.782326 -4.997646 -0.298006 -0.917169 0.264562 65 65 65 255
48.979767 132.755066 31.669020 -0.309017 -0.951057 0.000000 65 65 65 255
48.979767 132.755066 68.335686 -0.309017 -0.951057 0.000000 65 65 65 255
44.104759 134.339050 68.335686 -0.309017 -0.951057 0.000000 65 65 65 255
44.104759 134.339050 31.669020 -0.309017 -0.951057 0.000000 65 65 65 255
60.071594 125.782326 -4.997646 0.298006 -0.917169 0.264562 65 65 65 255
53.854782 134.339050 31.669020 0.298006 -0.917169 0.264562 65 65 65 255
48.979767 132.755066 31.669020 0.298006 -0.917169 0.264562 65 65 65 255
48.979774 122.178375 -4.997646 0.298006 -0.917169 0.264562 65 65 65 255
53.854782 134.339050 31.669020 0.309016 -0.951057 0.000000 65 65 65 255
53.854782 134.339050 68.335686 0.309016 -0.951057 0.000000 65 65 65 255
48.979767 132.755066 68.335686 0.309016 -0.951057 0.000000 65 65 65 255
48.979767 132.755066 31.669020 0.309016 -0.951057 0.000000 65 65 65 255
66.926720 135.217590 -4.997646 0.780190 -0.566842 0.264562 65 65 65 255
56.867706 138.485977 31.669020 0.780190 -0.566842 0.264562 65 65 65 255
53.854782 134.339050 31.669020 0.780190 -0.566842 0.264562 65 65 65 255
60.071594 125.782326 -4.997646 0.780190 -0.566842 0.264562 65 65 65 255
56.867706 138.485977 31.669020 0.809016 -0.587786 0.000000 65 65 65 255
56.867706 138.485977 68.335686 0.809016 -0.587786 0.000000 65 65 65 255
53.854782 134.339050 68.335686 0.809016 -0.587786 0.000000 65 65 65 255
53.854782 134.339050 31.669020 0.809016 -0.587786 0.000000 65 65 65 255
66.926727 146.880234 -4.997646 0.964369 -0.000000 0.264562 65 65 65 255
56.867706 143.611862 31.669020 0.964369 -0.000000 0.264562 65 65 65 255
56.867706 138.485977 31.669020 0.964369 -0.000000 0.264562 65 65 65 255
66.926720 135.217590 -4.997646 0.964369 -0.000000 0.264562 65 65 65 255
56.867706 143.611862 31.669020 1.000000 -0.000000 0.000000 65 65 65 255
56.867706 143.611862 68.335686 1.000000 -0.000000 0.000000 65 65 65 255
56.867706 138.485977 68.335686 1.000000 -0.000000 0.000000 65 65 65 255
56.867706 138.485977 31.669020 1.000000 -0.000000 0.000000 65 65 65 255
60.071594 156.315506 -4.997646 0.780190 0.566842 0.264562 65 65 65 255
53.854782 147.758789 31.669020 0.780190 0.566842 0.264562 65 65 65 255
56.867706 143.611862 31.669020 0.780190 0.566842 0.264562 65 65 65 255
66.926727 146.880234 -4.997646 0.780190 0.566842 0.264562 65 65 65 255
53.854782 147.758789 31.669020 0.809016 0.587786 0.000000 65 65 65 255
53.854782 147.758789 68.335686 0.809016 0.587786 0.000000 65 65 65 255
56.867706 143.611862 68.335686 0.809016 0.587786 0.000000 65 65 65 255
56.867706 143.611862 31.669020 0.809016 0.587786 0.000000 65 65 65 255
48.979774 159.919449 -4.997646 0.298007 0.917169 0.264562 65 65 65 255
48.979767 149.342789 31.669025 0.298007 0.917169 0.264562 65 65 65 255
53.854782 147.758789 31.669020 0.298007 0.917169 0.264562 65 65 65 255
60.071594 156.315506 -4.997646 0.298007 0.917169 0.264562 65 65 65 255
48.979767 149.342789 31.669025 0.309019 0.951056 0.000000 65 65 65 255
48.979767 149.342789 68.335693 0.309019 0.951056 0.000000 65 65 65 255
53.854782 147.758789 68.335686 0.309019 0.951056 0.000000 65 65 65 255
53.854782 147.758789 31.669020 0.309019 0.951056 0.000000 65 65 65 255
24.414984 65.817268 105.000000 -0.295561 0.909643 -0.291880 65 65 65 255
24.414984 50.807266 58.221439 -0.295561 0.909643 -0.291880 65 65 65 255
15.592329 62.950611 105.000000 -0.295561 0.909643 -0.291880 65 65 65 255
15.592329 62.950611 105.000000 -0.773788 0.562190 -0.291880 65 65 65 255
24.414984 50.807266 58.221439 -0.773788 0.562190 -0.291880 65 65 65 255
10.139626 55.445610 105.000000 -0.773788 0.562190 -0.291880 65 65 65 255
10.139626 55.445610 105.000000 -0.956455 -0.000000 -0.291880 65 65 65 255
24.414984 50.807266 58.221439 -0.956455 -0.000000 -0.291880 65 65 65 255
10.139627 46.168922 105.000000 -0.956455 -0.000000 -0.291880 65 65 65 255
10.139627 46.168922 105.000000 -0.773788 -0.562190 -0.291880 65 65 65 255
24.414984 50.807266 58.221439 -0.773788 -0.562190 -0.291880 65 65 65 255
15.592329 38.663921 105.000000 -0.773788 -0.562190 -0.291880 65 65 65 255
15.592329 38.663921 105.000000 -0.295561 -0.909643 -0.291880 65 65 65 255
24.414984 50.807266 58.221439 -0.295561 -0.909643 -0.291880 65 65 65 255
24.414988 35.797264 105.000000 -0.295561 -0.909643 -0.291880 65 65 65 255
24.414988 35.797264 105.000000 0.295561 -0.909643 -0.291880 65 65 65 255
24.414984 50.807266 58.221439 0.295561 -0.909643 -0.291880 65 65 65 255
33.237640 38.663921 105.000000 0.295561 -0.909643 -0.291880 65 65 65 255
33.237640 38.663921 105.000000 0.773788 -0.562190 -0.291880 65 65 65 255
24.414984 50.807266 58.221439 0.773788 -0.562190 -0.291880 65 65 65 255
38.690346 46.168919 105.000000 0.773788 -0.562190 -0.291880 65 65 65 255
38.690346 46.168919 105.000000 0.956455 0.000000 -0.291880 65 65 65 255
24.414984 50.807266 58.221439 0.956455 0.000000 -0.291880 65 65 65 255
38.690346 55.445614 105.000000 0.956455 0.000000 -0.291880 65 65 65 255
38.690346 55.445614 105.000000 0.773788 0.562190 -0.291880 65 65 65 255
24.414984 50.807266 58.221439 0.773788 0.562190 -0.291880 65 65 65 255
33.237640 62.950611 105.000000 0.773788 0.562190 -0.291880 65 65 65 255
33.237640 62.950611 105.000000 0.295561 0.909643 -0.291880 65 65 65 255
24.414984 50.807266 58.221439 0.295561 0.909643 -0.291880 65 65 65 255
24.414984 65.817268 105.000000 0.295561 0.909643 -0.291880 65 65 65 255
38.672607 237.463226 105.000000 -0.295561 0.909643 -0.291880 65 65 65 255
38.672607 222.453232 58.221439 -0.295561 0.909643 -0.291880 65 65 65 255
29.849951 234.596573 105.000000 -0.295561 0.909643 -0.291880 65 65 65 255
29.849951 234.596573 105.000000 -0.773788 0.562191 -0.291880 65 65 65 255
38.672607 222.453232 58.221439 -0.773788 0.562191 -0.291880 65 65 65 255
24.397245 227.091583 105.000000 -0.773788 0.562191 -0.291880 65 65 65 255
24.397245 227.091583 105.000000 -0.956455 -0.000000 -0.291880 65 65 65 255
38.672607 222.453232 58.221439 -0.956455 -0.000000 -0.291880 65 65 65 255
24.397249 217.814880 105.000000 -0.956455 -0.000000 -0.291880 65 65 65 255
24.397249 217.814880 105.000000 -0.773788 -0.562190 -0.291880 65 65 65 255
38.672607 222.453232 58.221439 -0.773788 -0.562190 -0.291880 65 65 65 255
29.849951 210.309875 105.000000 -0.773788 -0.562190 -0.291880 65 65 65 255
29.849951 210.309875 105.000000 -0.295559 -0.909643 -0.291880 65 65 65 255
38.672607 222.453232 58.221439 -0.295559 -0.909643 -0.291880 65 65 65 255
38.672607 207.443237 105.000000 -0.295559 -0.909643 -0.291880 65 65 65 255
38.672607 207.443237 105.000000 0.295560 -0.909643 -0.291880 65 65 65 255
38.672607 222.453232 58.221439 0.295560 -0.909643 -0.291880 65 65 65 255
47.495270 210.309891 105.000000 0.295560 -0.909643 -0.291880 65 65 65 255
47.495270 210.309891 105.000000 0.773788 -0.562190 -0.291880 65 65 65 255
38.672607 222.453232 58.221439 0.773788 -0.562190 -0.291880 65 65 65 255
52.947968 217.814880 105.000000 0.773788 -0.562190 -0.291880 65 65 65 255
52.947968 217.814880 105.000000 0.956455 0.000000 -0.291880 65 65 65 255
38.672607 222.453232 58.221439 0.956455 0.000000 -0.291880 65 65 65 255
52.947968 227.091583 105.000000 0.956455 0.000000 -0.291880 65 65 65 255
52.947968 227.091583 105.000000 0.773788 0.562190 -0.291880 65 65 65 255
38.672607 222.453232 58.221439 0.773788 0.562190 -0.291880 65 65 65 255
47.495270 234.596573 105.000000 0.773788 0.562190 -0.291880 65 65 65 255
47.495270 234.596573 105.000000 0.295560 0.909643 -0.291880 65 65 65 255
38.672607 222.453232 58.221439 0.295560 0.909643 -0.291880 65 65 65 255
38.672607 237.463226 105.000000 0.295560 0.909643 -0.291880 65 65 65 255
38.672600 237.463226 -4.000000 0.277048 0.852666 0.442950 65 65 65 255
38.672607 222.453232 24.893818 0.277048 0.852666 0.442950 65 65 65 255
47.495262 234.596573 -4.000000 0.277048 0.852666 0.442950 65 65 65 255
47.495262 234.596573 -4.000000 0.725321 0.526977 0.442950 65 65 65 255
38.672607 222.453232 24.893818 0.725321 0.526977 0.442950 65 65 65 255
52.947968 227.091583 -4.000004 0.725321 0.526977 0.442950 65 65 65 255
52.947968 227.091583 -4.000004 0.896546 -0.000001 0.442950 65 65 65 255
38.672607 222.453232 24.893818 0.896546 -0.000001 0.442950 65 65 65 255
52.947960 217.814880 -4.000004 0.896546 -0.000001 0.442950 65 65 65 255
52.947960 217.814880 -4.000004 0.725322 -0.526976 0.442950 65 65 65 255
38.672607 222.453232 24.893818 0.725322 -0.526976 0.442950 65 65 65 255
47.495262 210.309875 -4.000000 0.725322 -0.526976 0.442950 65 65 65 255
47.495262 210.309875 -4.000000 0.277046 -0.852667 0.442950 65 65 65 255
38.672607 222.453232 24.893818 0.277046 -0.852667 0.442950 65 65 65 255
38.672600 207.443237 -4.000000 0.277046 -0.852667 0.442950 65 65 65 255
38.672600 207.443237 -4.000000 -0.277048 -0.852666 0.442950 65 65 65 255
38.672607 222.453232 24.893818 -0.277048 -0.852666 0.442950 65 65 65 255
29.849943 210.309891 -4.000000 -0.277048 -0.852666 0.442950 65 65 65 255
29.849943 210.309891 -4.000000 -0.725321 -0.526977 0.442950 65 65 65 255
38.672607 222.453232 24.893818 -0.725321 -0.526977 0.442950 65 65 65 255
24.397245 217.814880 -3.999996 -0.725321 -0.526977 0.442950 65 65 65 255
24.397245 217.814880 -3.999996 -0.896546 0.000000 0.442950 65 65 65 255
38.672607 222.453232 24.893818 -0.896546 0.000000 0.442950 65 65 65 255
24.397245 227.091583 -3.999996 -0.896546 0.000000 0.442950 65 65 65 255
24.397245 227.091583 -3.999996 -0.725321 0.526977 0.442950 65 65 65 255
38.672607 222.453232 24.893818 -0.725321 0.526977 0.442950 65 65 65 255
29.849943 234.596573 -4.000000 -0.725321 0.526977 0.442950 65 65 65 255
29.849943 234.596573 -4.000000 -0.277048 0.852666 0.442950 65 65 65 255
38.672607 222.453232 24.893818 -0.277048 0.852666 0.442950 65 65 65 255
38.672600 237.463226 -4.000000 -0.277048 0.852666 0.442950 65 65 65 255
24.672602 63.463234 -4.000000 0.277048 0.852666 0.442950 65 65 65 255
24.672609 48.453232 24.893818 0.277048 0.852666 0.442950 65 65 65 255
33.495262 60.596577 -4.000000 0.277048 0.852666 0.442950 65 65 65 255
33.495262 60.596577 -4.000000 0.725322 0.526976 0.442950 65 65 65 255
24.672609 48.453232 24.893818 0.725322 0.526976 0.442950 65 65 65 255
38.947960 53.091576 -4.000004 0.725322 0.526976 0.442950 65 65 65 255
38.947960 53.091576 -4.000004 0.896546 0.000000 0.442950 65 65 65 255
24.672609 48.453232 24.893818 0.896546 0.000000 0.442950 65 65 65 255
38.947960 43.814888 -4.000004 0.896546 0.000000 0.442950 65 65 65 255
38.947960 43.814888 -4.000004 0.725322 -0.526976 0.442950 65 65 65 255
24.672609 48.453232 24.893818 0.725322 -0.526976 0.442950 65 65 65 255
33.495262 36.309887 -4.000000 0.725322 -0.526976 0.442950 65 65 65 255
33.495262 36.309887 -4.000000 0.277048 -0.852666 0.442950 65 65 65 255
24.672609 48.453232 24.893818 0.277048 -0.852666 0.442950 65 65 65 255
24.672602 33.443230 -4.000000 0.277048 -0.852666 0.442950 65 65 65 255
24.672602 33.443230 -4.000000 -0.277048 -0.852666 0.442950 65 65 65 255
24.672609 48.453232 24.893818 -0.277048 -0.852666 0.442950 65 65 65 255
15.849943 36.309887 -4.000000 -0.277048 -0.852666 0.442950 65 65 65 255
15.849943 36.309887 -4.000000 -0.725321 -0.526977 0.442950 65 65 65 255
24.672609 48.453232 24.893818 -0.725321 -0.526977 0.442950 65 65 65 255
10.397245 43.814884 -3.999996 -0.725321 -0.526977 0.442950 65 65 65 255
10.397245 43.814884 -3.999996 -0.896546 0.000000 0.442950 65 65 65 255
24.672609 48.453232 24.893818 -0.896546 0.000000 0.442950 65 65 65 255
10.397245 53.091579 -3.999996 -0.896546 0.000000 0.442950 65 65 65 255
10.397245 53.091579 -3.999996 -0.725321 0.526977 0.442950 65 65 65 255
24.672609 48.453232 24.893818 -0.725321 0.526977 0.442950 65 65 65 255
15.849943 60.596577 -4.000000 -0.725321 0.526977 0.442950 65 65 65 255
15.849943 60.596577 -4.000000 -0.277048 0.852666 0.442950 65 65 65 255
24.672609 48.453232 24.893818 -0.277048 0.852666 0.442950 65 65 65 255
24.672602 63.463234 -4.000000 -0.277048 0.852666 0.442950 65 65 65 255
124.290710 279.359192 68.335693 0.275848 0.848971 -0.450728 65 65 65 255
124.290710 298.825928 105.002350 0.275848 0.848971 -0.450728 65 65 65 255
141.261032 293.311920 105.002350 0.275848 0.848971 -0.450728 65 65 65 255
129.818771 277.563019 68.335686 0.275848 0.848971 -0.450728 65 65 65 255
129.818771 277.563019 68.335686 0.722178 0.524693 -0.450728 65 65 65 255
141.261032 293.311920 105.002350 0.722178 0.524693 -0.450728 65 65 65 255
151.749268 278.876099 105.002350 0.722178 0.524693 -0.450728 65 65 65 255
133.235306 272.860565 68.335686 0.722178 0.524693 -0.450728 65 65 65 255
133.235306 272.860565 68.335686 0.892661 0.000000 -0.450728 65 65 65 255
151.749268 278.876099 105.002350 0.892661 0.000000 -0.450728 65 65 65 255
151.749268 261.032471 105.002350 0.892661 0.000000 -0.450728 65 65 65 255
133.235306 267.048004 68.335686 0.892661 0.000000 -0.450728 65 65 65 255
133.235306 267.048004 68.335686 0.722178 -0.524693 -0.450728 65 65 65 255
151.749268 261.032471 105.002350 0.722178 -0.524693 -0.450728 65 65 65 255
141.261032 246.596634 105.002350 0.722178 -0.524693 -0.450728 65 65 65 255
129.818771 262.345551 68.335686 0.722178 -0.524693 -0.450728 65 65 65 255
129.818771 262.345551 68.335686 0.275847 -0.848971 -0.450728 65 65 65 255
141.261032 246.596634 105.002350 0.275847 -0.848971 -0.450728 65 65 65 255
124.290710 241.082642 105.002350 0.275847 -0.848971 -0.450728 65 65 65 255
124.290710 260.549377 68.335686 0.275847 -0.848971 -0.450728 65 65 65 255
124.290710 260.549377 68.335686 -0.275847 -0.848971 -0.450728 65 65 65 255
124.290710 241.082642 105.002350 -0.275847 -0.848971 -0.450728 65 65 65 255
107.320389 246.596634 105.002350 -0.275847 -0.848971 -0.450728 65 65 65 255
118.762634 262.345551 68.335686 -0.275847 -0.848971 -0.450728 65 65 65 255
118.762634 262.345551 68.335686 -0.722178 -0.524693 -0.450728 65 65 65 255
107.320389 246.596634 105.002350 -0.722178 -0.524693 -0.450728 65 65 65 255
96.832153 261.032471 105.002350 -0.722178 -0.524693 -0.450728 65 65 65 255
115.346100 267.048004 68.335686 -0.722178 -0.524693 -0.450728 65 65 65 255
115.346100 267.048004 68.335686 -0.892662 0.000000 -0.450728 65 65 65 255
96.832153 261.032471 105.002350 -0.892662 0.000000 -0.450728 65 65 65 255
96.832153 278.876099 105.002350 -0.892662 0.000000 -0.450728 65 65 65 255
115.346100 272.860565 68.335686 -0.892662 0.000000 -0.450728 65 65 65 255
115.346100 272.860565 68.335686 -0.722178 0.524693 -0.450728 65 65 65 255
96.832153 278.876099 105.002350 -0.722178 0.524693 -0.450728 65 65 65 255
107.320389 293.311920 105.002350 -0.722178 0.524693 -0.450728 65 65 65 255
118.762634 277.563019 68.335686 -0.722178 0.524693 -0.450728 65 65 65 255
118.762634 277.563019 68.335686 -0.275848 0.848971 -0.450728 65 65 65 255
107.320389 293.311920 105.002350 -0.275848 0.848971 -0.450728 65 65 65 255
124.290710 298.825928 105.002350 -0.275848 0.848971 -0.450728 65 65 65 255
124.290710 279.359192 68.335693 -0.275848 0.848971 -0.450728 65 65 65 255
110.565872 288.844910 -4.997646 -0.290592 0.894349 0.340142 65 65 65 255
118.762634 277.563019 31.669020 -0.290592 0.894349 0.340142 65 65 65 255
124.290710 279.359192 31.669025 -0.290592 0.894349 0.340142 65 65 65 255
124.290710 293.304382 -4.997646 -0.290592 0.894349 0.340142 65 65 65 255
118.762634 277.563019 31.669020 -0.309016 0.951057 0.000000 65 65 65 255
118.762634 277.563019 68.335686 -0.309016 0.951057 0.000000 65 65 65 255
124.290710 279.359192 68.335693 -0.309016 0.951057 0.000000 65 65 65 255
124.290710 279.359192 31.669025 -0.309016 0.951057 0.000000 65 65 65 255
102.083466 277.169861 -4.997646 -0.760779 0.552738 0.340141 65 65 65 255
115.346100 272.860565 31.669020 -0.760779 0.552738 0.340141 65 65 65 255
118.762634 277.563019 31.669020 -0.760779 0.552738 0.340141 65 65 65 255
110.565872 288.844910 -4.997646 -0.760779 0.552738 0.340141 65 65 65 255
115.346100 272.860565 31.669020 -0.809017 0.587785 0.000000 65 65 65 255
115.346100 272.860565 68.335686 -0.809017 0.587785 0.000000 65 65 65 255
118.762634 277.563019 68.335686 -0.809017 0.587785 0.000000 65 65 65 255
118.762634 277.563019 31.669020 -0.809017 0.587785 0.000000 65 65 65 255
102.083466 262.738708 -4.997646 -0.940374 0.000000 0.340141 65 65 65 255
115.346100 267.048004 31.669020 -0.940374 0.000000 0.340141 65 65 65 255
115.346100 272.860565 31.669020 -0.940374 0.000000 0.340141 65 65 65 255
102.083466 277.169861 -4.997646 -0.940374 0.000000 0.340141 65 65 65 255
115.346100 267.048004 31.669020 -1.000000 -0.000000 0.000000 65 65 65 255
115.346100 267.048004 68.335686 -1.000000 -0.000000 0.000000 65 65 65 255
115.346100 272.860565 68.335686 -1.000000 -0.000000 0.000000 65 65 65 255
115.346100 272.860565 31.669020 -1.000000 -0.000000 0.000000 65 65 65 255
110.565872 251.063675 -4.997646 -0.760779 -0.552738 0.340141 65 65 65 255
118.762634 262.345551 31.669020 -0.760779 -0.552738 0.340141 65 65 65 255
115.346100 267.048004 31.669020 -0.760779 -0.552738 0.340141 65 65 65 255
102.083466 262.738708 -4.997646 -0.760779 -0.552738 0.340141 65 65 65 255
118.762634 262.345551 31.669020 -0.809017 -0.587785 0.000000 65 65 65 255
118.762634 262.345551 68.335686 -0.809017 -0.587785 0.000000 65 65 65 255
115.346100 267.048004 68.335686 -0.809017 -0.587785 0.000000 65 65 65 255
115.346100 267.048004 31.669020 -0.809017 -0.587785 0.000000 65 65 65 255
124.290710 246.604202 -4.997646 -0.290591 -0.894349 0.340141 65 65 65 255
124.290710 260.549377 31.669020 -0.290591 -0.894349 0.340141 65 65 65 255
118.762634 262.345551 31.669020 -0.290591 -0.894349 0.340141 65 65 65 255
110.565872 251.063675 -4.997646 -0.290591 -0.894349 0.340141 65 65 65 255
124.290710 260.549377 31.669020 -0.309016 -0.951057 0.000000 65 65 65 255
124.290710 260.549377 68.335686 -0.309016 -0.951057 0.000000 65 65 65 255
118.762634 262.345551 68.335686 -0.309016 -0.951057 0.000000 65 65 65 255
118.762634 262.345551 31.669020 -0.309016 -0.951057 0.000000 65 65 65 255
138.015549 251.063660 -4.997646 0.290591 -0.894349 0.340142 65 65 65 255
129.818771 262.345551 31.669020 0.290591 -0.894349 0.340142 65 65 65 255
124.290710 260.549377 31.669020 0.290591 -0.894349 0.340142 65 65 65 255
124.290710 246.604202 -4.997646 0.290591 -0.894349 0.340142 65 65 65 255
129.818771 262.345551 31.669020 0.309017 -0.951057 0.000000 65 65 65 255
129.818771 262.345551 68.335686 0.309017 -0.951057 0.000000 65 65 65 255
124.290710 260.549377 68.335686 0.309017 -0.951057 0.000000 65 65 65 255
124.290710 260.549377 31.669020 0.309017 -0.951057 0.000000 65 65 65 255
146.497955 262.738708 -4.997646 0.760779 -0.552738 0.340142 65 65 65 255
133.235306 267.048004 31.669020 0.760779 -0.552738 0.340142 65 65 65 255
129.818771 262.345551 31.669020 0.760779 -0.552738 0.340142 65 65 65 255
138.015549 251.063660 -4.997646 0.760779 -0.552738 0.340142 65 65 65 255
133.235306 267.048004 31.669020 0.809017 -0.587785 0.000000 65 65 65 255
133.235306 267.048004 68.335686 0.809017 -0.587785 0.000000 65 65 65 255
129.818771 262.345551 68.335686 0.809017 -0.587785 0.000000 65 65 65 255
129.818771 262.345551 31.669020 0.809017 -0.587785 0.000000 65 65 65 255
146.497955 277.169861 -4.997646 0.940374 0.000000 0.340142 65 65 65 255
133.235306 272.860565 31.669020 0.940374 0.000000 0.340142 65 65 65 255
133.235306 267.048004 31.669020 0.940374 0.000000 0.340142 65 65 65 255
146.497955 262.738708 -4.997646 0.940374 0.000000 0.340142 65 65 65 255
133.235306 272.860565 31.669020 1.000000 -0.000000 0.000000 65 65 65 255
133.235306 272.860565 68.335686 1.000000 -0.000000 0.000000 65 65 65 255
133.235306 267.048004 68.335686 1.000000 -0.000000 0.000000 65 65 65 255
133.235306 267.048004 31.669020 1.000000 -0.000000 0.000000 65 65 65 255
138.015549 288.844910 -4.997646 0.760779 0.552738 0.340142 65 65 65 255
129.818771 277.563019 31.669020 0.760779 0.552738 0.340142 65 65 65 255
133.235306 272.860565 31.669020 0.760779 0.552738 0.340142 65 65 65 255
146.497955 277.169861 -4.997646 0.760779 0.552738 0.340142 65 65 65 255
129.818771 277.563019 31.669020 0.809017 0.587785 0.000000 65 65 65 255
129.818771 277.563019 68.335686 0.809017 0.587785 0.000000 65 65 65 255
133.235306 272.860565 68.335686 0.809017 0.587785 0.000000 65 65 65 255
133.235306 272.860565 31.669020 0.809017 0.587785 0.000000 65 65 65 255
124.290710 293.304382 -4.997646 0.290592 0.894349 0.340142 65 65 65 255
124.290710 279.359192 31.669025 0.290592 0.894349 0.340142 65 65 65 255
129.818771 277.563019 31.669020 0.290592 0.894349 0.340142 65 65 65 255
138.015549 288.844910 -4.997646 0.290592 0.894349 0.340142 65 65 65 255
124.290710 279.359192 31.669025 0.309017 0.951057 0.000000 65 65 65 255
124.290710 279.359192 68.335693 0.309017 0.951057 0.000000 65 65 65 255
129.818771 277.563019 68.335686 0.309017 0.951057 0.000000 65 65 65 255
129.818771 277.563019 31.669020 0.309017 0.951057 0.000000 65 65 65 255
4 0 1 2 3
4 4 5 6 7
4 8 9 10 11
4 12 13 14 15
4 16 17 18 19
4 20 21 22 23
4 24 25 26 27
4 28 29 30 31
4 32 33 34 35
4 36 37 38 39
4 40 41 42 43
4 44 45 46 47
4 48 49 50 51
4 52 53 54 55
4 56 57 58 59
4 60 61 62 63
4 64 65 66 67
4 68 69 70 71
4 72 73 74 75
4 76 77 78 79
4 80 81 82 83
4 84 85 86 87
4 88 89 90 91
4 92 93 94 95
4 96 97 98 99
4 100 101 102 103
4 104 105 106 107
4 108 109 110 111
4 112 113 114 115
4 116 117 118 119
4 120 121 122 123
4 124 125 126 127
4 128 129 130 131
4 132 133 134 135
4 136 137 138 139
4 140 141 142 143
4 144 145 146 147
4 148 149 150 151
4 152 153 154 155
4 156 157 158 159
4 160 161 162 163
4 164 165 166 167
4 168 169 170 171
4 147 146 172 173
4 151 150 174 175
4 176 177 178 179
4 180 181 182 183
4 163 162 184 185
4 167 166 186 187
4 188 189 190 191
4 192 193 194 195
4 196 197 198 199
4 135 134 200 201
4 139 138 202 203
4 204 205 206 207
4 173 172 208 209
4 175 174 210 211
4 212 213 214 215
4 216 217 218 219
4 185 184 220 221
4 187 186 222 223
4 224 225 226 227
4 228 229 230 231
4 232 233 234 235
4 201 200 236 237
4 203 202 238 239
4 240 241 242 243
4 244 245 246 247
4 248 249 250 251
4 252 253 254 255
4 256 257 258 259
4 260 261 262 263
4 264 265 266 267
4 268 269 270 271
4 272 273 274 275
4 276 277 278 279
4 280 281 282 283
4 284 285 286 287
4 288 289 290 291
4 292 293 294 295
4 296 297 298 299
4 300 301 302 303
4 304 305 306 307
4 308 309 310 311
4 312 313 314 315
4 316 317 318 319
4 320 321 322 323
4 324 325 326 327
4 328 329 330 331
4 332 333 334 335
4 336 337 338 339
4 340 341 342 343
4 344 345 346 347
4 348 349 350 351
4 352 353 354 355
4 356 357 358 359
3 360 361 362
3 363 364 365
3 366 367 368
3 369 370 371
3 372 373 374
3 375 376 377
3 378 379 380
3 381 382 383
3 384 385 386
3 387 388 389
3 390 391 392
3 393 394 395
3 396 397 398
3 399 400 401
3 402 403 404
3 405 406 407
3 408 409 410
3 411 412 413
3 414 415 416
3 417 418 419
3 420 421 422
3 423 424 425
3 426 427 428
3 429 430 431
3 432 433 434
3 435 436 437
3 438 439 440
3 441 442 443
3 444 445 446
3 447 448 449
3 450 451 452
3 453 454 455
3 456 457 458
3 459 460 461
3 462 463 464
3 465 466 467
3 468 469 470
3 471 472 473
3 474 475 476
3 477 478 479
4 480 481 482 483
4 484 485 486 487
4 488 489 490 491
4 492 493 494 495
4 496 497 498 499
4 500 501 502 503
4 504 505 506 507
4 508 509 510 511
4 512 513 514 515
4 516 517 518 519
4 520 521 522 523
4 524 525 526 527
4 528 529 530 531
4 532 533 534 535
4 536 537 538 539
4 540 541 542 543
4 544 545 546 547
4 548 549 550 551
4 552 553 554 555
4 556 557 558 559
4 560 561 562 563
4 564 565 566 567
4 568 569 570 571
4 572 573 574 575
4 576 577 578 579
4 580 581 582 583
4 584 585 586 587
4 588 589 590 591
4 592 593 594 595
4 596 597 598 599
