ply
format ascii 1.0
comment Created by Blender 2.93.5 - www.blender.org
element vertex 417
property float x
property float y
property float z
property float nx
property float ny
property float nz
property uchar red
property uchar green
property uchar blue
property uchar alpha
element face 141
property list uchar uint vertex_indices
end_header
170.000000 -0.000026 60.000011 -0.496139 0.000000 -0.868243 90 96 104 255
99.999992 -0.000015 100.000008 -0.496139 0.000000 -0.868243 90 96 104 255
100.000008 49.999985 100.000008 -0.496139 0.000000 -0.868243 90 96 104 255
170.000000 49.999969 60.000011 -0.496139 0.000000 -0.868243 90 96 104 255
40.000000 -0.000006 120.000000 0.242511 0.000021 -0.970149 90 96 104 255
0.000000 0.000000 110.000000 0.242511 0.000021 -0.970149 90 96 104 255
-0.008656 49.994999 110.000000 0.242511 0.000021 -0.970149 90 96 104 255
40.000008 49.999992 120.000000 0.242511 0.000021 -0.970149 90 96 104 255
-100.000008 0.000015 -20.000008 -0.316228 -0.000000 0.948683 135 144 155 255
-39.999996 0.000006 0.000000 -0.316228 -0.000000 0.948683 90 96 104 255
-40.000000 49.979996 0.000000 -0.316228 -0.000000 0.948683 90 96 104 255
-99.999977 49.979988 -19.999992 -0.316228 -0.000000 0.948683 135 144 155 255
100.000000 -0.000015 -19.999992 -0.000000 0.000000 1.000000 135 144 155 255
160.000000 -0.000024 -19.999985 -0.000000 0.000000 1.000000 135 144 155 255
160.000000 49.999977 -19.999985 -0.000000 0.000000 1.000000 135 144 155 255
100.000000 49.999985 -19.999992 -0.000000 0.000000 1.000000 135 144 155 255
0.000000 0.000000 110.000000 -0.242560 -0.000021 -0.970136 90 96 104 255
-40.000000 0.000006 120.000000 -0.242560 -0.000021 -0.970136 90 96 104 255
-40.000000 49.979996 120.000000 -0.242560 -0.000021 -0.970136 90 96 104 255
-0.008656 49.994999 110.000000 -0.242560 -0.000021 -0.970136 90 96 104 255
99.999992 -0.000015 160.000000 -0.989807 0.000000 0.142418 90 96 104 255
119.999985 -0.000018 299.000000 -0.989807 0.000000 0.142418 90 96 104 255
119.999985 49.999985 299.000000 -0.989807 0.000000 0.142418 90 96 104 255
100.000008 49.999985 160.000000 -0.989807 0.000000 0.142418 90 96 104 255
99.999992 -0.000015 100.000008 -1.000000 0.000000 0.000000 90 96 104 255
99.999992 -0.000015 160.000000 -1.000000 0.000000 0.000000 90 96 104 255
100.000008 49.999985 160.000000 -1.000000 0.000000 0.000000 90 96 104 255
100.000008 49.999985 100.000008 -1.000000 0.000000 0.000000 90 96 104 255
-40.000000 0.000006 120.000000 -1.000000 -0.000000 0.000000 90 96 104 255
-40.000000 0.000006 160.000000 -1.000000 -0.000000 0.000000 90 96 104 255
-40.000000 49.979996 160.000000 -1.000000 -0.000000 0.000000 90 96 104 255
-40.000000 49.979996 120.000000 -1.000000 -0.000000 0.000000 90 96 104 255
-100.000000 0.000015 160.000000 1.000000 -0.000001 -0.000000 90 96 104 255
-100.000015 0.000015 99.999992 1.000000 -0.000001 -0.000000 90 96 104 255
-99.999977 49.979988 100.000008 1.000000 -0.000001 -0.000000 90 96 104 255
-99.999977 49.979988 160.000000 1.000000 -0.000001 -0.000000 90 96 104 255
40.000000 -0.000006 0.000000 0.316228 -0.000000 0.948683 90 96 104 255
100.000000 -0.000015 -19.999992 0.316228 -0.000000 0.948683 135 144 155 255
100.000000 49.999985 -19.999992 0.316228 -0.000000 0.948683 135 144 155 255
40.000008 49.999992 0.000000 0.316228 -0.000000 0.948683 90 96 104 255
-40.000000 0.000006 160.000000 -0.986394 0.000000 0.164399 90 96 104 255
-30.000000 0.000005 220.000000 -0.986394 0.000000 0.164399 90 96 104 255
-30.000000 49.979988 220.000000 -0.986394 0.000000 0.164399 90 96 104 255
-40.000000 49.979996 160.000000 -0.986394 0.000000 0.164399 90 96 104 255
-159.999985 0.000024 -20.000015 -0.000000 -0.000000 1.000000 135 144 155 255
-100.000008 0.000015 -20.000008 -0.000000 -0.000000 1.000000 135 144 155 255
-99.999977 49.979988 -19.999992 -0.000000 -0.000000 1.000000 135 144 155 255
-160.000000 49.979988 -19.999985 -0.000000 -0.000000 1.000000 135 144 155 255
-0.000000 -0.000000 0.000000 0.000000 0.000000 1.000000 90 96 104 255
40.000000 -0.000006 0.000000 0.000000 0.000000 1.000000 90 96 104 255
40.000008 49.999992 0.000000 0.000000 0.000000 1.000000 90 96 104 255
-0.008656 49.994999 0.000000 0.000000 0.000000 1.000000 90 96 104 255
0.000000 0.000000 233.000000 0.397559 0.000034 0.917577 90 96 104 255
30.000000 -0.000005 220.000000 0.397559 0.000034 0.917577 90 96 104 255
30.000008 50.000000 220.000000 0.397559 0.000034 0.917577 90 96 104 255
-0.008656 49.994999 233.000000 0.397559 0.000034 0.917577 90 96 104 255
-120.000015 0.000018 299.000000 0.989807 -0.000001 0.142418 90 96 104 255
-100.000000 0.000015 160.000000 0.989807 -0.000001 0.142418 90 96 104 255
-99.999977 49.979988 160.000000 0.989807 -0.000001 0.142418 90 96 104 255
-119.999977 49.979988 299.000000 0.989807 -0.000001 0.142418 90 96 104 255
-0.000000 -0.000000 0.000000 0.000000 -0.000000 -1.000000 90 96 104 255
-39.999996 0.000006 0.000000 0.000000 -0.000000 -1.000000 90 96 104 255
-40.000000 49.979996 0.000000 0.000000 -0.000000 -1.000000 90 96 104 255
-0.008656 49.994999 0.000000 0.000000 -0.000000 -1.000000 90 96 104 255
30.000000 -0.000005 220.000000 0.986394 -0.000000 0.164399 90 96 104 255
40.000000 -0.000006 160.000000 0.986394 -0.000000 0.164399 90 96 104 255
40.000008 49.999992 160.000000 0.986394 -0.000000 0.164399 90 96 104 255
30.000008 50.000000 220.000000 0.986394 -0.000000 0.164399 90 96 104 255
170.000000 -0.000026 20.000015 -1.000000 -0.000000 0.000000 90 96 104 255
170.000000 -0.000026 60.000011 -1.000000 -0.000000 0.000000 90 96 104 255
170.000000 49.999969 60.000011 -1.000000 -0.000000 0.000000 90 96 104 255
170.000000 49.999969 20.000015 -1.000000 -0.000000 0.000000 90 96 104 255
-170.000015 0.000026 59.999989 1.000000 -0.000000 0.000000 90 96 104 255
-170.000015 0.000026 19.999985 1.000000 -0.000000 0.000000 90 96 104 255
-170.000000 49.980003 20.000015 1.000000 -0.000000 0.000000 90 96 104 255
-170.000000 49.980003 60.000011 1.000000 -0.000000 0.000000 90 96 104 255
-100.000015 0.000015 99.999992 0.496139 0.000000 -0.868243 90 96 104 255
-170.000015 0.000026 59.999989 0.496139 0.000000 -0.868243 90 96 104 255
-170.000000 49.980003 60.000011 0.496139 0.000000 -0.868243 90 96 104 255
-99.999977 49.979988 100.000008 0.496139 0.000000 -0.868243 90 96 104 255
-30.000000 0.000005 220.000000 -0.397656 -0.000034 0.917535 90 96 104 255
0.000000 0.000000 233.000000 -0.397656 -0.000034 0.917535 90 96 104 255
-0.008656 49.994999 233.000000 -0.397656 -0.000034 0.917535 90 96 104 255
-30.000000 49.979988 220.000000 -0.397656 -0.000034 0.917535 90 96 104 255
160.000000 -0.000024 -19.999985 -0.970143 0.000000 0.242536 135 144 155 255
170.000000 -0.000026 20.000015 -0.970143 0.000000 0.242536 90 96 104 255
170.000000 49.999969 20.000015 -0.970143 0.000000 0.242536 90 96 104 255
160.000000 49.999977 -19.999985 -0.970143 0.000000 0.242536 135 144 155 255
40.000000 -0.000006 160.000000 1.000000 -0.000000 0.000000 90 96 104 255
40.000000 -0.000006 120.000000 1.000000 -0.000000 0.000000 90 96 104 255
40.000008 49.999992 120.000000 1.000000 -0.000000 0.000000 90 96 104 255
40.000008 49.999992 160.000000 1.000000 -0.000000 0.000000 90 96 104 255
-170.000015 0.000026 19.999985 0.970142 -0.000000 0.242536 90 96 104 255
-159.999985 0.000024 -20.000015 0.970142 -0.000000 0.242536 135 144 155 255
-160.000000 49.979988 -19.999985 0.970142 -0.000000 0.242536 135 144 155 255
-170.000000 49.980003 20.000015 0.970142 -0.000000 0.242536 90 96 104 255
79.991364 188.559036 -19.999985 -0.000000 -0.000000 1.000000 135 144 155 255
49.991348 136.597549 -19.999992 -0.000000 -0.000000 1.000000 135 144 155 255
40.000008 49.999992 120.000000 0.240126 0.138717 -0.960780 90 96 104 255
-0.008656 49.994999 110.000000 0.240126 0.138717 -0.960780 90 96 104 255
19.991346 84.636017 120.000000 0.240126 0.138717 -0.960780 90 96 104 255
170.000000 49.999969 20.000015 -0.865996 -0.500051 0.000000 90 96 104 255
170.000000 49.999969 60.000011 -0.865996 -0.500051 0.000000 90 96 104 255
84.991364 197.219284 60.000011 -0.865996 -0.500051 0.000000 90 96 104 255
84.991364 197.219284 20.000015 -0.865996 -0.500051 0.000000 90 96 104 255
-0.008656 49.994999 233.000000 0.387393 0.223834 0.894329 90 96 104 255
30.000008 50.000000 220.000000 0.387393 0.223834 0.894329 90 96 104 255
14.991348 75.975761 220.000000 0.387393 0.223834 0.894329 90 96 104 255
100.000008 49.999985 100.000008 -0.865975 -0.500086 0.000000 90 96 104 255
100.000008 49.999985 160.000000 -0.865975 -0.500086 0.000000 90 96 104 255
49.991352 136.597534 160.000000 -0.865975 -0.500086 0.000000 90 96 104 255
49.991352 136.597534 100.000008 -0.865975 -0.500086 0.000000 90 96 104 255
100.000008 49.999985 160.000000 -0.859334 -0.496241 0.123652 90 96 104 255
119.999985 49.999985 299.000000 -0.859334 -0.496241 0.123652 90 96 104 255
59.991348 153.918030 299.000000 -0.859334 -0.496241 0.123652 90 96 104 255
49.991352 136.597534 160.000000 -0.859334 -0.496241 0.123652 90 96 104 255
160.000000 49.999977 -19.999985 -0.846385 -0.488729 0.211604 135 144 155 255
170.000000 49.999969 20.000015 -0.846385 -0.488729 0.211604 90 96 104 255
84.991364 197.219284 20.000015 -0.846385 -0.488729 0.211604 90 96 104 255
79.991364 188.559036 -19.999985 -0.846385 -0.488729 0.211604 135 144 155 255
30.000008 50.000000 220.000000 0.857002 0.495116 0.142857 90 96 104 255
40.000008 49.999992 160.000000 0.857002 0.495116 0.142857 90 96 104 255
19.991346 84.636017 160.000000 0.857002 0.495116 0.142857 90 96 104 255
14.991348 75.975761 220.000000 0.857002 0.495116 0.142857 90 96 104 255
40.000008 49.999992 0.000000 0.311060 0.179650 0.933257 90 96 104 255
100.000000 49.999985 -19.999992 0.311060 0.179650 0.933257 135 144 155 255
49.991348 136.597549 -19.999992 0.311060 0.179650 0.933257 135 144 155 255
19.991346 84.636017 0.000000 0.311060 0.179650 0.933257 90 96 104 255
170.000000 49.999969 60.000011 -0.476937 -0.275407 -0.834675 90 96 104 255
100.000008 49.999985 100.000008 -0.476937 -0.275407 -0.834675 90 96 104 255
49.991352 136.597534 100.000008 -0.476937 -0.275407 -0.834675 90 96 104 255
84.991364 197.219284 60.000011 -0.476937 -0.275407 -0.834675 90 96 104 255
40.000008 49.999992 160.000000 0.865900 0.500216 0.000000 90 96 104 255
40.000008 49.999992 120.000000 0.865900 0.500216 0.000000 90 96 104 255
19.991346 84.636017 120.000000 0.865900 0.500216 0.000000 90 96 104 255
19.991346 84.636017 160.000000 0.865900 0.500216 0.000000 90 96 104 255
19.991346 84.636017 0.000000 0.000000 0.000000 1.000000 90 96 104 255
-20.008652 84.626015 0.000000 -0.000000 0.000000 1.000000 90 96 104 255
-80.008644 188.549042 -19.999985 0.000000 -0.000000 1.000000 135 144 155 255
-50.008659 136.587524 -19.999992 0.000000 -0.000000 1.000000 135 144 155 255
-0.008656 49.994999 233.000000 -0.000149 0.447547 0.894260 90 96 104 255
14.991348 75.975761 220.000000 -0.000149 0.447547 0.894260 90 96 104 255
-15.008656 75.965759 220.000000 -0.000149 0.447547 0.894260 90 96 104 255
84.991364 197.219284 20.000015 0.000059 -1.000000 0.000000 90 96 104 255
84.991364 197.219284 60.000011 0.000059 -1.000000 0.000000 90 96 104 255
-85.008644 197.209335 60.000011 0.000059 -1.000000 0.000000 90 96 104 255
-85.008644 197.209335 20.000015 0.000059 -1.000000 0.000000 90 96 104 255
49.991352 136.597534 160.000000 0.000090 -0.992326 0.123652 90 96 104 255
59.991348 153.918030 299.000000 0.000090 -0.992326 0.123652 90 96 104 255
-60.008644 153.908020 299.000000 0.000090 -0.992326 0.123652 90 96 104 255
-50.008659 136.587524 160.000000 0.000090 -0.992326 0.123652 90 96 104 255
49.991352 136.597534 100.000008 0.000100 -1.000000 0.000000 90 96 104 255
49.991352 136.597534 160.000000 0.000100 -1.000000 0.000000 90 96 104 255
-50.008659 136.587524 160.000000 0.000100 -1.000000 0.000000 90 96 104 255
-50.008659 136.587524 100.000008 0.000100 -1.000000 0.000000 90 96 104 255
14.991348 75.975761 220.000000 -0.000283 0.989743 0.142857 90 96 104 255
19.991346 84.636017 160.000000 -0.000283 0.989743 0.142857 90 96 104 255
-20.008652 84.626015 160.000000 -0.000283 0.989743 0.142857 90 96 104 255
-15.008656 75.965759 220.000000 -0.000283 0.989743 0.142857 90 96 104 255
79.991364 188.559036 -19.999985 0.000059 -0.977355 0.211604 135 144 155 255
84.991364 197.219284 20.000015 0.000059 -0.977355 0.211604 90 96 104 255
-85.008644 197.209335 20.000015 0.000059 -0.977355 0.211604 90 96 104 255
-80.008644 188.549042 -19.999985 0.000059 -0.977355 0.211604 135 144 155 255
19.991346 84.636017 160.000000 -0.000250 1.000000 0.000000 90 96 104 255
19.991346 84.636017 120.000000 -0.000250 1.000000 0.000000 90 96 104 255
-20.008652 84.626015 120.000000 -0.000250 1.000000 0.000000 90 96 104 255
-20.008652 84.626015 160.000000 -0.000250 1.000000 0.000000 90 96 104 255
19.991346 84.636017 0.000000 -0.000051 0.359210 0.933257 90 96 104 255
49.991348 136.597549 -19.999992 -0.000051 0.359210 0.933257 135 144 155 255
-50.008659 136.587524 -19.999992 -0.000051 0.359210 0.933257 135 144 155 255
-20.008652 84.626015 0.000000 -0.000051 0.359210 0.933257 90 96 104 255
84.991364 197.219284 60.000011 0.000041 -0.550743 -0.834675 90 96 104 255
49.991352 136.597534 100.000008 0.000041 -0.550743 -0.834675 90 96 104 255
-50.008659 136.587524 100.000008 0.000041 -0.550743 -0.834675 90 96 104 255
-85.008644 197.209335 60.000011 0.000041 -0.550743 -0.834675 90 96 104 255
19.991346 84.636017 120.000000 -0.000069 0.277387 -0.960758 90 96 104 255
-0.008656 49.994999 110.000000 -0.000069 0.277387 -0.960758 90 96 104 255
-20.008652 84.626015 120.000000 -0.000069 0.277387 -0.960758 90 96 104 255
-40.000000 49.979996 0.000000 -0.000000 0.000000 1.000000 90 96 104 255
-0.008656 49.994999 233.000000 -0.387722 0.223679 0.894226 90 96 104 255
-15.008656 75.965759 220.000000 -0.387722 0.223679 0.894226 90 96 104 255
-30.000000 49.979988 220.000000 -0.387722 0.223679 0.894226 90 96 104 255
-85.008644 197.209335 20.000015 0.866055 -0.499949 0.000000 90 96 104 255
-85.008644 197.209335 60.000011 0.866055 -0.499949 0.000000 90 96 104 255
-170.000000 49.980003 60.000011 0.866055 -0.499949 0.000000 90 96 104 255
-170.000000 49.980003 20.000015 0.866055 -0.499949 0.000000 90 96 104 255
-50.008659 136.587524 160.000000 0.859424 -0.496085 0.123652 90 96 104 255
-60.008644 153.908020 299.000000 0.859424 -0.496085 0.123652 90 96 104 255
-119.999977 49.979988 299.000000 0.859424 -0.496085 0.123652 90 96 104 255
-99.999977 49.979988 160.000000 0.859424 -0.496085 0.123652 90 96 104 255
-50.008659 136.587524 100.000008 0.866076 -0.499913 0.000000 90 96 104 255
-50.008659 136.587524 160.000000 0.866076 -0.499913 0.000000 90 96 104 255
-99.999977 49.979988 160.000000 0.866076 -0.499913 0.000000 90 96 104 255
-99.999977 49.979988 100.000008 0.866076 -0.499913 0.000000 90 96 104 255
-15.008656 75.965759 220.000000 -0.857284 0.494627 0.142857 90 96 104 255
-20.008652 84.626015 160.000000 -0.857284 0.494627 0.142857 90 96 104 255
-40.000000 49.979996 160.000000 -0.857284 0.494627 0.142857 90 96 104 255
-30.000000 49.979988 220.000000 -0.857284 0.494627 0.142857 90 96 104 255
-80.008644 188.549042 -19.999985 0.846444 -0.488627 0.211604 135 144 155 255
-85.008644 197.209335 20.000015 0.846444 -0.488627 0.211604 90 96 104 255
-170.000000 49.980003 20.000015 0.846444 -0.488627 0.211604 90 96 104 255
-160.000000 49.979988 -19.999985 0.846444 -0.488627 0.211604 135 144 155 255
-20.008652 84.626015 160.000000 -0.866150 0.499784 0.000000 90 96 104 255
-20.008652 84.626015 120.000000 -0.866150 0.499784 0.000000 90 96 104 255
-40.000000 49.979996 120.000000 -0.866150 0.499784 0.000000 90 96 104 255
-40.000000 49.979996 160.000000 -0.866150 0.499784 0.000000 90 96 104 255
-20.008652 84.626015 0.000000 -0.311111 0.179561 0.933257 90 96 104 255
-50.008659 136.587524 -19.999992 -0.311111 0.179561 0.933257 135 144 155 255
-99.999977 49.979988 -19.999992 -0.311111 0.179561 0.933257 135 144 155 255
-40.000000 49.979996 0.000000 -0.311111 0.179561 0.933257 90 96 104 255
-85.008644 197.209335 60.000011 0.476977 -0.275336 -0.834675 90 96 104 255
-50.008659 136.587524 100.000008 0.476977 -0.275336 -0.834675 90 96 104 255
-99.999977 49.979988 100.000008 0.476977 -0.275336 -0.834675 90 96 104 255
-170.000000 49.980003 60.000011 0.476977 -0.275336 -0.834675 90 96 104 255
-20.008652 84.626015 120.000000 -0.240291 0.138652 -0.960748 90 96 104 255
-0.008656 49.994999 110.000000 -0.240291 0.138652 -0.960748 90 96 104 255
-40.000000 49.979996 120.000000 -0.240291 0.138652 -0.960748 90 96 104 255
-43.094292 132.602539 160.000000 0.000000 0.000000 1.000000 119 119 119 255
-4.000007 132.602539 160.000000 0.000000 0.000000 1.000000 119 119 119 255
-50.000011 136.602539 160.000000 0.000000 0.000000 1.000000 119 119 119 255
43.094276 132.602554 160.000000 0.000000 -0.000000 -1.000000 119 119 119 255
3.999993 132.602539 160.000000 0.000000 -0.000000 -1.000000 119 119 119 255
49.999996 136.602554 160.000000 0.000000 -0.000000 -1.000000 119 119 119 255
3.999993 132.602539 160.000000 -0.000000 0.000000 1.000000 119 119 119 255
49.999996 136.602554 160.000000 -0.000000 0.000000 1.000000 119 119 119 255
50.011292 128.582993 160.000000 0.000000 0.000000 1.000000 119 119 119 255
69.541542 94.755600 160.000000 0.000000 0.000000 1.000000 119 119 119 255
93.071800 54.000000 160.000000 -0.000000 -0.000000 -1.000000 119 119 119 255
73.541557 87.827370 160.000000 -0.000000 -0.000000 -1.000000 119 119 119 255
100.000000 50.000000 160.000000 -0.000000 -0.000000 -1.000000 119 119 119 255
100.000000 50.000000 160.000000 -0.000000 -0.000000 1.000000 119 119 119 255
73.541557 87.827370 160.000000 -0.000000 -0.000000 1.000000 119 119 119 255
96.000000 46.000000 160.000000 0.000000 -0.000000 1.000000 119 119 119 255
96.000000 29.000000 160.000000 0.000000 -0.000000 1.000000 119 119 119 255
96.000000 4.000000 160.000000 -0.000000 -0.000000 -1.000000 119 119 119 255
96.000000 21.000000 160.000000 -0.000000 -0.000000 -1.000000 119 119 119 255
100.000000 0.000000 160.000000 -0.000000 -0.000000 -1.000000 119 119 119 255
100.000000 0.000000 160.000000 -0.000000 0.000000 1.000000 119 119 119 255
96.000000 21.000000 160.000000 -0.000000 0.000000 1.000000 119 119 119 255
74.000000 4.000000 160.000000 0.000000 0.000000 -1.000000 119 119 119 255
40.000000 0.000000 160.000000 -0.000000 0.000000 1.000000 119 119 119 255
66.000000 4.000000 160.000000 -0.000000 0.000000 1.000000 119 119 119 255
44.000000 4.000000 160.000000 -0.000000 0.000000 1.000000 119 119 119 255
40.000000 0.000000 160.000000 -0.000000 0.000000 -1.000000 119 119 119 255
66.000000 4.000000 160.000000 -0.000000 0.000000 -1.000000 119 119 119 255
40.000000 50.000000 160.000000 0.000000 0.000000 1.000000 119 119 119 255
44.000000 29.000000 160.000000 0.000000 0.000000 1.000000 119 119 119 255
44.000000 46.000000 160.000000 0.000000 0.000000 1.000000 119 119 119 255
44.000000 21.000000 160.000000 0.000000 -0.000000 1.000000 119 119 119 255
40.000000 50.000000 160.000000 -0.000000 -0.000000 -1.000000 119 119 119 255
35.473244 65.704903 160.000000 -0.000000 -0.000000 -1.000000 119 119 119 255
42.298008 54.000000 160.000000 -0.000000 -0.000000 -1.000000 119 119 119 255
24.620720 84.317673 160.000000 0.000000 -0.000000 1.000000 119 119 119 255
19.999998 84.301277 160.000000 0.000000 -0.000000 1.000000 119 119 119 255
31.443634 72.615936 160.000000 0.000000 -0.000000 1.000000 119 119 119 255
19.999998 84.301277 160.000000 0.000000 0.000000 -1.000000 119 119 119 255
31.443634 72.615936 160.000000 0.000000 0.000000 -1.000000 119 119 119 255
3.999996 88.301270 160.000000 0.000000 -0.000000 -1.000000 119 119 119 255
17.683077 88.301277 160.000000 0.000000 -0.000000 -1.000000 119 119 119 255
-20.000006 84.301270 160.000000 -0.000000 0.000000 1.000000 119 119 119 255
-4.000004 88.301270 160.000000 -0.000000 0.000000 1.000000 119 119 119 255
-17.683086 88.301270 160.000000 -0.000000 0.000000 1.000000 119 119 119 255
-20.000006 84.301270 160.000000 -0.000000 0.000000 -1.000000 119 119 119 255
-4.000004 88.301270 160.000000 -0.000000 0.000000 -1.000000 119 119 119 255
-31.443642 72.615936 160.000000 0.000000 -0.000000 -1.000000 119 119 119 255
-24.620729 84.317665 160.000000 0.000000 -0.000000 -1.000000 119 119 119 255
-40.000008 49.999992 160.000000 -0.000000 0.000000 1.000000 119 119 119 255
-35.473251 65.704903 160.000000 -0.000000 0.000000 1.000000 119 119 119 255
-42.298016 53.999992 160.000000 -0.000000 0.000000 1.000000 119 119 119 255
-40.000008 49.999992 160.000000 0.000000 0.000000 -1.000000 119 119 119 255
-35.473251 65.704903 160.000000 0.000000 0.000000 -1.000000 119 119 119 255
-44.000008 45.999992 160.000000 0.000000 0.000000 1.000000 119 119 119 255
-44.000004 28.999996 160.000000 0.000000 0.000000 1.000000 119 119 119 255
-40.000000 0.000000 160.000000 -0.000000 -0.000000 1.000000 119 119 119 255
-44.000004 20.999996 160.000000 -0.000000 -0.000000 1.000000 119 119 119 255
-44.000000 4.000000 160.000000 -0.000000 -0.000000 1.000000 119 119 119 255
-66.000000 4.000000 160.000000 0.000000 -0.000000 1.000000 119 119 119 255
-100.000000 0.000000 160.000000 -0.000000 0.000000 1.000000 119 119 119 255
-74.000000 4.000000 160.000000 -0.000000 0.000000 1.000000 119 119 119 255
-96.000000 4.000000 160.000000 -0.000000 0.000000 1.000000 119 119 119 255
-96.000008 20.999992 160.000000 0.000000 -0.000000 1.000000 119 119 119 255
-96.000015 45.999985 160.000000 0.000000 0.000000 -1.000000 119 119 119 255
-96.000008 28.999992 160.000000 0.000000 0.000000 -1.000000 119 119 119 255
-100.000015 49.999985 160.000000 0.000000 0.000000 -1.000000 119 119 119 255
-100.000015 49.999985 160.000000 0.000000 0.000000 1.000000 119 119 119 255
-96.000008 28.999992 160.000000 0.000000 0.000000 1.000000 119 119 119 255
-93.071808 53.999985 160.000000 -0.000000 0.000000 1.000000 119 119 119 255
-73.541573 87.827354 160.000000 -0.000000 0.000000 1.000000 119 119 119 255
-50.011307 128.582977 160.000000 0.000000 -0.000000 -1.000000 119 119 119 255
-69.541557 94.755585 160.000000 0.000000 -0.000000 -1.000000 119 119 119 255
-50.000011 136.602539 160.000000 0.000000 -0.000000 -1.000000 119 119 119 255
-69.541557 94.755585 160.000000 0.000000 -0.000000 1.000000 119 119 119 255
-50.011307 128.582977 160.000000 -0.000000 0.000000 1.000000 119 119 119 255
50.011292 128.582993 160.000000 -0.000000 0.000000 -1.000000 119 119 119 255
96.000000 46.000000 160.000000 0.000000 0.000000 -1.000000 119 119 119 255
42.298008 54.000000 160.000000 0.000000 0.000000 1.000000 119 119 119 255
-93.071808 53.999985 160.000000 0.000000 -0.000000 -1.000000 119 119 119 255
-74.000015 45.999989 153.265106 -0.299293 0.086459 -0.950236 119 119 119 255
-96.000015 45.999985 160.000000 -0.299293 0.086459 -0.950236 119 119 119 255
-93.071808 53.999985 160.000000 -0.299293 0.086459 -0.950236 119 119 119 255
-72.306175 53.999989 153.265106 -0.299293 0.086459 -0.950236 119 119 119 255
-74.000008 28.999994 153.265106 0.292722 0.000000 0.956198 119 119 119 255
-96.000008 28.999992 160.000000 0.292722 0.000000 0.956198 119 119 119 255
-96.000008 20.999992 160.000000 0.292722 0.000000 0.956198 119 119 119 255
-74.000008 20.999994 153.265106 0.292722 0.000000 0.956198 119 119 119 255
-44.000004 20.999996 160.000000 -0.292722 0.000000 0.956198 119 119 119 255
-44.000004 28.999996 160.000000 -0.292722 0.000000 0.956198 119 119 119 255
-66.000008 28.999994 153.265106 -0.292722 0.000000 0.956198 119 119 119 255
-66.000008 20.999994 153.265106 -0.292722 0.000000 0.956198 119 119 119 255
-66.000008 20.999994 153.265106 0.000000 0.368319 0.929699 119 119 119 255
-74.000008 20.999994 153.265106 0.000000 0.368319 0.929699 119 119 119 255
-74.000000 4.000000 160.000000 0.000000 0.368319 0.929699 119 119 119 255
-66.000000 4.000000 160.000000 0.000000 0.368319 0.929699 119 119 119 255
-74.000008 28.999994 153.265106 0.000000 0.000000 1.000000 119 119 119 255
-74.000008 20.999994 153.265106 0.000000 0.000000 1.000000 119 119 119 255
-66.000008 20.999994 153.265106 0.000000 0.000000 1.000000 119 119 119 255
-66.000008 28.999994 153.265106 0.000000 0.000000 1.000000 119 119 119 255
-74.000015 45.999989 153.265106 0.000000 0.000000 1.000000 119 119 119 255
-66.000015 45.999989 153.265106 0.000000 0.000000 1.000000 119 119 119 255
-42.298016 53.999992 160.000000 -0.299295 0.086794 0.950205 119 119 119 255
-63.062073 53.999989 153.265106 -0.299295 0.086794 0.950205 119 119 119 255
-66.000015 45.999989 153.265106 -0.299295 0.086794 0.950205 119 119 119 255
-44.000008 45.999992 160.000000 -0.299295 0.086794 0.950205 119 119 119 255
-74.000015 45.999989 153.265106 -0.000000 0.000000 -1.000000 119 119 119 255
-72.306175 53.999989 153.265106 -0.000000 0.000000 -1.000000 119 119 119 255
-63.062073 53.999989 153.265106 -0.000000 0.000000 -1.000000 119 119 119 255
-66.000015 45.999989 153.265106 -0.000000 0.000000 -1.000000 119 119 119 255
-57.962666 78.774055 153.265106 0.000000 0.000000 -1.000000 119 119 119 255
-51.045784 74.754486 153.265106 0.000000 0.000000 -1.000000 119 119 119 255
74.000000 21.000000 153.265106 0.000000 -0.368319 -0.929699 119 119 119 255
74.000000 4.000000 160.000000 0.000000 -0.368319 -0.929699 119 119 119 255
66.000000 4.000000 160.000000 0.000000 -0.368319 -0.929699 119 119 119 255
66.000000 21.000000 153.265106 0.000000 -0.368319 -0.929699 119 119 119 255
96.000000 21.000000 160.000000 -0.292722 0.000000 0.956198 119 119 119 255
96.000000 29.000000 160.000000 -0.292722 0.000000 0.956198 119 119 119 255
74.000000 29.000000 153.265106 -0.292722 0.000000 0.956198 119 119 119 255
74.000000 21.000000 153.265106 -0.292722 0.000000 0.956198 119 119 119 255
66.000000 29.000000 153.265106 0.292722 0.000000 0.956198 119 119 119 255
44.000000 29.000000 160.000000 0.292722 0.000000 0.956198 119 119 119 255
44.000000 21.000000 160.000000 0.292722 0.000000 0.956198 119 119 119 255
66.000000 21.000000 153.265106 0.292722 0.000000 0.956198 119 119 119 255
66.000000 21.000000 153.265106 -0.000000 0.000000 -1.000000 119 119 119 255
66.000000 29.000000 153.265106 -0.000000 0.000000 -1.000000 119 119 119 255
74.000000 29.000000 153.265106 -0.000000 0.000000 -1.000000 119 119 119 255
74.000000 21.000000 153.265106 -0.000000 0.000000 -1.000000 119 119 119 255
66.000000 46.000000 153.265106 0.000000 0.000000 -1.000000 119 119 119 255
74.000000 46.000000 153.265106 0.000000 0.000000 -1.000000 119 119 119 255
93.071800 54.000000 160.000000 0.299293 0.086459 -0.950236 119 119 119 255
96.000000 46.000000 160.000000 0.299293 0.086459 -0.950236 119 119 119 255
74.000000 46.000000 153.265106 0.299293 0.086459 -0.950236 119 119 119 255
72.306160 54.000000 153.265106 0.299293 0.086459 -0.950236 119 119 119 255
66.000000 46.000000 153.265106 0.299295 0.086794 0.950205 119 119 119 255
63.062061 54.000000 153.265106 0.299295 0.086794 0.950205 119 119 119 255
42.298008 54.000000 160.000000 0.299295 0.086794 0.950205 119 119 119 255
44.000000 46.000000 160.000000 0.299295 0.086794 0.950205 119 119 119 255
63.062061 54.000000 153.265106 -0.000000 0.000000 -1.000000 119 119 119 255
72.306160 54.000000 153.265106 -0.000000 0.000000 -1.000000 119 119 119 255
57.962654 78.774071 153.265106 0.000000 0.000000 -1.000000 119 119 119 255
51.045773 74.754501 153.265106 0.000000 0.000000 -1.000000 119 119 119 255
73.541557 87.827370 160.000000 -0.303035 -0.175203 0.936736 119 119 119 255
69.541542 94.755600 160.000000 -0.303035 -0.175203 0.936736 119 119 119 255
53.954227 85.697418 153.265106 -0.303035 -0.175203 0.936736 119 119 119 255
57.962654 78.774071 153.265106 -0.303035 -0.175203 0.936736 119 119 119 255
47.037346 81.677841 153.265106 -0.302658 -0.175850 -0.936736 119 119 119 255
51.045773 74.754501 153.265106 -0.302658 -0.175850 -0.936736 119 119 119 255
35.473244 65.704903 160.000000 -0.302658 -0.175850 -0.936736 119 119 119 255
31.443634 72.615936 160.000000 -0.302658 -0.175850 -0.936736 119 119 119 255
47.037346 81.677841 153.265106 -0.000000 0.000000 -1.000000 119 119 119 255
53.954227 85.697418 153.265106 -0.000000 0.000000 -1.000000 119 119 119 255
35.016151 102.440819 153.265106 0.000000 0.000000 -1.000000 119 119 119 255
39.616657 110.461227 153.265106 0.000000 0.000000 -1.000000 119 119 119 255
43.094276 132.602554 160.000000 0.153500 0.265418 -0.951836 119 119 119 255
50.011292 128.582993 160.000000 0.153500 0.265418 -0.951836 119 119 119 255
39.616657 110.461227 153.265106 0.153500 0.265418 -0.951836 119 119 119 255
32.683075 114.451920 153.265106 0.153500 0.265418 -0.951836 119 119 119 255
17.683077 88.301277 160.000000 0.000000 0.000000 1.000000 119 119 119 255
-24.620729 84.317665 160.000000 -0.000000 0.000000 1.000000 119 119 119 255
35.016151 102.440819 153.265106 0.153197 0.265579 0.951839 119 119 119 255
28.094276 106.451920 153.265106 0.153197 0.265579 0.951839 119 119 119 255
17.683077 88.301277 160.000000 0.153197 0.265579 0.951839 119 119 119 255
24.620720 84.317673 160.000000 0.153197 0.265579 0.951839 119 119 119 255
28.094276 106.451920 153.265106 0.000000 -0.000000 -1.000000 119 119 119 255
32.683075 114.451920 153.265106 0.000000 -0.000000 -1.000000 119 119 119 255
3.999996 114.451912 153.265106 0.000000 0.000000 -1.000000 119 119 119 255
3.999996 106.451912 153.265106 0.000000 0.000000 -1.000000 119 119 119 255
-4.000007 132.602539 160.000000 0.000000 -0.347879 0.937539 119 119 119 255
-4.000004 114.451912 153.265106 0.000000 -0.347879 0.937539 119 119 119 255
3.999996 114.451912 153.265106 0.000000 -0.347879 0.937539 119 119 119 255
3.999993 132.602539 160.000000 0.000000 -0.347879 0.937539 119 119 119 255
-4.000004 106.451912 153.265106 0.000000 -0.347879 -0.937539 119 119 119 255
3.999996 106.451912 153.265106 0.000000 -0.347879 -0.937539 119 119 119 255
3.999996 88.301270 160.000000 0.000000 -0.347879 -0.937539 119 119 119 255
-4.000004 88.301270 160.000000 0.000000 -0.347879 -0.937539 119 119 119 255
-4.000004 106.451912 153.265106 0.000000 -0.000000 -1.000000 119 119 119 255
-4.000004 114.451912 153.265106 0.000000 -0.000000 -1.000000 119 119 119 255
-28.094288 106.451904 153.265106 -0.000000 0.000000 -1.000000 119 119 119 255
-32.683086 114.451904 153.265106 -0.000000 0.000000 -1.000000 119 119 119 255
-50.011307 128.582977 160.000000 0.153500 -0.265418 0.951836 119 119 119 255
-39.616669 110.461212 153.265106 0.153500 -0.265418 0.951836 119 119 119 255
-32.683086 114.451904 153.265106 0.153500 -0.265418 0.951836 119 119 119 255
-43.094292 132.602539 160.000000 0.153500 -0.265418 0.951836 119 119 119 255
-28.094288 106.451904 153.265106 -0.153197 0.265580 0.951840 119 119 119 255
-35.016163 102.440804 153.265106 -0.153197 0.265580 0.951840 119 119 119 255
-24.620729 84.317665 160.000000 -0.153197 0.265580 0.951840 119 119 119 255
-17.683086 88.301270 160.000000 -0.153197 0.265580 0.951840 119 119 119 255
-35.016163 102.440804 153.265106 0.000000 -0.000000 -1.000000 119 119 119 255
-39.616669 110.461212 153.265106 0.000000 -0.000000 -1.000000 119 119 119 255
-53.954239 85.697403 153.265106 -0.000000 0.000000 -1.000000 119 119 119 255
-47.037357 81.677834 153.265106 -0.000000 0.000000 -1.000000 119 119 119 255
-51.045784 74.754486 153.265106 0.302658 -0.175850 -0.936736 119 119 119 255
-47.037357 81.677834 153.265106 0.302658 -0.175850 -0.936736 119 119 119 255
-31.443642 72.615936 160.000000 0.302658 -0.175850 -0.936736 119 119 119 255
-35.473251 65.704903 160.000000 0.302658 -0.175850 -0.936736 119 119 119 255
-69.541557 94.755585 160.000000 0.303035 -0.175203 0.936736 119 119 119 255
-73.541573 87.827354 160.000000 0.303035 -0.175203 0.936736 119 119 119 255
-57.962666 78.774055 153.265106 0.303035 -0.175203 0.936736 119 119 119 255
-53.954239 85.697403 153.265106 0.303035 -0.175203 0.936736 119 119 119 255
4 0 1 2 3
4 4 5 6 7
4 8 9 10 11
4 12 13 14 15
4 16 17 18 19
4 20 21 22 23
4 24 25 26 27
4 28 29 30 31
4 32 33 34 35
4 36 37 38 39
4 40 41 42 43
4 44 45 46 47
4 48 49 50 51
4 52 53 54 55
4 56 57 58 59
4 60 61 62 63
4 64 65 66 67
4 68 69 70 71
4 72 73 74 75
4 76 77 78 79
4 80 81 82 83
4 84 85 86 87
4 88 89 90 91
4 92 93 94 95
4 15 14 96 97
3 98 99 100
4 101 102 103 104
3 105 106 107
4 108 109 110 111
4 112 113 114 115
4 116 117 118 119
4 120 121 122 123
4 124 125 126 127
4 128 129 130 131
4 132 133 134 135
3 51 50 136
3 51 136 137
4 97 96 138 139
3 140 141 142
4 143 144 145 146
4 147 148 149 150
4 151 152 153 154
4 155 156 157 158
4 159 160 161 162
4 163 164 165 166
4 167 168 169 170
4 171 172 173 174
3 175 176 177
3 51 137 178
4 139 138 47 46
3 179 180 181
4 182 183 184 185
4 186 187 188 189
4 190 191 192 193
4 194 195 196 197
4 198 199 200 201
4 202 203 204 205
4 206 207 208 209
4 210 211 212 213
3 214 215 216
3 217 218 219
3 220 221 222
4 223 224 219 218
3 225 226 224
3 227 228 229
4 230 224 226 231
3 232 233 230
3 234 235 236
4 237 230 233 238
3 234 236 239
3 240 241 242
4 243 244 239 236
3 245 246 247
3 248 240 242
4 240 248 246 245
3 249 250 251
3 252 253 254
4 255 256 250 249
3 255 257 258
3 259 260 261
4 262 263 257 255
3 262 264 265
3 266 267 268
4 269 270 264 262
3 271 272 266
3 273 274 275
4 273 266 272 274
3 275 276 273
3 277 278 279
4 277 273 276 278
3 280 277 279
3 281 282 283
4 284 277 280 285
3 286 287 284
3 288 289 290
4 219 284 287 291
3 217 219 292
3 220 222 293
3 227 229 294
3 245 247 295
3 266 268 271
3 281 283 296
4 297 298 299 300
4 301 302 303 304
4 305 306 307 308
4 309 310 311 312
4 313 314 315 316
4 317 313 316 318
4 319 320 321 322
4 323 324 325 326
4 325 324 327 328
4 329 330 331 332
4 333 334 335 336
4 337 338 339 340
4 341 342 343 344
4 345 346 343 342
4 347 348 349 350
4 351 352 353 354
4 345 355 356 346
4 357 356 355 358
4 359 360 361 362
4 363 364 365 366
4 358 367 368 357
4 369 370 368 367
4 371 372 373 374
3 253 252 375
3 259 261 376
4 377 378 379 380
4 369 381 382 370
4 383 382 381 384
4 385 386 387 388
4 389 390 391 392
4 384 393 394 383
4 395 396 394 393
4 397 398 399 400
4 401 402 403 404
4 395 405 406 396
4 407 406 405 408
4 409 410 411 412
4 413 414 415 416
4 328 327 407 408
