ply
format ascii 1.0
comment Created by Blender 2.93.4 - www.blender.org
element vertex 355
property float x
property float y
property float z
property float nx
property float ny
property float nz
property uchar red
property uchar green
property uchar blue
property uchar alpha
element face 106
property list uchar uint vertex_indices
end_header
-60.000000 0.000000 -80.000000 0.707107 0.000000 0.707107 233 195 48 255
-20.000000 0.000000 -120.000000 0.707107 0.000000 0.707107 233 195 48 255
-20.000000 15.000000 -120.000000 0.707107 0.000000 0.707107 233 195 48 255
-60.000000 15.000000 -80.000000 0.707107 0.000000 0.707107 233 195 48 255
60.000000 0.000000 -80.000000 -0.894427 0.000000 0.447214 233 195 48 255
80.000000 0.000000 -40.000000 -0.894427 0.000000 0.447214 233 195 48 255
80.000000 15.000000 -40.000000 -0.894427 0.000000 0.447214 233 195 48 255
60.000000 15.000000 -80.000000 -0.894427 0.000000 0.447214 233 195 48 255
80.000000 0.000000 -40.000000 -0.447214 0.000000 -0.894427 233 195 48 255
40.000000 0.000000 -20.000000 -0.447214 0.000000 -0.894427 233 195 48 255
40.000000 15.000000 -20.000000 -0.447214 0.000000 -0.894427 233 195 48 255
80.000000 15.000000 -40.000000 -0.447214 0.000000 -0.894427 233 195 48 255
-80.000000 0.000000 -40.000000 0.894427 0.000000 0.447214 233 195 48 255
-60.000000 0.000000 -80.000000 0.894427 0.000000 0.447214 233 195 48 255
-60.000000 15.000000 -80.000000 0.894427 0.000000 0.447214 233 195 48 255
-80.000000 15.000000 -40.000000 0.894427 0.000000 0.447214 233 195 48 255
20.000000 0.000000 -120.000000 0.000000 -0.000000 -1.000000 233 195 48 255
-20.000000 0.000000 -120.000000 0.000000 -0.000000 -1.000000 233 195 48 255
-20.000000 15.000000 -120.000000 0.000000 -0.000000 -1.000000 233 195 48 255
20.000000 15.000000 -120.000000 0.000000 -0.000000 -1.000000 233 195 48 255
20.000000 0.000000 -120.000000 -0.707107 0.000000 0.707107 233 195 48 255
60.000000 0.000000 -80.000000 -0.707107 0.000000 0.707107 233 195 48 255
60.000000 15.000000 -80.000000 -0.707107 0.000000 0.707107 233 195 48 255
20.000000 15.000000 -120.000000 -0.707107 0.000000 0.707107 233 195 48 255
40.000000 0.000000 -20.000000 0.000000 -0.000000 -1.000000 233 195 48 255
-40.000000 0.000000 -20.000000 0.000000 -0.000000 -1.000000 233 195 48 255
-40.000000 15.000000 -20.000000 0.000000 -0.000000 -1.000000 233 195 48 255
40.000000 15.000000 -20.000000 0.000000 -0.000000 -1.000000 233 195 48 255
-40.000000 0.000000 -20.000000 0.447214 0.000000 -0.894427 233 195 48 255
-80.000000 0.000000 -40.000000 0.447214 0.000000 -0.894427 233 195 48 255
-80.000000 15.000000 -40.000000 0.447214 0.000000 -0.894427 233 195 48 255
-40.000000 15.000000 -20.000000 0.447214 0.000000 -0.894427 233 195 48 255
-60.000000 15.000000 -80.000000 0.625680 -0.465886 0.625680 233 195 48 255
-20.000000 15.000000 -120.000000 0.625680 -0.465886 0.625680 233 195 48 255
-13.503719 47.716595 -102.135223 0.625680 -0.465886 0.625680 233 195 48 255
-40.511158 47.716595 -75.127785 0.625680 -0.465886 0.625680 233 195 48 255
60.000000 15.000000 -80.000000 -0.767169 -0.514116 0.383584 233 195 48 255
80.000000 15.000000 -40.000000 -0.767169 -0.514116 0.383584 233 195 48 255
54.014877 47.716595 -48.120350 -0.767169 -0.514116 0.383584 233 195 48 255
40.511158 47.716595 -75.127785 -0.767169 -0.514116 0.383584 233 195 48 255
80.000000 15.000000 -40.000000 -0.387324 -0.499901 -0.774648 233 195 48 255
40.000000 15.000000 -20.000000 -0.387324 -0.499901 -0.774648 233 195 48 255
27.007439 47.716595 -34.616634 -0.387324 -0.499901 -0.774648 233 195 48 255
54.014877 47.716595 -48.120350 -0.387324 -0.499901 -0.774648 233 195 48 255
-80.000000 15.000000 -40.000000 0.767169 -0.514116 0.383584 233 195 48 255
-60.000000 15.000000 -80.000000 0.767169 -0.514116 0.383584 233 195 48 255
-40.511158 47.716595 -75.127785 0.767169 -0.514116 0.383584 233 195 48 255
-54.014877 47.716595 -48.120350 0.767169 -0.514116 0.383584 233 195 48 255
20.000000 15.000000 -120.000000 0.000000 0.479252 -0.877677 233 195 48 255
-20.000000 15.000000 -120.000000 0.000000 0.479252 -0.877677 233 195 48 255
-13.503719 47.716595 -102.135223 0.000000 0.479252 -0.877677 233 195 48 255
13.503719 47.716595 -102.135223 0.000000 0.479252 -0.877677 233 195 48 255
20.000000 15.000000 -120.000000 -0.625680 -0.465886 0.625680 233 195 48 255
60.000000 15.000000 -80.000000 -0.625680 -0.465886 0.625680 233 195 48 255
40.511158 47.716595 -75.127785 -0.625680 -0.465886 0.625680 233 195 48 255
13.503719 47.716595 -102.135223 -0.625680 -0.465886 0.625680 233 195 48 255
40.000000 15.000000 -20.000000 0.000000 -0.407907 -0.913023 233 195 48 255
-40.000000 15.000000 -20.000000 0.000000 -0.407907 -0.913023 233 195 48 255
-27.007439 47.716595 -34.616634 0.000000 -0.407907 -0.913023 233 195 48 255
27.007439 47.716595 -34.616634 0.000000 -0.407907 -0.913023 233 195 48 255
-40.000000 15.000000 -20.000000 0.387324 -0.499901 -0.774648 233 195 48 255
-80.000000 15.000000 -40.000000 0.387324 -0.499901 -0.774648 233 195 48 255
-54.014877 47.716595 -48.120350 0.387324 -0.499901 -0.774648 233 195 48 255
-27.007439 47.716595 -34.616634 0.387324 -0.499901 -0.774648 233 195 48 255
-54.014877 47.716595 -48.120350 -0.000000 -1.000000 0.000000 233 195 48 255
-40.511158 47.716595 -75.127785 -0.000000 -1.000000 0.000000 233 195 48 255
-27.007439 47.716595 -34.616634 -0.000000 -1.000000 0.000000 233 195 48 255
54.014877 47.716595 -48.120350 0.000000 -1.000000 0.000000 233 195 48 255
27.007439 47.716595 -34.616634 0.000000 -1.000000 0.000000 233 195 48 255
40.511158 47.716595 -75.127785 0.000000 -1.000000 0.000000 233 195 48 255
-13.503719 47.716595 -102.135223 0.000000 -1.000000 0.000000 233 195 48 255
13.503719 47.716595 -102.135223 0.000000 -1.000000 0.000000 233 195 48 255
13.503719 47.716595 -102.135223 -0.000000 1.000000 0.000000 233 195 48 255
-13.503719 47.716595 -102.135223 -0.000000 1.000000 0.000000 233 195 48 255
-27.007439 47.716595 -34.616634 -0.000000 1.000000 0.000000 233 195 48 255
362.412170 0.000031 -815.921875 -0.702035 -0.092425 0.706119 0 0 0 255
812.635986 0.000061 -368.302185 -0.702035 -0.092425 0.706119 233 195 48 255
784.946106 210.325729 -368.302185 -0.702035 -0.092425 0.706119 233 195 48 255
350.063263 93.799202 -815.921875 -0.702035 -0.092425 0.706119 0 0 0 255
812.635986 0.000061 -368.302185 -0.112199 -0.016891 0.993542 233 195 48 255
1414.942627 41.275513 -300.031860 -0.112199 -0.016891 0.993542 233 195 48 255
1356.046753 406.083191 -300.031860 -0.112199 -0.016891 0.993542 233 195 48 255
784.946106 210.325729 -368.302185 -0.112199 -0.016891 0.993542 233 195 48 255
0.000000 0.000000 -815.921875 0.000000 0.000000 1.000000 0 0 0 255
362.412170 0.000031 -815.921875 0.000000 0.000000 1.000000 0 0 0 255
350.063263 93.799202 -815.921875 0.000000 0.000000 1.000000 0 0 0 255
350.063263 93.799202 -815.921875 -0.654193 -0.270975 0.706119 0 0 0 255
784.946106 210.325729 -368.302185 -0.654193 -0.270975 0.706119 233 195 48 255
703.763428 406.318054 -368.302185 -0.654193 -0.270975 0.706119 233 195 48 255
313.858124 181.206116 -815.921875 -0.654193 -0.270975 0.706119 0 0 0 255
784.946106 210.325729 -368.302185 -0.102240 -0.191332 0.976186 233 195 48 255
1356.046753 406.083191 -300.031860 -0.102240 -0.191332 0.976186 233 195 48 255
1198.842529 739.000488 -221.333237 -0.102240 -0.191332 0.976186 233 195 48 255
703.763428 406.318054 -368.302185 -0.102240 -0.191332 0.976186 233 195 48 255
313.858124 181.206116 -815.921875 0.000000 0.000000 1.000000 0 0 0 255
313.858124 181.206116 -815.921875 -0.560814 -0.432868 0.705772 0 0 0 255
703.763428 406.318054 -368.302185 -0.560814 -0.432868 0.705772 233 195 48 255
574.527527 574.570190 -367.530914 -0.560814 -0.432868 0.705772 233 195 48 255
256.264069 256.264130 -815.921875 -0.560814 -0.432868 0.705772 0 0 0 255
703.763428 406.318054 -368.302185 -0.194505 -0.126364 0.972728 233 195 48 255
1198.842529 739.000488 -221.333237 -0.194505 -0.126364 0.972728 233 195 48 255
964.127258 1025.460693 -235.809357 -0.194505 -0.126364 0.972728 233 195 48 255
574.527527 574.570190 -367.530914 -0.194505 -0.126364 0.972728 233 195 48 255
256.264069 256.264130 -815.921875 0.000000 0.000000 1.000000 0 0 0 255
256.264069 256.264130 -815.921875 -0.432852 -0.560822 0.705775 0 0 0 255
574.527527 574.570190 -367.530914 -0.432852 -0.560822 0.705775 233 195 48 255
406.317993 703.763489 -368.302185 -0.432852 -0.560822 0.705775 233 195 48 255
181.206039 313.858154 -815.921875 -0.432852 -0.560822 0.705775 0 0 0 255
574.527527 574.570190 -367.530914 -0.122741 -0.188476 0.974378 233 195 48 255
964.127258 1025.460693 -235.809357 -0.122741 -0.188476 0.974378 233 195 48 255
667.056519 1242.028076 -226.767334 -0.122741 -0.188476 0.974378 233 195 48 255
406.317993 703.763489 -368.302185 -0.122741 -0.188476 0.974378 233 195 48 255
181.206039 313.858154 -815.921875 0.000000 0.000000 1.000000 0 0 0 255
181.206039 313.858154 -815.921875 -0.172621 -0.710638 0.682052 0 0 0 255
406.317993 703.763489 -368.302185 -0.172621 -0.710638 0.682052 233 195 48 255
208.222565 781.171204 -322.185455 -0.172621 -0.710638 0.682052 233 195 48 255
93.799118 350.063263 -815.921875 -0.172621 -0.710638 0.682052 0 0 0 255
406.317993 703.763489 -368.302185 -0.033695 -0.170352 0.984807 233 195 48 255
667.056519 1242.028076 -226.767334 -0.033695 -0.170352 0.984807 233 195 48 255
324.181000 1374.662109 -255.060532 -0.033695 -0.170352 0.984807 233 195 48 255
208.222565 781.171204 -322.185455 -0.033695 -0.170352 0.984807 233 195 48 255
93.799118 350.063263 -815.921875 0.000000 0.000000 1.000000 0 0 0 255
-0.000053 362.412140 -815.921875 0.000000 0.000000 1.000000 0 0 0 255
93.799118 350.063263 -815.921875 -0.071311 -0.745660 0.662500 0 0 0 255
208.222565 781.171204 -322.185455 -0.071311 -0.745660 0.662500 233 195 48 255
-2.230844 807.835876 -311.024292 -0.071311 -0.745660 0.662500 233 195 48 255
-0.000053 362.412140 -815.921875 -0.071311 -0.745660 0.662500 0 0 0 255
208.222565 781.171204 -322.185455 0.066411 -0.135840 0.988502 233 195 48 255
324.181000 1374.662109 -255.060532 0.066411 -0.135840 0.988502 233 195 48 255
-40.329536 1413.407471 -218.605072 0.066411 -0.135840 0.988502 233 195 48 255
-2.230844 807.835876 -311.024292 0.066411 -0.135840 0.988502 233 195 48 255
-2.230844 807.835876 -311.024292 -0.017947 -0.168145 0.985599 233 195 48 255
-40.329536 1413.407471 -218.605072 -0.017947 -0.168145 0.985599 233 195 48 255
-405.566345 1350.576294 -225.776306 -0.017947 -0.168145 0.985599 233 195 48 255
-210.179794 781.811096 -329.449493 -0.017947 -0.168145 0.985599 233 195 48 255
-93.799217 350.063232 -815.921875 -0.000000 0.000000 1.000000 0 0 0 255
-0.000053 362.412140 -815.921875 0.054068 -0.744610 0.665306 0 0 0 255
-2.230844 807.835876 -311.024292 0.054068 -0.744610 0.665306 233 195 48 255
-210.179794 781.811096 -329.449493 0.054068 -0.744610 0.665306 233 195 48 255
-93.799217 350.063232 -815.921875 0.054068 -0.744610 0.665306 0 0 0 255
-210.179794 781.811096 -329.449493 0.055440 -0.214919 0.975057 233 195 48 255
-405.566345 1350.576294 -225.776306 0.055440 -0.214919 0.975057 233 195 48 255
-739.363770 1199.310547 -207.337234 0.055440 -0.214919 0.975057 233 195 48 255
-406.318054 703.763428 -368.302185 0.055440 -0.214919 0.975057 233 195 48 255
-181.206116 313.858093 -815.921875 -0.000000 0.000000 1.000000 0 0 0 255
-93.799217 350.063232 -815.921875 0.188819 -0.702085 0.686603 0 0 0 255
-210.179794 781.811096 -329.449493 0.188819 -0.702085 0.686603 233 195 48 255
-406.318054 703.763428 -368.302185 0.188819 -0.702085 0.686603 233 195 48 255
-181.206116 313.858093 -815.921875 0.188819 -0.702085 0.686603 0 0 0 255
-406.318054 703.763428 -368.302185 0.112634 -0.219975 0.968981 233 195 48 255
-739.363770 1199.310547 -207.337234 0.112634 -0.219975 0.968981 233 195 48 255
-1026.960938 966.589783 -236.492706 0.112634 -0.219975 0.968981 233 195 48 255
-574.620483 574.620422 -368.302185 0.112634 -0.219975 0.968981 233 195 48 255
-256.264099 256.264038 -815.921875 -0.000000 0.000000 1.000000 0 0 0 255
-181.206116 313.858093 -815.921875 0.431060 -0.561768 0.706119 0 0 0 255
-406.318054 703.763428 -368.302185 0.431060 -0.561768 0.706119 233 195 48 255
-574.620483 574.620422 -368.302185 0.431060 -0.561768 0.706119 233 195 48 255
-256.264099 256.264038 -815.921875 0.431060 -0.561768 0.706119 0 0 0 255
-574.620483 574.620422 -368.302185 0.072294 -0.188703 0.979370 233 195 48 255
-1026.960938 966.589783 -236.492706 0.072294 -0.188703 0.979370 233 195 48 255
-1246.013794 671.725586 -300.031860 0.072294 -0.188703 0.979370 233 195 48 255
-703.763489 406.317993 -368.302185 0.072294 -0.188703 0.979370 233 195 48 255
-313.858124 181.206024 -815.921875 -0.000000 0.000000 1.000000 0 0 0 255
-256.264099 256.264038 -815.921875 0.561768 -0.431060 0.706119 0 0 0 255
-574.620483 574.620422 -368.302185 0.561768 -0.431060 0.706119 233 195 48 255
-703.763489 406.317993 -368.302185 0.561768 -0.431060 0.706119 233 195 48 255
-313.858124 181.206024 -815.921875 0.561768 -0.431060 0.706119 0 0 0 255
-703.763489 406.317993 -368.302185 0.105613 -0.041471 0.993542 233 195 48 255
-1246.013794 671.725586 -300.031860 0.105613 -0.041471 0.993542 233 195 48 255
-1377.412231 326.345001 -300.031860 0.105613 -0.041471 0.993542 233 195 48 255
-784.946167 210.325653 -368.302185 0.105613 -0.041471 0.993542 233 195 48 255
-350.063232 93.799110 -815.921875 -0.000000 0.000000 1.000000 0 0 0 255
-313.858124 181.206024 -815.921875 0.654193 -0.270975 0.706119 0 0 0 255
-703.763489 406.317993 -368.302185 0.654193 -0.270975 0.706119 233 195 48 255
-784.946167 210.325653 -368.302185 0.654193 -0.270975 0.706119 233 195 48 255
-350.063232 93.799110 -815.921875 0.654193 -0.270975 0.706119 0 0 0 255
-350.063232 93.799110 -815.921875 0.702035 -0.092425 0.706119 0 0 0 255
-784.946167 210.325653 -368.302185 0.702035 -0.092425 0.706119 233 195 48 255
-812.636047 -0.000031 -368.302185 0.702035 -0.092425 0.706119 233 195 48 255
-362.412109 -0.000046 -815.921875 0.702035 -0.092425 0.706119 0 0 0 255
-784.946167 210.325653 -368.302185 0.112748 -0.012723 0.993542 233 195 48 255
-1377.412231 326.345001 -300.031860 0.112748 -0.012723 0.993542 233 195 48 255
-1414.942383 -41.275452 -300.031860 0.112748 -0.012723 0.993542 233 195 48 255
-812.636047 -0.000031 -368.302185 0.112748 -0.012723 0.993542 233 195 48 255
-362.412109 -0.000046 -815.921875 -0.000000 0.000000 1.000000 0 0 0 255
-40.329536 1413.407471 -218.605072 -0.071637 -0.339235 0.937970 233 195 48 255
324.181000 1374.662109 -255.060532 -0.071637 -0.339235 0.937970 233 195 48 255
509.530151 2103.514160 72.981171 -0.071637 -0.339235 0.937970 233 195 48 255
-56.702145 2164.339600 1.452118 -0.071637 -0.339235 0.937970 233 195 48 255
-1377.412231 326.345001 -300.031860 0.178364 -0.334156 0.925487 233 195 48 255
-1246.013794 671.725586 -300.031860 0.178364 -0.334156 0.925487 233 195 48 255
-1898.107178 1019.514160 50.593967 0.178364 -0.334156 0.925487 233 195 48 255
-2100.252197 495.101501 -199.171158 0.178364 -0.334156 0.925487 233 195 48 255
-1026.960938 966.589783 -236.492706 0.283031 -0.157793 0.946042 233 195 48 255
-739.363770 1199.310547 -207.337234 0.283031 -0.157793 0.946042 233 195 48 255
-1124.211304 1843.121948 -61.198952 0.283031 -0.157793 0.946042 233 195 48 255
-1565.930542 1478.238037 86.472664 0.283031 -0.157793 0.946042 233 195 48 255
-405.566345 1350.576294 -225.776306 -0.038657 -0.253335 0.966606 233 195 48 255
-40.329536 1413.407471 -218.605072 -0.038657 -0.253335 0.966606 233 195 48 255
-56.702145 2164.339600 1.452118 -0.038657 -0.253335 0.966606 233 195 48 255
-614.054749 2074.340332 -68.327782 -0.038657 -0.253335 0.966606 233 195 48 255
324.181000 1374.662109 -255.060532 -0.095391 -0.342635 0.934613 233 195 48 255
667.056519 1242.028076 -226.767334 -0.095391 -0.342635 0.934613 233 195 48 255
1035.823975 1898.559937 9.637627 -0.095391 -0.342635 0.934613 233 195 48 255
509.530151 2103.514160 72.981171 -0.095391 -0.342635 0.934613 233 195 48 255
964.127258 1025.460693 -235.809357 -0.135856 -0.124364 0.982892 233 195 48 255
1198.842529 739.000488 -221.333237 -0.135856 -0.124364 0.982892 233 195 48 255
1838.193970 1125.322998 -102.359627 -0.135856 -0.124364 0.982892 233 195 48 255
1488.147461 1564.006836 -76.958351 -0.135856 -0.124364 0.982892 233 195 48 255
1356.046753 406.083191 -300.031860 -0.060392 -0.140943 0.988174 233 195 48 255
1414.942627 41.275513 -300.031860 -0.060392 -0.140943 0.988174 233 195 48 255
2156.919434 62.919834 -300.031860 -0.060392 -0.140943 0.988174 233 195 48 255
2067.576416 612.278748 -178.704163 -0.060392 -0.140943 0.988174 233 195 48 255
-1414.942383 -41.275452 -300.031860 0.056860 -0.113863 0.991868 233 195 48 255
-1377.412231 326.345001 -300.031860 0.056860 -0.113863 0.991868 233 195 48 255
-2100.252197 495.101501 -199.171158 0.056860 -0.113863 0.991868 233 195 48 255
-2156.919189 -62.919743 -300.031860 0.056860 -0.113863 0.991868 233 195 48 255
-1246.013794 671.725586 -300.031860 0.278456 -0.323011 0.904504 233 195 48 255
-1026.960938 966.589783 -236.492706 0.278456 -0.323011 0.904504 233 195 48 255
-1565.930542 1478.238037 86.472664 0.278456 -0.323011 0.904504 233 195 48 255
-1898.107178 1019.514160 50.593967 0.278456 -0.323011 0.904504 233 195 48 255
-739.363770 1199.310547 -207.337234 0.107143 -0.170940 0.979439 233 195 48 255
-405.566345 1350.576294 -225.776306 0.107143 -0.170940 0.979439 233 195 48 255
-614.054749 2074.340332 -68.327782 0.107143 -0.170940 0.979439 233 195 48 255
-1124.211304 1843.121948 -61.198952 0.107143 -0.170940 0.979439 233 195 48 255
667.056519 1242.028076 -226.767334 -0.071760 -0.264468 0.961721 233 195 48 255
964.127258 1025.460693 -235.809357 -0.071760 -0.264468 0.961721 233 195 48 255
1488.147461 1564.006836 -76.958351 -0.071760 -0.264468 0.961721 233 195 48 255
1035.823975 1898.559937 9.637627 -0.071760 -0.264468 0.961721 233 195 48 255
1198.842529 739.000488 -221.333237 -0.079067 -0.214551 0.973507 233 195 48 255
1356.046753 406.083191 -300.031860 -0.079067 -0.214551 0.973507 233 195 48 255
2067.576416 612.278748 -178.704163 -0.079067 -0.214551 0.973507 233 195 48 255
1838.193970 1125.322998 -102.359627 -0.079067 -0.214551 0.973507 233 195 48 255
509.530151 2103.514160 72.981171 0.012581 0.198314 0.980058 233 195 48 255
1035.823975 1898.559937 9.637627 0.012581 0.198314 0.980058 233 195 48 255
1449.091187 2690.442627 -57.844219 0.012581 0.198314 0.980058 233 195 48 255
697.480957 2955.767090 -199.944016 0.012581 0.198314 0.980058 233 195 48 255
-2156.919189 -62.919743 -300.031860 0.018979 -0.199365 0.979742 233 195 48 255
-2100.252197 495.101501 -199.171158 0.018979 -0.199365 0.979742 233 195 48 255
-2925.019775 689.650818 -132.013931 0.018979 -0.199365 0.979742 233 195 48 255
-3019.686768 -88.087639 -300.031860 0.018979 -0.199365 0.979742 233 195 48 255
1838.193970 1125.322998 -102.359627 -0.138308 -0.079263 0.987212 233 195 48 255
2067.576416 612.278748 -178.704163 -0.138308 -0.079263 0.987212 233 195 48 255
2844.291016 825.160950 14.494446 -0.138308 -0.079263 0.987212 233 195 48 255
2593.595459 1589.793457 -26.524841 -0.138308 -0.079263 0.987212 233 195 48 255
-1565.930542 1478.238037 86.472664 -0.038872 0.278040 0.959783 233 195 48 255
-1124.211304 1843.121948 -61.198952 -0.038872 0.278040 0.959783 233 195 48 255
-1587.127441 2576.499756 -232.542358 -0.038872 0.278040 0.959783 233 195 48 255
-2213.118896 2087.140625 -175.990356 -0.038872 0.278040 0.959783 233 195 48 255
-56.702145 2164.339600 1.452118 -0.042260 0.284026 0.957885 233 195 48 255
509.530151 2103.514160 72.981171 -0.042260 0.284026 0.957885 233 195 48 255
697.480957 2955.767090 -199.944016 -0.042260 0.284026 0.957885 233 195 48 255
-88.700386 3025.649902 -226.837112 -0.042260 0.284026 0.957885 233 195 48 255
1488.147461 1564.006836 -76.958351 -0.044749 -0.034352 0.998407 233 195 48 255
1838.193970 1125.322998 -102.359627 -0.044749 -0.034352 0.998407 233 195 48 255
2593.595459 1589.793457 -26.524841 -0.044749 -0.034352 0.998407 233 195 48 255
2087.665039 2213.234863 -53.746387 -0.044749 -0.034352 0.998407 233 195 48 255
-1898.107178 1019.514160 50.593967 -0.297187 0.113518 0.948047 233 195 48 255
-1565.930542 1478.238037 86.472664 -0.297187 0.113518 0.948047 233 195 48 255
-2213.118896 2087.140625 -175.990356 -0.297187 0.113518 0.948047 233 195 48 255
-2664.691406 1434.608398 -252.735138 -0.297187 0.113518 0.948047 233 195 48 255
-614.054749 2074.340332 -68.327782 -0.125268 0.229985 0.965098 233 195 48 255
-56.702145 2164.339600 1.452118 -0.125268 0.229985 0.965098 233 195 48 255
-88.700386 3025.649902 -226.837112 -0.125268 0.229985 0.965098 233 195 48 255
-867.258362 2897.373047 -278.439941 -0.125268 0.229985 0.965098 233 195 48 255
1035.823975 1898.559937 9.637627 0.064524 -0.014694 0.997808 233 195 48 255
1488.147461 1564.006836 -76.958351 0.064524 -0.014694 0.997808 233 195 48 255
2087.665039 2213.234863 -53.746387 0.064524 -0.014694 0.997808 233 195 48 255
1449.091187 2690.442627 -57.844219 0.064524 -0.014694 0.997808 233 195 48 255
-2100.252197 495.101501 -199.171158 -0.162093 -0.041172 0.985916 233 195 48 255
-1898.107178 1019.514160 50.593967 -0.162093 -0.041172 0.985916 233 195 48 255
-2664.691406 1434.608398 -252.735138 -0.162093 -0.041172 0.985916 233 195 48 255
-2925.019775 689.650818 -132.013931 -0.162093 -0.041172 0.985916 233 195 48 255
2067.576416 612.278748 -178.704163 -0.141164 -0.266163 0.953536 233 195 48 255
2156.919434 62.919834 -300.031860 -0.141164 -0.266163 0.953536 233 195 48 255
3014.554443 71.312233 -189.512405 -0.141164 -0.266163 0.953536 233 195 48 255
2844.291016 825.160950 14.494446 -0.141164 -0.266163 0.953536 233 195 48 255
-1124.211304 1843.121948 -61.198952 -0.054076 0.214153 0.975302 233 195 48 255
-614.054749 2074.340332 -68.327782 -0.054076 0.214153 0.975302 233 195 48 255
-867.258362 2897.373047 -278.439941 -0.054076 0.214153 0.975302 233 195 48 255
-1587.127441 2576.499756 -232.542358 -0.054076 0.214153 0.975302 233 195 48 255
1449.091187 2690.442627 -57.844219 0.052426 0.124517 0.990831 233 195 48 255
2087.665039 2213.234863 -53.746387 0.052426 0.124517 0.990831 233 195 48 255
2602.279785 2775.046143 -129.492950 0.052426 0.124517 0.990831 233 195 48 255
1802.200317 3377.281982 -184.926422 0.052426 0.124517 0.990831 233 195 48 255
-2925.019775 689.650818 -132.013931 0.453950 0.139412 0.880053 233 195 48 255
-2664.691406 1434.608398 -252.735138 0.453950 0.139412 0.880053 233 195 48 255
-3288.669922 1784.575439 -117.886154 0.453950 0.139412 0.880053 233 195 48 255
-3339.597168 757.902527 202.595230 0.453950 0.139412 0.880053 233 195 48 255
2844.291016 825.160950 14.494446 -0.112955 -0.368150 0.922879 233 195 48 255
3014.554443 71.312233 -189.512405 -0.112955 -0.368150 0.922879 233 195 48 255
3847.450439 55.940216 -169.577911 -0.112955 -0.368150 0.922879 233 195 48 255
3427.490967 997.383301 230.451874 -0.112955 -0.368150 0.922879 233 195 48 255
-1587.127441 2576.499756 -232.542358 0.117624 -0.194502 0.973824 233 195 48 255
-867.258362 2897.373047 -278.439941 0.117624 -0.194502 0.973824 233 195 48 255
-1085.404785 3565.679688 -95.573929 0.117624 -0.194502 0.973824 233 195 48 255
-1976.266724 3193.362061 -85.370193 0.117624 -0.194502 0.973824 233 195 48 255
697.480957 2955.767090 -199.944016 -0.076752 0.166128 0.983113 233 195 48 255
1449.091187 2690.442627 -57.844219 -0.076752 0.166128 0.983113 233 195 48 255
1802.200317 3377.281982 -184.926422 -0.076752 0.166128 0.983113 233 195 48 255
902.603577 3812.308838 -290.083038 -0.076752 0.166128 0.983113 233 195 48 255
-3019.686768 -88.087639 -300.031860 0.499519 -0.295034 0.814516 233 195 48 255
-2925.019775 689.650818 -132.013931 0.499519 -0.295034 0.814516 233 195 48 255
-3339.597168 757.902527 202.595230 0.499519 -0.295034 0.814516 233 195 48 255
-3532.513916 -210.052002 -85.346230 0.499519 -0.295034 0.814516 233 195 48 255
2593.595459 1589.793457 -26.524841 -0.231747 0.093793 0.968244 233 195 48 255
2844.291016 825.160950 14.494446 -0.231747 0.093793 0.968244 233 195 48 255
3427.490967 997.383301 230.451874 -0.231747 0.093793 0.968244 233 195 48 255
3129.866943 1965.716064 -27.638113 -0.231747 0.093793 0.968244 233 195 48 255
-2213.118896 2087.140625 -175.990356 0.302953 -0.142062 0.942358 233 195 48 255
-1587.127441 2576.499756 -232.542358 0.302953 -0.142062 0.942358 233 195 48 255
-1976.266724 3193.362061 -85.370193 0.302953 -0.142062 0.942358 233 195 48 255
-2626.383545 2451.165771 82.667488 0.302953 -0.142062 0.942358 233 195 48 255
-88.700386 3025.649902 -226.837112 0.046875 0.021222 0.998675 233 195 48 255
697.480957 2955.767090 -199.944016 0.046875 0.021222 0.998675 233 195 48 255
902.603577 3812.308838 -290.083038 0.046875 0.021222 0.998675 233 195 48 255
-116.419609 3807.656250 -179.844345 0.046875 0.021222 0.998675 233 195 48 255
2087.665039 2213.234863 -53.746387 -0.004394 0.086580 0.996235 233 195 48 255
2593.595459 1589.793457 -26.524841 -0.004394 0.086580 0.996235 233 195 48 255
3129.866943 1965.716064 -27.638113 -0.004394 0.086580 0.996235 233 195 48 255
2602.279785 2775.046143 -129.492950 -0.004394 0.086580 0.996235 233 195 48 255
-2664.691406 1434.608398 -252.735138 0.139330 -0.315001 0.938809 233 195 48 255
-2213.118896 2087.140625 -175.990356 0.139330 -0.315001 0.938809 233 195 48 255
-2626.383545 2451.165771 82.667488 0.139330 -0.315001 0.938809 233 195 48 255
-3288.669922 1784.575439 -117.886154 0.139330 -0.315001 0.938809 233 195 48 255
-867.258362 2897.373047 -278.439941 0.049840 -0.148093 0.987717 233 195 48 255
-88.700386 3025.649902 -226.837112 0.049840 -0.148093 0.987717 233 195 48 255
-116.419609 3807.656250 -179.844345 0.049840 -0.148093 0.987717 233 195 48 255
-1085.404785 3565.679688 -95.573929 0.049840 -0.148093 0.987717 233 195 48 255
2602.279785 2775.046143 -129.492950 -0.517045 -0.466323 0.717765 38 219 255 255
3129.866943 1965.716064 -27.638113 -0.666921 -0.272469 0.693472 38 219 255 255
3342.406738 2061.968994 3519.657715 -0.880734 -0.468642 0.068239 38 219 255 255
2694.840088 2856.787354 3519.657715 -0.708914 -0.704154 0.039888 38 219 255 255
-3288.669922 1784.575439 -117.886154 0.722434 -0.331919 0.606525 38 219 255 255
-2626.383545 2451.165771 82.667488 0.592517 -0.567858 0.571337 38 219 255 255
-2856.787354 2694.839844 3519.657715 0.727409 -0.682394 0.071749 38 219 255 255
-3456.920166 1863.624390 3519.657715 0.897336 -0.432478 0.087802 38 219 255 255
-1085.404785 3565.679688 -95.573929 0.248665 -0.733970 0.631977 38 219 255 255
-116.419609 3807.656250 -179.844345 0.081057 -0.741050 0.666524 38 219 255 255
-114.513939 3925.593018 3519.657715 0.077609 -0.996521 0.030244 38 219 255 255
-1126.630249 3762.193604 3519.657715 0.301126 -0.952391 0.047212 38 219 255 255
1802.200317 3377.281982 -184.926422 -0.391583 -0.565600 0.725761 38 219 255 255
1863.624634 3456.920654 3519.657715 -0.498367 -0.866665 0.022309 38 219 255 255
-3339.597168 757.902527 202.595230 0.857204 -0.149022 0.492904 38 219 255 255
-3821.470215 905.406250 3519.657715 0.977660 -0.176916 0.113346 38 219 255 255
3427.490967 997.383301 230.451874 -0.752220 -0.302438 0.585376 38 219 255 255
3847.450439 55.940216 -169.577911 -0.671468 -0.416242 0.613025 38 219 255 255
3925.593750 114.514107 3519.657715 -0.952513 -0.297586 0.064333 38 219 255 255
3762.193848 1126.630615 3519.657715 -0.944548 -0.319559 0.075350 38 219 255 255
-1976.266724 3193.362061 -85.370193 0.474563 -0.636280 0.608173 38 219 255 255
-2061.968506 3342.406494 3519.657715 0.555620 -0.829096 0.061953 38 219 255 255
902.603577 3812.308838 -290.083038 -0.183264 -0.677114 0.712668 38 219 255 255
905.406311 3821.470215 3519.657715 -0.225532 -0.974090 0.015809 38 219 255 255
-3532.513916 -210.052002 -85.346230 0.813227 -0.254219 0.523453 38 219 255 255
-3925.593018 -114.513939 3519.657715 0.977783 -0.164830 0.129368 38 219 255 255
4 0 1 2 3
4 4 5 6 7
4 8 9 10 11
4 12 13 14 15
4 16 17 18 19
4 20 21 22 23
4 24 25 26 27
4 28 29 30 31
4 32 33 34 35
4 36 37 38 39
4 40 41 42 43
4 44 45 46 47
4 48 49 50 51
4 52 53 54 55
4 56 57 58 59
4 60 61 62 63
3 64 65 66
3 67 68 69
3 70 66 65
3 69 68 71
3 68 66 71
3 72 73 74
4 75 76 77 78
4 79 80 81 82
3 83 84 85
4 86 87 88 89
4 90 91 92 93
3 83 85 94
4 95 96 97 98
4 99 100 101 102
3 83 94 103
4 104 105 106 107
4 108 109 110 111
3 83 103 112
4 113 114 115 116
4 117 118 119 120
3 83 112 121
3 83 121 122
4 123 124 125 126
4 127 128 129 130
4 131 132 133 134
3 83 122 135
4 136 137 138 139
4 140 141 142 143
3 83 135 144
4 145 146 147 148
4 149 150 151 152
3 83 144 153
4 154 155 156 157
4 158 159 160 161
3 83 153 162
4 163 164 165 166
4 167 168 169 170
3 83 162 171
4 172 173 174 175
4 176 177 178 179
4 180 181 182 183
3 83 171 184
4 185 186 187 188
4 189 190 191 192
4 193 194 195 196
4 197 198 199 200
4 201 202 203 204
4 205 206 207 208
4 209 210 211 212
4 213 214 215 216
4 217 218 219 220
4 221 222 223 224
4 225 226 227 228
4 229 230 231 232
4 233 234 235 236
4 237 238 239 240
4 241 242 243 244
4 245 246 247 248
4 249 250 251 252
4 253 254 255 256
4 257 258 259 260
4 261 262 263 264
4 265 266 267 268
4 269 270 271 272
4 273 274 275 276
4 277 278 279 280
4 281 282 283 284
4 285 286 287 288
4 289 290 291 292
4 293 294 295 296
4 297 298 299 300
4 301 302 303 304
4 305 306 307 308
4 309 310 311 312
4 313 314 315 316
4 317 318 319 320
4 321 322 323 324
4 325 326 327 328
4 329 330 331 332
4 333 334 335 336
4 337 338 339 340
4 341 329 332 342
4 343 333 336 344
4 345 346 347 348
4 349 337 340 350
4 351 341 342 352
4 353 343 344 354
4 330 345 348 331
4 334 349 350 335
4 338 351 352 339
