ply
format ascii 1.0
comment Created by Blender 3.0.0 - www.blender.org
element vertex 281
property float x
property float y
property float z
property float nx
property float ny
property float nz
property uchar red
property uchar green
property uchar blue
property uchar alpha
element face 78
property list uchar uint vertex_indices
end_header
-25.930182 113.311470 -0.608757 0.361527 0.925226 -0.115133 0 198 209 255
3.435486 119.362717 140.230515 0.361527 0.925226 -0.115133 0 198 209 255
13.970429 115.058060 138.718262 0.361527 0.925226 -0.115133 0 198 209 255
-15.395237 109.006821 -2.121017 0.361527 0.925226 -0.115133 0 198 209 255
-15.395237 109.006821 -2.121017 0.898953 0.387596 -0.204089 0 198 209 255
13.970429 115.058060 138.718262 0.898953 0.387596 -0.204089 0 198 209 255
18.461727 104.496147 138.442444 0.898953 0.387596 -0.204089 0 198 209 255
-10.903941 98.444901 -2.396828 0.898953 0.387596 -0.204089 0 198 209 255
-10.903941 98.444901 -2.396828 0.910056 -0.376388 -0.173579 0 198 209 255
18.461727 104.496147 138.442444 0.910056 -0.376388 -0.173579 0 198 209 255
14.278438 93.863991 139.564651 0.910056 -0.376388 -0.173579 0 198 209 255
-15.087229 87.812744 -1.274628 0.910056 -0.376388 -0.173579 0 198 209 255
-15.087229 87.812744 -1.274628 0.388352 -0.920580 -0.041420 0 198 209 255
14.278438 93.863991 139.564651 0.388352 -0.920580 -0.041420 0 198 209 255
3.871082 89.389771 141.427505 0.388352 -0.920580 -0.041420 0 198 209 255
-25.494587 83.338531 0.588226 0.388352 -0.920580 -0.041420 0 198 209 255
-25.494587 83.338531 0.588226 -0.361527 -0.925226 0.115133 0 198 209 255
3.871082 89.389771 141.427505 -0.361527 -0.925226 0.115133 0 198 209 255
-6.663858 93.694427 142.939758 -0.361527 -0.925226 0.115133 0 198 209 255
-36.029526 87.643181 2.100483 -0.361527 -0.925226 0.115133 0 198 209 255
-36.029526 87.643181 2.100483 -0.898953 -0.387596 0.204089 0 198 209 255
-6.663858 93.694427 142.939758 -0.898953 -0.387596 0.204089 0 198 209 255
-11.155157 104.256348 143.215576 -0.898953 -0.387596 0.204089 0 198 209 255
-40.520828 98.205101 2.376297 -0.898953 -0.387596 0.204089 0 198 209 255
134.864899 118.041458 -0.317619 0.708717 0.609175 0.355846 0 198 209 255
75.435013 110.687141 130.635300 0.708717 0.609175 0.355846 0 198 209 255
81.919327 101.592667 133.289764 0.708717 0.609175 0.355846 0 198 209 255
141.349213 108.946983 2.336853 0.708717 0.609175 0.355846 0 198 209 255
-40.520828 98.205101 2.376297 -0.910056 0.376388 0.173579 0 198 209 255
-11.155157 104.256348 143.215576 -0.910056 0.376388 0.173579 0 198 209 255
-6.971874 114.888496 142.093369 -0.910056 0.376388 0.173579 0 198 209 255
-36.337540 108.837257 1.254093 -0.910056 0.376388 0.173579 0 198 209 255
-36.337540 108.837257 1.254093 -0.388352 0.920580 0.041420 0 198 209 255
-6.971874 114.888496 142.093369 -0.388352 0.920580 0.041420 0 198 209 255
3.435486 119.362717 140.230515 -0.388352 0.920580 0.041420 0 198 209 255
-25.930182 113.311470 -0.608757 -0.388352 0.920580 0.041420 0 198 209 255
124.677719 119.544281 -5.393509 0.096552 0.990349 0.099436 0 198 209 255
65.247826 112.189957 125.559418 0.096552 0.990349 0.099436 0 198 209 255
75.435013 110.687141 130.635300 0.096552 0.990349 0.099436 0 198 209 255
134.864899 118.041458 -0.317619 0.096552 0.990349 0.099436 0 198 209 255
141.349213 108.946983 2.336853 0.905798 -0.128103 0.403881 0 198 209 255
81.919327 101.592667 133.289764 0.905798 -0.128103 0.403881 0 198 209 255
80.902328 90.233955 131.967865 0.905798 -0.128103 0.403881 0 198 209 255
140.332214 97.588280 1.014946 0.905798 -0.128103 0.403881 0 198 209 255
140.332214 97.588280 1.014946 0.572705 -0.790932 0.215490 0 198 209 255
80.902328 90.233955 131.967865 0.572705 -0.790932 0.215490 0 198 209 255
72.979790 83.264793 127.443939 0.572705 -0.790932 0.215490 0 198 209 255
132.409683 90.619110 -3.508972 0.572705 -0.790932 0.215490 0 198 209 255
132.409683 90.619110 -3.508972 -0.096552 -0.990349 -0.099436 0 198 209 255
72.979790 83.264793 127.443939 -0.096552 -0.990349 -0.099436 0 198 209 255
62.792595 84.767609 122.368050 -0.096552 -0.990349 -0.099436 0 198 209 255
122.222496 92.121933 -8.584862 -0.096552 -0.990349 -0.099436 0 198 209 255
122.222496 92.121933 -8.584862 -0.708717 -0.609175 -0.355846 0 198 209 255
62.792595 84.767609 122.368050 -0.708717 -0.609175 -0.355846 0 198 209 255
56.308289 93.862083 119.713593 -0.708717 -0.609175 -0.355846 0 198 209 255
115.738167 101.216400 -11.239334 -0.708717 -0.609175 -0.355846 0 198 209 255
115.738167 101.216400 -11.239334 -0.905798 0.128102 -0.403881 0 198 209 255
56.308289 93.862083 119.713593 -0.905798 0.128102 -0.403881 0 198 209 255
57.325268 105.220795 121.035477 -0.905798 0.128102 -0.403881 0 198 209 255
116.755165 112.575111 -9.917435 -0.905798 0.128102 -0.403881 0 198 209 255
116.755165 112.575111 -9.917435 -0.572704 0.790932 -0.215489 0 198 209 255
57.325268 105.220795 121.035477 -0.572704 0.790932 -0.215489 0 198 209 255
65.247826 112.189957 125.559418 -0.572704 0.790932 -0.215489 0 198 209 255
124.677719 119.544281 -5.393509 -0.572704 0.790932 -0.215489 0 198 209 255
-114.153458 105.840813 4.731918 0.878844 0.420501 -0.225416 0 198 209 255
-78.777138 106.728256 144.311264 0.878844 0.420501 -0.225416 0 198 209 255
-74.032707 96.315186 143.383698 0.878844 0.420501 -0.225416 0 198 209 255
-109.409004 95.427742 3.804367 0.878844 0.420501 -0.225416 0 198 209 255
-124.718559 109.785812 6.880676 0.332236 0.938876 -0.090174 0 198 209 255
-89.342255 110.673264 146.460022 0.332236 0.938876 -0.090174 0 198 209 255
-78.777138 106.728256 144.311264 0.332236 0.938876 -0.090174 0 198 209 255
-114.153458 105.840813 4.731918 0.332236 0.938876 -0.090174 0 198 209 255
-109.409004 95.427742 3.804367 0.910887 -0.343497 -0.228680 0 198 209 255
-74.032707 96.315186 143.383698 0.910887 -0.343497 -0.228680 0 198 209 255
-77.888214 85.533882 144.220703 0.910887 -0.343497 -0.228680 0 198 209 255
-113.264511 84.646439 4.641380 0.910887 -0.343497 -0.228680 0 198 209 255
-113.264511 84.646439 4.641380 0.409653 -0.906956 -0.098060 0 198 209 255
-77.888214 85.533882 144.220703 0.409653 -0.906956 -0.098060 0 198 209 255
-88.085114 80.699883 146.331970 0.409653 -0.906956 -0.098060 0 198 209 255
-123.461411 79.812439 6.752625 0.409653 -0.906956 -0.098060 0 198 209 255
-123.461411 79.812439 6.752625 -0.332235 -0.938876 0.090174 0 198 209 255
-88.085114 80.699883 146.331970 -0.332235 -0.938876 0.090174 0 198 209 255
-98.650230 84.644882 148.480743 -0.332235 -0.938876 0.090174 0 198 209 255
-134.026535 83.757439 8.901386 -0.332235 -0.938876 0.090174 0 198 209 255
-134.026535 83.757439 8.901386 -0.878844 -0.420500 0.225416 0 198 209 255
-98.650230 84.644882 148.480743 -0.878844 -0.420500 0.225416 0 198 209 255
-103.394653 95.057953 149.408295 -0.878844 -0.420500 0.225416 0 198 209 255
-138.770966 94.170509 9.828949 -0.878844 -0.420500 0.225416 0 198 209 255
-138.770966 94.170509 9.828949 -0.910888 0.343496 0.228680 0 198 209 255
-103.394653 95.057953 149.408295 -0.910888 0.343496 0.228680 0 198 209 255
-99.539162 105.839264 148.571259 -0.910888 0.343496 0.228680 0 198 209 255
-134.915466 104.951813 8.991924 -0.910888 0.343496 0.228680 0 198 209 255
-134.915466 104.951813 8.991924 -0.409653 0.906956 0.098060 0 198 209 255
-99.539162 105.839264 148.571259 -0.409653 0.906956 0.098060 0 198 209 255
-89.342255 110.673264 146.460022 -0.409653 0.906956 0.098060 0 198 209 255
-124.718559 109.785812 6.880676 -0.409653 0.906956 0.098060 0 198 209 255
200.000000 0.000000 40.000000 -1.000000 -0.000000 0.000000 0 198 209 255
200.000000 0.000000 80.000008 -1.000000 -0.000000 0.000000 0 198 209 255
200.000000 100.000000 80.000008 -1.000000 -0.000000 0.000000 0 198 209 255
200.000000 100.000000 40.000000 -1.000000 -0.000000 0.000000 0 198 209 255
-80.000008 0.000000 20.000000 0.316228 0.000000 0.948683 0 198 209 255
-20.000000 0.000000 0.000008 0.316228 0.000000 0.948683 0 198 209 255
-20.000000 100.000000 0.000008 0.316228 0.000000 0.948683 0 198 209 255
-80.000008 100.000000 20.000000 0.316228 0.000000 0.948683 0 198 209 255
200.000000 0.000000 80.000008 -0.447213 0.000000 -0.894427 0 198 209 255
120.000000 0.000000 119.999992 -0.447213 0.000000 -0.894427 0 198 209 255
120.000000 100.000000 119.999992 -0.447213 0.000000 -0.894427 0 198 209 255
200.000000 100.000000 80.000008 -0.447213 0.000000 -0.894427 0 198 209 255
-200.000015 0.000000 80.000000 1.000000 0.000000 0.000000 0 198 209 255
-200.000015 0.000000 40.000008 1.000000 0.000000 0.000000 0 198 209 255
-200.000015 100.000000 40.000008 1.000000 0.000000 0.000000 0 198 209 255
-200.000015 100.000000 80.000000 1.000000 0.000000 0.000000 0 198 209 255
-119.999992 0.000000 120.000000 0.000000 0.000000 1.000000 0 198 209 255
120.000000 0.000000 119.999992 0.000000 0.000000 1.000000 0 198 209 255
120.000000 100.000000 119.999992 0.000000 0.000000 1.000000 0 198 209 255
-119.999992 100.000000 120.000000 0.000000 0.000000 1.000000 0 198 209 255
-119.999992 0.000000 120.000000 0.447213 0.000000 -0.894427 0 198 209 255
-200.000015 0.000000 80.000000 0.447213 0.000000 -0.894427 0 198 209 255
-200.000015 100.000000 80.000000 0.447213 0.000000 -0.894427 0 198 209 255
-119.999992 100.000000 120.000000 0.447213 0.000000 -0.894427 0 198 209 255
20.000000 0.000000 0.000000 -0.316228 0.000000 0.948683 0 198 209 255
79.999992 0.000000 20.000008 -0.316228 0.000000 0.948683 0 198 209 255
79.999992 100.000000 20.000008 -0.316228 0.000000 0.948683 0 198 209 255
20.000000 100.000000 0.000000 -0.316228 0.000000 0.948683 0 198 209 255
-100.000015 0.000000 20.000008 0.000000 0.000000 1.000000 0 198 209 255
-80.000008 0.000000 20.000000 0.000000 0.000000 1.000000 0 198 209 255
-80.000008 100.000000 20.000000 0.000000 0.000000 1.000000 0 198 209 255
-100.000015 100.000000 20.000008 0.000000 0.000000 1.000000 0 198 209 255
79.999992 0.000000 20.000008 0.000000 0.000000 1.000000 0 198 209 255
99.999992 0.000000 20.000000 0.000000 0.000000 1.000000 0 198 209 255
99.999992 100.000000 20.000000 0.000000 0.000000 1.000000 0 198 209 255
79.999992 100.000000 20.000008 0.000000 0.000000 1.000000 0 198 209 255
-20.000000 0.000000 0.000008 0.000000 0.000000 1.000000 0 198 209 255
20.000000 0.000000 0.000000 0.000000 0.000000 1.000000 0 198 209 255
20.000000 100.000000 0.000000 0.000000 0.000000 1.000000 0 198 209 255
-20.000000 100.000000 0.000008 0.000000 0.000000 1.000000 0 198 209 255
99.999992 0.000000 20.000000 -0.316228 0.000000 0.948683 0 198 209 255
159.999985 0.000000 40.000008 -0.316228 0.000000 0.948683 0 198 209 255
159.999985 100.000000 40.000008 -0.316228 0.000000 0.948683 0 198 209 255
99.999992 100.000000 20.000000 -0.316228 0.000000 0.948683 0 198 209 255
-200.000015 0.000000 40.000008 0.000000 0.000000 1.000000 0 198 209 255
-160.000000 0.000000 40.000004 0.000000 0.000000 1.000000 0 198 209 255
-160.000000 100.000000 40.000004 0.000000 0.000000 1.000000 0 198 209 255
-200.000015 100.000000 40.000008 0.000000 0.000000 1.000000 0 198 209 255
159.999985 0.000000 40.000008 0.000000 0.000000 1.000000 0 198 209 255
200.000000 0.000000 40.000000 0.000000 0.000000 1.000000 0 198 209 255
200.000000 100.000000 40.000000 0.000000 0.000000 1.000000 0 198 209 255
159.999985 100.000000 40.000008 0.000000 0.000000 1.000000 0 198 209 255
-160.000000 0.000000 40.000004 0.316228 0.000000 0.948683 0 198 209 255
-100.000015 0.000000 20.000008 0.316228 0.000000 0.948683 0 198 209 255
-100.000015 100.000000 20.000008 0.316228 0.000000 0.948683 0 198 209 255
-160.000000 100.000000 40.000004 0.316228 0.000000 0.948683 0 198 209 255
200.000000 100.000000 80.000008 -0.322474 -0.692858 -0.644948 0 198 209 255
120.000000 100.000000 119.999992 -0.322474 -0.692858 -0.644948 0 198 209 255
72.000000 150.000000 90.285721 -0.322474 -0.692858 -0.644948 0 198 209 255
120.000008 150.000000 66.285721 -0.322474 -0.692858 -0.644948 0 198 209 255
-200.000015 100.000000 80.000000 0.529999 -0.847998 0.000000 0 198 209 255
-200.000015 100.000000 40.000008 0.529999 -0.847998 0.000000 0 198 209 255
-120.000000 150.000000 42.285709 0.529999 -0.847998 0.000000 0 198 209 255
-120.000008 150.000000 66.285713 0.529999 -0.847998 0.000000 0 198 209 255
-119.999992 100.000000 120.000000 0.000000 0.510879 0.859653 0 198 209 255
120.000000 100.000000 119.999992 0.000000 0.510879 0.859653 0 198 209 255
72.000000 150.000000 90.285721 0.000000 0.510879 0.859653 0 198 209 255
-72.000008 150.000000 90.285721 0.000000 0.510879 0.859653 0 198 209 255
-119.999992 100.000000 120.000000 0.322474 -0.692858 -0.644948 0 198 209 255
-200.000015 100.000000 80.000000 0.322474 -0.692858 -0.644948 0 198 209 255
-120.000008 150.000000 66.285713 0.322474 -0.692858 -0.644948 0 198 209 255
-72.000008 150.000000 90.285721 0.322474 -0.692858 -0.644948 0 198 209 255
20.000000 100.000000 0.000000 -0.293858 -0.369422 0.881575 0 198 209 255
79.999992 100.000000 20.000008 -0.293858 -0.369422 0.881575 0 198 209 255
48.000000 150.000000 30.285713 -0.293858 -0.369422 0.881575 0 198 209 255
11.999999 150.000000 18.285713 -0.293858 -0.369422 0.881575 0 198 209 255
-100.000015 100.000000 20.000008 0.000000 -0.201495 0.979490 0 198 209 255
-80.000008 100.000000 20.000000 0.000000 -0.201495 0.979490 0 198 209 255
-48.000000 150.000000 30.285717 0.000000 -0.201495 0.979490 0 198 209 255
-60.000004 150.000000 30.285713 0.000000 -0.201495 0.979490 0 198 209 255
79.999992 100.000000 20.000008 0.000000 -0.201495 0.979490 0 198 209 255
99.999992 100.000000 20.000000 0.000000 -0.201495 0.979490 0 198 209 255
60.000004 150.000000 30.285713 0.000000 -0.201495 0.979490 0 198 209 255
48.000000 150.000000 30.285713 0.000000 -0.201495 0.979490 0 198 209 255
-20.000000 100.000000 0.000008 0.000000 -0.343466 0.939165 0 198 209 255
20.000000 100.000000 0.000000 0.000000 -0.343466 0.939165 0 198 209 255
11.999999 150.000000 18.285713 0.000000 -0.343466 0.939165 0 198 209 255
-12.000002 150.000000 18.285713 0.000000 -0.343466 0.939165 0 198 209 255
99.999992 100.000000 20.000000 -0.288576 -0.408953 0.865726 0 198 209 255
159.999985 100.000000 40.000008 -0.288576 -0.408953 0.865726 0 198 209 255
96.000000 150.000000 42.285717 -0.288576 -0.408953 0.865726 0 198 209 255
60.000004 150.000000 30.285713 -0.288576 -0.408953 0.865726 0 198 209 255
-200.000015 100.000000 40.000008 -0.000000 -0.045666 0.998957 0 198 209 255
-160.000000 100.000000 40.000004 -0.000000 -0.045666 0.998957 0 198 209 255
-96.000008 150.000000 42.285717 -0.000000 -0.045666 0.998957 0 198 209 255
-120.000000 150.000000 42.285709 -0.000000 -0.045666 0.998957 0 198 209 255
159.999985 100.000000 40.000008 0.000000 -0.045666 0.998957 0 198 209 255
200.000000 100.000000 40.000000 0.000000 -0.045666 0.998957 0 198 209 255
120.000008 150.000000 42.285717 0.000000 -0.045666 0.998957 0 198 209 255
96.000000 150.000000 42.285717 0.000000 -0.045666 0.998957 0 198 209 255
-160.000000 100.000000 40.000004 0.288575 -0.408953 0.865726 0 198 209 255
-100.000015 100.000000 20.000008 0.288575 -0.408953 0.865726 0 198 209 255
-60.000004 150.000000 30.285713 0.288575 -0.408953 0.865726 0 198 209 255
-96.000008 150.000000 42.285717 0.288575 -0.408953 0.865726 0 198 209 255
200.000000 100.000000 40.000000 -0.529999 -0.847998 0.000000 0 198 209 255
200.000000 100.000000 80.000008 -0.529999 -0.847998 0.000000 0 198 209 255
120.000008 150.000000 66.285721 -0.529999 -0.847998 0.000000 0 198 209 255
120.000008 150.000000 42.285717 -0.529999 -0.847998 0.000000 0 198 209 255
-80.000008 100.000000 20.000000 0.293858 -0.369422 0.881575 0 198 209 255
-20.000000 100.000000 0.000008 0.293858 -0.369422 0.881575 0 198 209 255
-12.000002 150.000000 18.285713 0.293858 -0.369422 0.881575 0 198 209 255
-48.000000 150.000000 30.285717 0.293858 -0.369422 0.881575 0 198 209 255
-72.000008 150.000000 90.285721 0.220114 -0.870488 -0.440228 0 198 209 255
-120.000008 150.000000 66.285713 0.220114 -0.870488 -0.440228 0 198 209 255
-31.650116 180.000000 51.140022 0.220114 -0.870488 -0.440228 0 198 209 255
-18.990067 180.000000 57.470043 0.220114 -0.870488 -0.440228 0 198 209 255
11.999999 150.000000 18.285713 -0.255203 -0.590521 0.765609 0 198 209 255
48.000000 150.000000 30.285713 -0.255203 -0.590521 0.765609 0 198 209 255
12.660048 180.000000 41.644981 -0.255203 -0.590521 0.765609 0 198 209 255
3.165011 180.000000 38.479973 -0.255203 -0.590521 0.765609 0 198 209 255
-60.000004 150.000000 30.285713 -0.000001 -0.354107 0.935205 0 198 209 255
-48.000000 150.000000 30.285717 -0.000001 -0.354107 0.935205 0 198 209 255
-12.660046 180.000000 41.644985 -0.000001 -0.354107 0.935205 0 198 209 255
-15.825055 180.000000 41.644981 -0.000001 -0.354107 0.935205 0 198 209 255
48.000000 150.000000 30.285713 -0.000000 -0.354108 0.935204 0 198 209 255
60.000004 150.000000 30.285713 -0.000000 -0.354108 0.935204 0 198 209 255
15.825058 180.000000 41.644985 -0.000000 -0.354108 0.935204 0 198 209 255
12.660048 180.000000 41.644981 -0.000000 -0.354108 0.935204 0 198 209 255
-12.000002 150.000000 18.285713 0.000000 -0.558414 0.829563 0 198 209 255
11.999999 150.000000 18.285713 0.000000 -0.558414 0.829563 0 198 209 255
3.165011 180.000000 38.479973 0.000000 -0.558414 0.829563 0 198 209 255
-3.165010 180.000000 38.479977 0.000000 -0.558414 0.829563 0 198 209 255
60.000004 150.000000 30.285713 -0.243947 -0.636317 0.731840 0 198 209 255
96.000000 150.000000 42.285717 -0.243947 -0.636317 0.731840 0 198 209 255
25.320091 180.000000 44.809998 -0.243947 -0.636317 0.731840 0 198 209 255
15.825058 180.000000 41.644985 -0.243947 -0.636317 0.731840 0 198 209 255
-120.000000 150.000000 42.285709 -0.000000 -0.083846 0.996479 0 198 209 255
-96.000008 150.000000 42.285717 -0.000000 -0.083846 0.996479 0 198 209 255
-25.320095 180.000000 44.809998 -0.000000 -0.083846 0.996479 0 198 209 255
-31.650116 180.000000 44.809998 -0.000000 -0.083846 0.996479 0 198 209 255
96.000000 150.000000 42.285717 0.000000 -0.083846 0.996479 0 198 209 255
120.000008 150.000000 42.285717 0.000000 -0.083846 0.996479 0 198 209 255
31.650116 180.000000 44.809998 0.000000 -0.083846 0.996479 0 198 209 255
25.320091 180.000000 44.809998 0.000000 -0.083846 0.996479 0 198 209 255
-96.000008 150.000000 42.285717 0.243947 -0.636317 0.731840 0 198 209 255
-60.000004 150.000000 30.285713 0.243947 -0.636317 0.731840 0 198 209 255
-15.825055 180.000000 41.644981 0.243947 -0.636317 0.731840 0 198 209 255
-25.320095 180.000000 44.809998 0.243947 -0.636317 0.731840 0 198 209 255
120.000008 150.000000 42.285717 -0.321528 -0.946900 0.000000 0 198 209 255
120.000008 150.000000 66.285721 -0.321528 -0.946900 0.000000 0 198 209 255
31.650116 180.000000 51.140022 -0.321528 -0.946900 0.000000 0 198 209 255
31.650116 180.000000 44.809998 -0.321528 -0.946900 0.000000 0 198 209 255
-48.000000 150.000000 30.285717 0.255203 -0.590521 0.765609 0 198 209 255
-12.000002 150.000000 18.285713 0.255203 -0.590521 0.765609 0 198 209 255
-3.165010 180.000000 38.479977 0.255203 -0.590521 0.765609 0 198 209 255
-12.660046 180.000000 41.644985 0.255203 -0.590521 0.765609 0 198 209 255
120.000008 150.000000 66.285721 -0.220114 -0.870488 -0.440228 0 198 209 255
72.000000 150.000000 90.285721 -0.220114 -0.870488 -0.440228 0 198 209 255
18.990068 180.000000 57.470043 -0.220114 -0.870488 -0.440228 0 198 209 255
31.650116 180.000000 51.140022 -0.220114 -0.870488 -0.440228 0 198 209 255
-120.000008 150.000000 66.285713 0.321528 -0.946900 0.000000 0 198 209 255
-120.000000 150.000000 42.285709 0.321528 -0.946900 0.000000 0 198 209 255
-31.650116 180.000000 44.809998 0.321528 -0.946900 0.000000 0 198 209 255
-31.650116 180.000000 51.140022 0.321528 -0.946900 0.000000 0 198 209 255
-72.000008 150.000000 90.285721 0.000000 0.738061 0.674734 0 198 209 255
72.000000 150.000000 90.285721 0.000000 0.738061 0.674734 0 198 209 255
18.990068 180.000000 57.470043 0.000000 0.738061 0.674734 0 198 209 255
-18.990067 180.000000 57.470043 0.000000 0.738061 0.674734 0 198 209 255
31.650116 180.000000 51.140022 0.000000 -1.000000 0.000000 0 198 209 255
18.990068 180.000000 57.470043 0.000000 -1.000000 0.000000 0 198 209 255
31.650116 180.000000 44.809998 0.000000 -1.000000 0.000000 0 198 209 255
25.320091 180.000000 44.809998 0.000000 -1.000000 0.000000 0 198 209 255
15.825058 180.000000 41.644985 0.000000 -1.000000 0.000000 0 198 209 255
12.660048 180.000000 41.644981 0.000000 -1.000000 -0.000000 0 198 209 255
3.165011 180.000000 38.479973 0.000000 -1.000000 -0.000000 0 198 209 255
-31.650116 180.000000 51.140022 -0.000000 -1.000000 0.000000 0 198 209 255
-31.650116 180.000000 44.809998 -0.000000 -1.000000 0.000000 0 198 209 255
-18.990067 180.000000 57.470043 -0.000000 -1.000000 0.000000 0 198 209 255
-25.320095 180.000000 44.809998 0.000000 -1.000000 -0.000000 0 198 209 255
-15.825055 180.000000 41.644981 0.000000 -1.000000 0.000000 0 198 209 255
-12.660046 180.000000 41.644985 0.000000 -1.000000 0.000000 0 198 209 255
-3.165010 180.000000 38.479977 0.000000 -1.000000 0.000000 0 198 209 255
-18.990067 180.000000 57.470043 0.000000 1.000000 -0.000000 0 198 209 255
18.990068 180.000000 57.470043 0.000000 1.000000 -0.000000 0 198 209 255
3.165011 180.000000 38.479973 0.000000 1.000000 -0.000000 0 198 209 255
4 0 1 2 3
4 4 5 6 7
4 8 9 10 11
4 12 13 14 15
4 16 17 18 19
4 20 21 22 23
4 24 25 26 27
4 28 29 30 31
4 32 33 34 35
4 36 37 38 39
4 40 41 42 43
4 44 45 46 47
4 48 49 50 51
4 52 53 54 55
4 56 57 58 59
4 60 61 62 63
4 64 65 66 67
4 68 69 70 71
4 72 73 74 75
4 76 77 78 79
4 80 81 82 83
4 84 85 86 87
4 88 89 90 91
4 92 93 94 95
4 96 97 98 99
4 100 101 102 103
4 104 105 106 107
4 108 109 110 111
4 112 113 114 115
4 116 117 118 119
4 120 121 122 123
4 124 125 126 127
4 128 129 130 131
4 132 133 134 135
4 136 137 138 139
4 140 141 142 143
4 144 145 146 147
4 148 149 150 151
4 152 153 154 155
4 156 157 158 159
4 160 161 162 163
4 164 165 166 167
4 168 169 170 171
4 172 173 174 175
4 176 177 178 179
4 180 181 182 183
4 184 185 186 187
4 188 189 190 191
4 192 193 194 195
4 196 197 198 199
4 200 201 202 203
4 204 205 206 207
4 208 209 210 211
4 212 213 214 215
4 216 217 218 219
4 220 221 222 223
4 224 225 226 227
4 228 229 230 231
4 232 233 234 235
4 236 237 238 239
4 240 241 242 243
4 244 245 246 247
4 248 249 250 251
4 252 253 254 255
4 256 257 258 259
4 260 261 262 263
3 264 265 266
3 266 265 267
3 267 265 268
3 268 265 269
3 269 265 270
3 271 272 273
3 274 273 272
3 275 273 274
3 276 273 275
3 277 273 276
3 270 273 277
3 278 279 280
