ply
format ascii 1.0
comment Created by Blender 2.93.5 - www.blender.org
element vertex 228
property float x
property float y
property float z
property float nx
property float ny
property float nz
property uchar red
property uchar green
property uchar blue
property uchar alpha
element face 65
property list uchar uint vertex_indices
end_header
120.000000 0.000000 20.000000 -1.000000 -0.000000 0.000000 221 130 0 255
120.000000 0.000000 60.000000 -1.000000 -0.000000 0.000000 221 130 0 255
120.000000 256.237885 71.187454 -1.000000 -0.000000 0.000000 221 130 0 255
120.000000 259.724121 31.339666 -1.000000 -0.000000 0.000000 221 130 0 255
120.000000 0.000000 60.000000 -0.554334 0.036304 -0.831502 221 130 0 255
60.000000 0.000000 100.000000 -0.554334 0.036304 -0.831502 221 130 0 255
60.000000 252.751648 111.035240 -0.554334 0.036304 -0.831502 221 130 0 255
120.000000 256.237885 71.187454 -0.554334 0.036304 -0.831502 221 130 0 255
60.000000 0.000000 100.000000 -0.164247 0.043026 -0.985480 221 130 0 255
0.000000 0.000000 110.000000 -0.164247 0.043026 -0.985480 221 130 0 255
0.000000 251.880096 120.997192 -0.164247 0.043026 -0.985480 221 130 0 255
60.000000 252.751648 111.035240 -0.164247 0.043026 -0.985480 221 130 0 255
-40.000000 0.000000 0.000000 0.000000 -0.043619 0.999048 221 130 0 255
40.000000 0.000000 0.000000 0.000000 -0.043619 0.999048 221 130 0 255
40.000000 261.467224 11.415771 0.000000 -0.043619 0.999048 221 130 0 255
-40.000000 261.467224 11.415771 0.000000 -0.043619 0.999048 221 130 0 255
0.000000 0.000000 110.000000 0.164247 0.043026 -0.985480 221 130 0 255
-60.000000 0.000000 100.000000 0.164247 0.043026 -0.985480 221 130 0 255
-60.000000 252.751648 111.035240 0.164247 0.043026 -0.985480 221 130 0 255
0.000000 251.880096 120.997192 0.164247 0.043026 -0.985480 221 130 0 255
-40.000000 0.000000 6.000000 1.000000 0.000000 0.000000 221 130 0 255
-40.000000 0.000000 0.000000 1.000000 0.000000 0.000000 221 130 0 255
-40.000000 261.467224 11.415771 1.000000 0.000000 0.000000 221 130 0 255
-40.000000 260.944275 17.392941 1.000000 0.000000 0.000000 221 130 0 255
-70.000000 0.000000 6.000000 0.000000 -0.043619 0.999048 221 130 0 255
-40.000000 0.000000 6.000000 0.000000 -0.043619 0.999048 221 130 0 255
-40.000000 260.944275 17.392941 0.000000 -0.043619 0.999048 221 130 0 255
-70.000000 260.944275 17.392941 0.000000 -0.043619 0.999048 221 130 0 255
40.000000 0.000000 0.000000 -1.000000 0.000000 0.000000 221 130 0 255
40.000000 0.000000 6.000000 -1.000000 0.000000 0.000000 221 130 0 255
40.000000 260.944275 17.392941 -1.000000 0.000000 0.000000 221 130 0 255
40.000000 261.467224 11.415771 -1.000000 0.000000 0.000000 221 130 0 255
-120.000000 0.000000 20.000000 0.269392 -0.042006 0.962114 221 130 0 255
-70.000000 0.000000 6.000000 0.269392 -0.042006 0.962114 221 130 0 255
-70.000000 260.944275 17.392941 0.269392 -0.042006 0.962114 221 130 0 255
-120.000000 259.724121 31.339666 0.269392 -0.042006 0.962114 221 130 0 255
40.000000 0.000000 6.000000 0.000000 -0.043619 0.999048 221 130 0 255
70.000000 0.000000 6.000000 0.000000 -0.043619 0.999048 221 130 0 255
70.000000 260.944275 17.392941 0.000000 -0.043619 0.999048 221 130 0 255
40.000000 260.944275 17.392941 0.000000 -0.043619 0.999048 221 130 0 255
-120.000000 0.000000 60.000000 1.000000 0.000000 0.000000 221 130 0 255
-120.000000 0.000000 20.000000 1.000000 0.000000 0.000000 221 130 0 255
-120.000000 259.724121 31.339666 1.000000 0.000000 0.000000 221 130 0 255
-120.000000 256.237885 71.187454 1.000000 0.000000 0.000000 221 130 0 255
70.000000 0.000000 6.000000 -0.269392 -0.042006 0.962114 221 130 0 255
120.000000 0.000000 20.000000 -0.269392 -0.042006 0.962114 221 130 0 255
120.000000 259.724121 31.339666 -0.269392 -0.042006 0.962114 221 130 0 255
70.000000 260.944275 17.392941 -0.269392 -0.042006 0.962114 221 130 0 255
-60.000000 0.000000 100.000000 0.554334 0.036304 -0.831502 221 130 0 255
-120.000000 0.000000 60.000000 0.554334 0.036304 -0.831502 221 130 0 255
-120.000000 256.237885 71.187454 0.554334 0.036304 -0.831502 221 130 0 255
-60.000000 252.751648 111.035240 0.554334 0.036304 -0.831502 221 130 0 255
60.000000 252.751648 111.035240 -0.164247 0.128753 -0.977980 221 130 0 255
0.000000 251.880096 120.997192 -0.164247 0.128753 -0.977980 221 130 0 255
0.000000 501.843262 153.905334 -0.164247 0.128753 -0.977980 221 130 0 255
60.000000 503.579712 144.057251 -0.164247 0.128753 -0.977980 221 130 0 255
-40.000000 261.467224 11.415771 0.000000 -0.130526 0.991445 221 130 0 255
40.000000 261.467224 11.415771 0.000000 -0.130526 0.991445 221 130 0 255
40.000000 520.944519 45.576469 0.000000 -0.130526 0.991445 221 130 0 255
-40.000000 520.944519 45.576469 0.000000 -0.130526 0.991445 221 130 0 255
0.000000 251.880096 120.997192 0.164247 0.128753 -0.977980 221 130 0 255
-60.000000 252.751648 111.035240 0.164247 0.128753 -0.977980 221 130 0 255
-60.000000 503.579712 144.057251 0.164247 0.128753 -0.977980 221 130 0 255
0.000000 501.843262 153.905334 0.164247 0.128753 -0.977980 221 130 0 255
-40.000000 520.944519 45.576469 1.000000 0.000000 0.000000 221 130 0 255
-40.000000 519.902588 51.485317 1.000000 0.000000 0.000000 221 130 0 255
-70.000000 260.944275 17.392941 0.000000 -0.130526 0.991445 221 130 0 255
-40.000000 260.944275 17.392941 0.000000 -0.130526 0.991445 221 130 0 255
-40.000000 519.902588 51.485317 0.000000 -0.130526 0.991445 221 130 0 255
-70.000000 519.902588 51.485317 0.000000 -0.130526 0.991445 221 130 0 255
40.000000 519.902588 51.485317 -1.000000 0.000000 0.000000 221 130 0 255
40.000000 520.944519 45.576469 -1.000000 0.000000 0.000000 221 130 0 255
-120.000000 259.724121 31.339666 0.269392 -0.125700 0.954792 221 130 0 255
-70.000000 260.944275 17.392941 0.269392 -0.125700 0.954792 221 130 0 255
-70.000000 519.902588 51.485317 0.269392 -0.125700 0.954792 221 130 0 255
-120.000000 517.471558 65.272629 0.269392 -0.125700 0.954792 221 130 0 255
40.000000 260.944275 17.392941 0.000000 -0.130526 0.991445 221 130 0 255
70.000000 260.944275 17.392941 0.000000 -0.130526 0.991445 221 130 0 255
70.000000 519.902588 51.485317 0.000000 -0.130526 0.991445 221 130 0 255
40.000000 519.902588 51.485317 0.000000 -0.130526 0.991445 221 130 0 255
-120.000000 517.471558 65.272629 1.000000 0.000000 0.000000 221 130 0 255
-120.000000 510.525665 104.664940 1.000000 0.000000 0.000000 221 130 0 255
70.000000 260.944275 17.392941 -0.269392 -0.125700 0.954792 221 130 0 255
120.000000 259.724121 31.339666 -0.269392 -0.125700 0.954792 221 130 0 255
120.000000 517.471558 65.272629 -0.269392 -0.125700 0.954792 221 130 0 255
70.000000 519.902588 51.485317 -0.269392 -0.125700 0.954792 221 130 0 255
-60.000000 252.751648 111.035240 0.554335 0.108636 -0.825174 221 130 0 255
-120.000000 256.237885 71.187454 0.554335 0.108636 -0.825174 221 130 0 255
-120.000000 510.525665 104.664940 0.554335 0.108636 -0.825174 221 130 0 255
-60.000000 503.579712 144.057251 0.554335 0.108636 -0.825174 221 130 0 255
120.000000 510.525665 104.664940 -1.000000 -0.000000 0.000000 221 130 0 255
120.000000 517.471558 65.272629 -1.000000 -0.000000 0.000000 221 130 0 255
120.000000 256.237885 71.187454 -0.554335 0.108636 -0.825174 221 130 0 255
60.000000 252.751648 111.035240 -0.554335 0.108636 -0.825174 221 130 0 255
60.000000 503.579712 144.057251 -0.554335 0.108636 -0.825174 221 130 0 255
120.000000 510.525665 104.664940 -0.554335 0.108636 -0.825174 221 130 0 255
40.000000 519.902588 51.485317 0.000000 -0.216439 0.976296 221 130 0 255
70.000000 519.902588 51.485317 0.000000 -0.216439 0.976296 221 130 0 255
70.000000 774.904175 108.017670 0.000000 -0.216439 0.976296 221 130 0 255
40.000000 774.904175 108.017670 0.000000 -0.216439 0.976296 221 130 0 255
-120.000000 771.280762 121.540634 1.000000 0.000000 0.000000 221 130 0 255
-120.000000 760.928040 160.177673 1.000000 0.000000 0.000000 221 130 0 255
70.000000 519.902588 51.485317 -0.269392 -0.208438 0.940203 221 130 0 255
120.000000 517.471558 65.272629 -0.269392 -0.208438 0.940203 221 130 0 255
120.000000 771.280762 121.540634 -0.269392 -0.208438 0.940203 221 130 0 255
70.000000 774.904175 108.017670 -0.269392 -0.208438 0.940203 221 130 0 255
-60.000000 503.579712 144.057251 0.554335 0.180141 -0.812565 221 130 0 255
-120.000000 510.525665 104.664940 0.554335 0.180141 -0.812565 221 130 0 255
-120.000000 760.928040 160.177673 0.554335 0.180141 -0.812565 221 130 0 255
-60.000000 750.575256 198.814713 0.554335 0.180141 -0.812565 221 130 0 255
120.000000 760.928040 160.177673 -1.000000 0.000000 0.000000 221 130 0 255
120.000000 771.280762 121.540634 -1.000000 0.000000 0.000000 221 130 0 255
120.000000 510.525665 104.664940 -0.554335 0.180141 -0.812565 221 130 0 255
60.000000 503.579712 144.057251 -0.554335 0.180141 -0.812565 221 130 0 255
60.000000 750.575256 198.814713 -0.554335 0.180141 -0.812565 221 130 0 255
120.000000 760.928040 160.177673 -0.554335 0.180141 -0.812565 221 130 0 255
60.000000 503.579712 144.057251 -0.164247 0.213500 -0.963037 221 130 0 255
0.000000 501.843262 153.905334 -0.164247 0.213500 -0.963037 221 130 0 255
0.000000 747.987061 208.473969 -0.164247 0.213500 -0.963037 221 130 0 255
60.000000 750.575256 198.814713 -0.164247 0.213500 -0.963037 221 130 0 255
-40.000000 520.944519 45.576469 0.000000 -0.216439 0.976296 221 130 0 255
40.000000 520.944519 45.576469 0.000000 -0.216439 0.976296 221 130 0 255
40.000000 776.457153 102.222115 0.000000 -0.216439 0.976296 221 130 0 255
-40.000000 776.457153 102.222115 0.000000 -0.216439 0.976296 221 130 0 255
0.000000 501.843262 153.905334 0.164247 0.213500 -0.963037 221 130 0 255
-60.000000 503.579712 144.057251 0.164247 0.213500 -0.963037 221 130 0 255
-60.000000 750.575256 198.814713 0.164247 0.213500 -0.963037 221 130 0 255
0.000000 747.987061 208.473969 0.164247 0.213500 -0.963037 221 130 0 255
-40.000000 776.457153 102.222115 1.000000 0.000000 0.000000 221 130 0 255
-40.000000 774.904175 108.017670 1.000000 0.000000 0.000000 221 130 0 255
-70.000000 519.902588 51.485317 0.000000 -0.216439 0.976296 221 130 0 255
-40.000000 519.902588 51.485317 0.000000 -0.216439 0.976296 221 130 0 255
-40.000000 774.904175 108.017670 0.000000 -0.216439 0.976296 221 130 0 255
-70.000000 774.904175 108.017670 0.000000 -0.216439 0.976296 221 130 0 255
40.000000 774.904175 108.017670 -1.000000 0.000000 0.000000 221 130 0 255
40.000000 776.457153 102.222115 -1.000000 0.000000 0.000000 221 130 0 255
-120.000000 517.471558 65.272629 0.269392 -0.208438 0.940203 221 130 0 255
-70.000000 519.902588 51.485317 0.269392 -0.208438 0.940203 221 130 0 255
-70.000000 774.904175 108.017670 0.269392 -0.208438 0.940203 221 130 0 255
-120.000000 771.280762 121.540634 0.269392 -0.208438 0.940203 221 130 0 255
60.000000 750.575256 198.814713 -0.164247 0.296621 -0.940765 221 130 0 255
0.000000 747.987061 208.473969 -0.164247 0.296621 -0.940765 221 130 0 255
0.000000 988.438293 284.287781 -0.164247 0.296621 -0.940765 221 130 0 255
60.000000 991.858521 274.890869 -0.164247 0.296621 -0.940765 221 130 0 255
-40.000000 776.457153 102.222115 0.000000 -0.300705 0.953717 221 130 0 255
40.000000 776.457153 102.222115 0.000000 -0.300705 0.953717 221 130 0 255
40.000000 1026.060547 180.921600 0.000000 -0.300705 0.953717 221 130 0 255
-40.000000 1026.060547 180.921600 0.000000 -0.300705 0.953717 221 130 0 255
0.000000 747.987061 208.473969 0.164247 0.296621 -0.940765 221 130 0 255
-60.000000 750.575256 198.814713 0.164247 0.296621 -0.940765 221 130 0 255
-60.000000 991.858521 274.890869 0.164247 0.296621 -0.940765 221 130 0 255
0.000000 988.438293 284.287781 0.164247 0.296621 -0.940765 221 130 0 255
-40.000000 1026.060547 180.921600 1.000000 0.000000 0.000000 221 130 0 255
-40.000000 1024.008301 186.559753 1.000000 0.000000 0.000000 221 130 0 255
-70.000000 774.904175 108.017670 0.000000 -0.300705 0.953717 221 130 0 255
-40.000000 774.904175 108.017670 0.000000 -0.300705 0.953717 221 130 0 255
-40.000000 1024.008301 186.559753 0.000000 -0.300705 0.953717 221 130 0 255
-70.000000 1024.008301 186.559753 0.000000 -0.300705 0.953717 221 130 0 255
40.000000 1024.008301 186.559753 -1.000000 0.000000 0.000000 221 130 0 255
40.000000 1026.060547 180.921600 -1.000000 0.000000 0.000000 221 130 0 255
-120.000000 771.280762 121.540634 0.269392 -0.289588 0.918459 221 130 0 255
-70.000000 774.904175 108.017670 0.269392 -0.289588 0.918459 221 130 0 255
-70.000000 1024.008301 186.559753 0.269392 -0.289588 0.918459 221 130 0 255
-120.000000 1019.220093 199.715454 0.269392 -0.289588 0.918459 221 130 0 255
40.000000 774.904175 108.017670 0.000000 -0.300705 0.953717 221 130 0 255
70.000000 774.904175 108.017670 0.000000 -0.300705 0.953717 221 130 0 255
70.000000 1024.008301 186.559753 0.000000 -0.300705 0.953717 221 130 0 255
40.000000 1024.008301 186.559753 0.000000 -0.300705 0.953717 221 130 0 255
-120.000000 1019.220093 199.715454 1.000000 0.000000 0.000000 221 130 0 255
-120.000000 1005.539307 237.303162 1.000000 0.000000 0.000000 221 130 0 255
70.000000 774.904175 108.017670 -0.269392 -0.289588 0.918459 221 130 0 255
120.000000 771.280762 121.540634 -0.269392 -0.289588 0.918459 221 130 0 255
120.000000 1019.220093 199.715454 -0.269392 -0.289588 0.918459 221 130 0 255
70.000000 1024.008301 186.559753 -0.269392 -0.289588 0.918459 221 130 0 255
-60.000000 750.575256 198.814713 0.554335 0.250275 -0.793773 221 130 0 255
-120.000000 760.928040 160.177673 0.554335 0.250275 -0.793773 221 130 0 255
-120.000000 1005.539307 237.303162 0.554335 0.250275 -0.793773 221 130 0 255
-60.000000 991.858521 274.890869 0.554335 0.250275 -0.793773 221 130 0 255
120.000000 1005.539307 237.303162 -1.000000 0.000000 0.000000 221 130 0 255
120.000000 1019.220093 199.715454 -1.000000 0.000000 0.000000 221 130 0 255
120.000000 760.928040 160.177673 -0.554335 0.250275 -0.793773 221 130 0 255
60.000000 750.575256 198.814713 -0.554335 0.250275 -0.793773 221 130 0 255
60.000000 991.858521 274.890869 -0.554335 0.250275 -0.793773 221 130 0 255
120.000000 1005.539307 237.303162 -0.554335 0.250275 -0.793773 221 130 0 255
-120.000000 1019.220093 199.715454 0.269391 -0.368535 0.889725 221 130 0 255
-70.000000 1024.008301 186.559753 0.269391 -0.368535 0.889725 221 130 0 255
-70.000000 1265.319092 286.513794 0.269391 -0.368535 0.889725 0 0 0 255
-120.000000 1259.402588 299.202118 0.269391 -0.368535 0.889725 0 0 0 255
40.000000 1024.008301 186.559753 0.000000 -0.382683 0.923880 221 130 0 255
70.000000 1024.008301 186.559753 0.000000 -0.382683 0.923880 221 130 0 255
70.000000 1265.319092 286.513794 0.000000 -0.382683 0.923880 0 0 0 255
40.000000 1265.319092 286.513794 0.000000 -0.382683 0.923880 0 0 0 255
-120.000000 1259.402588 299.202118 1.000000 0.000000 0.000000 0 0 0 255
-120.000000 1242.497803 335.454468 1.000000 0.000000 0.000000 0 0 0 255
70.000000 1024.008301 186.559753 -0.269391 -0.368535 0.889725 221 130 0 255
120.000000 1019.220093 199.715454 -0.269391 -0.368535 0.889725 221 130 0 255
120.000000 1259.402588 299.202118 -0.269391 -0.368535 0.889725 0 0 0 255
70.000000 1265.319092 286.513794 -0.269391 -0.368535 0.889725 0 0 0 255
-60.000000 991.858521 274.890869 0.554334 0.318505 -0.768940 221 130 0 255
-120.000000 1005.539307 237.303162 0.554334 0.318505 -0.768940 221 130 0 255
-120.000000 1242.497803 335.454468 0.554334 0.318505 -0.768940 0 0 0 255
-60.000000 1225.593140 371.706757 0.554334 0.318505 -0.768940 0 0 0 255
120.000000 1242.497803 335.454468 -1.000000 0.000000 0.000000 0 0 0 255
120.000000 1259.402588 299.202118 -1.000000 0.000000 0.000000 0 0 0 255
120.000000 1005.539307 237.303162 -0.554334 0.318505 -0.768940 221 130 0 255
60.000000 991.858521 274.890869 -0.554334 0.318505 -0.768940 221 130 0 255
60.000000 1225.593140 371.706757 -0.554334 0.318505 -0.768940 0 0 0 255
120.000000 1242.497803 335.454468 -0.554334 0.318505 -0.768940 0 0 0 255
60.000000 991.858521 274.890869 -0.164247 0.377486 -0.911333 221 130 0 255
0.000000 988.438293 284.287781 -0.164247 0.377486 -0.911333 221 130 0 255
0.000000 1221.366943 380.769836 -0.164247 0.377486 -0.911333 0 0 0 255
60.000000 1225.593140 371.706757 -0.164247 0.377486 -0.911333 0 0 0 255
-40.000000 1026.060547 180.921600 0.000000 -0.382683 0.923880 221 130 0 255
40.000000 1026.060547 180.921600 0.000000 -0.382683 0.923880 221 130 0 255
40.000000 1267.854980 281.075989 0.000000 -0.382683 0.923880 0 0 0 255
-40.000000 1267.854980 281.075989 0.000000 -0.382683 0.923880 0 0 0 255
0.000000 988.438293 284.287781 0.164247 0.377486 -0.911333 221 130 0 255
-60.000000 991.858521 274.890869 0.164247 0.377486 -0.911333 221 130 0 255
-60.000000 1225.593140 371.706757 0.164247 0.377486 -0.911333 0 0 0 255
0.000000 1221.366943 380.769836 0.164247 0.377486 -0.911333 0 0 0 255
-40.000000 1267.854980 281.075989 1.000000 0.000000 0.000000 0 0 0 255
-40.000000 1265.319092 286.513794 1.000000 0.000000 0.000000 0 0 0 255
-70.000000 1024.008301 186.559753 0.000000 -0.382683 0.923880 221 130 0 255
-40.000000 1024.008301 186.559753 0.000000 -0.382683 0.923880 221 130 0 255
-40.000000 1265.319092 286.513794 0.000000 -0.382683 0.923880 0 0 0 255
-70.000000 1265.319092 286.513794 0.000000 -0.382683 0.923880 0 0 0 255
40.000000 1265.319092 286.513794 -1.000000 0.000000 0.000000 0 0 0 255
40.000000 1267.854980 281.075989 -1.000000 0.000000 0.000000 0 0 0 255
4 0 1 2 3
4 4 5 6 7
4 8 9 10 11
4 12 13 14 15
4 16 17 18 19
4 20 21 22 23
4 24 25 26 27
4 28 29 30 31
4 32 33 34 35
4 36 37 38 39
4 40 41 42 43
4 44 45 46 47
4 48 49 50 51
4 52 53 54 55
4 56 57 58 59
4 60 61 62 63
4 23 22 64 65
4 66 67 68 69
4 31 30 70 71
4 72 73 74 75
4 76 77 78 79
4 43 42 80 81
4 82 83 84 85
4 86 87 88 89
4 3 2 90 91
4 92 93 94 95
4 96 97 98 99
4 81 80 100 101
4 102 103 104 105
4 106 107 108 109
4 91 90 110 111
4 112 113 114 115
4 116 117 118 119
4 120 121 122 123
4 124 125 126 127
4 65 64 128 129
4 130 131 132 133
4 71 70 134 135
4 136 137 138 139
4 140 141 142 143
4 144 145 146 147
4 148 149 150 151
4 129 128 152 153
4 154 155 156 157
4 135 134 158 159
4 160 161 162 163
4 164 165 166 167
4 101 100 168 169
4 170 171 172 173
4 174 175 176 177
4 111 110 178 179
4 180 181 182 183
4 184 185 186 187
4 188 189 190 191
4 169 168 192 193
4 194 195 196 197
4 198 199 200 201
4 179 178 202 203
4 204 205 206 207
4 208 209 210 211
4 212 213 214 215
4 216 217 218 219
4 153 152 220 221
4 222 223 224 225
4 159 158 226 227
