ply
format ascii 1.0
comment Created by Blender 2.93.4 - www.blender.org
element vertex 242
property float x
property float y
property float z
property float nx
property float ny
property float nz
property uchar red
property uchar green
property uchar blue
property uchar alpha
element face 67
property list uchar uint vertex_indices
end_header
-120.000000 0.000000 20.000000 -1.000000 -0.000000 0.000000 224 200 39 255
-120.000000 0.000000 60.000000 -1.000000 -0.000000 0.000000 224 200 39 255
-120.000000 32.963715 60.000000 -1.000000 -0.000000 0.000000 224 200 39 255
-120.000000 32.963715 20.000000 -1.000000 -0.000000 0.000000 224 200 39 255
40.000000 0.000000 100.000000 0.316228 0.000000 0.948683 224 200 39 255
100.000000 0.000000 80.000000 0.316228 0.000000 0.948683 224 200 39 255
100.000000 27.886314 80.000000 0.316228 0.000000 0.948683 224 200 39 255
40.000000 32.963715 100.000000 0.316228 0.000000 0.948683 224 200 39 255
40.000000 0.000000 0.000000 0.000000 -0.000000 -1.000000 224 200 39 255
-40.000000 0.000000 0.000000 0.000000 -0.000000 -1.000000 224 200 39 255
-40.000000 32.963715 0.000000 0.000000 -0.000000 -1.000000 224 200 39 255
40.000000 32.963715 0.000000 0.000000 -0.000000 -1.000000 224 200 39 255
120.000000 0.000000 20.000000 0.000000 -0.000000 -1.000000 224 200 39 255
100.000000 0.000000 20.000000 0.000000 -0.000000 -1.000000 224 200 39 255
100.000000 32.963715 20.000000 0.000000 -0.000000 -1.000000 224 200 39 255
120.000000 32.963715 20.000000 0.000000 -0.000000 -1.000000 224 200 39 255
-120.000000 0.000000 60.000000 -0.707107 0.000000 0.707107 224 200 39 255
-100.000000 0.000000 80.000000 -0.707107 0.000000 0.707107 224 200 39 255
-100.000000 32.963715 80.000000 -0.707107 0.000000 0.707107 224 200 39 255
-120.000000 32.963715 60.000000 -0.707107 0.000000 0.707107 224 200 39 255
-40.000000 0.000000 100.000000 0.000000 0.000000 1.000000 224 200 39 255
40.000000 0.000000 100.000000 0.000000 0.000000 1.000000 224 200 39 255
40.000000 32.963715 100.000000 0.000000 0.000000 1.000000 224 200 39 255
-40.000000 32.963715 100.000000 0.000000 0.000000 1.000000 224 200 39 255
-40.000000 0.000000 0.000000 -0.316228 0.000000 -0.948683 224 200 39 255
-100.000000 0.000000 20.000000 -0.316228 0.000000 -0.948683 224 200 39 255
-100.000000 32.963715 20.000000 -0.316228 0.000000 -0.948683 224 200 39 255
-40.000000 32.963715 0.000000 -0.316228 0.000000 -0.948683 224 200 39 255
120.000000 0.000000 60.000000 1.000000 0.000000 0.000000 224 200 39 255
120.000000 0.000000 20.000000 1.000000 0.000000 0.000000 224 200 39 255
120.000000 32.963715 20.000000 1.000000 0.000000 0.000000 224 200 39 255
120.000000 32.963715 60.000000 1.000000 0.000000 0.000000 224 200 39 255
-100.000000 0.000000 80.000000 -0.316228 0.000000 0.948683 224 200 39 255
-40.000000 0.000000 100.000000 -0.316228 0.000000 0.948683 224 200 39 255
-40.000000 32.963715 100.000000 -0.316228 0.000000 0.948683 224 200 39 255
-100.000000 32.963715 80.000000 -0.316228 0.000000 0.948683 224 200 39 255
-100.000000 0.000000 20.000000 0.000000 -0.000000 -1.000000 224 200 39 255
-120.000000 0.000000 20.000000 0.000000 -0.000000 -1.000000 224 200 39 255
-120.000000 32.963715 20.000000 0.000000 -0.000000 -1.000000 224 200 39 255
-100.000000 32.963715 20.000000 0.000000 -0.000000 -1.000000 224 200 39 255
100.000000 0.000000 80.000000 0.707107 0.000000 0.707107 224 200 39 255
120.000000 0.000000 60.000000 0.707107 0.000000 0.707107 224 200 39 255
120.000000 32.963715 60.000000 0.707107 0.000000 0.707107 224 200 39 255
100.000000 27.886314 80.000000 0.707107 0.000000 0.707107 224 200 39 255
100.000000 0.000000 20.000000 0.316228 0.000000 -0.948683 224 200 39 255
40.000000 0.000000 0.000000 0.316228 0.000000 -0.948683 224 200 39 255
40.000000 32.963715 0.000000 0.316228 0.000000 -0.948683 224 200 39 255
100.000000 32.963715 20.000000 0.316228 0.000000 -0.948683 224 200 39 255
-100.000000 77.787247 20.000000 -0.316228 0.000000 -0.948683 224 200 39 255
-40.000000 81.087555 0.000000 -0.316228 0.000000 -0.948683 224 200 39 255
120.000000 77.787247 20.000000 1.000000 0.000000 0.000000 224 200 39 255
120.000000 71.186623 60.000000 1.000000 0.000000 0.000000 224 200 39 255
-40.000000 64.586006 100.000000 -0.316228 0.000000 0.948683 224 200 39 255
-100.000000 67.886314 80.000000 -0.316228 0.000000 0.948683 224 200 39 255
-120.000000 77.787247 20.000000 0.000000 -0.000000 -1.000000 224 200 39 255
-100.000000 77.787247 20.000000 0.000000 -0.000000 -1.000000 224 200 39 255
120.000000 71.186623 60.000000 0.707107 0.000000 0.707107 224 200 39 255
100.000000 67.886314 80.000000 0.707107 0.000000 0.707107 224 200 39 255
40.000000 81.087555 0.000000 0.316228 0.000000 -0.948683 224 200 39 255
100.000000 77.787247 20.000000 0.316228 0.000000 -0.948683 224 200 39 255
-120.000000 71.186623 60.000000 -1.000000 -0.000000 0.000000 224 200 39 255
-120.000000 77.787247 20.000000 -1.000000 -0.000000 0.000000 224 200 39 255
100.000000 67.886314 80.000000 0.316228 0.000000 0.948683 224 200 39 255
40.000000 64.586006 100.000000 0.316228 0.000000 0.948683 224 200 39 255
-40.000000 81.087555 0.000000 0.000000 -0.000000 -1.000000 224 200 39 255
40.000000 81.087555 0.000000 0.000000 -0.000000 -1.000000 224 200 39 255
100.000000 77.787247 20.000000 0.000000 -0.000000 -1.000000 224 200 39 255
120.000000 77.787247 20.000000 0.000000 -0.000000 -1.000000 224 200 39 255
-100.000000 67.886314 80.000000 -0.707107 0.000000 0.707107 224 200 39 255
-120.000000 71.186623 60.000000 -0.707107 0.000000 0.707107 224 200 39 255
40.000000 64.586006 100.000000 0.000000 0.000000 1.000000 224 200 39 255
-40.000000 64.586006 100.000000 0.000000 0.000000 1.000000 224 200 39 255
-40.000000 64.586006 100.000000 0.000000 -0.322863 0.946446 224 200 39 255
40.000000 64.586006 100.000000 0.000000 -0.322863 0.946446 224 200 39 255
35.285450 121.578583 119.441986 0.000000 -0.322863 0.946446 224 200 39 255
-35.285450 121.578583 119.441986 0.000000 -0.322863 0.946446 224 200 39 255
-40.000000 81.087555 0.000000 -0.293715 0.300858 -0.907312 224 200 39 255
-100.000000 77.787247 20.000000 -0.293715 0.300858 -0.907312 224 200 39 255
-105.856354 156.899826 46.457855 -0.293715 0.300858 -0.907312 224 200 39 255
-35.285450 165.730133 28.211823 -0.293715 0.300858 -0.907312 224 200 39 255
120.000000 71.186623 60.000000 0.983796 0.170902 0.054205 224 200 39 255
120.000000 77.787247 20.000000 0.983796 0.170902 0.054205 224 200 39 255
105.856354 156.899826 46.457855 0.983796 0.170902 0.054205 224 200 39 255
105.856354 139.239212 82.949921 0.983796 0.170902 0.054205 224 200 39 255
-100.000000 67.886314 80.000000 -0.334699 -0.261607 0.905284 224 200 39 255
-40.000000 64.586006 100.000000 -0.334699 -0.261607 0.905284 224 200 39 255
-35.285450 121.578583 119.441986 -0.334699 -0.261607 0.905284 224 200 39 255
-88.213631 130.408875 101.195946 -0.334699 -0.261607 0.905284 224 200 39 255
-100.000000 77.787247 20.000000 0.000000 0.317166 -0.948370 224 200 39 255
-120.000000 77.787247 20.000000 0.000000 0.317166 -0.948370 224 200 39 255
-105.856354 156.899826 46.457855 0.000000 0.317166 -0.948370 224 200 39 255
100.000000 67.886314 80.000000 0.723725 -0.087699 0.684493 224 200 39 255
120.000000 71.186623 60.000000 0.723725 -0.087699 0.684493 224 200 39 255
105.856354 139.239212 82.949921 0.723725 -0.087699 0.684493 224 200 39 255
88.213631 130.408875 101.195946 0.723725 -0.087699 0.684493 224 200 39 255
100.000000 77.787247 20.000000 0.293715 0.300858 -0.907312 224 200 39 255
40.000000 81.087555 0.000000 0.293715 0.300858 -0.907312 224 200 39 255
35.285450 165.730133 28.211823 0.293715 0.300858 -0.907312 224 200 39 255
105.856354 156.899826 46.457855 0.293715 0.300858 -0.907312 224 200 39 255
-120.000000 77.787247 20.000000 -0.983796 0.170902 0.054205 224 200 39 255
-120.000000 71.186623 60.000000 -0.983796 0.170902 0.054205 224 200 39 255
-105.856354 139.239212 82.949921 -0.983796 0.170902 0.054205 224 200 39 255
-105.856354 156.899826 46.457855 -0.983796 0.170902 0.054205 224 200 39 255
40.000000 64.586006 100.000000 0.334699 -0.261607 0.905284 224 200 39 255
100.000000 67.886314 80.000000 0.334699 -0.261607 0.905284 224 200 39 255
88.213631 130.408875 101.195946 0.334699 -0.261607 0.905284 224 200 39 255
35.285450 121.578583 119.441986 0.334699 -0.261607 0.905284 224 200 39 255
40.000000 81.087555 0.000000 0.000000 0.316204 -0.948691 224 200 39 255
-40.000000 81.087555 0.000000 0.000000 0.316204 -0.948691 224 200 39 255
-35.285450 165.730133 28.211823 0.000000 0.316204 -0.948691 224 200 39 255
35.285450 165.730133 28.211823 0.000000 0.316204 -0.948691 224 200 39 255
120.000000 77.787247 20.000000 0.000000 0.317166 -0.948370 224 200 39 255
100.000000 77.787247 20.000000 0.000000 0.317166 -0.948370 224 200 39 255
105.856354 156.899826 46.457855 0.000000 0.317166 -0.948370 224 200 39 255
-120.000000 71.186623 60.000000 -0.723725 -0.087699 0.684493 224 200 39 255
-100.000000 67.886314 80.000000 -0.723725 -0.087699 0.684493 224 200 39 255
-88.213631 130.408875 101.195946 -0.723725 -0.087699 0.684493 224 200 39 255
-105.856354 139.239212 82.949921 -0.723725 -0.087699 0.684493 224 200 39 255
-105.856354 139.239212 82.949921 -0.723874 0.003129 0.689925 224 200 39 255
-88.213631 130.408875 101.195946 -0.723874 0.003129 0.689925 224 200 39 255
-66.347008 163.841522 124.291832 -0.723874 0.003129 0.689925 224 200 39 255
-79.616402 178.215744 109.999397 -0.723874 0.003129 0.689925 224 200 39 255
-35.285450 121.578583 119.441986 0.000000 -0.565902 0.824472 224 200 39 255
35.285450 121.578583 119.441986 0.000000 -0.565902 0.824472 224 200 39 255
26.538801 149.467316 138.584290 0.000000 -0.565902 0.824472 224 200 39 255
-26.538801 149.467316 138.584290 0.000000 -0.565902 0.824472 224 200 39 255
-35.285450 165.730133 28.211823 -0.306699 0.611434 -0.729441 224 200 39 255
-105.856354 156.899826 46.457855 -0.306699 0.611434 -0.729441 224 200 39 255
-79.616402 206.964172 81.414505 -0.306699 0.611434 -0.729441 224 200 39 255
-26.538801 221.338409 67.122070 -0.306699 0.611434 -0.729441 224 200 39 255
105.856354 139.239212 82.949921 0.900220 0.354521 0.252823 224 200 39 255
105.856354 156.899826 46.457855 0.900220 0.354521 0.252823 224 200 39 255
79.616402 206.964172 81.414505 0.900220 0.354521 0.252823 224 200 39 255
79.616402 178.215744 109.999397 0.900220 0.354521 0.252823 224 200 39 255
-88.213631 130.408875 101.195946 -0.389660 -0.382521 0.837760 224 200 39 255
-35.285450 121.578583 119.441986 -0.389660 -0.382521 0.837760 224 200 39 255
-26.538801 149.467316 138.584290 -0.389660 -0.382521 0.837760 224 200 39 255
-66.347008 163.841522 124.291832 -0.389660 -0.382521 0.837760 224 200 39 255
-79.616402 178.215744 109.999397 -0.824780 -0.110837 0.554485 224 200 39 255
-66.347008 163.841522 124.291832 -0.824780 -0.110837 0.554485 224 200 39 255
-49.055279 238.713135 167.551086 -0.824780 -0.110837 0.554485 224 200 39 255
-58.866329 253.087341 153.258667 -0.824780 -0.110837 0.554485 224 200 39 255
88.213631 130.408875 101.195946 0.723874 0.003129 0.689925 224 200 39 255
105.856354 139.239212 82.949921 0.723874 0.003129 0.689925 224 200 39 255
79.616402 178.215744 109.999397 0.723874 0.003129 0.689925 224 200 39 255
66.347008 163.841522 124.291832 0.723874 0.003129 0.689925 224 200 39 255
105.856354 156.899826 46.457855 0.306699 0.611434 -0.729441 224 200 39 255
35.285450 165.730133 28.211823 0.306699 0.611434 -0.729441 224 200 39 255
26.538801 221.338409 67.122070 0.306699 0.611434 -0.729441 224 200 39 255
79.616402 206.964172 81.414505 0.306699 0.611434 -0.729441 224 200 39 255
-105.856354 156.899826 46.457855 -0.900220 0.354521 0.252823 224 200 39 255
-105.856354 139.239212 82.949921 -0.900220 0.354521 0.252823 224 200 39 255
-79.616402 178.215744 109.999397 -0.900220 0.354521 0.252823 224 200 39 255
-79.616402 206.964172 81.414505 -0.900220 0.354521 0.252823 224 200 39 255
35.285450 121.578583 119.441986 0.389660 -0.382521 0.837760 224 200 39 255
88.213631 130.408875 101.195946 0.389660 -0.382521 0.837760 224 200 39 255
66.347008 163.841522 124.291832 0.389660 -0.382521 0.837760 224 200 39 255
26.538801 149.467316 138.584290 0.389660 -0.382521 0.837760 224 200 39 255
35.285450 165.730133 28.211823 0.000000 0.573309 -0.819339 224 200 39 255
-35.285450 165.730133 28.211823 0.000000 0.573309 -0.819339 224 200 39 255
-26.538801 221.338409 67.122070 0.000000 0.573309 -0.819339 224 200 39 255
26.538801 221.338409 67.122070 0.000000 0.573309 -0.819339 224 200 39 255
-26.538801 149.467316 138.584290 0.000000 -0.500279 0.865865 224 200 39 255
26.538801 149.467316 138.584290 0.000000 -0.500279 0.865865 224 200 39 255
19.622110 224.338928 181.843552 0.000000 -0.500279 0.865865 224 200 39 255
-19.622110 224.338928 181.843552 0.000000 -0.500279 0.865865 224 200 39 255
-19.622110 224.338928 181.843552 0.000000 -0.729024 0.684488 224 200 39 255
19.622110 224.338928 181.843552 0.000000 -0.729024 0.684488 224 200 39 255
26.947739 265.640228 225.832138 0.000000 -0.729024 0.684488 224 200 39 255
-26.947741 265.640228 225.832138 0.000000 -0.729024 0.684488 224 200 39 255
49.055279 238.713135 167.551086 0.876990 -0.459784 0.139596 224 200 39 255
58.866329 253.087341 153.258667 0.876990 -0.459784 0.139596 224 200 39 255
80.843216 305.121429 186.575500 0.876990 -0.459784 0.139596 224 200 39 255
67.369354 285.380798 206.203781 0.876990 -0.459784 0.139596 224 200 39 255
66.347008 163.841522 124.291832 0.824780 -0.110837 0.554485 224 200 39 255
79.616402 178.215744 109.999397 0.824780 -0.110837 0.554485 224 200 39 255
58.866329 253.087341 153.258667 0.824780 -0.110837 0.554485 224 200 39 255
49.055279 238.713135 167.551086 0.824780 -0.110837 0.554485 224 200 39 255
79.616402 178.215744 109.999397 0.970461 0.170108 0.171081 224 200 39 255
79.616402 206.964172 81.414505 0.970461 0.170108 0.171081 224 200 39 255
58.866329 281.835785 124.673767 0.970461 0.170108 0.171081 224 200 39 255
58.866329 253.087341 153.258667 0.970461 0.170108 0.171081 224 200 39 255
58.866329 253.087341 153.258667 0.939571 -0.241390 -0.242771 224 200 39 255
58.866329 281.835785 124.673767 0.939571 -0.241390 -0.242771 224 200 39 255
80.843216 344.602692 147.318848 0.939571 -0.241390 -0.242771 224 200 39 255
80.843216 305.121429 186.575500 0.939571 -0.241390 -0.242771 224 200 39 255
-66.347008 163.841522 124.291832 -0.483038 -0.378189 0.789713 224 200 39 255
-26.538801 149.467316 138.584290 -0.483038 -0.378189 0.789713 224 200 39 255
-19.622110 224.338928 181.843552 -0.483038 -0.378189 0.789713 224 200 39 255
-49.055279 238.713135 167.551086 -0.483038 -0.378189 0.789713 224 200 39 255
26.538801 221.338409 67.122070 0.000000 0.500279 -0.865865 224 200 39 255
-26.538801 221.338409 67.122070 0.000000 0.500279 -0.865865 224 200 39 255
-19.622110 296.210022 110.381332 0.000000 0.500279 -0.865865 224 200 39 255
19.622110 296.210022 110.381332 0.000000 0.500279 -0.865865 224 200 39 255
-79.616402 206.964172 81.414505 -0.970461 0.170108 0.171081 224 200 39 255
-79.616402 178.215744 109.999397 -0.970461 0.170108 0.171081 224 200 39 255
-58.866329 253.087341 153.258667 -0.970461 0.170108 0.171081 224 200 39 255
-58.866329 281.835785 124.673767 -0.970461 0.170108 0.171081 224 200 39 255
-58.866329 253.087341 153.258667 -0.876990 -0.459784 0.139596 224 200 39 255
-49.055279 238.713135 167.551086 -0.876990 -0.459784 0.139596 224 200 39 255
-67.369354 285.380798 206.203781 -0.876990 -0.459784 0.139596 224 200 39 255
-80.843216 305.121429 186.575500 -0.876990 -0.459784 0.139596 224 200 39 255
26.538801 149.467316 138.584290 0.483038 -0.378189 0.789713 224 200 39 255
66.347008 163.841522 124.291832 0.483038 -0.378189 0.789713 224 200 39 255
49.055279 238.713135 167.551086 0.483038 -0.378189 0.789713 224 200 39 255
19.622110 224.338928 181.843552 0.483038 -0.378189 0.789713 224 200 39 255
79.616402 206.964172 81.414505 0.395627 0.513171 -0.761666 224 200 39 255
26.538801 221.338409 67.122070 0.395627 0.513171 -0.761666 224 200 39 255
19.622110 296.210022 110.381332 0.395627 0.513171 -0.761666 224 200 39 255
58.866329 281.835785 124.673767 0.395627 0.513171 -0.761666 224 200 39 255
-26.538801 221.338409 67.122070 -0.395627 0.513171 -0.761666 224 200 39 255
-79.616402 206.964172 81.414505 -0.395627 0.513171 -0.761666 224 200 39 255
-58.866329 281.835785 124.673767 -0.395627 0.513171 -0.761666 224 200 39 255
-19.622110 296.210022 110.381332 -0.395627 0.513171 -0.761666 224 200 39 255
19.622110 296.210022 110.381332 0.000000 0.246228 -0.969212 224 200 39 255
-19.622110 296.210022 110.381332 0.000000 0.246228 -0.969212 224 200 39 255
-26.947741 364.343323 127.690544 0.000000 0.246228 -0.969212 224 200 39 255
26.947739 364.343323 127.690544 0.000000 0.246228 -0.969212 224 200 39 255
-58.866329 281.835785 124.673767 -0.939571 -0.241390 -0.242771 224 200 39 255
-58.866329 253.087341 153.258667 -0.939571 -0.241390 -0.242771 224 200 39 255
-80.843216 305.121429 186.575500 -0.939571 -0.241390 -0.242771 224 200 39 255
-80.843216 344.602692 147.318848 -0.939571 -0.241390 -0.242771 224 200 39 255
58.866329 281.835785 124.673767 0.395654 0.185946 -0.899379 224 200 39 255
19.622110 296.210022 110.381332 0.395654 0.185946 -0.899379 224 200 39 255
26.947739 364.343323 127.690544 0.395654 0.185946 -0.899379 224 200 39 255
80.843216 344.602692 147.318848 0.395654 0.185946 -0.899379 224 200 39 255
-19.622110 296.210022 110.381332 -0.395654 0.185946 -0.899379 224 200 39 255
-58.866329 281.835785 124.673767 -0.395654 0.185946 -0.899379 224 200 39 255
-80.843216 344.602692 147.318848 -0.395654 0.185946 -0.899379 224 200 39 255
-26.947741 364.343323 127.690544 -0.395654 0.185946 -0.899379 224 200 39 255
19.622110 224.338928 181.843552 0.564786 -0.646473 0.512923 224 200 39 255
49.055279 238.713135 167.551086 0.564786 -0.646473 0.512923 224 200 39 255
67.369354 285.380798 206.203781 0.564786 -0.646473 0.512923 224 200 39 255
26.947739 265.640228 225.832138 0.564786 -0.646473 0.512923 224 200 39 255
-49.055279 238.713135 167.551086 -0.564786 -0.646473 0.512923 224 200 39 255
-19.622110 224.338928 181.843552 -0.564786 -0.646473 0.512923 224 200 39 255
-26.947741 265.640228 225.832138 -0.564786 -0.646473 0.512923 224 200 39 255
-67.369354 285.380798 206.203781 -0.564786 -0.646473 0.512923 224 200 39 255
-114.613258 416.078064 128.259201 0.000000 -0.819152 -0.573576 0 179 255 255
114.613258 416.078064 128.259201 0.000000 -0.819152 -0.573576 0 179 255 255
114.613258 315.464172 271.950714 0.000000 -0.819152 -0.573576 0 179 255 255
-114.613258 315.464172 271.950714 0.000000 -0.819152 -0.573576 0 179 255 255
4 0 1 2 3
4 4 5 6 7
4 8 9 10 11
4 12 13 14 15
4 16 17 18 19
4 20 21 22 23
4 24 25 26 27
4 28 29 30 31
4 32 33 34 35
4 36 37 38 39
4 40 41 42 43
4 44 45 46 47
4 27 26 48 49
4 31 30 50 51
4 35 34 52 53
4 39 38 54 55
4 43 42 56 57
4 47 46 58 59
4 3 2 60 61
4 7 6 62 63
4 11 10 64 65
4 15 14 66 67
4 19 18 68 69
4 23 22 70 71
4 72 73 74 75
4 76 77 78 79
4 80 81 82 83
4 84 85 86 87
3 88 89 90
4 91 92 93 94
4 95 96 97 98
4 99 100 101 102
4 103 104 105 106
4 107 108 109 110
3 111 112 113
4 114 115 116 117
4 118 119 120 121
4 122 123 124 125
4 126 127 128 129
4 130 131 132 133
4 134 135 136 137
4 138 139 140 141
4 142 143 144 145
4 146 147 148 149
4 150 151 152 153
4 154 155 156 157
4 158 159 160 161
4 162 163 164 165
4 166 167 168 169
4 170 171 172 173
4 174 175 176 177
4 178 179 180 181
4 182 183 184 185
4 186 187 188 189
4 190 191 192 193
4 194 195 196 197
4 198 199 200 201
4 202 203 204 205
4 206 207 208 209
4 210 211 212 213
4 214 215 216 217
4 218 219 220 221
4 222 223 224 225
4 226 227 228 229
4 230 231 232 233
4 234 235 236 237
4 238 239 240 241
