ply
format ascii 1.0
comment Created by Blender 3.0.0 - www.blender.org
element vertex 336
property float x
property float y
property float z
property float nx
property float ny
property float nz
property uchar red
property uchar green
property uchar blue
property uchar alpha
element face 84
property list uchar uint vertex_indices
end_header
-400.000000 1.000000 80.000000 0.000000 0.000000 1.000000 146 0 0 255
-120.000000 1.000000 80.000000 0.000000 0.000000 1.000000 146 0 0 255
-120.000000 401.000000 80.000000 0.000000 0.000000 1.000000 146 0 0 255
-800.000000 401.000000 80.000000 0.000000 0.000000 1.000000 146 0 0 255
120.000000 1.000000 80.000000 0.000000 0.000000 1.000000 146 0 0 255
400.000000 1.000000 80.000000 0.000000 0.000000 1.000000 146 0 0 255
800.000000 401.000000 80.000000 0.000000 0.000000 1.000000 146 0 0 255
120.000000 401.000000 80.000000 0.000000 0.000000 1.000000 146 0 0 255
-80.000000 1.000000 0.000000 0.000000 0.000000 1.000000 255 0 0 255
80.000000 1.000000 0.000000 0.000000 0.000000 1.000000 255 0 0 255
80.000000 401.000000 0.000000 0.000000 0.000000 1.000000 255 0 0 255
-80.000000 401.000000 0.000000 0.000000 0.000000 1.000000 255 0 0 255
-120.000000 1.000000 80.000000 0.894427 0.000000 0.447214 146 0 0 255
-80.000000 1.000000 0.000000 0.894427 0.000000 0.447214 146 0 0 255
-80.000000 401.000000 0.000000 0.894427 0.000000 0.447214 146 0 0 255
-120.000000 401.000000 80.000000 0.894427 0.000000 0.447214 146 0 0 255
80.000000 1.000000 0.000000 -0.894427 0.000000 0.447214 146 0 0 255
120.000000 1.000000 80.000000 -0.894427 0.000000 0.447214 146 0 0 255
120.000000 401.000000 80.000000 -0.894427 0.000000 0.447214 146 0 0 255
80.000000 401.000000 0.000000 -0.894427 0.000000 0.447214 146 0 0 255
-800.000000 401.000000 80.000000 0.000000 -0.105848 0.994382 146 0 0 255
-120.000000 401.000000 80.000000 0.000000 -0.105848 0.994382 146 0 0 255
-240.000000 1001.000000 143.867706 0.000000 -0.105848 0.994382 146 0 0 255
-1794.156738 1001.000000 143.867706 0.000000 -0.105848 0.994382 146 0 0 255
120.000000 401.000000 80.000000 0.000000 -0.105848 0.994382 146 0 0 255
800.000000 401.000000 80.000000 0.000000 -0.105848 0.994382 146 0 0 255
1794.156738 1001.000000 143.867706 0.000000 -0.105848 0.994382 146 0 0 255
240.000000 1001.000000 143.867706 0.000000 -0.105848 0.994382 146 0 0 255
-80.000000 401.000000 0.000000 0.000000 -0.105848 0.994382 255 0 0 255
80.000000 401.000000 0.000000 0.000000 -0.105848 0.994382 255 0 0 255
166.946136 1001.000000 63.867706 0.000000 -0.105848 0.994382 255 0 0 255
-166.946136 1001.000000 63.867706 0.000000 -0.105848 0.994382 255 0 0 255
-120.000000 401.000000 80.000000 0.814133 0.079168 0.575256 146 0 0 255
-80.000000 401.000000 0.000000 0.814133 0.079168 0.575256 146 0 0 255
-166.946136 1001.000000 63.867706 0.814133 0.079168 0.575256 146 0 0 255
-240.000000 1001.000000 143.867706 0.814133 0.079168 0.575256 146 0 0 255
80.000000 401.000000 0.000000 -0.814133 0.079168 0.575256 146 0 0 255
120.000000 401.000000 80.000000 -0.814133 0.079168 0.575256 146 0 0 255
240.000000 1001.000000 143.867706 -0.814133 0.079168 0.575256 146 0 0 255
166.946136 1001.000000 63.867706 -0.814133 0.079168 0.575256 146 0 0 255
-1794.156738 1001.000000 143.867706 0.000000 -0.221264 0.975214 146 0 0 255
-240.000000 1001.000000 143.867706 0.000000 -0.221264 0.975214 146 0 0 255
-360.000000 1601.000000 280.000000 0.000000 -0.221264 0.975214 146 0 0 255
-2563.081055 1601.000000 280.000000 0.000000 -0.221264 0.975214 146 0 0 255
240.000000 1001.000000 143.867706 0.000000 -0.221264 0.975214 146 0 0 255
1794.156738 1001.000000 143.867706 0.000000 -0.221264 0.975214 146 0 0 255
2563.081055 1601.000000 280.000000 0.000000 -0.221264 0.975214 146 0 0 255
360.000000 1601.000000 280.000000 0.000000 -0.221264 0.975214 146 0 0 255
-166.946136 1001.000000 63.867706 0.000000 -0.221264 0.975214 255 0 0 255
166.946136 1001.000000 63.867706 0.000000 -0.221264 0.975214 255 0 0 255
267.113831 1601.000000 200.000000 0.000000 -0.221264 0.975214 255 0 0 255
-267.113831 1601.000000 200.000000 0.000000 -0.221264 0.975214 255 0 0 255
-240.000000 1001.000000 143.867706 0.693656 -0.035957 0.719408 146 0 0 255
-166.946136 1001.000000 63.867706 0.693656 -0.035957 0.719408 146 0 0 255
-267.113831 1601.000000 200.000000 0.693656 -0.035957 0.719408 146 0 0 255
-360.000000 1601.000000 280.000000 0.693656 -0.035957 0.719408 146 0 0 255
166.946136 1001.000000 63.867706 -0.693656 -0.035957 0.719408 146 0 0 255
240.000000 1001.000000 143.867706 -0.693656 -0.035957 0.719408 146 0 0 255
360.000000 1601.000000 280.000000 -0.693656 -0.035957 0.719408 146 0 0 255
267.113831 1601.000000 200.000000 -0.693656 -0.035957 0.719408 146 0 0 255
-360.000000 1601.000000 280.000000 0.523999 -0.496396 0.692109 146 0 0 255
-267.113831 1601.000000 200.000000 0.523999 -0.496396 0.692109 146 0 0 255
-326.101501 1820.904175 412.055328 0.523999 -0.496396 0.692109 146 0 0 255
-414.666718 1740.904175 412.055328 0.523999 -0.496396 0.692109 146 0 0 255
267.113831 1601.000000 200.000000 -0.523999 -0.496396 0.692109 146 0 0 255
360.000000 1601.000000 280.000000 -0.523999 -0.496396 0.692109 146 0 0 255
414.666718 1740.904175 412.055328 -0.523999 -0.496396 0.692109 146 0 0 255
326.101501 1820.904175 412.055328 -0.523999 -0.496396 0.692109 146 0 0 255
-2563.081055 1601.000000 280.000000 0.000000 -0.686414 0.727211 146 0 0 255
-360.000000 1601.000000 280.000000 0.000000 -0.686414 0.727211 146 0 0 255
-414.666718 1740.904175 412.055328 0.000000 -0.686414 0.727211 146 0 0 255
-2273.333496 1740.904175 412.055328 0.000000 -0.686414 0.727211 146 0 0 255
360.000000 1601.000000 280.000000 0.000000 -0.686414 0.727211 146 0 0 255
2563.081055 1601.000000 280.000000 0.000000 -0.686414 0.727211 146 0 0 255
2273.333496 1740.904175 412.055328 0.000000 -0.686414 0.727211 146 0 0 255
414.666718 1740.904175 412.055328 0.000000 -0.686414 0.727211 146 0 0 255
-267.113831 1601.000000 200.000000 0.000000 -0.694144 0.719836 255 0 0 255
267.113831 1601.000000 200.000000 0.000000 -0.694144 0.719836 255 0 0 255
326.101501 1820.904175 412.055328 0.000000 -0.694144 0.719836 255 0 0 255
-326.101501 1820.904175 412.055328 0.000000 -0.694144 0.719836 255 0 0 255
-414.666718 1740.904175 412.055328 0.670312 -0.742079 0.000000 146 0 0 255
-326.101501 1820.904175 412.055328 0.670312 -0.742079 0.000000 146 0 0 255
-326.101501 1820.904175 1012.055298 0.670312 -0.742079 0.000000 146 0 0 255
-414.666718 1740.904175 1012.055298 0.670312 -0.742079 0.000000 146 0 0 255
326.101501 1820.904175 412.055328 -0.670312 -0.742079 0.000000 146 0 0 255
414.666718 1740.904175 412.055328 -0.670312 -0.742079 0.000000 146 0 0 255
414.666718 1740.904175 1012.055298 -0.670312 -0.742079 0.000000 146 0 0 255
326.101501 1820.904175 1012.055298 -0.670312 -0.742079 0.000000 146 0 0 255
-2273.333496 1740.904175 412.055328 0.000000 -1.000000 -0.000000 146 0 0 255
-414.666718 1740.904175 412.055328 0.000000 -1.000000 -0.000000 146 0 0 255
-414.666718 1740.904175 1012.055298 0.000000 -1.000000 -0.000000 146 0 0 255
-2273.333496 1740.904175 1012.055298 0.000000 -1.000000 -0.000000 146 0 0 255
414.666718 1740.904175 412.055328 0.000000 -1.000000 -0.000000 146 0 0 255
2273.333496 1740.904175 412.055328 0.000000 -1.000000 -0.000000 146 0 0 255
2273.333496 1740.904175 1012.055298 0.000000 -1.000000 -0.000000 146 0 0 255
414.666718 1740.904175 1012.055298 0.000000 -1.000000 -0.000000 146 0 0 255
-326.101501 1820.904175 412.055328 0.000000 -1.000000 -0.000000 255 0 0 255
326.101501 1820.904175 412.055328 0.000000 -1.000000 -0.000000 255 0 0 255
326.101501 1820.904175 1012.055298 0.000000 -1.000000 -0.000000 255 0 0 255
-326.101501 1820.904175 1012.055298 0.000000 -1.000000 -0.000000 255 0 0 255
-414.666718 1740.904175 1012.055298 0.482296 -0.558632 0.674774 146 0 0 255
-326.101501 1820.904175 1012.055298 0.482296 -0.558632 0.674774 146 0 0 255
-383.976196 1987.049316 1193.897949 0.482296 -0.558632 0.674774 146 0 0 255
-500.000092 1987.049316 1273.897949 0.482296 -0.558632 0.674774 146 0 0 255
326.101501 1820.904175 1012.055298 -0.482296 -0.558632 0.674774 146 0 0 255
414.666718 1740.904175 1012.055298 -0.482296 -0.558632 0.674774 146 0 0 255
500.000092 1987.049316 1273.897949 -0.482296 -0.558632 0.674774 146 0 0 255
383.976196 1987.049316 1193.897949 -0.482296 -0.558632 0.674774 146 0 0 255
-2273.333496 1740.904175 1012.055298 0.000000 -0.728610 0.684929 146 0 0 255
-414.666718 1740.904175 1012.055298 0.000000 -0.728610 0.684929 146 0 0 255
-500.000092 1987.049316 1273.897949 0.000000 -0.728610 0.684929 146 0 0 255
-2700.000488 1987.049316 1273.897949 0.000000 -0.728610 0.684929 146 0 0 255
414.666718 1740.904175 1012.055298 0.000000 -0.728610 0.684929 146 0 0 255
2273.333496 1740.904175 1012.055298 0.000000 -0.728610 0.684929 146 0 0 255
2700.000488 1987.049316 1273.897949 0.000000 -0.728610 0.684929 146 0 0 255
500.000092 1987.049316 1273.897949 0.000000 -0.728610 0.684929 146 0 0 255
-326.101501 1820.904175 1012.055298 0.000000 -0.738253 0.674524 255 0 0 255
326.101501 1820.904175 1012.055298 0.000000 -0.738253 0.674524 255 0 0 255
383.976196 1987.049316 1193.897949 0.000000 -0.738253 0.674524 255 0 0 255
-383.976196 1987.049316 1193.897949 0.000000 -0.738253 0.674524 255 0 0 255
-500.000092 1987.049316 1273.897949 0.538592 0.098817 0.836752 146 0 0 255
-383.976196 1987.049316 1193.897949 0.538592 0.098817 0.836752 146 0 0 255
-467.449280 2487.049316 1193.897949 0.538592 0.098817 0.836752 146 0 0 255
-600.000122 2487.049316 1273.897949 0.538592 0.098817 0.836752 146 0 0 255
383.976196 1987.049316 1193.897949 -0.538592 0.098817 0.836752 146 0 0 255
500.000092 1987.049316 1273.897949 -0.538592 0.098817 0.836752 146 0 0 255
600.000122 2487.049316 1273.897949 -0.538592 0.098817 0.836752 146 0 0 255
467.449280 2487.049316 1193.897949 -0.538592 0.098817 0.836752 146 0 0 255
-2700.000488 1987.049316 1273.897949 0.000000 0.000000 1.000000 146 0 0 255
-500.000092 1987.049316 1273.897949 0.000000 0.000000 1.000000 146 0 0 255
-600.000122 2487.049316 1273.897949 0.000000 0.000000 1.000000 146 0 0 255
-3200.000488 2487.049316 1273.897949 0.000000 0.000000 1.000000 146 0 0 255
500.000092 1987.049316 1273.897949 0.000000 0.000000 1.000000 146 0 0 255
2700.000488 1987.049316 1273.897949 0.000000 0.000000 1.000000 146 0 0 255
3200.000488 2487.049316 1273.897949 0.000000 0.000000 1.000000 146 0 0 255
600.000122 2487.049316 1273.897949 0.000000 0.000000 1.000000 146 0 0 255
-383.976196 1987.049316 1193.897949 0.000000 0.000000 1.000000 255 0 0 255
383.976196 1987.049316 1193.897949 0.000000 0.000000 1.000000 255 0 0 255
467.449280 2487.049316 1193.897949 0.000000 0.000000 1.000000 255 0 0 255
-467.449280 2487.049316 1193.897949 0.000000 0.000000 1.000000 255 0 0 255
649.021606 1636.166260 783.073608 -0.858280 -0.061968 -0.509426 59 0 0 255
607.828003 1501.760498 868.826172 -0.858280 -0.061968 -0.509426 59 0 0 255
569.073853 1764.932739 902.105957 -0.858280 -0.061968 -0.509426 59 0 0 255
610.267517 1899.338257 816.353394 -0.858280 -0.061968 -0.509426 59 0 0 255
610.267517 1899.338257 816.353394 -0.636620 0.543913 0.546693 59 0 0 255
569.073853 1764.932739 902.105957 -0.636620 0.543913 0.546693 59 0 0 255
659.209473 1816.658569 955.605225 -0.636620 0.543913 0.546693 59 0 0 255
700.403137 1951.064331 869.852661 -0.636620 0.543913 0.546693 59 0 0 255
700.403137 1951.064331 869.852661 0.858280 0.061968 0.509426 59 0 0 255
659.209473 1816.658569 955.605225 0.858280 0.061968 0.509426 59 0 0 255
697.963623 1553.486572 922.325439 0.858280 0.061968 0.509426 59 0 0 255
739.157288 1687.892090 836.572876 0.858280 0.061968 0.509426 59 0 0 255
739.157288 1687.892090 836.572876 0.636620 -0.543913 -0.546693 59 0 0 255
697.963623 1553.486572 922.325439 0.636620 -0.543913 -0.546693 59 0 0 255
607.828003 1501.760498 868.826172 0.636620 -0.543913 -0.546693 59 0 0 255
649.021606 1636.166260 783.073608 0.636620 -0.543913 -0.546693 59 0 0 255
610.267517 1899.338257 816.353394 0.426325 0.175007 -0.887479 59 0 0 255
700.403137 1951.064331 869.852661 0.426325 0.175007 -0.887479 59 0 0 255
739.157288 1687.892090 836.572876 0.426325 0.175007 -0.887479 59 0 0 255
649.021606 1636.166260 783.073608 0.426325 0.175007 -0.887479 59 0 0 255
659.209473 1816.658569 955.605225 -0.426325 -0.175007 0.887479 59 0 0 255
569.073853 1764.932739 902.105957 -0.426325 -0.175007 0.887479 59 0 0 255
607.828003 1501.760498 868.826172 -0.426325 -0.175007 0.887479 59 0 0 255
697.963623 1553.486572 922.325439 -0.426325 -0.175007 0.887479 59 0 0 255
1429.163696 1578.632812 609.628418 -0.898880 -0.116780 0.422347 59 0 0 255
1480.727173 1504.776855 698.949097 -0.898880 -0.116780 0.422347 59 0 0 255
1463.195679 1779.793701 737.679810 -0.898880 -0.116780 0.422347 59 0 0 255
1411.632446 1853.649536 648.359009 -0.898880 -0.116780 0.422347 59 0 0 255
1411.632446 1853.649536 648.359009 -0.319830 0.631236 0.706576 59 0 0 255
1463.195679 1779.793701 737.679810 -0.319830 0.631236 0.706576 59 0 0 255
1554.612915 1874.192139 694.726562 -0.319830 0.631236 0.706576 59 0 0 255
1503.049683 1948.047974 605.405884 -0.319830 0.631236 0.706576 59 0 0 255
1503.049683 1948.047974 605.405884 0.898880 0.116780 -0.422348 59 0 0 255
1554.612915 1874.192139 694.726562 0.898880 0.116780 -0.422348 59 0 0 255
1572.144409 1599.175415 655.995850 0.898880 0.116780 -0.422348 59 0 0 255
1520.580933 1673.031250 566.675171 0.898880 0.116780 -0.422348 59 0 0 255
1520.580933 1673.031250 566.675171 0.319829 -0.631235 -0.706577 59 0 0 255
1572.144409 1599.175415 655.995850 0.319829 -0.631235 -0.706577 59 0 0 255
1480.727173 1504.776855 698.949097 0.319829 -0.631235 -0.706577 59 0 0 255
1429.163696 1578.632812 609.628418 0.319829 -0.631235 -0.706577 59 0 0 255
1411.632446 1853.649536 648.359009 -0.497939 0.089732 -0.862557 59 0 0 255
1503.049683 1948.047974 605.405884 -0.497939 0.089732 -0.862557 59 0 0 255
1520.580933 1673.031250 566.675171 -0.497939 0.089732 -0.862557 59 0 0 255
1429.163696 1578.632812 609.628418 -0.497939 0.089732 -0.862557 59 0 0 255
1554.612915 1874.192139 694.726562 0.497939 -0.089732 0.862557 59 0 0 255
1463.195679 1779.793701 737.679810 0.497939 -0.089732 0.862557 59 0 0 255
1480.727173 1504.776855 698.949097 0.497939 -0.089732 0.862557 59 0 0 255
1572.144409 1599.175415 655.995850 0.497939 -0.089732 0.862557 59 0 0 255
-672.474854 1678.742798 801.818848 -0.915919 0.098872 0.388994 59 0 0 255
-642.042725 1582.593628 897.912720 -0.915919 0.098872 0.388994 59 0 0 255
-603.285156 1855.003418 919.931030 -0.915919 0.098872 0.388994 59 0 0 255
-633.717285 1951.152466 823.837280 -0.915919 0.098872 0.388994 59 0 0 255
-633.717285 1951.152466 823.837280 0.689293 0.609534 0.391591 59 0 0 255
-603.285156 1855.003418 919.931030 0.689293 0.609534 0.391591 59 0 0 255
-508.972076 1774.082153 879.876099 0.689293 0.609534 0.391591 59 0 0 255
-539.404175 1870.231323 783.782227 0.689293 0.609534 0.391591 59 0 0 255
-539.404175 1870.231323 783.782227 0.915920 -0.098872 -0.388993 59 0 0 255
-508.972076 1774.082153 879.876099 0.915920 -0.098872 -0.388993 59 0 0 255
-547.729614 1501.672485 857.857666 0.915920 -0.098872 -0.388993 59 0 0 255
-578.161743 1597.821533 761.763794 0.915920 -0.098872 -0.388993 59 0 0 255
-578.161743 1597.821533 761.763794 -0.689293 -0.609534 -0.391591 59 0 0 255
-547.729614 1501.672485 857.857666 -0.689293 -0.609534 -0.391591 59 0 0 255
-642.042725 1582.593628 897.912720 -0.689293 -0.609534 -0.391591 59 0 0 255
-672.474854 1678.742798 801.818848 -0.689293 -0.609534 -0.391591 59 0 0 255
-633.717285 1951.152466 823.837280 -0.299762 0.119157 -0.946543 59 0 0 255
-539.404175 1870.231323 783.782227 -0.299762 0.119157 -0.946543 59 0 0 255
-578.161743 1597.821533 761.763794 -0.299762 0.119157 -0.946543 59 0 0 255
-672.474854 1678.742798 801.818848 -0.299762 0.119157 -0.946543 59 0 0 255
-508.972076 1774.082153 879.876099 0.299762 -0.119157 0.946543 59 0 0 255
-603.285156 1855.003418 919.931030 0.299762 -0.119157 0.946543 59 0 0 255
-642.042725 1582.593628 897.912720 0.299762 -0.119157 0.946543 59 0 0 255
-547.729614 1501.672485 857.857666 0.299762 -0.119157 0.946543 59 0 0 255
-1335.923218 1618.870483 585.687988 -0.949849 -0.308293 0.052366 59 0 0 255
-1283.041138 1468.755859 661.130615 -0.949849 -0.308293 0.052366 59 0 0 255
-1331.764771 1631.598755 736.050171 -0.949849 -0.308293 0.052366 59 0 0 255
-1384.646606 1781.713379 660.607544 -0.949849 -0.308293 0.052366 59 0 0 255
-1384.646606 1781.713379 660.607544 -0.531406 0.223452 0.817115 59 0 0 255
-1331.764771 1631.598755 736.050171 -0.531406 0.223452 0.817115 59 0 0 255
-1253.325317 1833.954346 731.725586 -0.531406 0.223452 0.817115 59 0 0 255
-1306.207397 1984.068970 656.282959 -0.531406 0.223452 0.817115 59 0 0 255
-1306.207397 1984.068970 656.282959 0.949849 0.308293 -0.052366 59 0 0 255
-1253.325317 1833.954346 731.725586 0.949849 0.308293 -0.052366 59 0 0 255
-1204.601685 1671.111450 656.806152 0.949849 0.308293 -0.052366 59 0 0 255
-1257.483765 1821.226074 581.363403 0.949849 0.308293 -0.052366 59 0 0 255
-1257.483765 1821.226074 581.363403 0.531406 -0.223452 -0.817115 59 0 0 255
-1204.601685 1671.111450 656.806152 0.531406 -0.223452 -0.817115 59 0 0 255
-1283.041138 1468.755859 661.130615 0.531406 -0.223452 -0.817115 59 0 0 255
-1335.923218 1618.870483 585.687988 0.531406 -0.223452 -0.817115 59 0 0 255
-1384.646606 1781.713379 660.607544 -0.562296 0.200820 -0.802181 59 0 0 255
-1306.207397 1984.068970 656.282959 -0.562296 0.200820 -0.802181 59 0 0 255
-1257.483765 1821.226074 581.363403 -0.562296 0.200820 -0.802181 59 0 0 255
-1335.923218 1618.870483 585.687988 -0.562296 0.200820 -0.802181 59 0 0 255
-1253.325317 1833.954346 731.725586 0.562294 -0.200820 0.802182 59 0 0 255
-1331.764771 1631.598755 736.050171 0.562294 -0.200820 0.802182 59 0 0 255
-1283.041138 1468.755859 661.130615 0.562294 -0.200820 0.802182 59 0 0 255
-1204.601685 1671.111450 656.806152 0.562294 -0.200820 0.802182 59 0 0 255
-3342.877441 2619.957764 1127.332275 0.000000 -0.998976 -0.045244 59 0 0 255
3342.877441 2619.957764 1127.332275 0.000000 -0.998976 -0.045244 59 0 0 255
3342.877441 2541.517822 2859.256348 0.000000 -0.998976 -0.045244 0 0 0 255
-3342.877441 2541.517822 2859.256348 0.000000 -0.998976 -0.045244 0 0 0 255
488.742920 1115.657959 140.646759 -0.982098 0.167706 0.085778 71 0 8 255
516.248230 1139.547974 408.854462 -0.982098 0.167706 0.085778 71 0 8 255
520.679382 1216.174805 309.773987 -0.982098 0.167706 0.085778 71 0 8 255
493.174133 1192.284912 41.566299 -0.982098 0.167706 0.085778 71 0 8 255
493.174133 1192.284912 41.566299 0.057474 0.993872 -0.094421 71 0 8 255
520.679382 1216.174805 309.773987 0.057474 0.993872 -0.094421 71 0 8 255
597.075928 1203.129150 218.957245 0.057474 0.993872 -0.094421 71 0 8 255
569.570618 1179.239136 -49.250458 0.057474 0.993872 -0.094421 71 0 8 255
569.570618 1179.239136 -49.250458 0.982098 -0.167706 -0.085778 71 0 8 255
597.075928 1203.129150 218.957245 0.982098 -0.167706 -0.085778 71 0 8 255
592.644714 1126.502197 318.037720 0.982098 -0.167706 -0.085778 71 0 8 255
565.139465 1102.612305 49.830002 0.982098 -0.167706 -0.085778 71 0 8 255
565.139465 1102.612305 49.830002 -0.057474 -0.993872 0.094421 71 0 8 255
592.644714 1126.502197 318.037720 -0.057474 -0.993872 0.094421 71 0 8 255
516.248230 1139.547974 408.854462 -0.057474 -0.993872 0.094421 71 0 8 255
488.742920 1115.657959 140.646759 -0.057474 -0.993872 0.094421 71 0 8 255
493.174133 1192.284912 41.566299 -0.664061 -0.576775 -0.475766 71 0 8 255
569.570618 1179.239136 -49.250458 -0.664061 -0.576775 -0.475766 71 0 8 255
565.139465 1102.612305 49.830002 -0.664061 -0.576775 -0.475766 71 0 8 255
488.742920 1115.657959 140.646759 -0.664061 -0.576775 -0.475766 71 0 8 255
597.075928 1203.129150 218.957245 0.664061 0.576776 0.475766 71 0 8 255
520.679382 1216.174805 309.773987 0.664061 0.576776 0.475766 71 0 8 255
516.248230 1139.547974 408.854462 0.664061 0.576776 0.475766 71 0 8 255
592.644714 1126.502197 318.037720 0.664061 0.576776 0.475766 71 0 8 255
-581.753723 1343.702515 27.206039 -0.834575 -0.550461 0.021824 71 0 8 255
-539.258545 1288.017212 247.735184 -0.834575 -0.550461 0.021824 71 0 8 255
-577.470520 1353.980225 450.236481 -0.834575 -0.550461 0.021824 71 0 8 255
-619.965698 1409.665649 229.707336 -0.834575 -0.550461 0.021824 71 0 8 255
-619.965698 1409.665649 229.707336 -0.478090 0.825298 0.300521 71 0 8 255
-577.470520 1353.980225 450.236481 -0.478090 0.825298 0.300521 71 0 8 255
-491.393402 1410.754272 431.259857 -0.478090 0.825298 0.300521 71 0 8 255
-533.888611 1466.439575 210.730713 -0.478090 0.825298 0.300521 71 0 8 255
-533.888611 1466.439575 210.730713 0.834575 0.550462 -0.021824 71 0 8 255
-491.393402 1410.754272 431.259857 0.834575 0.550462 -0.021824 71 0 8 255
-453.181396 1344.791138 228.758575 0.834575 0.550462 -0.021824 71 0 8 255
-495.676575 1400.476440 8.229431 0.834575 0.550462 -0.021824 71 0 8 255
-495.676575 1400.476440 8.229431 0.478090 -0.825299 -0.300520 71 0 8 255
-453.181396 1344.791138 228.758575 0.478090 -0.825299 -0.300520 71 0 8 255
-539.258545 1288.017212 247.735184 0.478090 -0.825299 -0.300520 71 0 8 255
-581.753723 1343.702515 27.206039 0.478090 -0.825299 -0.300520 71 0 8 255
-619.965698 1409.665649 229.707336 -0.568326 0.744730 -0.349833 71 0 8 255
-533.888611 1466.439575 210.730713 -0.568326 0.744730 -0.349833 71 0 8 255
-495.676575 1400.476440 8.229431 -0.568326 0.744730 -0.349833 71 0 8 255
-581.753723 1343.702515 27.206039 -0.568326 0.744730 -0.349833 71 0 8 255
-491.393402 1410.754272 431.259857 0.568326 -0.744730 0.349833 71 0 8 255
-577.470520 1353.980225 450.236481 0.568326 -0.744730 0.349833 71 0 8 255
-539.258545 1288.017212 247.735184 0.568326 -0.744730 0.349833 71 0 8 255
-453.181396 1344.791138 228.758575 0.568326 -0.744730 0.349833 71 0 8 255
-854.282654 616.730774 28.789436 -0.853010 0.518820 -0.056565 71 0 8 255
-842.407959 663.710938 280.622894 -0.853010 0.518820 -0.056565 71 0 8 255
-795.402405 724.307739 127.572479 -0.853010 0.518820 -0.056565 71 0 8 255
-807.277100 677.327515 -124.260986 -0.853010 0.518820 -0.056565 71 0 8 255
-807.277100 677.327515 -124.260986 0.603613 0.778142 -0.173627 71 0 8 255
-795.402405 724.307739 127.572479 0.603613 0.778142 -0.173627 71 0 8 255
-720.566956 678.791077 183.745972 0.603613 0.778142 -0.173627 71 0 8 255
-732.441650 631.810913 -68.087494 0.603613 0.778142 -0.173627 71 0 8 255
-732.441650 631.810913 -68.087494 0.853010 -0.518820 0.056565 71 0 8 255
-720.566956 678.791077 183.745972 0.853010 -0.518820 0.056565 71 0 8 255
-767.572510 618.194336 336.796387 0.853010 -0.518820 0.056565 71 0 8 255
-779.447205 571.214111 84.962921 0.853010 -0.518820 0.056565 71 0 8 255
-779.447205 571.214111 84.962921 -0.603613 -0.778142 0.173627 71 0 8 255
-767.572510 618.194336 336.796387 -0.603613 -0.778142 0.173627 71 0 8 255
-842.407959 663.710938 280.622894 -0.603613 -0.778142 0.173627 71 0 8 255
-854.282654 616.730774 28.789436 -0.603613 -0.778142 0.173627 71 0 8 255
-807.277100 677.327515 -124.260986 -0.222703 -0.881086 -0.417243 71 0 8 255
-732.441650 631.810913 -68.087494 -0.222703 -0.881086 -0.417243 71 0 8 255
-779.447205 571.214111 84.962921 -0.222703 -0.881086 -0.417243 71 0 8 255
-854.282654 616.730774 28.789436 -0.222703 -0.881086 -0.417243 71 0 8 255
-720.566956 678.791077 183.745972 0.222703 0.881086 0.417243 71 0 8 255
-795.402405 724.307739 127.572479 0.222703 0.881086 0.417243 71 0 8 255
-842.407959 663.710938 280.622894 0.222703 0.881086 0.417243 71 0 8 255
-767.572510 618.194336 336.796387 0.222703 0.881086 0.417243 71 0 8 255
659.014160 686.148376 48.359070 -0.946902 0.302390 -0.109261 71 0 8 255
654.335754 748.590149 261.717712 -0.946902 0.302390 -0.109261 71 0 8 255
694.086914 806.805664 78.333771 -0.946902 0.302390 -0.109261 71 0 8 255
698.765259 744.363831 -135.024841 -0.946902 0.302390 -0.109261 71 0 8 255
698.765259 744.363831 -135.024841 0.549638 0.804944 -0.223524 71 0 8 255
694.086914 806.805664 78.333771 0.549638 0.804944 -0.223524 71 0 8 255
773.658875 781.394592 182.489609 0.549638 0.804944 -0.223524 71 0 8 255
778.337219 718.952820 -30.869019 0.549638 0.804944 -0.223524 71 0 8 255
778.337219 718.952820 -30.869019 0.946902 -0.302390 0.109260 71 0 8 255
773.658875 781.394592 182.489609 0.946902 -0.302390 0.109260 71 0 8 255
733.907776 723.179077 365.873535 0.946902 -0.302390 0.109260 71 0 8 255
738.586121 660.737305 152.514893 0.946902 -0.302390 0.109260 71 0 8 255
738.586121 660.737305 152.514893 -0.549638 -0.804944 0.223524 71 0 8 255
733.907776 723.179077 365.873535 -0.549638 -0.804944 0.223524 71 0 8 255
654.335754 748.590149 261.717712 -0.549638 -0.804944 0.223524 71 0 8 255
659.014160 686.148376 48.359070 -0.549638 -0.804944 0.223524 71 0 8 255
698.765259 744.363831 -135.024841 0.071556 -0.955052 -0.287672 71 0 8 255
778.337219 718.952820 -30.869019 0.071556 -0.955052 -0.287672 71 0 8 255
738.586121 660.737305 152.514893 0.071556 -0.955052 -0.287672 71 0 8 255
659.014160 686.148376 48.359070 0.071556 -0.955052 -0.287672 71 0 8 255
773.658875 781.394592 182.489609 -0.071556 0.955052 0.287672 71 0 8 255
694.086914 806.805664 78.333771 -0.071556 0.955052 0.287672 71 0 8 255
654.335754 748.590149 261.717712 -0.071556 0.955052 0.287672 71 0 8 255
733.907776 723.179077 365.873535 -0.071556 0.955052 0.287672 71 0 8 255
4 0 1 2 3
4 4 5 6 7
4 8 9 10 11
4 12 13 14 15
4 16 17 18 19
4 20 21 22 23
4 24 25 26 27
4 28 29 30 31
4 32 33 34 35
4 36 37 38 39
4 40 41 42 43
4 44 45 46 47
4 48 49 50 51
4 52 53 54 55
4 56 57 58 59
4 60 61 62 63
4 64 65 66 67
4 68 69 70 71
4 72 73 74 75
4 76 77 78 79
4 80 81 82 83
4 84 85 86 87
4 88 89 90 91
4 92 93 94 95
4 96 97 98 99
4 100 101 102 103
4 104 105 106 107
4 108 109 110 111
4 112 113 114 115
4 116 117 118 119
4 120 121 122 123
4 124 125 126 127
4 128 129 130 131
4 132 133 134 135
4 136 137 138 139
4 140 141 142 143
4 144 145 146 147
4 148 149 150 151
4 152 153 154 155
4 156 157 158 159
4 160 161 162 163
4 164 165 166 167
4 168 169 170 171
4 172 173 174 175
4 176 177 178 179
4 180 181 182 183
4 184 185 186 187
4 188 189 190 191
4 192 193 194 195
4 196 197 198 199
4 200 201 202 203
4 204 205 206 207
4 208 209 210 211
4 212 213 214 215
4 216 217 218 219
4 220 221 222 223
4 224 225 226 227
4 228 229 230 231
4 232 233 234 235
4 236 237 238 239
4 240 241 242 243
4 244 245 246 247
4 248 249 250 251
4 252 253 254 255
4 256 257 258 259
4 260 261 262 263
4 264 265 266 267
4 268 269 270 271
4 272 273 274 275
4 276 277 278 279
4 280 281 282 283
4 284 285 286 287
4 288 289 290 291
4 292 293 294 295
4 296 297 298 299
4 300 301 302 303
4 304 305 306 307
4 308 309 310 311
4 312 313 314 315
4 316 317 318 319
4 320 321 322 323
4 324 325 326 327
4 328 329 330 331
4 332 333 334 335
