ply
format ascii 1.0
comment Created by Blender 3.0.0 - www.blender.org
element vertex 306
property float x
property float y
property float z
property float nx
property float ny
property float nz
property uchar red
property uchar green
property uchar blue
property uchar alpha
element face 91
property list uchar uint vertex_indices
end_header
200.000000 0.000000 0.000000 0.952568 0.189478 0.238142 56 56 56 255
210.000000 0.000000 -40.000000 0.952568 0.189478 0.238142 56 56 56 255
194.014709 80.363518 -40.000000 0.952568 0.189478 0.238142 56 56 56 255
184.775909 76.536682 0.000000 0.952568 0.189478 0.238142 56 56 56 255
80.000000 0.000000 20.000000 0.242254 0.048187 0.969015 56 56 56 255
160.000000 0.000000 0.000000 0.242254 0.048187 0.969015 56 56 56 255
147.820724 61.229347 0.000000 0.242254 0.048187 0.969015 56 56 56 255
73.910362 30.614674 20.000000 0.242254 0.048187 0.969015 56 56 56 255
180.000000 0.000000 -80.000000 0.315604 0.062778 -0.946812 56 56 56 255
60.000000 0.000000 -120.000000 0.315604 0.062778 -0.946812 56 56 56 255
55.432774 22.961006 -120.000000 0.315604 0.062778 -0.946812 56 56 56 255
166.298325 68.883018 -80.000000 0.315604 0.062778 -0.946812 56 56 56 255
160.000000 0.000000 0.000000 0.000000 0.000000 1.000000 56 56 56 255
200.000000 0.000000 0.000000 0.000000 0.000000 1.000000 56 56 56 255
184.775909 76.536682 0.000000 0.000000 0.000000 1.000000 56 56 56 255
147.820724 61.229347 0.000000 0.000000 0.000000 1.000000 56 56 56 255
0.000000 0.000000 20.000000 0.000000 0.000000 1.000000 56 56 56 255
80.000000 0.000000 20.000000 0.000000 0.000000 1.000000 56 56 56 255
73.910362 30.614674 20.000000 0.000000 0.000000 1.000000 56 56 56 255
60.000000 0.000000 -120.000000 0.000000 -0.000000 -1.000000 56 56 56 255
0.000000 0.000000 -120.000000 0.000000 -0.000000 -1.000000 56 56 56 255
55.432774 22.961006 -120.000000 0.000000 -0.000000 -1.000000 56 56 56 255
210.000000 0.000000 -40.000000 0.790060 0.157153 -0.592545 56 56 56 255
180.000000 0.000000 -80.000000 0.790060 0.157153 -0.592545 56 56 56 255
166.298325 68.883018 -80.000000 0.790060 0.157153 -0.592545 56 56 56 255
194.014709 80.363518 -40.000000 0.790060 0.157153 -0.592545 56 56 56 255
42.426411 42.426407 -120.000000 0.000000 -0.000000 -1.000000 56 56 56 255
194.014709 80.363518 -40.000000 0.669780 0.447533 -0.592545 56 56 56 255
166.298325 68.883018 -80.000000 0.669780 0.447533 -0.592545 56 56 56 255
127.279228 127.279228 -80.000000 0.669780 0.447533 -0.592545 56 56 56 255
148.492447 148.492432 -40.000000 0.669780 0.447533 -0.592545 56 56 56 255
184.775909 76.536682 0.000000 0.807549 0.539586 0.238142 56 56 56 255
194.014709 80.363518 -40.000000 0.807549 0.539586 0.238142 56 56 56 255
148.492447 148.492432 -40.000000 0.807549 0.539586 0.238142 56 56 56 255
141.421371 141.421356 0.000000 0.807549 0.539586 0.238142 56 56 56 255
73.910362 30.614674 20.000000 0.205373 0.137226 0.969015 56 56 56 255
147.820724 61.229347 0.000000 0.205373 0.137226 0.969015 56 56 56 255
113.137085 113.137085 0.000000 0.205373 0.137226 0.969015 56 56 56 255
56.568542 56.568542 20.000000 0.205373 0.137226 0.969015 56 56 56 255
166.298325 68.883018 -80.000000 0.267556 0.178775 -0.946812 56 56 56 255
55.432774 22.961006 -120.000000 0.267556 0.178775 -0.946812 56 56 56 255
42.426411 42.426407 -120.000000 0.267556 0.178775 -0.946812 56 56 56 255
127.279228 127.279228 -80.000000 0.267556 0.178775 -0.946812 56 56 56 255
141.421371 141.421356 0.000000 0.000000 0.000000 1.000000 56 56 56 255
113.137085 113.137085 0.000000 0.000000 0.000000 1.000000 56 56 56 255
56.568542 56.568542 20.000000 0.000000 0.000000 1.000000 56 56 56 255
141.421371 141.421356 0.000000 0.539587 0.807548 0.238142 56 56 56 255
148.492447 148.492432 -40.000000 0.539587 0.807548 0.238142 56 56 56 255
80.363541 194.014709 -40.000000 0.539587 0.807548 0.238142 56 56 56 255
76.536697 184.775909 0.000000 0.539587 0.807548 0.238142 56 56 56 255
56.568542 56.568542 20.000000 0.137226 0.205373 0.969015 56 56 56 255
113.137085 113.137085 0.000000 0.137226 0.205373 0.969015 56 56 56 255
61.229351 147.820724 0.000000 0.137226 0.205373 0.969015 56 56 56 255
30.614676 73.910362 20.000000 0.137226 0.205373 0.969015 56 56 56 255
127.279228 127.279228 -80.000000 0.178775 0.267556 -0.946812 56 56 56 255
42.426411 42.426407 -120.000000 0.178775 0.267556 -0.946812 56 56 56 255
22.961014 55.432777 -120.000000 0.178775 0.267556 -0.946812 56 56 56 255
68.883026 166.298325 -80.000000 0.178775 0.267556 -0.946812 56 56 56 255
76.536697 184.775909 0.000000 0.000000 0.000000 1.000000 56 56 56 255
61.229351 147.820724 0.000000 0.000000 0.000000 1.000000 56 56 56 255
30.614676 73.910362 20.000000 0.000000 0.000000 1.000000 56 56 56 255
22.961014 55.432777 -120.000000 0.000000 -0.000000 -1.000000 56 56 56 255
148.492447 148.492432 -40.000000 0.447533 0.669780 -0.592545 56 56 56 255
127.279228 127.279228 -80.000000 0.447533 0.669780 -0.592545 56 56 56 255
68.883026 166.298325 -80.000000 0.447533 0.669780 -0.592545 56 56 56 255
80.363541 194.014709 -40.000000 0.447533 0.669780 -0.592545 56 56 56 255
68.883026 166.298325 -80.000000 0.062778 0.315604 -0.946812 56 56 56 255
22.961014 55.432777 -120.000000 0.062778 0.315604 -0.946812 56 56 56 255
0.000006 60.000011 -120.000000 0.062778 0.315604 -0.946812 56 56 56 255
0.000008 180.000015 -80.000000 0.062778 0.315604 -0.946812 56 56 56 255
0.000015 200.000015 0.000000 -0.000000 0.000000 1.000000 56 56 56 255
0.000004 160.000000 0.000000 -0.000000 0.000000 1.000000 56 56 56 255
0.000002 80.000000 20.000000 0.000000 0.000000 1.000000 56 56 56 255
0.000006 60.000011 -120.000000 0.000000 -0.000000 -1.000000 56 56 56 255
80.363541 194.014709 -40.000000 0.157153 0.790059 -0.592545 56 56 56 255
68.883026 166.298325 -80.000000 0.157153 0.790059 -0.592545 56 56 56 255
0.000008 180.000015 -80.000000 0.157153 0.790059 -0.592545 56 56 56 255
0.000015 210.000031 -40.000000 0.157153 0.790059 -0.592545 56 56 56 255
76.536697 184.775909 0.000000 0.189478 0.952568 0.238142 56 56 56 255
80.363541 194.014709 -40.000000 0.189478 0.952568 0.238142 56 56 56 255
0.000015 210.000031 -40.000000 0.189478 0.952568 0.238142 56 56 56 255
0.000015 200.000015 0.000000 0.189478 0.952568 0.238142 56 56 56 255
30.614676 73.910362 20.000000 0.048187 0.242254 0.969015 56 56 56 255
61.229351 147.820724 0.000000 0.048187 0.242254 0.969015 56 56 56 255
0.000004 160.000000 0.000000 0.048187 0.242254 0.969015 56 56 56 255
0.000002 80.000000 20.000000 0.048187 0.242254 0.969015 56 56 56 255
0.000008 180.000015 -80.000000 -0.062778 0.315604 -0.946812 56 56 56 255
0.000006 60.000011 -120.000000 -0.062778 0.315604 -0.946812 56 56 56 255
-22.961004 55.432789 -120.000000 -0.062778 0.315604 -0.946812 56 56 56 255
-68.883018 166.298340 -80.000000 -0.062778 0.315604 -0.946812 56 56 56 255
-76.536674 184.775925 0.000000 -0.000000 0.000000 1.000000 56 56 56 255
-61.229343 147.820724 0.000000 -0.000000 0.000000 1.000000 56 56 56 255
-30.614672 73.910362 20.000000 -0.000000 0.000000 1.000000 56 56 56 255
-22.961004 55.432789 -120.000000 0.000000 0.000000 -1.000000 56 56 56 255
0.000015 210.000031 -40.000000 -0.157152 0.790059 -0.592545 56 56 56 255
0.000008 180.000015 -80.000000 -0.157152 0.790059 -0.592545 56 56 56 255
-68.883018 166.298340 -80.000000 -0.157152 0.790059 -0.592545 56 56 56 255
-80.363518 194.014740 -40.000000 -0.157152 0.790059 -0.592545 56 56 56 255
0.000015 200.000015 0.000000 -0.189478 0.952568 0.238143 56 56 56 255
0.000015 210.000031 -40.000000 -0.189478 0.952568 0.238143 56 56 56 255
-80.363518 194.014740 -40.000000 -0.189478 0.952568 0.238143 56 56 56 255
-76.536674 184.775925 0.000000 -0.189478 0.952568 0.238143 56 56 56 255
0.000002 80.000000 20.000000 -0.048187 0.242254 0.969016 56 56 56 255
0.000004 160.000000 0.000000 -0.048187 0.242254 0.969016 56 56 56 255
-61.229343 147.820724 0.000000 -0.048187 0.242254 0.969016 56 56 56 255
-30.614672 73.910362 20.000000 -0.048187 0.242254 0.969016 56 56 56 255
-56.568542 56.568542 20.000000 -0.000000 0.000000 1.000000 56 56 56 255
-42.426414 42.426426 -120.000000 0.000000 0.000000 -1.000000 56 56 56 255
-80.363518 194.014740 -40.000000 -0.447533 0.669780 -0.592545 56 56 56 255
-68.883018 166.298340 -80.000000 -0.447533 0.669780 -0.592545 56 56 56 255
-127.279236 127.279243 -80.000000 -0.447533 0.669780 -0.592545 56 56 56 255
-148.492432 148.492462 -40.000000 -0.447533 0.669780 -0.592545 56 56 56 255
-76.536674 184.775925 0.000000 -0.539586 0.807548 0.238143 56 56 56 255
-80.363518 194.014740 -40.000000 -0.539586 0.807548 0.238143 56 56 56 255
-148.492432 148.492462 -40.000000 -0.539586 0.807548 0.238143 56 56 56 255
-141.421356 141.421371 0.000000 -0.539586 0.807548 0.238143 56 56 56 255
-30.614672 73.910362 20.000000 -0.137226 0.205373 0.969015 56 56 56 255
-61.229343 147.820724 0.000000 -0.137226 0.205373 0.969015 56 56 56 255
-113.137085 113.137085 0.000000 -0.137226 0.205373 0.969015 56 56 56 255
-56.568542 56.568542 20.000000 -0.137226 0.205373 0.969015 56 56 56 255
-68.883018 166.298340 -80.000000 -0.178775 0.267556 -0.946812 56 56 56 255
-22.961004 55.432789 -120.000000 -0.178775 0.267556 -0.946812 56 56 56 255
-42.426414 42.426426 -120.000000 -0.178775 0.267556 -0.946812 56 56 56 255
-127.279236 127.279243 -80.000000 -0.178775 0.267556 -0.946812 56 56 56 255
-141.421356 141.421371 0.000000 0.000000 0.000000 1.000000 56 56 56 255
-113.137085 113.137085 0.000000 0.000000 0.000000 1.000000 56 56 56 255
-55.432785 22.961021 -120.000000 0.000000 0.000000 -1.000000 56 56 56 255
-148.492432 148.492462 -40.000000 -0.669780 0.447533 -0.592545 56 56 56 255
-127.279236 127.279243 -80.000000 -0.669780 0.447533 -0.592545 56 56 56 255
-166.298340 68.883041 -80.000000 -0.669780 0.447533 -0.592545 56 56 56 255
-194.014725 80.363556 -40.000000 -0.669780 0.447533 -0.592545 56 56 56 255
-141.421356 141.421371 0.000000 -0.807548 0.539587 0.238143 56 56 56 255
-148.492432 148.492462 -40.000000 -0.807548 0.539587 0.238143 56 56 56 255
-194.014725 80.363556 -40.000000 -0.807548 0.539587 0.238143 56 56 56 255
-184.775909 76.536697 0.000000 -0.807548 0.539587 0.238143 56 56 56 255
-56.568542 56.568542 20.000000 -0.205373 0.137226 0.969015 56 56 56 255
-113.137085 113.137085 0.000000 -0.205373 0.137226 0.969015 56 56 56 255
-147.820724 61.229351 0.000000 -0.205373 0.137226 0.969015 56 56 56 255
-73.910362 30.614676 20.000000 -0.205373 0.137226 0.969015 56 56 56 255
-127.279236 127.279243 -80.000000 -0.267556 0.178775 -0.946812 56 56 56 255
-42.426414 42.426426 -120.000000 -0.267556 0.178775 -0.946812 56 56 56 255
-55.432785 22.961021 -120.000000 -0.267556 0.178775 -0.946812 56 56 56 255
-166.298340 68.883041 -80.000000 -0.267556 0.178775 -0.946812 56 56 56 255
-184.775909 76.536697 0.000000 0.000000 0.000000 1.000000 56 56 56 255
-147.820724 61.229351 0.000000 0.000000 0.000000 1.000000 56 56 56 255
-73.910362 30.614676 20.000000 -0.000000 0.000000 1.000000 56 56 56 255
-194.014725 80.363556 -40.000000 -0.790059 0.157153 -0.592545 56 56 56 255
-166.298340 68.883041 -80.000000 -0.790059 0.157153 -0.592545 56 56 56 255
-180.000031 0.000015 -80.000000 -0.790059 0.157153 -0.592545 56 56 56 255
-210.000046 0.000031 -40.000000 -0.790059 0.157153 -0.592545 56 56 56 255
-184.775909 76.536697 0.000000 -0.952568 0.189478 0.238143 56 56 56 255
-194.014725 80.363556 -40.000000 -0.952568 0.189478 0.238143 56 56 56 255
-210.000046 0.000031 -40.000000 -0.952568 0.189478 0.238143 56 56 56 255
-200.000015 0.000015 0.000000 -0.952568 0.189478 0.238143 56 56 56 255
-73.910362 30.614676 20.000000 -0.242254 0.048187 0.969015 56 56 56 255
-147.820724 61.229351 0.000000 -0.242254 0.048187 0.969015 56 56 56 255
-160.000000 0.000004 0.000000 -0.242254 0.048187 0.969015 56 56 56 255
-80.000000 0.000002 20.000000 -0.242254 0.048187 0.969015 56 56 56 255
-166.298340 68.883041 -80.000000 -0.315604 0.062778 -0.946812 56 56 56 255
-55.432785 22.961021 -120.000000 -0.315604 0.062778 -0.946812 56 56 56 255
-60.000023 0.000011 -120.000000 -0.315604 0.062778 -0.946812 56 56 56 255
-180.000031 0.000015 -80.000000 -0.315604 0.062778 -0.946812 56 56 56 255
-200.000015 0.000015 0.000000 0.000000 -0.000000 1.000000 56 56 56 255
-160.000000 0.000004 0.000000 0.000000 -0.000000 1.000000 56 56 56 255
-80.000000 0.000002 20.000000 -0.000000 0.000000 1.000000 56 56 56 255
-60.000023 0.000011 -120.000000 0.000000 0.000000 -1.000000 56 56 56 255
-177.387451 29.220526 -6.970001 -0.560855 0.823706 0.083371 104 104 104 255
-169.317749 27.891752 61.452408 -0.560855 0.823706 0.083371 104 104 104 255
-166.991272 29.375795 61.432907 -0.560855 0.823706 0.083371 104 104 104 255
-165.515381 37.406136 -6.970001 -0.560855 0.823706 0.083371 104 104 104 255
-165.515381 37.406136 -6.970001 0.528023 0.848693 0.030194 104 104 104 255
-166.991272 29.375795 61.432907 0.528023 0.848693 0.030194 104 104 104 255
-149.606995 24.663555 72.998169 0.528023 0.848693 0.030194 104 104 104 255
-157.648926 25.996908 -6.970001 0.528023 0.848693 0.030194 104 104 104 255
-166.991272 29.375795 61.432907 -0.492949 0.086519 0.865746 104 104 104 255
-169.317749 27.891752 61.452408 -0.492949 0.086519 0.865746 104 104 104 255
-167.621887 25.792219 61.431969 -0.492949 0.086519 0.865746 104 104 104 255
-149.606995 24.663555 72.998169 -0.492949 0.086519 0.865746 104 104 104 255
-157.648926 25.996908 -6.970001 0.226748 -0.973487 0.030147 104 104 104 255
-149.606995 24.663555 72.998169 0.226748 -0.973487 0.030147 104 104 104 255
-167.621887 25.792219 61.431969 0.226748 -0.973487 0.030147 104 104 104 255
-168.807556 17.714872 -6.970001 0.226748 -0.973487 0.030147 104 104 104 255
-168.807556 17.714872 -6.970001 -0.795131 -0.600674 0.083413 104 104 104 255
-167.621887 25.792219 61.431969 -0.795131 -0.600674 0.083413 104 104 104 255
-169.317749 27.891752 61.452408 -0.795131 -0.600674 0.083413 104 104 104 255
-177.387451 29.220526 -6.970001 -0.795131 -0.600674 0.083413 104 104 104 255
-144.820618 106.545982 -6.970001 0.254232 0.966664 0.030458 104 104 104 255
-151.408630 111.393242 72.959122 0.254232 0.966664 0.030458 104 104 104 255
-135.519958 101.944687 61.431984 0.254232 0.966664 0.030458 104 104 104 255
-130.558350 108.428055 -6.970001 0.254232 0.966664 0.030458 104 104 104 255
-130.558350 108.428055 -6.970001 0.988321 0.126580 0.084853 104 104 104 255
-135.519958 101.944687 61.431984 0.988321 0.126580 0.084853 104 104 104 255
-135.287109 99.508804 61.413048 0.988321 0.126580 0.084853 104 104 104 255
-128.717407 94.684746 -6.970001 0.988321 0.126580 0.084853 104 104 104 255
-135.519958 101.944687 61.431984 0.404155 -0.293434 0.866346 104 104 104 255
-151.408630 111.393242 72.959122 0.404155 -0.293434 0.866346 104 104 104 255
-137.659668 99.000267 61.432884 0.404155 -0.293434 0.866346 104 104 104 255
-135.287109 99.508804 61.413048 0.404155 -0.293434 0.866346 104 104 104 255
-128.717407 94.684746 -6.970001 0.175455 -0.980827 0.084817 104 104 104 255
-135.287109 99.508804 61.413048 0.175455 -0.980827 0.084817 104 104 104 255
-137.659668 99.000267 61.432884 0.175455 -0.980827 0.084817 104 104 104 255
-142.366821 92.328918 -6.970001 0.175455 -0.980827 0.084817 104 104 104 255
-142.366821 92.328918 -6.970001 -0.847833 -0.529393 0.030359 104 104 104 255
-137.659668 99.000267 61.432884 -0.847833 -0.529393 0.030359 104 104 104 255
-151.408630 111.393242 72.959122 -0.847833 -0.529393 0.030359 104 104 104 255
-144.820618 106.545982 -6.970001 -0.847833 -0.529393 0.030359 104 104 104 255
-80.677673 160.539062 -6.970001 0.313519 0.946846 -0.072024 104 104 104 255
-84.343567 167.834518 72.979866 0.313519 0.946846 -0.072024 104 104 104 255
-59.950745 159.757553 72.979874 0.313519 0.946846 -0.072024 104 104 104 255
-67.246216 156.091675 -6.970001 0.313519 0.946846 -0.072024 104 104 104 255
-67.246216 156.091675 -6.970001 0.946847 -0.313516 -0.072024 104 104 104 255
-59.950745 159.757553 72.979874 0.946847 -0.313516 -0.072024 104 104 104 255
-68.023560 135.377075 72.979866 0.946847 -0.313516 -0.072024 104 104 104 255
-71.689453 142.672546 -6.970001 0.946847 -0.313516 -0.072024 104 104 104 255
-59.950745 159.757553 72.979874 -0.446709 -0.224611 0.866026 104 104 104 255
-84.343567 167.834518 72.979866 -0.446709 -0.224611 0.866026 104 104 104 255
-77.825500 150.785782 61.432899 -0.446709 -0.224611 0.866026 104 104 104 255
-68.023560 135.377075 72.979866 -0.446709 -0.224611 0.866026 104 104 104 255
-71.689453 142.672546 -6.970001 -0.658029 -0.752386 0.030212 104 104 104 255
-68.023560 135.377075 72.979866 -0.658029 -0.752386 0.030212 104 104 104 255
-77.825500 150.785782 61.432899 -0.658029 -0.752386 0.030212 104 104 104 255
-85.120972 147.119904 -6.970001 -0.658029 -0.752386 0.030212 104 104 104 255
-85.120972 147.119904 -6.970001 -0.996391 -0.079311 0.030238 104 104 104 255
-77.825500 150.785782 61.432899 -0.996391 -0.079311 0.030238 104 104 104 255
-84.343567 167.834518 72.979866 -0.996391 -0.079311 0.030238 104 104 104 255
-80.677673 160.539062 -6.970001 -0.996391 -0.079311 0.030238 104 104 104 255
0.934143 179.940460 -6.970001 0.422564 0.905880 0.028670 104 104 104 255
0.890503 171.753571 61.464638 0.422564 0.905880 0.028670 104 104 104 255
19.019592 168.973816 72.979866 0.422564 0.905880 0.028670 104 104 104 255
10.860168 169.268951 -6.970001 0.422564 0.905880 0.028670 104 104 104 255
10.860168 169.268951 -6.970001 0.329325 -0.943684 0.031701 104 104 104 255
19.019592 168.973816 72.979866 0.329325 -0.943684 0.031701 104 104 104 255
0.877930 168.082138 61.400246 0.329325 -0.943684 0.031701 104 104 104 255
0.831238 159.940704 -6.970001 0.329325 -0.943684 0.031701 104 104 104 255
19.019592 168.973816 72.979866 -0.501170 -0.013459 0.865244 104 104 104 255
0.890503 171.753571 61.464638 -0.501170 -0.013459 0.865244 104 104 104 255
-0.932800 169.592285 61.432594 -0.501170 -0.013459 0.865244 104 104 104 255
0.877930 168.082138 61.400246 -0.501170 -0.013459 0.865244 104 104 104 255
0.831238 159.940704 -6.970001 -0.679811 -0.728416 0.085248 104 104 104 255
0.877930 168.082138 61.400246 -0.679811 -0.728416 0.085248 104 104 104 255
-0.932800 169.592285 61.432594 -0.679811 -0.728416 0.085248 104 104 104 255
-9.094666 169.387817 -6.970001 -0.679811 -0.728416 0.085248 104 104 104 255
-9.094666 169.387817 -6.970001 -0.729051 0.679423 0.082887 104 104 104 255
-0.932800 169.592285 61.432594 -0.729051 0.679423 0.082887 104 104 104 255
0.890503 171.753571 61.464638 -0.729051 0.679423 0.082887 104 104 104 255
0.934143 179.940460 -6.970001 -0.729051 0.679423 0.082887 104 104 104 255
82.352417 159.697754 -6.970001 0.760494 0.648646 0.030121 104 104 104 255
78.621826 152.432205 61.436569 0.760494 0.648646 0.030121 104 104 104 255
93.887573 142.460953 72.980186 0.760494 0.648646 0.030121 104 104 104 255
86.636047 146.212601 -6.970001 0.760494 0.648646 0.030121 104 104 104 255
86.636047 146.212601 -6.970001 0.303022 -0.950249 -0.072137 104 104 104 255
93.887573 142.460953 72.980186 0.303022 -0.950249 -0.072137 104 104 104 255
69.452393 134.663406 72.982941 0.303022 -0.950249 -0.072137 104 104 104 255
73.177795 141.926239 -6.970001 0.303022 -0.950249 -0.072137 104 104 104 255
93.887573 142.460953 72.980186 0.227730 0.445209 0.865984 104 104 104 255
78.621826 152.432205 61.436569 0.227730 0.445209 0.865984 104 104 104 255
61.551453 159.001907 72.979858 0.227730 0.445209 0.865984 104 104 104 255
69.452393 134.663406 72.982941 0.227730 0.445209 0.865984 104 104 104 255
73.177795 141.926239 -6.970001 -0.948591 -0.308178 -0.072124 104 104 104 255
69.452393 134.663406 72.982941 -0.948591 -0.308178 -0.072124 104 104 104 255
61.551453 159.001907 72.979858 -0.948591 -0.308178 -0.072124 104 104 104 255
68.827698 155.297882 -6.970001 -0.948591 -0.308178 -0.072124 104 104 104 255
68.827698 155.297882 -6.970001 0.081968 0.996183 0.029996 104 104 104 255
61.551453 159.001907 72.979858 0.081968 0.996183 0.029996 104 104 104 255
78.621826 152.432205 61.436569 0.081968 0.996183 0.029996 104 104 104 255
82.352417 159.697754 -6.970001 0.081968 0.996183 0.029996 104 104 104 255
145.872437 104.995537 -6.970001 0.843426 -0.536389 0.030302 104 104 104 255
152.509277 109.768944 72.964928 0.843426 -0.536389 0.030302 104 104 104 255
138.684998 97.558121 61.432892 0.843426 -0.536389 0.030302 104 104 104 255
143.357361 90.862656 -6.970001 0.843426 -0.536389 0.030302 104 104 104 255
143.357361 90.862656 -6.970001 0.229496 -0.972841 0.030200 104 104 104 255
138.684998 97.558121 61.432892 0.229496 -0.972841 0.030200 104 104 104 255
123.021484 88.547707 72.993614 0.229496 -0.972841 0.030200 104 104 104 255
129.646729 93.302498 -6.970001 0.229496 -0.972841 0.030200 104 104 104 255
138.684998 97.558121 61.432892 0.000498 0.000659 1.000000 104 104 104 255
152.509277 109.768944 72.964928 0.000498 0.000659 1.000000 104 104 104 255
136.581482 100.535568 61.431976 0.000498 0.000659 1.000000 104 104 104 255
123.021484 88.547707 72.993614 0.000498 0.000659 1.000000 104 104 104 255
129.646729 93.302498 -6.970001 -0.848555 0.528246 0.030170 104 104 104 255
123.021484 88.547707 72.993614 -0.848555 0.528246 0.030170 104 104 104 255
136.581482 100.535568 61.431976 -0.848555 0.528246 0.030170 104 104 104 255
131.727539 107.099792 -6.970001 -0.848555 0.528246 0.030170 104 104 104 255
131.727539 107.099792 -6.970001 -0.241595 0.969900 0.030424 104 104 104 255
136.581482 100.535568 61.431976 -0.241595 0.969900 0.030424 104 104 104 255
152.509277 109.768944 72.964928 -0.241595 0.969900 0.030424 104 104 104 255
145.872437 104.995537 -6.970001 -0.241595 0.969900 0.030424 104 104 104 255
177.758179 27.383389 -6.970001 0.791393 -0.607140 -0.071258 104 104 104 255
185.846191 28.623354 72.954552 0.791393 -0.607140 -0.071258 104 104 104 255
169.973511 7.852697 72.980797 0.791393 -0.607140 -0.071258 104 104 104 255
168.926392 15.949265 -6.970001 0.791393 -0.607140 -0.071258 104 104 104 255
168.926392 15.949265 -6.970001 -0.605886 -0.792214 -0.072796 104 104 104 255
169.973511 7.852697 72.980797 -0.605886 -0.792214 -0.072796 104 104 104 255
149.935303 23.124819 73.004906 -0.605886 -0.792214 -0.072796 104 104 104 255
157.987000 24.366617 -6.970001 -0.605886 -0.792214 -0.072796 104 104 104 255
169.973511 7.852697 72.980797 0.001366 0.000237 0.999999 104 104 104 255
185.846191 28.623354 72.954552 0.001366 0.000237 0.999999 104 104 104 255
164.436035 43.710300 72.979866 0.001366 0.000237 0.999999 104 104 104 255
149.935303 23.124819 73.004906 0.001366 0.000237 0.999999 104 104 104 255
157.987000 24.366617 -6.970001 -0.816368 0.572929 -0.072768 104 104 104 255
149.935303 23.124819 73.004906 -0.816368 0.572929 -0.072768 104 104 104 255
164.436035 43.710300 72.979866 -0.816368 0.572929 -0.072768 104 104 104 255
165.869812 35.672329 -6.970001 -0.816368 0.572929 -0.072768 104 104 104 255
165.869812 35.672329 -6.970001 0.573070 0.816405 -0.071230 104 104 104 255
164.436035 43.710300 72.979866 0.573070 0.816405 -0.071230 104 104 104 255
185.846191 28.623354 72.954552 0.573070 0.816405 -0.071230 104 104 104 255
177.758179 27.383389 -6.970001 0.573070 0.816405 -0.071230 104 104 104 255
4 0 1 2 3
4 4 5 6 7
4 8 9 10 11
4 12 13 14 15
3 16 17 18
3 19 20 21
4 22 23 24 25
3 21 20 26
4 27 28 29 30
4 31 32 33 34
4 35 36 37 38
4 39 40 41 42
4 15 14 43 44
3 16 18 45
4 46 47 48 49
4 50 51 52 53
4 54 55 56 57
4 44 43 58 59
3 16 45 60
3 26 20 61
4 62 63 64 65
4 66 67 68 69
4 59 58 70 71
3 16 60 72
3 61 20 73
4 74 75 76 77
4 78 79 80 81
4 82 83 84 85
4 86 87 88 89
4 71 70 90 91
3 16 72 92
3 73 20 93
4 94 95 96 97
4 98 99 100 101
4 102 103 104 105
3 16 92 106
3 93 20 107
4 108 109 110 111
4 112 113 114 115
4 116 117 118 119
4 120 121 122 123
4 91 90 124 125
3 107 20 126
4 127 128 129 130
4 131 132 133 134
4 135 136 137 138
4 139 140 141 142
4 125 124 143 144
3 16 106 145
4 146 147 148 149
4 150 151 152 153
4 154 155 156 157
4 158 159 160 161
4 144 143 162 163
3 16 145 164
3 126 20 165
4 166 167 168 169
4 170 171 172 173
4 174 175 176 177
4 178 179 180 181
4 182 183 184 185
4 186 187 188 189
4 190 191 192 193
4 194 195 196 197
4 198 199 200 201
4 202 203 204 205
4 206 207 208 209
4 210 211 212 213
4 214 215 216 217
4 218 219 220 221
4 222 223 224 225
4 226 227 228 229
4 230 231 232 233
4 234 235 236 237
4 238 239 240 241
4 242 243 244 245
4 246 247 248 249
4 250 251 252 253
4 254 255 256 257
4 258 259 260 261
4 262 263 264 265
4 266 267 268 269
4 270 271 272 273
4 274 275 276 277
4 278 279 280 281
4 282 283 284 285
4 286 287 288 289
4 290 291 292 293
4 294 295 296 297
4 298 299 300 301
4 302 303 304 305
