ply
format ascii 1.0
comment Created by Blender 2.93.4 - www.blender.org
element vertex 264
property float x
property float y
property float z
property float nx
property float ny
property float nz
property uchar red
property uchar green
property uchar blue
property uchar alpha
element face 101
property list uchar uint vertex_indices
end_header
-160.000000 -0.000024 80.000000 0.447214 0.000000 0.894427 21 90 0 255
-120.000000 -0.000018 60.000000 0.447214 0.000000 0.894427 21 90 0 255
-120.000046 299.999969 60.000000 0.447214 0.000000 0.894427 21 90 0 255
-160.000046 299.999969 80.000000 0.447214 0.000000 0.894427 21 90 0 255
120.000000 0.000018 10.000000 -1.000000 -0.000000 0.000000 21 90 0 255
120.000000 0.000018 60.000000 -1.000000 -0.000000 0.000000 21 90 0 255
119.999954 300.000031 60.000000 -1.000000 -0.000000 0.000000 21 90 0 255
119.999954 300.000031 10.000000 -1.000000 -0.000000 0.000000 21 90 0 255
-160.000000 -0.000024 640.000000 0.000000 0.000000 1.000000 21 90 0 255
160.000000 0.000024 640.000000 0.000000 0.000000 1.000000 21 90 0 255
159.999954 300.000031 640.000000 0.000000 0.000000 1.000000 21 90 0 255
-160.000046 299.999969 640.000000 0.000000 0.000000 1.000000 21 90 0 255
-350.000000 -0.000053 80.000000 0.000000 0.000000 1.000000 21 90 0 255
-160.000000 -0.000024 80.000000 0.000000 0.000000 1.000000 21 90 0 255
-160.000046 299.999969 80.000000 0.000000 0.000000 1.000000 21 90 0 255
-350.000031 299.999939 80.000000 0.000000 0.000000 1.000000 21 90 0 255
120.000000 0.000018 60.000000 -0.447214 -0.000000 0.894427 21 90 0 255
160.000000 0.000024 80.000000 -0.447214 -0.000000 0.894427 21 90 0 255
159.999954 300.000031 80.000000 -0.447214 -0.000000 0.894427 21 90 0 255
119.999954 300.000031 60.000000 -0.447214 -0.000000 0.894427 21 90 0 255
-440.000000 -0.000066 220.000000 0.841178 0.000000 0.540758 21 90 0 255
-350.000000 -0.000053 80.000000 0.841178 0.000000 0.540758 21 90 0 255
-350.000031 299.999939 80.000000 0.841178 0.000000 0.540758 21 90 0 255
-440.000031 299.999939 220.000000 0.841178 0.000000 0.540758 21 90 0 255
160.000000 0.000024 80.000000 0.000000 0.000000 1.000000 21 90 0 255
350.000000 0.000053 80.000000 0.000000 0.000000 1.000000 21 90 0 255
349.999969 300.000061 80.000000 0.000000 0.000000 1.000000 21 90 0 255
159.999954 300.000031 80.000000 0.000000 0.000000 1.000000 21 90 0 255
-440.000000 -0.000066 510.000000 1.000000 0.000000 0.000000 21 90 0 255
-440.000000 -0.000066 220.000000 1.000000 0.000000 0.000000 21 90 0 255
-440.000031 299.999939 220.000000 1.000000 0.000000 0.000000 21 90 0 255
-440.000031 299.999939 510.000000 1.000000 0.000000 0.000000 21 90 0 255
-40.000000 -0.000006 0.000000 0.447214 0.000000 0.894427 21 90 0 255
-20.000000 -0.000003 -10.000000 0.447214 0.000000 0.894427 21 90 0 255
-20.000046 300.000000 -10.000000 0.447214 0.000000 0.894427 21 90 0 255
-40.000046 300.000000 0.000000 0.447214 0.000000 0.894427 21 90 0 255
90.000000 0.000014 0.000000 -0.316228 -0.000000 0.948683 21 90 0 255
120.000000 0.000018 10.000000 -0.316228 -0.000000 0.948683 21 90 0 255
119.999954 300.000031 10.000000 -0.316228 -0.000000 0.948683 21 90 0 255
89.999954 300.000000 0.000000 -0.316228 -0.000000 0.948683 21 90 0 255
-160.000000 -0.000024 640.000000 0.421111 0.000000 -0.907009 21 90 0 255
-440.000000 -0.000066 510.000000 0.421111 0.000000 -0.907009 21 90 0 255
-440.000031 299.999939 510.000000 0.421111 0.000000 -0.907009 21 90 0 255
-160.000046 299.999969 640.000000 0.421111 0.000000 -0.907009 21 90 0 255
-90.000000 -0.000014 0.000000 0.000000 0.000000 1.000000 21 90 0 255
-40.000000 -0.000006 0.000000 0.000000 0.000000 1.000000 21 90 0 255
-40.000046 300.000000 0.000000 0.000000 0.000000 1.000000 21 90 0 255
-90.000046 300.000000 0.000000 0.000000 0.000000 1.000000 21 90 0 255
40.000000 0.000006 0.000000 0.000000 0.000000 1.000000 21 90 0 255
90.000000 0.000014 0.000000 0.000000 0.000000 1.000000 21 90 0 255
89.999954 300.000000 0.000000 0.000000 0.000000 1.000000 21 90 0 255
39.999954 300.000000 0.000000 0.000000 0.000000 1.000000 21 90 0 255
350.000000 0.000053 80.000000 -0.841178 -0.000000 0.540758 21 90 0 255
440.000000 0.000066 220.000000 -0.841178 -0.000000 0.540758 21 90 0 255
439.999969 300.000061 220.000000 -0.841178 -0.000000 0.540758 21 90 0 255
349.999969 300.000061 80.000000 -0.841178 -0.000000 0.540758 21 90 0 255
-120.000000 -0.000018 10.000000 0.316228 0.000000 0.948683 21 90 0 255
-90.000000 -0.000014 0.000000 0.316228 0.000000 0.948683 21 90 0 255
-90.000046 300.000000 0.000000 0.316228 0.000000 0.948683 21 90 0 255
-120.000046 299.999969 10.000000 0.316228 0.000000 0.948683 21 90 0 255
20.000000 0.000003 -10.000000 -0.447214 -0.000000 0.894427 21 90 0 255
40.000000 0.000006 0.000000 -0.447214 -0.000000 0.894427 21 90 0 255
39.999954 300.000000 0.000000 -0.447214 -0.000000 0.894427 21 90 0 255
19.999954 300.000000 -10.000000 -0.447214 -0.000000 0.894427 21 90 0 255
440.000000 0.000066 220.000000 -1.000000 -0.000000 0.000000 21 90 0 255
440.000000 0.000066 510.000000 -1.000000 -0.000000 0.000000 21 90 0 255
439.999969 300.000061 510.000000 -1.000000 -0.000000 0.000000 21 90 0 255
439.999969 300.000061 220.000000 -1.000000 -0.000000 0.000000 21 90 0 255
-120.000000 -0.000018 60.000000 1.000000 0.000000 0.000000 21 90 0 255
-120.000000 -0.000018 10.000000 1.000000 0.000000 0.000000 21 90 0 255
-120.000046 299.999969 10.000000 1.000000 0.000000 0.000000 21 90 0 255
-120.000046 299.999969 60.000000 1.000000 0.000000 0.000000 21 90 0 255
-20.000000 -0.000003 -10.000000 0.000000 0.000000 1.000000 21 90 0 255
20.000000 0.000003 -10.000000 0.000000 0.000000 1.000000 21 90 0 255
19.999954 300.000000 -10.000000 0.000000 0.000000 1.000000 21 90 0 255
-20.000046 300.000000 -10.000000 0.000000 0.000000 1.000000 21 90 0 255
440.000000 0.000066 510.000000 -0.421111 -0.000000 -0.907009 21 90 0 255
160.000000 0.000024 640.000000 -0.421111 -0.000000 -0.907009 21 90 0 255
159.999954 300.000031 640.000000 -0.421111 -0.000000 -0.907009 21 90 0 255
439.999969 300.000061 510.000000 -0.421111 -0.000000 -0.907009 21 90 0 255
439.999908 600.000061 220.000000 -0.841178 -0.000000 0.540758 21 90 0 255
349.999908 600.000061 80.000000 -0.841178 -0.000000 0.540758 21 90 0 255
-120.000046 299.999969 10.000000 0.000000 -0.227230 0.973841 21 90 0 255
-90.000092 600.000000 80.000000 0.000000 -0.227230 0.973841 21 90 0 255
-120.000092 600.000000 80.000000 0.000000 -0.227230 0.973841 21 90 0 255
39.999954 300.000000 0.000000 -0.431934 -0.259161 0.863868 21 90 0 255
19.999910 600.000000 80.000000 -0.431934 -0.259161 0.863868 21 90 0 255
19.999954 300.000000 -10.000000 -0.431934 -0.259161 0.863868 21 90 0 255
439.999908 600.000061 510.000000 -1.000000 -0.000000 0.000000 21 90 0 255
439.999908 600.000061 220.000000 -1.000000 -0.000000 0.000000 21 90 0 255
-120.000092 600.000000 80.000000 1.000000 0.000000 -0.000000 21 90 0 255
-20.000046 300.000000 -10.000000 0.000000 -0.287348 0.957826 21 90 0 255
19.999954 300.000000 -10.000000 0.000000 -0.287348 0.957826 21 90 0 255
19.999910 600.000000 80.000000 0.000000 -0.287348 0.957826 21 90 0 255
-20.000090 600.000000 80.000000 0.000000 -0.287348 0.957826 21 90 0 255
159.999908 600.000000 640.000000 -0.421111 -0.000000 -0.907009 21 90 0 255
439.999908 600.000061 510.000000 -0.421111 -0.000000 -0.907009 21 90 0 255
-120.000092 600.000000 80.000000 -0.000000 0.000000 1.000000 21 90 0 255
-160.000092 600.000000 80.000000 -0.000000 0.000000 1.000000 21 90 0 255
119.999908 600.000000 80.000000 -1.000000 -0.000000 -0.000000 21 90 0 255
159.999908 600.000000 640.000000 0.000000 0.000000 1.000000 21 90 0 255
-160.000092 600.000000 640.000000 0.000000 0.000000 1.000000 21 90 0 255
-350.000092 599.999939 80.000000 0.000000 0.000000 1.000000 21 90 0 255
159.999954 300.000031 80.000000 -0.446421 -0.059523 0.892841 21 90 0 255
119.999908 600.000000 80.000000 -0.446421 -0.059523 0.892841 21 90 0 255
119.999954 300.000031 60.000000 -0.446421 -0.059523 0.892841 21 90 0 255
-350.000092 599.999939 80.000000 0.841178 0.000000 0.540758 21 90 0 255
-440.000092 599.999939 220.000000 0.841178 0.000000 0.540758 21 90 0 255
349.999908 600.000061 80.000000 0.000000 0.000000 1.000000 21 90 0 255
159.999908 600.000000 80.000000 0.000000 0.000000 1.000000 21 90 0 255
-440.000092 599.999939 220.000000 1.000000 0.000000 0.000000 21 90 0 255
-440.000092 599.999939 510.000000 1.000000 0.000000 0.000000 21 90 0 255
-40.000046 300.000000 0.000000 0.000000 -0.257663 0.966235 21 90 0 255
-20.000090 600.000000 80.000000 0.000000 -0.257663 0.966235 21 90 0 255
-40.000092 600.000000 80.000000 0.000000 -0.257663 0.966235 21 90 0 255
119.999954 300.000031 10.000000 -0.306570 -0.245256 0.919709 21 90 0 255
89.999908 600.000000 80.000000 -0.306570 -0.245256 0.919709 21 90 0 255
89.999954 300.000000 0.000000 -0.306570 -0.245256 0.919709 21 90 0 255
-440.000092 599.999939 510.000000 0.421111 0.000000 -0.907009 21 90 0 255
-160.000092 600.000000 640.000000 0.421111 0.000000 -0.907009 21 90 0 255
-90.000046 300.000000 0.000000 0.000000 -0.257663 0.966235 21 90 0 255
-90.000092 600.000000 80.000000 0.000000 -0.257663 0.966235 21 90 0 255
39.999954 300.000000 0.000000 0.000000 -0.257663 0.966235 21 90 0 255
89.999954 300.000000 0.000000 0.000000 -0.257663 0.966235 21 90 0 255
89.999908 600.000000 80.000000 0.000000 -0.257663 0.966235 21 90 0 255
39.999908 600.000000 80.000000 0.000000 -0.257663 0.966235 21 90 0 255
-120.000046 299.999969 10.000000 0.306570 -0.245256 0.919709 21 90 0 255
-90.000046 300.000000 0.000000 0.306570 -0.245256 0.919709 21 90 0 255
-90.000092 600.000000 80.000000 0.306570 -0.245256 0.919709 21 90 0 255
19.999910 600.000000 80.000000 0.000000 -0.257663 0.966235 21 90 0 255
-160.000046 299.999969 80.000000 0.446421 -0.059523 0.892841 21 90 0 255
-120.000046 299.999969 60.000000 0.446421 -0.059523 0.892841 21 90 0 255
-120.000092 600.000000 80.000000 0.446421 -0.059523 0.892841 21 90 0 255
119.999908 600.000000 80.000000 -0.000000 0.000000 1.000000 21 90 0 255
-40.000046 300.000000 0.000000 0.431934 -0.259160 0.863868 21 90 0 255
-20.000046 300.000000 -10.000000 0.431934 -0.259160 0.863868 21 90 0 255
-20.000090 600.000000 80.000000 0.431934 -0.259160 0.863868 21 90 0 255
119.999954 300.000031 10.000000 0.000000 -0.227230 0.973841 21 90 0 255
119.999908 600.000000 80.000000 0.000000 -0.227230 0.973841 21 90 0 255
89.999908 600.000000 80.000000 0.000000 -0.227230 0.973841 21 90 0 255
-90.000092 600.000000 80.000000 -0.000000 -0.000000 1.000000 21 90 0 255
-160.000137 900.000000 80.000000 -0.000000 -0.000000 1.000000 21 90 0 255
159.999863 900.000000 80.000000 -0.000000 0.000000 1.000000 21 90 0 255
159.999863 900.000000 640.000000 0.000000 0.000000 1.000000 21 90 0 255
-160.000137 900.000000 640.000000 0.000000 0.000000 1.000000 21 90 0 255
-350.000122 899.999939 80.000000 0.000000 0.000000 1.000000 21 90 0 255
89.999908 600.000000 80.000000 -0.000000 0.000000 1.000000 21 90 0 255
39.999908 600.000000 80.000000 -0.000000 0.000000 1.000000 21 90 0 255
-350.000122 899.999939 80.000000 0.841178 0.000000 0.540758 21 90 0 255
-440.000122 899.999939 220.000000 0.841178 0.000000 0.540758 21 90 0 255
349.999878 900.000061 80.000000 0.000000 0.000000 1.000000 21 90 0 255
-440.000122 899.999939 220.000000 1.000000 0.000000 0.000000 21 90 0 255
-440.000122 899.999939 510.000000 1.000000 0.000000 0.000000 21 90 0 255
-40.000092 600.000000 80.000000 -0.000000 -0.000000 1.000000 21 90 0 255
-440.000122 899.999939 510.000000 0.421111 0.000000 -0.907009 21 90 0 255
-160.000137 900.000000 640.000000 0.421111 0.000000 -0.907009 21 90 0 255
19.999910 600.000000 80.000000 -0.000000 0.000000 1.000000 21 90 0 255
-20.000090 600.000000 80.000000 -0.000000 0.000000 1.000000 21 90 0 255
439.999878 900.000061 220.000000 -0.841178 -0.000000 0.540758 21 90 0 255
349.999878 900.000061 80.000000 -0.841178 -0.000000 0.540758 21 90 0 255
439.999878 900.000061 510.000000 -1.000000 -0.000000 0.000000 21 90 0 255
439.999878 900.000061 220.000000 -1.000000 -0.000000 0.000000 21 90 0 255
159.999863 900.000000 640.000000 -0.421111 -0.000000 -0.907009 21 90 0 255
439.999878 900.000061 510.000000 -0.421111 -0.000000 -0.907009 21 90 0 255
-160.000183 1200.000000 80.000000 0.000000 0.000000 1.000000 21 90 0 255
-350.000183 1200.000000 80.000000 0.000000 0.000000 1.000000 21 90 0 255
159.999817 1200.000000 640.000000 0.000000 0.000000 1.000000 21 90 0 255
-160.000183 1200.000000 640.000000 0.000000 0.000000 1.000000 21 90 0 255
439.999817 1200.000122 220.000000 -0.841178 -0.000000 0.540758 21 90 0 255
349.999817 1200.000000 80.000000 -0.841178 -0.000000 0.540758 21 90 0 255
-350.000183 1200.000000 80.000000 0.841178 0.000000 0.540758 21 90 0 255
-440.000183 1199.999878 220.000000 0.841178 0.000000 0.540758 21 90 0 255
159.999817 1200.000000 80.000000 0.000000 0.000000 1.000000 21 90 0 255
439.999817 1200.000122 510.000000 -1.000000 -0.000000 0.000000 21 90 0 255
439.999817 1200.000122 220.000000 -1.000000 -0.000000 0.000000 21 90 0 255
-440.000183 1199.999878 220.000000 1.000000 0.000000 0.000000 21 90 0 255
-440.000183 1199.999878 510.000000 1.000000 0.000000 0.000000 21 90 0 255
349.999817 1200.000000 80.000000 0.000000 0.000000 1.000000 21 90 0 255
159.999817 1200.000000 640.000000 -0.421111 -0.000000 -0.907009 21 90 0 255
439.999817 1200.000122 510.000000 -0.421111 -0.000000 -0.907009 21 90 0 255
-440.000183 1199.999878 510.000000 0.421111 0.000000 -0.907009 21 90 0 255
-160.000183 1200.000000 640.000000 0.421111 0.000000 -0.907009 21 90 0 255
-440.000183 1199.999878 510.000000 0.944414 -0.328758 0.000000 21 90 0 255
-440.000183 1199.999878 220.000000 0.944414 -0.328758 0.000000 21 90 0 255
-360.078857 1429.587891 235.621002 0.944414 -0.328758 0.000000 21 90 0 255
-360.078857 1429.587891 472.945557 0.944414 -0.328758 0.000000 21 90 0 255
159.999817 1200.000000 80.000000 0.000000 -0.176009 0.984388 21 90 0 255
349.999817 1200.000000 80.000000 0.000000 -0.176009 0.984388 21 90 0 255
286.425995 1429.587891 121.050507 0.000000 -0.176009 0.984388 21 90 0 255
130.937469 1429.587891 121.050507 0.000000 -0.176009 0.984388 21 90 0 255
439.999817 1200.000122 510.000000 -0.404124 -0.281161 -0.870421 21 90 0 255
159.999817 1200.000000 640.000000 -0.404124 -0.281161 -0.870421 21 90 0 255
130.937469 1429.587891 579.332397 -0.404124 -0.281161 -0.870421 21 90 0 255
360.078430 1429.587891 472.945557 -0.404124 -0.281161 -0.870421 21 90 0 255
-160.000183 1200.000000 640.000000 0.404124 -0.281161 -0.870421 21 90 0 255
-440.000183 1199.999878 510.000000 0.404124 -0.281161 -0.870421 21 90 0 255
-360.078857 1429.587891 472.945557 0.404124 -0.281161 -0.870421 21 90 0 255
-130.937897 1429.587891 579.332397 0.404124 -0.281161 -0.870421 21 90 0 255
-350.000183 1200.000000 80.000000 0.000000 -0.176009 0.984388 21 90 0 255
-160.000183 1200.000000 80.000000 0.000000 -0.176009 0.984388 21 90 0 255
-130.937897 1429.587891 121.050507 0.000000 -0.176009 0.984388 21 90 0 255
-286.426422 1429.587891 121.050507 0.000000 -0.176009 0.984388 21 90 0 255
-160.000183 1200.000000 640.000000 0.000000 0.255477 0.966815 21 90 0 255
159.999817 1200.000000 640.000000 0.000000 0.255477 0.966815 21 90 0 255
130.937469 1429.587891 579.332397 0.000000 0.255477 0.966815 21 90 0 255
-130.937897 1429.587891 579.332397 0.000000 0.255477 0.966815 21 90 0 255
349.999817 1200.000000 80.000000 -0.798899 -0.313047 0.513578 21 90 0 255
439.999817 1200.000122 220.000000 -0.798899 -0.313047 0.513578 21 90 0 255
360.078430 1429.587891 235.621002 -0.798899 -0.313047 0.513578 21 90 0 255
286.425995 1429.587891 121.050507 -0.798899 -0.313047 0.513578 21 90 0 255
-440.000183 1199.999878 220.000000 0.798899 -0.313046 0.513578 21 90 0 255
-350.000183 1200.000000 80.000000 0.798899 -0.313046 0.513578 21 90 0 255
-286.426422 1429.587891 121.050507 0.798899 -0.313046 0.513578 21 90 0 255
-360.078857 1429.587891 235.621002 0.798899 -0.313046 0.513578 21 90 0 255
439.999817 1200.000122 220.000000 -0.944414 -0.328758 0.000000 21 90 0 255
439.999817 1200.000122 510.000000 -0.944414 -0.328758 0.000000 21 90 0 255
360.078430 1429.587891 472.945557 -0.944414 -0.328758 0.000000 21 90 0 255
360.078430 1429.587891 235.621002 -0.944414 -0.328758 0.000000 21 90 0 255
-286.426422 1429.587891 121.050507 0.000000 -0.435955 0.899968 21 90 0 255
-130.937897 1429.587891 121.050507 0.000000 -0.435955 0.899968 21 90 0 255
-72.784912 1599.156738 203.191650 0.000000 -0.435955 0.899968 21 90 0 255
-159.216721 1599.156738 203.191650 0.000000 -0.435955 0.899968 21 90 0 255
-130.937897 1429.587891 579.332397 0.000000 0.582107 0.813112 21 90 0 255
130.937469 1429.587891 579.332397 0.000000 0.582107 0.813112 21 90 0 255
72.784424 1599.156738 457.937988 0.000000 0.582107 0.813112 21 90 0 255
-72.784912 1599.156738 457.937988 0.000000 0.582107 0.813112 21 90 0 255
286.425995 1429.587891 121.050507 -0.627423 -0.666074 0.403343 21 90 0 255
360.078430 1429.587891 235.621002 -0.627423 -0.666074 0.403343 21 90 0 255
200.157608 1599.156738 266.878235 -0.627423 -0.666074 0.403343 21 90 0 255
159.216232 1599.156738 203.191650 -0.627423 -0.666074 0.403343 21 90 0 255
-360.078857 1429.587891 235.621002 0.627423 -0.666074 0.403343 21 90 0 255
-286.426422 1429.587891 121.050507 0.627423 -0.666074 0.403343 21 90 0 255
-159.216721 1599.156738 203.191650 0.627423 -0.666074 0.403343 21 90 0 255
-200.158096 1599.156738 266.878235 0.627423 -0.666074 0.403343 21 90 0 255
130.937469 1429.587891 121.050507 0.000000 -0.435955 0.899968 21 90 0 255
72.784424 1599.156738 203.191650 0.000000 -0.435955 0.899968 21 90 0 255
360.078430 1429.587891 235.621002 -0.727500 -0.686107 0.000000 21 90 0 255
360.078430 1429.587891 472.945557 -0.727500 -0.686107 0.000000 21 90 0 255
200.157608 1599.156738 398.800446 -0.727500 -0.686107 0.000000 21 90 0 255
200.157608 1599.156738 266.878235 -0.727500 -0.686107 0.000000 21 90 0 255
-360.078857 1429.587891 472.945557 0.727500 -0.686107 0.000000 21 90 0 255
-360.078857 1429.587891 235.621002 0.727500 -0.686107 0.000000 21 90 0 255
-200.158096 1599.156738 266.878235 0.727500 -0.686107 0.000000 21 90 0 255
-200.158096 1599.156738 398.800446 0.727500 -0.686107 0.000000 21 90 0 255
286.425995 1429.587891 121.050507 0.000000 -0.435955 0.899968 21 90 0 255
159.216232 1599.156738 203.191650 0.000000 -0.435955 0.899968 21 90 0 255
360.078430 1429.587891 472.945557 -0.329836 -0.621704 -0.710417 21 90 0 255
130.937469 1429.587891 579.332397 -0.329836 -0.621704 -0.710417 21 90 0 255
72.784424 1599.156738 457.937988 -0.329836 -0.621704 -0.710417 21 90 0 255
200.157608 1599.156738 398.800446 -0.329836 -0.621704 -0.710417 21 90 0 255
-130.937897 1429.587891 579.332397 0.329836 -0.621704 -0.710417 21 90 0 255
-360.078857 1429.587891 472.945557 0.329836 -0.621704 -0.710417 21 90 0 255
-200.158096 1599.156738 398.800446 0.329836 -0.621704 -0.710417 21 90 0 255
-72.784912 1599.156738 457.937988 0.329836 -0.621704 -0.710417 21 90 0 255
-159.216721 1599.156738 203.191650 -0.000000 -1.000000 -0.000000 21 90 0 255
-72.784912 1599.156738 203.191650 -0.000000 -1.000000 -0.000000 21 90 0 255
-200.158096 1599.156738 266.878235 -0.000000 -1.000000 -0.000000 21 90 0 255
159.216232 1599.156738 203.191650 0.000000 -1.000000 -0.000000 21 90 0 255
200.157608 1599.156738 266.878235 0.000000 -1.000000 -0.000000 21 90 0 255
72.784424 1599.156738 203.191650 0.000000 -1.000000 -0.000000 21 90 0 255
200.157608 1599.156738 398.800446 0.000000 -1.000000 0.000000 21 90 0 255
-200.158096 1599.156738 398.800446 0.000000 -1.000000 -0.000000 21 90 0 255
72.784424 1599.156738 457.937988 0.000000 -1.000000 0.000000 21 90 0 255
-72.784912 1599.156738 457.937988 0.000000 -1.000000 -0.000000 21 90 0 255
4 0 1 2 3
4 4 5 6 7
4 8 9 10 11
4 12 13 14 15
4 16 17 18 19
4 20 21 22 23
4 24 25 26 27
4 28 29 30 31
4 32 33 34 35
4 36 37 38 39
4 40 41 42 43
4 44 45 46 47
4 48 49 50 51
4 52 53 54 55
4 56 57 58 59
4 60 61 62 63
4 64 65 66 67
4 68 69 70 71
4 72 73 74 75
4 76 77 78 79
4 55 54 80 81
3 82 83 84
3 85 86 87
4 67 66 88 89
3 71 70 90
4 91 92 93 94
4 79 78 95 96
3 14 97 98
3 7 6 99
4 11 10 100 101
4 15 14 98 102
3 103 104 105
4 23 22 106 107
4 27 26 108 109
4 31 30 110 111
3 112 113 114
3 115 116 117
4 43 42 118 119
4 120 112 114 121
4 122 123 124 125
3 126 127 128
3 122 125 129
3 130 131 132
3 27 109 133
3 134 135 136
3 137 138 139
3 140 141 97
3 109 142 133
4 101 100 143 144
4 102 98 141 145
3 146 142 147
4 107 106 148 149
4 109 108 150 142
4 111 110 151 152
3 153 141 140
4 119 118 154 155
3 133 142 146
4 156 142 141 157
4 81 80 158 159
3 157 141 153
4 89 88 160 161
3 98 97 141
3 147 142 156
4 96 95 162 163
4 145 141 164 165
4 144 143 166 167
4 159 158 168 169
4 149 148 170 171
4 141 142 172 164
4 161 160 173 174
4 152 151 175 176
4 142 150 177 172
4 163 162 178 179
4 155 154 180 181
4 182 183 184 185
4 186 187 188 189
4 190 191 192 193
4 194 195 196 197
4 198 199 200 201
4 202 203 204 205
4 206 207 208 209
4 210 211 212 213
4 199 186 189 200
4 214 215 216 217
4 218 219 220 221
4 222 223 224 225
4 226 227 228 229
4 230 231 232 233
4 219 234 235 220
4 236 237 238 239
4 240 241 242 243
4 234 244 245 235
4 246 247 248 249
4 250 251 252 253
3 254 255 256
3 257 258 259
4 259 258 256 255
3 258 260 256
3 256 260 261
3 260 262 261
3 261 262 263
