ply
format ascii 1.0
comment Created by Blender 3.0.0 - www.blender.org
element vertex 295
property float x
property float y
property float z
property float nx
property float ny
property float nz
property uchar red
property uchar green
property uchar blue
property uchar alpha
element face 97
property list uchar uint vertex_indices
end_header
-120.000000 0.000000 240.000000 0.980785 0.195090 0.000000 0 241 255 255
-120.000000 0.000000 120.000000 0.980785 0.195090 0.000000 0 241 255 255
-133.701691 68.883026 120.000000 0.980785 0.195090 0.000000 0 241 255 255
-133.701691 68.883026 240.000000 0.980785 0.195090 0.000000 0 241 255 255
-140.000000 0.000000 370.000000 0.969807 0.192907 0.149201 0 241 255 255
-120.000000 0.000000 240.000000 0.969807 0.192907 0.149201 0 241 255 255
-133.701691 68.883026 240.000000 0.969807 0.192907 0.149201 0 241 255 255
-152.179276 61.229355 370.000000 0.969807 0.192907 0.149201 0 241 255 255
-180.000000 0.000000 100.000000 0.987998 0.020119 -0.153150 0 241 255 255
-180.000000 0.000000 0.000000 0.987998 0.020119 -0.153150 0 241 255 255
-198.268921 135.923218 0.000000 0.987998 0.020119 -0.153150 0 241 255 255
-166.444290 95.526443 100.000000 0.987998 0.020119 -0.153150 0 241 255 255
-120.000000 0.000000 120.000000 0.396121 0.000352 -0.918198 0 241 255 255
-180.000000 0.000000 100.000000 0.396121 0.000352 -0.918198 0 241 255 255
-166.444290 95.526443 100.000000 0.396121 0.000352 -0.918198 0 241 255 255
-133.701691 68.883026 120.000000 0.396121 0.000352 -0.918198 0 241 255 255
-152.179276 61.229355 370.000000 0.822163 0.549352 0.149201 0 241 255 255
-133.701691 68.883026 240.000000 0.822163 0.549352 0.149201 0 241 255 255
-172.720795 127.279236 240.000000 0.822163 0.549352 0.149201 0 241 255 255
-186.862915 113.137093 370.000000 0.822163 0.549352 0.149201 0 241 255 255
-133.701691 68.883026 240.000000 0.831470 0.555570 0.000000 0 241 255 255
-133.701691 68.883026 120.000000 0.831470 0.555570 0.000000 0 241 255 255
-172.720795 127.279236 120.000000 0.831470 0.555570 0.000000 0 241 255 255
-172.720795 127.279236 240.000000 0.831470 0.555570 0.000000 0 241 255 255
-166.444290 95.526443 100.000000 0.891288 0.451181 -0.045186 0 241 255 255
-198.268921 135.923218 0.000000 0.891288 0.451181 -0.045186 0 241 255 255
-250.294403 251.153351 0.000000 0.891288 0.451181 -0.045186 0 241 255 255
-192.457031 134.457245 100.000000 0.891288 0.451181 -0.045186 0 241 255 255
-133.701691 68.883026 120.000000 0.706317 0.471946 -0.527620 0 241 255 255
-166.444290 95.526443 100.000000 0.706317 0.471946 -0.527620 0 241 255 255
-192.457031 134.457245 100.000000 0.706317 0.471946 -0.527620 0 241 255 255
-172.720795 127.279236 120.000000 0.706317 0.471946 -0.527620 0 241 255 255
-186.862915 113.137093 370.000000 0.549352 0.822163 0.149201 0 241 255 255
-172.720795 127.279236 240.000000 0.549352 0.822163 0.149201 0 241 255 255
-231.117004 166.298325 240.000000 0.549352 0.822163 0.149201 0 241 255 255
-238.770660 147.820740 370.000000 0.549352 0.822163 0.149201 0 241 255 255
-172.720795 127.279236 240.000000 0.555570 0.831470 0.000000 0 241 255 255
-172.720795 127.279236 120.000000 0.555570 0.831470 0.000000 0 241 255 255
-231.117004 166.298325 120.000000 0.555570 0.831470 0.000000 0 241 255 255
-231.117004 166.298325 240.000000 0.555570 0.831470 0.000000 0 241 255 255
-192.457031 134.457245 100.000000 0.578343 0.655743 0.485305 0 241 255 255
-250.294403 251.153351 0.000000 0.578343 0.655743 0.485305 0 241 255 255
-328.156036 328.147644 0.000000 0.578343 0.655743 0.485305 0 241 255 255
-231.387848 160.469971 100.000000 0.578343 0.655743 0.485305 0 241 255 255
-172.720795 127.279236 120.000000 0.539004 0.806677 -0.242379 0 241 255 255
-192.457031 134.457245 100.000000 0.539004 0.806677 -0.242379 0 241 255 255
-231.387848 160.469971 100.000000 0.539004 0.806677 -0.242379 0 241 255 255
-231.117004 166.298325 120.000000 0.539004 0.806677 -0.242379 0 241 255 255
-238.770660 147.820740 370.000000 0.192907 0.969807 0.149201 0 241 255 255
-231.117004 166.298325 240.000000 0.192907 0.969807 0.149201 0 241 255 255
-300.000031 180.000000 240.000000 0.192907 0.969807 0.149201 0 241 255 255
-300.000031 160.000015 370.000000 0.192907 0.969807 0.149201 0 241 255 255
-231.117004 166.298325 240.000000 0.195090 0.980785 0.000000 0 241 255 255
-231.117004 166.298325 120.000000 0.195090 0.980785 0.000000 0 241 255 255
-300.000031 180.000000 120.000000 0.195090 0.980785 0.000000 0 241 255 255
-300.000031 180.000000 240.000000 0.195090 0.980785 0.000000 0 241 255 255
-231.387848 160.469971 100.000000 0.147302 0.561033 0.814582 0 241 255 255
-328.156036 328.147644 0.000000 0.147302 0.561033 0.814582 0 241 255 255
-420.000061 355.184418 0.000000 0.147302 0.561033 0.814582 0 241 255 255
-277.309845 169.604416 100.000000 0.147302 0.561033 0.814582 0 241 255 255
-231.117004 166.298325 120.000000 0.187447 0.942362 -0.277159 0 241 255 255
-231.387848 160.469971 100.000000 0.187447 0.942362 -0.277159 0 241 255 255
-277.309845 169.604416 100.000000 0.187447 0.942362 -0.277159 0 241 255 255
-300.000031 180.000000 120.000000 0.187447 0.942362 -0.277159 0 241 255 255
180.000000 0.000000 0.000000 -0.988598 0.148978 0.021889 0 241 255 255
180.000000 0.000000 100.000000 -0.988598 0.148978 0.021889 0 241 255 255
189.134460 45.922020 100.000000 -0.988598 0.148978 0.021889 0 241 255 255
198.268921 135.923218 0.000000 -0.988598 0.148978 0.021889 0 241 255 255
120.000000 0.000000 240.000000 -0.969807 0.192907 0.149201 0 241 255 255
140.000000 0.000000 370.000000 -0.969807 0.192907 0.149201 0 241 255 255
152.179276 61.229355 370.000000 -0.969807 0.192907 0.149201 0 241 255 255
133.701691 68.883026 240.000000 -0.969807 0.192907 0.149201 0 241 255 255
180.000000 0.000000 100.000000 -0.315604 0.062778 -0.946812 0 241 255 255
120.000000 0.000000 120.000000 -0.315604 0.062778 -0.946812 0 241 255 255
133.701691 68.883026 120.000000 -0.315604 0.062778 -0.946812 0 241 255 255
189.134460 45.922020 100.000000 -0.315604 0.062778 -0.946812 0 241 255 255
120.000000 0.000000 120.000000 -0.980785 0.195090 0.000000 0 241 255 255
120.000000 0.000000 240.000000 -0.980785 0.195090 0.000000 0 241 255 255
133.701691 68.883026 240.000000 -0.980785 0.195090 0.000000 0 241 255 255
133.701691 68.883026 120.000000 -0.980785 0.195090 0.000000 0 241 255 255
189.134460 45.922020 100.000000 -0.267556 0.178775 -0.946812 0 241 255 255
133.701691 68.883026 120.000000 -0.267556 0.178775 -0.946812 0 241 255 255
172.720795 127.279236 120.000000 -0.267556 0.178775 -0.946812 0 241 255 255
215.147202 84.852821 100.000000 -0.267556 0.178775 -0.946812 0 241 255 255
133.701691 68.883026 120.000000 -0.831470 0.555570 0.000000 0 241 255 255
133.701691 68.883026 240.000000 -0.831470 0.555570 0.000000 0 241 255 255
172.720795 127.279236 240.000000 -0.831470 0.555570 0.000000 0 241 255 255
172.720795 127.279236 120.000000 -0.831470 0.555570 0.000000 0 241 255 255
198.268921 135.923218 0.000000 -0.833668 0.422014 0.356233 0 241 255 255
189.134460 45.922020 100.000000 -0.833668 0.422014 0.356233 0 241 255 255
215.147202 84.852821 100.000000 -0.833668 0.422014 0.356233 0 241 255 255
250.294434 251.153351 0.000000 -0.833668 0.422014 0.356233 0 241 255 255
133.701691 68.883026 240.000000 -0.822163 0.549352 0.149201 0 241 255 255
152.179276 61.229355 370.000000 -0.822163 0.549352 0.149201 0 241 255 255
186.862915 113.137093 370.000000 -0.822163 0.549352 0.149201 0 241 255 255
172.720795 127.279236 240.000000 -0.822163 0.549352 0.149201 0 241 255 255
172.720795 127.279236 240.000000 -0.549352 0.822163 0.149201 0 241 255 255
186.862915 113.137093 370.000000 -0.549352 0.822163 0.149201 0 241 255 255
238.770660 147.820740 370.000000 -0.549352 0.822163 0.149201 0 241 255 255
231.117004 166.298325 240.000000 -0.549352 0.822163 0.149201 0 241 255 255
215.147202 84.852821 100.000000 -0.178775 0.267556 -0.946812 0 241 255 255
172.720795 127.279236 120.000000 -0.178775 0.267556 -0.946812 0 241 255 255
231.117004 166.298325 120.000000 -0.178775 0.267556 -0.946812 0 241 255 255
254.078018 110.865547 100.000000 -0.178775 0.267556 -0.946812 0 241 255 255
172.720795 127.279236 120.000000 -0.555570 0.831470 0.000000 0 241 255 255
172.720795 127.279236 240.000000 -0.555570 0.831470 0.000000 0 241 255 255
231.117004 166.298325 240.000000 -0.555570 0.831470 0.000000 0 241 255 255
231.117004 166.298325 120.000000 -0.555570 0.831470 0.000000 0 241 255 255
250.294434 251.153351 0.000000 -0.450037 0.510266 0.732868 0 241 255 255
215.147202 84.852821 100.000000 -0.450037 0.510266 0.732868 0 241 255 255
254.078018 110.865547 100.000000 -0.450037 0.510266 0.732868 0 241 255 255
328.156006 328.147644 0.000000 -0.450037 0.510266 0.732868 0 241 255 255
231.117004 166.298325 240.000000 -0.192907 0.969807 0.149201 0 241 255 255
238.770660 147.820740 370.000000 -0.192907 0.969807 0.149201 0 241 255 255
300.000031 160.000015 370.000000 -0.192907 0.969807 0.149201 0 241 255 255
300.000031 180.000000 240.000000 -0.192907 0.969807 0.149201 0 241 255 255
254.078018 110.865547 100.000000 -0.062777 0.315604 -0.946812 0 241 255 255
231.117004 166.298325 120.000000 -0.062777 0.315604 -0.946812 0 241 255 255
300.000031 180.000000 120.000000 -0.062777 0.315604 -0.946812 0 241 255 255
300.000031 119.999992 100.000000 -0.062777 0.315604 -0.946812 0 241 255 255
231.117004 166.298325 120.000000 -0.195090 0.980785 0.000000 0 241 255 255
231.117004 166.298325 240.000000 -0.195090 0.980785 0.000000 0 241 255 255
300.000031 180.000000 240.000000 -0.195090 0.980785 0.000000 0 241 255 255
300.000031 180.000000 120.000000 -0.195090 0.980785 0.000000 0 241 255 255
328.156006 328.147644 0.000000 -0.116271 0.442842 0.889029 0 241 255 255
254.078018 110.865547 100.000000 -0.116271 0.442842 0.889029 0 241 255 255
300.000031 119.999992 100.000000 -0.116271 0.442842 0.889029 0 241 255 255
420.000061 355.184418 0.000000 -0.116271 0.442842 0.889029 0 241 255 255
4178.103516 4903.431152 459.266052 0.030356 -0.422192 0.905998 0 241 255 255
5570.804688 4903.431152 574.061157 0.030356 -0.422192 0.905998 0 241 255 255
6271.294434 5603.920898 715.558472 0.030356 -0.422192 0.905998 0 241 255 255
4703.471191 5603.920898 929.546997 0.030356 -0.422192 0.905998 0 241 255 255
-5570.804688 4903.431152 774.621643 -0.179041 0.443643 0.878137 0 241 255 255
-4178.103516 4903.431152 929.836426 -0.179041 0.443643 0.878137 0 241 255 255
-4703.471191 5603.920898 597.566101 -0.179041 0.443643 0.878137 0 241 255 255
-6271.294434 5603.920898 149.167328 -0.179041 0.443643 0.878137 0 241 255 255
-4178.103516 4903.431152 929.836426 -0.068362 0.317299 0.945858 0 241 255 255
-2785.402100 4903.431152 971.180969 -0.068362 0.317299 0.945858 0 241 255 255
-3135.646973 5603.920898 770.192505 -0.068362 0.317299 0.945858 0 241 255 255
-4703.471191 5603.920898 597.566101 -0.068362 0.317299 0.945858 0 241 255 255
-2785.402100 4903.431152 971.180969 -0.004446 0.134139 0.990953 0 241 255 255
-1392.701172 4903.431152 872.833557 -0.004446 0.134139 0.990953 0 241 255 255
-1567.823730 5603.920898 881.823547 -0.004446 0.134139 0.990953 0 241 255 255
-3135.646973 5603.920898 770.192505 -0.004446 0.134139 0.990953 0 241 255 255
-1392.701172 4903.431152 872.833557 0.101329 0.079899 0.991639 0 241 255 255
0.000000 4903.431152 778.057861 0.101329 0.079899 0.991639 0 241 255 255
0.000000 5603.920898 674.081665 0.101329 0.079899 0.991639 0 241 255 255
-1567.823730 5603.920898 881.823547 0.101329 0.079899 0.991639 0 241 255 255
0.000000 4903.431152 778.057861 0.049872 0.056322 0.997166 0 241 255 255
1392.701172 4903.431152 643.992371 0.049872 0.056322 0.997166 0 241 255 255
1567.823730 5603.920898 660.079834 0.049872 0.056322 0.997166 0 241 255 255
0.000000 5603.920898 674.081665 0.049872 0.056322 0.997166 0 241 255 255
1392.701172 4903.431152 643.992371 0.104392 -0.302139 0.947531 0 241 255 255
2785.402100 4903.431152 302.570648 0.104392 -0.302139 0.947531 0 241 255 255
3135.646973 5603.920898 675.331665 0.104392 -0.302139 0.947531 0 241 255 255
1567.823730 5603.920898 660.079834 0.104392 -0.302139 0.947531 0 241 255 255
2785.402100 4903.431152 302.570648 -0.122465 -0.454407 0.882336 0 241 255 255
4178.103516 4903.431152 459.266052 -0.122465 -0.454407 0.882336 0 241 255 255
4703.471191 5603.920898 929.546997 -0.122465 -0.454407 0.882336 0 241 255 255
3135.646973 5603.920898 675.331665 -0.122465 -0.454407 0.882336 0 241 255 255
-667.373474 0.000000 0.000000 0.000000 0.000000 1.000000 0 241 255 255
-500.530090 0.000000 0.000000 0.000000 0.000000 1.000000 0 241 255 255
-1025.897705 700.490112 0.000000 0.000000 0.000000 1.000000 0 241 255 255
-1367.863525 700.490112 0.000000 0.000000 0.000000 1.000000 0 241 255 255
-1551.265381 1400.980225 0.000000 0.000000 0.000000 1.000000 0 241 255 255
-2068.353760 1400.980225 0.000000 0.000000 0.000000 1.000000 0 241 255 255
-2076.633057 2101.470215 0.000000 0.000000 0.000000 1.000000 0 241 255 255
-2768.843750 2101.470215 0.000000 0.000000 0.000000 1.000000 0 241 255 255
-2602.000732 2801.960449 0.000000 0.000000 0.000000 1.000000 0 241 255 255
-3469.334229 2801.960449 0.000000 0.000000 0.000000 1.000000 0 241 255 255
-3469.334229 2801.960449 0.000000 -0.009433 -0.203180 0.979096 0 241 255 255
-2602.000732 2801.960449 0.000000 -0.009433 -0.203180 0.979096 0 241 255 255
-3127.368164 3502.450684 148.658997 -0.009433 -0.203180 0.979096 0 241 255 255
-4169.824219 3502.450684 130.259903 -0.009433 -0.203180 0.979096 0 241 255 255
-4169.824219 3502.450684 130.259903 0.002260 -0.678879 0.734246 0 241 255 255
-3127.368164 3502.450684 148.658997 0.002260 -0.678879 0.734246 0 241 255 255
-3652.736084 4202.940430 776.336426 0.002260 -0.678879 0.734246 0 241 255 255
-4870.313965 4202.940430 801.692627 0.002260 -0.678879 0.734246 0 241 255 255
-4870.313965 4202.940430 801.692627 -0.049250 -0.132431 0.989968 0 241 255 255
-3652.736084 4202.940430 776.336426 -0.049250 -0.132431 0.989968 0 241 255 255
-4178.103516 4903.431152 929.836426 -0.049250 -0.132431 0.989968 0 241 255 255
-5570.804688 4903.431152 774.621643 -0.049250 -0.132431 0.989968 0 241 255 255
-333.686707 0.000000 0.000000 0.000000 0.000000 1.000000 0 241 255 255
-683.931763 700.490112 0.000000 0.000000 0.000000 1.000000 0 241 255 255
-1034.176758 1400.980225 0.000000 0.000000 0.000000 1.000000 0 241 255 255
-1384.421875 2101.470215 0.000000 0.000000 0.000000 1.000000 0 241 255 255
-1734.666992 2801.960449 0.000000 0.000000 0.000000 1.000000 0 241 255 255
-2602.000732 2801.960449 0.000000 -0.053503 -0.307962 0.949893 0 241 255 255
-1734.666992 2801.960449 0.000000 -0.053503 -0.307962 0.949893 0 241 255 255
-2084.911865 3502.450684 256.229156 -0.053503 -0.307962 0.949893 0 241 255 255
-3127.368164 3502.450684 148.658997 -0.053503 -0.307962 0.949893 0 241 255 255
-3127.368164 3502.450684 148.658997 -0.030669 -0.639197 0.768431 0 241 255 255
-2084.911865 3502.450684 256.229156 -0.030669 -0.639197 0.768431 0 241 255 255
-2435.156982 4202.940430 758.968384 -0.030669 -0.639197 0.768431 0 241 255 255
-3652.736084 4202.940430 776.336426 -0.030669 -0.639197 0.768431 0 241 255 255
-3652.736084 4202.940430 776.336426 -0.008875 -0.257756 0.966169 0 241 255 255
-2435.156982 4202.940430 758.968384 -0.008875 -0.257756 0.966169 0 241 255 255
-2785.402100 4903.431152 971.180969 -0.008875 -0.257756 0.966169 0 241 255 255
-4178.103516 4903.431152 929.836426 -0.008875 -0.257756 0.966169 0 241 255 255
-166.843384 0.000000 0.000000 0.000000 0.000000 1.000000 0 241 255 255
-341.965942 700.490112 0.000000 0.000000 0.000000 1.000000 0 241 255 255
-517.088501 1400.980225 0.000000 0.000000 0.000000 1.000000 0 241 255 255
-692.211060 2101.470215 0.000000 0.000000 0.000000 1.000000 0 241 255 255
-867.333618 2801.960449 0.000000 0.000000 0.000000 1.000000 0 241 255 255
-1734.666992 2801.960449 0.000000 -0.013956 -0.364797 0.930982 0 241 255 255
-867.333618 2801.960449 0.000000 -0.013956 -0.364797 0.930982 0 241 255 255
-1042.456055 3502.450684 284.857544 -0.013956 -0.364797 0.930982 0 241 255 255
-2084.911865 3502.450684 256.229156 -0.013956 -0.364797 0.930982 0 241 255 255
-2084.911865 3502.450684 256.229156 -0.023639 -0.592164 0.805470 0 241 255 255
-1042.456055 3502.450684 284.857544 -0.023639 -0.592164 0.805470 0 241 255 255
-1217.578613 4202.940430 796.669006 -0.023639 -0.592164 0.805470 0 241 255 255
-2435.156982 4202.940430 758.968384 -0.023639 -0.592164 0.805470 0 241 255 255
-2435.156982 4202.940430 758.968384 0.022789 -0.193355 0.980864 0 241 255 255
-1217.578613 4202.940430 796.669006 0.022789 -0.193355 0.980864 0 241 255 255
-1392.701172 4903.431152 872.833557 0.022789 -0.193355 0.980864 0 241 255 255
-2785.402100 4903.431152 971.180969 0.022789 -0.193355 0.980864 0 241 255 255
0.000000 0.000000 0.000000 0.000000 0.000000 1.000000 0 241 255 255
0.000000 700.490112 0.000000 0.000000 0.000000 1.000000 0 241 255 255
0.000000 1400.980225 0.000000 0.000000 0.000000 1.000000 0 241 255 255
0.000000 2101.470215 0.000000 0.000000 0.000000 1.000000 0 241 255 255
0.000000 2801.960449 0.000000 0.000000 0.000000 1.000000 0 241 255 255
-867.333618 2801.960449 0.000000 0.020469 -0.350331 0.936402 0 241 255 255
0.000000 2801.960449 0.000000 0.020469 -0.350331 0.936402 0 241 255 255
0.000000 3502.450684 243.111938 0.020469 -0.350331 0.936402 0 241 255 255
-1042.456055 3502.450684 284.857544 0.020469 -0.350331 0.936402 0 241 255 255
-1042.456055 3502.450684 284.857544 0.011261 -0.607854 0.793969 0 241 255 255
0.000000 3502.450684 243.111938 0.011261 -0.607854 0.793969 0 241 255 255
0.000000 4202.940430 806.359009 0.011261 -0.607854 0.793969 0 241 255 255
-1217.578613 4202.940430 796.669006 0.011261 -0.607854 0.793969 0 241 255 255
-1217.578613 4202.940430 796.669006 0.032564 -0.030060 0.999017 0 241 255 255
0.000000 4202.940430 806.359009 0.032564 -0.030060 0.999017 0 241 255 255
0.000000 4903.431152 778.057861 0.032564 -0.030060 0.999017 0 241 255 255
-1392.701172 4903.431152 872.833557 0.032564 -0.030060 0.999017 0 241 255 255
166.843384 0.000000 0.000000 0.000000 0.000000 1.000000 0 241 255 255
341.965942 700.490112 0.000000 0.000000 0.000000 1.000000 0 241 255 255
517.088501 1400.980225 0.000000 0.000000 0.000000 1.000000 0 241 255 255
692.211060 2101.470215 0.000000 0.000000 0.000000 1.000000 0 241 255 255
867.333618 2801.960449 0.000000 0.000000 0.000000 1.000000 0 241 255 255
0.000000 2801.960449 0.000000 0.108801 -0.203013 0.973113 0 241 255 255
867.333618 2801.960449 0.000000 0.108801 -0.203013 0.973113 0 241 255 255
1042.456055 3502.450684 29.584156 0.108801 -0.203013 0.973113 0 241 255 255
0.000000 3502.450684 243.111938 0.108801 -0.203013 0.973113 0 241 255 255
0.000000 3502.450684 243.111938 0.168769 -0.608598 0.775323 0 241 255 255
1042.456055 3502.450684 29.584156 0.168769 -0.608598 0.775323 0 241 255 255
1217.578613 4202.940430 527.930603 0.168769 -0.608598 0.775323 0 241 255 255
0.000000 4202.940430 806.359009 0.168769 -0.608598 0.775323 0 241 255 255
0.000000 4202.940430 806.359009 0.155575 -0.081117 0.984488 0 241 255 255
1217.578613 4202.940430 527.930603 0.155575 -0.081117 0.984488 0 241 255 255
1392.701172 4903.431152 643.992371 0.155575 -0.081117 0.984488 0 241 255 255
0.000000 4903.431152 778.057861 0.155575 -0.081117 0.984488 0 241 255 255
333.686707 0.000000 0.000000 0.000000 0.000000 1.000000 0 241 255 255
683.931763 700.490112 0.000000 0.000000 0.000000 1.000000 0 241 255 255
1034.176758 1400.980225 0.000000 0.000000 0.000000 1.000000 0 241 255 255
1384.421875 2101.470215 0.000000 0.000000 0.000000 1.000000 0 241 255 255
1734.666992 2801.960449 0.000000 0.000000 0.000000 1.000000 0 241 255 255
867.333618 2801.960449 0.000000 0.015483 -0.026913 0.999518 0 241 255 255
1734.666992 2801.960449 0.000000 0.015483 -0.026913 0.999518 0 241 255 255
2084.911865 3502.450684 0.000000 0.015483 -0.026913 0.999518 0 241 255 255
1042.456055 3502.450684 29.584156 0.015483 -0.026913 0.999518 0 241 255 255
1042.456055 3502.450684 29.584156 0.219611 -0.399028 0.890251 0 241 255 255
2084.911865 3502.450684 0.000000 0.219611 -0.399028 0.890251 0 241 255 255
2435.156982 4202.940430 0.000000 0.219611 -0.399028 0.890251 0 241 255 255
1217.578613 4202.940430 527.930603 0.219611 -0.399028 0.890251 0 241 255 255
1217.578613 4202.940430 527.930603 0.293183 -0.372988 0.880297 0 241 255 255
2435.156982 4202.940430 0.000000 0.293183 -0.372988 0.880297 0 241 255 255
2785.402100 4903.431152 302.570648 0.293183 -0.372988 0.880297 0 241 255 255
1392.701172 4903.431152 643.992371 0.293183 -0.372988 0.880297 0 241 255 255
500.530090 0.000000 0.000000 0.000000 0.000000 1.000000 0 241 255 255
1025.897705 700.490112 0.000000 0.000000 0.000000 1.000000 0 241 255 255
1551.265381 1400.980225 0.000000 0.000000 0.000000 1.000000 0 241 255 255
2076.633057 2101.470215 0.000000 0.000000 0.000000 1.000000 0 241 255 255
2602.000732 2801.960449 0.000000 0.000000 0.000000 1.000000 0 241 255 255
3127.368164 3502.450684 0.000000 0.000000 0.000000 1.000000 0 241 255 255
2084.911865 3502.450684 0.000000 0.000000 0.000000 1.000000 0 241 255 255
3652.736084 4202.940430 0.000000 0.000000 0.000000 1.000000 0 241 255 255
2435.156982 4202.940430 0.000000 0.000000 0.000000 1.000000 0 241 255 255
2435.156982 4202.940430 0.000000 -0.053481 -0.451036 0.890902 0 241 255 255
3652.736084 4202.940430 0.000000 -0.053481 -0.451036 0.890902 0 241 255 255
4178.103516 4903.431152 459.266052 -0.053481 -0.451036 0.890902 0 241 255 255
2785.402100 4903.431152 302.570648 -0.053481 -0.451036 0.890902 0 241 255 255
667.373474 0.000000 0.000000 0.000000 0.000000 1.000000 0 241 255 255
1367.863525 700.490112 0.000000 0.000000 0.000000 1.000000 0 241 255 255
2068.353760 1400.980225 0.000000 0.000000 0.000000 1.000000 0 241 255 255
2768.843750 2101.470215 0.000000 0.000000 0.000000 1.000000 0 241 255 255
3469.334229 2801.960449 0.000000 0.000000 0.000000 1.000000 0 241 255 255
4169.824219 3502.450684 0.000000 0.000000 0.000000 1.000000 0 241 255 255
4870.313965 4202.940430 0.000000 0.000000 0.000000 1.000000 0 241 255 255
3652.736084 4202.940430 0.000000 -0.036020 -0.572592 0.819049 0 241 255 255
4870.313965 4202.940430 0.000000 -0.036020 -0.572592 0.819049 0 241 255 255
5570.804688 4903.431152 574.061157 -0.036020 -0.572592 0.819049 0 241 255 255
4178.103516 4903.431152 459.266052 -0.036020 -0.572592 0.819049 0 241 255 255
-6842.600098 6122.113281 49.306396 0.000000 -1.000000 -0.000000 0 241 255 255
7442.600098 6122.113281 49.306396 0.000000 -1.000000 -0.000000 0 241 255 255
7442.600098 6122.113281 4230.656250 0.000000 -1.000000 -0.000000 0 0 0 255
-6842.600098 6122.113281 4230.656250 0.000000 -1.000000 -0.000000 0 0 0 255
4 0 1 2 3
4 4 5 6 7
4 8 9 10 11
4 12 13 14 15
4 16 17 18 19
4 20 21 22 23
4 24 25 26 27
4 28 29 30 31
4 32 33 34 35
4 36 37 38 39
4 40 41 42 43
4 44 45 46 47
4 48 49 50 51
4 52 53 54 55
4 56 57 58 59
4 60 61 62 63
4 64 65 66 67
4 68 69 70 71
4 72 73 74 75
4 76 77 78 79
4 80 81 82 83
4 84 85 86 87
4 88 89 90 91
4 92 93 94 95
4 96 97 98 99
4 100 101 102 103
4 104 105 106 107
4 108 109 110 111
4 112 113 114 115
4 116 117 118 119
4 120 121 122 123
4 124 125 126 127
4 128 129 130 131
4 132 133 134 135
4 136 137 138 139
4 140 141 142 143
4 144 145 146 147
4 148 149 150 151
4 152 153 154 155
4 156 157 158 159
4 160 161 162 163
4 163 162 164 165
4 165 164 166 167
4 167 166 168 169
4 170 171 172 173
4 174 175 176 177
4 178 179 180 181
4 161 182 183 162
4 162 183 184 164
4 164 184 185 166
4 166 185 186 168
4 187 188 189 190
4 191 192 193 194
4 195 196 197 198
4 182 199 200 183
4 183 200 201 184
4 184 201 202 185
4 185 202 203 186
4 204 205 206 207
4 208 209 210 211
4 212 213 214 215
4 199 216 217 200
4 200 217 218 201
4 201 218 219 202
4 202 219 220 203
4 221 222 223 224
4 225 226 227 228
4 229 230 231 232
4 216 233 234 217
4 217 234 235 218
4 218 235 236 219
4 219 236 237 220
4 238 239 240 241
4 242 243 244 245
4 246 247 248 249
4 233 250 251 234
4 234 251 252 235
4 235 252 253 236
4 236 253 254 237
4 255 256 257 258
4 259 260 261 262
4 263 264 265 266
4 250 267 268 251
4 251 268 269 252
4 252 269 270 253
4 253 270 271 254
4 254 271 272 273
4 273 272 274 275
4 276 277 278 279
4 267 280 281 268
4 268 281 282 269
4 269 282 283 270
4 270 283 284 271
4 271 284 285 272
4 272 285 286 274
4 287 288 289 290
4 291 292 293 294
