ply
format ascii 1.0
comment Created by Blender 2.93.2 - www.blender.org
element vertex 216
property float x
property float y
property float z
property float nx
property float ny
property float nz
property uchar red
property uchar green
property uchar blue
property uchar alpha
element face 61
property list uchar uint vertex_indices
end_header
-500.000031 0.000006 -499.999969 -0.923856 0.382672 0.000000 0 255 176 255
-499.999969 0.000006 500.000031 -0.923856 0.382672 0.000000 0 80 55 255
-353.553406 353.553314 500.000031 -0.707083 0.707083 0.000000 0 80 55 255
-353.553467 353.553314 -499.999969 -0.707083 0.707083 0.000000 0 255 176 255
0.000006 500.000000 500.000000 0.000000 1.000000 0.000000 0 80 55 255
-0.000069 500.000000 -500.000000 0.000000 1.000000 0.000000 0 255 176 255
-499.999969 0.000006 500.000031 0.000000 0.000000 1.000000 0 80 55 255
500.000031 0.000038 499.999969 0.000000 0.000000 1.000000 0 80 56 255
353.553345 353.553467 499.999969 0.000000 0.000000 1.000000 0 80 55 255
0.000006 500.000000 500.000000 0.000000 0.000000 1.000000 0 80 55 255
-353.553406 353.553314 500.000031 0.000000 0.000000 1.000000 0 80 55 255
353.553345 353.553467 499.999969 0.707083 0.707083 0.000000 0 80 55 255
353.553284 353.553467 -500.000031 0.707083 0.707083 0.000000 0 255 176 255
500.000031 0.000038 499.999969 0.923856 0.382672 0.000000 0 80 56 255
499.999969 0.000038 -500.000031 0.923856 0.382672 0.000000 2 255 176 255
499.999969 0.000038 -500.000031 -0.000000 -0.000000 -1.000000 2 255 176 255
-500.000031 0.000006 -499.999969 -0.000000 -0.000000 -1.000000 0 255 176 255
-353.553467 353.553314 -499.999969 -0.000000 -0.000000 -1.000000 0 255 176 255
-0.000069 500.000000 -500.000000 -0.000000 -0.000000 -1.000000 0 255 176 255
353.553284 353.553467 -500.000031 -0.000000 -0.000000 -1.000000 0 255 176 255
280.000000 0.000021 -0.000021 -0.000000 -0.000000 -1.000000 114 114 114 255
240.000000 0.000018 -0.000018 -0.000000 -0.000000 -1.000000 114 114 114 255
240.000000 0.000020 -0.000018 -0.000000 -0.000000 -1.000000 114 114 114 255
260.000000 34.641041 -0.000020 -0.000000 -0.000000 -1.000000 114 114 114 255
240.000000 0.000018 -10.000018 0.000000 0.000000 1.000000 114 114 114 255
260.000000 0.000020 -10.000020 0.000000 0.000000 1.000000 114 114 114 255
250.000000 17.320530 -10.000019 0.000000 0.000000 1.000000 114 114 114 255
240.000000 0.000020 -10.000018 0.000000 0.000000 1.000000 114 114 114 255
260.000000 0.000020 -10.000020 -0.433013 -0.250000 0.866025 114 114 114 255
280.000000 0.000021 -0.000021 -0.433013 -0.250000 0.866025 114 114 114 255
260.000000 34.641041 -0.000020 -0.433013 -0.250000 0.866025 114 114 114 255
250.000000 17.320530 -10.000019 -0.433013 -0.250000 0.866025 114 114 114 255
240.000000 0.000022 -0.000018 -0.000000 -0.000000 -1.000000 114 114 114 255
220.000000 34.641033 -0.000017 -0.000000 -0.000000 -1.000000 114 114 114 255
230.000000 17.320528 -10.000017 0.000000 0.000000 1.000000 114 114 114 255
240.000000 0.000022 -10.000018 0.000000 0.000000 1.000000 114 114 114 255
250.000000 17.320530 -10.000019 0.000000 -0.500000 0.866025 114 114 114 255
260.000000 34.641041 -0.000020 0.000000 -0.500000 0.866025 114 114 114 255
220.000000 34.641033 -0.000017 0.000000 -0.500000 0.866025 114 114 114 255
230.000000 17.320528 -10.000017 0.000000 -0.500000 0.866025 114 114 114 255
240.000000 0.000020 -0.000018 -0.000000 0.000000 -1.000000 114 114 114 255
200.000000 0.000009 -0.000015 -0.000000 0.000000 -1.000000 114 114 114 255
220.000000 0.000016 -10.000016 0.000000 0.000000 1.000000 114 114 114 255
240.000000 0.000020 -10.000018 0.000000 0.000000 1.000000 114 114 114 255
230.000000 17.320528 -10.000017 0.433013 -0.250000 0.866025 114 114 114 255
220.000000 34.641033 -0.000017 0.433013 -0.250000 0.866025 114 114 114 255
200.000000 0.000009 -0.000015 0.433013 -0.250000 0.866025 114 114 114 255
220.000000 0.000016 -10.000016 0.433013 -0.250000 0.866025 114 114 114 255
80.000000 0.000006 -0.000006 -0.000000 -0.000000 -1.000000 114 114 114 255
0.000000 0.000000 0.000000 -0.000000 -0.000000 -1.000000 114 114 114 255
0.000000 0.000000 0.000000 -0.000000 -0.000000 -1.000000 114 114 114 255
39.999996 69.282028 -0.000003 -0.000000 -0.000000 -1.000000 114 114 114 255
59.999996 0.000005 -40.000004 -0.794719 -0.458832 0.397360 114 114 114 255
80.000000 0.000006 -0.000006 -0.794719 -0.458832 0.397360 114 114 114 255
39.999996 69.282028 -0.000003 -0.794719 -0.458832 0.397360 114 114 114 255
29.999992 51.961529 -40.000004 -0.794719 -0.458832 0.397360 114 114 114 255
-0.000003 -0.000000 -40.000000 0.000000 0.000000 1.000000 114 114 114 255
59.999996 0.000005 -40.000004 0.000000 0.000000 1.000000 114 114 114 255
29.999992 51.961529 -40.000004 0.000000 0.000000 1.000000 114 114 114 255
-0.000003 -0.000000 -40.000000 0.000000 0.000000 1.000000 114 114 114 255
0.000000 0.000000 0.000000 -0.000000 -0.000000 -1.000000 114 114 114 255
-40.000004 69.282036 0.000003 -0.000000 -0.000000 -1.000000 114 114 114 255
29.999992 51.961529 -40.000004 0.000000 -0.917663 0.397360 114 114 114 255
39.999996 69.282028 -0.000003 0.000000 -0.917663 0.397360 114 114 114 255
-40.000004 69.282036 0.000003 0.000000 -0.917663 0.397360 114 114 114 255
-30.000008 51.961529 -39.999996 0.000000 -0.917663 0.397360 114 114 114 255
-30.000008 51.961529 -39.999996 0.000000 0.000000 1.000000 114 114 114 255
-0.000003 -0.000000 -40.000000 0.000000 0.000000 1.000000 114 114 114 255
0.000000 0.000000 0.000000 -0.000000 -0.000000 -1.000000 114 114 114 255
-80.000000 0.000005 0.000006 -0.000000 -0.000000 -1.000000 114 114 114 255
-30.000008 51.961529 -39.999996 0.794719 -0.458831 0.397360 114 114 114 255
-40.000004 69.282036 0.000003 0.794719 -0.458831 0.397360 114 114 114 255
-80.000000 0.000005 0.000006 0.794719 -0.458831 0.397360 114 114 114 255
-60.000004 0.000006 -39.999996 0.794719 -0.458831 0.397360 114 114 114 255
-60.000004 0.000006 -39.999996 0.000000 -0.000000 1.000000 114 114 114 255
-0.000003 -0.000000 -40.000000 0.000000 -0.000000 1.000000 114 114 114 255
-200.000000 -0.000015 0.000015 -0.000000 0.000000 -1.000000 114 114 114 255
-240.000000 -0.000018 0.000018 -0.000000 0.000000 -1.000000 114 114 114 255
-240.000000 -0.000016 0.000018 -0.000000 0.000000 -1.000000 114 114 114 255
-220.000000 34.641006 0.000017 -0.000000 0.000000 -1.000000 114 114 114 255
-240.000000 -0.000018 -9.999982 0.000000 0.000000 1.000000 114 114 114 255
-220.000000 -0.000017 -9.999984 0.000000 0.000000 1.000000 114 114 114 255
-230.000000 17.320494 -9.999983 0.000000 0.000000 1.000000 114 114 114 255
-240.000000 -0.000016 -9.999982 0.000000 0.000000 1.000000 114 114 114 255
-220.000000 -0.000017 -9.999984 -0.433013 -0.250000 0.866025 114 114 114 255
-200.000000 -0.000015 0.000015 -0.433013 -0.250000 0.866025 114 114 114 255
-220.000000 34.641006 0.000017 -0.433013 -0.250000 0.866025 114 114 114 255
-230.000000 17.320494 -9.999983 -0.433013 -0.250000 0.866025 114 114 114 255
-240.000000 -0.000014 0.000018 -0.000000 0.000000 -1.000000 114 114 114 255
-260.000000 34.640999 0.000020 -0.000000 0.000000 -1.000000 114 114 114 255
-250.000000 17.320492 -9.999981 0.000000 0.000000 1.000000 114 114 114 255
-240.000000 -0.000014 -9.999982 0.000000 0.000000 1.000000 114 114 114 255
-230.000000 17.320494 -9.999983 0.000000 -0.500000 0.866025 114 114 114 255
-220.000000 34.641006 0.000017 0.000000 -0.500000 0.866025 114 114 114 255
-260.000000 34.640999 0.000020 0.000000 -0.500000 0.866025 114 114 114 255
-250.000000 17.320492 -9.999981 0.000000 -0.500000 0.866025 114 114 114 255
-240.000000 -0.000016 0.000018 -0.000000 0.000000 -1.000000 114 114 114 255
-280.000000 -0.000027 0.000021 -0.000000 0.000000 -1.000000 114 114 114 255
-260.000000 -0.000021 -9.999980 0.000000 0.000000 1.000000 114 114 114 255
-240.000000 -0.000016 -9.999982 0.000000 0.000000 1.000000 114 114 114 255
-250.000000 17.320492 -9.999981 0.433013 -0.250000 0.866025 114 114 114 255
-260.000000 34.640999 0.000020 0.433013 -0.250000 0.866025 114 114 114 255
-280.000000 -0.000027 0.000021 0.433013 -0.250000 0.866025 114 114 114 255
-260.000000 -0.000021 -9.999980 0.433013 -0.250000 0.866025 114 114 114 255
139.753235 221.410965 -12.500007 0.471477 0.673339 -0.569495 138 138 138 255
141.496353 241.334869 12.499993 0.471477 0.673339 -0.569495 138 138 138 255
182.453964 212.656036 12.499990 0.471477 0.673339 -0.569495 138 138 138 255
164.327805 204.203674 -12.500009 0.471477 0.673339 -0.569495 138 138 138 255
164.327805 204.203674 -12.500009 0.818867 -0.071642 -0.569495 138 138 138 255
182.453964 212.656036 12.499990 0.818867 -0.071642 -0.569495 138 138 138 255
178.096176 162.846298 12.499990 0.818867 -0.071642 -0.569495 138 138 138 255
161.713120 174.317841 -12.500009 0.818867 -0.071642 -0.569495 138 138 138 255
161.713120 174.317841 -12.500009 0.347390 -0.744980 -0.569495 138 138 138 255
178.096176 162.846298 12.499990 0.347390 -0.744980 -0.569495 138 138 138 255
132.780777 141.715393 12.499993 0.347390 -0.744980 -0.569495 138 138 138 255
134.523895 161.639297 -12.500007 0.347390 -0.744980 -0.569495 138 138 138 255
134.523895 161.639297 -12.500007 -0.471477 -0.673339 -0.569495 138 138 138 255
132.780777 141.715393 12.499993 -0.471477 -0.673339 -0.569495 138 138 138 255
91.823166 170.394211 12.499997 -0.471477 -0.673339 -0.569495 138 138 138 255
109.949326 178.846588 -12.500005 -0.471477 -0.673339 -0.569495 138 138 138 255
182.453964 212.656036 12.499990 0.000000 -0.000000 1.000000 138 138 138 255
141.496353 241.334869 12.499993 0.000000 -0.000000 1.000000 138 138 138 255
96.180954 220.203934 12.499996 0.000000 -0.000000 1.000000 138 138 138 255
91.823166 170.394211 12.499997 0.000000 -0.000000 1.000000 138 138 138 255
132.780777 141.715393 12.499993 0.000000 -0.000000 1.000000 138 138 138 255
178.096176 162.846298 12.499990 0.000000 -0.000000 1.000000 138 138 138 255
109.949326 178.846588 -12.500005 -0.818867 0.071642 -0.569495 138 138 138 255
91.823166 170.394211 12.499997 -0.818867 0.071642 -0.569495 138 138 138 255
96.180954 220.203934 12.499996 -0.818867 0.071642 -0.569495 138 138 138 255
112.564003 208.732422 -12.500005 -0.818867 0.071642 -0.569495 138 138 138 255
112.564003 208.732422 -12.500005 -0.347390 0.744980 -0.569495 138 138 138 255
96.180954 220.203934 12.499996 -0.347390 0.744980 -0.569495 138 138 138 255
141.496353 241.334869 12.499993 -0.347390 0.744980 -0.569495 138 138 138 255
139.753235 221.410965 -12.500007 -0.347390 0.744980 -0.569495 138 138 138 255
139.753235 221.410965 -12.500007 -0.000000 0.000000 -1.000000 138 138 138 255
164.327805 204.203674 -12.500009 -0.000000 0.000000 -1.000000 138 138 138 255
161.713120 174.317841 -12.500009 -0.000000 0.000000 -1.000000 138 138 138 255
134.523895 161.639297 -12.500007 -0.000000 0.000000 -1.000000 138 138 138 255
109.949326 178.846588 -12.500005 -0.000000 0.000000 -1.000000 138 138 138 255
112.564003 208.732422 -12.500005 -0.000000 0.000000 -1.000000 138 138 138 255
-118.357643 151.732834 51.914703 0.711869 -0.410997 -0.569495 138 138 138 255
-98.357643 151.732849 76.914703 0.711869 -0.410997 -0.569495 138 138 138 255
-123.357635 108.431572 76.914703 0.711869 -0.410997 -0.569495 138 138 138 255
-133.357635 125.752083 51.914707 0.711869 -0.410997 -0.569495 138 138 138 255
-133.357635 125.752083 51.914707 0.000000 -0.821995 -0.569495 138 138 138 255
-123.357635 108.431572 76.914703 0.000000 -0.821995 -0.569495 138 138 138 255
-173.357635 108.431564 76.914711 0.000000 -0.821995 -0.569495 138 138 138 255
-163.357635 125.752075 51.914707 0.000000 -0.821995 -0.569495 138 138 138 255
-163.357635 125.752075 51.914707 -0.711869 -0.410997 -0.569495 138 138 138 255
-173.357635 108.431564 76.914711 -0.711869 -0.410997 -0.569495 138 138 138 255
-198.357635 151.732834 76.914711 -0.711869 -0.410997 -0.569495 138 138 138 255
-178.357635 151.732834 51.914711 -0.711869 -0.410997 -0.569495 138 138 138 255
-178.357635 151.732834 51.914711 -0.711869 0.410997 -0.569495 138 138 138 255
-198.357635 151.732834 76.914711 -0.711869 0.410997 -0.569495 138 138 138 255
-173.357651 195.034103 76.914711 -0.711869 0.410997 -0.569495 138 138 138 255
-163.357651 177.713593 51.914707 -0.711869 0.410997 -0.569495 138 138 138 255
-123.357635 108.431572 76.914703 0.000000 0.000000 1.000000 138 138 138 255
-98.357643 151.732849 76.914703 0.000000 0.000000 1.000000 138 138 138 255
-123.357643 195.034103 76.914703 0.000000 0.000000 1.000000 138 138 138 255
-173.357651 195.034103 76.914711 0.000000 0.000000 1.000000 138 138 138 255
-198.357635 151.732834 76.914711 0.000000 0.000000 1.000000 138 138 138 255
-173.357635 108.431564 76.914711 0.000000 0.000000 1.000000 138 138 138 255
-163.357651 177.713593 51.914707 -0.000000 0.821995 -0.569495 138 138 138 255
-173.357651 195.034103 76.914711 -0.000000 0.821995 -0.569495 138 138 138 255
-123.357643 195.034103 76.914703 -0.000000 0.821995 -0.569495 138 138 138 255
-133.357651 177.713593 51.914707 -0.000000 0.821995 -0.569495 138 138 138 255
-133.357651 177.713593 51.914707 0.711868 0.410998 -0.569495 138 138 138 255
-123.357643 195.034103 76.914703 0.711868 0.410998 -0.569495 138 138 138 255
-98.357643 151.732849 76.914703 0.711868 0.410998 -0.569495 138 138 138 255
-118.357643 151.732834 51.914703 0.711868 0.410998 -0.569495 138 138 138 255
-118.357643 151.732834 51.914703 -0.000000 -0.000000 -1.000000 138 138 138 255
-133.357635 125.752083 51.914707 -0.000000 -0.000000 -1.000000 138 138 138 255
-163.357635 125.752075 51.914707 -0.000000 -0.000000 -1.000000 138 138 138 255
-178.357635 151.732834 51.914711 -0.000000 -0.000000 -1.000000 138 138 138 255
-163.357651 177.713593 51.914707 -0.000000 -0.000000 -1.000000 138 138 138 255
-133.357651 177.713593 51.914707 -0.000000 -0.000000 -1.000000 138 138 138 255
-163.973831 184.076324 75.994461 0.060630 0.122631 -0.990599 67 97 97 255
-135.358643 162.605759 74.967911 0.060630 0.122631 -0.990599 67 97 97 255
-146.938248 134.279282 70.221001 0.060630 0.122631 -0.990599 67 97 97 255
-165.247559 140.675858 71.068848 0.060630 0.122631 -0.990599 67 97 97 255
-178.237732 160.082565 71.372040 0.060630 0.122631 -0.990599 67 97 97 255
136.627426 206.094360 8.529055 0.766100 0.595002 0.243030 67 97 97 255
140.855789 178.495590 62.769207 0.766100 0.595002 0.243030 67 97 97 255
156.549118 179.030441 11.989792 0.766100 0.595002 0.243030 67 97 97 255
-165.247559 140.675858 71.068848 -0.761518 -0.515864 0.392396 67 97 97 255
-158.500534 159.157440 108.459549 -0.761518 -0.515864 0.392396 67 97 97 255
-178.237732 160.082565 71.372040 -0.761518 -0.515864 0.392396 67 97 97 255
156.549118 179.030441 11.989792 0.945713 -0.145243 0.290742 67 97 97 255
140.855789 178.495590 62.769207 0.945713 -0.145243 0.290742 67 97 97 255
155.395538 159.797714 6.134198 0.945713 -0.145243 0.290742 67 97 97 255
-135.358643 162.605759 74.967911 0.773170 -0.398713 0.493190 67 97 97 255
-158.500534 159.157440 108.459549 0.773170 -0.398713 0.493190 67 97 97 255
-146.938248 134.279282 70.221001 0.773170 -0.398713 0.493190 67 97 97 255
-178.237732 160.082565 71.372040 -0.806851 0.395039 0.439243 67 97 97 255
-158.500534 159.157440 108.459549 -0.806851 0.395039 0.439243 67 97 97 255
-163.973831 184.076324 75.994461 -0.806851 0.395039 0.439243 67 97 97 255
155.395538 159.797714 6.134198 0.159574 -0.924495 0.346186 67 97 97 255
140.855789 178.495590 62.769207 0.159574 -0.924495 0.346186 67 97 97 255
126.043861 155.068634 7.034751 0.159574 -0.924495 0.346186 67 97 97 255
-163.973831 184.076324 75.994461 0.546196 0.706429 0.450142 67 97 97 255
-158.500534 159.157440 108.459549 0.546196 0.706429 0.450142 67 97 97 255
-135.358643 162.605759 74.967911 0.546196 0.706429 0.450142 67 97 97 255
136.627426 206.094360 8.529055 0.018173 0.074016 -0.997091 67 97 97 255
156.549118 179.030441 11.989792 0.018173 0.074016 -0.997091 67 97 97 255
155.395538 159.797714 6.134198 0.018173 0.074016 -0.997091 67 97 97 255
126.043861 155.068634 7.034751 0.018173 0.074016 -0.997091 67 97 97 255
110.109993 187.750931 10.283976 0.018173 0.074016 -0.997091 67 97 97 255
126.043861 155.068634 7.034751 -0.808720 -0.433776 0.397254 67 97 97 255
140.855789 178.495590 62.769207 -0.808720 -0.433776 0.397254 67 97 97 255
110.109993 187.750931 10.283976 -0.808720 -0.433776 0.397254 67 97 97 255
-146.938248 134.279282 70.221001 -0.272632 -0.842060 0.465411 67 97 97 255
-158.500534 159.157440 108.459549 -0.272632 -0.842060 0.465411 67 97 97 255
-165.247559 140.675858 71.068848 -0.272632 -0.842060 0.465411 67 97 97 255
110.109993 187.750931 10.283976 -0.496029 0.757646 0.424178 67 97 97 255
140.855789 178.495590 62.769207 -0.496029 0.757646 0.424178 67 97 97 255
136.627426 206.094360 8.529055 -0.496029 0.757646 0.424178 67 97 97 255
4 0 1 2 3
4 3 2 4 5
5 6 7 8 9 10
4 5 4 11 12
4 12 11 13 14
5 15 16 17 18 19
4 20 21 22 23
4 24 25 26 27
4 28 29 30 31
4 23 22 32 33
4 27 26 34 35
4 36 37 38 39
4 33 32 40 41
4 35 34 42 43
4 44 45 46 47
4 48 49 50 51
4 52 53 54 55
4 56 57 58 59
4 51 50 60 61
4 62 63 64 65
4 59 58 66 67
4 61 60 68 69
4 70 71 72 73
4 67 66 74 75
4 76 77 78 79
4 80 81 82 83
4 84 85 86 87
4 79 78 88 89
4 83 82 90 91
4 92 93 94 95
4 89 88 96 97
4 91 90 98 99
4 100 101 102 103
4 104 105 106 107
4 108 109 110 111
4 112 113 114 115
4 116 117 118 119
6 120 121 122 123 124 125
4 126 127 128 129
4 130 131 132 133
6 134 135 136 137 138 139
4 140 141 142 143
4 144 145 146 147
4 148 149 150 151
4 152 153 154 155
6 156 157 158 159 160 161
4 162 163 164 165
4 166 167 168 169
6 170 171 172 173 174 175
5 176 177 178 179 180
3 181 182 183
3 184 185 186
3 187 188 189
3 190 191 192
3 193 194 195
3 196 197 198
3 199 200 201
5 202 203 204 205 206
3 207 208 209
3 210 211 212
3 213 214 215
