ply
format ascii 1.0
comment Created by Blender 2.93.5 - www.blender.org
element vertex 489
property float x
property float y
property float z
property float nx
property float ny
property float nz
property uchar red
property uchar green
property uchar blue
property uchar alpha
element face 189
property list uchar uint vertex_indices
end_header
330.000000 0.000000 140.000000 -0.000000 0.000000 1.000000 190 124 0 255
260.000000 110.000000 140.000000 -0.000000 0.000000 1.000000 190 124 0 255
260.000000 0.000000 140.000000 -0.000000 0.000000 1.000000 190 124 0 255
-40.000000 110.000000 0.000000 -0.316228 0.000000 0.948683 190 124 0 255
-100.000000 0.000000 -20.000000 -0.316228 0.000000 0.948683 190 124 0 255
-40.000000 0.000000 0.000000 -0.316228 0.000000 0.948683 190 124 0 255
140.000000 110.000000 -20.000000 0.000000 -0.000000 1.000000 190 124 0 255
100.000000 0.000000 -20.000000 0.000000 -0.000000 1.000000 190 124 0 255
140.000000 0.000000 -20.000000 0.000000 -0.000000 1.000000 190 124 0 255
-100.000000 110.000000 -20.000000 0.000000 -0.000000 1.000000 190 124 0 255
-140.000000 0.000000 -20.000000 0.000000 -0.000000 1.000000 190 124 0 255
-100.000000 0.000000 -20.000000 0.000000 -0.000000 1.000000 190 124 0 255
40.000000 110.000000 0.000000 0.000000 -0.000000 1.000000 190 124 0 255
-40.000000 0.000000 0.000000 0.000000 -0.000000 1.000000 190 124 0 255
40.000000 0.000000 0.000000 0.000000 -0.000000 1.000000 190 124 0 255
-140.000000 110.000000 -20.000000 0.948683 0.000000 0.316228 190 124 0 255
-160.000000 0.000000 40.000000 0.948683 0.000000 0.316228 190 124 0 255
-140.000000 0.000000 -20.000000 0.948683 0.000000 0.316228 190 124 0 255
160.000000 110.000000 100.000000 -1.000000 0.000000 0.000000 190 124 0 255
160.000000 0.000000 40.000000 -1.000000 0.000000 0.000000 190 124 0 255
160.000000 0.000000 100.000000 -1.000000 0.000000 0.000000 190 124 0 255
-160.000000 110.000000 40.000000 1.000000 -0.000000 0.000000 190 124 0 255
-160.000000 0.000000 100.000000 1.000000 -0.000000 0.000000 190 124 0 255
-160.000000 0.000000 40.000000 1.000000 -0.000000 0.000000 190 124 0 255
160.000000 110.000000 40.000000 -0.948683 0.000000 0.316228 190 124 0 255
140.000000 0.000000 -20.000000 -0.948683 0.000000 0.316228 190 124 0 255
160.000000 0.000000 40.000000 -0.948683 0.000000 0.316228 190 124 0 255
-160.000000 110.000000 100.000000 0.371391 0.000000 0.928477 190 124 0 255
-260.000000 0.000000 140.000000 0.371391 0.000000 0.928477 190 124 0 255
-160.000000 0.000000 100.000000 0.371391 0.000000 0.928477 190 124 0 255
100.000000 110.000000 -20.000000 0.316228 0.000000 0.948683 190 124 0 255
40.000000 0.000000 0.000000 0.316228 0.000000 0.948683 190 124 0 255
100.000000 0.000000 -20.000000 0.316228 0.000000 0.948683 190 124 0 255
-260.000000 110.000000 140.000000 0.000000 -0.000000 1.000000 190 124 0 255
-330.000000 0.000000 140.000000 0.000000 -0.000000 1.000000 190 124 0 255
-260.000000 0.000000 140.000000 0.000000 -0.000000 1.000000 190 124 0 255
260.000000 110.000000 140.000000 -0.371391 0.000000 0.928477 190 124 0 255
160.000000 0.000000 100.000000 -0.371391 0.000000 0.928477 190 124 0 255
260.000000 0.000000 140.000000 -0.371391 0.000000 0.928477 190 124 0 255
440.000000 110.000000 140.000000 -0.000000 0.000000 1.000000 190 124 0 255
260.000000 240.000000 140.000000 -0.000000 0.000000 1.000000 158 103 0 255
-40.000000 110.000000 0.000000 -0.298380 -0.331201 0.895140 190 124 0 255
-99.994896 239.953033 28.084272 -0.298380 -0.331201 0.895140 158 103 0 255
-100.000000 110.000000 -20.000000 -0.298380 -0.331201 0.895140 190 124 0 255
140.000000 240.000000 28.000000 0.000000 -0.346374 0.938096 158 103 0 255
100.000000 110.000000 -20.000000 0.000000 -0.346374 0.938096 190 124 0 255
140.000000 110.000000 -20.000000 0.000000 -0.346374 0.938096 190 124 0 255
-99.994896 239.953033 28.084272 0.000000 -0.347019 0.937858 158 103 0 255
-140.000000 110.000000 -20.000000 0.000000 -0.347019 0.937858 190 124 0 255
-100.000000 110.000000 -20.000000 0.000000 -0.347019 0.937858 190 124 0 255
40.000000 110.000000 0.000000 0.000000 -0.317989 0.948094 190 124 0 255
-39.923222 239.205490 43.335239 0.000000 -0.317989 0.948094 158 103 0 255
-40.000000 110.000000 0.000000 0.000000 -0.317989 0.948094 190 124 0 255
-140.000000 240.000000 28.000000 0.942282 -0.115973 0.314094 158 103 0 255
-160.000000 110.000000 40.000000 0.942282 -0.115973 0.314094 190 124 0 255
-140.000000 110.000000 -20.000000 0.942282 -0.115973 0.314094 190 124 0 255
160.000000 240.000000 70.000000 -1.000000 0.000000 0.000000 158 103 0 255
160.000000 110.000000 40.000000 -1.000000 0.000000 0.000000 190 124 0 255
-159.999100 239.990341 70.018051 1.000000 -0.000007 0.000000 158 103 0 255
-160.000000 110.000000 100.000000 1.000000 -0.000007 0.000000 190 124 0 255
-160.000000 110.000000 40.000000 1.000000 -0.000007 0.000000 190 124 0 255
160.000000 110.000000 40.000000 -0.942282 -0.115973 0.314094 190 124 0 255
140.000000 240.000000 28.000000 -0.942282 -0.115973 0.314094 158 103 0 255
140.000000 110.000000 -20.000000 -0.942282 -0.115973 0.314094 190 124 0 255
-159.800369 237.415054 117.073479 0.368523 -0.124032 0.921307 158 103 0 255
-260.000000 110.000000 140.000000 0.368523 -0.124032 0.921307 190 124 0 255
-160.000000 110.000000 100.000000 0.368523 -0.124032 0.921307 190 124 0 255
100.000000 240.000000 28.000000 0.298448 -0.330588 0.895344 158 103 0 255
40.000000 110.000000 0.000000 0.298448 -0.330588 0.895344 190 124 0 255
100.000000 110.000000 -20.000000 0.298448 -0.330588 0.895344 190 124 0 255
-260.001862 239.956223 140.173935 0.000000 -0.001338 0.999999 158 103 0 255
-440.000000 110.000000 140.000000 0.000000 -0.001338 0.999999 190 124 0 255
-260.000000 110.000000 140.000000 0.000000 -0.001338 0.999999 190 124 0 255
260.000000 110.000000 140.000000 -0.370034 -0.085392 0.925085 190 124 0 255
160.000000 240.000000 112.000000 -0.370034 -0.085392 0.925085 158 103 0 255
160.000000 110.000000 100.000000 -0.370034 -0.085392 0.925085 190 124 0 255
40.901012 317.004974 137.382370 0.018225 -0.778034 0.627958 124 81 0 255
-39.923222 239.205490 43.335239 0.018225 -0.778034 0.627958 158 103 0 255
40.000000 240.000000 42.000000 0.018225 -0.778034 0.627958 158 103 0 255
-138.043396 305.813721 159.581528 0.675977 -0.663050 0.321589 124 81 0 255
-159.999100 239.990341 70.018051 0.675977 -0.663050 0.321589 158 103 0 255
-140.000000 240.000000 28.000000 0.675977 -0.663050 0.321589 158 103 0 255
160.000000 240.000000 112.000000 -0.999995 0.003280 0.000000 158 103 0 255
160.285324 326.996185 124.106064 -0.999995 0.003280 0.000000 124 81 0 255
160.000000 240.000000 70.000000 -0.999995 0.003280 0.000000 158 103 0 255
-158.604477 311.989838 161.358551 0.999902 -0.013101 -0.004940 124 81 0 255
-159.800369 237.415054 117.073479 0.999902 -0.013101 -0.004940 158 103 0 255
-159.999100 239.990341 70.018051 0.999902 -0.013101 -0.004940 158 103 0 255
160.000000 240.000000 70.000000 -0.826974 -0.401295 0.393797 158 103 0 255
140.503815 324.721771 115.392937 -0.826974 -0.401295 0.393797 124 81 0 255
140.000000 240.000000 28.000000 -0.826974 -0.401295 0.393797 158 103 0 255
-158.838562 315.121216 167.080139 0.177027 -0.534163 0.826639 124 81 0 255
-260.001862 239.956223 140.173935 0.177027 -0.534163 0.826639 158 103 0 255
-159.800369 237.415054 117.073479 0.177027 -0.534163 0.826639 158 103 0 255
101.025635 319.666229 124.570450 0.146662 -0.763813 0.628553 124 81 0 255
40.000000 240.000000 42.000000 0.146662 -0.763813 0.628553 158 103 0 255
100.000000 240.000000 28.000000 0.146662 -0.763813 0.628553 158 103 0 255
-259.743073 319.698669 177.749695 -0.000568 -0.426259 0.904601 124 81 0 255
-570.000000 240.000000 140.000000 -0.000568 -0.426259 0.904601 158 103 0 255
-260.001862 239.956223 140.173935 -0.000568 -0.426259 0.904601 158 103 0 255
260.000000 240.000000 140.000000 -0.260022 -0.264566 0.928651 158 103 0 255
160.291870 326.928741 136.847122 -0.260022 -0.264566 0.928651 124 81 0 255
160.000000 240.000000 112.000000 -0.260022 -0.264566 0.928651 158 103 0 255
570.000000 240.000000 140.000000 0.000000 -0.000403 1.000000 158 103 0 255
259.999969 329.988312 140.036285 0.000000 -0.000403 1.000000 124 81 0 255
260.000000 240.000000 140.000000 0.000000 -0.000403 1.000000 158 103 0 255
-39.923222 239.205490 43.335239 -0.123713 -0.887551 0.443788 158 103 0 255
-98.243126 306.054474 160.771896 -0.123713 -0.887551 0.443788 124 81 0 255
-99.994896 239.953033 28.084272 -0.123713 -0.887551 0.443788 158 103 0 255
140.503815 324.721771 115.392937 0.000000 -0.717994 0.696049 124 81 0 255
100.000000 240.000000 28.000000 0.000000 -0.717994 0.696049 158 103 0 255
140.000000 240.000000 28.000000 0.000000 -0.717994 0.696049 158 103 0 255
-99.994896 239.953033 28.084272 -0.001992 -0.894351 0.447361 158 103 0 255
-138.043396 305.813721 159.581528 -0.001992 -0.894351 0.447361 124 81 0 255
-140.000000 240.000000 28.000000 -0.001992 -0.894351 0.447361 158 103 0 255
-158.823288 341.492157 192.210495 0.045204 -0.689182 0.723177 124 81 0 255
-259.743073 319.698669 177.749695 0.045204 -0.689182 0.723177 124 81 0 255
-158.838562 315.121216 167.080139 0.045204 -0.689182 0.723177 124 81 0 255
100.378830 350.498566 162.430115 0.166818 -0.763136 0.624336 124 81 0 255
40.901012 317.004974 137.382370 0.166818 -0.763136 0.624336 124 81 0 255
101.025635 319.666229 124.570450 0.166818 -0.763136 0.624336 124 81 0 255
-259.458649 345.462860 192.071579 -0.094534 -0.482888 0.870564 124 81 0 255
-660.000000 330.000000 140.000000 -0.094534 -0.482888 0.870564 124 81 0 255
-259.743073 319.698669 177.749695 -0.094534 -0.482888 0.870564 124 81 0 255
259.999969 329.988312 140.036285 -0.016796 -0.405366 0.914000 124 81 0 255
160.097977 356.071686 149.768661 -0.016796 -0.405366 0.914000 124 81 0 255
160.291870 326.928741 136.847122 -0.016796 -0.405366 0.914000 124 81 0 255
660.000000 330.000000 140.000000 0.000094 -0.165669 0.986181 124 81 0 255
259.959045 358.498627 144.825760 0.000094 -0.165669 0.986181 124 81 0 255
259.999969 329.988312 140.036285 0.000094 -0.165669 0.986181 124 81 0 255
-38.995399 343.093689 177.236832 0.130016 -0.568944 0.812034 124 81 0 255
-98.243126 306.054474 160.771896 0.130016 -0.568944 0.812034 124 81 0 255
-38.542130 309.640961 153.725922 0.130016 -0.568944 0.812034 124 81 0 255
140.460052 352.083008 157.194489 0.228296 -0.814494 0.533367 124 81 0 255
101.025635 319.666229 124.570450 0.228296 -0.814494 0.533367 124 81 0 255
140.503815 324.721771 115.392937 0.228296 -0.814494 0.533367 124 81 0 255
-98.794937 342.611267 183.359833 -0.022252 -0.525753 0.850346 124 81 0 255
-138.043396 305.813721 159.581528 -0.022252 -0.525753 0.850346 124 81 0 255
-98.243126 306.054474 160.771896 -0.022252 -0.525753 0.850346 124 81 0 255
40.675335 345.510559 173.473053 0.196453 -0.768856 0.608496 124 81 0 255
-38.542130 309.640961 153.725922 0.196453 -0.768856 0.608496 124 81 0 255
40.901012 317.004974 137.382370 0.196453 -0.768856 0.608496 124 81 0 255
-138.698608 342.260529 186.272003 -0.107576 -0.588658 0.801193 124 81 0 255
-158.604477 311.989838 161.358551 -0.107576 -0.588658 0.801193 124 81 0 255
-138.043396 305.813721 159.581528 -0.107576 -0.588658 0.801193 124 81 0 255
160.291870 326.928741 136.847122 -0.999976 -0.006865 0.000477 124 81 0 255
160.097977 356.071686 149.768661 -0.999976 -0.006865 0.000477 124 81 0 255
160.285324 326.996185 124.106064 -0.999976 -0.006865 0.000477 124 81 0 255
-158.604477 311.989838 161.358551 0.992943 -0.082114 0.085564 124 81 0 255
-158.823288 341.492157 192.210495 0.992943 -0.082114 0.085564 124 81 0 255
-158.838562 315.121216 167.080139 0.992943 -0.082114 0.085564 124 81 0 255
160.285324 326.996185 124.106064 -0.143472 -0.828112 0.541891 124 81 0 255
140.460052 352.083008 157.194489 -0.143472 -0.828112 0.541891 124 81 0 255
140.503815 324.721771 115.392937 -0.143472 -0.828112 0.541891 124 81 0 255
-599.495056 858.719788 233.361496 -0.136699 0.141806 0.980410 0 0 0 255
-1026.117188 689.126709 198.407257 -0.136699 0.141806 0.980410 124 81 0 255
-516.930542 683.874512 270.163086 -0.136699 0.141806 0.980410 124 81 0 255
-138.698608 342.260529 186.272003 0.071511 -0.334897 0.939537 124 81 0 255
-98.794937 342.611267 183.359833 0.071511 -0.334897 0.939537 124 81 0 255
0.630613 492.158142 229.098053 0.071511 -0.334897 0.939537 124 81 0 255
-516.930542 683.874512 270.163086 0.035936 -0.298319 0.953789 124 81 0 255
-856.473938 520.013306 231.704742 0.035936 -0.298319 0.953789 124 81 0 255
-429.133240 516.139526 214.392273 0.035936 -0.298319 0.953789 124 81 0 255
856.666626 526.666626 140.000000 0.000084 -0.654798 0.755804 124 81 0 255
507.854706 677.951721 271.106049 0.000084 -0.654798 0.755804 124 81 0 255
428.333069 526.654541 140.037048 0.000084 -0.654798 0.755804 124 81 0 255
428.333069 526.654541 140.037048 0.211255 -0.112544 0.970930 124 81 0 255
-6.046302 678.954712 252.203140 0.211255 -0.112544 0.970930 124 81 0 255
0.630613 492.158142 229.098053 0.211255 -0.112544 0.970930 124 81 0 255
-6.046302 678.954712 252.203140 -0.040849 -0.124091 0.991430 124 81 0 255
-429.133240 516.139526 214.392273 -0.040849 -0.124091 0.991430 124 81 0 255
0.630613 492.158142 229.098053 -0.040849 -0.124091 0.991430 124 81 0 255
1022.752014 680.599365 257.956207 0.025852 -0.314173 0.949014 124 81 0 255
591.925598 843.334229 323.566132 0.025852 -0.314173 0.949014 0 0 0 255
507.854706 677.951721 271.106049 0.025852 -0.314173 0.949014 124 81 0 255
507.854706 677.951721 271.106049 -0.036806 -0.067101 0.997067 124 81 0 255
-7.865388 845.903809 263.371368 -0.036806 -0.067101 0.997067 0 0 0 255
-6.046302 678.954712 252.203140 -0.036806 -0.067101 0.997067 124 81 0 255
-7.865388 845.903809 263.371368 0.034418 -0.066334 0.997204 0 0 0 255
-516.930542 683.874512 270.163086 0.034418 -0.066334 0.997204 124 81 0 255
-6.046302 678.954712 252.203140 0.034418 -0.066334 0.997204 124 81 0 255
689.384155 1354.224731 436.615753 -0.982832 0.000000 0.184503 114 64 0 255
603.335205 1592.595459 -21.760094 -0.982832 0.000000 0.184503 0 0 0 255
603.335205 1268.175781 -21.760094 -0.982832 0.000000 0.184503 0 0 0 255
689.384155 1506.546509 436.615753 -0.000000 0.982832 0.184503 114 64 0 255
927.754761 1592.595459 -21.760094 -0.000000 0.982832 0.184503 0 0 0 255
603.335205 1592.595459 -21.760094 -0.000000 0.982832 0.184503 0 0 0 255
841.705811 1506.546509 436.615753 0.982832 0.000000 0.184503 114 64 0 255
927.754761 1268.175781 -21.760094 0.982832 0.000000 0.184503 0 0 0 255
927.754761 1592.595459 -21.760094 0.982832 0.000000 0.184503 0 0 0 255
841.705811 1354.224731 436.615753 0.000000 -0.982832 0.184503 114 64 0 255
603.335205 1268.175781 -21.760094 0.000000 -0.982832 0.184503 0 0 0 255
927.754761 1268.175781 -21.760094 0.000000 -0.982832 0.184503 0 0 0 255
927.754761 1592.595459 -21.760094 0.000000 0.000000 -1.000000 0 0 0 255
603.335205 1268.175781 -21.760094 0.000000 0.000000 -1.000000 0 0 0 255
603.335205 1592.595459 -21.760094 0.000000 0.000000 -1.000000 0 0 0 255
689.384155 1354.224731 436.615753 0.000000 -0.994066 0.108777 114 64 0 255
841.705811 1354.224731 436.615753 0.000000 -0.994066 0.108777 114 64 0 255
765.544983 1430.385620 1132.615723 0.000000 -0.994066 0.108777 190 107 0 255
841.705811 1506.546509 436.615753 -0.000000 0.994066 0.108777 114 64 0 255
689.384155 1506.546509 436.615753 -0.000000 0.994066 0.108777 114 64 0 255
765.544983 1430.385620 1132.615723 -0.000000 0.994066 0.108777 190 107 0 255
841.705811 1354.224731 436.615753 0.994066 0.000000 0.108777 114 64 0 255
841.705811 1506.546509 436.615753 0.994066 0.000000 0.108777 114 64 0 255
765.544983 1430.385620 1132.615723 0.994066 0.000000 0.108777 190 107 0 255
689.384155 1506.546509 436.615753 -0.994066 0.000000 0.108777 114 64 0 255
689.384155 1354.224731 436.615753 -0.994066 0.000000 0.108777 114 64 0 255
765.544983 1430.385620 1132.615723 -0.994066 0.000000 0.108777 190 107 0 255
16.664429 1651.985840 572.935425 -0.989693 0.000000 0.143203 114 64 0 255
-69.384521 1890.356567 -21.760094 -0.989693 0.000000 0.143203 0 0 0 255
-69.384521 1565.936890 -21.760094 -0.989693 0.000000 0.143203 0 0 0 255
16.664429 1804.307617 572.935425 -0.000000 0.989693 0.143203 114 64 0 255
255.035034 1890.356567 -21.760094 -0.000000 0.989693 0.143203 0 0 0 255
-69.384521 1890.356567 -21.760094 -0.000000 0.989693 0.143203 0 0 0 255
168.986084 1804.307617 572.935425 0.989693 0.000000 0.143203 114 64 0 255
255.035034 1565.936890 -21.760094 0.989693 0.000000 0.143203 0 0 0 255
255.035034 1890.356567 -21.760094 0.989693 0.000000 0.143203 0 0 0 255
168.986084 1651.985840 572.935425 0.000000 -0.989693 0.143203 114 64 0 255
-69.384521 1565.936890 -21.760094 0.000000 -0.989693 0.143203 0 0 0 255
255.035034 1565.936890 -21.760094 0.000000 -0.989693 0.143203 0 0 0 255
255.035034 1890.356567 -21.760094 0.000000 0.000000 -1.000000 0 0 0 255
-69.384521 1565.936890 -21.760094 0.000000 0.000000 -1.000000 0 0 0 255
-69.384521 1890.356567 -21.760094 0.000000 0.000000 -1.000000 0 0 0 255
16.664429 1651.985840 572.935425 0.000000 -0.979821 0.199875 114 64 0 255
168.986084 1651.985840 572.935425 0.000000 -0.979821 0.199875 114 64 0 255
92.825256 1728.146729 946.288879 0.000000 -0.979821 0.199875 190 107 0 255
168.986084 1804.307617 572.935425 -0.000000 0.979821 0.199875 114 64 0 255
16.664429 1804.307617 572.935425 -0.000000 0.979821 0.199875 114 64 0 255
92.825256 1728.146729 946.288879 -0.000000 0.979821 0.199875 190 107 0 255
168.986084 1651.985840 572.935425 0.979821 0.000000 0.199875 114 64 0 255
168.986084 1804.307617 572.935425 0.979821 0.000000 0.199875 114 64 0 255
92.825256 1728.146729 946.288879 0.979821 0.000000 0.199875 190 107 0 255
16.664429 1804.307617 572.935425 -0.979821 0.000000 0.199875 114 64 0 255
16.664429 1651.985840 572.935425 -0.979821 0.000000 0.199875 114 64 0 255
92.825256 1728.146729 946.288879 -0.979821 0.000000 0.199875 190 107 0 255
-1058.584229 1370.766968 436.615753 -0.982832 0.000000 0.184503 114 64 0 255
-1144.633179 1609.137695 -21.760094 -0.982832 0.000000 0.184503 0 0 0 255
-1144.633179 1284.718018 -21.760094 -0.982832 0.000000 0.184503 0 0 0 255
-1058.584229 1523.088745 436.615753 -0.000000 0.982832 0.184503 114 64 0 255
-820.213623 1609.137695 -21.760094 -0.000000 0.982832 0.184503 114 64 0 255
-1144.633179 1609.137695 -21.760094 -0.000000 0.982832 0.184503 0 0 0 255
-906.262573 1523.088745 436.615753 0.982832 0.000000 0.184503 114 64 0 255
-820.213623 1284.718018 -21.760094 0.982832 0.000000 0.184503 114 64 0 255
-820.213623 1609.137695 -21.760094 0.982832 0.000000 0.184503 114 64 0 255
-906.262573 1370.766968 436.615753 0.000000 -0.982832 0.184503 114 64 0 255
-1144.633179 1284.718018 -21.760094 0.000000 -0.982832 0.184503 0 0 0 255
-820.213623 1284.718018 -21.760094 0.000000 -0.982832 0.184503 114 64 0 255
-820.213623 1609.137695 -21.760094 0.000000 0.000000 -1.000000 114 64 0 255
-1144.633179 1284.718018 -21.760094 0.000000 0.000000 -1.000000 0 0 0 255
-1144.633179 1609.137695 -21.760094 0.000000 0.000000 -1.000000 0 0 0 255
-1058.584229 1370.766968 436.615753 0.000001 -0.994066 0.108777 114 64 0 255
-932.413391 1396.917847 675.596436 0.000001 -0.994066 0.108777 190 107 0 255
-1026.925781 1402.425415 725.928223 0.000001 -0.994066 0.108777 190 107 0 255
-906.262573 1370.766968 436.615753 0.994066 -0.000000 0.108777 114 64 0 255
-930.291565 1499.059692 656.206299 0.994066 -0.000000 0.108777 190 107 0 255
-932.413391 1396.917847 675.596436 0.994066 -0.000000 0.108777 190 107 0 255
-429.977356 1139.174927 263.345520 -0.957347 0.000000 0.288941 114 64 0 255
-516.026306 1377.545654 -21.760094 -0.957347 0.000000 0.288941 0 0 0 255
-516.026306 1053.125977 -21.760094 -0.957347 0.000000 0.288941 0 0 0 255
-429.977356 1291.496704 263.345520 -0.000000 0.957347 0.288941 114 64 0 255
-191.606750 1377.545654 -21.760094 -0.000000 0.957347 0.288941 0 0 0 255
-516.026306 1377.545654 -21.760094 -0.000000 0.957347 0.288941 0 0 0 255
-277.655701 1291.496704 263.345520 0.957347 0.000000 0.288941 114 64 0 255
-191.606750 1053.125977 -21.760094 0.957347 0.000000 0.288941 0 0 0 255
-191.606750 1377.545654 -21.760094 0.957347 0.000000 0.288941 0 0 0 255
-277.655701 1139.174927 263.345520 0.000000 -0.957347 0.288941 114 64 0 255
-516.026306 1053.125977 -21.760094 0.000000 -0.957347 0.288941 0 0 0 255
-191.606750 1053.125977 -21.760094 0.000000 -0.957347 0.288941 0 0 0 255
-191.606750 1377.545654 -21.760094 0.000000 0.000000 -1.000000 0 0 0 255
-516.026306 1053.125977 -21.760094 0.000000 0.000000 -1.000000 0 0 0 255
-516.026306 1377.545654 -21.760094 0.000000 0.000000 -1.000000 0 0 0 255
-429.977356 1139.174927 263.345520 0.000000 -0.990612 0.136702 114 64 0 255
-277.655701 1139.174927 263.345520 0.000000 -0.990612 0.136702 114 64 0 255
-353.816528 1215.335815 815.246094 0.000000 -0.990612 0.136702 190 107 0 255
-277.655701 1291.496704 263.345520 -0.000000 0.990612 0.136702 114 64 0 255
-429.977356 1291.496704 263.345520 -0.000000 0.990612 0.136702 114 64 0 255
-353.816528 1215.335815 815.246094 -0.000000 0.990612 0.136702 190 107 0 255
-277.655701 1139.174927 263.345520 0.990612 0.000000 0.136702 114 64 0 255
-277.655701 1291.496704 263.345520 0.990612 0.000000 0.136702 114 64 0 255
-353.816528 1215.335815 815.246094 0.990612 0.000000 0.136702 190 107 0 255
-429.977356 1291.496704 263.345520 -0.990612 0.000000 0.136702 114 64 0 255
-429.977356 1139.174927 263.345520 -0.990612 0.000000 0.136702 114 64 0 255
-353.816528 1215.335815 815.246094 -0.990612 0.000000 0.136702 190 107 0 255
-100.000000 110.000000 -20.000000 -0.316228 0.000000 0.948683 190 124 0 255
100.000000 110.000000 -20.000000 0.000000 0.000000 1.000000 190 124 0 255
-140.000000 110.000000 -20.000000 0.000000 0.000000 1.000000 190 124 0 255
-40.000000 110.000000 0.000000 0.000000 0.000000 1.000000 190 124 0 255
-160.000000 110.000000 40.000000 0.948683 -0.000000 0.316228 190 124 0 255
-160.000000 110.000000 100.000000 1.000000 -0.000000 0.000000 190 124 0 255
140.000000 110.000000 -20.000000 -0.948683 0.000000 0.316228 190 124 0 255
-260.000000 110.000000 140.000000 0.371391 -0.000000 0.928477 190 124 0 255
40.000000 110.000000 0.000000 0.316228 -0.000000 0.948683 190 124 0 255
-440.000000 110.000000 140.000000 0.000000 -0.000000 1.000000 190 124 0 255
160.000000 110.000000 100.000000 -0.371391 0.000000 0.928477 190 124 0 255
570.000000 240.000000 140.000000 -0.000000 0.000000 1.000000 158 103 0 255
-40.000000 110.000000 0.000000 -0.237658 -0.308751 0.920973 190 124 0 255
-39.923222 239.205490 43.335239 -0.237658 -0.308751 0.920973 158 103 0 255
-99.994896 239.953033 28.084272 -0.237658 -0.308751 0.920973 158 103 0 255
100.000000 240.000000 28.000000 0.000000 -0.346374 0.938096 158 103 0 255
-99.994896 239.953033 28.084272 -0.002383 -0.346373 0.938094 158 103 0 255
-140.000000 240.000000 28.000000 -0.002383 -0.346373 0.938094 158 103 0 255
-140.000000 110.000000 -20.000000 -0.002383 -0.346373 0.938094 190 124 0 255
40.000000 110.000000 0.000000 0.018950 -0.307375 0.951400 190 124 0 255
40.000000 240.000000 42.000000 0.018950 -0.307375 0.951400 158 103 0 255
-39.923222 239.205490 43.335239 0.018950 -0.307375 0.951400 158 103 0 255
-140.000000 240.000000 28.000000 0.898534 -0.098761 0.427648 158 103 0 255
-159.999100 239.990341 70.018051 0.898534 -0.098761 0.427648 158 103 0 255
-160.000000 110.000000 40.000000 0.898534 -0.098761 0.427648 190 124 0 255
160.000000 240.000000 112.000000 -1.000000 -0.000000 0.000000 158 103 0 255
-159.999100 239.990341 70.018051 0.999990 -0.000994 -0.004278 158 103 0 255
-159.800369 237.415054 117.073479 0.999990 -0.000994 -0.004278 158 103 0 255
-160.000000 110.000000 100.000000 0.999990 -0.000994 -0.004278 190 124 0 255
160.000000 110.000000 40.000000 -0.898449 -0.098731 0.427833 190 124 0 255
160.000000 240.000000 70.000000 -0.898449 -0.098731 0.427833 158 103 0 255
140.000000 240.000000 28.000000 -0.898449 -0.098731 0.427833 158 103 0 255
-159.800369 237.415054 117.073479 0.224616 -0.001301 0.974447 158 103 0 255
-260.001862 239.956223 140.173935 0.224616 -0.001301 0.974447 158 103 0 255
-260.000000 110.000000 140.000000 0.224616 -0.001301 0.974447 190 124 0 255
100.000000 240.000000 28.000000 0.216755 -0.300122 0.928948 158 103 0 255
40.000000 240.000000 42.000000 0.216755 -0.300122 0.928948 158 103 0 255
40.000000 110.000000 0.000000 0.216755 -0.300122 0.928948 190 124 0 255
-260.001862 239.956223 140.173935 -0.000561 -0.000561 1.000000 158 103 0 255
-570.000000 240.000000 140.000000 -0.000561 -0.000561 1.000000 158 103 0 255
-440.000000 110.000000 140.000000 -0.000561 -0.000561 1.000000 190 124 0 255
260.000000 110.000000 140.000000 -0.269630 0.000000 0.962964 190 124 0 255
260.000000 240.000000 140.000000 -0.269630 0.000000 0.962964 158 103 0 255
160.000000 240.000000 112.000000 -0.269630 0.000000 0.962964 158 103 0 255
40.901012 317.004974 137.382370 0.185291 -0.829466 0.526928 124 81 0 255
-38.542130 309.640961 153.725922 0.185291 -0.829466 0.526928 124 81 0 255
-39.923222 239.205490 43.335239 0.185291 -0.829466 0.526928 158 103 0 255
-138.043396 305.813721 159.581528 -0.178912 -0.771347 0.610749 124 81 0 255
-158.604477 311.989838 161.358551 -0.178912 -0.771347 0.610749 124 81 0 255
-159.999100 239.990341 70.018051 -0.178912 -0.771347 0.610749 158 103 0 255
160.000000 240.000000 112.000000 -0.999995 0.003206 0.000531 158 103 0 255
160.291870 326.928741 136.847122 -0.999995 0.003206 0.000531 124 81 0 255
160.285324 326.996185 124.106064 -0.999995 0.003206 0.000531 124 81 0 255
-158.604477 311.989838 161.358551 0.995536 -0.059484 0.073285 124 81 0 255
-158.838562 315.121216 167.080139 0.995536 -0.059484 0.073285 124 81 0 255
-159.800369 237.415054 117.073479 0.995536 -0.059484 0.073285 158 103 0 255
160.000000 240.000000 70.000000 -0.299228 -0.503221 0.810698 158 103 0 255
160.285324 326.996185 124.106064 -0.299228 -0.503221 0.810698 124 81 0 255
140.503815 324.721771 115.392937 -0.299228 -0.503221 0.810698 124 81 0 255
-158.838562 315.121216 167.080139 0.076074 -0.425227 0.901884 124 81 0 255
-259.743073 319.698669 177.749695 0.076074 -0.425227 0.901884 124 81 0 255
-260.001862 239.956223 140.173935 0.076074 -0.425227 0.901884 158 103 0 255
101.025635 319.666229 124.570450 0.165798 -0.768075 0.618523 124 81 0 255
40.901012 317.004974 137.382370 0.165798 -0.768075 0.618523 124 81 0 255
40.000000 240.000000 42.000000 0.165798 -0.768075 0.618523 158 103 0 255
-259.743073 319.698669 177.749695 -0.095910 -0.095910 0.990758 124 81 0 255
-660.000000 330.000000 140.000000 -0.095910 -0.095910 0.990758 124 81 0 255
-570.000000 240.000000 140.000000 -0.095910 -0.095910 0.990758 158 103 0 255
260.000000 240.000000 140.000000 -0.031956 -0.000403 0.999489 158 103 0 255
259.999969 329.988312 140.036285 -0.031956 -0.000403 0.999489 124 81 0 255
160.291870 326.928741 136.847122 -0.031956 -0.000403 0.999489 124 81 0 255
570.000000 240.000000 140.000000 0.000091 -0.000091 1.000000 158 103 0 255
660.000000 330.000000 140.000000 0.000091 -0.000091 1.000000 124 81 0 255
259.999969 329.988312 140.036285 0.000091 -0.000091 1.000000 124 81 0 255
-39.923222 239.205490 43.335239 0.113310 -0.838227 0.533419 158 103 0 255
-38.542130 309.640961 153.725922 0.113310 -0.838227 0.533419 124 81 0 255
-98.243126 306.054474 160.771896 0.113310 -0.838227 0.533419 124 81 0 255
140.503815 324.721771 115.392937 0.239355 -0.750214 0.616350 124 81 0 255
101.025635 319.666229 124.570450 0.239355 -0.750214 0.616350 124 81 0 255
100.000000 240.000000 28.000000 0.239355 -0.750214 0.616350 158 103 0 255
-99.994896 239.953033 28.084272 -0.007925 -0.895010 0.445975 158 103 0 255
-98.243126 306.054474 160.771896 -0.007925 -0.895010 0.445975 124 81 0 255
-138.043396 305.813721 159.581528 -0.007925 -0.895010 0.445975 124 81 0 255
-158.823288 341.492157 192.210495 -0.020366 -0.485589 0.873950 124 81 0 255
-259.458649 345.462860 192.071579 -0.020366 -0.485589 0.873950 124 81 0 255
-259.743073 319.698669 177.749695 -0.020366 -0.485589 0.873950 124 81 0 255
100.378830 350.498566 162.430115 0.177428 -0.771755 0.610666 124 81 0 255
40.675335 345.510559 173.473053 0.177428 -0.771755 0.610666 124 81 0 255
40.901012 317.004974 137.382370 0.177428 -0.771755 0.610666 124 81 0 255
-259.458649 345.462860 192.071579 -0.101738 -0.412741 0.905149 124 81 0 255
-690.239685 358.787048 149.727768 -0.101738 -0.412741 0.905149 124 81 0 255
-660.000000 330.000000 140.000000 -0.101738 -0.412741 0.905149 124 81 0 255
259.999969 329.988312 140.036285 0.052765 -0.165365 0.984820 124 81 0 255
259.959045 358.498627 144.825760 0.052765 -0.165365 0.984820 124 81 0 255
160.097977 356.071686 149.768661 0.052765 -0.165365 0.984820 124 81 0 255
660.000000 330.000000 140.000000 0.011260 -0.011260 0.999873 124 81 0 255
690.000000 360.000000 140.000000 0.011260 -0.011260 0.999873 124 81 0 255
259.959045 358.498627 144.825760 0.011260 -0.011260 0.999873 124 81 0 255
-38.995399 343.093689 177.236832 0.091022 -0.522463 0.847789 124 81 0 255
-98.794937 342.611267 183.359833 0.091022 -0.522463 0.847789 124 81 0 255
-98.243126 306.054474 160.771896 0.091022 -0.522463 0.847789 124 81 0 255
140.460052 352.083008 157.194489 0.112533 -0.769531 0.628617 124 81 0 255
100.378830 350.498566 162.430115 0.112533 -0.769531 0.628617 124 81 0 255
101.025635 319.666229 124.570450 0.112533 -0.769531 0.628617 124 81 0 255
-98.794937 342.611267 183.359833 0.063975 -0.588869 0.805692 124 81 0 255
-138.698608 342.260529 186.272003 0.063975 -0.588869 0.805692 124 81 0 255
-138.043396 305.813721 159.581528 0.063975 -0.588869 0.805692 124 81 0 255
40.675335 345.510559 173.473053 0.056007 -0.573594 0.817223 124 81 0 255
-38.995399 343.093689 177.236832 0.056007 -0.573594 0.817223 124 81 0 255
-38.542130 309.640961 153.725922 0.056007 -0.573594 0.817223 124 81 0 255
-138.698608 342.260529 186.272003 0.225772 -0.703277 0.674113 124 81 0 255
-158.823288 341.492157 192.210495 0.225772 -0.703277 0.674113 124 81 0 255
-158.604477 311.989838 161.358551 0.225772 -0.703277 0.674113 124 81 0 255
160.285324 326.996185 124.106064 0.385747 -0.609120 0.692944 124 81 0 255
160.097977 356.071686 149.768661 0.385747 -0.609120 0.692944 124 81 0 255
140.460052 352.083008 157.194489 0.385747 -0.609120 0.692944 124 81 0 255
-599.495056 858.719788 233.361496 -0.148058 0.171711 0.973958 0 0 0 255
-1190.236572 859.739929 143.378830 -0.148058 0.171711 0.973958 0 0 0 255
-1026.117188 689.126709 198.407257 -0.148058 0.171711 0.973958 124 81 0 255
100.378830 350.498566 162.430115 0.134991 -0.342514 0.929764 124 81 0 255
140.460052 352.083008 157.194489 0.134991 -0.342514 0.929764 124 81 0 255
0.630613 492.158142 229.098053 0.134991 -0.342514 0.929764 124 81 0 255
140.460052 352.083008 157.194489 0.370224 -0.104258 0.923073 124 81 0 255
160.097977 356.071686 149.768661 0.370224 -0.104258 0.923073 124 81 0 255
0.630613 492.158142 229.098053 0.370224 -0.104258 0.923073 124 81 0 255
259.959045 358.498627 144.825760 0.011159 0.017298 0.999788 124 81 0 255
690.000000 360.000000 140.000000 0.011159 0.017298 0.999788 124 81 0 255
428.333069 526.654541 140.037048 0.011159 0.017298 0.999788 124 81 0 255
690.000000 360.000000 140.000000 0.000086 -0.000086 1.000000 124 81 0 255
856.666626 526.666626 140.000000 0.000086 -0.000086 1.000000 124 81 0 255
428.333069 526.654541 140.037048 0.000086 -0.000086 1.000000 124 81 0 255
40.675335 345.510559 173.473053 0.197678 -0.300005 0.933231 124 81 0 255
100.378830 350.498566 162.430115 0.197678 -0.300005 0.933231 124 81 0 255
0.630613 492.158142 229.098053 0.197678 -0.300005 0.933231 124 81 0 255
160.097977 356.071686 149.768661 0.055052 -0.453917 0.889342 124 81 0 255
259.959045 358.498627 144.825760 0.055052 -0.453917 0.889342 124 81 0 255
0.630613 492.158142 229.098053 0.055052 -0.453917 0.889342 124 81 0 255
428.333069 526.654541 140.037048 0.214722 -0.187706 0.958468 124 81 0 255
0.630613 492.158142 229.098053 0.214722 -0.187706 0.958468 124 81 0 255
259.959045 358.498627 144.825760 0.214722 -0.187706 0.958468 124 81 0 255
0.630613 492.158142 229.098053 -0.043259 -0.171716 0.984196 124 81 0 255
-429.133240 516.139526 214.392273 -0.043259 -0.171716 0.984196 124 81 0 255
-259.458649 345.462860 192.071579 -0.043259 -0.171716 0.984196 124 81 0 255
-429.133240 516.139526 214.392273 0.032768 -0.425941 0.904157 124 81 0 255
-856.473938 520.013306 231.704742 0.032768 -0.425941 0.904157 124 81 0 255
-690.239685 358.787048 149.727768 0.032768 -0.425941 0.904157 124 81 0 255
-259.458649 345.462860 192.071579 -0.102232 -0.228253 0.968220 124 81 0 255
-429.133240 516.139526 214.392273 -0.102232 -0.228253 0.968220 124 81 0 255
-690.239685 358.787048 149.727768 -0.102232 -0.228253 0.968220 124 81 0 255
-259.458649 345.462860 192.071579 -0.010320 -0.227477 0.973729 124 81 0 255
-158.823288 341.492157 192.210495 -0.010320 -0.227477 0.973729 124 81 0 255
0.630613 492.158142 229.098053 -0.010320 -0.227477 0.973729 124 81 0 255
-158.823288 341.492157 192.210495 0.264585 -0.484204 0.833991 124 81 0 255
-138.698608 342.260529 186.272003 0.264585 -0.484204 0.833991 124 81 0 255
0.630613 492.158142 229.098053 0.264585 -0.484204 0.833991 124 81 0 255
-98.794937 342.611267 183.359833 0.098205 -0.350191 0.931516 124 81 0 255
-38.995399 343.093689 177.236832 0.098205 -0.350191 0.931516 124 81 0 255
0.630613 492.158142 229.098053 0.098205 -0.350191 0.931516 124 81 0 255
-38.995399 343.093689 177.236832 0.054680 -0.341036 0.938459 124 81 0 255
40.675335 345.510559 173.473053 0.054680 -0.341036 0.938459 124 81 0 255
0.630613 492.158142 229.098053 0.054680 -0.341036 0.938459 124 81 0 255
-516.930542 683.874512 270.163086 -0.138768 0.055481 0.988770 124 81 0 255
-1026.117188 689.126709 198.407257 -0.138768 0.055481 0.988770 124 81 0 255
-856.473938 520.013306 231.704742 -0.138768 0.055481 0.988770 124 81 0 255
856.666626 526.666626 140.000000 0.023161 -0.623702 0.781319 124 81 0 255
1022.752014 680.599365 257.956207 0.023161 -0.623702 0.781319 124 81 0 255
507.854706 677.951721 271.106049 0.023161 -0.623702 0.781319 124 81 0 255
428.333069 526.654541 140.037048 -0.029329 -0.645641 0.763078 124 81 0 255
507.854706 677.951721 271.106049 -0.029329 -0.645641 0.763078 124 81 0 255
-6.046302 678.954712 252.203140 -0.029329 -0.645641 0.763078 124 81 0 255
-6.046302 678.954712 252.203140 0.030611 -0.300899 0.953165 124 81 0 255
-516.930542 683.874512 270.163086 0.030611 -0.300899 0.953165 124 81 0 255
-429.133240 516.139526 214.392273 0.030611 -0.300899 0.953165 124 81 0 255
1022.752014 680.599365 257.956207 0.159620 0.024704 0.986869 124 81 0 255
1189.619385 854.593323 226.610901 0.159620 0.024704 0.986869 0 0 0 255
591.925598 843.334229 323.566132 0.159620 0.024704 0.986869 0 0 0 255
507.854706 677.951721 271.106049 -0.097628 -0.255482 0.961872 124 81 0 255
591.925598 843.334229 323.566132 -0.097628 -0.255482 0.961872 0 0 0 255
-7.865388 845.903809 263.371368 -0.097628 -0.255482 0.961872 0 0 0 255
-7.865388 845.903809 263.371368 -0.045787 0.185002 0.981671 0 0 0 255
-599.495056 858.719788 233.361496 -0.045787 0.185002 0.981671 0 0 0 255
-516.930542 683.874512 270.163086 -0.045787 0.185002 0.981671 124 81 0 255
689.384155 1506.546509 436.615753 -0.982832 0.000000 0.184503 114 64 0 255
841.705811 1506.546509 436.615753 0.000000 0.982832 0.184503 114 64 0 255
841.705811 1354.224731 436.615753 0.982832 -0.000000 0.184503 114 64 0 255
689.384155 1354.224731 436.615753 0.000000 -0.982832 0.184503 114 64 0 255
927.754761 1268.175781 -21.760094 0.000000 0.000000 -1.000000 0 0 0 255
16.664429 1804.307617 572.935425 -0.989693 0.000000 0.143203 114 64 0 255
168.986084 1804.307617 572.935425 0.000000 0.989693 0.143203 114 64 0 255
168.986084 1651.985840 572.935425 0.989693 -0.000000 0.143203 114 64 0 255
16.664429 1651.985840 572.935425 0.000000 -0.989693 0.143203 114 64 0 255
255.035034 1565.936890 -21.760094 0.000000 0.000000 -1.000000 0 0 0 255
-1058.584229 1523.088745 436.615753 -0.982832 0.000000 0.184503 114 64 0 255
-906.262573 1523.088745 436.615753 0.000000 0.982832 0.184503 114 64 0 255
-906.262573 1370.766968 436.615753 0.982832 -0.000000 0.184503 114 64 0 255
-1058.584229 1370.766968 436.615753 0.000000 -0.982832 0.184503 114 64 0 255
-820.213623 1284.718018 -21.760094 0.000000 0.000000 -1.000000 114 64 0 255
-1058.584229 1370.766968 436.615753 0.000000 -0.994066 0.108777 114 64 0 255
-906.262573 1370.766968 436.615753 0.000000 -0.994066 0.108777 114 64 0 255
-932.413391 1396.917847 675.596436 0.000000 -0.994066 0.108777 190 107 0 255
-906.262573 1523.088745 436.615753 0.994066 0.000000 0.108777 114 64 0 255
-429.977356 1291.496704 263.345520 -0.957347 0.000000 0.288941 114 64 0 255
-277.655701 1291.496704 263.345520 0.000000 0.957347 0.288941 114 64 0 255
-277.655701 1139.174927 263.345520 0.957347 -0.000000 0.288941 114 64 0 255
-429.977356 1139.174927 263.345520 0.000000 -0.957347 0.288941 114 64 0 255
-191.606750 1053.125977 -21.760094 0.000000 0.000000 -1.000000 0 0 0 255
3 0 1 2
3 3 4 5
3 6 7 8
3 9 10 11
3 12 13 14
3 15 16 17
3 18 19 20
3 21 22 23
3 24 25 26
3 27 28 29
3 30 31 32
3 33 34 35
3 36 37 38
3 39 40 1
3 41 42 43
3 44 45 46
3 47 48 49
3 50 51 52
3 53 54 55
3 18 56 57
3 58 59 60
3 61 62 63
3 64 65 66
3 67 68 69
3 70 71 72
3 73 74 75
3 76 77 78
3 79 80 81
3 82 83 84
3 85 86 87
3 88 89 90
3 91 92 93
3 94 95 96
3 97 98 99
3 100 101 102
3 103 104 105
3 106 107 108
3 109 110 111
3 112 113 114
3 115 116 117
3 118 119 120
3 121 122 123
3 124 125 126
3 127 128 129
3 130 131 132
3 133 134 135
3 136 137 138
3 139 140 141
3 142 143 144
3 145 146 147
3 148 149 150
3 151 152 153
3 154 155 156
3 157 158 159
3 160 161 162
3 163 164 165
3 166 167 168
3 169 170 171
3 172 173 174
3 175 176 177
3 178 179 180
3 181 182 183
3 184 185 186
3 187 188 189
3 190 191 192
3 193 194 195
3 196 197 198
3 199 200 201
3 202 203 204
3 205 206 207
3 208 209 210
3 211 212 213
3 214 215 216
3 217 218 219
3 220 221 222
3 223 224 225
3 226 227 228
3 229 230 231
3 232 233 234
3 235 236 237
3 238 239 240
3 241 242 243
3 244 245 246
3 247 248 249
3 250 251 252
3 253 254 255
3 256 257 258
3 259 260 261
3 262 263 264
3 265 266 267
3 268 269 270
3 271 272 273
3 274 275 276
3 277 278 279
3 280 281 282
3 0 39 1
3 3 283 4
3 6 284 7
3 9 285 10
3 12 286 13
3 15 287 16
3 18 57 19
3 21 288 22
3 24 289 25
3 27 290 28
3 30 291 31
3 33 292 34
3 36 293 37
3 39 294 40
3 295 296 297
3 44 298 45
3 299 300 301
3 302 303 304
3 305 306 307
3 18 308 56
3 309 310 311
3 312 313 314
3 315 316 317
3 318 319 320
3 321 322 323
3 324 325 326
3 327 328 329
3 330 331 332
3 333 334 335
3 336 337 338
3 339 340 341
3 342 343 344
3 345 346 347
3 348 349 350
3 351 352 353
3 354 355 356
3 357 358 359
3 360 361 362
3 363 364 365
3 366 367 368
3 369 370 371
3 372 373 374
3 375 376 377
3 378 379 380
3 381 382 383
3 384 385 386
3 387 388 389
3 390 391 392
3 393 394 395
3 396 397 398
3 399 400 401
3 402 403 404
3 405 406 407
3 408 409 410
3 411 412 413
3 414 415 416
3 417 418 419
3 420 421 422
3 423 424 425
3 426 427 428
3 429 430 431
3 432 433 434
3 435 436 437
3 438 439 440
3 441 442 443
3 444 445 446
3 447 448 449
3 450 451 452
3 453 454 455
3 456 457 458
3 459 460 461
3 462 463 464
3 181 465 182
3 184 466 185
3 187 467 188
3 190 468 191
3 193 469 194
3 208 470 209
3 211 471 212
3 214 472 215
3 217 473 218
3 220 474 221
3 235 475 236
3 238 476 239
3 241 477 242
3 244 478 245
3 247 479 248
3 480 481 482
3 253 483 254
3 256 484 257
3 259 485 260
3 262 486 263
3 265 487 266
3 268 488 269
