ply
format ascii 1.0
comment Created by Blender 3.0.0 - www.blender.org
element vertex 142
property float x
property float y
property float z
property float nx
property float ny
property float nz
property uchar red
property uchar green
property uchar blue
property uchar alpha
element face 40
property list uchar uint vertex_indices
end_header
200.000000 0.000000 -120.000000 -1.000000 -0.000000 0.000000 133 133 133 255
200.000000 0.000000 120.000000 -1.000000 -0.000000 0.000000 133 133 133 255
200.000000 120.000000 120.000000 -1.000000 -0.000000 0.000000 133 133 133 255
200.000000 120.000000 -120.000000 -1.000000 -0.000000 0.000000 133 133 133 255
10.000003 17.320507 200.000000 0.000000 0.000000 -1.000000 133 133 133 255
120.000000 120.000000 200.000000 0.000000 0.000000 -1.000000 133 133 133 255
120.000000 0.000000 200.000000 0.000000 0.000000 -1.000000 133 133 133 255
20.000000 -0.000005 200.000000 0.000000 0.000000 -1.000000 133 133 133 255
-200.000000 0.000000 120.000000 1.000000 0.000000 0.000000 133 133 133 255
-200.000000 0.000000 -120.000000 1.000000 0.000000 0.000000 133 133 133 255
-200.000000 120.000000 -120.000000 1.000000 0.000000 0.000000 133 133 133 255
-200.000000 120.000000 120.000000 1.000000 0.000000 0.000000 133 133 133 255
-120.000000 0.000000 -200.000000 0.000000 0.000000 1.000000 133 91 91 255
120.000000 0.000000 -200.000000 0.000000 0.000000 1.000000 133 91 91 255
120.000000 120.000000 -200.000000 0.000000 0.000000 1.000000 133 91 91 255
-120.000000 120.000000 -200.000000 0.000000 0.000000 1.000000 133 91 91 255
120.000000 0.000000 -200.000000 -0.707107 0.000000 0.707107 133 91 91 255
200.000000 0.000000 -120.000000 -0.707107 0.000000 0.707107 133 133 133 255
200.000000 120.000000 -120.000000 -0.707107 0.000000 0.707107 133 133 133 255
120.000000 120.000000 -200.000000 -0.707107 0.000000 0.707107 133 91 91 255
200.000000 0.000000 120.000000 -0.707107 0.000000 -0.707107 133 133 133 255
120.000000 0.000000 200.000000 -0.707107 0.000000 -0.707107 133 133 133 255
120.000000 120.000000 200.000000 -0.707107 0.000000 -0.707107 133 133 133 255
200.000000 120.000000 120.000000 -0.707107 0.000000 -0.707107 133 133 133 255
-120.000000 0.000000 200.000000 0.707107 0.000000 -0.707107 133 133 133 255
-200.000000 0.000000 120.000000 0.707107 0.000000 -0.707107 133 133 133 255
-200.000000 120.000000 120.000000 0.707107 0.000000 -0.707107 133 133 133 255
-120.000000 120.000000 200.000000 0.707107 0.000000 -0.707107 133 133 133 255
-200.000000 0.000000 -120.000000 0.707107 0.000000 0.707107 133 133 133 255
-120.000000 0.000000 -200.000000 0.707107 0.000000 0.707107 133 91 91 255
-120.000000 120.000000 -200.000000 0.707107 0.000000 0.707107 133 91 91 255
-200.000000 120.000000 -120.000000 0.707107 0.000000 0.707107 133 133 133 255
-200.000000 120.000000 120.000000 0.707107 -0.707107 0.000000 133 133 133 255
-200.000000 120.000000 -120.000000 0.707107 -0.707107 0.000000 133 133 133 255
-120.000000 200.000000 -120.000000 0.707107 -0.707107 0.000000 133 133 133 255
-120.000000 200.000000 120.000000 0.707107 -0.707107 0.000000 133 133 133 255
200.000000 120.000000 -120.000000 -0.707107 -0.707107 0.000000 133 133 133 255
200.000000 120.000000 120.000000 -0.707107 -0.707107 0.000000 133 133 133 255
120.000000 200.000000 120.000000 -0.707107 -0.707107 0.000000 133 133 133 255
120.000000 200.000000 -120.000000 -0.707107 -0.707107 0.000000 133 133 133 255
120.000000 120.000000 200.000000 0.000000 -0.707107 -0.707107 133 133 133 255
-120.000000 120.000000 200.000000 0.000000 -0.707107 -0.707107 133 133 133 255
-120.000000 200.000000 120.000000 0.000000 -0.707107 -0.707107 133 133 133 255
120.000000 200.000000 120.000000 0.000000 -0.707107 -0.707107 133 133 133 255
-120.000000 120.000000 -200.000000 0.000000 -0.707107 0.707107 133 91 91 255
120.000000 120.000000 -200.000000 0.000000 -0.707107 0.707107 133 91 91 255
120.000000 200.000000 -120.000000 0.000000 -0.707107 0.707107 133 133 133 255
-120.000000 200.000000 -120.000000 0.000000 -0.707107 0.707107 133 133 133 255
-120.000000 120.000000 -200.000000 0.577350 -0.577350 0.577350 133 91 91 255
-120.000000 200.000000 -120.000000 0.577350 -0.577350 0.577350 133 133 133 255
-200.000000 120.000000 -120.000000 0.577350 -0.577350 0.577350 133 133 133 255
200.000000 120.000000 -120.000000 -0.577350 -0.577350 0.577350 133 133 133 255
120.000000 200.000000 -120.000000 -0.577350 -0.577350 0.577350 133 133 133 255
120.000000 120.000000 -200.000000 -0.577350 -0.577350 0.577350 133 91 91 255
120.000000 120.000000 200.000000 -0.577350 -0.577350 -0.577350 133 133 133 255
120.000000 200.000000 120.000000 -0.577350 -0.577350 -0.577350 133 133 133 255
200.000000 120.000000 120.000000 -0.577350 -0.577350 -0.577350 133 133 133 255
-200.000000 120.000000 120.000000 0.577350 -0.577350 -0.577350 133 133 133 255
-120.000000 200.000000 120.000000 0.577350 -0.577350 -0.577350 133 133 133 255
-120.000000 120.000000 200.000000 0.577350 -0.577350 -0.577350 133 133 133 255
-120.000000 200.000000 120.000000 -0.000000 -1.000000 0.000000 133 133 133 255
-120.000000 200.000000 -120.000000 -0.000000 -1.000000 0.000000 133 133 133 255
120.000000 200.000000 -120.000000 -0.000000 -1.000000 0.000000 133 133 133 255
120.000000 200.000000 120.000000 -0.000000 -1.000000 0.000000 133 133 133 255
-100.000000 0.000000 400.000000 -0.866025 0.500000 0.000000 133 133 133 255
-100.000000 0.000000 480.000000 -0.866025 0.500000 0.000000 133 133 133 255
-49.999996 86.602547 480.000000 -0.866025 0.500000 0.000000 133 133 133 255
-49.999996 86.602547 400.000000 -0.866025 0.500000 0.000000 133 133 133 255
-20.000000 0.000000 200.000000 -0.866025 0.500000 0.000000 133 133 133 255
-20.000000 0.000000 360.000000 -0.866025 0.500000 0.000000 133 133 133 255
-9.999999 17.320509 360.000000 -0.866025 0.500000 0.000000 133 133 133 255
-9.999999 17.320509 200.000000 -0.866025 0.500000 0.000000 133 133 133 255
-100.000000 0.000000 480.000000 -0.240192 0.138675 0.960769 133 133 133 255
-20.000000 0.000000 500.000000 -0.240192 0.138675 0.960769 133 133 133 255
-9.999999 17.320509 500.000000 -0.240192 0.138675 0.960769 133 133 133 255
-49.999996 86.602547 480.000000 -0.240192 0.138675 0.960769 133 133 133 255
-20.000000 0.000000 360.000000 -0.433013 0.250000 -0.866025 133 133 133 255
-100.000000 0.000000 400.000000 -0.433013 0.250000 -0.866025 133 133 133 255
-49.999996 86.602547 400.000000 -0.433013 0.250000 -0.866025 133 133 133 255
-9.999999 17.320509 360.000000 -0.433013 0.250000 -0.866025 133 133 133 255
-20.000000 0.000000 500.000000 -0.866025 0.500000 0.000000 133 133 133 255
-20.000000 0.000000 800.000000 -0.866025 0.500000 0.000000 133 133 133 255
-9.999999 17.320509 800.000000 -0.866025 0.500000 0.000000 133 133 133 255
-9.999999 17.320509 500.000000 -0.866025 0.500000 0.000000 133 133 133 255
-9.999999 17.320509 360.000000 0.000000 0.500000 -0.866025 133 133 133 255
-49.999996 86.602547 400.000000 0.000000 0.500000 -0.866025 133 133 133 255
50.000011 86.602539 400.000000 0.000000 0.500000 -0.866025 133 133 133 255
10.000003 17.320507 360.000000 0.000000 0.500000 -0.866025 133 133 133 255
-9.999999 17.320509 500.000000 0.000000 1.000000 0.000000 133 133 133 255
-9.999999 17.320509 800.000000 0.000000 1.000000 0.000000 133 133 133 255
10.000003 17.320507 800.000000 0.000000 1.000000 0.000000 133 133 133 255
10.000003 17.320507 500.000000 0.000000 1.000000 0.000000 133 133 133 255
-49.999996 86.602547 400.000000 0.000000 1.000000 0.000000 133 133 133 255
-49.999996 86.602547 480.000000 0.000000 1.000000 0.000000 133 133 133 255
50.000011 86.602539 480.000000 0.000000 1.000000 0.000000 133 133 133 255
50.000011 86.602539 400.000000 0.000000 1.000000 0.000000 133 133 133 255
-9.999999 17.320509 200.000000 0.000000 1.000000 0.000000 133 133 133 255
-9.999999 17.320509 360.000000 0.000000 1.000000 0.000000 133 133 133 255
10.000003 17.320507 360.000000 0.000000 1.000000 0.000000 133 133 133 255
10.000003 17.320507 200.000000 0.000000 1.000000 0.000000 133 133 133 255
-49.999996 86.602547 480.000000 0.000000 0.277350 0.960769 133 133 133 255
-9.999999 17.320509 500.000000 0.000000 0.277350 0.960769 133 133 133 255
10.000003 17.320507 500.000000 0.000000 0.277350 0.960769 133 133 133 255
50.000011 86.602539 480.000000 0.000000 0.277350 0.960769 133 133 133 255
10.000003 17.320507 360.000000 0.433013 0.250000 -0.866025 133 133 133 255
50.000011 86.602539 400.000000 0.433013 0.250000 -0.866025 133 133 133 255
100.000000 -0.000015 400.000000 0.433013 0.250000 -0.866025 133 133 133 255
20.000000 -0.000005 360.000000 0.433013 0.250000 -0.866025 133 133 133 255
10.000003 17.320507 500.000000 0.866025 0.500000 0.000000 133 133 133 255
10.000003 17.320507 800.000000 0.866025 0.500000 0.000000 133 133 133 255
20.000000 -0.000005 800.000000 0.866025 0.500000 0.000000 133 133 133 255
20.000000 -0.000005 500.000000 0.866025 0.500000 0.000000 133 133 133 255
50.000011 86.602539 400.000000 0.866025 0.500000 0.000000 133 133 133 255
50.000011 86.602539 480.000000 0.866025 0.500000 0.000000 133 133 133 255
100.000000 -0.000015 480.000000 0.866025 0.500000 0.000000 133 133 133 255
100.000000 -0.000015 400.000000 0.866025 0.500000 0.000000 133 133 133 255
10.000003 17.320507 200.000000 0.866025 0.500000 0.000000 133 133 133 255
10.000003 17.320507 360.000000 0.866025 0.500000 0.000000 133 133 133 255
20.000000 -0.000005 360.000000 0.866025 0.500000 0.000000 133 133 133 255
20.000000 -0.000005 200.000000 0.866025 0.500000 0.000000 133 133 133 255
50.000011 86.602539 480.000000 0.240192 0.138675 0.960769 133 133 133 255
10.000003 17.320507 500.000000 0.240192 0.138675 0.960769 133 133 133 255
20.000000 -0.000005 500.000000 0.240192 0.138675 0.960769 133 133 133 255
100.000000 -0.000015 480.000000 0.240192 0.138675 0.960769 133 133 133 255
60.000000 0.000000 440.000000 0.000000 -0.000000 -1.000000 133 133 133 255
0.000000 0.000000 440.000000 0.000000 -0.000000 -1.000000 133 133 133 255
29.999998 51.961525 440.000000 0.000000 -0.000000 -1.000000 133 133 133 255
0.000000 0.000000 400.000000 -0.528271 -0.304997 0.792406 133 133 133 255
60.000000 0.000000 440.000000 -0.528271 -0.304997 0.792406 133 133 133 255
29.999998 51.961525 440.000000 -0.528271 -0.304997 0.792406 133 133 133 255
-30.000006 51.961525 440.000000 0.000000 0.000000 -1.000000 133 133 133 255
0.000000 0.000000 400.000000 0.000000 -0.609994 0.792406 133 133 133 255
29.999998 51.961525 440.000000 0.000000 -0.609994 0.792406 133 133 133 255
-30.000006 51.961525 440.000000 0.000000 -0.609994 0.792406 133 133 133 255
-60.000008 -0.000008 440.000000 0.000000 0.000000 -1.000000 133 133 133 255
0.000000 0.000000 400.000000 0.528271 -0.304997 0.792406 133 133 133 255
-30.000006 51.961525 440.000000 0.528271 -0.304997 0.792406 133 133 133 255
-60.000008 -0.000008 440.000000 0.528271 -0.304997 0.792406 133 133 133 255
-120.000000 0.000000 200.000000 -0.000000 0.000000 -1.000000 133 133 133 255
-120.000000 120.000000 200.000000 -0.000000 0.000000 -1.000000 133 133 133 255
-9.999999 17.320509 200.000000 -0.000000 0.000000 -1.000000 133 133 133 255
-20.000000 0.000000 200.000000 -0.000000 0.000000 -1.000000 133 133 133 255
4 0 1 2 3
4 4 5 6 7
4 8 9 10 11
4 12 13 14 15
4 16 17 18 19
4 20 21 22 23
4 24 25 26 27
4 28 29 30 31
4 32 33 34 35
4 36 37 38 39
4 40 41 42 43
4 44 45 46 47
3 48 49 50
3 51 52 53
3 54 55 56
3 57 58 59
4 60 61 62 63
4 64 65 66 67
4 68 69 70 71
4 72 73 74 75
4 76 77 78 79
4 80 81 82 83
4 84 85 86 87
4 88 89 90 91
4 92 93 94 95
4 96 97 98 99
4 100 101 102 103
4 104 105 106 107
4 108 109 110 111
4 112 113 114 115
4 116 117 118 119
4 120 121 122 123
3 124 125 126
3 127 128 129
3 126 125 130
3 131 132 133
3 130 125 134
3 135 136 137
4 138 139 140 141
4 4 140 139 5
