ply
format ascii 1.0
comment Created by Blender 2.93.5 - www.blender.org
element vertex 188
property float x
property float y
property float z
property float nx
property float ny
property float nz
property uchar red
property uchar green
property uchar blue
property uchar alpha
element face 57
property list uchar uint vertex_indices
end_header
-100.000000 0.000000 280.000000 0.600000 0.000000 -0.800000 194 178 122 255
-180.000000 0.000000 220.000000 0.600000 0.000000 -0.800000 194 178 122 255
-180.000000 100.000000 220.000000 0.600000 0.000000 -0.800000 194 178 122 255
-100.000000 100.000000 280.000000 0.600000 0.000000 -0.800000 194 178 122 255
-180.000000 0.000000 220.000000 1.000000 0.000000 0.000000 194 166 69 255
-180.000000 0.000000 40.000000 1.000000 0.000000 0.000000 194 166 69 255
-180.000000 100.000000 22.000000 1.000000 0.000000 0.000000 194 166 69 255
-180.000000 100.000000 220.000000 1.000000 0.000000 0.000000 194 166 69 255
120.000000 0.000000 0.000000 -0.537233 0.139334 0.831845 255 227 32 255
180.000000 0.000000 40.000000 -0.537233 0.139334 0.831845 255 227 32 255
180.000000 100.000000 22.000000 -0.537233 0.139334 0.831845 255 227 32 255
144.000000 100.000000 0.000000 -0.537233 0.139334 0.831845 255 227 32 255
-180.000000 0.000000 40.000000 0.537233 0.139334 0.831845 255 227 32 255
-120.000000 0.000000 0.000000 0.537233 0.139334 0.831845 255 227 32 255
-144.000000 100.000000 0.000000 0.537233 0.139334 0.831845 255 227 32 255
-180.000000 100.000000 22.000000 0.537233 0.139334 0.831845 255 227 32 255
180.000000 0.000000 220.000000 -0.600000 0.000000 -0.800000 194 178 122 255
100.000000 0.000000 280.000000 -0.600000 0.000000 -0.800000 194 178 122 255
100.000000 100.000000 280.000000 -0.600000 0.000000 -0.800000 194 178 122 255
180.000000 100.000000 220.000000 -0.600000 0.000000 -0.800000 194 178 122 255
180.000000 0.000000 40.000000 -1.000000 -0.000000 0.000000 194 166 69 255
180.000000 0.000000 220.000000 -1.000000 -0.000000 0.000000 194 166 69 255
180.000000 100.000000 220.000000 -1.000000 -0.000000 0.000000 194 166 69 255
180.000000 100.000000 22.000000 -1.000000 -0.000000 0.000000 194 166 69 255
-120.000000 0.000000 0.000000 0.000000 0.000000 1.000000 194 166 69 255
120.000000 0.000000 0.000000 0.000000 0.000000 1.000000 194 166 69 255
144.000000 100.000000 0.000000 0.000000 0.000000 1.000000 194 166 69 255
-144.000000 100.000000 0.000000 0.000000 0.000000 1.000000 194 166 69 255
100.000000 0.000000 280.000000 0.000000 -0.000000 -1.000000 194 166 69 255
-100.000000 0.000000 280.000000 0.000000 -0.000000 -1.000000 194 166 69 255
-100.000000 100.000000 280.000000 0.000000 -0.000000 -1.000000 194 166 69 255
100.000000 100.000000 280.000000 0.000000 -0.000000 -1.000000 194 166 69 255
-180.000000 100.000000 22.000000 0.488178 0.351488 0.798836 255 227 32 255
-144.000000 100.000000 0.000000 0.488178 0.351488 0.798836 255 227 32 255
-180.000000 150.000000 0.000000 0.488178 0.351488 0.798836 255 227 32 255
-180.000000 150.000000 220.000000 0.600000 0.000000 -0.800000 194 178 122 255
-100.000000 150.000000 280.000000 0.600000 0.000000 -0.800000 194 178 122 255
-180.000000 150.000000 0.000000 1.000000 0.000000 0.000000 194 166 69 255
-180.000000 150.000000 220.000000 1.000000 0.000000 0.000000 194 166 69 255
144.000000 100.000000 0.000000 -0.488178 0.351488 0.798836 255 227 32 255
180.000000 100.000000 22.000000 -0.488178 0.351488 0.798836 255 227 32 255
180.000000 150.000000 0.000000 -0.488178 0.351488 0.798836 255 227 32 255
-100.000000 150.000000 280.000000 0.000000 -0.000000 -1.000000 194 166 69 255
100.000000 150.000000 280.000000 0.000000 -0.000000 -1.000000 194 166 69 255
100.000000 150.000000 280.000000 -0.600000 0.000000 -0.800000 194 178 122 255
180.000000 150.000000 220.000000 -0.600000 0.000000 -0.800000 194 178 122 255
180.000000 150.000000 220.000000 -1.000000 -0.000000 0.000000 194 166 69 255
180.000000 150.000000 0.000000 -1.000000 -0.000000 0.000000 194 166 69 255
180.000000 150.000000 0.000000 0.000000 0.000000 1.000000 194 166 69 255
-180.000000 150.000000 0.000000 0.000000 0.000000 1.000000 194 166 69 255
-180.000000 500.000000 220.000000 0.600000 0.000000 -0.800000 194 178 122 255
-100.000000 500.000000 280.000000 0.600000 0.000000 -0.800000 194 178 122 255
-100.000000 500.000000 280.000000 0.000000 -0.000000 -1.000000 194 166 69 255
100.000000 500.000000 280.000000 0.000000 -0.000000 -1.000000 194 166 69 255
180.000000 500.000000 220.000000 -1.000000 -0.000000 0.000000 194 166 69 255
180.000000 500.000000 0.000000 -1.000000 -0.000000 0.000000 194 166 69 255
100.000000 500.000000 280.000000 -0.600000 0.000000 -0.800000 194 178 122 255
180.000000 500.000000 220.000000 -0.600000 0.000000 -0.800000 194 178 122 255
-180.000000 500.000000 0.000000 1.000000 0.000000 0.000000 194 166 69 255
-180.000000 500.000000 220.000000 1.000000 0.000000 0.000000 194 166 69 255
180.000000 500.000000 0.000000 0.000000 0.000000 1.000000 194 166 69 255
-180.000000 500.000000 0.000000 0.000000 0.000000 1.000000 194 166 69 255
180.000000 600.000000 160.000000 -1.000000 -0.000000 0.000000 194 166 69 255
180.000000 600.000000 60.000000 -1.000000 -0.000000 0.000000 194 166 69 255
180.000000 500.000000 220.000000 -0.540914 -0.432731 -0.721218 194 178 122 255
100.000000 500.000000 280.000000 -0.540914 -0.432731 -0.721218 194 178 122 255
100.000000 600.000000 220.000000 -0.540914 -0.432731 -0.721218 194 178 122 255
180.000000 600.000000 160.000000 -0.540914 -0.432731 -0.721218 194 178 122 255
100.000000 500.000000 280.000000 0.000000 -0.514496 -0.857493 194 166 69 255
-100.000000 500.000000 280.000000 0.000000 -0.514496 -0.857493 194 166 69 255
-100.000000 600.000000 220.000000 0.000000 -0.514496 -0.857493 194 166 69 255
100.000000 600.000000 220.000000 0.000000 -0.514496 -0.857493 194 166 69 255
-100.000000 500.000000 280.000000 0.540914 -0.432731 -0.721218 194 178 122 255
-180.000000 500.000000 220.000000 0.540914 -0.432731 -0.721218 194 178 122 255
-180.000000 600.000000 160.000000 0.540914 -0.432731 -0.721218 194 178 122 255
-100.000000 600.000000 220.000000 0.540914 -0.432731 -0.721218 194 178 122 255
-180.000000 500.000000 0.000000 0.000000 -0.514496 0.857493 194 166 69 255
180.000000 500.000000 0.000000 0.000000 -0.514496 0.857493 194 166 69 255
180.000000 600.000000 60.000000 0.000000 -0.514496 0.857493 194 166 69 255
-180.000000 600.000000 60.000000 0.000000 -0.514496 0.857493 194 166 69 255
-180.000000 600.000000 60.000000 1.000000 0.000000 0.000000 194 166 69 255
-180.000000 600.000000 160.000000 1.000000 0.000000 0.000000 194 166 69 255
180.000000 690.000000 160.000000 -1.000000 -0.000000 0.000000 194 166 69 255
180.000000 690.000000 60.000000 -1.000000 -0.000000 0.000000 194 166 69 255
-180.000000 600.000000 60.000000 0.000000 0.000000 1.000000 194 166 69 255
180.000000 600.000000 60.000000 0.000000 0.000000 1.000000 194 166 69 255
180.000000 690.000000 60.000000 0.000000 0.000000 1.000000 194 166 69 255
-180.000000 690.000000 60.000000 0.000000 0.000000 1.000000 194 166 69 255
100.000000 600.000000 220.000000 0.000000 -0.000000 -1.000000 194 166 69 255
-100.000000 600.000000 220.000000 0.000000 -0.000000 -1.000000 194 166 69 255
-100.000000 690.000000 220.000000 0.000000 -0.000000 -1.000000 194 166 69 255
100.000000 690.000000 220.000000 0.000000 -0.000000 -1.000000 194 166 69 255
-180.000000 690.000000 60.000000 1.000000 0.000000 0.000000 194 166 69 255
-180.000000 690.000000 160.000000 1.000000 0.000000 0.000000 194 166 69 255
180.000000 600.000000 160.000000 -0.600000 0.000000 -0.800000 194 178 122 255
100.000000 600.000000 220.000000 -0.600000 0.000000 -0.800000 194 178 122 255
100.000000 690.000000 220.000000 -0.600000 0.000000 -0.800000 194 178 122 255
180.000000 690.000000 160.000000 -0.600000 0.000000 -0.800000 194 178 122 255
-100.000000 600.000000 220.000000 0.600000 0.000000 -0.800000 194 178 122 255
-180.000000 600.000000 160.000000 0.600000 0.000000 -0.800000 194 178 122 255
-180.000000 690.000000 160.000000 0.600000 0.000000 -0.800000 194 178 122 255
-100.000000 690.000000 220.000000 0.600000 0.000000 -0.800000 194 178 122 255
-180.000000 690.000000 160.000000 -0.000000 -1.000000 0.000000 194 166 69 255
-180.000000 690.000000 60.000000 -0.000000 -1.000000 0.000000 194 166 69 255
-100.000000 690.000000 220.000000 -0.000000 -1.000000 0.000000 194 166 69 255
180.000000 690.000000 160.000000 0.000000 -1.000000 0.000000 194 166 69 255
100.000000 690.000000 220.000000 0.000000 -1.000000 0.000000 194 166 69 255
180.000000 690.000000 60.000000 0.000000 -1.000000 0.000000 194 166 69 255
37.016289 233.964142 -1.214129 -0.243851 -0.163598 0.955914 201 164 42 255
83.561508 207.569092 -0.722134 -0.243851 -0.163598 0.955914 201 164 42 255
76.581810 253.799667 12.273625 -0.243851 -0.163598 0.955914 201 164 42 255
31.306587 272.896057 -2.871951 -0.243851 -0.163598 0.955914 201 164 42 255
83.561508 207.569092 -0.722134 0.300543 -0.083632 0.950094 201 164 42 255
115.607971 213.348480 -3.632210 0.300543 -0.083632 0.950094 201 164 42 255
110.531837 247.260330 -5.759847 0.300543 -0.083632 0.950094 201 164 42 255
76.581810 253.799667 12.273625 0.300543 -0.083632 0.950094 201 164 42 255
37.208359 281.448059 -3.739249 -0.211060 0.521235 0.826902 201 164 42 255
85.453384 278.767700 9.028760 -0.211060 0.521235 0.826902 201 164 42 255
93.879601 301.586304 -1.968471 -0.211060 0.521235 0.826902 201 164 42 255
43.274620 288.759705 -8.035433 -0.211060 0.521235 0.826902 201 164 42 255
85.453384 278.767700 9.028760 0.281160 0.150329 0.947813 201 164 42 255
119.273590 270.775024 -4.614486 0.281160 0.150329 0.947813 201 164 42 255
127.358856 294.516144 -5.899906 0.281160 0.150329 0.947813 201 164 42 255
93.879601 301.586304 -1.968471 0.281160 0.150329 0.947813 201 164 42 255
-89.492157 287.908508 -1.822002 -0.051714 -0.476567 0.877616 201 164 42 255
-59.045837 281.513611 -1.854767 -0.051714 -0.476567 0.877616 201 164 42 255
-66.025528 327.744202 21.192522 -0.051714 -0.476567 0.877616 201 164 42 255
-98.243576 335.199646 24.988298 -0.051714 -0.476567 0.877616 201 164 42 255
-59.045837 281.513611 -1.854767 0.415761 -0.169167 0.893603 201 164 42 255
-26.999376 287.292999 -4.622686 0.415761 -0.169167 0.893603 201 164 42 255
-32.075493 321.204895 -6.889195 0.415761 -0.169167 0.893603 201 164 42 255
-66.025528 327.744202 21.192522 0.415761 -0.169167 0.893603 201 164 42 255
-98.243576 335.199646 24.988298 0.105457 0.477893 0.872065 201 164 42 255
-66.025528 327.744202 21.192522 0.105457 0.477893 0.872065 201 164 42 255
-48.727745 375.530823 -3.101125 0.105457 0.477893 0.872065 201 164 42 255
-80.798676 373.867859 -2.296853 0.105457 0.477893 0.872065 201 164 42 255
-66.025528 327.744202 21.192522 0.372980 0.049724 0.926506 201 164 42 255
-32.075493 321.204895 -6.889195 0.372980 0.049724 0.926506 201 164 42 255
-15.248484 368.460693 -1.433784 0.372980 0.049724 0.926506 201 164 42 255
-48.727745 375.530823 -3.101125 0.372980 0.049724 0.926506 201 164 42 255
28.353937 361.267944 -3.506956 -0.214727 -0.275073 0.937138 201 164 42 255
71.328629 342.025055 -1.865631 -0.214727 -0.275073 0.937138 201 164 42 255
64.711876 416.070923 20.909744 -0.214727 -0.275073 0.937138 201 164 42 255
21.535437 433.308563 13.519168 -0.214727 -0.275073 0.937138 201 164 42 255
71.328629 342.025055 -1.865631 0.241912 -0.136844 0.960600 201 164 42 255
127.815994 349.422638 -4.476524 0.241912 -0.136844 0.960600 201 164 42 255
127.115738 409.871643 -6.249578 0.241912 -0.136844 0.960600 201 164 42 255
64.711876 416.070923 20.909744 0.241912 -0.136844 0.960600 201 164 42 255
21.535437 433.308563 13.519168 -0.041238 0.257247 0.965465 201 164 42 255
64.711876 416.070923 20.909744 -0.041238 0.257247 0.965465 201 164 42 255
92.777763 506.903961 -3.047180 -0.041238 0.257247 0.965465 201 164 42 255
46.989502 495.605164 -1.038994 -0.041238 0.257247 0.965465 201 164 42 255
64.711876 416.070923 20.909744 0.297378 0.073821 0.951902 201 164 42 255
127.115738 409.871643 -6.249578 0.297378 0.073821 0.951902 201 164 42 255
152.263992 495.999786 -12.640436 0.297378 0.073821 0.951902 201 164 42 255
92.777763 506.903961 -3.047180 0.297378 0.073821 0.951902 201 164 42 255
-19.093170 449.486450 -3.903687 -0.257114 0.311592 0.914769 201 164 42 255
21.535437 433.308563 13.519168 -0.257114 0.311592 0.914769 201 164 42 255
46.989502 495.605164 -1.038994 -0.257114 0.311592 0.914769 201 164 42 255
2.305022 482.959808 -8.798329 -0.257114 0.311592 0.914769 201 164 42 255
-13.680366 382.359711 -2.332093 -0.246674 -0.128350 0.960561 201 164 42 255
28.353937 361.267944 -3.506956 -0.246674 -0.128350 0.960561 201 164 42 255
21.535437 433.308563 13.519168 -0.246674 -0.128350 0.960561 201 164 42 255
-19.093170 449.486450 -3.903687 -0.246674 -0.128350 0.960561 201 164 42 255
-154.622223 346.840637 -4.004573 -0.264857 0.472035 0.840853 201 164 42 255
-126.389648 340.850769 8.223302 -0.264857 0.472035 0.840853 201 164 42 255
-112.129944 368.445679 -2.748668 -0.264857 0.472035 0.840853 201 164 42 255
-142.654175 362.704407 -9.167885 -0.264857 0.472035 0.840853 201 164 42 255
-126.389648 340.850769 8.223302 -0.227184 0.566171 0.792362 201 164 42 255
-98.243576 335.199646 24.988298 -0.227184 0.566171 0.792362 201 164 42 255
-80.798676 373.867859 -2.296853 -0.227184 0.566171 0.792362 201 164 42 255
-112.129944 368.445679 -2.748668 -0.227184 0.566171 0.792362 201 164 42 255
-148.912521 307.908691 -2.346778 -0.219143 -0.159051 0.962642 201 164 42 255
-119.856949 296.869507 -4.346747 -0.219143 -0.159051 0.962642 201 164 42 255
-126.389648 340.850769 8.223302 -0.219143 -0.159051 0.962642 201 164 42 255
-154.622223 346.840637 -4.004573 -0.219143 -0.159051 0.962642 201 164 42 255
-119.856949 296.869507 -4.346747 -0.376995 -0.419431 0.825804 201 164 42 255
-89.492157 287.908508 -1.822002 -0.376995 -0.419431 0.825804 201 164 42 255
-98.243576 335.199646 24.988298 -0.376995 -0.419431 0.825804 201 164 42 255
-126.389648 340.850769 8.223302 -0.376995 -0.419431 0.825804 201 164 42 255
76.581810 253.799667 12.273625 0.402150 -0.106720 0.909333 201 164 42 255
110.531837 247.260330 -5.759847 0.402150 -0.106720 0.909333 201 164 42 255
119.273590 270.775024 -4.614486 0.402150 -0.106720 0.909333 201 164 42 255
85.453384 278.767700 9.028760 0.402150 -0.106720 0.909333 201 164 42 255
31.306587 272.896057 -2.871951 -0.232021 0.218538 0.947843 201 164 42 255
76.581810 253.799667 12.273625 -0.232021 0.218538 0.947843 201 164 42 255
85.453384 278.767700 9.028760 -0.232021 0.218538 0.947843 201 164 42 255
37.208359 281.448059 -3.739249 -0.232021 0.218538 0.947843 201 164 42 255
4 0 1 2 3
4 4 5 6 7
4 8 9 10 11
4 12 13 14 15
4 16 17 18 19
4 20 21 22 23
4 24 25 26 27
4 28 29 30 31
3 32 33 34
4 3 2 35 36
4 7 6 37 38
3 39 40 41
4 31 30 42 43
4 19 18 44 45
4 23 22 46 47
4 27 26 48 49
4 36 35 50 51
4 43 42 52 53
4 47 46 54 55
4 45 44 56 57
4 38 37 58 59
4 49 48 60 61
4 55 54 62 63
4 64 65 66 67
4 68 69 70 71
4 72 73 74 75
4 76 77 78 79
4 59 58 80 81
4 63 62 82 83
4 84 85 86 87
4 88 89 90 91
4 81 80 92 93
4 94 95 96 97
4 98 99 100 101
3 102 103 104
3 105 106 107
4 106 104 103 107
4 108 109 110 111
4 112 113 114 115
4 116 117 118 119
4 120 121 122 123
4 124 125 126 127
4 128 129 130 131
4 132 133 134 135
4 136 137 138 139
4 140 141 142 143
4 144 145 146 147
4 148 149 150 151
4 152 153 154 155
4 156 157 158 159
4 160 161 162 163
4 164 165 166 167
4 168 169 170 171
4 172 173 174 175
4 176 177 178 179
4 180 181 182 183
4 184 185 186 187
