ply
format ascii 1.0
comment Created by Blender 2.93.2 - www.blender.org
element vertex 524
property float x
property float y
property float z
property float nx
property float ny
property float nz
property uchar red
property uchar green
property uchar blue
property uchar alpha
element face 133
property list uchar uint vertex_indices
end_header
160.000000 -0.000007 49.999989 0.196116 -0.000000 -0.980581 143 150 161 255
110.000000 -0.000005 39.999992 0.196116 -0.000000 -0.980581 143 150 161 255
110.000008 130.000000 39.999992 0.196116 -0.000000 -0.980581 143 150 161 255
160.000015 190.000000 49.999989 0.196116 -0.000000 -0.980581 143 150 161 255
-110.000000 0.000005 40.000008 -0.196116 0.000000 -0.980581 143 150 161 255
-160.000000 0.000007 50.000011 -0.196116 0.000000 -0.980581 143 150 161 255
-159.999985 190.000000 50.000011 -0.196116 0.000000 -0.980581 143 150 161 255
-109.999992 130.000000 40.000008 -0.196116 0.000000 -0.980581 143 150 161 255
160.000000 -0.000007 79.999985 1.000000 -0.000000 0.000000 143 150 161 255
160.000000 -0.000007 49.999989 1.000000 -0.000000 0.000000 143 150 161 255
160.000015 190.000000 49.999989 1.000000 -0.000000 0.000000 143 150 161 255
160.000015 190.000000 79.999985 1.000000 -0.000000 0.000000 143 150 161 255
40.000000 -0.000002 -0.000003 -0.000000 0.000000 -1.000000 143 150 161 255
-40.000000 0.000002 0.000003 -0.000000 0.000000 -1.000000 143 150 161 255
-39.999996 50.000000 0.000003 -0.000000 0.000000 -1.000000 143 150 161 255
40.000004 50.000000 -0.000003 -0.000000 0.000000 -1.000000 143 150 161 255
-160.000000 0.000007 50.000011 -1.000000 0.000000 0.000000 143 150 161 255
-160.000000 0.000007 80.000015 -1.000000 0.000000 0.000000 143 150 161 255
-159.999985 190.000000 80.000015 -1.000000 0.000000 0.000000 143 150 161 255
-159.999985 190.000000 50.000011 -1.000000 0.000000 0.000000 143 150 161 255
240.000000 -0.000010 99.999985 0.242536 -0.000000 -0.970143 143 150 161 255
160.000000 -0.000007 79.999985 0.242536 -0.000000 -0.970143 143 150 161 255
160.000015 190.000000 79.999985 0.242536 -0.000000 -0.970143 143 150 161 255
240.000015 290.000000 99.999985 0.242536 -0.000000 -0.970143 143 150 161 255
-160.000000 0.000007 80.000015 -0.242536 0.000000 -0.970143 143 150 161 255
-240.000000 0.000010 100.000015 -0.242536 0.000000 -0.970143 143 150 161 255
-239.999985 290.000000 100.000015 -0.242536 0.000000 -0.970143 143 150 161 255
-159.999985 190.000000 80.000015 -0.242536 0.000000 -0.970143 143 150 161 255
-40.000000 0.000002 0.000003 0.242536 -0.000000 -0.970143 143 150 161 255
-80.000000 0.000003 -9.999994 0.242536 -0.000000 -0.970143 143 150 161 255
-80.000000 90.000000 -9.999994 0.242536 -0.000000 -0.970143 143 150 161 255
-39.999996 50.000000 0.000003 0.242536 -0.000000 -0.970143 143 150 161 255
110.000000 -0.000005 -10.000009 -0.000000 0.000000 -1.000000 143 150 161 255
80.000000 -0.000003 -10.000006 -0.000000 0.000000 -1.000000 143 150 161 255
80.000000 90.000000 -10.000006 -0.000000 0.000000 -1.000000 143 150 161 255
110.000008 130.000000 -10.000009 -0.000000 0.000000 -1.000000 143 150 161 255
-240.000000 0.000010 100.000015 -0.000000 0.000000 -1.000000 143 150 161 255
-440.000000 0.000019 100.000031 -0.000000 0.000000 -1.000000 143 150 161 255
-439.999969 420.343903 100.000031 -0.000000 0.000000 -1.000000 143 150 161 255
-239.999985 290.000000 100.000015 -0.000000 0.000000 -1.000000 143 150 161 255
-80.000000 0.000003 -9.999994 -0.000000 0.000000 -1.000000 143 150 161 255
-110.000000 0.000005 -9.999991 -0.000000 0.000000 -1.000000 143 150 161 255
-109.999992 130.000000 -9.999991 -0.000000 0.000000 -1.000000 143 150 161 255
-80.000000 90.000000 -9.999994 -0.000000 0.000000 -1.000000 143 150 161 255
80.000000 -0.000003 -10.000006 -0.242536 0.000000 -0.970142 143 150 161 255
40.000000 -0.000002 -0.000003 -0.242536 0.000000 -0.970142 143 150 161 255
40.000004 50.000000 -0.000003 -0.242536 0.000000 -0.970142 143 150 161 255
80.000000 90.000000 -10.000006 -0.242536 0.000000 -0.970142 143 150 161 255
440.000000 -0.000019 99.999969 -0.000000 0.000000 -1.000000 143 150 161 255
240.000000 -0.000010 99.999985 -0.000000 0.000000 -1.000000 143 150 161 255
240.000015 290.000000 99.999985 -0.000000 0.000000 -1.000000 143 150 161 255
440.000031 420.343842 99.999969 -0.000000 0.000000 -1.000000 143 150 161 255
-109.999992 130.000000 40.000008 -1.000000 0.000000 0.000000 143 150 161 255
-109.999992 130.000000 -9.999991 -1.000000 0.000000 0.000000 143 150 161 255
-110.000000 0.000005 -9.999991 -1.000000 0.000000 0.000000 143 150 161 255
-110.000000 0.000005 40.000008 -1.000000 0.000000 0.000000 143 150 161 255
110.000008 130.000000 39.999992 1.000000 -0.000000 0.000000 143 150 161 255
110.000000 -0.000005 39.999992 1.000000 -0.000000 0.000000 143 150 161 255
110.000000 -0.000005 -10.000009 1.000000 -0.000000 0.000000 143 150 161 255
110.000008 130.000000 -10.000009 1.000000 -0.000000 0.000000 143 150 161 255
-39.999996 50.000000 0.000003 -0.000000 -0.242536 -0.970143 143 150 161 255
-80.000000 90.000000 -9.999994 -0.000000 -0.242536 -0.970143 143 150 161 255
80.000000 90.000000 -10.000006 -0.000000 -0.242536 -0.970143 143 150 161 255
40.000004 50.000000 -0.000003 -0.000000 -0.242536 -0.970143 143 150 161 255
-109.999992 130.000000 -9.999991 0.000000 1.000000 0.000000 143 150 161 255
-109.999992 130.000000 40.000008 0.000000 1.000000 0.000000 143 150 161 255
110.000008 130.000000 39.999992 0.000000 1.000000 0.000000 143 150 161 255
110.000008 130.000000 -10.000009 0.000000 1.000000 0.000000 143 150 161 255
160.000015 190.000000 49.999989 -0.000000 0.164399 -0.986394 143 150 161 255
110.000008 130.000000 39.999992 -0.000000 0.164399 -0.986394 143 150 161 255
-109.999992 130.000000 40.000008 -0.000000 0.164399 -0.986394 143 150 161 255
-159.999985 190.000000 50.000011 -0.000000 0.164399 -0.986394 143 150 161 255
160.000015 190.000000 79.999985 -0.000000 1.000000 0.000000 143 150 161 255
160.000015 190.000000 49.999989 -0.000000 1.000000 0.000000 143 150 161 255
-159.999985 190.000000 50.000011 -0.000000 1.000000 0.000000 143 150 161 255
-159.999985 190.000000 80.000015 -0.000000 1.000000 0.000000 143 150 161 255
240.000015 290.000000 99.999985 -0.000000 0.196116 -0.980581 143 150 161 255
160.000015 190.000000 79.999985 -0.000000 0.196116 -0.980581 143 150 161 255
-159.999985 190.000000 80.000015 -0.000000 0.196116 -0.980581 143 150 161 255
-239.999985 290.000000 100.000015 -0.000000 0.196116 -0.980581 143 150 161 255
440.000031 420.343842 99.999969 0.000000 1.000000 0.000000 105 0 0 255
-439.999969 420.343903 100.000031 0.000000 1.000000 0.000000 105 0 0 255
-439.999939 420.343903 400.000031 0.000000 1.000000 0.000000 0 0 0 255
440.000061 420.343842 399.999969 0.000000 1.000000 0.000000 0 0 0 255
440.000000 -0.000019 99.999969 1.000000 -0.000000 -0.000000 105 0 0 255
440.000031 420.343842 99.999969 1.000000 -0.000000 -0.000000 105 0 0 255
440.000061 420.343842 399.999969 1.000000 -0.000000 -0.000000 0 0 0 255
440.000031 -0.000019 399.999969 1.000000 -0.000000 -0.000000 0 0 0 255
-439.999969 420.343903 100.000031 -1.000000 0.000000 0.000000 105 0 0 255
-440.000000 0.000019 100.000031 -1.000000 0.000000 0.000000 105 0 0 255
-439.999969 0.000019 400.000031 -1.000000 0.000000 0.000000 0 0 0 255
-439.999939 420.343903 400.000031 -1.000000 0.000000 0.000000 0 0 0 255
164.375397 111.427574 256.455902 0.036509 -0.004273 -0.999324 82 47 26 255
164.375381 7.499993 256.455902 0.036509 -0.004273 -0.999324 82 47 26 255
153.769363 -0.000007 256.544922 0.036509 -0.004273 -0.999324 82 47 26 255
154.848587 117.735878 255.636459 0.036509 -0.004273 -0.999324 82 47 26 255
164.375381 7.499993 256.455902 0.999148 0.004696 0.040996 82 47 26 255
164.375397 111.427574 256.455902 0.999148 0.004696 0.040996 82 47 26 255
163.384781 117.735878 267.970367 0.999148 0.004696 0.040996 82 47 26 255
164.463974 -0.000007 267.061920 0.999148 0.004696 0.040996 82 47 26 255
153.857956 -7.500007 267.150940 -0.993492 -0.002611 -0.113872 82 47 26 255
152.445282 109.936714 265.576233 -0.993492 -0.002611 -0.113872 82 47 26 255
154.848587 117.735878 255.636459 -0.993492 -0.002611 -0.113872 82 47 26 255
153.769363 -0.000007 256.544922 -0.993492 -0.002611 -0.113872 82 47 26 255
152.445282 109.936714 265.576233 -0.107558 0.001677 0.994197 82 47 26 255
153.857956 -7.500007 267.150940 -0.107558 0.001677 0.994197 82 47 26 255
164.463974 -0.000007 267.061920 -0.107558 0.001677 0.994197 82 47 26 255
163.384781 117.735878 267.970367 -0.107558 0.001677 0.994197 82 47 26 255
164.375381 7.499993 256.455902 -0.512685 0.693392 -0.506322 82 47 26 255
252.197464 7.500004 167.150894 -0.512685 0.693392 -0.506322 82 47 26 255
250.515350 0.000004 158.962418 -0.512685 0.693392 -0.506322 82 47 26 255
153.769363 -0.000007 256.544922 -0.512685 0.693392 -0.506322 82 47 26 255
252.197464 7.500004 167.150894 0.514607 0.693690 0.503958 82 47 26 255
164.375381 7.499993 256.455902 0.514607 0.693690 0.503958 82 47 26 255
164.463974 -0.000007 267.061920 0.514607 0.693690 0.503958 82 47 26 255
264.397003 0.000004 164.644363 0.514607 0.693690 0.503958 82 47 26 255
257.456177 -7.499996 161.803391 -0.512511 -0.693770 -0.505980 82 47 26 255
153.857956 -7.500007 267.150940 -0.512511 -0.693770 -0.505980 82 47 26 255
153.769363 -0.000007 256.544922 -0.512511 -0.693770 -0.505980 82 47 26 255
250.515350 0.000004 158.962418 -0.512511 -0.693770 -0.505980 82 47 26 255
153.857956 -7.500007 267.150940 0.514287 -0.694038 0.503807 82 47 26 255
257.456177 -7.499996 161.803391 0.514287 -0.694038 0.503807 82 47 26 255
264.397003 0.000004 164.644363 0.514287 -0.694038 0.503807 82 47 26 255
164.463974 -0.000007 267.061920 0.514287 -0.694038 0.503807 82 47 26 255
252.197464 7.500004 167.150894 -0.979546 -0.000000 0.201223 82 47 26 255
252.197464 133.208939 167.150909 -0.979546 -0.000000 0.201223 82 47 26 255
250.515350 142.125763 158.962433 -0.979546 -0.000000 0.201223 82 47 26 255
250.515350 0.000004 158.962418 -0.979546 -0.000000 0.201223 82 47 26 255
252.197464 133.208939 167.150909 0.201257 -0.000000 0.979538 82 47 26 255
252.197464 7.500004 167.150894 0.201257 -0.000000 0.979538 82 47 26 255
264.397003 0.000004 164.644363 0.201257 -0.000000 0.979538 82 47 26 255
264.397034 142.125763 164.644363 0.201257 -0.000000 0.979538 82 47 26 255
252.197464 133.208939 167.150909 -0.435496 -0.673797 -0.596942 82 47 26 255
164.375397 111.427574 256.455902 -0.435496 -0.673797 -0.596942 82 47 26 255
154.848587 117.735878 255.636459 -0.435496 -0.673797 -0.596942 82 47 26 255
250.515350 142.125763 158.962433 -0.435496 -0.673797 -0.596942 82 47 26 255
164.375397 111.427574 256.455902 0.595028 -0.685907 0.418896 82 47 26 255
252.197464 133.208939 167.150909 0.595028 -0.685907 0.418896 82 47 26 255
264.397034 142.125763 164.644363 0.595028 -0.685907 0.418896 82 47 26 255
163.384781 117.735878 267.970367 0.595028 -0.685907 0.418896 82 47 26 255
257.456207 136.036621 154.303406 -0.557331 0.000000 -0.830290 82 47 26 255
257.456177 7.500004 154.303391 -0.557331 0.000000 -0.830290 82 47 26 255
250.515350 0.000004 158.962418 -0.557331 0.000000 -0.830290 82 47 26 255
250.515350 142.125763 158.962433 -0.557331 0.000000 -0.830290 82 47 26 255
257.456177 7.500004 154.303391 0.830310 -0.000000 -0.557302 82 47 26 255
257.456207 136.036621 154.303406 0.830310 -0.000000 -0.557302 82 47 26 255
264.397034 142.125763 164.644363 0.830310 -0.000000 -0.557302 82 47 26 255
264.397003 0.000004 164.644363 0.830310 -0.000000 -0.557302 82 47 26 255
257.456177 7.500004 154.303391 -0.720572 0.693378 0.001757 82 47 26 255
257.456177 7.500004 45.696594 -0.720572 0.693378 0.001757 82 47 26 255
249.956161 0.000004 38.196594 -0.720572 0.693378 0.001757 82 47 26 255
250.515350 0.000004 158.962418 -0.720572 0.693378 0.001757 82 47 26 255
257.456177 7.500004 45.696594 0.720244 0.693719 0.001713 82 47 26 255
257.456177 7.500004 154.303391 0.720244 0.693719 0.001713 82 47 26 255
264.397003 0.000004 164.644363 0.720244 0.693719 0.001713 82 47 26 255
264.956177 0.000004 38.196594 0.720244 0.693719 0.001713 82 47 26 255
257.456177 -7.499996 30.696598 -0.720158 -0.693809 0.001599 82 47 26 255
257.456177 -7.499996 161.803391 -0.720158 -0.693809 0.001599 82 47 26 255
250.515350 0.000004 158.962418 -0.720158 -0.693809 0.001599 82 47 26 255
249.956161 0.000004 38.196594 -0.720158 -0.693809 0.001599 82 47 26 255
257.456177 -7.499996 161.803391 0.719868 -0.694110 0.001563 82 47 26 255
257.456177 -7.499996 30.696598 0.719868 -0.694110 0.001563 82 47 26 255
264.956177 0.000004 38.196594 0.719868 -0.694110 0.001563 82 47 26 255
264.397003 0.000004 164.644363 0.719868 -0.694110 0.001563 82 47 26 255
257.456177 158.834137 45.696602 -0.706491 -0.692612 -0.145464 82 47 26 255
257.456207 136.036621 154.303406 -0.706491 -0.692612 -0.145464 82 47 26 255
250.515350 142.125763 158.962433 -0.706491 -0.692612 -0.145464 82 47 26 255
249.956177 168.071899 38.196602 -0.706491 -0.692612 -0.145464 82 47 26 255
257.456207 136.036621 154.303406 0.733525 -0.665848 -0.136333 82 47 26 255
257.456177 158.834137 45.696602 0.733525 -0.665848 -0.136333 82 47 26 255
264.956177 168.071899 38.196602 0.733525 -0.665848 -0.136333 82 47 26 255
264.397034 142.125763 164.644363 0.733525 -0.665848 -0.136333 82 47 26 255
-0.000000 220.242981 293.022919 -0.227979 -0.047933 -0.972485 82 47 26 255
101.971794 232.183640 268.544220 -0.227979 -0.047933 -0.972485 82 47 26 255
156.469589 231.892883 255.767609 -0.227979 -0.047933 -0.972485 82 47 26 255
-0.000001 213.316055 293.379395 -0.227979 -0.047933 -0.972485 82 47 26 255
101.971794 232.183640 268.544220 -0.115731 0.993279 -0.001581 82 47 26 255
-0.000000 220.242981 293.022919 -0.115731 0.993279 -0.001581 82 47 26 255
-0.000001 220.363083 306.620605 -0.115731 0.993279 -0.001581 82 47 26 255
161.763779 239.050690 267.839233 -0.115731 0.993279 -0.001581 82 47 26 255
101.971794 232.183640 268.544220 0.000000 -0.999741 0.022750 82 47 26 255
-101.971794 232.183624 268.544189 0.000000 -0.999741 0.022750 82 47 26 255
-156.469589 231.892883 255.767593 0.000000 -0.999741 0.022750 82 47 26 255
156.469589 231.892883 255.767609 0.000000 -0.999741 0.022750 82 47 26 255
-101.971794 232.183624 268.544189 -0.000000 0.102128 0.994771 82 47 26 255
101.971794 232.183640 268.544220 -0.000000 0.102128 0.994771 82 47 26 255
161.763779 239.050690 267.839233 -0.000000 0.102128 0.994771 82 47 26 255
-161.763779 239.050690 267.839172 -0.000000 0.102128 0.994771 82 47 26 255
-101.971794 232.183624 268.544189 0.227979 -0.047935 -0.972485 82 47 26 255
-0.000000 220.242981 293.022919 0.227979 -0.047935 -0.972485 82 47 26 255
-0.000001 213.316055 293.379395 0.227979 -0.047935 -0.972485 82 47 26 255
-156.469589 231.892883 255.767593 0.227979 -0.047935 -0.972485 82 47 26 255
-0.000000 220.242981 293.022919 0.115731 0.993279 -0.001582 82 47 26 255
-101.971794 232.183624 268.544189 0.115731 0.993279 -0.001582 82 47 26 255
-161.763779 239.050690 267.839172 0.115731 0.993279 -0.001582 82 47 26 255
-0.000001 220.363083 306.620605 0.115731 0.993279 -0.001582 82 47 26 255
155.735962 238.759918 255.062622 -0.667598 -0.149058 -0.729448 82 47 26 255
240.817764 280.963379 168.544189 -0.667598 -0.149058 -0.729448 82 47 26 255
252.181442 280.211426 158.324524 -0.667598 -0.149058 -0.729448 82 47 26 255
156.469589 231.892883 255.767609 -0.667598 -0.149058 -0.729448 82 47 26 255
240.817764 280.963379 168.544189 -0.307730 0.939336 0.151496 82 47 26 255
155.735962 238.759918 255.062622 -0.307730 0.939336 0.151496 82 47 26 255
161.763779 239.050690 267.839233 -0.307730 0.939336 0.151496 82 47 26 255
262.730957 288.291656 165.282303 -0.307730 0.939336 0.151496 82 47 26 255
240.817764 280.963379 168.544189 -0.000022 -0.997380 0.072341 82 47 26 255
-240.817734 280.963379 168.544220 -0.000022 -0.997380 0.072341 82 47 26 255
-252.150970 280.234283 158.344467 -0.000022 -0.997380 0.072341 82 47 26 255
252.181442 280.211426 158.324524 -0.000022 -0.997380 0.072341 82 47 26 255
-240.817734 280.963379 168.544220 -0.000027 0.408214 0.912886 82 47 26 255
240.817764 280.963379 168.544189 -0.000027 0.408214 0.912886 82 47 26 255
262.730957 288.291656 165.282303 -0.000027 0.408214 0.912886 82 47 26 255
-262.761322 288.268738 165.262405 -0.000027 0.408214 0.912886 82 47 26 255
-240.817734 280.963379 168.544220 0.667667 -0.148888 -0.729420 82 47 26 255
-155.735962 238.759918 255.062607 0.667667 -0.148888 -0.729420 82 47 26 255
-156.469589 231.892883 255.767593 0.667667 -0.148888 -0.729420 82 47 26 255
-252.150970 280.234283 158.344467 0.667667 -0.148888 -0.729420 82 47 26 255
-155.735962 238.759918 255.062607 0.306830 0.939502 0.152283 82 47 26 255
-240.817734 280.963379 168.544220 0.306830 0.939502 0.152283 82 47 26 255
-262.761322 288.268738 165.262405 0.306830 0.939502 0.152283 82 47 26 255
-161.763779 239.050690 267.839172 0.306830 0.939502 0.152283 82 47 26 255
-155.735962 238.759918 255.062607 0.000000 -0.102126 -0.994771 82 47 26 255
155.735962 238.759918 255.062622 0.000000 -0.102126 -0.994771 82 47 26 255
156.469589 231.892883 255.767609 0.000000 -0.102126 -0.994771 82 47 26 255
-156.469589 231.892883 255.767593 0.000000 -0.102126 -0.994771 82 47 26 255
155.735962 238.759918 255.062622 0.000000 0.999741 -0.022752 82 47 26 255
-155.735962 238.759918 255.062607 0.000000 0.999741 -0.022752 82 47 26 255
-161.763779 239.050690 267.839172 0.000000 0.999741 -0.022752 82 47 26 255
161.763779 239.050690 267.839233 0.000000 0.999741 -0.022752 82 47 26 255
249.956192 287.154724 154.888092 -0.906189 -0.389357 -0.164992 82 47 26 255
249.957016 333.362976 45.112064 -0.906189 -0.389357 -0.164992 82 47 26 255
252.950714 330.683899 35.718891 -0.906189 -0.389357 -0.164992 82 47 26 255
252.181442 280.211426 158.324524 -0.906189 -0.389357 -0.164992 82 47 26 255
249.957016 333.362976 45.112064 -0.404570 0.841291 0.358542 82 47 26 255
249.956192 287.154724 154.888092 -0.404570 0.841291 0.358542 82 47 26 255
262.730957 288.291656 165.282303 -0.404570 0.841291 0.358542 82 47 26 255
261.961670 341.603729 40.674332 -0.404570 0.841291 0.358542 82 47 26 255
-249.957001 341.135986 44.937550 0.901014 -0.389196 -0.191575 82 47 26 255
-249.956161 287.539642 155.062653 0.901014 -0.389196 -0.191575 82 47 26 255
-252.150970 280.234283 158.344467 0.901014 -0.389196 -0.191575 82 47 26 255
-253.126984 338.969940 35.665768 0.901014 -0.389196 -0.191575 82 47 26 255
-249.956161 287.539642 155.062653 0.418906 0.814069 0.402256 82 47 26 255
-249.957001 341.135986 44.937550 0.418906 0.814069 0.402256 82 47 26 255
-261.785339 350.123230 40.727417 0.418906 0.814069 0.402256 82 47 26 255
-262.761322 288.268738 165.262405 0.418906 0.814069 0.402256 82 47 26 255
-249.956161 287.539642 155.062653 -0.000348 -0.426473 -0.904500 82 47 26 255
249.956192 287.154724 154.888092 -0.000348 -0.426473 -0.904500 82 47 26 255
252.181442 280.211426 158.324524 -0.000348 -0.426473 -0.904500 82 47 26 255
-252.150970 280.234283 158.344467 -0.000348 -0.426473 -0.904500 82 47 26 255
249.956192 287.154724 154.888092 0.000338 0.995920 -0.090240 82 47 26 255
-249.956161 287.539642 155.062653 0.000338 0.995920 -0.090240 82 47 26 255
-262.761322 288.268738 165.262405 0.000338 0.995920 -0.090240 82 47 26 255
262.730957 288.291656 165.282303 0.000338 0.995920 -0.090240 82 47 26 255
-257.456177 7.499996 45.696579 0.720572 0.693377 0.001757 82 47 26 255
-257.456177 7.499996 154.303421 0.720572 0.693377 0.001757 82 47 26 255
-250.515350 -0.000004 158.962448 0.720572 0.693377 0.001757 82 47 26 255
-249.956192 -0.000004 38.196579 0.720572 0.693377 0.001757 82 47 26 255
-257.456177 7.499996 154.303421 -0.720244 0.693719 0.001713 82 47 26 255
-257.456177 7.499996 45.696579 -0.720244 0.693719 0.001713 82 47 26 255
-264.956177 -0.000004 38.196579 -0.720244 0.693719 0.001713 82 47 26 255
-264.397003 -0.000004 164.644379 -0.720244 0.693719 0.001713 82 47 26 255
-257.456177 -7.500004 161.803421 0.720158 -0.693808 0.001599 82 47 26 255
-257.456177 -7.500004 30.696575 0.720158 -0.693808 0.001599 82 47 26 255
-249.956192 -0.000004 38.196579 0.720158 -0.693808 0.001599 82 47 26 255
-250.515350 -0.000004 158.962448 0.720158 -0.693808 0.001599 82 47 26 255
-257.456177 -7.500004 30.696575 -0.719868 -0.694110 0.001563 82 47 26 255
-257.456177 -7.500004 161.803421 -0.719868 -0.694110 0.001563 82 47 26 255
-264.397003 -0.000004 164.644379 -0.719868 -0.694110 0.001563 82 47 26 255
-264.956177 -0.000004 38.196579 -0.719868 -0.694110 0.001563 82 47 26 255
-257.456177 7.499996 154.303421 0.557333 -0.000000 -0.830289 82 47 26 255
-257.456146 136.235153 154.303421 0.557333 -0.000000 -0.830289 82 47 26 255
-250.515350 142.125763 158.962448 0.557333 -0.000000 -0.830289 82 47 26 255
-250.515350 -0.000004 158.962448 0.557333 -0.000000 -0.830289 82 47 26 255
-257.456146 136.235153 154.303421 -0.830310 0.000000 -0.557302 82 47 26 255
-257.456177 7.499996 154.303421 -0.830310 0.000000 -0.557302 82 47 26 255
-264.397003 -0.000004 164.644379 -0.830310 0.000000 -0.557302 82 47 26 255
-264.396973 142.125763 164.644394 -0.830310 0.000000 -0.557302 82 47 26 255
-257.456146 136.235153 154.303421 0.704220 -0.689678 -0.168578 82 47 26 255
-257.456177 162.724213 45.696587 0.704220 -0.689678 -0.168578 82 47 26 255
-249.956177 172.273300 38.196587 0.704220 -0.689678 -0.168578 82 47 26 255
-250.515350 142.125763 158.962448 0.704220 -0.689678 -0.168578 82 47 26 255
-257.456177 162.724213 45.696587 -0.735526 -0.659043 -0.157047 82 47 26 255
-257.456146 136.235153 154.303421 -0.735526 -0.659043 -0.157047 82 47 26 255
-264.396973 142.125763 164.644394 -0.735526 -0.659043 -0.157047 82 47 26 255
-264.956177 172.273300 38.196587 -0.735526 -0.659043 -0.157047 82 47 26 255
-252.197464 133.208954 167.150940 0.979546 -0.000000 0.201222 82 47 26 255
-252.197464 7.499996 167.150925 0.979546 -0.000000 0.201222 82 47 26 255
-250.515350 -0.000004 158.962448 0.979546 -0.000000 0.201222 82 47 26 255
-250.515350 142.125763 158.962448 0.979546 -0.000000 0.201222 82 47 26 255
-252.197464 7.499996 167.150925 -0.201258 -0.000000 0.979538 82 47 26 255
-252.197464 133.208954 167.150940 -0.201258 -0.000000 0.979538 82 47 26 255
-264.396973 142.125763 164.644394 -0.201258 -0.000000 0.979538 82 47 26 255
-264.397003 -0.000004 164.644379 -0.201258 -0.000000 0.979538 82 47 26 255
-252.197464 7.499996 167.150925 0.512685 0.693392 -0.506322 82 47 26 255
-164.375412 7.499992 256.455872 0.512685 0.693392 -0.506322 82 47 26 255
-153.769394 -0.000009 256.544891 0.512685 0.693392 -0.506322 82 47 26 255
-250.515350 -0.000004 158.962448 0.512685 0.693392 -0.506322 82 47 26 255
-164.375412 7.499992 256.455872 -0.514607 0.693690 0.503958 82 47 26 255
-252.197464 7.499996 167.150925 -0.514607 0.693690 0.503958 82 47 26 255
-264.397003 -0.000004 164.644379 -0.514607 0.693690 0.503958 82 47 26 255
-164.464005 -0.000008 267.061890 -0.514607 0.693690 0.503958 82 47 26 255
-153.857986 -7.500009 267.150909 0.512510 -0.693771 -0.505980 82 47 26 255
-257.456177 -7.500004 161.803421 0.512510 -0.693771 -0.505980 82 47 26 255
-250.515350 -0.000004 158.962448 0.512510 -0.693771 -0.505980 82 47 26 255
-153.769394 -0.000009 256.544891 0.512510 -0.693771 -0.505980 82 47 26 255
-257.456177 -7.500004 161.803421 -0.514287 -0.694037 0.503807 82 47 26 255
-153.857986 -7.500009 267.150909 -0.514287 -0.694037 0.503807 82 47 26 255
-164.464005 -0.000008 267.061890 -0.514287 -0.694037 0.503807 82 47 26 255
-264.397003 -0.000004 164.644379 -0.514287 -0.694037 0.503807 82 47 26 255
-164.375412 7.499992 256.455872 -0.036507 -0.004273 -0.999324 82 47 26 255
-164.375397 111.427589 256.455872 -0.036507 -0.004273 -0.999324 82 47 26 255
-154.848587 117.735893 255.636459 -0.036507 -0.004273 -0.999324 82 47 26 255
-153.769394 -0.000009 256.544891 -0.036507 -0.004273 -0.999324 82 47 26 255
-164.375397 111.427589 256.455872 -0.999148 0.004697 0.040996 82 47 26 255
-164.375412 7.499992 256.455872 -0.999148 0.004697 0.040996 82 47 26 255
-164.464005 -0.000008 267.061890 -0.999148 0.004697 0.040996 82 47 26 255
-163.384781 117.735893 267.970337 -0.999148 0.004697 0.040996 82 47 26 255
-152.445282 109.936729 265.576233 0.993492 -0.002611 -0.113872 82 47 26 255
-153.857986 -7.500009 267.150909 0.993492 -0.002611 -0.113872 82 47 26 255
-153.769394 -0.000009 256.544891 0.993492 -0.002611 -0.113872 82 47 26 255
-154.848587 117.735893 255.636459 0.993492 -0.002611 -0.113872 82 47 26 255
-153.857986 -7.500009 267.150909 0.107557 0.001677 0.994198 82 47 26 255
-152.445282 109.936729 265.576233 0.107557 0.001677 0.994198 82 47 26 255
-163.384781 117.735893 267.970337 0.107557 0.001677 0.994198 82 47 26 255
-164.464005 -0.000008 267.061890 0.107557 0.001677 0.994198 82 47 26 255
-164.375397 111.427589 256.455872 0.435496 -0.673797 -0.596942 82 47 26 255
-252.197464 133.208954 167.150940 0.435496 -0.673797 -0.596942 82 47 26 255
-250.515350 142.125763 158.962448 0.435496 -0.673797 -0.596942 82 47 26 255
-154.848587 117.735893 255.636459 0.435496 -0.673797 -0.596942 82 47 26 255
-252.197464 133.208954 167.150940 -0.595028 -0.685906 0.418897 82 47 26 255
-164.375397 111.427589 256.455872 -0.595028 -0.685906 0.418897 82 47 26 255
-163.384781 117.735893 267.970337 -0.595028 -0.685906 0.418897 82 47 26 255
-264.396973 142.125763 164.644394 -0.595028 -0.685906 0.418897 82 47 26 255
-151.823868 227.069336 263.554047 0.898125 0.006994 -0.439684 82 47 26 255
-151.823868 124.821053 263.554077 0.898125 0.006994 -0.439684 82 47 26 255
-154.848587 117.735893 255.636459 0.898125 0.006994 -0.439684 82 47 26 255
-156.469589 231.892883 255.767593 0.898125 0.006994 -0.439684 82 47 26 255
-151.823868 124.821053 263.554077 0.374717 -0.002173 0.927137 82 47 26 255
-151.823868 227.069336 263.554047 0.374717 -0.002173 0.927137 82 47 26 255
-161.763779 239.050690 267.839172 0.374717 -0.002173 0.927137 82 47 26 255
-163.384781 117.735893 267.970337 0.374717 -0.002173 0.927137 82 47 26 255
-151.823868 124.821053 263.554077 0.206797 0.689853 -0.693785 82 47 26 255
-7.292816 116.358917 298.249329 0.206797 0.689853 -0.693785 82 47 26 255
-0.000001 108.419785 292.500000 0.206797 0.689853 -0.693785 82 47 26 255
-154.848587 117.735893 255.636459 0.206797 0.689853 -0.693785 82 47 26 255
-7.292816 116.358917 298.249329 -0.132477 0.687301 0.714190 82 47 26 255
-151.823868 124.821053 263.554077 -0.132477 0.687301 0.714190 82 47 26 255
-163.384781 117.735893 267.970337 -0.132477 0.687301 0.714190 82 47 26 255
-0.000001 108.419785 307.500000 -0.132477 0.687301 0.714190 82 47 26 255
-0.000001 100.906937 300.000000 0.109965 -0.739341 -0.664291 82 47 26 255
-152.445282 109.936729 265.576233 0.109965 -0.739341 -0.664291 82 47 26 255
-154.848587 117.735893 255.636459 0.109965 -0.739341 -0.664291 82 47 26 255
-0.000001 108.419785 292.500000 0.109965 -0.739341 -0.664291 82 47 26 255
-152.445282 109.936729 265.576233 -0.211239 -0.632461 0.745232 82 47 26 255
-0.000001 100.906937 300.000000 -0.211239 -0.632461 0.745232 82 47 26 255
-0.000001 108.419785 307.500000 -0.211239 -0.632461 0.745232 82 47 26 255
-163.384781 117.735893 267.970337 -0.211239 -0.632461 0.745232 82 47 26 255
-7.292816 116.358917 298.249329 -0.587821 0.003581 -0.808983 82 47 26 255
-7.292816 210.145081 298.249329 -0.587821 0.003581 -0.808983 82 47 26 255
-0.000001 213.316055 293.379395 -0.587821 0.003581 -0.808983 82 47 26 255
-0.000001 108.419785 292.500000 -0.587821 0.003581 -0.808983 82 47 26 255
-7.292816 210.145081 298.249329 -0.770523 0.002725 0.637407 82 47 26 255
-7.292816 116.358917 298.249329 -0.770523 0.002725 0.637407 82 47 26 255
-0.000001 108.419785 307.500000 -0.770523 0.002725 0.637407 82 47 26 255
-0.000001 220.363083 306.620605 -0.770523 0.002725 0.637407 82 47 26 255
-7.292816 210.145081 298.249329 0.027278 -0.847710 -0.529758 82 47 26 255
-151.823868 227.069336 263.554047 0.027278 -0.847710 -0.529758 82 47 26 255
-156.469589 231.892883 255.767593 0.027278 -0.847710 -0.529758 82 47 26 255
-0.000001 213.316055 293.379395 0.027278 -0.847710 -0.529758 82 47 26 255
-151.823868 227.069336 263.554047 -0.256514 -0.501616 0.826185 82 47 26 255
-7.292816 210.145081 298.249329 -0.256514 -0.501616 0.826185 82 47 26 255
-0.000001 220.363083 306.620605 -0.256514 -0.501616 0.826185 82 47 26 255
-161.763779 239.050690 267.839172 -0.256514 -0.501616 0.826185 82 47 26 255
-252.197449 273.702332 167.150955 0.994838 0.006416 0.101271 82 47 26 255
-252.197464 148.434067 167.150940 0.994838 0.006416 0.101271 82 47 26 255
-250.515350 142.125763 158.962448 0.994838 0.006416 0.101271 82 47 26 255
-252.150970 280.234283 158.344467 0.994838 0.006416 0.101271 82 47 26 255
-252.197464 148.434067 167.150940 -0.189958 -0.001091 0.981792 82 47 26 255
-252.197449 273.702332 167.150955 -0.189958 -0.001091 0.981792 82 47 26 255
-262.761322 288.268738 165.262405 -0.189958 -0.001091 0.981792 82 47 26 255
-264.396973 142.125763 164.644394 -0.189958 -0.001091 0.981792 82 47 26 255
-252.197464 148.434067 167.150940 0.595935 0.685857 -0.417685 82 47 26 255
-164.375397 126.652710 256.455872 0.595935 0.685857 -0.417685 82 47 26 255
-154.848587 117.735893 255.636459 0.595935 0.685857 -0.417685 82 47 26 255
-250.515350 142.125763 158.962448 0.595935 0.685857 -0.417685 82 47 26 255
-164.375397 126.652710 256.455872 -0.439840 0.674580 0.592860 82 47 26 255
-252.197464 148.434067 167.150940 -0.439840 0.674580 0.592860 82 47 26 255
-264.396973 142.125763 164.644394 -0.439840 0.674580 0.592860 82 47 26 255
-163.384781 117.735893 267.970337 -0.439840 0.674580 0.592860 82 47 26 255
-164.375397 126.652710 256.455872 -0.086182 -0.000042 -0.996279 82 47 26 255
-164.375397 230.139618 256.455872 -0.086182 -0.000042 -0.996279 82 47 26 255
-156.469589 231.892883 255.767593 -0.086182 -0.000042 -0.996279 82 47 26 255
-154.848587 117.735893 255.636459 -0.086182 -0.000042 -0.996279 82 47 26 255
-164.375397 230.139618 256.455872 -0.987825 0.007214 0.155405 82 47 26 255
-164.375397 126.652710 256.455872 -0.987825 0.007214 0.155405 82 47 26 255
-163.384781 117.735893 267.970337 -0.987825 0.007214 0.155405 82 47 26 255
-161.763779 239.050690 267.839172 -0.987825 0.007214 0.155405 82 47 26 255
-164.375397 230.139618 256.455872 0.168946 -0.808379 -0.563898 82 47 26 255
-252.197449 273.702332 167.150955 0.168946 -0.808379 -0.563898 82 47 26 255
-252.150970 280.234283 158.344467 0.168946 -0.808379 -0.563898 82 47 26 255
-156.469589 231.892883 255.767593 0.168946 -0.808379 -0.563898 82 47 26 255
-252.197449 273.702332 167.150955 -0.735132 -0.452980 0.504371 82 47 26 255
-164.375397 230.139618 256.455872 -0.735132 -0.452980 0.504371 82 47 26 255
-161.763779 239.050690 267.839172 -0.735132 -0.452980 0.504371 82 47 26 255
-262.761322 288.268738 165.262405 -0.735132 -0.452980 0.504371 82 47 26 255
-257.456177 178.163925 45.696587 0.735319 0.657541 0.164152 82 47 26 255
-257.456146 151.674850 154.303421 0.735319 0.657541 0.164152 82 47 26 255
-250.515350 142.125763 158.962448 0.735319 0.657541 0.164152 82 47 26 255
-249.956177 172.273300 38.196587 0.735319 0.657541 0.164152 82 47 26 255
-257.456146 151.674850 154.303421 -0.704377 0.689693 0.167858 82 47 26 255
-257.456177 178.163925 45.696587 -0.704377 0.689693 0.167858 82 47 26 255
-264.956177 172.273300 38.196587 -0.704377 0.689693 0.167858 82 47 26 255
-264.396973 142.125763 164.644394 -0.704377 0.689693 0.167858 82 47 26 255
-257.456146 151.674850 154.303421 0.579968 0.001674 -0.814638 82 47 26 255
-257.456146 279.565247 154.303421 0.579968 0.001674 -0.814638 82 47 26 255
-252.150970 280.234283 158.344467 0.579968 0.001674 -0.814638 82 47 26 255
-250.515350 142.125763 158.962448 0.579968 0.001674 -0.814638 82 47 26 255
-257.456146 279.565247 154.303421 -0.867023 0.006299 -0.498228 82 47 26 255
-257.456146 151.674850 154.303421 -0.867023 0.006299 -0.498228 82 47 26 255
-264.396973 142.125763 164.644394 -0.867023 0.006299 -0.498228 82 47 26 255
-262.761322 288.268738 165.262405 -0.867023 0.006299 -0.498228 82 47 26 255
-257.456146 279.565247 154.303421 0.364531 -0.837899 -0.406254 82 47 26 255
-257.456146 332.543396 45.696594 0.364531 -0.837899 -0.406254 82 47 26 255
-253.126984 338.969940 35.665768 0.364531 -0.837899 -0.406254 82 47 26 255
-252.150970 280.234283 158.344467 0.364531 -0.837899 -0.406254 82 47 26 255
-257.456146 332.543396 45.696594 -0.938384 -0.308454 -0.155855 82 47 26 255
-257.456146 279.565247 154.303421 -0.938384 -0.308454 -0.155855 82 47 26 255
-262.761322 288.268738 165.262405 -0.938384 -0.308454 -0.155855 82 47 26 255
-261.785339 350.123230 40.727417 -0.938384 -0.308454 -0.155855 82 47 26 255
257.456207 279.266052 154.303406 -0.579991 0.001679 -0.814621 82 47 26 255
257.456207 151.363525 154.303406 -0.579991 0.001679 -0.814621 82 47 26 255
250.515350 142.125763 158.962433 -0.579991 0.001679 -0.814621 82 47 26 255
252.181442 280.211426 158.324524 -0.579991 0.001679 -0.814621 82 47 26 255
257.456207 151.363525 154.303406 0.867677 0.006432 -0.497086 82 47 26 255
257.456207 279.266052 154.303406 0.867677 0.006432 -0.497086 82 47 26 255
262.730957 288.291656 165.282303 0.867677 0.006432 -0.497086 82 47 26 255
264.397034 142.125763 164.644363 0.867677 0.006432 -0.497086 82 47 26 255
257.456207 151.363525 154.303406 -0.733444 0.664537 0.143008 82 47 26 255
257.456177 174.161026 45.696602 -0.733444 0.664537 0.143008 82 47 26 255
249.956177 168.071899 38.196602 -0.733444 0.664537 0.143008 82 47 26 255
250.515350 142.125763 158.962433 -0.733444 0.664537 0.143008 82 47 26 255
257.456177 174.161026 45.696602 0.706523 0.692612 0.145309 82 47 26 255
257.456207 151.363525 154.303406 0.706523 0.692612 0.145309 82 47 26 255
264.397034 142.125763 164.644363 0.706523 0.692612 0.145309 82 47 26 255
264.956177 168.071899 38.196602 0.706523 0.692612 0.145309 82 47 26 255
257.456207 324.861084 45.696609 -0.374860 -0.855681 -0.356778 82 47 26 255
257.456207 279.266052 154.303406 -0.374860 -0.855681 -0.356778 82 47 26 255
252.181442 280.211426 158.324524 -0.374860 -0.855681 -0.356778 82 47 26 255
252.950714 330.683899 35.718891 -0.374860 -0.855681 -0.356778 82 47 26 255
257.456207 279.266052 154.303406 0.936020 -0.322893 -0.140027 82 47 26 255
257.456207 324.861084 45.696609 0.936020 -0.322893 -0.140027 82 47 26 255
261.961670 341.603729 40.674332 0.936020 -0.322893 -0.140027 82 47 26 255
262.730957 288.291656 165.282303 0.936020 -0.322893 -0.140027 82 47 26 255
164.375397 230.139618 256.455902 0.086185 -0.000042 -0.996279 82 47 26 255
164.375397 126.652687 256.455902 0.086185 -0.000042 -0.996279 82 47 26 255
154.848587 117.735878 255.636459 0.086185 -0.000042 -0.996279 82 47 26 255
156.469589 231.892883 255.767609 0.086185 -0.000042 -0.996279 82 47 26 255
164.375397 126.652687 256.455902 0.987825 0.007214 0.155404 82 47 26 255
164.375397 230.139618 256.455902 0.987825 0.007214 0.155404 82 47 26 255
161.763779 239.050690 267.839233 0.987825 0.007214 0.155404 82 47 26 255
163.384781 117.735878 267.970367 0.987825 0.007214 0.155404 82 47 26 255
164.375397 126.652687 256.455902 -0.595935 0.685858 -0.417685 82 47 26 255
252.197464 148.434067 167.150909 -0.595935 0.685858 -0.417685 82 47 26 255
250.515350 142.125763 158.962433 -0.595935 0.685858 -0.417685 82 47 26 255
154.848587 117.735878 255.636459 -0.595935 0.685858 -0.417685 82 47 26 255
252.197464 148.434067 167.150909 0.439840 0.674581 0.592859 82 47 26 255
164.375397 126.652687 256.455902 0.439840 0.674581 0.592859 82 47 26 255
163.384781 117.735878 267.970367 0.439840 0.674581 0.592859 82 47 26 255
264.397034 142.125763 164.644363 0.439840 0.674581 0.592859 82 47 26 255
252.197464 148.434067 167.150909 -0.995028 0.006536 0.099385 82 47 26 255
252.197479 273.702362 167.150925 -0.995028 0.006536 0.099385 82 47 26 255
252.181442 280.211426 158.324524 -0.995028 0.006536 0.099385 82 47 26 255
250.515350 142.125763 158.962433 -0.995028 0.006536 0.099385 82 47 26 255
252.197479 273.702362 167.150925 0.189392 -0.001145 0.981901 82 47 26 255
252.197464 148.434067 167.150909 0.189392 -0.001145 0.981901 82 47 26 255
264.397034 142.125763 164.644363 0.189392 -0.001145 0.981901 82 47 26 255
262.730957 288.291656 165.282303 0.189392 -0.001145 0.981901 82 47 26 255
252.197479 273.702362 167.150925 -0.167771 -0.809228 -0.563029 82 47 26 255
164.375397 230.139618 256.455902 -0.167771 -0.809228 -0.563029 82 47 26 255
156.469589 231.892883 255.767609 -0.167771 -0.809228 -0.563029 82 47 26 255
252.181442 280.211426 158.324524 -0.167771 -0.809228 -0.563029 82 47 26 255
164.375397 230.139618 256.455902 0.735306 -0.452241 0.504781 82 47 26 255
252.197479 273.702362 167.150925 0.735306 -0.452241 0.504781 82 47 26 255
262.730957 288.291656 165.282303 0.735306 -0.452241 0.504781 82 47 26 255
161.763779 239.050690 267.839233 0.735306 -0.452241 0.504781 82 47 26 255
7.292815 210.145081 298.249329 0.587821 0.003581 -0.808983 82 47 26 255
7.292815 116.358917 298.249329 0.587821 0.003581 -0.808983 82 47 26 255
-0.000001 108.419785 292.500000 0.587821 0.003581 -0.808983 82 47 26 255
-0.000001 213.316055 293.379395 0.587821 0.003581 -0.808983 82 47 26 255
7.292815 116.358917 298.249329 0.770523 0.002725 0.637407 82 47 26 255
7.292815 210.145081 298.249329 0.770523 0.002725 0.637407 82 47 26 255
-0.000001 220.363083 306.620605 0.770523 0.002725 0.637407 82 47 26 255
-0.000001 108.419785 307.500000 0.770523 0.002725 0.637407 82 47 26 255
7.292815 116.358917 298.249329 -0.206797 0.689853 -0.693785 82 47 26 255
151.823868 124.821037 263.554077 -0.206797 0.689853 -0.693785 82 47 26 255
154.848587 117.735878 255.636459 -0.206797 0.689853 -0.693785 82 47 26 255
-0.000001 108.419785 292.500000 -0.206797 0.689853 -0.693785 82 47 26 255
151.823868 124.821037 263.554077 0.132477 0.687302 0.714189 82 47 26 255
7.292815 116.358917 298.249329 0.132477 0.687302 0.714189 82 47 26 255
-0.000001 108.419785 307.500000 0.132477 0.687302 0.714189 82 47 26 255
163.384781 117.735878 267.970367 0.132477 0.687302 0.714189 82 47 26 255
152.445282 109.936714 265.576233 -0.109965 -0.739341 -0.664291 82 47 26 255
-0.000001 100.906937 300.000000 -0.109965 -0.739341 -0.664291 82 47 26 255
-0.000001 108.419785 292.500000 -0.109965 -0.739341 -0.664291 82 47 26 255
154.848587 117.735878 255.636459 -0.109965 -0.739341 -0.664291 82 47 26 255
-0.000001 100.906937 300.000000 0.211239 -0.632462 0.745232 82 47 26 255
152.445282 109.936714 265.576233 0.211239 -0.632462 0.745232 82 47 26 255
163.384781 117.735878 267.970367 0.211239 -0.632462 0.745232 82 47 26 255
-0.000001 108.419785 307.500000 0.211239 -0.632462 0.745232 82 47 26 255
151.823868 124.821037 263.554077 -0.898125 0.006994 -0.439684 82 47 26 255
151.823868 227.069336 263.554077 -0.898125 0.006994 -0.439684 82 47 26 255
156.469589 231.892883 255.767609 -0.898125 0.006994 -0.439684 82 47 26 255
154.848587 117.735878 255.636459 -0.898125 0.006994 -0.439684 82 47 26 255
151.823868 227.069336 263.554077 -0.374720 -0.002173 0.927136 82 47 26 255
151.823868 124.821037 263.554077 -0.374720 -0.002173 0.927136 82 47 26 255
163.384781 117.735878 267.970367 -0.374720 -0.002173 0.927136 82 47 26 255
161.763779 239.050690 267.839233 -0.374720 -0.002173 0.927136 82 47 26 255
151.823868 227.069336 263.554077 -0.027278 -0.847710 -0.529758 82 47 26 255
7.292815 210.145081 298.249329 -0.027278 -0.847710 -0.529758 82 47 26 255
-0.000001 213.316055 293.379395 -0.027278 -0.847710 -0.529758 82 47 26 255
156.469589 231.892883 255.767609 -0.027278 -0.847710 -0.529758 82 47 26 255
7.292815 210.145081 298.249329 0.256514 -0.501617 0.826185 82 47 26 255
151.823868 227.069336 263.554077 0.256514 -0.501617 0.826185 82 47 26 255
161.763779 239.050690 267.839233 0.256514 -0.501617 0.826185 82 47 26 255
-0.000001 220.363083 306.620605 0.256514 -0.501617 0.826185 82 47 26 255
4 0 1 2 3
4 4 5 6 7
4 8 9 10 11
4 12 13 14 15
4 16 17 18 19
4 20 21 22 23
4 24 25 26 27
4 28 29 30 31
4 32 33 34 35
4 36 37 38 39
4 40 41 42 43
4 44 45 46 47
4 48 49 50 51
4 52 53 54 55
4 56 57 58 59
4 60 61 62 63
4 35 34 43 42
4 64 65 66 67
4 68 69 70 71
4 72 73 74 75
4 76 77 78 79
4 39 38 51 50
4 80 81 82 83
4 84 85 86 87
4 88 89 90 91
4 92 93 94 95
4 96 97 98 99
4 100 101 102 103
4 104 105 106 107
4 108 109 110 111
4 112 113 114 115
4 116 117 118 119
4 120 121 122 123
4 124 125 126 127
4 128 129 130 131
4 132 133 134 135
4 136 137 138 139
4 140 141 142 143
4 144 145 146 147
4 148 149 150 151
4 152 153 154 155
4 156 157 158 159
4 160 161 162 163
4 164 165 166 167
4 168 169 170 171
4 172 173 174 175
4 176 177 178 179
4 180 181 182 183
4 184 185 186 187
4 188 189 190 191
4 192 193 194 195
4 196 197 198 199
4 200 201 202 203
4 204 205 206 207
4 208 209 210 211
4 212 213 214 215
4 216 217 218 219
4 220 221 222 223
4 224 225 226 227
4 228 229 230 231
4 232 233 234 235
4 236 237 238 239
4 240 241 242 243
4 244 245 246 247
4 248 249 250 251
4 252 253 254 255
4 256 257 258 259
4 260 261 262 263
4 264 265 266 267
4 268 269 270 271
4 272 273 274 275
4 276 277 278 279
4 280 281 282 283
4 284 285 286 287
4 288 289 290 291
4 292 293 294 295
4 296 297 298 299
4 300 301 302 303
4 304 305 306 307
4 308 309 310 311
4 312 313 314 315
4 316 317 318 319
4 320 321 322 323
4 324 325 326 327
4 328 329 330 331
4 332 333 334 335
4 336 337 338 339
4 340 341 342 343
4 344 345 346 347
4 348 349 350 351
4 352 353 354 355
4 356 357 358 359
4 360 361 362 363
4 364 365 366 367
4 368 369 370 371
4 372 373 374 375
4 376 377 378 379
4 380 381 382 383
4 384 385 386 387
4 388 389 390 391
4 392 393 394 395
4 396 397 398 399
4 400 401 402 403
4 404 405 406 407
4 408 409 410 411
4 412 413 414 415
4 416 417 418 419
4 420 421 422 423
4 424 425 426 427
4 428 429 430 431
4 432 433 434 435
4 436 437 438 439
4 440 441 442 443
4 444 445 446 447
4 448 449 450 451
4 452 453 454 455
4 456 457 458 459
4 460 461 462 463
4 464 465 466 467
4 468 469 470 471
4 472 473 474 475
4 476 477 478 479
4 480 481 482 483
4 484 485 486 487
4 488 489 490 491
4 492 493 494 495
4 496 497 498 499
4 500 501 502 503
4 504 505 506 507
4 508 509 510 511
4 512 513 514 515
4 516 517 518 519
4 520 521 522 523
