ply
format ascii 1.0
comment Created by Blender 2.93.2 - www.blender.org
element vertex 199
property float x
property float y
property float z
property float nx
property float ny
property float nz
property uchar red
property uchar green
property uchar blue
property uchar alpha
element face 57
property list uchar uint vertex_indices
end_header
-170.000000 -0.000013 20.000013 -0.951057 0.309017 0.000000 143 150 161 255
-170.000000 -0.000013 60.000011 -0.951057 0.309017 0.000000 143 150 161 255
-137.532898 99.923485 60.000011 -0.951057 0.309017 0.000000 143 150 161 255
-137.532898 99.923485 20.000010 -0.951057 0.309017 0.000000 143 150 161 255
-160.000000 -0.000012 -19.999989 -0.925263 0.300636 -0.231316 143 150 161 255
-170.000000 -0.000013 20.000013 -0.925263 0.300636 -0.231316 143 150 161 255
-137.532898 99.923485 20.000010 -0.925263 0.300636 -0.231316 143 150 161 255
-129.442734 94.045631 -19.999990 -0.925263 0.300636 -0.231316 143 150 161 255
-39.999985 -0.000003 180.000000 -0.947982 0.308018 -0.080337 143 150 161 255
-49.999977 -0.000004 298.000000 -0.947982 0.308018 -0.080337 143 150 161 255
-40.450832 29.389259 298.000000 -0.947982 0.308018 -0.080337 143 150 161 255
-32.360668 23.511408 180.000000 -0.947982 0.308018 -0.080337 143 150 161 255
-170.000000 -0.000013 60.000011 -0.489815 0.159151 0.857177 143 150 161 255
-99.999992 -0.000008 100.000008 -0.489815 0.159151 0.857177 143 150 161 255
-80.901703 58.778519 100.000008 -0.489815 0.159151 0.857177 143 150 161 255
-137.532898 99.923485 60.000011 -0.489815 0.159151 0.857177 143 150 161 255
-100.000000 -0.000008 -19.999992 -0.000000 -0.000000 -1.000000 143 150 161 255
-160.000000 -0.000012 -19.999989 -0.000000 -0.000000 -1.000000 143 150 161 255
-129.442734 94.045631 -19.999990 -0.000000 -0.000000 -1.000000 143 150 161 255
-80.901711 58.778519 -19.999994 -0.000000 -0.000000 -1.000000 143 150 161 255
-99.999992 -0.000008 100.000008 0.000000 -0.000000 1.000000 143 150 161 255
-39.999992 -0.000003 100.000000 0.000000 -0.000000 1.000000 143 150 161 255
-32.360672 23.511408 100.000000 0.000000 -0.000000 1.000000 143 150 161 255
-80.901703 58.778519 100.000008 0.000000 -0.000000 1.000000 143 150 161 255
-40.000000 -0.000003 0.000003 0.314572 -0.102210 -0.943715 143 150 161 255
-100.000000 -0.000008 -19.999992 0.314572 -0.102210 -0.943715 143 150 161 255
-80.901711 58.778519 -19.999994 0.314572 -0.102210 -0.943715 143 150 161 255
-32.360680 23.511408 0.000002 0.314572 -0.102210 -0.943715 143 150 161 255
0.000000 0.000000 0.000000 -0.000000 0.000000 -1.000000 143 150 161 255
-40.000000 -0.000003 0.000003 -0.000000 0.000000 -1.000000 143 150 161 255
-32.360680 23.511408 0.000002 -0.000000 0.000000 -1.000000 143 150 161 255
-39.999992 -0.000003 100.000000 -0.951056 0.309017 0.000000 143 150 161 255
-39.999985 -0.000003 180.000000 -0.951056 0.309017 0.000000 143 150 161 255
-32.360668 23.511408 180.000000 -0.951056 0.309017 0.000000 143 150 161 255
-32.360672 23.511408 100.000000 -0.951056 0.309017 0.000000 143 150 161 255
-137.532898 99.923485 60.000011 -0.302722 0.416662 0.857177 143 150 161 255
-80.901703 58.778519 100.000008 -0.302722 0.416662 0.857177 143 150 161 255
-30.901703 95.105652 100.000000 -0.302722 0.416662 0.857177 143 150 161 255
-52.532909 161.679611 60.000004 -0.302722 0.416662 0.857177 143 150 161 255
-49.442730 152.169037 -19.999996 -0.000000 0.000000 -1.000000 143 150 161 255
-30.901712 95.105652 -19.999998 -0.000000 0.000000 -1.000000 143 150 161 255
-12.360675 38.042259 100.000000 0.000000 -0.000000 1.000000 143 150 161 255
-30.901703 95.105652 100.000000 0.000000 -0.000000 1.000000 143 150 161 255
-32.360680 23.511408 0.000002 0.194416 -0.267591 -0.943715 143 150 161 255
-80.901711 58.778519 -19.999994 0.194416 -0.267591 -0.943715 143 150 161 255
-30.901712 95.105652 -19.999998 0.194416 -0.267591 -0.943715 143 150 161 255
-12.360682 38.042259 0.000001 0.194416 -0.267591 -0.943715 143 150 161 255
-12.360682 38.042259 0.000001 -0.000000 -0.000000 -1.000000 143 150 161 255
-32.360672 23.511408 100.000000 -0.587785 0.809017 0.000000 143 150 161 255
-32.360668 23.511408 180.000000 -0.587785 0.809017 0.000000 143 150 161 255
-12.360669 38.042259 180.000000 -0.587785 0.809017 0.000000 143 150 161 255
-12.360675 38.042259 100.000000 -0.587785 0.809017 0.000000 143 150 161 255
-137.532898 99.923485 20.000010 -0.587785 0.809017 0.000000 143 150 161 255
-137.532898 99.923485 60.000011 -0.587785 0.809017 0.000000 143 150 161 255
-52.532909 161.679611 60.000004 -0.587785 0.809017 0.000000 143 150 161 255
-52.532913 161.679611 20.000004 -0.587785 0.809017 0.000000 143 150 161 255
-129.442734 94.045631 -19.999990 -0.571844 0.787075 -0.231316 143 150 161 255
-137.532898 99.923485 20.000010 -0.571844 0.787075 -0.231316 143 150 161 255
-52.532913 161.679611 20.000004 -0.571844 0.787075 -0.231316 143 150 161 255
-49.442730 152.169037 -19.999996 -0.571844 0.787075 -0.231316 143 150 161 255
-32.360668 23.511408 180.000000 -0.585885 0.806402 -0.080337 143 150 161 255
-40.450832 29.389259 298.000000 -0.585885 0.806402 -0.080337 143 150 161 255
-15.450832 47.552826 298.000000 -0.585885 0.806402 -0.080337 143 150 161 255
-12.360669 38.042259 180.000000 -0.585885 0.806402 -0.080337 143 150 161 255
-12.360682 38.042259 0.000001 0.000000 -0.330760 -0.943715 143 150 161 255
-30.901712 95.105652 -19.999998 0.000000 -0.330760 -0.943715 143 150 161 255
30.901686 95.105659 -20.000002 0.000000 -0.330760 -0.943715 143 150 161 255
12.360675 38.042259 -0.000001 0.000000 -0.330760 -0.943715 143 150 161 255
12.360675 38.042259 -0.000001 -0.000000 -0.000000 -1.000000 143 150 161 255
-12.360675 38.042259 100.000000 0.000000 1.000000 0.000000 143 150 161 255
-12.360669 38.042259 180.000000 0.000000 1.000000 0.000000 143 150 161 255
12.360688 38.042259 180.000000 0.000000 1.000000 0.000000 143 150 161 255
12.360682 38.042259 100.000000 0.000000 1.000000 0.000000 143 150 161 255
-52.532913 161.679611 20.000004 -0.000000 1.000000 0.000000 143 150 161 255
-52.532909 161.679611 60.000004 -0.000000 1.000000 0.000000 143 150 161 255
52.532871 161.679626 59.999996 -0.000000 1.000000 0.000000 143 150 161 255
52.532867 161.679626 19.999996 -0.000000 1.000000 0.000000 143 150 161 255
-49.442730 152.169037 -19.999996 -0.000000 0.972879 -0.231316 143 150 161 255
-52.532913 161.679611 20.000004 -0.000000 0.972879 -0.231316 143 150 161 255
52.532867 161.679626 19.999996 -0.000000 0.972879 -0.231316 143 150 161 255
49.442699 152.169037 -20.000004 -0.000000 0.972879 -0.231316 143 150 161 255
-12.360669 38.042259 180.000000 -0.000000 0.996768 -0.080338 143 150 161 255
-15.450832 47.552826 298.000000 -0.000000 0.996768 -0.080338 143 150 161 255
15.450867 47.552830 298.000000 -0.000000 0.996768 -0.080338 143 150 161 255
12.360688 38.042259 180.000000 -0.000000 0.996768 -0.080338 143 150 161 255
-52.532909 161.679611 60.000004 -0.000000 0.515022 0.857177 143 150 161 255
-30.901703 95.105652 100.000000 -0.000000 0.515022 0.857177 143 150 161 255
30.901695 95.105659 100.000000 -0.000000 0.515022 0.857177 143 150 161 255
52.532871 161.679626 59.999996 -0.000000 0.515022 0.857177 143 150 161 255
49.442699 152.169037 -20.000004 -0.000000 0.000000 -1.000000 143 150 161 255
30.901686 95.105659 -20.000002 -0.000000 0.000000 -1.000000 143 150 161 255
12.360682 38.042259 100.000000 0.000000 0.000000 1.000000 143 150 161 255
30.901695 95.105659 100.000000 0.000000 0.000000 1.000000 143 150 161 255
49.442699 152.169037 -20.000004 0.571844 0.787075 -0.231316 143 150 161 255
52.532867 161.679626 19.999996 0.571844 0.787075 -0.231316 143 150 161 255
137.532898 99.923515 19.999990 0.571844 0.787075 -0.231316 143 150 161 255
129.442688 94.045647 -20.000010 0.571844 0.787075 -0.231316 143 150 161 255
12.360688 38.042259 180.000000 0.585885 0.806402 -0.080338 143 150 161 255
15.450867 47.552830 298.000000 0.585885 0.806402 -0.080338 143 150 161 255
40.450871 29.389271 298.000000 0.585885 0.806402 -0.080338 143 150 161 255
32.360687 23.511412 180.000000 0.585885 0.806402 -0.080338 143 150 161 255
52.532871 161.679626 59.999996 0.302722 0.416662 0.857177 143 150 161 255
30.901695 95.105659 100.000000 0.302722 0.416662 0.857177 143 150 161 255
80.901703 58.778542 99.999992 0.302722 0.416662 0.857177 143 150 161 255
137.532898 99.923515 59.999989 0.302722 0.416662 0.857177 143 150 161 255
129.442688 94.045647 -20.000010 -0.000000 -0.000000 -1.000000 143 150 161 255
80.901695 58.778542 -20.000006 -0.000000 -0.000000 -1.000000 143 150 161 255
32.360683 23.511412 100.000000 0.000000 0.000000 1.000000 143 150 161 255
80.901703 58.778542 99.999992 0.000000 0.000000 1.000000 143 150 161 255
12.360675 38.042259 -0.000001 -0.194416 -0.267591 -0.943715 143 150 161 255
30.901686 95.105659 -20.000002 -0.194416 -0.267591 -0.943715 143 150 161 255
80.901695 58.778542 -20.000006 -0.194416 -0.267591 -0.943715 143 150 161 255
32.360676 23.511412 -0.000002 -0.194416 -0.267591 -0.943715 143 150 161 255
32.360676 23.511412 -0.000002 -0.000000 -0.000000 -1.000000 143 150 161 255
12.360682 38.042259 100.000000 0.587785 0.809017 -0.000000 143 150 161 255
12.360688 38.042259 180.000000 0.587785 0.809017 -0.000000 143 150 161 255
32.360687 23.511412 180.000000 0.587785 0.809017 -0.000000 143 150 161 255
32.360683 23.511412 100.000000 0.587785 0.809017 -0.000000 143 150 161 255
52.532867 161.679626 19.999996 0.587785 0.809017 0.000000 143 150 161 255
52.532871 161.679626 59.999996 0.587785 0.809017 0.000000 143 150 161 255
137.532898 99.923515 59.999989 0.587785 0.809017 0.000000 143 150 161 255
137.532898 99.923515 19.999990 0.587785 0.809017 0.000000 143 150 161 255
40.000004 0.000008 100.000000 0.000000 0.000000 1.000000 143 150 161 255
100.000015 0.000013 99.999992 0.000000 0.000000 1.000000 143 150 161 255
32.360676 23.511412 -0.000002 -0.314572 -0.102211 -0.943715 143 150 161 255
80.901695 58.778542 -20.000006 -0.314572 -0.102211 -0.943715 143 150 161 255
100.000008 0.000013 -20.000008 -0.314572 -0.102211 -0.943715 143 150 161 255
39.999996 0.000008 -0.000003 -0.314572 -0.102211 -0.943715 143 150 161 255
39.999996 0.000008 -0.000003 -0.000000 0.000000 -1.000000 143 150 161 255
32.360683 23.511412 100.000000 0.951057 0.309017 -0.000000 143 150 161 255
32.360687 23.511412 180.000000 0.951057 0.309017 -0.000000 143 150 161 255
40.000011 0.000008 180.000000 0.951057 0.309017 -0.000000 143 150 161 255
40.000004 0.000008 100.000000 0.951057 0.309017 -0.000000 143 150 161 255
137.532898 99.923515 19.999990 0.951057 0.309017 0.000000 143 150 161 255
137.532898 99.923515 59.999989 0.951057 0.309017 0.000000 143 150 161 255
170.000015 0.000018 59.999989 0.951057 0.309017 0.000000 143 150 161 255
170.000015 0.000018 19.999987 0.951057 0.309017 0.000000 143 150 161 255
129.442688 94.045647 -20.000010 0.925262 0.300636 -0.231317 143 150 161 255
137.532898 99.923515 19.999990 0.925262 0.300636 -0.231317 143 150 161 255
170.000015 0.000018 19.999987 0.925262 0.300636 -0.231317 143 150 161 255
159.999985 0.000017 -20.000011 0.925262 0.300636 -0.231317 143 150 161 255
32.360687 23.511412 180.000000 0.947982 0.308018 -0.080338 143 150 161 255
40.450871 29.389271 298.000000 0.947982 0.308018 -0.080338 143 150 161 255
50.000027 0.000009 298.000000 0.947982 0.308018 -0.080338 143 150 161 255
40.000011 0.000008 180.000000 0.947982 0.308018 -0.080338 143 150 161 255
137.532898 99.923515 59.999989 0.489815 0.159151 0.857177 143 150 161 255
80.901703 58.778542 99.999992 0.489815 0.159151 0.857177 143 150 161 255
100.000015 0.000013 99.999992 0.489815 0.159151 0.857177 143 150 161 255
170.000015 0.000018 59.999989 0.489815 0.159151 0.857177 143 150 161 255
159.999985 0.000017 -20.000011 -0.000000 0.000000 -1.000000 143 150 161 255
100.000008 0.000013 -20.000008 -0.000000 0.000000 -1.000000 143 150 161 255
46.079258 -0.528383 73.619835 -0.981573 -0.189514 -0.024486 0 82 3 255
44.598076 -0.000005 100.487396 -0.981573 -0.189514 -0.024486 0 82 3 255
43.078434 11.542827 100.487396 -0.981573 -0.189514 -0.024486 0 82 3 255
43.136562 10.910159 74.633698 -0.981573 -0.189514 -0.024486 0 82 3 255
43.136562 10.910159 74.633698 -0.920663 -0.390200 0.011160 0 82 3 255
43.078434 11.542827 100.487396 -0.920663 -0.390200 0.011160 0 82 3 255
38.623070 22.299034 100.487396 -0.920663 -0.390200 0.011160 0 82 3 255
38.376125 21.906570 74.922714 -0.920663 -0.390200 0.011160 0 82 3 255
38.376125 21.906570 74.922714 -0.800374 -0.599389 0.011600 0 82 3 255
38.623070 22.299034 100.487396 -0.800374 -0.599389 0.011600 0 82 3 255
31.535606 31.535597 100.487396 -0.800374 -0.599389 0.011600 0 82 3 255
30.464407 32.696724 74.821663 -0.800374 -0.599389 0.011600 0 82 3 255
30.464407 32.696724 74.821663 -0.672074 -0.739227 -0.043124 0 82 3 255
31.535606 31.535597 100.487396 -0.672074 -0.739227 -0.043124 0 82 3 255
22.299042 38.623062 100.487396 -0.672074 -0.739227 -0.043124 0 82 3 255
23.133448 40.718342 74.022919 -0.672074 -0.739227 -0.043124 0 82 3 255
23.133448 40.718342 74.022919 -0.226414 -0.973953 -0.012306 0 82 3 255
22.299042 38.623062 100.487396 -0.226414 -0.973953 -0.012306 0 82 3 255
11.542838 43.078434 100.487396 -0.226414 -0.973953 -0.012306 0 82 3 255
9.485680 41.925056 74.900497 -0.226414 -0.973953 -0.012306 0 82 3 255
9.485680 41.925056 74.900497 -0.273787 -0.961790 -0.001022 0 82 3 255
11.542838 43.078434 100.487396 -0.273787 -0.961790 -0.001022 0 82 3 255
0.000006 44.598083 100.487396 -0.273787 -0.961790 -0.001022 0 82 3 255
-1.257146 46.748642 75.545372 -0.273787 -0.961790 -0.001022 0 82 3 255
-1.257146 46.748642 75.545372 0.219164 -0.974249 -0.052980 0 82 3 255
0.000006 44.598083 100.487396 0.219164 -0.974249 -0.052980 0 82 3 255
-11.542827 43.078445 100.487396 0.219164 -0.974249 -0.052980 0 82 3 255
-10.621393 43.588161 75.120934 0.219164 -0.974249 -0.052980 0 82 3 255
-10.621393 43.588161 75.120934 0.334415 -0.941935 -0.030418 0 82 3 255
-11.542827 43.078445 100.487396 0.334415 -0.941935 -0.030418 0 82 3 255
-22.299038 38.623085 100.487396 0.334415 -0.941935 -0.030418 0 82 3 255
-23.663763 39.588173 75.311234 0.334415 -0.941935 -0.030418 0 82 3 255
-23.663763 39.588173 75.311234 0.657992 -0.752218 -0.034861 0 82 3 255
-22.299038 38.623085 100.487396 0.657992 -0.752218 -0.034861 0 82 3 255
-31.535604 31.535620 100.487396 0.657992 -0.752218 -0.034861 0 82 3 255
-31.233370 32.040688 73.886742 0.657992 -0.752218 -0.034861 0 82 3 255
-31.233370 32.040688 73.886742 0.805540 -0.592502 0.006795 0 82 3 255
-31.535604 31.535620 100.487396 0.805540 -0.592502 0.006795 0 82 3 255
-38.623070 22.299053 100.487396 0.805540 -0.592502 0.006795 0 82 3 255
-38.236473 22.126976 74.466431 0.805540 -0.592502 0.006795 0 82 3 255
-38.236473 22.126976 74.466431 0.892403 -0.450906 -0.017350 0 82 3 255
-38.623070 22.299053 100.487396 0.892403 -0.450906 -0.017350 0 82 3 255
-43.078438 11.542846 100.487396 0.892403 -0.450906 -0.017350 0 82 3 255
-44.424751 11.742842 76.420273 0.892403 -0.450906 -0.017350 0 82 3 255
-44.424751 11.742842 76.420273 0.999009 -0.042415 -0.013500 0 82 3 255
-43.078438 11.542846 100.487396 0.999009 -0.042415 -0.013500 0 82 3 255
-44.598087 0.000012 100.487396 0.999009 -0.042415 -0.013500 0 82 3 255
-43.906929 0.249859 74.659218 0.999009 -0.042415 -0.013500 0 82 3 255
4 0 1 2 3
4 4 5 6 7
4 8 9 10 11
4 12 13 14 15
4 16 17 18 19
4 20 21 22 23
4 24 25 26 27
3 28 29 30
4 31 32 33 34
4 35 36 37 38
4 19 18 39 40
4 23 22 41 42
4 43 44 45 46
3 28 30 47
4 48 49 50 51
4 52 53 54 55
4 56 57 58 59
4 60 61 62 63
4 64 65 66 67
3 28 47 68
4 69 70 71 72
4 73 74 75 76
4 77 78 79 80
4 81 82 83 84
4 85 86 87 88
4 40 39 89 90
4 42 41 91 92
4 93 94 95 96
4 97 98 99 100
4 101 102 103 104
4 90 89 105 106
4 92 91 107 108
4 109 110 111 112
3 28 68 113
4 114 115 116 117
4 118 119 120 121
4 108 107 122 123
4 124 125 126 127
3 28 113 128
4 129 130 131 132
4 133 134 135 136
4 137 138 139 140
4 141 142 143 144
4 145 146 147 148
4 106 105 149 150
4 151 152 153 154
4 155 156 157 158
4 159 160 161 162
4 163 164 165 166
4 167 168 169 170
4 171 172 173 174
4 175 176 177 178
4 179 180 181 182
4 183 184 185 186
4 187 188 189 190
4 191 192 193 194
4 195 196 197 198
