ply
format ascii 1.0
comment Created by Blender 2.93.2 - www.blender.org
element vertex 222
property float x
property float y
property float z
property float nx
property float ny
property float nz
property uchar red
property uchar green
property uchar blue
property uchar alpha
element face 72
property list uchar uint vertex_indices
end_header
-160.000000 -0.000012 40.000011 -0.919442 0.246364 0.306481 156 156 156 255
-140.000000 -0.000011 100.000008 -0.919442 0.246364 0.306481 156 156 156 255
-121.243553 69.999992 100.000008 -0.919442 0.246364 0.306481 156 156 156 255
-138.564056 79.999992 40.000011 -0.919442 0.246364 0.306481 156 156 156 255
-109.999992 -0.000008 100.000008 0.919442 -0.246364 0.306481 156 156 156 255
-99.999992 -0.000008 70.000008 0.919442 -0.246364 0.306481 156 156 156 255
-86.602539 49.999992 70.000008 0.919442 -0.246364 0.306481 156 156 156 255
-95.262794 54.999992 100.000008 0.919442 -0.246364 0.306481 156 156 156 255
0.000000 0.000000 0.000000 -0.000000 -0.000000 -1.000000 156 156 156 255
-140.000000 -0.000011 0.000011 -0.000000 -0.000000 -1.000000 156 156 156 255
-121.243561 69.999992 0.000009 -0.000000 -0.000000 -1.000000 156 156 156 255
0.000000 0.000000 0.000000 -0.000000 -0.000000 -1.000000 156 156 156 255
-140.000000 -0.000011 100.000008 0.000000 0.000000 1.000000 156 156 156 255
-109.999992 -0.000008 100.000008 0.000000 0.000000 1.000000 156 156 156 255
-95.262794 54.999992 100.000008 0.000000 0.000000 1.000000 156 156 156 255
-121.243553 69.999992 100.000008 0.000000 0.000000 1.000000 156 156 156 255
-140.000000 -0.000011 0.000011 -0.869797 0.233061 -0.434898 156 156 156 255
-160.000000 -0.000012 40.000011 -0.869797 0.233061 -0.434898 156 156 156 255
-138.564056 79.999992 40.000011 -0.869797 0.233061 -0.434898 156 156 156 255
-121.243561 69.999992 0.000009 -0.869797 0.233061 -0.434898 156 156 156 255
-99.999992 -0.000008 70.000008 0.000000 -0.000000 1.000000 156 156 156 255
0.000005 0.000000 70.000000 0.000000 -0.000000 1.000000 156 156 156 255
0.000005 0.000000 70.000000 0.000000 -0.000000 1.000000 156 156 156 255
-86.602539 49.999992 70.000008 0.000000 -0.000000 1.000000 156 156 156 255
-70.000000 121.243546 0.000005 -0.000000 0.000000 -1.000000 156 156 156 255
0.000000 0.000000 0.000000 -0.000000 0.000000 -1.000000 156 156 156 255
-55.000000 95.262787 100.000008 0.000000 0.000000 1.000000 156 156 156 255
-69.999992 121.243546 100.000008 0.000000 0.000000 1.000000 156 156 156 255
-121.243561 69.999992 0.000009 -0.636735 0.636735 -0.434898 156 156 156 255
-138.564056 79.999992 40.000011 -0.636735 0.636735 -0.434898 156 156 156 255
-80.000000 138.564056 40.000008 -0.636735 0.636735 -0.434898 156 156 156 255
-70.000000 121.243546 0.000005 -0.636735 0.636735 -0.434898 156 156 156 255
0.000005 0.000000 70.000000 0.000000 0.000000 1.000000 156 156 156 255
-50.000000 86.602539 70.000000 0.000000 0.000000 1.000000 156 156 156 255
-138.564056 79.999992 40.000011 -0.673079 0.673079 0.306481 156 156 156 255
-121.243553 69.999992 100.000008 -0.673079 0.673079 0.306481 156 156 156 255
-69.999992 121.243546 100.000008 -0.673079 0.673079 0.306481 156 156 156 255
-80.000000 138.564056 40.000008 -0.673079 0.673079 0.306481 156 156 156 255
-95.262794 54.999992 100.000008 0.673079 -0.673079 0.306481 156 156 156 255
-86.602539 49.999992 70.000008 0.673079 -0.673079 0.306481 156 156 156 255
-50.000000 86.602539 70.000000 0.673079 -0.673079 0.306481 156 156 156 255
-55.000000 95.262787 100.000008 0.673079 -0.673079 0.306481 156 156 156 255
-0.000003 139.999985 -0.000000 -0.000000 -0.000000 -1.000000 156 156 156 255
0.000000 0.000000 0.000000 -0.000000 -0.000000 -1.000000 156 156 156 255
-0.000001 110.000000 100.000000 0.000000 0.000000 1.000000 156 156 156 255
0.000005 139.999985 100.000000 0.000000 0.000000 1.000000 156 156 156 255
-70.000000 121.243546 0.000005 -0.233061 0.869797 -0.434898 156 156 156 255
-80.000000 138.564056 40.000008 -0.233061 0.869797 -0.434898 156 156 156 255
-0.000009 159.999985 40.000000 -0.233061 0.869797 -0.434898 156 156 156 255
-0.000003 139.999985 -0.000000 -0.233061 0.869797 -0.434898 156 156 156 255
0.000005 0.000000 70.000000 0.000000 0.000000 1.000000 156 156 156 255
-0.000002 100.000000 70.000000 0.000000 0.000000 1.000000 156 156 156 255
-80.000000 138.564056 40.000008 -0.246364 0.919442 0.306481 156 156 156 255
-69.999992 121.243546 100.000008 -0.246364 0.919442 0.306481 156 156 156 255
0.000005 139.999985 100.000000 -0.246364 0.919442 0.306481 156 156 156 255
-0.000009 159.999985 40.000000 -0.246364 0.919442 0.306481 156 156 156 255
-55.000000 95.262787 100.000008 0.246364 -0.919442 0.306481 156 156 156 255
-50.000000 86.602539 70.000000 0.246364 -0.919442 0.306481 156 156 156 255
-0.000002 100.000000 70.000000 0.246364 -0.919442 0.306481 156 156 156 255
-0.000001 110.000000 100.000000 0.246364 -0.919442 0.306481 156 156 156 255
69.999992 121.243538 -0.000005 -0.000000 -0.000000 -1.000000 156 156 156 255
0.000000 0.000000 0.000000 -0.000000 -0.000000 -1.000000 156 156 156 255
55.000000 95.262802 99.999992 0.000000 -0.000000 1.000000 156 156 156 255
70.000000 121.243538 99.999992 0.000000 -0.000000 1.000000 156 156 156 255
-0.000003 139.999985 -0.000000 0.233061 0.869796 -0.434898 156 156 156 255
-0.000009 159.999985 40.000000 0.233061 0.869796 -0.434898 156 156 156 255
79.999985 138.564056 39.999992 0.233061 0.869796 -0.434898 156 156 156 255
69.999992 121.243538 -0.000005 0.233061 0.869796 -0.434898 156 156 156 255
0.000005 0.000000 70.000000 0.000000 0.000000 1.000000 156 156 156 255
50.000000 86.602539 70.000000 0.000000 0.000000 1.000000 156 156 156 255
-0.000009 159.999985 40.000000 0.246364 0.919442 0.306481 156 156 156 255
0.000005 139.999985 100.000000 0.246364 0.919442 0.306481 156 156 156 255
70.000000 121.243538 99.999992 0.246364 0.919442 0.306481 156 156 156 255
79.999985 138.564056 39.999992 0.246364 0.919442 0.306481 156 156 156 255
-0.000001 110.000000 100.000000 -0.246364 -0.919442 0.306481 156 156 156 255
-0.000002 100.000000 70.000000 -0.246364 -0.919442 0.306481 156 156 156 255
50.000000 86.602539 70.000000 -0.246364 -0.919442 0.306481 156 156 156 255
55.000000 95.262802 99.999992 -0.246364 -0.919442 0.306481 156 156 156 255
95.262794 55.000008 99.999992 0.000000 0.000000 1.000000 156 156 156 255
121.243546 69.999985 99.999992 0.000000 0.000000 1.000000 156 156 156 255
69.999992 121.243538 -0.000005 0.636735 0.636735 -0.434898 156 156 156 255
79.999985 138.564056 39.999992 0.636735 0.636735 -0.434898 156 156 156 255
138.564056 80.000008 39.999989 0.636735 0.636735 -0.434898 156 156 156 255
121.243538 69.999985 -0.000009 0.636735 0.636735 -0.434898 156 156 156 255
0.000005 0.000000 70.000000 0.000000 -0.000000 1.000000 156 156 156 255
86.602539 50.000008 69.999992 0.000000 -0.000000 1.000000 156 156 156 255
79.999985 138.564056 39.999992 0.673079 0.673079 0.306481 156 156 156 255
70.000000 121.243538 99.999992 0.673079 0.673079 0.306481 156 156 156 255
121.243546 69.999985 99.999992 0.673079 0.673079 0.306481 156 156 156 255
138.564056 80.000008 39.999989 0.673079 0.673079 0.306481 156 156 156 255
55.000000 95.262802 99.999992 -0.673078 -0.673079 0.306481 156 156 156 255
50.000000 86.602539 70.000000 -0.673078 -0.673079 0.306481 156 156 156 255
86.602539 50.000008 69.999992 -0.673078 -0.673079 0.306481 156 156 156 255
95.262794 55.000008 99.999992 -0.673078 -0.673079 0.306481 156 156 156 255
121.243538 69.999985 -0.000009 -0.000000 -0.000000 -1.000000 156 156 156 255
0.000000 0.000000 0.000000 -0.000000 -0.000000 -1.000000 156 156 156 255
121.243538 69.999985 -0.000009 0.869796 0.233061 -0.434899 156 156 156 255
138.564056 80.000008 39.999989 0.869796 0.233061 -0.434899 156 156 156 255
160.000000 0.000012 39.999989 0.869796 0.233061 -0.434899 156 156 156 255
139.999985 -0.000004 -0.000011 0.869796 0.233061 -0.434899 156 156 156 255
0.000005 0.000000 70.000000 0.000000 0.000000 1.000000 156 156 156 255
100.000008 0.000008 69.999992 0.000000 0.000000 1.000000 156 156 156 255
138.564056 80.000008 39.999989 0.919442 0.246364 0.306481 156 156 156 255
121.243546 69.999985 99.999992 0.919442 0.246364 0.306481 156 156 156 255
139.999985 -0.000004 99.999992 0.919442 0.246364 0.306481 156 156 156 255
160.000000 0.000012 39.999989 0.919442 0.246364 0.306481 156 156 156 255
95.262794 55.000008 99.999992 -0.919442 -0.246364 0.306481 156 156 156 255
86.602539 50.000008 69.999992 -0.919442 -0.246364 0.306481 156 156 156 255
100.000008 0.000008 69.999992 -0.919442 -0.246364 0.306481 156 156 156 255
110.000008 0.000008 99.999992 -0.919442 -0.246364 0.306481 156 156 156 255
139.999985 -0.000004 -0.000011 -0.000000 0.000000 -1.000000 156 156 156 255
0.000000 0.000000 0.000000 -0.000000 0.000000 -1.000000 156 156 156 255
110.000008 0.000008 99.999992 0.000000 -0.000000 1.000000 156 156 156 255
139.999985 -0.000004 99.999992 0.000000 -0.000000 1.000000 156 156 156 255
-15.224725 79.516785 78.116119 -0.931762 0.159479 -0.326170 67 80 97 255
-5.407894 66.388718 43.653690 -0.931762 0.159479 -0.326170 67 80 97 255
-15.493202 69.972900 74.216644 -0.931762 0.159479 -0.326170 67 80 97 255
-15.493202 69.972900 74.216644 -0.064136 -0.993377 0.095332 67 80 97 255
-5.407894 66.388718 43.653690 -0.064136 -0.993377 0.095332 67 80 97 255
-2.836338 69.049049 73.105057 -0.064136 -0.993377 0.095332 67 80 97 255
-2.836338 69.049049 73.105057 0.610699 0.782098 -0.123970 67 80 97 255
-5.407894 66.388718 43.653690 0.610699 0.782098 -0.123970 67 80 97 255
-15.224725 79.516785 78.116119 0.610699 0.782098 -0.123970 67 80 97 255
3.582895 73.571053 78.599495 0.433298 -0.901197 0.009811 67 80 97 255
3.248167 73.039291 44.536350 0.433298 -0.901197 0.009811 67 80 97 255
8.962538 76.120857 75.224205 0.433298 -0.901197 0.009811 67 80 97 255
8.962538 76.120857 75.224205 -0.797295 -0.567547 0.205455 67 80 97 255
3.248167 73.039291 44.536350 -0.797295 -0.567547 0.205455 67 80 97 255
17.369085 63.413383 72.743904 -0.797295 -0.567547 0.205455 67 80 97 255
17.369085 63.413383 72.743904 0.587999 0.808652 -0.018402 67 80 97 255
3.248167 73.039291 44.536350 0.587999 0.808652 -0.018402 67 80 97 255
3.582895 73.571053 78.599495 0.587999 0.808652 -0.018402 67 80 97 255
-19.250973 72.276543 76.692421 -0.582553 0.808212 -0.086171 67 80 97 255
-19.321758 68.589195 42.586876 -0.582553 0.808212 -0.086171 67 80 97 255
-31.404091 64.100822 82.171234 -0.582553 0.808212 -0.086171 67 80 97 255
-31.404091 64.100822 82.171234 0.218766 -0.974796 -0.043756 67 80 97 255
-19.321758 68.589195 42.586876 0.218766 -0.974796 -0.043756 67 80 97 255
-20.245056 66.705238 79.941643 0.218766 -0.974796 -0.043756 67 80 97 255
-20.245056 66.705238 79.941643 0.985895 -0.166601 0.015966 67 80 97 255
-19.321758 68.589195 42.586876 0.985895 -0.166601 0.015966 67 80 97 255
-19.250973 72.276543 76.692421 0.985895 -0.166601 0.015966 67 80 97 255
19.305681 67.357887 78.148094 -0.964034 0.118328 -0.237986 67 80 97 255
26.394073 58.850330 45.204361 -0.964034 0.118328 -0.237986 67 80 97 255
19.740009 58.402615 71.936081 -0.964034 0.118328 -0.237986 67 80 97 255
19.740009 58.402615 71.936081 0.053425 -0.998566 -0.003426 67 80 97 255
26.394073 58.850330 45.204361 0.053425 -0.998566 -0.003426 67 80 97 255
27.239422 58.784031 77.712898 0.053425 -0.998566 -0.003426 67 80 97 255
27.239422 58.784031 77.712898 0.733412 0.679554 -0.017686 67 80 97 255
26.394073 58.850330 45.204361 0.733412 0.679554 -0.017686 67 80 97 255
19.305681 67.357887 78.148094 0.733412 0.679554 -0.017686 67 80 97 255
-37.172180 66.550522 74.394142 -0.975970 0.217426 0.014461 67 80 97 255
-39.046928 60.113102 44.656296 -0.975970 0.217426 0.014461 67 80 97 255
-40.672489 50.412586 80.798294 -0.975970 0.217426 0.014461 67 80 97 255
-40.672489 50.412586 80.798294 0.017227 -0.965867 -0.258464 67 80 97 255
-39.046928 60.113102 44.656296 0.017227 -0.965867 -0.258464 67 80 97 255
-30.864809 52.263592 74.534859 0.017227 -0.965867 -0.258464 67 80 97 255
-30.864809 52.263592 74.534859 0.905885 0.398516 -0.143377 67 80 97 255
-39.046928 60.113102 44.656296 0.905885 0.398516 -0.143377 67 80 97 255
-37.172180 66.550522 74.394142 0.905885 0.398516 -0.143377 67 80 97 255
68.822983 37.693588 75.797035 0.032672 0.963224 -0.266707 67 80 97 255
64.453003 29.410549 45.347137 0.032672 0.963224 -0.266707 67 80 97 255
62.286396 38.307972 77.215172 0.032672 0.963224 -0.266707 67 80 97 255
62.286396 38.307972 77.215172 -0.986564 -0.161905 -0.021870 67 80 97 255
64.453003 29.410549 45.347137 -0.986564 -0.161905 -0.021870 67 80 97 255
64.601440 24.834196 72.529846 -0.986564 -0.161905 -0.021870 67 80 97 255
64.601440 24.834196 72.529846 0.952741 -0.298673 -0.055486 67 80 97 255
64.453003 29.410549 45.347137 0.952741 -0.298673 -0.055486 67 80 97 255
68.822983 37.693588 75.797035 0.952741 -0.298673 -0.055486 67 80 97 255
79.991341 17.168577 80.844070 0.480396 0.871854 -0.095342 67 80 97 255
76.138412 15.576513 46.871716 0.480396 0.871854 -0.095342 67 80 97 255
66.102669 24.269009 75.793617 0.480396 0.871854 -0.095342 67 80 97 255
66.102669 24.269009 75.793617 -0.926562 -0.295532 -0.232690 67 80 97 255
76.138412 15.576513 46.871716 -0.926562 -0.295532 -0.232690 67 80 97 255
71.509697 8.347598 74.484322 -0.926562 -0.295532 -0.232690 67 80 97 255
71.509697 8.347598 74.484322 0.738402 -0.672335 -0.052237 67 80 97 255
76.138412 15.576513 46.871716 0.738402 -0.672335 -0.052237 67 80 97 255
79.991341 17.168577 80.844070 0.738402 -0.672335 -0.052237 67 80 97 255
62.529976 47.163479 75.195473 0.126154 0.991991 0.006176 67 80 97 255
57.059296 48.066319 41.926884 0.126154 0.991991 0.006176 67 80 97 255
53.774754 48.256641 78.449875 0.126154 0.991991 0.006176 67 80 97 255
53.774754 48.256641 78.449875 -0.983620 0.156593 -0.089274 67 80 97 255
57.059296 48.066319 41.926884 -0.983620 0.156593 -0.089274 67 80 97 255
51.902695 38.223682 81.477631 -0.983620 0.156593 -0.089274 67 80 97 255
51.902695 38.223682 81.477631 0.596737 -0.793465 -0.119660 67 80 97 255
57.059296 48.066319 41.926884 0.596737 -0.793465 -0.119660 67 80 97 255
62.529976 47.163479 75.195473 0.596737 -0.793465 -0.119660 67 80 97 255
46.689270 51.517319 72.574684 0.740257 0.662165 -0.116438 67 80 97 255
40.824585 53.013477 43.798378 0.740257 0.662165 -0.116438 67 80 97 255
40.313168 59.587799 77.934036 0.740257 0.662165 -0.116438 67 80 97 255
40.313168 59.587799 77.934036 -0.985033 0.165915 -0.046712 67 80 97 255
40.824585 53.013477 43.798378 -0.985033 0.165915 -0.046712 67 80 97 255
38.064285 45.938381 76.876205 -0.985033 0.165915 -0.046712 67 80 97 255
38.064285 45.938381 76.876205 0.485894 -0.862099 -0.143849 67 80 97 255
40.824585 53.013477 43.798378 0.485894 -0.862099 -0.143849 67 80 97 255
46.689270 51.517319 72.574684 0.485894 -0.862099 -0.143849 67 80 97 255
-71.087494 19.661665 77.043022 -0.963169 -0.017473 -0.268329 67 80 97 255
-61.254524 18.127548 41.847355 -0.963169 -0.017473 -0.268329 67 80 97 255
-69.731323 9.999044 72.804253 -0.963169 -0.017473 -0.268329 67 80 97 255
-69.731323 9.999044 72.804253 0.811661 -0.579921 0.069981 67 80 97 255
-61.254524 18.127548 41.847355 0.811661 -0.579921 0.069981 67 80 97 255
-65.266701 16.673605 76.333183 0.811661 -0.579921 0.069981 67 80 97 255
-65.266701 16.673605 76.333183 0.463555 0.881374 0.091090 67 80 97 255
-61.254524 18.127548 41.847355 0.463555 0.881374 0.091090 67 80 97 255
-71.087494 19.661665 77.043022 0.463555 0.881374 0.091090 67 80 97 255
-75.907364 32.268021 70.074821 -0.798944 -0.599427 -0.048748 67 80 97 255
-69.842552 26.027561 47.412632 -0.798944 -0.599427 -0.048748 67 80 97 255
-65.357140 17.452860 79.337975 -0.798944 -0.599427 -0.048748 67 80 97 255
-65.357140 17.452860 79.337975 0.970349 -0.161610 -0.179737 67 80 97 255
-69.842552 26.027561 47.412632 0.970349 -0.161610 -0.179737 67 80 97 255
-62.918503 36.745510 75.156509 0.970349 -0.161610 -0.179737 67 80 97 255
-62.918503 36.745510 75.156509 -0.199458 0.929775 -0.309410 67 80 97 255
-69.842552 26.027561 47.412632 -0.199458 0.929775 -0.309410 67 80 97 255
-75.907364 32.268021 70.074821 -0.199458 0.929775 -0.309410 67 80 97 255
-55.767445 44.102787 77.520020 -0.796306 -0.584371 -0.156230 67 80 97 255
-54.918659 49.953152 51.310680 -0.796306 -0.584371 -0.156230 67 80 97 255
-49.051216 34.931904 77.590591 -0.796306 -0.584371 -0.156230 67 80 97 255
-49.051216 34.931904 77.590591 0.887336 -0.286095 -0.361641 67 80 97 255
-54.918659 49.953152 51.310680 0.887336 -0.286095 -0.361641 67 80 97 255
-45.464088 51.064693 73.629402 0.887336 -0.286095 -0.361641 67 80 97 255
-45.464088 51.064693 73.629402 -0.506013 0.845149 0.172264 67 80 97 255
-54.918659 49.953152 51.310680 -0.506013 0.845149 0.172264 67 80 97 255
-55.767445 44.102787 77.520020 -0.506013 0.845149 0.172264 67 80 97 255
4 0 1 2 3
4 4 5 6 7
4 8 9 10 11
4 12 13 14 15
4 16 17 18 19
4 20 21 22 23
4 11 10 24 25
4 15 14 26 27
4 28 29 30 31
4 23 22 32 33
4 34 35 36 37
4 38 39 40 41
4 25 24 42 43
4 27 26 44 45
4 46 47 48 49
4 33 32 50 51
4 52 53 54 55
4 56 57 58 59
4 43 42 60 61
4 45 44 62 63
4 64 65 66 67
4 51 50 68 69
4 70 71 72 73
4 74 75 76 77
4 63 62 78 79
4 80 81 82 83
4 69 68 84 85
4 86 87 88 89
4 90 91 92 93
4 61 60 94 95
4 96 97 98 99
4 85 84 100 101
4 102 103 104 105
4 106 107 108 109
4 95 94 110 111
4 79 78 112 113
3 114 115 116
3 117 118 119
3 120 121 122
3 123 124 125
3 126 127 128
3 129 130 131
3 132 133 134
3 135 136 137
3 138 139 140
3 141 142 143
3 144 145 146
3 147 148 149
3 150 151 152
3 153 154 155
3 156 157 158
3 159 160 161
3 162 163 164
3 165 166 167
3 168 169 170
3 171 172 173
3 174 175 176
3 177 178 179
3 180 181 182
3 183 184 185
3 186 187 188
3 189 190 191
3 192 193 194
3 195 196 197
3 198 199 200
3 201 202 203
3 204 205 206
3 207 208 209
3 210 211 212
3 213 214 215
3 216 217 218
3 219 220 221
