ply
format ascii 1.0
comment Created by Blender 2.93.2 - www.blender.org
element vertex 548
property float x
property float y
property float z
property float nx
property float ny
property float nz
property uchar red
property uchar green
property uchar blue
property uchar alpha
element face 162
property list uchar uint vertex_indices
end_header
-80.000000 0.000000 -60.000000 -0.704063 0.092692 -0.704063 163 163 163 255
-120.000000 0.000000 -20.000000 -0.704063 0.092692 -0.704063 163 163 163 255
-115.911095 31.058281 -20.000000 -0.704063 0.092692 -0.704063 163 163 163 255
-77.274063 20.705521 -60.000000 -0.704063 0.092692 -0.704063 163 163 163 255
-80.000000 0.000000 20.000000 0.446441 -0.058775 0.892881 163 163 163 255
-40.000000 0.000000 0.000000 0.446441 -0.058775 0.892881 163 163 163 255
-38.637032 10.352760 0.000000 0.446441 -0.058775 0.892881 163 163 163 255
-77.274063 20.705521 20.000000 0.446441 -0.058775 0.892881 163 163 163 255
-1260.000000 0.000000 -160.000000 0.315954 -0.041596 0.947862 116 118 119 255
-660.000000 0.000000 -360.000000 0.315954 -0.041596 0.947862 74 76 76 255
-637.511047 170.820557 -360.000000 0.315954 -0.041596 0.947862 74 76 76 255
-1217.066528 326.111969 -160.000000 0.315954 -0.041596 0.947862 116 118 119 255
-60.000000 0.000000 -120.000000 -0.941369 0.123934 -0.313790 163 163 163 255
-80.000000 0.000000 -60.000000 -0.941369 0.123934 -0.313790 163 163 163 255
-77.274063 20.705521 -60.000000 -0.941369 0.123934 -0.313790 163 163 163 255
-57.955547 15.529140 -120.000000 -0.941369 0.123934 -0.313790 163 163 163 255
-140.000000 0.000000 20.000000 0.000000 0.000000 1.000000 163 163 163 255
-80.000000 0.000000 20.000000 0.000000 0.000000 1.000000 163 163 163 255
-77.274063 20.705521 20.000000 0.000000 0.000000 1.000000 163 163 163 255
-135.229614 36.234661 20.000000 0.000000 0.000000 1.000000 163 163 163 255
-1860.000000 0.000000 -160.000000 0.000000 0.000000 1.000000 116 118 119 255
-1260.000000 0.000000 -160.000000 0.000000 0.000000 1.000000 116 118 119 255
-1217.066528 326.111969 -160.000000 0.000000 0.000000 1.000000 116 118 119 255
-1796.622070 481.403351 -160.000000 0.000000 0.000000 1.000000 116 118 119 255
-60.000000 0.000000 -360.000000 -0.991445 0.130526 0.000000 51 51 51 255
-60.000000 0.000000 -120.000000 -0.991445 0.130526 0.000000 163 163 163 255
-57.955547 15.529140 -120.000000 -0.991445 0.130526 0.000000 163 163 163 255
-57.955547 15.529140 -360.000000 -0.991445 0.130526 0.000000 51 51 51 255
-120.000000 0.000000 -20.000000 -0.888290 0.116946 -0.444145 163 163 163 255
-140.000000 0.000000 20.000000 -0.888290 0.116946 -0.444145 163 163 163 255
-135.229614 36.234661 20.000000 -0.888290 0.116946 -0.444145 163 163 163 255
-115.911095 31.058281 -20.000000 -0.888290 0.116946 -0.444145 163 163 163 255
-1860.000000 0.000000 740.000000 0.991445 -0.130526 0.000000 0 0 0 255
-1860.000000 0.000000 -160.000000 0.991445 -0.130526 0.000000 158 0 6 255
-1796.622070 481.403351 -160.000000 0.991445 -0.130526 0.000000 158 0 6 255
-1796.622070 481.403351 740.000000 0.991445 -0.130526 0.000000 0 0 0 255
-40.000000 0.000000 0.000000 0.000000 0.000000 1.000000 163 163 163 255
0.000000 0.000000 0.000000 0.000000 0.000000 1.000000 163 163 163 255
-38.637032 10.352760 0.000000 0.000000 0.000000 1.000000 163 163 163 255
-660.000000 0.000000 -360.000000 0.000000 0.000000 1.000000 255 0 15 255
-60.000000 0.000000 -360.000000 0.000000 0.000000 1.000000 255 99 0 255
-57.955547 15.529140 -360.000000 0.000000 0.000000 1.000000 255 99 0 255
-637.511047 170.820557 -360.000000 0.000000 0.000000 1.000000 255 0 15 255
-1796.622070 481.403351 740.000000 0.923880 -0.382683 0.000000 0 0 0 255
-1796.622070 481.403351 -160.000000 0.923880 -0.382683 0.000000 158 0 6 255
-1610.807373 929.999878 -160.000000 0.923880 -0.382683 0.000000 158 0 6 255
-1610.807373 929.999878 740.000000 0.923880 -0.382683 0.000000 0 0 0 255
-34.641014 19.999996 0.000000 0.000000 0.000000 1.000000 163 163 163 255
-51.961521 29.999996 -360.000000 0.000000 0.000000 1.000000 255 99 0 255
-571.576782 329.999969 -360.000000 0.000000 0.000000 1.000000 255 0 15 255
-77.274063 20.705521 -60.000000 -0.656082 0.271758 -0.704063 163 163 163 255
-115.911095 31.058281 -20.000000 -0.656082 0.271758 -0.704063 163 163 163 255
-103.923042 59.999992 -20.000000 -0.656082 0.271758 -0.704063 163 163 163 255
-69.282028 39.999992 -60.000000 -0.656082 0.271758 -0.704063 163 163 163 255
-77.274063 20.705521 20.000000 0.416016 -0.172320 0.892881 163 163 163 255
-38.637032 10.352760 0.000000 0.416016 -0.172320 0.892881 163 163 163 255
-34.641014 19.999996 0.000000 0.416016 -0.172320 0.892881 163 163 163 255
-69.282028 39.999992 20.000000 0.416016 -0.172320 0.892881 163 163 163 255
-1217.066528 326.111969 -160.000000 0.294422 -0.121954 0.947862 116 118 119 255
-637.511047 170.820557 -360.000000 0.294422 -0.121954 0.947862 74 76 76 255
-571.576782 329.999969 -360.000000 0.294422 -0.121954 0.947862 74 76 76 255
-1091.192017 629.999939 -160.000000 0.294422 -0.121954 0.947862 116 118 119 255
-57.955547 15.529140 -120.000000 -0.877217 0.363355 -0.313790 163 163 163 255
-77.274063 20.705521 -60.000000 -0.877217 0.363355 -0.313790 163 163 163 255
-69.282028 39.999992 -60.000000 -0.877217 0.363355 -0.313790 163 163 163 255
-51.961521 29.999996 -120.000000 -0.877217 0.363355 -0.313790 163 163 163 255
-69.282028 39.999992 20.000000 0.000000 0.000000 1.000000 163 163 163 255
-121.243561 69.999992 20.000000 0.000000 0.000000 1.000000 163 163 163 255
-1091.192017 629.999939 -160.000000 0.000000 0.000000 1.000000 116 118 119 255
-1610.807373 929.999878 -160.000000 0.000000 0.000000 1.000000 116 118 119 255
-57.955547 15.529140 -360.000000 -0.923880 0.382684 0.000000 51 51 51 255
-57.955547 15.529140 -120.000000 -0.923880 0.382684 0.000000 163 163 163 255
-51.961521 29.999996 -120.000000 -0.923880 0.382684 0.000000 163 163 163 255
-51.961521 29.999996 -360.000000 -0.923880 0.382684 0.000000 51 51 51 255
-115.911095 31.058281 -20.000000 -0.827754 0.342867 -0.444145 163 163 163 255
-135.229614 36.234661 20.000000 -0.827754 0.342867 -0.444145 163 163 163 255
-121.243561 69.999992 20.000000 -0.827754 0.342867 -0.444145 163 163 163 255
-103.923042 59.999992 -20.000000 -0.827754 0.342867 -0.444145 163 163 163 255
-69.282028 39.999992 -60.000000 -0.563390 0.432305 -0.704063 163 163 163 255
-103.923042 59.999992 -20.000000 -0.563390 0.432305 -0.704063 163 163 163 255
-84.852814 84.852798 -20.000000 -0.563390 0.432305 -0.704063 163 163 163 255
-56.568542 56.568531 -60.000000 -0.563390 0.432305 -0.704063 163 163 163 255
-69.282028 39.999992 20.000000 0.357241 -0.274121 0.892881 163 163 163 255
-34.641014 19.999996 0.000000 0.357241 -0.274121 0.892881 163 163 163 255
-28.284271 28.284266 0.000000 0.357241 -0.274121 0.892881 163 163 163 255
-56.568542 56.568531 20.000000 0.357241 -0.274121 0.892881 163 163 163 255
-1091.192017 629.999939 -160.000000 0.252826 -0.194000 0.947862 116 118 119 255
-571.576782 329.999969 -360.000000 0.252826 -0.194000 0.947862 74 76 76 255
-466.690491 466.690430 -360.000000 0.252826 -0.194000 0.947862 74 76 76 255
-890.954529 890.954468 -160.000000 0.252826 -0.194000 0.947862 116 118 119 255
-51.961521 29.999996 -120.000000 -0.753283 0.578014 -0.313790 163 163 163 255
-69.282028 39.999992 -60.000000 -0.753283 0.578014 -0.313790 163 163 163 255
-56.568542 56.568531 -60.000000 -0.753283 0.578014 -0.313790 163 163 163 255
-42.426407 42.426399 -120.000000 -0.753283 0.578014 -0.313790 163 163 163 255
-56.568542 56.568531 20.000000 0.000000 0.000000 1.000000 163 163 163 255
-98.994949 98.994934 20.000000 0.000000 0.000000 1.000000 163 163 163 255
-890.954529 890.954468 -160.000000 0.000000 0.000000 1.000000 116 118 119 255
-1315.218750 1315.218506 -160.000000 0.000000 0.000000 1.000000 116 118 119 255
-51.961521 29.999996 -360.000000 -0.793353 0.608761 0.000000 51 51 51 255
-51.961521 29.999996 -120.000000 -0.793353 0.608761 0.000000 163 163 163 255
-42.426407 42.426399 -120.000000 -0.793353 0.608761 0.000000 163 163 163 255
-42.426407 42.426399 -360.000000 -0.793353 0.608761 0.000000 51 51 51 255
-103.923042 59.999992 -20.000000 -0.710809 0.545423 -0.444145 163 163 163 255
-121.243561 69.999992 20.000000 -0.710809 0.545423 -0.444145 163 163 163 255
-98.994949 98.994934 20.000000 -0.710809 0.545423 -0.444145 163 163 163 255
-84.852814 84.852798 -20.000000 -0.710809 0.545423 -0.444145 163 163 163 255
-1610.807373 929.999878 740.000000 0.793353 -0.608761 0.000000 0 0 0 255
-1610.807373 929.999878 -160.000000 0.793353 -0.608761 0.000000 158 0 6 255
-1315.218750 1315.218506 -160.000000 0.793353 -0.608761 0.000000 158 0 6 255
-1315.218750 1315.218506 740.000000 0.793353 -0.608761 0.000000 0 0 0 255
-28.284271 28.284266 0.000000 0.000000 0.000000 1.000000 163 163 163 255
-42.426407 42.426399 -360.000000 0.000000 0.000000 1.000000 255 99 0 255
-466.690491 466.690430 -360.000000 0.000000 0.000000 1.000000 255 0 15 255
-42.426407 42.426399 -120.000000 -0.578014 0.753283 -0.313790 163 163 163 255
-56.568542 56.568531 -60.000000 -0.578014 0.753283 -0.313790 163 163 163 255
-40.000004 69.282013 -60.000000 -0.578014 0.753283 -0.313790 163 163 163 255
-30.000004 51.961517 -120.000000 -0.578014 0.753283 -0.313790 163 163 163 255
-40.000004 69.282013 20.000000 0.000000 0.000000 1.000000 163 163 163 255
-70.000008 121.243538 20.000000 0.000000 0.000000 1.000000 163 163 163 255
-630.000000 1091.191895 -160.000000 0.000000 0.000000 1.000000 116 118 119 255
-930.000122 1610.807129 -160.000000 0.000000 0.000000 1.000000 116 118 119 255
-42.426407 42.426399 -360.000000 -0.608762 0.793353 0.000000 51 51 51 255
-42.426407 42.426399 -120.000000 -0.608762 0.793353 0.000000 163 163 163 255
-30.000004 51.961517 -120.000000 -0.608762 0.793353 0.000000 163 163 163 255
-30.000004 51.961517 -360.000000 -0.608762 0.793353 0.000000 51 51 51 255
-84.852814 84.852798 -20.000000 -0.545423 0.710809 -0.444145 163 163 163 255
-98.994949 98.994934 20.000000 -0.545423 0.710809 -0.444145 163 163 163 255
-70.000008 121.243538 20.000000 -0.545423 0.710809 -0.444145 163 163 163 255
-60.000008 103.923035 -20.000000 -0.545423 0.710809 -0.444145 163 163 163 255
-1315.218750 1315.218506 740.000000 0.608761 -0.793353 0.000000 0 0 0 255
-1315.218750 1315.218506 -160.000000 0.608761 -0.793353 0.000000 158 0 6 255
-930.000122 1610.807129 -160.000000 0.608761 -0.793353 0.000000 158 0 6 255
-930.000122 1610.807129 740.000000 0.608761 -0.793353 0.000000 0 0 0 255
-20.000002 34.641006 0.000000 0.000000 0.000000 1.000000 163 163 163 255
-30.000004 51.961517 -360.000000 0.000000 0.000000 1.000000 255 99 0 255
-330.000031 571.576721 -360.000000 0.000000 0.000000 1.000000 255 0 15 255
-56.568542 56.568531 -60.000000 -0.432305 0.563390 -0.704063 163 163 163 255
-84.852814 84.852798 -20.000000 -0.432305 0.563390 -0.704063 163 163 163 255
-60.000008 103.923035 -20.000000 -0.432305 0.563390 -0.704063 163 163 163 255
-40.000004 69.282013 -60.000000 -0.432305 0.563390 -0.704063 163 163 163 255
-56.568542 56.568531 20.000000 0.274121 -0.357241 0.892881 163 163 163 255
-28.284271 28.284266 0.000000 0.274121 -0.357241 0.892881 163 163 163 255
-20.000002 34.641006 0.000000 0.274121 -0.357241 0.892881 163 163 163 255
-40.000004 69.282013 20.000000 0.274121 -0.357241 0.892881 163 163 163 255
-890.954529 890.954468 -160.000000 0.194000 -0.252826 0.947862 116 118 119 255
-466.690491 466.690430 -360.000000 0.194000 -0.252826 0.947862 74 76 76 255
-330.000031 571.576721 -360.000000 0.194000 -0.252826 0.947862 74 76 76 255
-630.000000 1091.191895 -160.000000 0.194000 -0.252826 0.947862 116 118 119 255
-326.112061 1217.066406 -160.000000 0.000000 0.000000 1.000000 116 118 119 255
-481.403595 1796.621826 -160.000000 0.000000 0.000000 1.000000 116 118 119 255
-30.000004 51.961517 -360.000000 -0.382684 0.923879 0.000000 51 51 51 255
-30.000004 51.961517 -120.000000 -0.382684 0.923879 0.000000 163 163 163 255
-15.529149 57.955544 -120.000000 -0.382684 0.923879 0.000000 163 163 163 255
-15.529149 57.955544 -360.000000 -0.382684 0.923879 0.000000 51 51 51 255
-60.000008 103.923035 -20.000000 -0.342867 0.827754 -0.444145 163 163 163 255
-70.000008 121.243538 20.000000 -0.342867 0.827754 -0.444145 163 163 163 255
-36.234680 135.229599 20.000000 -0.342867 0.827754 -0.444145 163 163 163 255
-31.058298 115.911087 -20.000000 -0.342867 0.827754 -0.444145 163 163 163 255
-930.000122 1610.807129 740.000000 0.382683 -0.923880 0.000000 0 0 0 255
-930.000122 1610.807129 -160.000000 0.382683 -0.923880 0.000000 158 0 6 255
-481.403595 1796.621826 -160.000000 0.382683 -0.923880 0.000000 158 0 6 255
-481.403595 1796.621826 740.000000 0.382683 -0.923880 0.000000 0 0 0 255
-10.352767 38.637024 0.000000 0.000000 0.000000 1.000000 163 163 163 255
-15.529149 57.955544 -360.000000 0.000000 0.000000 1.000000 255 99 0 255
-170.820633 637.510986 -360.000000 0.000000 0.000000 1.000000 255 0 15 255
-40.000004 69.282013 -60.000000 -0.271758 0.656082 -0.704063 163 163 163 255
-60.000008 103.923035 -20.000000 -0.271758 0.656082 -0.704063 163 163 163 255
-31.058298 115.911087 -20.000000 -0.271758 0.656082 -0.704063 163 163 163 255
-20.705534 77.274048 -60.000000 -0.271758 0.656082 -0.704063 163 163 163 255
-40.000004 69.282013 20.000000 0.172320 -0.416016 0.892881 163 163 163 255
-20.000002 34.641006 0.000000 0.172320 -0.416016 0.892881 163 163 163 255
-10.352767 38.637024 0.000000 0.172320 -0.416016 0.892881 163 163 163 255
-20.705534 77.274048 20.000000 0.172320 -0.416016 0.892881 163 163 163 255
-630.000000 1091.191895 -160.000000 0.121954 -0.294422 0.947862 116 118 119 255
-330.000031 571.576721 -360.000000 0.121954 -0.294422 0.947862 74 76 76 255
-170.820633 637.510986 -360.000000 0.121954 -0.294422 0.947862 74 76 76 255
-326.112061 1217.066406 -160.000000 0.121954 -0.294422 0.947862 116 118 119 255
-30.000004 51.961517 -120.000000 -0.363355 0.877217 -0.313790 163 163 163 255
-40.000004 69.282013 -60.000000 -0.363355 0.877217 -0.313790 163 163 163 255
-20.705534 77.274048 -60.000000 -0.363355 0.877217 -0.313790 163 163 163 255
-15.529149 57.955544 -120.000000 -0.363355 0.877217 -0.313790 163 163 163 255
-20.705534 77.274048 20.000000 0.000000 0.000000 1.000000 163 163 163 255
-36.234680 135.229599 20.000000 0.000000 0.000000 1.000000 163 163 163 255
-31.058298 115.911087 -20.000000 -0.116946 0.888290 -0.444145 163 163 163 255
-36.234680 135.229599 20.000000 -0.116946 0.888290 -0.444145 163 163 163 255
-0.000019 139.999985 20.000000 -0.116946 0.888290 -0.444145 163 163 163 255
-0.000019 119.999985 -20.000000 -0.116946 0.888290 -0.444145 163 163 163 255
-481.403595 1796.621826 740.000000 0.130526 -0.991445 0.000000 0 0 0 255
-481.403595 1796.621826 -160.000000 0.130526 -0.991445 0.000000 158 0 6 255
-0.000275 1859.999878 -160.000000 0.130526 -0.991445 0.000000 158 0 6 255
-0.000275 1859.999878 740.000000 0.130526 -0.991445 0.000000 0 0 0 255
-0.000009 39.999992 0.000000 0.000000 0.000000 1.000000 163 163 163 255
-0.000010 59.999992 -360.000000 0.000000 0.000000 1.000000 255 99 0 255
-0.000092 659.999939 -360.000000 0.000000 0.000000 1.000000 255 0 15 255
-20.705534 77.274048 -60.000000 -0.092692 0.704063 -0.704063 163 163 163 255
-31.058298 115.911087 -20.000000 -0.092692 0.704063 -0.704063 163 163 163 255
-0.000019 119.999985 -20.000000 -0.092692 0.704063 -0.704063 163 163 163 255
-0.000017 79.999985 -60.000000 -0.092692 0.704063 -0.704063 163 163 163 255
-20.705534 77.274048 20.000000 0.058775 -0.446441 0.892881 163 163 163 255
-10.352767 38.637024 0.000000 0.058775 -0.446441 0.892881 163 163 163 255
-0.000009 39.999992 0.000000 0.058775 -0.446441 0.892881 163 163 163 255
-0.000017 79.999985 20.000000 0.058775 -0.446441 0.892881 163 163 163 255
-326.112061 1217.066406 -160.000000 0.041596 -0.315954 0.947862 116 118 119 255
-170.820633 637.510986 -360.000000 0.041596 -0.315954 0.947862 74 76 76 255
-0.000092 659.999939 -360.000000 0.041596 -0.315954 0.947862 74 76 76 255
-0.000122 1259.999878 -160.000000 0.041596 -0.315954 0.947862 116 118 119 255
-15.529149 57.955544 -120.000000 -0.123934 0.941370 -0.313790 163 163 163 255
-20.705534 77.274048 -60.000000 -0.123934 0.941370 -0.313790 163 163 163 255
-0.000017 79.999985 -60.000000 -0.123934 0.941370 -0.313790 163 163 163 255
-0.000010 59.999992 -120.000000 -0.123934 0.941370 -0.313790 163 163 163 255
-0.000017 79.999985 20.000000 0.000000 0.000000 1.000000 163 163 163 255
-0.000019 139.999985 20.000000 0.000000 0.000000 1.000000 163 163 163 255
-0.000122 1259.999878 -160.000000 0.000000 0.000000 1.000000 116 118 119 255
-0.000275 1859.999878 -160.000000 0.000000 0.000000 1.000000 116 118 119 255
-15.529149 57.955544 -360.000000 -0.130526 0.991445 0.000000 51 51 51 255
-15.529149 57.955544 -120.000000 -0.130526 0.991445 0.000000 163 163 163 255
-0.000010 59.999992 -120.000000 -0.130526 0.991445 0.000000 163 163 163 255
-0.000010 59.999992 -360.000000 -0.130526 0.991445 0.000000 51 51 51 255
-0.000017 79.999985 -60.000000 0.092692 0.704063 -0.704063 163 163 163 255
-0.000019 119.999985 -20.000000 0.092692 0.704063 -0.704063 163 163 163 255
31.058258 115.911087 -20.000000 0.092692 0.704063 -0.704063 163 163 163 255
20.705500 77.274055 -60.000000 0.092692 0.704063 -0.704063 163 163 163 255
-0.000017 79.999985 20.000000 -0.058775 -0.446441 0.892881 163 163 163 255
-0.000009 39.999992 0.000000 -0.058775 -0.446441 0.892881 163 163 163 255
10.352750 38.637028 0.000000 -0.058775 -0.446441 0.892881 163 163 163 255
20.705500 77.274055 20.000000 -0.058775 -0.446441 0.892881 163 163 163 255
-0.000122 1259.999878 -160.000000 -0.041596 -0.315954 0.947862 116 118 119 255
-0.000092 659.999939 -360.000000 -0.041596 -0.315954 0.947862 74 76 76 255
170.820435 637.510986 -360.000000 -0.041596 -0.315954 0.947862 74 76 76 255
326.111816 1217.066406 -160.000000 -0.041596 -0.315954 0.947862 116 118 119 255
-0.000010 59.999992 -120.000000 0.123934 0.941370 -0.313790 163 163 163 255
-0.000017 79.999985 -60.000000 0.123934 0.941370 -0.313790 163 163 163 255
20.705500 77.274055 -60.000000 0.123934 0.941370 -0.313790 163 163 163 255
15.529129 57.955544 -120.000000 0.123934 0.941370 -0.313790 163 163 163 255
20.705500 77.274055 20.000000 0.000000 0.000000 1.000000 163 163 163 255
36.234638 135.229599 20.000000 0.000000 0.000000 1.000000 163 163 163 255
326.111816 1217.066406 -160.000000 0.000000 0.000000 1.000000 116 118 119 255
481.403046 1796.622070 -160.000000 0.000000 0.000000 1.000000 116 118 119 255
-0.000010 59.999992 -360.000000 0.130526 0.991445 0.000000 51 51 51 255
-0.000010 59.999992 -120.000000 0.130526 0.991445 0.000000 163 163 163 255
15.529129 57.955544 -120.000000 0.130526 0.991445 0.000000 163 163 163 255
15.529129 57.955544 -360.000000 0.130526 0.991445 0.000000 51 51 51 255
-0.000019 119.999985 -20.000000 0.116946 0.888290 -0.444145 163 163 163 255
-0.000019 139.999985 20.000000 0.116946 0.888290 -0.444145 163 163 163 255
36.234638 135.229599 20.000000 0.116946 0.888290 -0.444145 163 163 163 255
31.058258 115.911087 -20.000000 0.116946 0.888290 -0.444145 163 163 163 255
-0.000275 1859.999878 740.000000 -0.130526 -0.991445 0.000000 0 0 0 255
-0.000275 1859.999878 -160.000000 -0.130526 -0.991445 0.000000 158 0 6 255
481.403046 1796.622070 -160.000000 -0.130526 -0.991445 0.000000 158 0 6 255
481.403046 1796.622070 740.000000 -0.130526 -0.991445 0.000000 0 0 0 255
10.352750 38.637028 0.000000 0.000000 0.000000 1.000000 163 163 163 255
15.529129 57.955544 -360.000000 0.000000 0.000000 1.000000 255 99 0 255
170.820435 637.510986 -360.000000 0.000000 0.000000 1.000000 255 0 15 255
326.111816 1217.066406 -160.000000 -0.121954 -0.294422 0.947862 116 118 119 255
170.820435 637.510986 -360.000000 -0.121954 -0.294422 0.947862 74 76 76 255
329.999817 571.576782 -360.000000 -0.121954 -0.294422 0.947862 74 76 76 255
629.999756 1091.191895 -160.000000 -0.121954 -0.294422 0.947862 116 118 119 255
15.529129 57.955544 -120.000000 0.363355 0.877217 -0.313790 163 163 163 255
20.705500 77.274055 -60.000000 0.363355 0.877217 -0.313790 163 163 163 255
39.999969 69.282028 -60.000000 0.363355 0.877217 -0.313790 163 163 163 255
29.999983 51.961521 -120.000000 0.363355 0.877217 -0.313790 163 163 163 255
39.999969 69.282028 20.000000 0.000000 0.000000 1.000000 163 163 163 255
69.999969 121.243553 20.000000 0.000000 0.000000 1.000000 163 163 163 255
629.999756 1091.191895 -160.000000 0.000000 0.000000 1.000000 116 118 119 255
929.999573 1610.807373 -160.000000 0.000000 0.000000 1.000000 116 118 119 255
15.529129 57.955544 -360.000000 0.382683 0.923880 0.000000 51 51 51 255
15.529129 57.955544 -120.000000 0.382683 0.923880 0.000000 163 163 163 255
29.999983 51.961521 -120.000000 0.382683 0.923880 0.000000 163 163 163 255
29.999983 51.961521 -360.000000 0.382683 0.923880 0.000000 51 51 51 255
31.058258 115.911087 -20.000000 0.342867 0.827754 -0.444145 163 163 163 255
36.234638 135.229599 20.000000 0.342867 0.827754 -0.444145 163 163 163 255
69.999969 121.243553 20.000000 0.342867 0.827754 -0.444145 163 163 163 255
59.999966 103.923042 -20.000000 0.342867 0.827754 -0.444145 163 163 163 255
481.403046 1796.622070 740.000000 -0.382683 -0.923880 0.000000 0 0 0 255
481.403046 1796.622070 -160.000000 -0.382683 -0.923880 0.000000 158 0 6 255
929.999573 1610.807373 -160.000000 -0.382683 -0.923880 0.000000 158 0 6 255
929.999573 1610.807373 740.000000 -0.382683 -0.923880 0.000000 0 0 0 255
19.999985 34.641014 0.000000 0.000000 -0.000000 1.000000 163 163 163 255
29.999983 51.961521 -360.000000 0.000000 -0.000000 1.000000 255 99 0 255
329.999817 571.576782 -360.000000 0.000000 -0.000000 1.000000 255 0 15 255
20.705500 77.274055 -60.000000 0.271758 0.656082 -0.704063 163 163 163 255
31.058258 115.911087 -20.000000 0.271758 0.656082 -0.704063 163 163 163 255
59.999966 103.923042 -20.000000 0.271758 0.656082 -0.704063 163 163 163 255
39.999969 69.282028 -60.000000 0.271758 0.656082 -0.704063 163 163 163 255
20.705500 77.274055 20.000000 -0.172320 -0.416016 0.892881 163 163 163 255
10.352750 38.637028 0.000000 -0.172320 -0.416016 0.892881 163 163 163 255
19.999985 34.641014 0.000000 -0.172320 -0.416016 0.892881 163 163 163 255
39.999969 69.282028 20.000000 -0.172320 -0.416016 0.892881 163 163 163 255
56.568512 56.568550 20.000000 0.000000 -0.000000 1.000000 163 163 163 255
98.994911 98.994949 20.000000 0.000000 -0.000000 1.000000 163 163 163 255
890.954224 890.954468 -160.000000 0.000000 -0.000000 1.000000 116 118 119 255
1315.218140 1315.218872 -160.000000 0.000000 -0.000000 1.000000 116 118 119 255
29.999983 51.961521 -360.000000 0.608761 0.793353 0.000000 51 51 51 255
29.999983 51.961521 -120.000000 0.608761 0.793353 0.000000 163 163 163 255
42.426388 42.426411 -120.000000 0.608761 0.793353 0.000000 163 163 163 255
42.426388 42.426411 -360.000000 0.608761 0.793353 0.000000 51 51 51 255
59.999966 103.923042 -20.000000 0.545423 0.710809 -0.444145 163 163 163 255
69.999969 121.243553 20.000000 0.545423 0.710809 -0.444145 163 163 163 255
98.994911 98.994949 20.000000 0.545423 0.710809 -0.444145 163 163 163 255
84.852776 84.852821 -20.000000 0.545423 0.710809 -0.444145 163 163 163 255
929.999573 1610.807373 740.000000 -0.608761 -0.793353 0.000000 0 0 0 255
929.999573 1610.807373 -160.000000 -0.608761 -0.793353 0.000000 158 0 6 255
1315.218140 1315.218872 -160.000000 -0.608761 -0.793353 0.000000 158 0 6 255
1315.218140 1315.218872 740.000000 -0.608761 -0.793353 0.000000 0 0 0 255
28.284256 28.284275 0.000000 0.000000 -0.000000 1.000000 163 163 163 255
42.426388 42.426411 -360.000000 0.000000 -0.000000 1.000000 255 99 0 255
466.690277 466.690552 -360.000000 0.000000 -0.000000 1.000000 255 0 15 255
39.999969 69.282028 -60.000000 0.432304 0.563390 -0.704063 163 163 163 255
59.999966 103.923042 -20.000000 0.432304 0.563390 -0.704063 163 163 163 255
84.852776 84.852821 -20.000000 0.432304 0.563390 -0.704063 163 163 163 255
56.568512 56.568550 -60.000000 0.432304 0.563390 -0.704063 163 163 163 255
39.999969 69.282028 20.000000 -0.274121 -0.357241 0.892881 163 163 163 255
19.999985 34.641014 0.000000 -0.274121 -0.357241 0.892881 163 163 163 255
28.284256 28.284275 0.000000 -0.274121 -0.357241 0.892881 163 163 163 255
56.568512 56.568550 20.000000 -0.274121 -0.357241 0.892881 163 163 163 255
629.999756 1091.191895 -160.000000 -0.194000 -0.252826 0.947862 116 118 119 255
329.999817 571.576782 -360.000000 -0.194000 -0.252826 0.947862 74 76 76 255
466.690277 466.690552 -360.000000 -0.194000 -0.252826 0.947862 74 76 76 255
890.954224 890.954468 -160.000000 -0.194000 -0.252826 0.947862 116 118 119 255
29.999983 51.961521 -120.000000 0.578014 0.753283 -0.313790 163 163 163 255
39.999969 69.282028 -60.000000 0.578014 0.753283 -0.313790 163 163 163 255
56.568512 56.568550 -60.000000 0.578014 0.753283 -0.313790 163 163 163 255
42.426388 42.426411 -120.000000 0.578014 0.753283 -0.313790 163 163 163 255
84.852776 84.852821 -20.000000 0.710809 0.545423 -0.444145 163 163 163 255
98.994911 98.994949 20.000000 0.710809 0.545423 -0.444145 163 163 163 255
121.243515 70.000015 20.000000 0.710809 0.545423 -0.444145 163 163 163 255
103.923012 60.000023 -20.000000 0.710809 0.545423 -0.444145 163 163 163 255
1315.218140 1315.218872 740.000000 -0.793353 -0.608762 0.000000 0 0 0 255
1315.218140 1315.218872 -160.000000 -0.793353 -0.608762 0.000000 158 0 6 255
1610.806885 930.000366 -160.000000 -0.793353 -0.608762 0.000000 158 0 6 255
1610.806885 930.000366 740.000000 -0.793353 -0.608762 0.000000 0 0 0 255
34.641003 20.000008 0.000000 0.000000 -0.000000 1.000000 163 163 163 255
51.961506 30.000011 -360.000000 0.000000 -0.000000 1.000000 255 99 0 255
571.576538 330.000122 -360.000000 0.000000 -0.000000 1.000000 255 0 15 255
56.568512 56.568550 -60.000000 0.563390 0.432305 -0.704063 163 163 163 255
84.852776 84.852821 -20.000000 0.563390 0.432305 -0.704063 163 163 163 255
103.923012 60.000023 -20.000000 0.563390 0.432305 -0.704063 163 163 163 255
69.282005 40.000015 -60.000000 0.563390 0.432305 -0.704063 163 163 163 255
56.568512 56.568550 20.000000 -0.357241 -0.274121 0.892881 163 163 163 255
28.284256 28.284275 0.000000 -0.357241 -0.274121 0.892881 163 163 163 255
34.641003 20.000008 0.000000 -0.357241 -0.274121 0.892881 163 163 163 255
69.282005 40.000015 20.000000 -0.357241 -0.274121 0.892881 163 163 163 255
890.954224 890.954468 -160.000000 -0.252826 -0.194000 0.947862 116 118 119 255
466.690277 466.690552 -360.000000 -0.252826 -0.194000 0.947862 74 76 76 255
571.576538 330.000122 -360.000000 -0.252826 -0.194000 0.947862 74 76 76 255
1091.191650 630.000061 -160.000000 -0.252826 -0.194000 0.947862 116 118 119 255
42.426388 42.426411 -120.000000 0.753283 0.578015 -0.313790 163 163 163 255
56.568512 56.568550 -60.000000 0.753283 0.578015 -0.313790 163 163 163 255
69.282005 40.000015 -60.000000 0.753283 0.578015 -0.313790 163 163 163 255
51.961506 30.000011 -120.000000 0.753283 0.578015 -0.313790 163 163 163 255
69.282005 40.000015 20.000000 0.000000 -0.000000 1.000000 163 163 163 255
121.243515 70.000015 20.000000 0.000000 -0.000000 1.000000 163 163 163 255
1091.191650 630.000061 -160.000000 0.000000 -0.000000 1.000000 116 118 119 255
1610.806885 930.000366 -160.000000 0.000000 -0.000000 1.000000 116 118 119 255
42.426388 42.426411 -360.000000 0.793353 0.608762 0.000000 51 51 51 255
42.426388 42.426411 -120.000000 0.793353 0.608762 0.000000 163 163 163 255
51.961506 30.000011 -120.000000 0.793353 0.608762 0.000000 163 163 163 255
51.961506 30.000011 -360.000000 0.793353 0.608762 0.000000 51 51 51 255
57.955532 15.529160 -360.000000 0.000000 -0.000000 1.000000 255 99 0 255
637.510864 170.820770 -360.000000 0.000000 -0.000000 1.000000 255 0 15 255
69.282005 40.000015 -60.000000 0.656082 0.271758 -0.704063 163 163 163 255
103.923012 60.000023 -20.000000 0.656082 0.271758 -0.704063 163 163 163 255
115.911064 31.058319 -20.000000 0.656082 0.271758 -0.704063 163 163 163 255
77.274048 20.705547 -60.000000 0.656082 0.271758 -0.704063 163 163 163 255
69.282005 40.000015 20.000000 -0.416016 -0.172320 0.892881 163 163 163 255
34.641003 20.000008 0.000000 -0.416016 -0.172320 0.892881 163 163 163 255
38.637024 10.352774 0.000000 -0.416016 -0.172320 0.892881 163 163 163 255
77.274048 20.705547 20.000000 -0.416016 -0.172320 0.892881 163 163 163 255
1091.191650 630.000061 -160.000000 -0.294422 -0.121954 0.947862 116 118 119 255
571.576538 330.000122 -360.000000 -0.294422 -0.121954 0.947862 74 76 76 255
637.510864 170.820770 -360.000000 -0.294422 -0.121954 0.947862 74 76 76 255
1217.066162 326.112183 -160.000000 -0.294422 -0.121954 0.947862 116 118 119 255
51.961506 30.000011 -120.000000 0.877217 0.363355 -0.313790 163 163 163 255
69.282005 40.000015 -60.000000 0.877217 0.363355 -0.313790 163 163 163 255
77.274048 20.705547 -60.000000 0.877217 0.363355 -0.313790 163 163 163 255
57.955532 15.529160 -120.000000 0.877217 0.363355 -0.313790 163 163 163 255
77.274048 20.705547 20.000000 0.000000 -0.000000 1.000000 163 163 163 255
135.229584 36.234695 20.000000 0.000000 -0.000000 1.000000 163 163 163 255
1217.066162 326.112183 -160.000000 0.000000 -0.000000 1.000000 116 118 119 255
1796.621704 481.403900 -160.000000 0.000000 -0.000000 1.000000 116 118 119 255
51.961506 30.000011 -360.000000 0.923879 0.382684 0.000000 51 51 51 255
51.961506 30.000011 -120.000000 0.923879 0.382684 0.000000 163 163 163 255
57.955532 15.529160 -120.000000 0.923879 0.382684 0.000000 163 163 163 255
57.955532 15.529160 -360.000000 0.923879 0.382684 0.000000 51 51 51 255
103.923012 60.000023 -20.000000 0.827754 0.342867 -0.444145 163 163 163 255
121.243515 70.000015 20.000000 0.827754 0.342867 -0.444145 163 163 163 255
135.229584 36.234695 20.000000 0.827754 0.342867 -0.444145 163 163 163 255
115.911064 31.058319 -20.000000 0.827754 0.342867 -0.444145 163 163 163 255
1610.806885 930.000366 740.000000 -0.923879 -0.382684 0.000000 0 0 0 255
1610.806885 930.000366 -160.000000 -0.923879 -0.382684 0.000000 158 0 6 255
1796.621704 481.403900 -160.000000 -0.923879 -0.382684 0.000000 158 0 6 255
1796.621704 481.403900 740.000000 -0.923879 -0.382684 0.000000 0 0 0 255
38.637024 10.352774 0.000000 0.000000 -0.000000 1.000000 163 163 163 255
77.274048 20.705547 20.000000 -0.446441 -0.058775 0.892881 163 163 163 255
38.637024 10.352774 0.000000 -0.446441 -0.058775 0.892881 163 163 163 255
39.999992 0.000015 0.000000 -0.446441 -0.058775 0.892881 163 163 163 255
79.999985 0.000031 20.000000 -0.446441 -0.058775 0.892881 163 163 163 255
1217.066162 326.112183 -160.000000 -0.315954 -0.041596 0.947862 116 118 119 255
637.510864 170.820770 -360.000000 -0.315954 -0.041596 0.947862 74 76 76 255
659.999878 0.000259 -360.000000 -0.315954 -0.041596 0.947862 74 76 76 255
1259.999634 0.000305 -160.000000 -0.315954 -0.041596 0.947862 116 118 119 255
57.955532 15.529160 -120.000000 0.941369 0.123934 -0.313790 163 163 163 255
77.274048 20.705547 -60.000000 0.941369 0.123934 -0.313790 163 163 163 255
79.999985 0.000031 -60.000000 0.941369 0.123934 -0.313790 163 163 163 255
59.999985 0.000023 -120.000000 0.941369 0.123934 -0.313790 163 163 163 255
79.999985 0.000031 20.000000 0.000000 -0.000000 1.000000 163 163 163 255
139.999985 0.000038 20.000000 0.000000 -0.000000 1.000000 163 163 163 255
1259.999634 0.000305 -160.000000 0.000000 -0.000000 1.000000 116 118 119 255
1859.999756 0.000610 -160.000000 0.000000 -0.000000 1.000000 116 118 119 255
57.955532 15.529160 -360.000000 0.991445 0.130526 0.000000 51 51 51 255
57.955532 15.529160 -120.000000 0.991445 0.130526 0.000000 163 163 163 255
59.999985 0.000023 -120.000000 0.991445 0.130526 0.000000 163 163 163 255
59.999985 0.000023 -360.000000 0.991445 0.130526 0.000000 51 51 51 255
115.911064 31.058319 -20.000000 0.888290 0.116946 -0.444145 163 163 163 255
135.229584 36.234695 20.000000 0.888290 0.116946 -0.444145 163 163 163 255
139.999985 0.000038 20.000000 0.888290 0.116946 -0.444145 163 163 163 255
119.999969 0.000046 -20.000000 0.888290 0.116946 -0.444145 163 163 163 255
1796.621704 481.403900 740.000000 -0.991445 -0.130526 0.000000 0 0 0 255
1796.621704 481.403900 -160.000000 -0.991445 -0.130526 0.000000 158 0 6 255
1859.999756 0.000610 -160.000000 -0.991445 -0.130526 0.000000 158 0 6 255
1859.999756 0.000610 740.000000 -0.991445 -0.130526 0.000000 0 0 0 255
39.999992 0.000015 0.000000 0.000000 -0.000000 1.000000 163 163 163 255
59.999985 0.000023 -360.000000 0.000000 -0.000000 1.000000 255 99 0 255
659.999878 0.000259 -360.000000 0.000000 -0.000000 1.000000 255 0 15 255
77.274048 20.705547 -60.000000 0.704063 0.092692 -0.704062 163 163 163 255
115.911064 31.058319 -20.000000 0.704063 0.092692 -0.704062 163 163 163 255
119.999969 0.000046 -20.000000 0.704063 0.092692 -0.704062 163 163 163 255
79.999985 0.000031 -60.000000 0.704063 0.092692 -0.704062 163 163 163 255
-1084.851807 681.863098 -255.933212 -0.307444 -0.815952 0.489591 80 97 86 255
-956.905212 728.968384 -31.114517 -0.307444 -0.815952 0.489591 80 97 86 255
-1221.749756 911.972900 41.601048 -0.307444 -0.815952 0.489591 80 97 86 255
-1300.270996 765.517822 -185.821503 -0.307444 -0.815952 0.489591 80 97 86 255
-1300.270996 765.517822 -185.821503 -0.907292 0.344822 0.240664 80 97 86 255
-1221.749756 911.972900 41.601048 -0.907292 0.344822 0.240664 80 97 86 255
-1140.705078 1115.049561 -85.071838 -0.907292 0.344822 0.240664 80 97 86 255
-1279.895630 1023.754272 -337.765442 -0.907292 0.344822 0.240664 80 97 86 255
-1279.895630 1023.754272 -337.765442 0.318283 0.854077 -0.411398 80 97 86 255
-1140.705078 1115.049561 -85.071838 0.318283 0.854077 -0.411398 80 97 86 255
-928.666077 987.050171 -142.231766 0.318283 0.854077 -0.411398 80 97 86 255
-1053.430054 926.514038 -408.956696 0.318283 0.854077 -0.411398 80 97 86 255
-1053.430054 926.514038 -408.956696 0.872635 -0.304268 -0.382006 80 97 86 255
-928.666077 987.050171 -142.231766 0.872635 -0.304268 -0.382006 80 97 86 255
-956.905212 728.968384 -31.114517 0.872635 -0.304268 -0.382006 80 97 86 255
-1084.851807 681.863098 -255.933212 0.872635 -0.304268 -0.382006 80 97 86 255
-1300.270996 765.517822 -185.821503 -0.430911 -0.435059 -0.790594 80 97 86 255
-1279.895630 1023.754272 -337.765442 -0.430911 -0.435059 -0.790594 80 97 86 255
-1053.430054 926.514038 -408.956696 -0.430911 -0.435059 -0.790594 80 97 86 255
-1084.851807 681.863098 -255.933212 -0.430911 -0.435059 -0.790594 80 97 86 255
-1140.705078 1115.049561 -85.071838 0.440741 0.326669 0.836083 80 97 86 255
-1221.749756 911.972900 41.601048 0.440741 0.326669 0.836083 80 97 86 255
-956.905212 728.968384 -31.114517 0.440741 0.326669 0.836083 80 97 86 255
-928.666077 987.050171 -142.231766 0.440741 0.326669 0.836083 80 97 86 255
-351.582764 1382.736328 -282.731384 0.930175 -0.121853 0.346303 80 97 86 255
-366.261047 1627.630371 -167.582367 0.930175 -0.121853 0.346303 80 97 86 255
-460.060699 1481.807129 43.501896 0.930175 -0.121853 0.346303 80 97 86 255
-445.469299 1209.365356 -102.001892 0.930175 -0.121853 0.346303 80 97 86 255
-445.469299 1209.365356 -102.001892 -0.416792 -0.467285 0.779698 80 97 86 255
-460.060699 1481.807129 43.501896 -0.416792 -0.467285 0.779698 80 97 86 255
-713.288818 1506.360229 -67.172569 -0.416792 -0.467285 0.779698 80 97 86 255
-717.204834 1318.182495 -192.018829 -0.416792 -0.467285 0.779698 80 97 86 255
-717.204834 1318.182495 -192.018829 -0.918424 0.223090 -0.326692 80 97 86 255
-713.288818 1506.360229 -67.172569 -0.918424 0.223090 -0.326692 80 97 86 255
-613.368958 1661.867920 -249.236847 -0.918424 0.223090 -0.326692 80 97 86 255
-612.964966 1438.591797 -395.489319 -0.918424 0.223090 -0.326692 80 97 86 255
-612.964966 1438.591797 -395.489319 0.387071 0.458978 -0.799697 80 97 86 255
-613.368958 1661.867920 -249.236847 0.387071 0.458978 -0.799697 80 97 86 255
-366.261047 1627.630371 -167.582367 0.387071 0.458978 -0.799697 80 97 86 255
-351.582764 1382.736328 -282.731384 0.387071 0.458978 -0.799697 80 97 86 255
-445.469299 1209.365356 -102.001892 -0.011938 -0.791341 -0.611259 80 97 86 255
-717.204834 1318.182495 -192.018829 -0.011938 -0.791341 -0.611259 80 97 86 255
-612.964966 1438.591797 -395.489319 -0.011938 -0.791341 -0.611259 80 97 86 255
-351.582764 1382.736328 -282.731384 -0.011938 -0.791341 -0.611259 80 97 86 255
-713.288818 1506.360229 -67.172569 -0.121487 0.815808 0.565419 80 97 86 255
-460.060699 1481.807129 43.501896 -0.121487 0.815808 0.565419 80 97 86 255
-366.261047 1627.630371 -167.582367 -0.121487 0.815808 0.565419 80 97 86 255
-613.368958 1661.867920 -249.236847 -0.121487 0.815808 0.565419 80 97 86 255
1510.946899 887.303955 -280.043640 0.829606 -0.307471 0.466063 80 97 86 255
1430.653076 1030.381348 -31.716125 0.829606 -0.307471 0.466063 80 97 86 255
1286.106201 781.347961 50.278210 0.829606 -0.307471 0.466063 80 97 86 255
1380.796875 690.313782 -167.320206 0.829606 -0.307471 0.466063 80 97 86 255
1380.796875 690.313782 -167.320206 -0.439405 -0.864333 0.244648 80 97 86 255
1286.106201 781.347961 50.278210 -0.439405 -0.864333 0.244648 80 97 86 255
1087.494385 858.066772 -101.446404 -0.439405 -0.864333 0.244648 80 97 86 255
1167.535278 744.394958 -293.237610 -0.439405 -0.864333 0.244648 80 97 86 255
1167.535278 744.394958 -293.237610 -0.827595 0.098432 -0.552627 80 97 86 255
1087.494385 858.066772 -101.446404 -0.827595 0.098432 -0.552627 80 97 86 255
1150.620483 1107.674194 -203.200836 -0.827595 0.098432 -0.552627 80 97 86 255
1292.854614 991.254089 -385.263977 -0.827595 0.098432 -0.552627 80 97 86 255
1292.854614 991.254089 -385.263977 0.459040 0.845593 -0.272497 80 97 86 255
1150.620483 1107.674194 -203.200836 0.459040 0.845593 -0.272497 80 97 86 255
1430.653076 1030.381348 -31.716125 0.459040 0.845593 -0.272497 80 97 86 255
1510.946899 887.303955 -280.043640 0.459040 0.845593 -0.272497 80 97 86 255
1380.796875 690.313782 -167.320206 0.247703 -0.519746 -0.817623 80 97 86 255
1167.535278 744.394958 -293.237610 0.247703 -0.519746 -0.817623 80 97 86 255
1292.854614 991.254089 -385.263977 0.247703 -0.519746 -0.817623 80 97 86 255
1510.946899 887.303955 -280.043640 0.247703 -0.519746 -0.817623 80 97 86 255
1087.494385 858.066772 -101.446404 -0.391876 0.457372 0.798275 80 97 86 255
1286.106201 781.347961 50.278210 -0.391876 0.457372 0.798275 80 97 86 255
1430.653076 1030.381348 -31.716125 -0.391876 0.457372 0.798275 80 97 86 255
1150.620483 1107.674194 -203.200836 -0.391876 0.457372 0.798275 80 97 86 255
812.032654 1596.134521 -301.353088 0.155721 0.949111 0.273751 80 97 86 255
548.041687 1617.350952 -157.786743 0.155721 0.949111 0.273751 80 97 86 255
661.857361 1512.855469 72.805679 0.155721 0.949111 0.273751 80 97 86 255
920.297180 1537.638794 -93.174873 0.155721 0.949111 0.273751 80 97 86 255
920.297180 1537.638794 -93.174873 0.510749 -0.375006 0.773632 80 97 86 255
661.857361 1512.855469 72.805679 0.510749 -0.375006 0.773632 80 97 86 255
630.184814 1249.492676 -41.317825 0.510749 -0.375006 0.773632 80 97 86 255
877.401978 1282.658203 -181.080750 0.510749 -0.375006 0.773632 80 97 86 255
877.401978 1282.658203 -181.080750 -0.115748 -0.919178 -0.376448 80 97 86 255
630.184814 1249.492676 -41.317825 -0.115748 -0.919178 -0.376448 80 97 86 255
527.899902 1356.997192 -255.132416 -0.115748 -0.919178 -0.376448 80 97 86 255
733.537231 1375.812988 -381.533936 -0.115748 -0.919178 -0.376448 80 97 86 255
733.537231 1375.812988 -381.533936 -0.457592 0.389168 -0.799474 80 97 86 255
527.899902 1356.997192 -255.132416 -0.457592 0.389168 -0.799474 80 97 86 255
548.041687 1617.350952 -157.786743 -0.457592 0.389168 -0.799474 80 97 86 255
812.032654 1596.134521 -301.353088 -0.457592 0.389168 -0.799474 80 97 86 255
920.297180 1537.638794 -93.174873 0.846065 -0.027820 -0.532354 80 97 86 255
877.401978 1282.658203 -181.080750 0.846065 -0.027820 -0.532354 80 97 86 255
733.537231 1375.812988 -381.533936 0.846065 -0.027820 -0.532354 80 97 86 255
812.032654 1596.134521 -301.353088 0.846065 -0.027820 -0.532354 80 97 86 255
630.184814 1249.492676 -41.317825 -0.910314 -0.074353 0.407186 80 97 86 255
661.857361 1512.855469 72.805679 -0.910314 -0.074353 0.407186 80 97 86 255
548.041687 1617.350952 -157.786743 -0.910314 -0.074353 0.407186 80 97 86 255
527.899902 1356.997192 -255.132416 -0.910314 -0.074353 0.407186 80 97 86 255
202.461517 1597.224487 -232.537918 0.426067 -0.556736 -0.713100 80 97 86 255
164.969925 1333.624512 -94.254181 0.426067 -0.556736 -0.713100 80 97 86 255
-116.871674 1380.977661 -254.505219 0.426067 -0.556736 -0.713100 80 97 86 255
-26.468811 1589.462402 -408.375671 0.426067 -0.556736 -0.713100 80 97 86 255
202.461517 1597.224487 -232.537918 0.863127 0.164676 0.477382 80 97 86 255
69.002838 1802.351196 -82.431328 0.863127 0.164676 0.477382 80 97 86 255
28.321993 1552.209106 97.842415 0.863127 0.164676 0.477382 80 97 86 255
164.969925 1333.624512 -94.254181 0.863127 0.164676 0.477382 80 97 86 255
-26.468811 1589.462402 -408.375671 0.343721 0.736959 -0.582020 80 97 86 255
-174.383087 1763.768555 -244.209778 0.343721 0.736959 -0.582020 80 97 86 255
69.002838 1802.351196 -82.431328 0.343721 0.736959 -0.582020 80 97 86 255
202.461517 1597.224487 -232.537918 0.343721 0.736959 -0.582020 80 97 86 255
-116.871674 1380.977661 -254.505219 -0.869281 -0.117690 -0.480104 80 97 86 255
-203.995300 1500.013550 -65.017670 -0.869281 -0.117690 -0.480104 80 97 86 255
-174.383087 1763.768555 -244.209778 -0.869281 -0.117690 -0.480104 80 97 86 255
-26.468811 1589.462402 -408.375671 -0.869281 -0.117690 -0.480104 80 97 86 255
28.321993 1552.209106 97.842415 -0.544821 0.529406 0.650307 80 97 86 255
69.002838 1802.351196 -82.431328 -0.544821 0.529406 0.650307 80 97 86 255
-174.383087 1763.768555 -244.209778 -0.544821 0.529406 0.650307 80 97 86 255
-203.995300 1500.013550 -65.017670 -0.544821 0.529406 0.650307 80 97 86 255
164.969925 1333.624512 -94.254181 -0.317478 -0.794864 0.517107 80 97 86 255
28.321993 1552.209106 97.842415 -0.317478 -0.794864 0.517107 80 97 86 255
-203.995300 1500.013550 -65.017670 -0.317478 -0.794864 0.517107 80 97 86 255
-116.871674 1380.977661 -254.505219 -0.317478 -0.794864 0.517107 80 97 86 255
4 0 1 2 3
4 4 5 6 7
4 8 9 10 11
4 12 13 14 15
4 16 17 18 19
4 20 21 22 23
4 24 25 26 27
4 28 29 30 31
4 32 33 34 35
3 36 37 38
4 39 40 41 42
4 43 44 45 46
3 38 37 47
4 42 41 48 49
4 50 51 52 53
4 54 55 56 57
4 58 59 60 61
4 62 63 64 65
4 19 18 66 67
4 23 22 68 69
4 70 71 72 73
4 74 75 76 77
4 78 79 80 81
4 82 83 84 85
4 86 87 88 89
4 90 91 92 93
4 67 66 94 95
4 69 68 96 97
4 98 99 100 101
4 102 103 104 105
4 106 107 108 109
3 47 37 110
4 49 48 111 112
4 113 114 115 116
4 95 94 117 118
4 97 96 119 120
4 121 122 123 124
4 125 126 127 128
4 129 130 131 132
3 110 37 133
4 112 111 134 135
4 136 137 138 139
4 140 141 142 143
4 144 145 146 147
4 120 119 148 149
4 150 151 152 153
4 154 155 156 157
4 158 159 160 161
3 133 37 162
4 135 134 163 164
4 165 166 167 168
4 169 170 171 172
4 173 174 175 176
4 177 178 179 180
4 118 117 181 182
4 183 184 185 186
4 187 188 189 190
3 162 37 191
4 164 163 192 193
4 194 195 196 197
4 198 199 200 201
4 202 203 204 205
4 206 207 208 209
4 182 181 210 211
4 149 148 212 213
4 214 215 216 217
4 218 219 220 221
4 222 223 224 225
4 226 227 228 229
4 230 231 232 233
4 211 210 234 235
4 213 212 236 237
4 238 239 240 241
4 242 243 244 245
4 246 247 248 249
3 191 37 250
4 193 192 251 252
4 253 254 255 256
4 257 258 259 260
4 235 234 261 262
4 237 236 263 264
4 265 266 267 268
4 269 270 271 272
4 273 274 275 276
3 250 37 277
4 252 251 278 279
4 280 281 282 283
4 284 285 286 287
4 262 261 288 289
4 264 263 290 291
4 292 293 294 295
4 296 297 298 299
4 300 301 302 303
3 277 37 304
4 279 278 305 306
4 307 308 309 310
4 311 312 313 314
4 315 316 317 318
4 319 320 321 322
4 323 324 325 326
4 327 328 329 330
3 304 37 331
4 306 305 332 333
4 334 335 336 337
4 338 339 340 341
4 342 343 344 345
4 346 347 348 349
4 289 288 350 351
4 291 290 352 353
4 354 355 356 357
4 333 332 358 359
4 360 361 362 363
4 364 365 366 367
4 368 369 370 371
4 372 373 374 375
4 351 350 376 377
4 353 352 378 379
4 380 381 382 383
4 384 385 386 387
4 388 389 390 391
3 331 37 392
4 393 394 395 396
4 397 398 399 400
4 401 402 403 404
4 377 376 405 406
4 379 378 407 408
4 409 410 411 412
4 413 414 415 416
4 417 418 419 420
3 392 37 421
4 359 358 422 423
4 424 425 426 427
4 428 429 430 431
4 432 433 434 435
4 436 437 438 439
4 440 441 442 443
4 444 445 446 447
4 448 449 450 451
4 452 453 454 455
4 456 457 458 459
4 460 461 462 463
4 464 465 466 467
4 468 469 470 471
4 472 473 474 475
4 476 477 478 479
4 480 481 482 483
4 484 485 486 487
4 488 489 490 491
4 492 493 494 495
4 496 497 498 499
4 500 501 502 503
4 504 505 506 507
4 508 509 510 511
4 512 513 514 515
4 516 517 518 519
4 520 521 522 523
4 524 525 526 527
4 528 529 530 531
4 532 533 534 535
4 536 537 538 539
4 540 541 542 543
4 544 545 546 547
