ply
format ascii 1.0
comment Created by Blender 2.93.2 - www.blender.org
element vertex 342
property float x
property float y
property float z
property float nx
property float ny
property float nz
property uchar red
property uchar green
property uchar blue
property uchar alpha
element face 93
property list uchar uint vertex_indices
end_header
80.000000 0.000006 9.999989 -0.242254 -0.048187 0.969016 158 144 157 255
73.910355 30.614679 9.999989 -0.242254 -0.048187 0.969016 158 144 157 255
36.955185 15.307341 -0.000006 -0.242254 -0.048187 0.969016 158 144 157 255
40.000000 0.000003 -0.000006 -0.242254 -0.048187 0.969016 158 144 157 255
45.857864 14.142139 2.167720 -0.242254 -0.048187 0.969016 158 144 157 255
60.000000 20.000004 5.994555 -0.242254 -0.048187 0.969016 158 144 157 255
74.142136 14.142141 9.238786 -0.242254 -0.048187 0.969016 158 144 157 255
180.000000 0.000014 99.999969 0.944406 0.187854 -0.269830 158 144 157 255
160.000000 0.000012 29.999977 0.944406 0.187854 -0.269830 158 144 157 255
147.820724 61.229359 29.999977 0.944406 0.187854 -0.269830 158 144 157 255
166.298325 68.883034 99.999969 0.944406 0.187854 -0.269830 158 144 157 255
120.000000 0.000009 29.999981 0.445454 0.088607 -0.890909 158 144 157 255
80.000000 0.000006 9.999989 0.445454 0.088607 -0.890909 158 144 157 255
73.910355 30.614679 9.999989 0.445454 0.088607 -0.890909 158 144 157 255
110.865540 45.922020 29.999985 0.445454 0.088607 -0.890909 158 144 157 255
40.000000 0.000003 -0.000006 0.000000 0.000000 1.000000 158 144 157 255
36.955185 15.307341 -0.000006 0.000000 0.000000 1.000000 158 144 157 255
-0.000000 0.000001 0.000000 0.000000 0.000000 1.000000 158 144 157 255
450.000000 0.000034 99.999939 -0.000000 -0.000000 -1.000000 158 144 157 255
180.000000 0.000014 99.999969 -0.000000 -0.000000 -1.000000 158 144 157 255
166.298325 68.883034 99.999969 -0.000000 -0.000000 -1.000000 158 144 157 255
415.745819 172.207581 99.999939 -0.000000 -0.000000 -1.000000 158 144 157 255
160.000000 0.000012 29.999977 -0.000000 0.000000 -1.000000 158 144 157 255
120.000000 0.000009 29.999981 -0.000000 0.000000 -1.000000 158 144 157 255
110.865540 45.922020 29.999985 -0.000000 0.000000 -1.000000 158 144 157 255
147.820724 61.229359 29.999977 -0.000000 0.000000 -1.000000 158 144 157 255
28.284275 28.284277 -0.000004 0.000000 -0.000000 1.000000 158 144 157 255
127.279243 127.279236 99.999985 -0.000000 0.000000 -1.000000 158 144 157 255
318.198090 318.198090 99.999954 -0.000000 0.000000 -1.000000 158 144 157 255
84.852798 84.852821 29.999989 -0.000000 0.000000 -1.000000 158 144 157 255
113.137070 113.137093 29.999985 -0.000000 0.000000 -1.000000 158 144 157 255
36.955185 15.307341 -0.000006 -0.205373 -0.137226 0.969016 158 144 157 255
73.910355 30.614679 9.999989 -0.205373 -0.137226 0.969016 158 144 157 255
56.568531 56.568542 9.999992 -0.205373 -0.137226 0.969016 158 144 157 255
28.284275 28.284277 -0.000004 -0.205373 -0.137226 0.969016 158 144 157 255
166.298325 68.883034 99.999969 0.800629 0.534963 -0.269831 158 144 157 255
147.820724 61.229359 29.999977 0.800629 0.534963 -0.269831 158 144 157 255
113.137070 113.137093 29.999985 0.800629 0.534963 -0.269831 158 144 157 255
127.279243 127.279236 99.999985 0.800629 0.534963 -0.269831 158 144 157 255
110.865540 45.922020 29.999985 0.377638 0.252330 -0.890909 158 144 157 255
73.910355 30.614679 9.999989 0.377638 0.252330 -0.890909 158 144 157 255
56.568531 56.568542 9.999992 0.377638 0.252330 -0.890909 158 144 157 255
84.852798 84.852821 29.999989 0.377638 0.252330 -0.890909 158 144 157 255
15.307338 36.955185 -0.000002 0.000000 -0.000000 1.000000 158 144 157 255
68.883026 166.298340 99.999985 -0.000000 -0.000000 -1.000000 158 144 157 255
172.207581 415.745850 99.999969 -0.000000 -0.000000 -1.000000 158 144 157 255
45.922005 110.865547 29.999992 -0.000000 0.000000 -1.000000 158 144 157 255
61.229336 147.820740 29.999992 -0.000000 0.000000 -1.000000 158 144 157 255
28.284275 28.284277 -0.000004 -0.137226 -0.205373 0.969016 158 144 157 255
56.568531 56.568542 9.999992 -0.137226 -0.205373 0.969016 158 144 157 255
30.614666 73.910355 9.999996 -0.137226 -0.205373 0.969016 158 144 157 255
15.307338 36.955185 -0.000002 -0.137226 -0.205373 0.969016 158 144 157 255
127.279243 127.279236 99.999985 0.534963 0.800629 -0.269831 158 144 157 255
113.137070 113.137093 29.999985 0.534963 0.800629 -0.269831 158 144 157 255
61.229336 147.820740 29.999992 0.534963 0.800629 -0.269831 158 144 157 255
68.883026 166.298340 99.999985 0.534963 0.800629 -0.269831 158 144 157 255
84.852798 84.852821 29.999989 0.252330 0.377638 -0.890909 158 144 157 255
56.568531 56.568542 9.999992 0.252330 0.377638 -0.890909 158 144 157 255
30.614666 73.910355 9.999996 0.252330 0.377638 -0.890909 158 144 157 255
45.922005 110.865547 29.999992 0.252330 0.377638 -0.890909 158 144 157 255
-0.000002 40.000004 -0.000000 0.000000 0.000000 1.000000 158 144 157 255
0.000003 180.000046 100.000000 -0.000000 0.000000 -1.000000 158 144 157 255
0.000040 450.000061 100.000000 -0.000000 0.000000 -1.000000 158 144 157 255
-0.000004 120.000000 30.000000 -0.000000 0.000000 -1.000000 158 144 157 255
-0.000018 160.000015 30.000000 -0.000000 0.000000 -1.000000 158 144 157 255
15.307338 36.955185 -0.000002 -0.048187 -0.242254 0.969015 158 144 157 255
30.614666 73.910355 9.999996 -0.048187 -0.242254 0.969015 158 144 157 255
-0.000001 79.999992 10.000000 -0.048187 -0.242254 0.969015 158 144 157 255
-0.000002 40.000004 -0.000000 -0.048187 -0.242254 0.969015 158 144 157 255
68.883026 166.298340 99.999985 0.187854 0.944406 -0.269831 158 144 157 255
61.229336 147.820740 29.999992 0.187854 0.944406 -0.269831 158 144 157 255
-0.000018 160.000015 30.000000 0.187854 0.944406 -0.269831 158 144 157 255
0.000003 180.000046 100.000000 0.187854 0.944406 -0.269831 158 144 157 255
45.922005 110.865547 29.999992 0.088606 0.445455 -0.890909 158 144 157 255
30.614666 73.910355 9.999996 0.088606 0.445455 -0.890909 158 144 157 255
-0.000001 79.999992 10.000000 0.088606 0.445455 -0.890909 158 144 157 255
-0.000004 120.000000 30.000000 0.088606 0.445455 -0.890909 158 144 157 255
-68.883041 166.298370 100.000015 -0.000000 -0.000000 -1.000000 158 144 157 255
-172.207535 415.745850 100.000031 -0.000000 -0.000000 -1.000000 158 144 157 255
-45.922016 110.865547 30.000008 -0.000000 -0.000000 -1.000000 158 144 157 255
-61.229370 147.820755 30.000008 -0.000000 -0.000000 -1.000000 158 144 157 255
-0.000002 40.000004 -0.000000 0.048187 -0.242254 0.969016 158 144 157 255
-0.000001 79.999992 10.000000 0.048187 -0.242254 0.969016 158 144 157 255
-30.614674 73.910362 10.000004 0.048187 -0.242254 0.969016 158 144 157 255
-15.307340 36.955185 0.000002 0.048187 -0.242254 0.969016 158 144 157 255
0.000003 180.000046 100.000000 -0.187854 0.944406 -0.269831 158 144 157 255
-0.000018 160.000015 30.000000 -0.187854 0.944406 -0.269831 158 144 157 255
-61.229370 147.820755 30.000008 -0.187854 0.944406 -0.269831 158 144 157 255
-68.883041 166.298370 100.000015 -0.187854 0.944406 -0.269831 158 144 157 255
-0.000004 120.000000 30.000000 -0.088606 0.445455 -0.890909 158 144 157 255
-0.000001 79.999992 10.000000 -0.088606 0.445455 -0.890909 158 144 157 255
-30.614674 73.910362 10.000004 -0.088606 0.445455 -0.890909 158 144 157 255
-45.922016 110.865547 30.000008 -0.088606 0.445455 -0.890909 158 144 157 255
-15.307340 36.955185 0.000002 0.000000 0.000000 1.000000 158 144 157 255
-84.852829 84.852814 30.000011 -0.000000 -0.000000 -1.000000 158 144 157 255
-113.137123 113.137100 30.000015 -0.000000 -0.000000 -1.000000 158 144 157 255
-15.307340 36.955185 0.000002 0.137226 -0.205373 0.969016 158 144 157 255
-30.614674 73.910362 10.000004 0.137226 -0.205373 0.969016 158 144 157 255
-56.568542 56.568546 10.000008 0.137226 -0.205373 0.969016 158 144 157 255
-28.284275 28.284273 0.000004 0.137226 -0.205373 0.969016 158 144 157 255
-68.883041 166.298370 100.000015 -0.534963 0.800629 -0.269830 158 144 157 255
-61.229370 147.820755 30.000008 -0.534963 0.800629 -0.269830 158 144 157 255
-113.137123 113.137100 30.000015 -0.534963 0.800629 -0.269830 158 144 157 255
-127.279259 127.279251 100.000015 -0.534963 0.800629 -0.269830 158 144 157 255
-45.922016 110.865547 30.000008 -0.252330 0.377638 -0.890909 158 144 157 255
-30.614674 73.910362 10.000004 -0.252330 0.377638 -0.890909 158 144 157 255
-56.568542 56.568546 10.000008 -0.252330 0.377638 -0.890909 158 144 157 255
-84.852829 84.852814 30.000011 -0.252330 0.377638 -0.890909 158 144 157 255
-28.284275 28.284273 0.000004 0.000000 0.000000 1.000000 158 144 157 255
-127.279259 127.279251 100.000015 -0.000000 0.000000 -1.000000 158 144 157 255
-318.198090 318.198090 100.000046 -0.000000 0.000000 -1.000000 158 144 157 255
-28.284275 28.284273 0.000004 0.205373 -0.137226 0.969015 158 144 157 255
-56.568542 56.568546 10.000008 0.205373 -0.137226 0.969015 158 144 157 255
-73.910362 30.614679 10.000011 0.205373 -0.137226 0.969015 158 144 157 255
-36.955189 15.307337 0.000006 0.205373 -0.137226 0.969015 158 144 157 255
-127.279259 127.279251 100.000015 -0.800629 0.534963 -0.269830 158 144 157 255
-113.137123 113.137100 30.000015 -0.800629 0.534963 -0.269830 158 144 157 255
-147.820770 61.229347 30.000023 -0.800629 0.534963 -0.269830 158 144 157 255
-166.298370 68.883034 100.000031 -0.800629 0.534963 -0.269830 158 144 157 255
-84.852829 84.852814 30.000011 -0.377638 0.252330 -0.890909 158 144 157 255
-56.568542 56.568546 10.000008 -0.377638 0.252330 -0.890909 158 144 157 255
-73.910362 30.614679 10.000011 -0.377638 0.252330 -0.890909 158 144 157 255
-110.865555 45.922012 30.000015 -0.377638 0.252330 -0.890909 158 144 157 255
-36.955189 15.307337 0.000006 0.000000 0.000000 1.000000 158 144 157 255
-166.298370 68.883034 100.000031 -0.000000 -0.000000 -1.000000 158 144 157 255
-415.745819 172.207611 100.000061 -0.000000 -0.000000 -1.000000 158 144 157 255
-110.865555 45.922012 30.000015 -0.000000 -0.000000 -1.000000 158 144 157 255
-147.820770 61.229347 30.000023 -0.000000 -0.000000 -1.000000 158 144 157 255
-40.000000 0.000004 0.000006 0.242254 -0.048187 0.969015 158 144 157 255
-36.955189 15.307337 0.000006 0.242254 -0.048187 0.969015 158 144 157 255
-73.910362 30.614679 10.000011 0.242254 -0.048187 0.969015 158 144 157 255
-80.000000 0.000006 10.000011 0.242254 -0.048187 0.969015 158 144 157 255
-74.142136 14.142130 9.238804 0.242254 -0.048187 0.969015 158 144 157 255
-60.000000 19.999996 5.994568 0.242254 -0.048187 0.969015 158 144 157 255
-45.857864 14.142132 2.167732 0.242254 -0.048187 0.969015 158 144 157 255
-166.298370 68.883034 100.000031 -0.944406 0.187854 -0.269830 158 144 157 255
-147.820770 61.229347 30.000023 -0.944406 0.187854 -0.269830 158 144 157 255
-160.000046 -0.000015 30.000023 -0.944406 0.187854 -0.269830 158 144 157 255
-180.000061 -0.000002 100.000031 -0.944406 0.187854 -0.269830 158 144 157 255
-110.865555 45.922012 30.000015 -0.445455 0.088606 -0.890909 158 144 157 255
-73.910362 30.614679 10.000011 -0.445455 0.088606 -0.890909 158 144 157 255
-80.000000 0.000006 10.000011 -0.445455 0.088606 -0.890909 158 144 157 255
-120.000023 -0.000004 30.000019 -0.445455 0.088606 -0.890909 158 144 157 255
-40.000000 0.000004 0.000006 0.000000 -0.000000 1.000000 158 144 157 255
-180.000061 -0.000002 100.000031 -0.000000 0.000000 -1.000000 158 144 157 255
-450.000092 0.000051 100.000061 -0.000000 0.000000 -1.000000 158 144 157 255
-120.000023 -0.000004 30.000019 -0.000000 -0.000000 -1.000000 158 144 157 255
-160.000046 -0.000015 30.000023 -0.000000 -0.000000 -1.000000 158 144 157 255
-45.857864 14.142132 2.167732 -0.382683 -0.923880 0.000000 255 232 232 255
-60.000000 19.999996 5.994568 -0.382683 -0.923880 0.000000 255 232 232 255
-60.000011 19.999996 -59.999992 -0.382683 -0.923880 0.000000 255 232 232 255
-45.857872 14.142132 -59.999992 -0.382683 -0.923880 0.000000 255 232 232 255
74.142136 14.142141 9.238786 -0.382683 -0.923880 0.000000 255 232 232 255
60.000000 20.000004 5.994555 -0.382683 -0.923880 0.000000 255 232 232 255
59.999989 20.000004 -60.000008 -0.382683 -0.923880 0.000000 255 232 232 255
74.142120 14.142141 -60.000008 -0.382683 -0.923880 0.000000 255 232 232 255
-60.000000 19.999996 5.994568 0.382683 -0.923880 -0.000000 255 232 232 255
-74.142136 14.142130 9.238804 0.382683 -0.923880 -0.000000 255 232 232 255
-74.142151 14.142130 -59.999992 0.382683 -0.923880 -0.000000 255 232 232 255
-60.000011 19.999996 -59.999992 0.382683 -0.923880 -0.000000 255 232 232 255
60.000000 20.000004 5.994555 0.382683 -0.923879 -0.000000 255 232 232 255
45.857864 14.142139 2.167720 0.382683 -0.923879 -0.000000 255 232 232 255
45.857857 14.142139 -60.000008 0.382683 -0.923879 -0.000000 255 232 232 255
59.999989 20.000004 -60.000008 0.382683 -0.923879 -0.000000 255 232 232 255
74.142136 14.142141 9.238786 -0.923880 -0.382683 0.000000 255 232 232 255
74.142120 14.142141 -60.000008 -0.923880 -0.382683 0.000000 255 232 232 255
79.999985 0.000006 -60.000015 -0.923880 -0.382683 0.000000 255 232 232 255
80.000000 0.000006 9.999989 -0.923880 -0.382683 0.000000 255 232 232 255
45.857864 14.142139 2.167720 0.923880 -0.382683 -0.000000 255 232 232 255
40.000000 0.000003 -0.000006 0.923880 -0.382683 -0.000000 255 232 232 255
39.999992 0.000003 -60.000008 0.923880 -0.382683 -0.000000 255 232 232 255
45.857857 14.142139 -60.000008 0.923880 -0.382683 -0.000000 255 232 232 255
-74.142136 14.142130 9.238804 0.923879 -0.382684 -0.000000 255 232 232 255
-80.000000 0.000006 10.000011 0.923879 -0.382684 -0.000000 255 232 232 255
-80.000015 0.000006 -59.999985 0.923879 -0.382684 -0.000000 255 232 232 255
-74.142151 14.142130 -59.999992 0.923879 -0.382684 -0.000000 255 232 232 255
-45.857864 14.142132 2.167732 -0.923879 -0.382684 0.000000 255 232 232 255
-45.857872 14.142132 -59.999992 -0.923879 -0.382684 0.000000 255 232 232 255
-40.000008 0.000004 -59.999992 -0.923879 -0.382684 0.000000 255 232 232 255
-40.000000 0.000004 0.000006 -0.923879 -0.382684 0.000000 255 232 232 255
-80.000015 0.000006 -59.999985 0.000000 0.000000 1.000000 255 232 232 255
-40.000008 0.000004 -59.999992 0.000000 0.000000 1.000000 255 232 232 255
-45.857872 14.142132 -59.999992 0.000000 0.000000 1.000000 255 232 232 255
-60.000011 19.999996 -59.999992 0.000000 0.000000 1.000000 255 232 232 255
-74.142151 14.142130 -59.999992 0.000000 0.000000 1.000000 255 232 232 255
39.999992 0.000003 -60.000008 0.000000 -0.000000 1.000000 255 232 232 255
79.999985 0.000006 -60.000015 0.000000 -0.000000 1.000000 255 232 232 255
74.142120 14.142141 -60.000008 0.000000 -0.000000 1.000000 255 232 232 255
59.999989 20.000004 -60.000008 0.000000 -0.000000 1.000000 255 232 232 255
45.857857 14.142139 -60.000008 0.000000 -0.000000 1.000000 255 232 232 255
318.198090 318.198090 99.999954 0.555559 0.831446 0.000000 120 144 148 255
172.207581 415.745850 99.999969 0.555559 0.831446 0.000000 120 144 148 255
172.207642 415.745850 450.000000 0.555559 0.831446 0.000000 73 88 90 255
318.198151 318.198090 449.999939 0.555559 0.831446 0.000000 73 88 90 255
-415.745819 172.207611 100.000061 -0.980773 0.195074 0.000000 120 144 148 255
-450.000092 0.000051 100.000061 -0.980773 0.195074 0.000000 120 144 148 255
-450.000031 0.000051 450.000061 -0.980773 0.195074 0.000000 73 88 90 255
-415.745758 172.207611 450.000061 -0.980773 0.195074 0.000000 73 88 90 255
-172.207535 415.745850 100.000031 -0.555559 0.831446 0.000000 120 144 148 255
-318.198090 318.198090 100.000046 -0.555559 0.831446 0.000000 120 144 148 255
-318.198029 318.198090 450.000061 -0.555559 0.831446 0.000000 73 88 90 255
-172.207474 415.745850 450.000000 -0.555559 0.831446 0.000000 73 88 90 255
415.745819 172.207581 99.999939 0.831446 0.555559 0.000000 120 144 148 255
318.198090 318.198090 99.999954 0.831446 0.555559 0.000000 120 144 148 255
318.198151 318.198090 449.999939 0.831446 0.555559 0.000000 73 88 90 255
415.745880 172.207581 449.999939 0.831446 0.555559 0.000000 73 88 90 255
450.000000 0.000034 99.999939 0.980773 0.195074 0.000000 120 144 148 255
415.745819 172.207581 99.999939 0.980773 0.195074 0.000000 120 144 148 255
415.745880 172.207581 449.999939 0.980773 0.195074 0.000000 73 88 90 255
450.000061 0.000034 449.999939 0.980773 0.195074 0.000000 73 88 90 255
0.000040 450.000061 100.000000 -0.195074 0.980773 0.000000 120 144 148 255
-172.207535 415.745850 100.000031 -0.195074 0.980773 0.000000 120 144 148 255
-172.207474 415.745850 450.000000 -0.195074 0.980773 0.000000 73 88 90 255
0.000092 450.000061 450.000000 -0.195074 0.980773 0.000000 73 88 90 255
172.207581 415.745850 99.999969 0.195074 0.980773 0.000000 120 144 148 255
0.000040 450.000061 100.000000 0.195074 0.980773 0.000000 120 144 148 255
0.000092 450.000061 450.000000 0.195074 0.980773 0.000000 73 88 90 255
172.207642 415.745850 450.000000 0.195074 0.980773 0.000000 73 88 90 255
-318.198090 318.198090 100.000046 -0.831446 0.555559 0.000000 120 144 148 255
-415.745819 172.207611 100.000061 -0.831446 0.555559 0.000000 120 144 148 255
-415.745758 172.207611 450.000061 -0.831446 0.555559 0.000000 73 88 90 255
-318.198029 318.198090 450.000061 -0.831446 0.555559 0.000000 73 88 90 255
-306.023315 185.092758 92.109657 0.408602 0.905474 0.114724 130 130 130 255
-300.550049 166.283890 249.812546 0.408602 0.905474 0.114724 130 130 130 255
-261.190552 144.880615 249.812546 0.408602 0.905474 0.114724 130 130 130 255
-250.777267 164.439484 87.098587 0.408602 0.905474 0.114724 130 130 130 255
-250.777267 164.439484 87.098587 0.923730 0.378095 0.061378 130 130 130 255
-261.190552 144.880615 249.812546 0.923730 0.378095 0.061378 130 130 130 255
-242.894379 118.766602 249.812546 0.923730 0.378095 0.061378 130 130 130 255
-234.805786 106.271774 90.559326 0.923730 0.378095 0.061378 130 130 130 255
-234.805786 106.271774 90.559326 0.911461 -0.392372 0.123625 130 130 130 255
-242.894379 118.766602 249.812546 0.911461 -0.392372 0.123625 130 130 130 255
-268.854523 77.354095 249.812546 0.911461 -0.392372 0.123625 130 130 130 255
-246.891876 57.459682 84.703735 0.911461 -0.392372 0.123625 130 130 130 255
-246.891876 57.459682 84.703735 0.346319 -0.926862 0.144878 130 130 130 255
-268.854523 77.354095 249.812546 0.346319 -0.926862 0.144878 130 130 130 255
-301.488892 62.867867 249.812546 0.346319 -0.926862 0.144878 130 130 130 255
-295.077515 41.888588 85.604294 0.346319 -0.926862 0.144878 130 130 130 255
-295.077515 41.888588 85.604294 -0.425424 -0.898329 0.109635 130 130 130 255
-301.488892 62.867867 249.812546 -0.425424 -0.898329 0.109635 130 130 130 255
-330.164246 78.545311 249.812561 -0.425424 -0.898329 0.109635 130 130 130 255
-350.412781 66.392845 88.853508 -0.425424 -0.898329 0.109635 130 130 130 255
-350.412781 66.392845 88.853508 -0.902022 -0.406912 0.144149 130 130 130 255
-330.164246 78.545311 249.812561 -0.902022 -0.406912 0.144149 130 130 130 255
-346.328644 114.359261 249.812561 -0.902022 -0.406912 0.144149 130 130 130 255
-371.714691 113.369522 88.112022 -0.902022 -0.406912 0.144149 130 130 130 255
-261.190552 144.880615 249.812546 0.000000 -0.000000 1.000000 130 130 130 255
-300.550049 166.283890 249.812546 0.000000 -0.000000 1.000000 130 130 130 255
-330.912262 146.507889 249.812561 0.000000 -0.000000 1.000000 130 130 130 255
-346.328644 114.359261 249.812561 0.000000 -0.000000 1.000000 130 130 130 255
-330.164246 78.545311 249.812561 0.000000 -0.000000 1.000000 130 130 130 255
-301.488892 62.867867 249.812546 0.000000 -0.000000 1.000000 130 130 130 255
-268.854523 77.354095 249.812546 0.000000 -0.000000 1.000000 130 130 130 255
-242.894379 118.766602 249.812546 0.000000 -0.000000 1.000000 130 130 130 255
-371.714691 113.369522 88.112022 -0.899142 0.413964 0.142047 130 130 130 255
-346.328644 114.359261 249.812561 -0.899142 0.413964 0.142047 130 130 130 255
-330.912262 146.507889 249.812561 -0.899142 0.413964 0.142047 130 130 130 255
-349.392212 163.340118 87.676819 -0.899142 0.413964 0.142047 130 130 130 255
-349.392212 163.340118 87.676819 -0.492458 0.860155 0.132732 130 130 130 255
-330.912262 146.507889 249.812561 -0.492458 0.860155 0.132732 130 130 130 255
-300.550049 166.283890 249.812546 -0.492458 0.860155 0.132732 130 130 130 255
-306.023315 185.092758 92.109657 -0.492458 0.860155 0.132732 130 130 130 255
200.873596 285.472870 93.666672 0.372720 0.918717 0.130531 130 130 130 255
203.115036 262.472351 217.797638 0.372720 0.918717 0.130531 130 130 130 255
229.635727 256.167633 217.797638 0.372720 0.918717 0.130531 130 130 130 255
243.960846 263.517883 93.807388 0.372720 0.918717 0.130531 130 130 130 255
243.960846 263.517883 93.807388 0.904299 0.411559 0.113414 130 130 130 255
229.635727 256.167633 217.797638 0.904299 0.411559 0.113414 130 130 130 255
246.479080 223.816330 217.797638 0.904299 0.411559 0.113414 130 130 130 255
258.633392 225.782074 96.850960 0.904299 0.411559 0.113414 130 130 130 255
258.633392 225.782074 96.850960 0.934402 -0.339142 0.108981 130 130 130 255
246.479080 223.816330 217.797638 0.934402 -0.339142 0.108981 130 130 130 255
231.105392 188.802338 217.797638 0.934402 -0.339142 0.108981 130 130 130 255
244.628235 178.801712 93.583778 0.934402 -0.339142 0.108981 130 130 130 255
244.628235 178.801712 93.583778 0.342160 -0.928685 0.143073 130 130 130 255
231.105392 188.802338 217.797638 0.342160 -0.928685 0.143073 130 130 130 255
198.228699 180.842865 217.797638 0.342160 -0.928685 0.143073 130 130 130 255
200.927475 159.514969 99.864304 0.342160 -0.928685 0.143073 130 130 130 255
200.927475 159.514969 99.864304 -0.358962 -0.921615 0.147555 130 130 130 255
198.228699 180.842865 217.797638 -0.358962 -0.921615 0.147555 130 130 130 255
172.777451 189.360870 217.797638 -0.358962 -0.921615 0.147555 130 130 130 255
157.753647 176.707687 93.504547 -0.358962 -0.921615 0.147555 130 130 130 255
157.753647 176.707687 93.504547 -0.896811 -0.419300 0.141128 130 130 130 255
172.777451 189.360870 217.797638 -0.896811 -0.419300 0.141128 130 130 130 255
157.125244 219.886185 217.797638 -0.896811 -0.419300 0.141128 130 130 130 255
137.882980 221.373154 91.167740 -0.896811 -0.419300 0.141128 130 130 130 255
229.635727 256.167633 217.797638 -0.000000 0.000000 1.000000 130 130 130 255
203.115036 262.472351 217.797638 -0.000000 0.000000 1.000000 130 130 130 255
168.249878 254.853043 217.797638 -0.000000 0.000000 1.000000 130 130 130 255
157.125244 219.886185 217.797638 -0.000000 0.000000 1.000000 130 130 130 255
172.777451 189.360870 217.797638 -0.000000 0.000000 1.000000 130 130 130 255
198.228699 180.842865 217.797638 -0.000000 0.000000 1.000000 130 130 130 255
231.105392 188.802338 217.797638 -0.000000 0.000000 1.000000 130 130 130 255
246.479080 223.816330 217.797638 -0.000000 0.000000 1.000000 130 130 130 255
137.882980 221.373154 91.167740 -0.941122 0.305421 0.144938 130 130 130 255
157.125244 219.886185 217.797638 -0.941122 0.305421 0.144938 130 130 130 255
168.249878 254.853043 217.797638 -0.941122 0.305421 0.144938 130 130 130 255
152.698105 263.355652 97.449890 -0.941122 0.305421 0.144938 130 130 130 255
152.698105 263.355652 97.449890 -0.327782 0.933688 0.144170 130 130 130 255
168.249878 254.853043 217.797638 -0.327782 0.933688 0.144170 130 130 130 255
203.115036 262.472351 217.797638 -0.327782 0.933688 0.144170 130 130 130 255
200.873596 285.472870 93.666672 -0.327782 0.933688 0.144170 130 130 130 255
-90.305435 378.604279 88.519463 0.392218 0.914474 0.099511 130 130 130 255
-85.491646 356.875549 302.062561 0.392218 0.914474 0.099511 130 130 130 255
-66.555496 345.180756 302.062561 0.392218 0.914474 0.099511 130 130 130 255
-48.579384 363.812958 92.820984 0.392218 0.914474 0.099511 130 130 130 255
-48.579384 363.812958 92.820984 0.885694 0.445823 0.129570 130 130 130 255
-66.555496 345.180756 302.062561 0.885694 0.445823 0.129570 130 130 130 255
-57.627403 320.976013 302.062561 0.885694 0.445823 0.129570 130 130 130 255
-24.452915 321.783630 94.769196 0.885694 0.445823 0.129570 130 130 130 255
-24.452915 321.783630 94.769196 0.941251 -0.316964 0.116535 130 130 130 255
-57.627403 320.976013 302.062561 0.941251 -0.316964 0.116535 130 130 130 255
-57.691727 299.291473 302.062561 0.941251 -0.316964 0.116535 130 130 130 255
-47.569565 274.369385 94.059357 0.941251 -0.316964 0.116535 130 130 130 255
-47.569565 274.369385 94.059357 0.434587 -0.894675 0.103395 130 130 130 255
-57.691727 299.291473 302.062561 0.434587 -0.894675 0.103395 130 130 130 255
-87.987846 278.774506 302.062561 0.434587 -0.894675 0.103395 130 130 130 255
-91.226471 257.515594 81.528465 0.434587 -0.894675 0.103395 130 130 130 255
-91.226471 257.515594 81.528465 -0.414686 -0.905385 0.091175 130 130 130 255
-87.987846 278.774506 302.062561 -0.414686 -0.905385 0.091175 130 130 130 255
-114.648529 290.451782 302.062561 -0.414686 -0.905385 0.091175 130 130 130 255
-132.083664 277.701599 90.848984 -0.414686 -0.905385 0.091175 130 130 130 255
-132.083664 277.701599 90.848984 -0.939618 -0.324851 0.107657 130 130 130 255
-114.648529 290.451782 302.062561 -0.939618 -0.324851 0.107657 130 130 130 255
-122.370987 319.605316 302.062561 -0.939618 -0.324851 0.107657 130 130 130 255
-148.994659 319.921204 91.216583 -0.939618 -0.324851 0.107657 130 130 130 255
-66.555496 345.180756 302.062561 0.000000 0.000000 1.000000 130 130 130 255
-85.491646 356.875549 302.062561 0.000000 0.000000 1.000000 130 130 130 255
-117.498077 351.363220 302.062561 0.000000 0.000000 1.000000 130 130 130 255
-122.370987 319.605316 302.062561 0.000000 0.000000 1.000000 130 130 130 255
-114.648529 290.451782 302.062561 0.000000 0.000000 1.000000 130 130 130 255
-87.987846 278.774506 302.062561 0.000000 0.000000 1.000000 130 130 130 255
-57.691727 299.291473 302.062561 0.000000 0.000000 1.000000 130 130 130 255
-57.627403 320.976013 302.062561 0.000000 0.000000 1.000000 130 130 130 255
-148.994659 319.921204 91.216583 -0.958787 0.264492 0.103784 130 130 130 255
-122.370987 319.605316 302.062561 -0.958787 0.264492 0.103784 130 130 130 255
-117.498077 351.363220 302.062561 -0.958787 0.264492 0.103784 130 130 130 255
-132.402756 367.500214 87.325974 -0.958787 0.264492 0.103784 130 130 130 255
-132.402756 367.500214 87.325974 -0.219260 0.970938 0.095939 130 130 130 255
-117.498077 351.363220 302.062561 -0.219260 0.970938 0.095939 130 130 130 255
-85.491646 356.875549 302.062561 -0.219260 0.970938 0.095939 130 130 130 255
-90.305435 378.604279 88.519463 -0.219260 0.970938 0.095939 130 130 130 255
7 0 1 2 3 4 5 6
4 7 8 9 10
4 11 12 13 14
3 15 16 17
4 18 19 20 21
4 22 23 24 25
3 17 16 26
4 21 20 27 28
4 25 24 29 30
4 31 32 33 34
4 35 36 37 38
4 39 40 41 42
3 17 26 43
4 28 27 44 45
4 30 29 46 47
4 48 49 50 51
4 52 53 54 55
4 56 57 58 59
3 17 43 60
4 45 44 61 62
4 47 46 63 64
4 65 66 67 68
4 69 70 71 72
4 73 74 75 76
4 62 61 77 78
4 64 63 79 80
4 81 82 83 84
4 85 86 87 88
4 89 90 91 92
3 17 60 93
4 80 79 94 95
4 96 97 98 99
4 100 101 102 103
4 104 105 106 107
3 17 93 108
4 78 77 109 110
4 111 112 113 114
4 115 116 117 118
4 119 120 121 122
3 17 108 123
4 110 109 124 125
4 95 94 126 127
7 128 129 130 131 132 133 134
4 135 136 137 138
4 139 140 141 142
3 17 123 143
4 125 124 144 145
4 127 126 146 147
4 148 149 150 151
4 152 153 154 155
4 156 157 158 159
4 160 161 162 163
4 164 165 166 167
4 168 169 170 171
4 172 173 174 175
4 176 177 178 179
5 180 181 182 183 184
5 185 186 187 188 189
4 190 191 192 193
4 194 195 196 197
4 198 199 200 201
4 202 203 204 205
4 206 207 208 209
4 210 211 212 213
4 214 215 216 217
4 218 219 220 221
4 222 223 224 225
4 226 227 228 229
4 230 231 232 233
4 234 235 236 237
4 238 239 240 241
4 242 243 244 245
8 246 247 248 249 250 251 252 253
4 254 255 256 257
4 258 259 260 261
4 262 263 264 265
4 266 267 268 269
4 270 271 272 273
4 274 275 276 277
4 278 279 280 281
4 282 283 284 285
8 286 287 288 289 290 291 292 293
4 294 295 296 297
4 298 299 300 301
4 302 303 304 305
4 306 307 308 309
4 310 311 312 313
4 314 315 316 317
4 318 319 320 321
4 322 323 324 325
8 326 327 328 329 330 331 332 333
4 334 335 336 337
4 338 339 340 341
